<?xml version="1.0" encoding="UTF-8"?><svg id="uuid-a6920bdc-ae2f-45f2-ab37-bfc785ae25dd" xmlns="http://www.w3.org/2000/svg" viewBox="0 0 359 539"><g id="uuid-805d9dbf-e702-4e4b-9c7a-4b347893904f"><g id="uuid-7bf65384-f817-45e8-b7c3-4bc8862ada8e"><path id="uuid-5ded1f23-1bf6-4812-a298-aa8d16699ba0" d="m14.5,29.5l-5,7v7l5-7v43h5V29.5h-5Z"/><path id="uuid-271a0188-9af2-49d3-aeb5-fdfb89fd09b0" d="m34.5,29.5c-5.54,0-10,4.46-10,10v30c0,5.54,4.46,10,10,10s10-4.46,10-10v-30c0-5.54-4.46-10-10-10Zm0,5c2.77,0,5,2.23,5,5v30c0,2.77-2.23,5-5,5s-5-2.23-5-5v-30c0-2.77,2.23-5,5-5Z"/></g><g id="uuid-4eb31087-8983-4ebe-b949-e320a1254298"><path id="uuid-525a5909-c223-4a10-b145-4a5a057c9687" d="m344.5,509.5l5-7v-7l-5,7v-43h-5v50h5Z"/><path id="uuid-4711670d-c6a8-4660-8fda-0fc7ae5b7286" d="m324.5,509.5c5.54,0,10-4.46,10-10v-30c0-5.54-4.46-10-10-10s-10,4.46-10,10v30c0,5.54,4.46,10,10,10Zm0-5c-2.77,0-5-2.23-5-5v-30c0-2.77,2.23-5,5-5s5,2.23,5,5v30c0,2.77-2.23,5-5,5Z"/></g><path id="uuid-fdc3a74c-f1d0-4bd7-a708-7b1406fed8f6" d="m32,117.5c.5,2,2.5,7,6,7,4.5,0,6.5-4,6.5-9,0-3.5-1.29-5.81-2.5-8.5-1.29-2.87-3.19-5.43-5-8-2.32-3.3-7.5-9.5-7.5-9.5,0,0-5.18,6.2-7.5,9.5-1.81,2.57-3.71,5.13-5,8-1.21,2.69-2.5,5-2.5,8.5,0,5,2,9,6.5,9,3.5,0,5.5-5,6-7,.5-.5.5,0,.5.5-.5,4-.5,5-1,8s-2,8.5-2,8.5c2.5-1,7.5-1,10,0,0,0-1.5-5.5-2-8.5s-.5-4-1-8c0-.5,0-1,.5-.5Z"/><path id="uuid-dd3723a6-4380-40fc-b33c-72fc520274eb" d="m332,421.5c.5-2,2.5-7,6-7,4.5,0,6.5,4,6.5,9,0,3.5-1.29,5.81-2.5,8.5-1.29,2.87-3.19,5.43-5,8-2.32,3.3-7.5,9.5-7.5,9.5,0,0-5.18-6.2-7.5-9.5-1.81-2.57-3.71-5.13-5-8-1.21-2.69-2.5-5-2.5-8.5,0-5,2-9,6.5-9,3.5,0,5.5,5,6,7,.5.5.5,0,.5-.5-.5-4-.5-5-1-8s-2-8.5-2-8.5c2.5,1,7.5,1,10,0,0,0-1.5,5.5-2,8.5s-.5,4-1,8c0,.5,0,1,.5.5Z"/><path id="uuid-c8234df9-4f7e-4711-b406-635580d6d9e1" d="m94.5,100.5c1,4,5,14,12,14,9,0,13-8,13-18,0-7-2.58-11.61-5-17-2.58-5.74-6.38-10.86-10-16-4.65-6.6-15-19-15-19,0,0-10.35,12.4-15,19-3.62,5.14-7.42,10.26-10,16-2.42,5.39-5,10-5,17,0,10,4,18,13,18,7,0,11-10,12-14,1-1,1,0,1,1-1,8-1,10-2,16s-4,17-4,17c5-2,15-2,20,0,0,0-3-11-4-17s-1-8-2-16c0-1,0-2,1-1Z"/><path id="uuid-7a2129fe-57ed-41bd-a050-205cb2f6c4e6" d="m274.5,100.5c1,4,5,14,12,14,9,0,13-8,13-18,0-7-2.58-11.61-5-17-2.58-5.74-6.38-10.86-10-16-4.65-6.6-15-19-15-19,0,0-10.35,12.4-15,19-3.62,5.14-7.42,10.26-10,16-2.42,5.39-5,10-5,17,0,10,4,18,13,18,7,0,11-10,12-14,1-1,1,0,1,1-1,8-1,10-2,16s-4,17-4,17c5-2,15-2,20,0,0,0-3-11-4-17s-1-8-2-16c0-1,0-2,1-1Z"/><path id="uuid-45199377-3a57-4e58-8b20-d2d5391e5ecd" d="m184.5,160.5c1,4,5,14,12,14,9,0,13-8,13-18,0-7-2.58-11.61-5-17-2.58-5.74-6.38-10.86-10-16-4.65-6.6-15-19-15-19,0,0-10.35,12.4-15,19-3.62,5.14-7.42,10.26-10,16-2.42,5.39-5,10-5,17,0,10,4,18,13,18,7,0,11-10,12-14,1-1,1,0,1,1-1,8-1,10-2,16s-4,17-4,17c5-2,15-2,20,0,0,0-3-11-4-17s-1-8-2-16c0-1,0-2,1-1Z"/><path id="uuid-e7c6026a-13cb-4328-8804-56146d752d9a" d="m94.5,220.5c1,4,5,14,12,14,9,0,13-8,13-18,0-7-2.58-11.61-5-17-2.58-5.74-6.38-10.86-10-16-4.65-6.6-15-19-15-19,0,0-10.35,12.4-15,19-3.62,5.14-7.42,10.26-10,16-2.42,5.39-5,10-5,17,0,10,4,18,13,18,7,0,11-10,12-14,1-1,1,0,1,1-1,8-1,10-2,16s-4,17-4,17c5-2,15-2,20,0,0,0-3-11-4-17s-1-8-2-16c0-1,0-2,1-1Z"/><path id="uuid-3a7ae753-7a09-44a5-9db5-2668593381b7" d="m274.5,220.5c1,4,5,14,12,14,9,0,13-8,13-18,0-7-2.58-11.61-5-17-2.58-5.74-6.38-10.86-10-16-4.65-6.6-15-19-15-19,0,0-10.35,12.4-15,19-3.62,5.14-7.42,10.26-10,16-2.42,5.39-5,10-5,17,0,10,4,18,13,18,7,0,11-10,12-14,1-1,1,0,1,1-1,8-1,10-2,16s-4,17-4,17c5-2,15-2,20,0,0,0-3-11-4-17s-1-8-2-16c0-1,0-2,1-1Z"/><path id="uuid-49f4b6f1-aa64-43df-8602-cd04081a1dcb" d="m94.5,318.5c1-4,5-14,12-14,9,0,13,8,13,18,0,7-2.58,11.61-5,17-2.58,5.74-6.38,10.86-10,16-4.65,6.6-15,19-15,19,0,0-10.35-12.4-15-19-3.62-5.14-7.42-10.26-10-16-2.42-5.39-5-10-5-17,0-10,4-18,13-18,7,0,11,10,12,14,1,1,1,0,1-1-1-8-1-10-2-16s-4-17-4-17c5,2,15,2,20,0,0,0-3,11-4,17s-1,8-2,16c0,1,0,2,1,1Z"/><path id="uuid-89cc7759-f4f8-40b0-9a01-91d902d646a5" d="m274.5,318.5c1-4,5-14,12-14,9,0,13,8,13,18,0,7-2.58,11.61-5,17-2.58,5.74-6.38,10.86-10,16-4.65,6.6-15,19-15,19,0,0-10.35-12.4-15-19-3.62-5.14-7.42-10.26-10-16-2.42-5.39-5-10-5-17,0-10,4-18,13-18,7,0,11,10,12,14,1,1,1,0,1-1-1-8-1-10-2-16s-4-17-4-17c5,2,15,2,20,0,0,0-3,11-4,17s-1,8-2,16c0,1,0,2,1,1Z"/><path id="uuid-c085d601-2d2e-4a6d-bb08-cdce321f0b6a" d="m184.5,378.5c1-4,5-14,12-14,9,0,13,8,13,18,0,7-2.58,11.61-5,17-2.58,5.74-6.38,10.86-10,16-4.65,6.6-15,19-15,19,0,0-10.35-12.4-15-19-3.62-5.14-7.42-10.26-10-16-2.42-5.39-5-10-5-17,0-10,4-18,13-18,7,0,11,10,12,14,1,1,1,0,1-1-1-8-1-10-2-16s-4-17-4-17c5,2,15,2,20,0,0,0-3,11-4,17s-1,8-2,16c0,1,0,2,1,1Z"/><path id="uuid-5575a108-0c65-44d5-8c6f-cffa5e61f185" d="m94.5,438.5c1-4,5-14,12-14,9,0,13,8,13,18,0,7-2.58,11.61-5,17-2.58,5.74-6.38,10.86-10,16-4.65,6.6-15,19-15,19,0,0-10.35-12.4-15-19-3.62-5.14-7.42-10.26-10-16-2.42-5.39-5-10-5-17,0-10,4-18,13-18,7,0,11,10,12,14,1,1,1,0,1-1-1-8-1-10-2-16s-4-17-4-17c5,2,15,2,20,0,0,0-3,11-4,17s-1,8-2,16c0,1,0,2,1,1Z"/><path id="uuid-b1d1fa57-a023-4668-a30f-aad5a4912a2a" d="m274.5,438.5c1-4,5-14,12-14,9,0,13,8,13,18,0,7-2.58,11.61-5,17-2.58,5.74-6.38,10.86-10,16-4.65,6.6-15,19-15,19,0,0-10.35-12.4-15-19-3.62-5.14-7.42-10.26-10-16-2.42-5.39-5-10-5-17,0-10,4-18,13-18,7,0,11,10,12,14,1,1,1,0,1-1-1-8-1-10-2-16s-4-17-4-17c5,2,15,2,20,0,0,0-3,11-4,17s-1,8-2,16c0,1,0,2,1,1Z"/></g></svg>