<?xml version="1.0" encoding="UTF-8"?><svg id="uuid-1f012804-1a0f-44a5-a2f5-21296647344d" xmlns="http://www.w3.org/2000/svg" viewBox="0 0 359 539"><g id="uuid-e51beb22-76ce-472a-8e7f-3e689489e5d2"><path id="uuid-cce32503-9229-482c-8831-c7ae391995cf" d="m29.5,29.5c-5.54,0-10,4.46-10,10v5h5v-5c0-2.77,2.23-5,5-5s5,2.23,5,5v5c0,2.77-2.23,5-5,5h-5v5h5c2.77,0,5,2.23,5,5v10c0,2.77-2.23,5-5,5s-5-2.23-5-5v-5h-5v5c0,5.54,4.46,10,10,10s10-4.46,10-10v-10c0-3-1.32-5.67-3.41-7.5,2.08-1.83,3.41-4.5,3.41-7.5v-5c0-5.54-4.46-10-10-10Z"/><path id="uuid-e5fbb7d6-9316-4cd0-83fe-576cccab59d3" d="m329.5,509.5c5.54,0,10-4.46,10-10v-5h-5v5c0,2.77-2.23,5-5,5s-5-2.23-5-5v-5c0-2.77,2.23-5,5-5h5v-5h-5c-2.77,0-5-2.23-5-5v-10c0-2.77,2.23-5,5-5s5,2.23,5,5v5h5v-5c0-5.54-4.46-10-10-10s-10,4.46-10,10v10c0,3,1.32,5.67,3.41,7.5-2.08,1.83-3.41,4.5-3.41,7.5v5c0,5.54,4.46,10,10,10h0Z"/><path id="uuid-44aa0c1a-b2fa-4cf3-b9b7-f07c5a515b72" d="m184.5,100.5c1,4,5,14,12,14,9,0,13-8,13-18,0-7-2.58-11.61-5-17-2.58-5.74-6.38-10.86-10-16-4.65-6.6-15-19-15-19,0,0-10.35,12.4-15,19-3.62,5.14-7.42,10.26-10,16-2.42,5.39-5,10-5,17,0,10,4,18,13,18,7,0,11-10,12-14,1-1,1,0,1,1-1,8-1,10-2,16s-4,17-4,17c5-2,15-2,20,0,0,0-3-11-4-17s-1-8-2-16c0-1,0-2,1-1Z"/><path id="uuid-5f1cb078-ac1f-405a-acbf-f1c2a81042d5" d="m184.5,280.5c1,4,5,14,12,14,9,0,13-8,13-18,0-7-2.58-11.61-5-17-2.58-5.74-6.38-10.86-10-16-4.65-6.6-15-19-15-19,0,0-10.35,12.4-15,19-3.62,5.14-7.42,10.26-10,16-2.42,5.39-5,10-5,17,0,10,4,18,13,18,7,0,11-10,12-14,1-1,1,0,1,1-1,8-1,10-2,16s-4,17-4,17c5-2,15-2,20,0,0,0-3-11-4-17s-1-8-2-16c0-1,0-2,1-1Z"/><path id="uuid-151d6ac8-8c5e-46a1-9fd4-814682b678eb" d="m184.5,438.5c1-4,5-14,12-14,9,0,13,8,13,18,0,7-2.58,11.61-5,17-2.58,5.74-6.38,10.86-10,16-4.65,6.6-15,19-15,19,0,0-10.35-12.4-15-19-3.62-5.14-7.42-10.26-10-16-2.42-5.39-5-10-5-17,0-10,4-18,13-18,7,0,11,10,12,14,1,1,1,0,1-1-1-8-1-10-2-16s-4-17-4-17c5,2,15,2,20,0,0,0-3,11-4,17s-1,8-2,16c0,1,0,2,1,1Z"/><path id="uuid-458dee6d-b1ed-4ccf-82db-d0eac186a0f2" d="m32,117.5c.5,2,2.5,7,6,7,4.5,0,6.5-4,6.5-9,0-3.5-1.29-5.81-2.5-8.5-1.29-2.87-3.19-5.43-5-8-2.32-3.3-7.5-9.5-7.5-9.5,0,0-5.18,6.2-7.5,9.5-1.81,2.57-3.71,5.13-5,8-1.21,2.69-2.5,5-2.5,8.5,0,5,2,9,6.5,9,3.5,0,5.5-5,6-7,.5-.5.5,0,.5.5-.5,4-.5,5-1,8s-2,8.5-2,8.5c2.5-1,7.5-1,10,0,0,0-1.5-5.5-2-8.5s-.5-4-1-8c0-.5,0-1,.5-.5Z"/><path id="uuid-5a886ac5-736e-45ae-9972-5a5516ab3b25" d="m332,421.5c.5-2,2.5-7,6-7,4.5,0,6.5,4,6.5,9,0,3.5-1.29,5.81-2.5,8.5-1.29,2.87-3.19,5.43-5,8-2.32,3.3-7.5,9.5-7.5,9.5,0,0-5.18-6.2-7.5-9.5-1.81-2.57-3.71-5.13-5-8-1.21-2.69-2.5-5-2.5-8.5,0-5,2-9,6.5-9,3.5,0,5.5,5,6,7,.5.5.5,0,.5-.5-.5-4-.5-5-1-8s-2-8.5-2-8.5c2.5,1,7.5,1,10,0,0,0-1.5,5.5-2,8.5s-.5,4-1,8c0,.5,0,1,.5.5Z"/></g></svg>