<?xml version="1.0" encoding="UTF-8"?><svg id="uuid-dd273e65-a310-4e7b-94ad-a06223b7d677" xmlns="http://www.w3.org/2000/svg" viewBox="0 0 359 539"><g id="uuid-7ce68a81-f421-43ce-a836-b56d6f863c96"><path id="uuid-fdb9962b-eb4c-4f72-98a5-5ebd5f4f62f9" d="m29.5,29.5c-5.54,0-10,4.46-10,10v30c0,5.54,4.46,10,10,10s10-4.46,10-10v-10c0-5.54-4.46-10-10-10-1.82,0-3.53.5-5,1.34v-11.34c0-2.77,2.23-5,5-5s5,2.23,5,5v1h5v-1c0-5.54-4.46-10-10-10Zm0,25c2.77,0,5,2.23,5,5v10c0,2.77-2.23,5-5,5s-5-2.23-5-5v-10c0-2.77,2.23-5,5-5Z"/><path id="uuid-a7734e2d-94c1-4e03-bc36-9af5921fb9b7" d="m329.5,509.5c5.54,0,10-4.46,10-10v-30c0-5.54-4.46-10-10-10s-10,4.46-10,10v10c0,5.54,4.46,10,10,10,1.82,0,3.53-.5,5-1.34v11.34c0,2.77-2.23,5-5,5s-5-2.23-5-5v-1h-5v1c0,5.54,4.46,10,10,10Zm0-25c-2.77,0-5-2.23-5-5v-10c0-2.77,2.23-5,5-5s5,2.23,5,5v10c0,2.77-2.23,5-5,5Z"/><path id="uuid-2c204454-ffeb-47ab-a18d-40917c5ff38a" d="m94.5,100.5c1,4,5,14,12,14,9,0,13-8,13-18,0-7-2.58-11.61-5-17-2.58-5.74-6.38-10.86-10-16-4.65-6.6-15-19-15-19,0,0-10.35,12.4-15,19-3.62,5.14-7.42,10.26-10,16-2.42,5.39-5,10-5,17,0,10,4,18,13,18,7,0,11-10,12-14,1-1,1,0,1,1-1,8-1,10-2,16s-4,17-4,17c5-2,15-2,20,0,0,0-3-11-4-17s-1-8-2-16c0-1,0-2,1-1Z"/><path id="uuid-e2d7149a-ee24-4900-bd45-c30d2a3563dc" d="m274.5,100.5c1,4,5,14,12,14,9,0,13-8,13-18,0-7-2.58-11.61-5-17-2.58-5.74-6.38-10.86-10-16-4.65-6.6-15-19-15-19,0,0-10.35,12.4-15,19-3.62,5.14-7.42,10.26-10,16-2.42,5.39-5,10-5,17,0,10,4,18,13,18,7,0,11-10,12-14,1-1,1,0,1,1-1,8-1,10-2,16s-4,17-4,17c5-2,15-2,20,0,0,0-3-11-4-17s-1-8-2-16c0-1,0-2,1-1Z"/><path id="uuid-d4341180-f316-48cc-911f-75367e3bffeb" d="m94.5,280.5c1,4,5,14,12,14,9,0,13-8,13-18,0-7-2.58-11.61-5-17-2.58-5.74-6.38-10.86-10-16-4.65-6.6-15-19-15-19,0,0-10.35,12.4-15,19-3.62,5.14-7.42,10.26-10,16-2.42,5.39-5,10-5,17,0,10,4,18,13,18,7,0,11-10,12-14,1-1,1,0,1,1-1,8-1,10-2,16s-4,17-4,17c5-2,15-2,20,0,0,0-3-11-4-17s-1-8-2-16c0-1,0-2,1-1Z"/><path id="uuid-2f234201-dbcc-4c30-9205-568ae278f66c" d="m274.5,280.5c1,4,5,14,12,14,9,0,13-8,13-18,0-7-2.58-11.61-5-17-2.58-5.74-6.38-10.86-10-16-4.65-6.6-15-19-15-19,0,0-10.35,12.4-15,19-3.62,5.14-7.42,10.26-10,16-2.42,5.39-5,10-5,17,0,10,4,18,13,18,7,0,11-10,12-14,1-1,1,0,1,1-1,8-1,10-2,16s-4,17-4,17c5-2,15-2,20,0,0,0-3-11-4-17s-1-8-2-16c0-1,0-2,1-1Z"/><path id="uuid-ef1551c9-5567-4ca0-9686-b3112d1bdcfb" d="m94.5,438.5c1-4,5-14,12-14,9,0,13,8,13,18,0,7-2.58,11.61-5,17-2.58,5.74-6.38,10.86-10,16-4.65,6.6-15,19-15,19,0,0-10.35-12.4-15-19-3.62-5.14-7.42-10.26-10-16-2.42-5.39-5-10-5-17,0-10,4-18,13-18,7,0,11,10,12,14,1,1,1,0,1-1-1-8-1-10-2-16s-4-17-4-17c5,2,15,2,20,0,0,0-3,11-4,17s-1,8-2,16c0,1,0,2,1,1Z"/><path id="uuid-1276827a-1eb8-46b8-ba4f-b45b44313916" d="m274.5,438.5c1-4,5-14,12-14,9,0,13,8,13,18,0,7-2.58,11.61-5,17-2.58,5.74-6.38,10.86-10,16-4.65,6.6-15,19-15,19,0,0-10.35-12.4-15-19-3.62-5.14-7.42-10.26-10-16-2.42-5.39-5-10-5-17,0-10,4-18,13-18,7,0,11,10,12,14,1,1,1,0,1-1-1-8-1-10-2-16s-4-17-4-17c5,2,15,2,20,0,0,0-3,11-4,17s-1,8-2,16c0,1,0,2,1,1Z"/><path id="uuid-700400a9-9c9d-4e6b-b98f-87350d34e988" d="m32,117.5c.5,2,2.5,7,6,7,4.5,0,6.5-4,6.5-9,0-3.5-1.29-5.81-2.5-8.5-1.29-2.87-3.19-5.43-5-8-2.32-3.3-7.5-9.5-7.5-9.5,0,0-5.18,6.2-7.5,9.5-1.81,2.57-3.71,5.13-5,8-1.21,2.69-2.5,5-2.5,8.5,0,5,2,9,6.5,9,3.5,0,5.5-5,6-7,.5-.5.5,0,.5.5-.5,4-.5,5-1,8s-2,8.5-2,8.5c2.5-1,7.5-1,10,0,0,0-1.5-5.5-2-8.5s-.5-4-1-8c0-.5,0-1,.5-.5Z"/><path id="uuid-b6bba9f7-d700-49ee-95a8-3a78ec12183b" d="m332,421.5c.5-2,2.5-7,6-7,4.5,0,6.5,4,6.5,9,0,3.5-1.29,5.81-2.5,8.5-1.29,2.87-3.19,5.43-5,8-2.32,3.3-7.5,9.5-7.5,9.5,0,0-5.18-6.2-7.5-9.5-1.81-2.57-3.71-5.13-5-8-1.21-2.69-2.5-5-2.5-8.5,0-5,2-9,6.5-9,3.5,0,5.5,5,6,7,.5.5.5,0,.5-.5-.5-4-.5-5-1-8s-2-8.5-2-8.5c2.5,1,7.5,1,10,0,0,0-1.5,5.5-2,8.5s-.5,4-1,8c0,.5,0,1,.5.5Z"/></g></svg>