<?xml version="1.0" encoding="UTF-8"?><svg id="uuid-65ed88a5-05d8-4cff-be8d-5471f04bb989" xmlns="http://www.w3.org/2000/svg" viewBox="0 0 359 539"><g id="uuid-f6bef74b-2c69-4ce8-9c8d-6b0e888a04b9"><path id="uuid-d8573e6b-9ab3-47fb-bdae-4ef93f48991f" d="m29.5,29.5c-5.54,0-10,4.46-10,10v30c0,5.54,4.46,10,10,10s10-4.46,10-10v-10c0-5.54-4.46-10-10-10-1.82,0-3.53.5-5,1.34v-11.34c0-2.77,2.23-5,5-5s5,2.23,5,5v1h5v-1c0-5.54-4.46-10-10-10Zm0,25c2.77,0,5,2.23,5,5v10c0,2.77-2.23,5-5,5s-5-2.23-5-5v-10c0-2.77,2.23-5,5-5Z" style="fill:#f55;"/><path id="uuid-f0d97169-27c3-4369-882d-91fb25d84938" d="m329.5,509.5c5.54,0,10-4.46,10-10v-30c0-5.54-4.46-10-10-10s-10,4.46-10,10v10c0,5.54,4.46,10,10,10,1.82,0,3.53-.5,5-1.34v11.34c0,2.77-2.23,5-5,5s-5-2.23-5-5v-1h-5v1c0,5.54,4.46,10,10,10Zm0-25c-2.77,0-5-2.23-5-5v-10c0-2.77,2.23-5,5-5s5,2.23,5,5v10c0,2.77-2.23,5-5,5Z" style="fill:#f55;"/><path id="uuid-1f17cb96-23c3-4f32-ae92-442ac65e5f8f" d="m29,98.5c0-5.52-2.86-9-7-9s-7.5,4.48-7.5,10c.02.48,0,.95,0,1.41,0,3.65,1.34,7.19,2.5,10.5,1.19,3.41,2.92,6.39,4.53,9.44,2.5,4.72,7.97,13.66,7.97,13.66,0,0,5.47-8.94,7.97-13.66,1.61-3.05,3.34-6.03,4.53-9.44,1.16-3.31,2.5-6.85,2.5-10.5-.01-.49,0-.96,0-1.41,0-5.52-3.36-10-7.5-10s-7,3.48-7,9c0,1-1,1-1,0Z" style="fill:#f55;"/><path id="uuid-7226bdb1-8d1a-4592-bb34-03974e3e8c3b" d="m330,440.5c0,5.52,2.86,9,7,9s7.5-4.48,7.5-10c0-.45-.01-.92,0-1.41,0-3.65-1.34-7.19-2.5-10.5-1.19-3.41-2.92-6.39-4.53-9.44-2.5-4.72-7.97-13.66-7.97-13.66,0,0-5.47,8.94-7.97,13.66-1.61,3.05-3.34,6.03-4.53,9.44-1.16,3.31-2.5,6.85-2.5,10.5,0,.46.02.93,0,1.41,0,5.52,3.36,10,7.5,10s7-3.48,7-9c0-1,1-1,1,0Z" style="fill:#f55;"/><path id="uuid-7ca669cd-8ce5-44ea-8449-82878fbbf4d9" d="m88.5,62.5c0-11.05-5.72-18-14-18s-15,8.95-15,20c.03.96.02,1.89,0,2.81,0,7.3,2.68,14.38,5,21,2.39,6.81,5.83,12.78,9.06,18.87,5,9.44,15.94,27.31,15.94,27.31,0,0,10.94-17.87,15.94-27.31,3.23-6.09,6.67-12.06,9.06-18.87,2.32-6.62,5-13.7,5-21-.03-.97-.02-1.91,0-2.81,0-11.05-6.72-20-15-20s-14,6.95-14,18c0,2-2,2-2,0Z" style="fill:#f55;"/><path id="uuid-98cc5a26-a879-421b-b65b-2b9d6037e186" d="m268.5,62.5c0-11.05-5.72-18-14-18s-15,8.95-15,20c.03.96.02,1.89,0,2.81,0,7.3,2.68,14.38,5,21,2.39,6.81,5.83,12.78,9.06,18.87,5,9.44,15.94,27.31,15.94,27.31,0,0,10.94-17.87,15.94-27.31,3.23-6.09,6.67-12.06,9.06-18.88,2.32-6.62,5-13.7,5-21-.03-.97-.02-1.91,0-2.81,0-11.05-6.72-20-15-20s-14,6.95-14,18c0,2-2,2-2,0Z" style="fill:#f55;"/><path id="uuid-1b1e48c6-f7e4-4eb2-b920-da8c514e309a" d="m88.5,242.5c0-11.05-5.72-18-14-18s-15,8.95-15,20c.03.96.02,1.89,0,2.81,0,7.3,2.68,14.38,5,21,2.39,6.81,5.83,12.78,9.06,18.88,5,9.44,15.94,27.31,15.94,27.31,0,0,10.94-17.87,15.94-27.31,3.23-6.09,6.67-12.06,9.06-18.87,2.32-6.62,5-13.7,5-21-.03-.97-.02-1.91,0-2.81,0-11.05-6.72-20-15-20s-14,6.95-14,18c0,2-2,2-2,0Z" style="fill:#f55;"/><path id="uuid-9cbdca6b-7b5d-4798-b0ee-aab6b64aa1a4" d="m268.5,242.5c0-11.05-5.72-18-14-18s-15,8.95-15,20c.03.96.02,1.89,0,2.81,0,7.3,2.68,14.38,5,21,2.39,6.81,5.83,12.78,9.06,18.87,5,9.44,15.94,27.31,15.94,27.31,0,0,10.94-17.87,15.94-27.31,3.23-6.09,6.67-12.06,9.06-18.88,2.32-6.62,5-13.7,5-21-.03-.97-.02-1.91,0-2.81,0-11.05-6.72-20-15-20s-14,6.95-14,18c0,2-2,2-2,0Z" style="fill:#f55;"/><path id="uuid-6118693e-00d2-4891-8f37-344e93b7a3ac" d="m90.5,476.5c0,11.05,5.72,18,14,18s15-8.95,15-20c-.02-.9-.03-1.84,0-2.81,0-7.3-2.68-14.38-5-21-2.39-6.81-5.83-12.78-9.06-18.88-5-9.44-15.94-27.31-15.94-27.31,0,0-10.94,17.87-15.94,27.31-3.23,6.09-6.67,12.06-9.06,18.88-2.32,6.62-5,13.7-5,21,.02.92.03,1.86,0,2.81,0,11.05,6.72,20,15,20s14-6.95,14-18c0-2,2-2,2,0Z" style="fill:#f55;"/><path id="uuid-85f3b6cb-9a4e-435d-9ea5-03d6650835e1" d="m270.5,476.5c0,11.05,5.72,18,14,18s15-8.95,15-20c-.02-.9-.03-1.84,0-2.81,0-7.3-2.68-14.38-5-21-2.39-6.81-5.83-12.78-9.06-18.88-5-9.44-15.94-27.31-15.94-27.31,0,0-10.94,17.87-15.94,27.31-3.23,6.09-6.67,12.06-9.06,18.88-2.32,6.62-5,13.7-5,21,.02.92.03,1.86,0,2.81,0,11.05,6.72,20,15,20s14-6.95,14-18c0-2,2-2,2,0Z" style="fill:#f55;"/></g></svg>