<?xml version="1.0" encoding="UTF-8"?><svg id="uuid-9220f54a-56cd-4ebc-9eed-4ad80e5fdc12" xmlns="http://www.w3.org/2000/svg" viewBox="0 0 359 539"><g id="uuid-11e3a6e3-79ee-45a7-8fcc-66da8939f858"><path id="uuid-4b8f7f65-010e-4f43-a985-e352f65b778d" d="m19.5,29.5v10h5v-5h10l-10,45h5l10-45v-5h-20Z" style="fill:#f55;"/><path id="uuid-194f5a38-d0a2-444a-91f8-38e2b1c153bb" d="m339.5,509.5v-10h-5v5h-10l10-45h-5l-10,45v5h20Z" style="fill:#f55;"/><path id="uuid-b88ae07d-ba28-450f-a00d-1007edaf2584" d="m29.5,89.5s3,7.5,6.5,12.5,8.5,10,8.5,10c0,0-5,5-8.5,10s-6.5,12.5-6.5,12.5c0,0-3-7.5-6.5-12.5s-8.5-10-8.5-10c0,0,5-5,8.5-10s6.5-12.5,6.5-12.5" style="fill:#f55;"/><path id="uuid-60f1c1e8-8812-4e43-ab17-532d578b9954" d="m329.5,404.5s3,7.5,6.5,12.5,8.5,10,8.5,10c0,0-5,5-8.5,10s-6.5,12.5-6.5,12.5c0,0-3-7.5-6.5-12.5s-8.5-10-8.5-10c0,0,5-5,8.5-10s6.5-12.5,6.5-12.5" style="fill:#f55;"/><path id="uuid-dd3aff0d-999a-48f9-b854-d9abf0ccc755" d="m89.5,44.5s6,15,13,25,17,20,17,20c0,0-10,10-17,20s-13,25-13,25c0,0-6-15-13-25s-17-20-17-20c0,0,10-10,17-20s13-25,13-25" style="fill:#f55;"/><path id="uuid-9937ed48-4705-426b-9cdb-0cb70f8ab7ce" d="m269.5,44.5s6,15,13,25,17,20,17,20c0,0-10,10-17,20s-13,25-13,25c0,0-6-15-13-25s-17-20-17-20c0,0,10-10,17-20s13-25,13-25" style="fill:#f55;"/><path id="uuid-25c757e4-e73c-4ec2-8aca-861a58f5e6d5" d="m179.5,134.5s6,15,13,25,17,20,17,20c0,0-10,10-17,20s-13,25-13,25c0,0-6-15-13-25s-17-20-17-20c0,0,10-10,17-20s13-25,13-25" style="fill:#f55;"/><path id="uuid-5581d9f3-2c50-4c6d-8b4c-d2ac36ae9855" d="m89.5,224.5s6,15,13,25,17,20,17,20c0,0-10,10-17,20s-13,25-13,25c0,0-6-15-13-25s-17-20-17-20c0,0,10-10,17-20s13-25,13-25" style="fill:#f55;"/><path id="uuid-7b7149e6-edb3-4279-b9d1-a568e4cc21f3" d="m269.5,224.5s6,15,13,25,17,20,17,20c0,0-10,10-17,20s-13,25-13,25c0,0-6-15-13-25s-17-20-17-20c0,0,10-10,17-20s13-25,13-25" style="fill:#f55;"/><path id="uuid-615edd3f-d260-4d37-bbdb-80ac5cbd774a" d="m89.5,404.5s6,15,13,25,17,20,17,20c0,0-10,10-17,20s-13,25-13,25c0,0-6-15-13-25s-17-20-17-20c0,0,10-10,17-20s13-25,13-25" style="fill:#f55;"/><path id="uuid-b6fc783f-8a7e-4ede-b9ab-8ee091af065d" d="m269.5,404.5s6,15,13,25,17,20,17,20c0,0-10,10-17,20s-13,25-13,25c0,0-6-15-13-25s-17-20-17-20c0,0,10-10,17-20s13-25,13-25" style="fill:#f55;"/></g></svg>