<?xml version="1.0" encoding="UTF-8"?><svg id="uuid-7cdb1d97-d7eb-4c87-b4d4-4948d277196d" xmlns="http://www.w3.org/2000/svg" viewBox="0 0 359 539"><g id="uuid-d04057ff-3f96-4e6f-89f8-cdceb8a9e2dc"><path id="uuid-c458548e-843e-41ab-9c90-72510020efba" d="m179.5,224.5s6,15,13,25,17,20,17,20c0,0-10,10-17,20s-13,25-13,25c0,0-6-15-13-25s-17-20-17-20c0,0,10-10,17-20s13-25,13-25" style="fill:#f55;"/><path id="uuid-d5b1df05-438a-4556-9578-5d5c664bcd08" d="m27,29.5l-9,50h5l2.34-13h8.31l2.34,13h5l-9-50h-5Zm2.5,13.91l3.25,18.09h-6.5l3.25-18.09Z" style="fill:#f55;"/><path id="uuid-d76ba62d-d59f-4d07-a19f-7a14e2d6cff7" d="m327,509.5l-9-50h5l2.34,13h8.31l2.34-13h5l-9,50h-5Zm2.5-13.91l3.25-18.09h-6.5l3.25,18.09h0Z" style="fill:#f55;"/><path id="uuid-f83dccc5-58c1-4e83-a19c-0bf8af3bcbdf" d="m29.5,89.5s3,7.5,6.5,12.5,8.5,10,8.5,10c0,0-5,5-8.5,10s-6.5,12.5-6.5,12.5c0,0-3-7.5-6.5-12.5s-8.5-10-8.5-10c0,0,5-5,8.5-10s6.5-12.5,6.5-12.5" style="fill:#f55;"/><path id="uuid-04c92cba-059d-4e41-9226-cfe9cfc83207" d="m329.5,404.5s3,7.5,6.5,12.5,8.5,10,8.5,10c0,0-5,5-8.5,10s-6.5,12.5-6.5,12.5c0,0-3-7.5-6.5-12.5s-8.5-10-8.5-10c0,0,5-5,8.5-10s6.5-12.5,6.5-12.5" style="fill:#f55;"/></g></svg>