<?xml version="1.0" encoding="UTF-8"?><svg id="uuid-51bc3796-383d-4ef3-b6e3-06f75538d819" xmlns="http://www.w3.org/2000/svg" viewBox="0 0 359 539"><g id="uuid-509b425e-3246-4d67-8d32-9996659abbdd"><path id="uuid-8cfcfc51-0995-44e3-aa4b-ee84d7057ae7" d="m198.25,387.5s-1.4-2.09-2.25-3c-1.13-1.21-2.24-2.58-3.75-3.25-1.84-.82-3.99-.87-6-.75-2.06.12-6,1.5-6,1.5,0,0,.17-3.95-.5-5.75-.74-2.02-2.05-3.94-3.75-5.25-2.05-1.58-4.67-2.66-7.25-2.75-2-.07-3.9.98-5.75,1.75-1.14.47-3.25,1.75-3.25,1.75,0,0-1.14-4.49-2.25-6.5-.77-1.4-1.76-2.74-3-3.75-1.59-1.29-3.53-2.19-5.5-2.75-.89-.25-2.75-.25-2.75-.25l4.75-12.5,4.5-15.5,3-11.25,1.75-9.25,2-10,.25-6.75-17.25-.25-2.5,13.75-6.75,21.5-5.25,12-6.5,11.75-6.75,9.75-6,2-3.25,6.25v4.75l-5.25.75-3,6v6.5l.75,4-8-5-19.5-12,12.25-11.5,8.5-11.25,8.75-12,7.25-14.5,4.75-9-36.55-17.86-1.2-5.64-5.25-1.75-5.75,1-1.5,4,.25,2.75-12,1.25-10.25-1.5-13-.25v-82.5l7.5,6.5,10.75,10,9.25,12.75,7.86,12.92,3.68,14.56,1.06,7.62,49.65,24.15,1.75-7.25,1.5-10.25,1-12v-15.75h111l1.5,33.75,2,18.5,5,16,6.75,16.25,8.5,15.75,7,10.75,5.5,8.25-22,9.25-5.75-4.75-10-17-11.25-24.25-6-21.75-3.5-14.25-1.25-12.25-22.25.25,1.75,22,1.75,14.25,4,14.5,3,11.75,5,12.5,4.75,9,3.25,6-2,.75-3.25-1-4.25,5.25-4-1-.5-.5Z"/><path id="uuid-59cad605-588d-433c-b3b1-3a2d581813e8" d="m339.5,509.5v-50h-5v15l-3,7-7-22h-5l9,28-9,22h5l10-24v24h5Z"/><path id="uuid-0116a20f-5ac8-4715-a892-a6a1018c588e" d="m19.5,29.5v50h5v-15l3-7,7,22h5l-9-28,9-22h-5l-10,24v-24h-5Z"/><path id="uuid-455fe9aa-2634-4db2-8dc0-6acccc2fef38" d="m124.15,158.87l4.46-.64,4.14,1.91,3.98-1.91,2.71,1.43,2.71-.8,6.05,13.05,7.32,18.47,4.46,15.76,2.07,13.53,1.27,10.19.32,10.35-11.14-.32-2.23-14.65-3.82-17.99-4.62-14.17-4.94-11.3-5.25-10.19-3.34-6.37-4.14-6.37Z" style="fill:#f55;"/><path id="uuid-c8eefc54-2b9d-416b-805f-2fc6c2ba29af" d="m228.58,162.53l-7.96,14.96-7.96,17.83-5.41,17.83-3.5,16.4-1.91,10.35,7.8.32,4.3-16.72,6.21-18.15,5.25-12.26,6.21-10.67,4.46-6.37-3.82-2.39-2.07-5.73-1.59-5.41Z" style="fill:#f55;"/><path id="uuid-83ed37c0-992c-4766-b41a-7663d5eff411" d="m160.75,151.5s1.4,2.09,2.25,3c1.13,1.21,2.24,2.58,3.75,3.25,1.84.82,3.99.87,6,.75,2.06-.12,6-1.5,6-1.5,0,0-.17,3.95.5,5.75.74,2.02,2.05,3.94,3.75,5.25,2.05,1.58,4.67,2.66,7.25,2.75,2,.07,3.9-.98,5.75-1.75,1.14-.47,3.25-1.75,3.25-1.75,0,0,1.14,4.49,2.25,6.5.77,1.4,1.76,2.74,3,3.75,1.59,1.29,3.53,2.19,5.5,2.75.89.25,2.75.25,2.75.25l-4.75,12.5-4.5,15.5-3,11.25-1.75,9.25-2,10-.25,6.75,17.25.25,2.5-13.75,6.75-21.5,5.25-12,6.5-11.75,6.75-9.75,6-2,3.25-6.25v-4.75l5.25-.75,3-6v-6.5l-.75-4,8,5,19.5,12-12.25,11.5-8.5,11.25-8.75,12-7.25,14.5-4.75,9,36.55,17.86,1.2,5.64,5.25,1.75,5.75-1,1.5-4-.25-2.75,12-1.25,10.25,1.5,13,.25v82.5l-7.5-6.5-10.75-10-9.25-12.75-8.5-14.5-3.25-13-.75-6.5-49.75-25.25-1.75,7.25-1.5,10.25-1,12v15.75h-111l-1.5-33.75-2-18.5-5-16-6.75-16.25-8.5-15.75-7-10.75-5.5-8.25,22-9.25,5.75,4.75,10,17,11.25,24.25,6,21.75,3.5,14.25,1.25,12.25,22.25-.25-1.75-22-1.75-14.25-4-14.5-3-11.75-5-12.5-4.75-9-3.25-6,2-.75,3.25,1,4.25-5.25,4,1,.5.5Z"/><path id="uuid-99a42451-9671-4e07-a52a-99323a4a6bc2" d="m269.66,235.13l11.01,5.51s.03-2.83.79-3.93c1.23-1.8,3.5-2.68,5.51-3.54,2.03-.87,4.25-1.18,6.42-1.57,1.08-.2,3.28-.39,3.28-.39l-.13-38.41s-4.65,4.1-6.69,6.42c-2.43,2.77-4.49,5.85-6.55,8.91-2,2.98-3.91,6.03-5.64,9.18-1.68,3.07-3.16,6.24-4.59,9.44-1.23,2.76-3.41,8.39-3.41,8.39Z" style="fill:#f55;"/><path id="uuid-3b376ba8-c4d6-4026-af4d-7195057ddd25" d="m37.75,189.25l16.5-11.5,20.25-11,9.25-4.75,1.25,3.25-5.25,12.25-5,18.5-.75,11.5,2.25,14.25,4,10.75,6.75,11,7.75,9.25,6.25,6,7.5,5.5,10.75,5.5.5,14-1.5,8.75-2,10.75-20.5-9.75-1-16.5-4-17.5-7-18.5-6-9.75-13.25-17.25-11.75-11.75-9.25-7.25-5.75-5.75Z" style="fill:#ff5556;"/><g id="uuid-e910402b-5dd1-4b4f-8230-9144b8c98f13"><path id="uuid-a88e493a-b9d7-416e-abe7-1866e2879c19" d="m115.5,29.5c10.5,19.17,21,38.33,31.5,57.5,11.29-4.21,23.3-5.62,35.18-6.88,12.97-1.37,26.1-1.43,39.13-.71,10.63.59,21.33,1.38,31.69,4.08,11.83-18,23.67-36,35.5-54H115.5Z" style="fill:#ff5; stroke:#55a; stroke-width:2px;"/><path id="uuid-28ba4133-6816-464d-bac1-862431c9b5ee" d="m190.69,60.05c1.21,1.01,2.79,1.9,4.36,1.81,1.58-.1,2.94-1.31,4.14-2.34.76-.65,1.22-1.33,1.85-2.37.82.97,1.53,2.19,2.64,2.85,1.38.81,3.17,1.75,4.65,1.15,1.78-.73,2.88-2.99,3.03-4.9.14-1.77-.73-3.76-2.08-4.91-1.27-1.09-3.21-1.05-4.87-1.2.48-1.49,1.28-3.4.69-4.97-.68-1.83-2.47-3.61-4.41-3.88-1.76-.25-3.7.9-4.8,2.28-.97,1.21-1.34,3.01-1.03,4.52.23,1.12,1.05,2.07,2,2.78-1.94.16-4.18.38-5.54,1.76-1.31,1.32-1.77,3.47-1.63,5.32.06.78.63,1.43,1.01,2.12h0Zm8.49-6.4c-.13-.89.51-2.19,1.4-2.31.92-.12,2.03.98,2.02,1.91-.01.86-1.07,1.72-1.94,1.72-.66,0-1.38-.66-1.48-1.32Z"/><path id="uuid-9cecce15-c71a-4ae8-ad17-e6dd313470e3" d="m162.64,45.42c-1.39.73-2.83,1.84-3.34,3.33-.52,1.5.05,3.22.58,4.72.4,1.14,1.21,2.11,1.93,3.09-1.03-.35-2.21-.37-3.16.09-1.79.88-3.72,2.64-3.78,4.64-.06,1.92,1.65,3.81,3.36,4.68,1.58.81,3.75.77,5.33-.03,1.49-.76,2.2-2.56,2.98-4.04,1.2,1.01,2.65,2.06,4.21,2.06,2.1,0,4.71-.91,5.64-2.79.86-1.74-.04-4.08-1.11-5.7-.72-1.1-1.94-2.1-3.24-2.23-1.18-.12-2.25.8-3.27,1.41.6-1.85,1.25-4,.51-5.79-.72-1.71-2.53-2.97-4.29-3.55-.74-.25-1.57.03-2.34.12h0Zm2.88,10.8c.91.12,2.15,1,2,1.9-.16.91-1.73,1.59-2.54,1.13-.75-.42-.7-1.79-.32-2.56.15-.29.53-.52.86-.48Z"/><path id="uuid-90ed317c-3333-413b-8182-d2dda5d45ad3" d="m239.55,43.49c1.39.73,2.83,1.84,3.34,3.33.52,1.5-.05,3.22-.58,4.72-.4,1.14-1.21,2.11-1.93,3.09,1.03-.35,2.21-.37,3.16.09,1.79.88,3.72,2.64,3.78,4.64.06,1.92-1.65,3.81-3.36,4.68-1.58.81-3.75.77-5.33-.03-1.49-.76-2.2-2.56-2.98-4.04-1.2,1.01-2.65,2.06-4.21,2.06-2.1,0-4.71-.91-5.64-2.79-.86-1.74.04-4.08,1.11-5.7.72-1.1,1.94-2.1,3.24-2.23,1.18-.12,2.25.8,3.27,1.41-.6-1.85-1.25-4-.51-5.79.72-1.71,2.53-2.97,4.29-3.55.74-.25,1.57.03,2.34.12h0Zm-2.88,10.8c-.91.12-2.15,1-2,1.9.16.91,1.73,1.59,2.54,1.13.75-.42.7-1.79.32-2.56-.15-.29-.53-.52-.86-.48Z"/><path id="uuid-1904720f-0bc9-4ba5-b482-debad695bfe0" d="m270.65,48.36c-1.75-.04-3.78.52-4.97,1.89-1.24,1.43-1.35,3.67-1.42,5.62-.71-.92-1.35-2.13-2.44-2.42-1.2-.32-2.6.21-3.59,1-1.46,1.17-3.04,3.09-2.84,5.01.22,2.08,2.24,3.8,4.09,4.51,1.38.53,3.01.04,4.39-.51.06.48.12,1.01.18,1.51l2.41-3.63c-.11.07-.24.15-.36.17-.86.16-2.03-1-1.87-1.92.15-.91,1.55-1.32,2.39-1.12.3.07.57.4.61.72.04.39-.03.88-.19,1.3l6.58-9.91c-.29-.47-.62-.91-.96-1.3-.66-.35-1.28-.9-2.01-.92Z"/><path id="uuid-83706f4b-672c-45fa-b129-017aa9e777c2" d="m132.04,49.85c1.75.11,3.72.84,4.79,2.31,1.11,1.53,1.03,3.78.94,5.72.78-.85,1.53-2,2.63-2.2,1.22-.22,2.57.43,3.49,1.3,1.36,1.29,2.76,3.34,2.39,5.24-.39,2.06-2.55,3.59-4.46,4.14-1.42.41-3-.22-4.33-.89-.1.48-.21.99-.31,1.49l-2.09-3.82c.1.08.22.17.35.2.84.23,2.11-.83,2.03-1.75-.08-.92-1.43-1.45-2.28-1.32-.3.04-.61.35-.67.67-.08.38-.04.88.08,1.32l-5.7-10.44c.33-.45.69-.85,1.07-1.22.69-.29,1.35-.79,2.09-.75h0Z"/><path id="uuid-914f356a-694e-4ab4-82b8-355c322ee5c7" d="m213.23,64.9c-2.62.32-5.38-.71-7.64-2.06-1.2-.72-2.04-1.93-2.86-3.06-.75-1.02-1.24-2.69-1.87-3.31.36,3.46,1.28,5.71,3.07,7.89,1.72,2.09,4.34,3.38,6.88,4.34,2.73,1.03,5.75,1.61,8.66,1.4,3.44-.24,6.83-1.44,9.86-3.08,2.05-1.11,3.98-2.6,5.39-4.44.78-1.03,1.45-2.54,1.58-3.53-1.31,1.58-3.5,3.41-5.67,4.44-1.98.94-4.26,1.74-6.43,1.44-2.11-.29-3.68-1.4-5.63-3.02-2.05,1.1-3.31,2.74-5.34,2.99h0Z"/><path id="uuid-f27e5fb1-d5c3-4beb-b824-b76bc3f9e3c0" d="m189.05,65.88c2.6.19,5.23-1.06,7.43-2.45,1.16-.73,2.05-1.86,2.85-2.98.73-1.02.79-3.42,1.75-3.34-.18,3.47-1.21,5.56-2.89,7.75-1.63,2.13-4.11,3.6-6.56,4.68-2.64,1.17-5.59,1.9-8.48,1.84-3.4-.07-6.82-1.09-9.89-2.57-2.08-1-4.06-2.39-5.55-4.16-.83-.98-1.56-2.47-1.74-3.44,1.38,1.51,3.63,3.23,5.83,4.15,2.01.84,4.29,1.52,6.42,1.11,2.07-.4,3.56-1.59,5.4-3.31,2.08.99,3.41,2.57,5.43,2.72h0Z"/><path id="uuid-12711d67-d56e-4792-923f-ead8b5a98d87" d="m244.74,67.96c-2.05-.07-4.11-1.4-5.75-2.95-.88-.83-1.35-2.12-1.99-3.21-.5-.86-.67-2.59-1.43-2.61.02,3.23.83,4.93,2.03,6.98,1.23,2.11,3.1,3.7,5,4.94,2.04,1.33,4.32,2.27,6.6,2.49,2.68.25,5.39-.38,7.85-1.46,1.67-.73,3.27-1.83,4.5-3.33.68-.83,1.31-2.13,1.48-3.02-1.13,1.26-2.96,2.65-4.71,3.29-1.6.59-3.42,1.01-5.08.43-1.61-.56-2.74-1.8-4.13-3.56-1.67.73-2.76,2.06-4.35,2.01h0Z"/><path id="uuid-12917afd-d39e-4e9c-bbd7-632a67543de9" d="m149.78,71.18c-2.01.78-4.53.26-6.74-.65-1.18-.49-2.21-1.56-3.2-2.47-1.04-.96-2.11-3.44-2.85-3.15,1.3,3.3,2.84,5.47,5.16,7.39,1.91,1.57,4.48,2.52,6.8,3,2.5.52,5.09.55,7.37-.17,2.69-.85,5.07-2.62,7.02-4.74,1.32-1.44,2.44-3.23,3.03-5.28.33-1.14.42-2.73.24-3.71-.8,2.4-1.56,4.46-3.25,5.96-1.27,1.13-3.04,1.88-4.75,1.91-1.92.04-3.37-.71-5.41-1.95-1.33,1.44-1.85,3.26-3.41,3.86h0Z"/><path id="uuid-287c1c72-63f4-404b-ade1-0cca48a987f5" d="m142.87,77.41s5.12,1.65,7.78,1.77c3.15.15,6.46-.03,9.37-1.24,2.06-.85,3.71-2.51,5.3-4.07,1.08-1.06,2.83-3.54,2.83-3.54,0,0,5.82,3.2,9.02,3.89,3.17.68,6.51.58,9.72.18,3.09-.39,6.27-1,9.02-2.47,2.21-1.19,5.66-4.95,5.66-4.95,0,0,4.37,4.69,7.25,5.83,2.8,1.11,6,.85,9.02.71,2.75-.13,5.51-.58,8.13-1.41,2.61-.83,7.42-3.54,7.42-3.54,0,0,2.75,3.77,4.6,5.13,1.72,1.26,3.79,2.03,5.83,2.65,2.06.63,4.22,1.25,6.36,1.06,2.62-.23,7.42-2.66,7.42-2.66l-5.06,7.57s-15.23-2.63-22.92-3.35c-6.45-.61-12.95-.74-19.43-.82-6.98-.08-13.97-.04-20.93.38-5.82.35-11.62,1.05-17.41,1.8-4.35.56-8.74,1-13.01,2.01-3.91.93-11.48,3.73-11.48,3.73l-4.49-8.66Z" style="fill:#f55;"/></g><g id="uuid-862890e6-ccc6-4189-adb0-73ca07ed1626"><path id="uuid-e8c0fced-5307-4da7-aabf-68a42eb8898f" d="m147.69,87.29c-2.03,10.37-3.99,20.81-7.32,30.87-3.23,9.21-8.01,17.76-12.77,26.24-1.79,2.71-5.23,5.07-8.59,4.15-2.22-.63-2.3-2.99-1.62-4.82" style="fill:none; stroke:#55a; stroke-linecap:round; stroke-linejoin:round; stroke-width:2px;"/><path id="uuid-3433e655-8465-46d0-8482-51415df14097" d="m152.92,85.98c-1.81,16.31-5.68,32.56-12.23,47.57-3.68,8.44-9.65,18.97-18.84,21.31-3.92,1-9.51-.56-11.42-4.13-2.14-4.02-.58-10.86,3.3-13.25,3.66-2.26,9.58-.25,12.57,2.83,1.07,1.1.77,2.99.89,4.51" style="fill:none; stroke:#55a; stroke-linecap:round; stroke-linejoin:round; stroke-width:2px;"/><path id="uuid-66cf3f90-6fdd-4e83-b8a0-5ca63a669860" d="m158.81,83.58c-1.41,10.12-2.65,20.64-5.65,30.56-3.48,11.52-7.19,23.41-14.18,33.2-3.22,4.51-6.93,9.92-12.33,11.15-2.69.61-6.28.4-7.94-2.35" style="fill:none; stroke:#55a; stroke-linecap:round; stroke-linejoin:round; stroke-width:2px;"/><path id="uuid-aa59d694-e4c7-4c03-a85c-f57b824dbdb6" d="m164.48,83.36c-1.23,10.56-2.85,21.03-5.69,31.22-2.4,8.61-5.41,17.14-9.54,25.07-3.54,6.81-7.08,13.25-12.93,19.05-1.49,1.47-5.05,1.28-7.58-.27" style="fill:none; stroke:#55a; stroke-linecap:round; stroke-linejoin:round; stroke-width:2px;"/><path id="uuid-46043e80-2d21-48df-a516-b89a51b3c5b5" d="m169.81,82.25c-.96,10.59-2.32,21.1-4.9,31.35-2.18,8.67-4.99,17.26-8.91,25.3-3.2,6.57-6.09,12.56-11.8,18.5-1.45,1.51-4.14,2.72-6.71,1.23" style="fill:none; stroke:#55a; stroke-linecap:round; stroke-linejoin:round; stroke-width:2px;"/><path id="uuid-5432b63b-d85d-43ab-8563-85a3a80bad07" d="m175.74,81.14c-1.04,10.57-2.31,19.36-4.5,28.85-1.97,8.54-4.42,17.16-7.75,25.11-2.72,6.51-5.18,12.43-9.88,18.25-1.2,1.48-3.37,2.63-5.38,1.09" style="fill:none; stroke:#55a; stroke-linecap:round; stroke-linejoin:round; stroke-width:2px;"/><path id="uuid-54bfec9c-0efe-4353-acaa-ba6c4df9fe06" d="m180.84,80.54c-.62,10.01-1.52,18.36-3.26,27.38-1.57,8.12-3.58,16.34-6.44,23.97-2.34,6.23-4.45,11.91-8.67,17.56-1.07,1.44-3.08,2.6-5.02,1.21" style="fill:none; stroke:#55a; stroke-linecap:round; stroke-linejoin:round; stroke-width:2px;"/><path id="uuid-e7abe644-a0d4-41d1-b612-91efd256b6fb" d="m186.41,80.47c-.58,9.64-1.41,17.68-3.02,26.37-1.45,7.82-3.32,15.74-5.96,23.08-2.16,6-4.11,11.47-8.02,16.91-.99,1.38-2.85,2.5-4.64,1.16" style="fill:none; stroke:#55a; stroke-linecap:round; stroke-linejoin:round; stroke-width:2px;"/></g><g id="uuid-004dad7e-6dc2-4b11-95b4-41b74e763863"><path id="uuid-ccf0d146-ba22-4b79-b7ad-908c0c25b97e" d="m168.75,148.32c.74.68,1.75,1.4,2.76,1.27,1.64-.21,2.8-1.85,3.81-3.16,1.5-1.94,2.16-4.41,3.14-6.66,1.01-2.32,1.86-4.7,2.8-7.05" style="fill:none; stroke:#55a; stroke-linecap:round; stroke-linejoin:round; stroke-width:2px;"/><path id="uuid-e0323090-77ff-426c-8eee-2f8b8eeb8939" d="m183.76,137.71c-1.68,3.78-3.12,7.7-5.22,11.27-1.01,1.7-1.76,3.86-3.51,4.77-2.41,1.26-5.9,1.75-8.15.23-1.67-1.13-2.05-3.64-2.1-5.68" style="fill:none; stroke:#55a; stroke-linecap:round; stroke-linejoin:round; stroke-width:2px;"/><path id="uuid-40c061c0-1c03-43c2-aa74-a335977c62b5" d="m186.26,141.24l-7.51,15.45" style="fill:none; stroke:#55a; stroke-linecap:round; stroke-linejoin:round; stroke-width:2px;"/><path id="uuid-cb52e642-a9e6-4dd0-a790-94ba51c0de7a" d="m205.1,155.82l-5.59,10.89" style="fill:none; stroke:#55a; stroke-linecap:round; stroke-linejoin:round; stroke-width:2px;"/><path id="uuid-d383294e-7224-46e3-b290-c71eafde5dc1" d="m221.29,175.68l6.48-12.95" style="fill:none; stroke:#55a; stroke-linecap:round; stroke-linejoin:round; stroke-width:2px;"/><path id="uuid-45c08115-8209-4929-861d-966d3c584e17" d="m229.09,162.44c1.26,3.66,1.12,8.15,3.76,10.98,2.34,2.51,6.09,4.54,9.48,4,3.45-.55,6.85-3.57,7.9-6.9,1.85-5.89-2.3-12.7-4.47-17.97" style="fill:none; stroke:#55a; stroke-linecap:round; stroke-linejoin:round; stroke-width:2px;"/><path id="uuid-9808af5c-5b23-42dc-97a1-ba739c6b9ca3" d="m192.45,146.99c-1.9,3.22-6.08,7.44-4.85,11.38.55,1.77,2.88,3.32,4.71,2.99,2.18-.4,2.91-3.39,3.99-5.33.78-1.4,1.17-2.98,1.75-4.48" style="fill:none; stroke:#55a; stroke-linecap:round; stroke-linejoin:round; stroke-width:2px;"/><path id="uuid-acce1cdb-3667-4710-9785-9bc8a7bbda2a" d="m189.21,144.47c-2.73,4.74-5.52,9.37-6.31,14.26-.44,2.73,1.89,5.85,4.39,7.02,2.75,1.28,6.97.98,9.02-1.26,2.17-2.37,3.24-5.13,4.56-7.83.46-.94,1.14-2.91,1.14-2.91" style="fill:none; stroke:#55a; stroke-linecap:round; stroke-linejoin:round; stroke-width:2px;"/><path id="uuid-38b8fa5b-eea8-4ffc-9184-548eb2de5d4d" d="m208.78,157.88c-2.06,3.74-4.97,8.01-4.11,12.23.59,2.9,3.06,5.8,5.9,6.63,2.14.63,5.08-.04,6.43-1.8,2.92-3.81,4.45-8.11,5.76-11.75" style="fill:none; stroke:#55a; stroke-linecap:round; stroke-linejoin:round; stroke-width:2px;"/><path id="uuid-47d48d65-b373-4067-87c2-30cd04dcb03a" d="m211.73,160.08c-1.13,2.54-3.93,7.28-2.22,10.39.69,1.26,2.69,2.02,4.03,1.51,3.21-1.22,4-6.84,4.82-9.1" style="fill:none; stroke:#55a; stroke-linecap:round; stroke-linejoin:round; stroke-width:2px;"/><path id="uuid-ad8b9c70-a119-41df-b640-7f046cbc979f" d="m252.05,84.14c-.31,16.74.52,33.64-1.73,50.22-.98,7.28-2.85,15.13-7.7,20.65-3.44,3.91-8.55,6.55-13.83,7.29" style="fill:none; stroke:#55a; stroke-linecap:round; stroke-linejoin:round; stroke-width:2px;"/><path id="uuid-c705a478-ccb1-41a5-ab21-3b7be84a1de1" d="m252.73,110.29c3.04,5.32,5.73,11.08,6.5,17.14.72,5.65-.42,10.95-1.86,16.98" style="fill:none; stroke:#55a; stroke-linecap:round; stroke-linejoin:round; stroke-width:2px;"/><path id="uuid-1a76884b-b13b-4c8f-bf36-c65c023ce419" d="m252,119.01c3.33,3.88,3.07,7.56,3.34,11.56.17,2.61-.8,5.66-1.16,7.75" style="fill:none; stroke:#55a; stroke-linecap:round; stroke-linejoin:round; stroke-width:2px;"/><path id="uuid-ed6e1da7-4ee8-4537-a892-1f6dbae83db4" d="m251.42,133.82c2.72,5.81,7,11.29,7.6,17.68.34,3.64-.04,7.91-2.4,10.7-1.38,1.62-3.8,2.03-5.92,2.4" style="fill:none; stroke:#55a; stroke-linecap:round; stroke-linejoin:round; stroke-width:2px;"/><path id="uuid-7e3399b5-a7bf-431a-b54b-a2f9eb7625ad" d="m250.4,140.35c2.6,4.95,6.32,10.94,4.41,16.2-.79,2.18-2.92,4.27-5.72,3.98" style="fill:none; stroke:#55a; stroke-linecap:round; stroke-linejoin:round; stroke-width:2px;"/><path id="uuid-8e936420-281e-4cae-8984-98bee69b2bd0" d="m248.23,145.43c2.55,3.84,4.28,7.08,2.73,10.26-.5,1.03-2.36,1.2-3.16,1.36" style="fill:none; stroke:#55a; stroke-linecap:round; stroke-linejoin:round; stroke-width:2px;"/><path id="uuid-22cec194-b20a-4ec2-ac06-6a9739fa7f82" d="m243.14,156.32c1.65,4.32,5.07,9.76,2.6,13.69-1.46,2.33-5.47,3.28-7.97,2.13-3.43-1.57-3.98-6.51-4.94-10.16" style="fill:none; stroke:#55a; stroke-linecap:round; stroke-linejoin:round; stroke-width:2px;"/><path id="uuid-13daf27e-feeb-4b59-990a-57474c515b14" d="m236.46,160.53c.69,3.66,1.56,8.72,4.56,8.02,2.12-.5.76-4.37.38-6.52-.23-1.32-1.24-2.89-1.59-3.68" style="fill:none; stroke:#55a; stroke-linecap:round; stroke-linejoin:round; stroke-width:2px;"/></g><g id="uuid-45a5f2d1-ab92-41f4-b5e2-1443ee4942da"><path id="uuid-bc96d09d-0a99-4db5-b7b2-c7b7a0faa426" d="m285.52,163.98c-8.83,8.53-17.31,17.83-24.39,27.98-6.6,9.48-11.68,19.96-16.63,30.4,8.25,4.12,16.5,8.25,24.75,12.37,3.94-9.1,8.38-18.04,13.88-26.28,3.88-5.81,8.43-11.36,13.36-16.14.12-6.72-.12-14.13,0-20.84-3.54-2.59-7.44-4.9-10.98-7.49Z" style="fill:#ff5; stroke:#000; stroke-linecap:round; stroke-linejoin:round; stroke-width:2px;"/><path id="uuid-0780b94a-f3a8-4bb3-889a-b288c4c91401" d="m289.23,168.28c-7.62,7.18-9.93,8.74-14.2,13.75-5.74,6.74-10.69,14.16-15.2,21.79-3.84,6.5-8.56,17.6-10.02,20.31" style="fill:none; stroke:#000; stroke-linecap:round; stroke-linejoin:round; stroke-width:2px;"/><path id="uuid-f60dc7c9-7f59-40db-a22c-ce1dac372c2c" d="m295.99,184.1c-5.37,5.19-10.96,11.34-15.69,17.62-3.48,4.62-6.59,9.54-9.26,14.66-2.54,4.87-4.62,9.98-6.38,15.17" style="fill:none; stroke:#000; stroke-linecap:round; stroke-linejoin:round; stroke-width:2px;"/><path id="uuid-163751ed-c9ff-4ae4-9d99-b2c9239f094d" d="m286.95,170.98l1.19,10.78,7.64-.05" style="fill:none; stroke:#000; stroke-linecap:round; stroke-linejoin:round; stroke-width:2px;"/><path id="uuid-bea1346b-ba5f-4f7b-84fb-37458d4f77ef" d="m277.75,180.29l.71,12.02,9.7-1.01" style="fill:none; stroke:#000; stroke-linecap:round; stroke-linejoin:round; stroke-width:2px;"/><path id="uuid-71d77087-820a-485b-a029-b22f9593f326" d="m268.91,190.38l1.06,13.95,9.55-1.77" style="fill:none; stroke:#000; stroke-linecap:round; stroke-linejoin:round; stroke-width:2px;"/><path id="uuid-b208896b-56b1-4a4c-b6bb-c8b21a4e38f7" d="m261.13,202.68l1.77,12.61,9.53-1.98" style="fill:none; stroke:#000; stroke-linecap:round; stroke-linejoin:round; stroke-width:2px;"/><path id="uuid-acc0cae1-3323-413f-8778-df59ccc59eb2" d="m254.37,214.39l3.22,12.57,9.93-4.23" style="fill:none; stroke:#000; stroke-linecap:round; stroke-linejoin:round; stroke-width:2px;"/></g><path id="uuid-67fe9b94-87ff-4c71-805b-e8d61cfb1c50" d="m259.21,147.7l19.57,11.82,17.01,11.42" style="fill:none; stroke:#55a; stroke-linecap:round; stroke-linejoin:round; stroke-width:2px;"/><path id="uuid-4a938487-9fad-4a51-983e-1d734ac50ed3" d="m329.5,233.79c-7.16.36-15.41-1.85-23.15-2.1-5.2-.17-10.55-.87-15.6.39-3.24.81-7.26,1.62-8.95,4.5-1.55,2.63-1.8,7.02.38,9.16,2.64,2.59,8.32,2.71,11.09.26,1.54-1.37.71-4.11.59-6.16,4.89-.46,9.82-.92,14.74-.71,3.9.17,7.7,1.4,11.6,1.57,3.1.13,6.4-.23,9.3-.45v-6.46Z" style="fill:#ff5; stroke:#55a; stroke-linecap:round; stroke-linejoin:round; stroke-width:2px;"/><g id="uuid-6c535358-3818-4ee3-87ff-b2f001f7e3c7"><path id="uuid-351cb084-e0de-404b-8862-ebe9059102a8" d="m292.92,251.13c.43-1.89,1.33-3.68,2.39-5.31.77-1.19,1.57-2.52,2.83-3.18,1.45-.76,3.24-.46,4.87-.62,2.53-.25,5.14-1.16,7.61-.53.85.22,1.37,1.19,2.21,1.42,1.77.47,3.71-.7,5.48-.27.8.19,1.66.56,2.12,1.24.33.49.27,1.77.27,1.77,0,0,2.64-.71,3.72-.09.85.49,1.27,1.6,1.42,2.57.2,1.31-.28,2.67-.8,3.89-.45,1.05-1.13,2.03-1.95,2.83-.38.37-1.33.88-1.33.88,0,0,2.71-1.36,3.98-.88.83.31,1.42,1.26,1.59,2.12.18.93-.38,1.86-.71,2.74-.47,1.26-.82,2.68-1.77,3.63-1,1-3.8,1.86-3.8,1.86,0,0,2.72-.92,3.89-.35.77.37,1.25,1.29,1.42,2.12.22,1.15-.15,2.42-.71,3.45-.42.77-1.1,1.42-1.86,1.86-.61.35-2.03.53-2.03.53,0,0,2.66.81,2.83,1.95.19,1.27-1.25,2.41-2.39,3.01-2.33,1.22-5.31-.08-7.87.53-1.46.35-2.69,1.41-4.16,1.77-2.24.55-4.65,1.05-6.9.53-1.7-.39-3.26-1.44-4.51-2.65-1.47-1.43-2.38-3.37-3.27-5.22-.92-1.89-1.69-3.87-2.12-5.93-.59-2.81-.55-5.71-.62-8.58-.03-1.33.05-2.65.09-3.98.03-1.03-.14-2.09.09-3.1h0Z" style="fill:#fff; stroke:#55a; stroke-linecap:round; stroke-linejoin:round; stroke-width:2px;"/><path id="uuid-c7afce2c-1340-4a09-be8f-541642dead8c" d="m320.16,246.35c-1.54,2.24-3.98,4.12-6.81,4.06-1.92.37-3.86-.73-5.67-.24-1.25.81-2.4,1.64-3.75,2.14-1.22.46-2.51.82-3.85.76" style="fill:#fff; stroke:#55a; stroke-linecap:round; stroke-linejoin:round; stroke-width:2px;"/><path id="uuid-ffdba337-9200-4e25-bdf2-2a57e5c12f31" d="m321.58,255.99c-3.16,1.83-7.73,3.61-11.4,3.97-1.6.02-3.8.11-4.59-1.62-.68-1.37-.14-3.15,1.27-3.81,2.37-1.38,6.82-3.73,9.41-4.65" style="fill:#fff; stroke:#55a; stroke-linecap:round; stroke-linejoin:round; stroke-width:2px;"/><path id="uuid-33ec3ab6-0416-4b08-bbe7-57a7bc767879" d="m308.93,253.51c1.58.02,4.29,1.36,4.52,3.17.22.63.24,1.3.26,1.96" style="fill:#fff; stroke:#55a; stroke-linecap:round; stroke-linejoin:round; stroke-width:2px;"/><path id="uuid-eb6ac819-c77b-4b5f-b885-3c5da9a88c43" d="m321.22,265.01c-4.03.76-9.33,2.15-13.44,1.51-1.41-.48-3.34-.95-3.81-2.57-.11-1.57,1.31-2.87,2.64-3.45.52-.15,3.36-.31,3.91-.35" style="fill:#fff; stroke:#55a; stroke-linecap:round; stroke-linejoin:round; stroke-width:2px;"/><path id="uuid-ec65d38e-f60e-4a3a-849c-1c336fddcea6" d="m311.32,260.77c1.59.77,2.08,2.55,1.58,4.17-.05.26-.1.53-.16.79" style="fill:#fff; stroke:#55a; stroke-linecap:round; stroke-linejoin:round; stroke-width:2px;"/><path id="uuid-cc82c9e8-40ea-413b-bad3-a04bf009eb50" d="m311.49,243.08c.41,1.33,1.05,3.12,2.72,3.12,1.98.11,3.86-.61,5.59-1.52" style="fill:#fff; stroke:#55a; stroke-linecap:round; stroke-linejoin:round; stroke-width:2px;"/><path id="uuid-657e8e14-6333-477d-a2fc-ac8fe6b0da0a" d="m308.66,266.78c-1.35.52-4.1,1.52-2.98,3.37,1.72,2.19,4.72,2.41,7.29,2.71,2.47.07,4.93-.49,7.4-.13.55.04,1.1.09,1.65.15" style="fill:#fff; stroke:#55a; stroke-linecap:round; stroke-linejoin:round; stroke-width:2px;"/><path id="uuid-584ac54c-2fb6-46e7-9ddd-5114d9952dc5" d="m312.73,272.89c-1.95.69-3.85,2.67-2.51,3.92.69.88,2.53,1.47,3.57,1.65" style="fill:#fff; stroke:#55a; stroke-linecap:round; stroke-linejoin:round; stroke-width:2px;"/><path id="uuid-7db94b33-db90-44ff-ab81-9c79f864f113" d="m312.29,267.05c1.09.84,1.57,1.81,1.61,2.92.03.87-.87,1.99-1.08,2.39" style="fill:#fff; stroke:#55a; stroke-linecap:round; stroke-linejoin:round; stroke-width:2px;"/><path id="uuid-62783683-250f-40bb-aba5-cf3db9a947b9" d="m315.12,273.33c1.14.74,2.47,2.03,1.62,3.49-.16.41-.34.81-.56,1.2" style="fill:#fff; stroke:#55a; stroke-linecap:round; stroke-linejoin:round; stroke-width:2px;"/></g><g id="uuid-a7316c40-bdd6-469a-8c4b-a13725bce380"><path id="uuid-6fb2db5c-f912-449d-8d19-c1cfa0a46310" d="m296.5,230.5V78.5l14.5-13,12.5,13v154.5" style="fill:none; stroke:#55a; stroke-linecap:round; stroke-linejoin:round; stroke-width:2px;"/><path id="uuid-d1f334d9-329a-4e5c-af8e-8520215c2ae5" d="m310,90.5s2.01,12.68,1.7,19.04c-.33,6.59-2.85,12.91-3.7,19.46-.75,5.75-1.72,11.58-1.22,17.36.56,6.55,3.73,12.64,4.72,19.14.83,5.45,1.32,11,1,16.5-.38,6.5-2.79,12.75-3.46,19.22-.63,6.06-1.28,12.23-.54,18.28.53,4.29,3.5,12.5,3.5,12.5" style="fill:none; stroke:#55a; stroke-linecap:round; stroke-linejoin:round; stroke-width:2px;"/><path id="uuid-bb48816b-8288-47ad-b0ff-79119b65b6af" d="m317.87,289.63c0,4.05-3.21,7.34-7.16,7.34s-7.16-3.28-7.16-7.34,3.21-7.34,7.16-7.34,7.16,3.28,7.16,7.34Z" style="fill:#ff5; stroke:#55a; stroke-linecap:round; stroke-linejoin:round; stroke-width:2px;"/><path id="uuid-ed99e76b-db90-42b7-9a21-dcfefbd49ba0" d="m304.53,286.38c-.34,3.83,1.16,4.9,3.02,6.29,1.02.76,2.5.7,3.76.6,1-.08,2.03-.37,2.85-.95.62-.44,1.26-1.25,1.39-1.79" style="fill:#ff5; stroke:#55a; stroke-linecap:round; stroke-linejoin:round; stroke-width:2px;"/></g><path id="uuid-6fef4592-ae2b-4a8d-b53d-44cfe476c974" d="m221.32,175.84s-3.04,3.7-5.11,4.77c-.84.43-2.78.56-2.78.56,0,0-3.92,8.82-5.56,13.35-2.2,6.08-4.06,12.29-5.75,18.54-1.64,6.06-3.23,12.16-4.26,18.35-.8,4.78-1.48,14.46-1.48,14.46l17.61-.19s1.15-6.81,1.85-10.2c.77-3.67,1.55-7.34,2.6-10.94,1.27-4.39,2.77-8.72,4.45-12.98,1.77-4.47,3.78-8.86,5.93-13.16,2.24-4.48,4.63-8.88,7.23-13.16,1.5-2.48,4.82-7.23,4.82-7.23l-5.19-1.85s-5.6,8.36-7.97,12.79c-2.89,5.39-5.32,11.01-7.6,16.68-2.51,6.26-4.78,12.62-6.67,19.09-1.5,5.12-3.71,15.57-3.71,15.57l-7.6-.19s2.15-14.03,3.71-20.95c1.28-5.69,2.87-11.31,4.63-16.87,1.43-4.51,3.03-8.97,4.82-13.35,1.83-4.45,6.04-13.11,6.04-13.11h0Z" style="fill:#ff5; stroke:#55a; stroke-linecap:round; stroke-linejoin:round; stroke-width:2px;"/><path id="uuid-84c62779-b903-444e-83ef-5ca8281045ee" d="m115.47,155.36c7.75,12.38,15.1,25.13,20.55,38.67,4.06,10.1,6.6,20.78,8.92,31.41,1.43,6.56,2.11,13.25,3.06,19.89,7.54.06,15.08.12,22.63.18-.86-11.36-1.18-20.1-2.97-29.98-2.34-12.84-5.53-25.61-10.11-37.83-2.86-7.64-6.68-14.44-10.78-21.99-.68,2.75-3.94,2.68-4.46,4.31,5.95,11.38,11.38,23.15,14.83,35.5,4.05,14.5,6.84,35.04,6.72,44.65-2.81-.05-8.27-.27-11.07-.32-2.32-14.8-4.57-28.02-8.99-41.45-2.69-8.15-6.7-15.82-10.57-23.48-2.67-5.29-6.48-11.32-8.72-15.5-3.11-1.16-5.19-1.75-6.16-3.99-.48-.03-2.37-.05-2.85-.08Z" style="fill:#ff5; stroke:#55a; stroke-linecap:round; stroke-linejoin:round; stroke-width:2px;"/><g id="uuid-de19c1eb-48d0-482a-82e2-3c95fbee038e"><path id="uuid-4c695780-e005-4d6e-b50e-ad7ab5a9a403" d="m179.53,188.45s-1.83-5.53-.18-7.35c2.14-2.37,7.12-2.8,9.55-.73,2.11,1.79.73,8.27.73,8.27,0,0,5.36-1.31,6.98.37,1.96,2.02,2.04,6.33.18,8.45-1.5,1.71-6.8.73-6.8.73,0,0,.34,5.26-1.47,6.61-2.12,1.58-5.88,1.14-7.9-.55-1.74-1.46-1.65-6.61-1.65-6.61,0,0-5.89,1.54-7.53-.37-1.92-2.24-1.28-6.84.92-8.82,1.77-1.6,7.16,0,7.16,0Z" style="fill:#ff5; stroke:#000; stroke-linecap:round; stroke-linejoin:round;"/><path id="uuid-6b234a50-b8f9-4ee2-a94c-66564cac71b0" d="m188.89,193.5c0,2.28-1.85,4.13-4.13,4.13s-4.13-1.85-4.13-4.13,1.85-4.13,4.13-4.13,4.13,1.85,4.13,4.13Z" style="fill:#f55; stroke:#000; stroke-linecap:round; stroke-linejoin:round; stroke-width:2px;"/><path id="uuid-a1a24ecf-8f85-4d95-9ca9-4c88eef1a04b" d="m158.94,172.18c-.25-2.02-.91-4.52.35-6.13,1.66-2.13,5.1-2.91,7.74-2.38,2.58.52,4.52,2.92,6.06,5.05,1.24,1.7,1.75,3.84,2.36,5.85.87-1.05,2.12-1.95,3.47-2.15,1.32-.19,2.63.56,3.88,1.05-2.11,1.84-4.27,3.9-5.26,6.51-.96,2.52-.7,5.42-.39,8.1-1.94-4.27-3.82-8.63-6.52-12.46-1.37-1.96-2.57-4.56-4.84-5.28-1.53-.48-3.16.58-4.7,1.04-.73.22-1.44.52-2.15.81h0Z" style="fill:#ff5; stroke:#000; stroke-linecap:round; stroke-linejoin:round;"/><path id="uuid-613f9e58-c986-4a98-956d-35d3fff306ff" d="m190.89,186s2.34-4.39,4.42-5.48c1.47-.77,3.44-1.02,4.95-.35,1.65.73,3.36,4.24,3.36,4.24,0,0-2.03,2.83-3.54,2.83-1.21,0-1.65-1.99-2.83-2.3-2.08-.55-6.36,1.06-6.36,1.06h0Z" style="fill:#ff5; stroke:#000; stroke-linecap:round; stroke-linejoin:round;"/><path id="uuid-7fc9fa41-985b-47b3-9e56-d6b468582828" d="m191.07,198.27c1.6,1.47,3.42,2.8,4.25,4.75.77,1.82,1.19,4.09.44,5.91-.71,1.71-2.38,3.39-4.22,3.64-1.17.16-2.22-.86-3.19-1.51-.4-.27-1.08-.68-1.07-.97,1.22-.27,2.61-.79,3.4-1.79,1.05-1.32,1.21-3.22,1.28-4.91.07-1.73-.46-3.38-.89-5.12h0Z" style="fill:#ff5; stroke:#000; stroke-linecap:round; stroke-linejoin:round;"/><path id="uuid-f51c0dcb-645d-4b26-bb64-4afd1aadf561" d="m178.1,199.33c0,.3-3.91,3.29-4.69,5.59-.67,1.99-.84,4.52.3,6.28.95,1.46,2.96,1.95,4.65,2.34,1.29.3,2.66.05,3.98-.07-.16-1.32-.46-2.69-1.13-3.84-.68-1.16-2.27-1.65-2.8-2.89-.98-2.27-.69-4.98-.31-7.41Z" style="fill:#ff5; stroke:#000; stroke-linecap:round; stroke-linejoin:round;"/></g><path id="uuid-086ea8ea-262c-4852-b65e-78f8dcf478f8" d="m181.22,224.49c-2.2.32-4.49,1.52-5.76,3.34-1.57,2.24-1.55,5.36-1.42,8.09.12,2.41,2.24,4.59,1.92,6.98-.26,1.98-3.03,5.16-3.03,5.16l2.53,2.22s2.71-1.99,3.44-3.44c1.08-2.16,1.05-4.76,1.01-7.18-.02-1.61-1.14-3.18-.81-4.75.31-1.5,1.02-3.59,2.53-3.84,1.14-.19,2.13,1.14,2.73,2.12.83,1.35.87,3.07.91,4.65.06,2.55-1.74,5.11-1.11,7.58.4,1.59,1.61,2.97,2.93,3.94.49.36,1.72.61,1.72.61l1.82-3.03s-1.88-.93-2.22-1.82c-.91-2.35,1.01-4.96,1.11-7.48.09-2.4.18-4.88-.51-7.18-.51-1.74-1.19-3.66-2.63-4.75-1.41-1.07-3.41-1.47-5.16-1.21h0Z" style="fill:#ff5;"/><path id="uuid-8456e87a-b22f-485c-a7c1-0b3a0f515238" d="m84.18,163.14c12.29,16.27,22.65,34.4,28.87,53.77,5.44,16.96,6.23,35.2,6.84,53,.28,8.09-.34,16.22-1.45,24.24-.41,2.92-1.22,5.77-1.9,8.64" style="fill:none; stroke:#55a; stroke-linecap:round; stroke-linejoin:round; stroke-width:2px;"/><g id="uuid-2ac6fca6-3963-4d3b-b77b-f486af3b3929"><path id="uuid-ebd16b40-c67c-45a6-b116-a41d2934c976" d="m37.25,189.7c14.39,10.79,27.77,23.36,38.08,38.04,7.36,10.47,12.66,22.48,16.32,34.74,2.96,9.93,4.75,21.71,4.35,30.77-8.75-4.08-17.5-8.17-26.25-12.25-1.03-8.76-3.02-17.55-6.77-25.5-5.06-10.75-12.26-20.67-20.74-29-3.68-3.61-8.03-6.6-12.74-8.75v-22c2.58-2.02,5.17-4.03,7.75-6.05Z" style="fill:#ff5; stroke:#000; stroke-linecap:round; stroke-linejoin:round; stroke-width:2px;"/><path id="uuid-4338af7a-42e3-4082-a383-6b52b1378811" d="m34.25,193.5c9.14,5.7,17.31,12.33,24.5,20.06,8.75,9.4,16.37,20.05,22.2,31.49,4.82,9.47,8.27,19.74,10.26,30.17.99,5.17,1.08,10.5.79,15.78" style="fill:none; stroke:#000; stroke-linecap:round; stroke-linejoin:round; stroke-width:2px;"/><path id="uuid-f331a7f4-b838-420e-b951-25f58b6d4c43" d="m30.25,213c6.02,3.65,11.61,8.04,16.59,13,6.24,6.22,11.86,13.19,16.37,20.77,3.63,6.1,6.41,12.75,8.42,19.55,1.62,5.49,3.28,12.79,2.87,16.93" style="fill:none; stroke:#000; stroke-linecap:round; stroke-linejoin:round; stroke-width:2px;"/><path id="uuid-0acbf77d-6453-41d4-9f3f-e9a1e8aef579" d="m79.75,285.25l-.25-4.5,4,.25v3.5l4.25,1-1-9.25-7.5.75-2.25-8.5,3.25-1,1.5,4.5,4-1-2.5-8.25-7.5,2.5-4-8.5,4.25-1.5,1.75,3.75,4-1.25-3.5-8.75-7.5,3.75-4.25-8,3.75-2.75,2,4.25,4.25-2-4.75-7.75-7,4.25-5-6.75,3.75-2.75,1.75,2.75,3.25-2-4.75-7-7.25,5.75-5.5-6.5,3.5-3.5,3.25,3.75,2.5-2.5-6.25-7.25-6.5,6-6.25-6,3-3.75,4,4,2.25-3.5-6.75-6-6.5,6.5-6.82-5.25,3.57-3.5,3.25,2.5,3-2.75-7-4.75-3.25,3.5" style="fill:none; stroke:#000; stroke-linecap:round; stroke-linejoin:round; stroke-width:2px;"/></g><path id="uuid-01bacb42-159f-4545-9d21-201de2eec32a" d="m88.32,161.02c12.44,16.67,22.78,35.25,29.15,55,5.17,16,6.35,33.16,6.91,49.97.32,9.88-.67,19.8-2.12,29.57-.47,3.16-1.36,6.25-2.12,9.36" style="fill:none; stroke:#55a; stroke-linecap:round; stroke-linejoin:round; stroke-width:2px;"/><g id="uuid-54f7f7de-9e81-4386-af1a-a1a2d5bb0375"><path id="uuid-d7a57275-eaa8-40dc-8d72-a3fbcd3b6016" d="m84.88,165.62s-4.05,8.85-5.66,13.44c-1.64,4.68-3.27,9.42-4.07,14.32-.82,5.01-1.01,10.14-.71,15.2.23,3.94,1.01,7.84,1.94,11.67.86,3.55,1.85,7.1,3.36,10.43,2.04,4.5,4.77,8.68,7.6,12.73,2.95,4.23,6.05,8.41,9.72,12.02,2.93,2.88,6.29,5.33,9.72,7.6,3.87,2.56,12.2,6.72,12.2,6.72" style="fill:none; stroke:#55a; stroke-linecap:round; stroke-linejoin:round; stroke-width:2px;"/><path id="uuid-fd13c9c0-0568-493b-9635-d4b854f6f691" d="m101.68,191.07c-.85,8.23-1.42,16.8.62,24.82,1.37,5.39,4.31,10.38,7.61,14.86,2.17,2.95,5.05,5.35,7.86,7.7,0,0-3.08-16.34-5.74-24.19-2.71-8.02-10.35-23.19-10.35-23.19h0Z" style="fill:#55a; stroke:#55a; stroke-linecap:round; stroke-linejoin:round; stroke-width:2px;"/><path id="uuid-642e543d-9124-46e9-bf43-3a9b8f3ca783" d="m88.6,170.21s-3.41.03-4.6,1.06c-1.38,1.2-2.01,3.3-1.94,5.13.07,1.82,1.13,3.56,2.3,4.95,1.66,1.98,4.07,3.23,6.36,4.42,1.84.95,5.83,2.12,5.83,2.12" style="fill:none; stroke:#55a; stroke-linecap:round; stroke-linejoin:round; stroke-width:2px;"/><path id="uuid-0dd16055-039d-439e-aa6e-5d688acb810f" d="m94.43,202.74s-4.84-.16-7.25-.35c-2.07-.17-4.3.15-6.19-.71-1.75-.8-3.37-2.18-4.24-3.89-.72-1.43-.86-3.21-.53-4.77.49-2.27,1.65-4.65,3.54-6.01,1.56-1.13,3.73-1.23,5.66-1.24,3.79-.02,11.14,2.3,11.14,2.3" style="fill:none; stroke:#55a; stroke-linecap:round; stroke-linejoin:round; stroke-width:2px;"/><path id="uuid-af4e5c00-1fac-40e3-be85-4d5a5a671022" d="m95.49,190.81s-5.79-1.86-8.66-1.33c-1.38.25-2.96.82-3.71,2.09-.7,1.18-.66,2.88-.18,4.17.61,1.62,2.03,2.96,3.54,3.61,2.57,1.1,8.31,0,8.31,0l.71-8.54Z" style="fill:#55a;"/><path id="uuid-5e00e942-8e5e-4b5e-a2e1-982a7ea5c13b" d="m96.68,216.79s-4.64,1.34-6.99,1.91c-2.02.48-4.03,1.47-6.1,1.25-1.91-.2-3.89-.99-5.25-2.31-1.14-1.1-1.83-2.72-2-4.28-.25-2.26.11-4.83,1.47-6.68,1.13-1.54,3.15-2.29,4.98-2.9,3.59-1.19,11.29-1.3,11.29-1.3" style="fill:none; stroke:#55a; stroke-linecap:round; stroke-linejoin:round; stroke-width:2px;"/><path id="uuid-64c644b3-0085-4714-b3d9-0fd9d2f390a0" d="m94.84,206.11s-6.52-.07-9.32,1.34c-1.23.62-2.57,1.63-2.91,2.95-.32,1.23.22,2.7,1.06,3.67,1.05,1.22,2.79,1.94,4.41,2.04,2.76.16,7.89-2.56,7.89-2.56l-1.12-7.44Z" style="fill:#55a;"/><path id="uuid-143c0b92-ebcb-4afb-9286-6c76ff02877f" d="m102.48,230.47s-4.19,2.41-6.34,3.51c-1.85.94-3.57,2.38-5.63,2.66-1.9.25-4.01-.04-5.65-1-1.37-.8-2.42-2.21-2.96-3.68-.78-2.14-1.04-4.72-.16-6.84.73-1.76,2.52-2.97,4.15-3.99,3.21-2.01,10.67-3.93,10.67-3.93" style="fill:none; stroke:#55a; stroke-linecap:round; stroke-linejoin:round; stroke-width:2px;"/><path id="uuid-89cc7d06-ec9c-46b7-9986-7174e77bd00c" d="m97.26,220.36s-5.56,1.5-7.65,3.34c-1.04.91-2.11,2.19-2.13,3.56-.02,1.27.85,2.57,1.89,3.32,1.31.93,3.17,1.22,4.77.93,2.72-.5,7.06-4.36,7.06-4.36l-3.94-6.79Z" style="fill:#55a;"/><path id="uuid-28289c38-a857-414d-b525-9e9a8b03a5db" d="m111.65,241.42s-3.33,3.51-5.07,5.18c-1.5,1.43-2.74,3.3-4.63,4.16-1.75.79-3.85,1.11-5.7.66-1.54-.38-2.95-1.42-3.89-2.68-1.36-1.83-2.35-4.23-2.11-6.51.2-1.89,1.56-3.57,2.84-5.02,2.5-2.84,9.09-6.82,9.09-6.82" style="fill:none; stroke:#55a; stroke-linecap:round; stroke-linejoin:round; stroke-width:2px;"/><path id="uuid-bbf74f8f-eb61-4284-98bd-e02a1d5d5440" d="m103.96,233.34s-5.12,3.2-6.66,5.66c-.74,1.18-1.4,2.7-1.02,4.02.35,1.22,1.55,2.22,2.77,2.64,1.52.52,3.39.26,4.84-.47,2.47-1.26,5.51-6.2,5.51-6.2l-5.43-5.65Z" style="fill:#55a;"/><path id="uuid-4edb3939-f0b6-4e62-aacc-135c0b52802e" d="m97.72,184.21c-2.09-.58-4.43-.96-6.08-2.38-1.78-1.53-3.47-3.74-3.54-6.09-.02-.75.46-1.51,1.02-2.02.49-.44,1.3-.77,1.85-.7,2.25,3.72,4.51,7.45,6.74,11.18Z" style="fill:#55a; stroke:#55a; stroke-linecap:round; stroke-linejoin:round; stroke-width:2px;"/><path id="uuid-da8e496d-2042-498e-8fab-7ecdfd2cb7c9" d="m111.13,241.63c-2.64,2.36-5.87,5.82-7.14,9.6-.79,2.34-.94,5.1-.06,7.41.73,1.91,2.27,3.62,4.13,4.54,1.88.93,4.33,1.3,6.32.6,2.16-.76,3.47-2.96,4.79-4.74" style="fill:none; stroke:#55a; stroke-linecap:round; stroke-linejoin:round; stroke-width:2px;"/><path id="uuid-47fc9324-c1ea-4352-ae86-d88b75e3a65f" d="m114.63,243.13s-4.63,5.02-5.54,8.19c-.38,1.33-.64,3,.14,4.15.98,1.45,3.08,2.31,4.82,2.12,1.92-.21,3.7-2.13,4.69-3.41.34-3.76-.36-8.2-.36-8.2l-3.74-2.85Z" style="fill:#55a;"/></g><g id="uuid-34ff8602-5f4c-4318-a84a-b86f34849190"><path id="uuid-d560d367-a155-4079-a201-fbcb9c736a93" d="m222.57,97.05s-.12-2.7.26-3.96c.21-.68,1.06-1.85,1.06-1.85,0,0-4.34,1.58-6.61,1.59-2.35.01-4.55-1.22-6.87-1.59-2.8-.44-5.64-.96-8.46-.74-3.17.25-6.39.94-9.25,2.32-1.3.63-3.44,2.64-3.44,2.64,0,0,5.86-2.74,8.99-3.44,2.41-.54,4.93-.72,7.4-.53,2.34.18,4.53,1.39,6.87,1.59,2.82.23,5.69.06,8.46-.53.75-.16,2.16-.8,2.16-.8,0,0-.68,1.7-.78,2.59-.1.9.2,1.64.2,2.7Z" style="fill:none; stroke:#55a; stroke-linecap:round; stroke-linejoin:round; stroke-width:2px;"/><path id="uuid-1126da24-fccc-4cc2-a031-bee78b1d3ea0" d="m219.74,100.12s-1.59.55-2.37.38c-1.89-.42-3-2.55-4.81-3.24-1.48-.57-3.13-.62-4.72-.67-1.78-.06-3.61-.05-5.33.4-2.33.62-4.48,1.85-6.55,3.1-1.78,1.08-3.22,2.68-4.99,3.78-.68.42-2.16,1.08-2.16,1.08,0,0,3.85.36,5.74.07,3.07-.48,5.79-2.35,8.84-2.97,1.68-.34,3.41-.4,5.13-.4,1.63,0,3.26.19,4.89.37.61.07,1.21.36,1.82.27,1.65-.25,4.52-2.15,4.52-2.15Z" style="fill:none; stroke:#55a; stroke-linecap:round; stroke-linejoin:round; stroke-width:2px;"/><path id="uuid-ef0b923d-b54a-41c5-a34d-0e9b128aeb12" d="m195.89,105.42s3.19,3.04,5.2,3.78c1.44.53,3.06.36,4.59.34,2.31-.04,4.71.02,6.88-.74,1.31-.46,2.4-1.4,3.51-2.23.79-.59,2.24-1.93,2.24-1.93,0,0-2.77-1.23-4.2-1.72-1.44-.49-2.88-1.06-4.39-1.21-2.2-.22-4.47-.07-6.61.47-2.56.64-7.22,3.24-7.22,3.24h0Z" style="fill:none; stroke:#55a; stroke-linecap:round; stroke-linejoin:round; stroke-width:2px;"/><path id="uuid-f463fe6d-2a02-40c6-9814-5cf7c0549d44" d="m212.96,105.56c0,2.01-2.42,3.64-5.4,3.64s-5.4-1.63-5.4-3.64,2.42-3.64,5.4-3.64,5.4,1.63,5.4,3.64Z" style="fill:none; stroke:#55a; stroke-linecap:round; stroke-linejoin:round; stroke-width:2.08px;"/><path id="uuid-21b55ea7-3339-4562-9235-fee81f0dfc30" d="m209.86,104.71c0,.84-.88,1.52-1.96,1.52s-1.96-.68-1.96-1.52.88-1.52,1.96-1.52,1.96.68,1.96,1.52Z" style="fill:#55a; stroke:#55a; stroke-linecap:round; stroke-linejoin:round; stroke-width:2px;"/><path id="uuid-16721737-c29a-47ed-9eec-82524c80169f" d="m254.25,98.62s-1.72-1.28-2.75-3.25c-.94-1.79-2.95-2.99-4.88-3.62-1.58-.52-3.34-.13-5,0-1.89.15-3.73.96-5.62.88-1.03-.05-2-.49-3-.75-.46-.12-1.38-.38-1.38-.38l1,5.58-.38-4.96s2.45,1.02,3.75,1.25c1.68.29,3.42.16,5.12.12,2.05-.04,4.17-.98,6.12-.38,2.83.88,7,5.5,7,5.5Z" style="fill:#55a; stroke:#55a; stroke-linecap:round; stroke-linejoin:round; stroke-width:2px;"/><path id="uuid-bdc4b84d-b62c-4eb8-a078-311525dc135b" d="m231.71,98.29c.01,2.15.04,4.88.44,7.28.43,2.61,1.54,5.07,2.11,7.66.49,2.23.66,4.52,1.09,6.76.2,1.01.67,1.98.69,3.01.03,1.06.06,2.26-.54,3.13-1.2,1.73-3.81,1.88-5.45,3.2-.73.59-1.31,1.33-1.92,2.05" style="fill:none; stroke:#55a; stroke-linecap:round; stroke-linejoin:round; stroke-width:2px;"/><path id="uuid-d4a6a622-6964-4812-97a7-17243cde73c0" d="m218.88,121.25c-1.26-.46-2.45.8-3.11,1.81-.48.74-.51,1.79-.28,2.64.34,1.23,1.15,2.48,2.28,3.07,1.29.67,2.99.6,4.37.12,1.04-.36,1.57-1.58,2.53-2.11,1.21-.67,2.62-.94,3.96-1.29" style="fill:none; stroke:#55a; stroke-linecap:round; stroke-linejoin:round; stroke-width:2px;"/><path id="uuid-1c4edff3-42b0-4e85-a71e-ee978d8b38b5" d="m208.38,130.12s-2.75-.86-4.12-.62c-.7.12-1.44.44-1.88,1-.74.95-.99,2.3-.88,3.5.12,1.28.6,2.72,1.62,3.5,1.61,1.23,3.99,1.25,6,1,1.94-.25,3.61-1.52,5.38-2.38,1.19-.58,2.27-1.39,3.5-1.88,1.36-.54,2.78-1.11,4.25-1.12.9-.01,2.36-.23,2.62.62.2.65-.76,1.22-1.38,1.5-1.67.76-3.7-.22-5.5.12-1.97.38-3.71,1.55-5.62,2.12-1.8.54-3.63,1.43-5.5,1.25-1.54-.15-3.16-.78-4.25-1.88-.74-.74-1.18-1.83-1.25-2.88-.07-1.08.19-2.29.88-3.12.86-1.06,2.27-1.84,3.62-1.88.91-.02,2.5,1.12,2.5,1.12Z" style="fill:#55a; stroke:#55a; stroke-linecap:round; stroke-linejoin:round; stroke-width:2px;"/><path id="uuid-0e0803cd-e3de-4ed5-b7d6-dfdb9abde617" d="m243.38,128.75s2.31.92,3,1.88c.61.83.75,1.97.75,3,0,1.41-.07,3.06-1,4.12-.59.68-1.6.94-2.5,1-1.33.09-2.63-.53-3.88-1-1.31-.49-2.47-1.31-3.75-1.88-1.18-.52-2.34-1.27-3.62-1.38-.81-.06-1.75,1.01-2.38.5-.26-.21-.16-.71,0-1,.33-.61,1.06-1.06,1.75-1.12,1.02-.1,1.94.7,2.88,1.12,1.32.6,2.58,1.35,3.88,2,1.37.68,2.61,1.82,4.12,2,1.18.14,2.66.09,3.5-.75.99-.99,1.01-2.73.88-4.12-.11-1.17-.57-2.39-1.38-3.25-.57-.61-2.25-1.12-2.25-1.12Z" style="fill:#55a; stroke:#55a; stroke-linecap:round; stroke-linejoin:round; stroke-width:2px;"/><path id="uuid-ecd9e399-d432-4fcb-a6eb-5cd53f53fc3f" d="m214.5,142.75s2.66-.76,4-1.12c1.25-.34,2.46-1,3.75-1,1.43,0,2.73.84,4.12,1.12,1.15.24,2.35.75,3.5.5.82-.18,1.29-1.25,2.12-1.38,1.2-.18,2.4.49,3.5,1,.68.32,1.88,1.25,1.88,1.25,0,0-1.86-.94-2.88-1-1.32-.07-2.56.74-3.88.88-1.66.16-3.34.05-5-.12-1.1-.12-2.16-.46-3.25-.62-1.08-.17-2.16-.46-3.25-.38-1.12.08-2.14.73-3.25.88-.45.06-1.38,0-1.38,0Z" style="fill:#55a; stroke:#55a; stroke-linecap:round; stroke-linejoin:round; stroke-width:2px;"/><path id="uuid-39b28343-3c0d-4715-a71e-a7421d9f5670" d="m221.75,147.12s2.26,1.16,3.5,1.38c1.11.19,2.28.14,3.38-.12,1.25-.3,3.5-1.62,3.5-1.62" style="fill:none; stroke:#55a; stroke-linecap:round; stroke-linejoin:round; stroke-width:2px;"/><path id="uuid-68a10aef-3ecf-4668-8c28-e76e76d7f208" d="m233,102s3.29-2.47,5.12-3.38c1.5-.74,3.08-1.51,4.75-1.62,1.52-.11,3.04.44,4.5.88,1.16.35,2.2,1.07,3.38,1.38.98.25,3,.38,3,.38" style="fill:none; stroke:#55a; stroke-linecap:round; stroke-linejoin:round; stroke-width:2px;"/><path id="uuid-c08c512f-2029-4f89-9331-6c9d21ccc307" d="m252.33,104.04s-2.89,2.51-4.59,3.34c-1.21.59-2.53,1-3.87,1.13-2,.2-4.1.19-6.02-.49-1.15-.41-2.12-1.31-3.1-2.09-.7-.56-1.99-1.84-1.99-1.84,0,0,2.39-1.33,3.63-1.87,1.24-.54,2.49-1.17,3.8-1.38,1.91-.3,3.9-.23,5.78.23,2.24.55,6.36,2.97,6.36,2.97h0Z" style="fill:none; stroke:#55a; stroke-linecap:round; stroke-linejoin:round; stroke-width:2px;"/><path id="uuid-5bbd4c99-f766-41b6-85a4-e3157c9f7a44" d="m237.44,104.8c.04,2.01,2.17,3.55,4.77,3.44s4.68-1.83,4.64-3.84-2.17-3.55-4.77-3.44-4.68,1.83-4.64,3.84Z" style="fill:none; stroke:#55a; stroke-linecap:round; stroke-linejoin:round; stroke-width:2.23px;"/><path id="uuid-35de5e63-d7b1-4567-baec-ffac3b941231" d="m240.14,103.85c.02.84.79,1.48,1.73,1.44s1.69-.75,1.68-1.59-.79-1.48-1.73-1.44-1.69.75-1.68,1.59Z" style="fill:#55a; stroke:#55a; stroke-linecap:round; stroke-linejoin:round; stroke-width:2.14px;"/><path id="uuid-29ebe4a0-ba75-41cb-b830-41c8e6cb175b" d="m215.25,109.38l-5.12,4.5" style="fill:none; stroke:#55a; stroke-linecap:round; stroke-linejoin:round; stroke-width:2px;"/><path id="uuid-0eab6212-cbdc-4ef3-ba3e-81316182cbe3" d="m235.25,111l5.12,3.75" style="fill:none; stroke:#55a; stroke-linecap:round; stroke-linejoin:round; stroke-width:2px;"/></g><path id="uuid-2e495f67-eb65-45f8-a2f0-42ae6b6c848a" d="m223.87,264.31c.33.64.86,1.3,1.85,1.42,1.79.2,3.16-1.25,3.38-3.24.16-1.39-.25-2.37-.61-3.49-.38-1.2-1.03-2.3-1.63-3.4-.78-1.42-2.56-4.11-2.56-4.11,0,0-2.34,2.23-3.41,3.44-.83.94-1.7,1.87-2.34,2.96-.6,1.02-1.22,1.88-1.37,3.27-.22,1.99.79,3.71,2.58,3.91.99.11,1.66-.42,2.12-.97l.18.22q-.31.97-.62,1.94c-.31.97-1.13,2.89-1.13,2.89q2.03-.17,3.97.45s-.37-2.05-.46-3.07-.09-1.02-.17-2.03l.22-.18Z" style="fill:#fff;"/><path id="uuid-89fd1ec3-c0d5-4741-abcc-245229408ac4" d="m227.82,239.09c.27.67.74,1.38,1.71,1.58,1.76.37,3.26-.96,3.67-2.92.28-1.37-.03-2.38-.29-3.53-.27-1.23-.81-2.39-1.31-3.54-.64-1.48-2.17-4.33-2.17-4.33,0,0-2.53,2.01-3.71,3.11-.92.86-1.87,1.71-2.61,2.73-.69.96-1.39,1.76-1.67,3.13-.41,1.96.44,3.77,2.21,4.13.98.2,1.69-.26,2.2-.77l.16.24q-.4.94-.8,1.88c-.4.94-1.39,2.78-1.39,2.78q2.04.01,3.92.81s-.18-2.08-.17-3.1q0-1.02.01-2.04l.24-.16Z" style="fill:#fff;"/><path id="uuid-ff6ca347-3bc9-414b-b316-0cff6746caa6" d="m235.85,215.15c.16.7.5,1.48,1.44,1.84,1.68.65,3.37-.42,4.09-2.28.5-1.31.35-2.35.29-3.53-.07-1.26-.41-2.48-.72-3.7-.39-1.57-1.44-4.62-1.44-4.62,0,0-2.82,1.57-4.16,2.47-1.04.7-2.12,1.38-3.01,2.27-.84.83-1.65,1.51-2.15,2.81-.72,1.87-.17,3.79,1.51,4.44.93.36,1.71.01,2.3-.4l.11.26-1.09,1.72c-.55.86-1.82,2.51-1.82,2.51q2.01.34,3.73,1.43s.16-2.08.33-3.09q.17-1.01.34-2.01l.26-.11Z" style="fill:#fff;"/><path id="uuid-1a543ffa-3e9d-42f8-b7bb-132c5a3635c6" d="m247.79,191.71c.05.72.27,1.54,1.14,2.04,1.56.9,3.4.11,4.4-1.62.7-1.21.71-2.27.83-3.45.13-1.25-.02-2.52-.14-3.77-.15-1.61-.71-4.79-.71-4.79,0,0-3.03,1.12-4.5,1.8-1.14.53-2.31,1.04-3.33,1.78-.96.69-1.86,1.23-2.56,2.45-1,1.73-.76,3.72.81,4.62.87.5,1.69.28,2.33-.04l.07.27-1.34,1.53c-.67.77-2.19,2.2-2.19,2.2q1.93.65,3.47,1.99s.48-2.03.8-3q.33-.97.65-1.93l.27-.07Z" style="fill:#fff;"/><path id="uuid-974053c0-f3f7-4fe7-aa98-5ec143735eaa" d="m261.78,171.95c-.08.72-.02,1.56.75,2.21,1.37,1.17,3.32.73,4.62-.8.91-1.07,1.11-2.1,1.44-3.24.35-1.21.44-2.48.55-3.73.15-1.61.18-4.84.18-4.84,0,0-3.18.55-4.75.95-1.22.31-2.46.6-3.6,1.14-1.07.51-2.06.88-2.97,1.94-1.3,1.52-1.42,3.52-.05,4.69.76.65,1.61.58,2.3.38l.02.28q-.8.63-1.6,1.26c-.8.63-2.55,1.77-2.55,1.77q1.78.99,3.05,2.59s.84-1.91,1.34-2.8q.5-.89.99-1.78l.28-.02Z" style="fill:#fff;"/><path id="uuid-e71b712c-b4b6-4320-b9fd-116f369cdf50" d="m107.33,162.67c0-.72.17-1.55,1.01-2.1,1.5-.99,3.39-.31,4.49,1.35.77,1.17.85,2.22,1.04,3.39.2,1.24.13,2.52.09,3.77-.05,1.61-.41,4.82-.41,4.82,0,0-3.09-.93-4.6-1.52-1.17-.46-2.37-.9-3.43-1.57-1-.63-1.94-1.12-2.71-2.29-1.1-1.67-.98-3.67.52-4.66.83-.55,1.67-.38,2.33-.1l.06-.28q-.72-.72-1.43-1.45c-.72-.72-2.32-2.06-2.32-2.06q1.89-.77,3.34-2.2s.6,2,.98,2.95q.38.95.77,1.89l.28.06Z" style="fill:#fff;"/><path id="uuid-83ae054b-eee9-45e4-b3a5-0d923a2e4ab2" d="m117.88,182.74c.12-.71.43-1.5,1.34-1.91,1.65-.73,3.39.25,4.2,2.08.57,1.28.47,2.33.46,3.51,0,1.26-.29,2.5-.54,3.74-.32,1.58-1.21,4.69-1.21,4.69,0,0-2.9-1.43-4.28-2.26-1.08-.65-2.19-1.28-3.12-2.12-.88-.79-1.72-1.43-2.29-2.71-.81-1.83-.36-3.78,1.29-4.5.91-.4,1.71-.1,2.31.29l.1-.26q-.59-.83-1.17-1.67c-.59-.83-1.94-2.42-1.94-2.42q1.99-.44,3.66-1.62s.26,2.07.48,3.07q.22,1,.44,1.99l.26.1Z" style="fill:#fff;"/><path id="uuid-683841d2-1b14-433d-a80b-4a6eb89090b0" d="m126.86,203.34c.16-.7.51-1.48,1.44-1.84,1.68-.64,3.37.42,4.09,2.29.5,1.31.35,2.35.28,3.53-.07,1.26-.42,2.48-.72,3.7-.4,1.56-1.44,4.62-1.44,4.62,0,0-2.82-1.58-4.16-2.48-1.04-.7-2.12-1.39-3.01-2.27-.84-.83-1.65-1.51-2.15-2.82-.71-1.87-.17-3.79,1.52-4.43.93-.36,1.71-.01,2.3.41l.12-.26q-.54-.86-1.09-1.72c-.54-.86-1.82-2.52-1.82-2.52q2.01-.34,3.74-1.43s.15,2.08.33,3.09q.17,1.01.34,2.01l.26.12Z" style="fill:#fff;"/><path id="uuid-ffa7f5c1-612b-4852-80ea-e438314d89cc" d="m134.33,227.04c.27-.67.73-1.38,1.71-1.59,1.76-.38,3.27.94,3.69,2.89.29,1.37-.02,2.38-.27,3.53-.26,1.23-.79,2.39-1.29,3.55-.63,1.48-2.14,4.34-2.14,4.34,0,0-2.54-1.99-3.73-3.09-.92-.85-1.88-1.7-2.62-2.71-.7-.95-1.4-1.75-1.69-3.12-.42-1.96.42-3.77,2.18-4.15.98-.21,1.69.25,2.21.76l.15-.24q-.4-.94-.81-1.87c-.4-.94-1.41-2.77-1.41-2.77q2.04-.03,3.91-.84s-.17,2.08-.16,3.1q.01,1.02.03,2.04l.24.15Z" style="fill:#fff;"/><path id="uuid-1ed52e42-eee3-4372-a8d9-3166fe967f7f" d="m137.3,251.4c.33-.64.85-1.31,1.85-1.42,1.79-.21,3.16,1.24,3.4,3.23.16,1.39-.24,2.37-.6,3.49-.38,1.2-1.02,2.3-1.62,3.41-.77,1.42-2.54,4.12-2.54,4.12,0,0-2.34-2.23-3.42-3.43-.84-.94-1.71-1.87-2.36-2.95-.61-1.01-1.22-1.87-1.39-3.26-.23-1.99.78-3.71,2.56-3.92.99-.12,1.66.41,2.13.96l.18-.22q-.31-.97-.63-1.94c-.31-.97-1.14-2.89-1.14-2.89q2.03.17,3.97-.46s-.37,2.06-.45,3.07q-.08,1.02-.17,2.03l.22.18Z" style="fill:#fff;"/><path id="uuid-ed855400-c9ad-4fbb-aafb-29bea07e3725" d="m110.39,150.96c-15.22,5.6-30.14,12.18-44.28,20.09-12.86,7.2-25.38,15.03-36.61,24.75" style="fill:none; stroke:#55a; stroke-linecap:round; stroke-linejoin:round; stroke-width:2px;"/><path id="uuid-71d6392f-8670-4b44-8115-de306ae5e086" d="m234.85,380.13l-4.46.64-4.14-1.91-3.98,1.91-2.71-1.43-2.71.8-6.05-13.05-7.32-18.47-4.46-15.76-2.07-13.53-1.27-10.19-.32-10.35,11.14.32,2.23,14.65,3.82,17.99,4.62,14.17,4.94,11.3,5.25,10.19,3.34,6.37,4.14,6.37Z" style="fill:#f55;"/><path id="uuid-9d7079dc-9c3b-4d56-9087-d42f23ea7f20" d="m130.42,376.47l7.96-14.96,7.96-17.83,5.41-17.83,3.5-16.4,1.91-10.35-7.8-.32-4.3,16.72-6.21,18.15-5.25,12.26-6.21,10.67-4.46,6.37,3.82,2.39,2.07,5.73,1.59,5.41Z" style="fill:#f55;"/><path id="uuid-6d9784b0-8eed-4238-9f60-fda7d4270671" d="m89.34,303.87l-11.01-5.51s-.03,2.83-.79,3.93c-1.23,1.8-3.5,2.68-5.51,3.54-2.03.87-4.25,1.18-6.42,1.57-1.08.2-3.28.39-3.28.39l.13,38.41s4.65-4.1,6.69-6.42c2.43-2.77,4.49-5.85,6.55-8.91,2-2.98,3.91-6.03,5.64-9.18,1.68-3.07,3.16-6.24,4.59-9.44,1.23-2.76,3.41-8.39,3.41-8.39Z" style="fill:#f55;"/><path id="uuid-f33f0dcc-97d8-4c31-9a9f-7e26c4aa3640" d="m321.25,349.75l-16.5,11.5-20.25,11-9.25,4.75-1.25-3.25,5.25-12.25,5-18.5.75-11.5-2.25-14.25-4-10.75-6.75-11-7.75-9.25-6.25-6-7.5-5.5-10.75-5.5-.5-14,1.5-8.75,2-10.75,20.5,9.75,1,16.5,4,17.5,7,18.5,6,9.75,13.25,17.25,11.75,11.75,9.25,7.25,5.75,5.75Z" style="fill:#ff5556;"/><g id="uuid-60613129-3627-4be8-8e28-9d4d4869b01c"><path id="uuid-e9296f66-798f-4b13-8bbe-1f10f310b55a" d="m243.5,509.5c-10.5-19.17-21-38.33-31.5-57.5-11.29,4.21-23.3,5.62-35.18,6.88-12.97,1.37-26.1,1.43-39.13.71-10.63-.59-21.33-1.38-31.69-4.08-11.83,18-23.67,36-35.5,54h173Z" style="fill:#ff5; stroke:#55a; stroke-width:2px;"/><path id="uuid-7872dd76-5f3b-49d8-85dd-1fcc55184b52" d="m168.31,478.95c-1.21-1.01-2.79-1.9-4.36-1.81-1.58.1-2.94,1.31-4.14,2.34-.76.65-1.22,1.33-1.85,2.37-.82-.97-1.53-2.19-2.64-2.85-1.38-.81-3.17-1.75-4.65-1.15-1.78.73-2.88,2.99-3.03,4.9-.14,1.77.73,3.76,2.08,4.91,1.27,1.09,3.21,1.05,4.87,1.2-.48,1.49-1.28,3.4-.69,4.97.68,1.83,2.47,3.61,4.41,3.88,1.76.25,3.7-.9,4.8-2.28.97-1.21,1.34-3.01,1.03-4.52-.23-1.12-1.05-2.07-2-2.78,1.94-.16,4.18-.38,5.54-1.76,1.31-1.32,1.77-3.47,1.63-5.32-.06-.78-.63-1.43-1.01-2.12h0Zm-8.49,6.4c.13.89-.51,2.19-1.4,2.31-.92.12-2.03-.98-2.02-1.91.01-.86,1.07-1.72,1.94-1.72.66,0,1.38.66,1.48,1.32Z"/><path id="uuid-ea6c17b5-db7f-418a-a890-a9ce29633e7f" d="m196.36,493.58c1.39-.73,2.83-1.84,3.34-3.33.52-1.5-.05-3.22-.58-4.72-.4-1.14-1.21-2.11-1.93-3.09,1.03.35,2.21.37,3.16-.09,1.79-.88,3.72-2.64,3.78-4.64.06-1.92-1.65-3.81-3.36-4.68-1.58-.81-3.75-.77-5.33.03-1.49.76-2.2,2.56-2.98,4.04-1.2-1.01-2.65-2.06-4.21-2.06-2.1,0-4.71.91-5.64,2.79-.86,1.74.04,4.08,1.11,5.7.72,1.1,1.94,2.1,3.24,2.23,1.18.12,2.25-.8,3.27-1.41-.6,1.85-1.25,4-.51,5.79.72,1.71,2.53,2.97,4.29,3.55.74.25,1.57-.03,2.34-.12h0Zm-2.88-10.8c-.91-.12-2.15-1-2-1.9.16-.91,1.73-1.59,2.54-1.13.75.42.7,1.79.32,2.56-.15.29-.53.52-.86.48Z"/><path id="uuid-1c03318e-18bc-491a-a037-a0c666e727f1" d="m119.45,495.51c-1.39-.73-2.83-1.84-3.34-3.33-.52-1.5.05-3.22.58-4.72.4-1.14,1.21-2.11,1.93-3.09-1.03.35-2.21.37-3.16-.09-1.79-.88-3.72-2.64-3.78-4.64-.06-1.92,1.65-3.81,3.36-4.68,1.58-.81,3.75-.77,5.33.03,1.49.76,2.2,2.56,2.98,4.04,1.2-1.01,2.65-2.06,4.21-2.06,2.1,0,4.71.91,5.64,2.79.86,1.74-.04,4.08-1.11,5.7-.72,1.1-1.94,2.1-3.24,2.23-1.18.12-2.25-.8-3.27-1.41.6,1.85,1.25,4,.51,5.79-.72,1.71-2.53,2.97-4.29,3.55-.74.25-1.57-.03-2.34-.12h0Zm2.88-10.8c.91-.12,2.15-1,2-1.9-.16-.91-1.73-1.59-2.54-1.13-.75.42-.7,1.79-.32,2.56.15.29.53.52.86.48Z"/><path id="uuid-d78b5951-3aff-4be8-905e-aa90aef57f95" d="m88.35,490.64c1.75.04,3.78-.52,4.97-1.89,1.24-1.43,1.35-3.67,1.42-5.62.71.92,1.35,2.13,2.44,2.42,1.2.32,2.6-.21,3.59-1,1.46-1.17,3.04-3.09,2.84-5.01-.22-2.08-2.24-3.8-4.09-4.51-1.38-.53-3.01-.04-4.39.51-.06-.48-.12-1.01-.18-1.51l-2.41,3.63c.11-.07.24-.15.36-.17.86-.16,2.03,1,1.87,1.92-.15.91-1.55,1.32-2.39,1.12-.3-.07-.57-.4-.61-.72-.04-.39.03-.88.19-1.3l-6.58,9.91c.29.47.62.91.96,1.3.66.35,1.28.9,2.01.92Z"/><path id="uuid-582ac74b-fec2-4e17-96d2-a44c4275045f" d="m226.96,489.15c-1.75-.11-3.72-.84-4.79-2.31-1.11-1.53-1.03-3.78-.94-5.72-.78.85-1.53,2-2.63,2.2-1.22.22-2.57-.43-3.49-1.3-1.36-1.29-2.76-3.34-2.39-5.24.39-2.06,2.55-3.59,4.46-4.14,1.42-.41,3,.22,4.33.89.1-.48.21-.99.31-1.49l2.09,3.82c-.1-.08-.22-.17-.35-.2-.84-.23-2.11.83-2.03,1.75.08.92,1.43,1.45,2.28,1.32.3-.04.61-.35.67-.67.08-.38.04-.88-.08-1.32l5.7,10.44c-.33.45-.69.85-1.07,1.22-.69.29-1.35.79-2.09.75h0Z"/><path id="uuid-45fc9af6-e454-4d56-a114-610260f3ffd5" d="m145.77,474.1c2.62-.32,5.38.71,7.64,2.06,1.2.72,2.04,1.93,2.86,3.06.75,1.02,1.24,2.69,1.87,3.31-.36-3.46-1.28-5.71-3.07-7.89-1.72-2.09-4.34-3.38-6.88-4.34-2.73-1.03-5.75-1.61-8.66-1.4-3.44.24-6.83,1.44-9.86,3.08-2.05,1.11-3.98,2.6-5.39,4.44-.78,1.03-1.45,2.54-1.58,3.53,1.31-1.58,3.5-3.41,5.67-4.44,1.98-.94,4.26-1.74,6.43-1.44,2.11.29,3.68,1.4,5.63,3.02,2.05-1.1,3.31-2.74,5.34-2.99h0Z"/><path id="uuid-a02bdb62-5aef-4cf4-93b9-3ca209f7d531" d="m169.95,473.12c-2.6-.19-5.23,1.06-7.43,2.45-1.16.73-2.05,1.86-2.85,2.98-.73,1.02-.79,3.42-1.75,3.34.18-3.47,1.21-5.56,2.89-7.75,1.63-2.13,4.11-3.6,6.56-4.68,2.64-1.17,5.59-1.9,8.48-1.84,3.4.07,6.82,1.09,9.89,2.57,2.08,1,4.06,2.39,5.55,4.16.83.98,1.56,2.47,1.74,3.44-1.38-1.51-3.63-3.23-5.83-4.15-2.01-.84-4.29-1.52-6.42-1.11-2.07.4-3.56,1.59-5.4,3.31-2.08-.99-3.41-2.57-5.43-2.72h0Z"/><path id="uuid-efd4e84e-3003-4432-91a9-cedd12f14f63" d="m114.26,471.04c2.05.07,4.11,1.4,5.75,2.95.88.83,1.35,2.12,1.99,3.21.5.86.67,2.59,1.43,2.61-.02-3.23-.83-4.93-2.03-6.98-1.23-2.11-3.1-3.7-5-4.94-2.04-1.33-4.32-2.27-6.6-2.49-2.68-.25-5.39.38-7.85,1.46-1.67.73-3.27,1.83-4.5,3.33-.68.83-1.31,2.13-1.48,3.02,1.13-1.26,2.96-2.65,4.71-3.29,1.6-.59,3.42-1.01,5.08-.43,1.61.56,2.74,1.8,4.13,3.56,1.67-.73,2.76-2.06,4.35-2.01h0Z"/><path id="uuid-39f6817c-d85e-477e-a63c-e9649712d998" d="m209.22,467.82c2.01-.78,4.53-.26,6.74.65,1.18.49,2.21,1.56,3.2,2.47,1.04.96,2.11,3.44,2.85,3.15-1.3-3.3-2.84-5.47-5.16-7.39-1.91-1.57-4.48-2.52-6.8-3-2.5-.52-5.09-.55-7.37.17-2.69.85-5.07,2.62-7.02,4.74-1.32,1.44-2.44,3.23-3.03,5.28-.33,1.14-.42,2.73-.24,3.71.8-2.4,1.56-4.46,3.25-5.96,1.27-1.13,3.04-1.88,4.75-1.91,1.92-.04,3.37.71,5.41,1.95,1.33-1.44,1.85-3.26,3.41-3.86h0Z"/><path id="uuid-be27e820-acd2-4f51-813d-1cdfea0573cd" d="m216.13,461.59s-5.12-1.65-7.78-1.77c-3.15-.15-6.46.03-9.37,1.24-2.06.85-3.71,2.51-5.3,4.07-1.08,1.06-2.83,3.54-2.83,3.54,0,0-5.82-3.2-9.02-3.89-3.17-.68-6.51-.58-9.72-.18-3.09.39-6.27,1-9.02,2.47-2.21,1.19-5.66,4.95-5.66,4.95,0,0-4.37-4.69-7.25-5.83-2.8-1.11-6-.85-9.02-.71-2.75.13-5.51.58-8.13,1.41-2.61.83-7.42,3.54-7.42,3.54,0,0-2.75-3.77-4.6-5.13-1.72-1.26-3.79-2.03-5.83-2.65-2.06-.63-4.22-1.25-6.36-1.06-2.62.23-7.42,2.66-7.42,2.66l5.06-7.57s15.23,2.63,22.92,3.35c6.45.61,12.95.74,19.43.82,6.98.08,13.97.04,20.93-.38,5.82-.35,11.62-1.05,17.41-1.8,4.35-.56,8.74-1,13.01-2.01,3.91-.93,11.48-3.73,11.48-3.73l4.49,8.66Z" style="fill:#f55;"/></g><g id="uuid-da53bf60-e093-4795-a700-2e628115e77d"><path id="uuid-e589db13-7076-4223-8e20-e59b315c1927" d="m211.31,451.71c2.03-10.37,3.99-20.81,7.32-30.87,3.23-9.21,8.01-17.76,12.77-26.24,1.79-2.71,5.23-5.07,8.59-4.15,2.22.63,2.3,2.99,1.62,4.82" style="fill:none; stroke:#55a; stroke-linecap:round; stroke-linejoin:round; stroke-width:2px;"/><path id="uuid-41cf646f-7f2c-4de9-bb1e-061efcbf7a5e" d="m206.08,453.02c1.81-16.31,5.68-32.56,12.23-47.57,3.68-8.44,9.65-18.97,18.84-21.31,3.92-1,9.51.56,11.42,4.13,2.14,4.02.58,10.86-3.3,13.25-3.66,2.26-9.58.25-12.57-2.83-1.07-1.1-.77-2.99-.89-4.51" style="fill:none; stroke:#55a; stroke-linecap:round; stroke-linejoin:round; stroke-width:2px;"/><path id="uuid-40306a01-2df3-49fd-987c-7296c72d92e6" d="m200.19,455.42c1.41-10.12,2.65-20.64,5.65-30.56,3.48-11.52,7.19-23.41,14.18-33.2,3.22-4.51,6.93-9.92,12.33-11.15,2.69-.61,6.28-.4,7.94,2.35" style="fill:none; stroke:#55a; stroke-linecap:round; stroke-linejoin:round; stroke-width:2px;"/><path id="uuid-8313bd53-7e2d-4ffa-af00-3dbb2ad4cba8" d="m194.52,455.64c1.23-10.56,2.85-21.03,5.69-31.22,2.4-8.61,5.41-17.14,9.54-25.07,3.54-6.81,7.08-13.25,12.93-19.05,1.49-1.47,5.05-1.28,7.58.27" style="fill:none; stroke:#55a; stroke-linecap:round; stroke-linejoin:round; stroke-width:2px;"/><path id="uuid-3982ad1f-b35a-4c0b-bf98-8600e11757c7" d="m189.19,456.75c.96-10.59,2.32-21.1,4.9-31.35,2.18-8.67,4.99-17.26,8.91-25.3,3.2-6.57,6.09-12.56,11.8-18.5,1.45-1.51,4.14-2.72,6.71-1.23" style="fill:none; stroke:#55a; stroke-linecap:round; stroke-linejoin:round; stroke-width:2px;"/><path id="uuid-c76cdc28-a19f-4726-946a-fa89026e3604" d="m183.26,457.86c1.04-10.57,2.31-19.36,4.5-28.85,1.97-8.54,4.42-17.16,7.75-25.11,2.72-6.51,5.18-12.43,9.88-18.25,1.2-1.48,3.37-2.63,5.38-1.09" style="fill:none; stroke:#55a; stroke-linecap:round; stroke-linejoin:round; stroke-width:2px;"/><path id="uuid-a036bf0e-22c9-4eb9-accf-c5ac386aedd1" d="m178.16,458.46c.62-10.01,1.52-18.36,3.26-27.38,1.57-8.12,3.58-16.34,6.44-23.97,2.34-6.23,4.45-11.91,8.67-17.56,1.07-1.44,3.08-2.6,5.02-1.21" style="fill:none; stroke:#55a; stroke-linecap:round; stroke-linejoin:round; stroke-width:2px;"/><path id="uuid-78b94d4b-c23c-4be8-b6ff-f8b862c1c45d" d="m172.59,458.53c.58-9.64,1.41-17.68,3.02-26.37,1.45-7.82,3.32-15.74,5.96-23.08,2.16-6,4.11-11.47,8.02-16.91.99-1.38,2.85-2.5,4.64-1.16" style="fill:none; stroke:#55a; stroke-linecap:round; stroke-linejoin:round; stroke-width:2px;"/></g><g id="uuid-ae878490-d218-4fba-a049-f4bced2db8bf"><path id="uuid-b6f8f6ad-54c1-412d-8336-c7fa2870b0f7" d="m190.25,390.68c-.74-.68-1.75-1.4-2.76-1.27-1.64.21-2.8,1.85-3.81,3.16-1.5,1.94-2.16,4.41-3.14,6.66-1.01,2.32-1.86,4.7-2.8,7.05" style="fill:none; stroke:#55a; stroke-linecap:round; stroke-linejoin:round; stroke-width:2px;"/><path id="uuid-8c6950da-c3b0-4ecc-9db3-45b7f5b9c9a5" d="m175.24,401.29c1.68-3.78,3.12-7.7,5.22-11.27,1.01-1.7,1.76-3.86,3.51-4.77,2.41-1.26,5.9-1.75,8.15-.23,1.67,1.13,2.05,3.64,2.1,5.68" style="fill:none; stroke:#55a; stroke-linecap:round; stroke-linejoin:round; stroke-width:2px;"/><path id="uuid-5e62e77a-8220-4aa3-bab6-dd7359e730b0" d="m172.74,397.76l7.51-15.45" style="fill:none; stroke:#55a; stroke-linecap:round; stroke-linejoin:round; stroke-width:2px;"/><path id="uuid-34b9b660-0d23-4886-bce6-09160af5fb19" d="m153.9,383.18l5.59-10.89" style="fill:none; stroke:#55a; stroke-linecap:round; stroke-linejoin:round; stroke-width:2px;"/><path id="uuid-a90a176d-66a9-4b91-b216-7eb10af60be0" d="m137.71,363.32l-6.48,12.95" style="fill:none; stroke:#55a; stroke-linecap:round; stroke-linejoin:round; stroke-width:2px;"/><path id="uuid-bc4acbef-cdd4-45b9-b254-504bf4a60c63" d="m129.91,376.56c-1.26-3.66-1.12-8.15-3.76-10.98-2.34-2.51-6.09-4.54-9.48-4-3.45.55-6.85,3.57-7.9,6.9-1.85,5.89,2.3,12.7,4.47,17.97" style="fill:none; stroke:#55a; stroke-linecap:round; stroke-linejoin:round; stroke-width:2px;"/><path id="uuid-d899f743-9b46-4acd-b722-90f50ec1123a" d="m166.55,392.01c1.9-3.22,6.08-7.44,4.85-11.38-.55-1.77-2.88-3.32-4.71-2.99-2.18.4-2.91,3.39-3.99,5.33-.78,1.4-1.17,2.98-1.75,4.48" style="fill:none; stroke:#55a; stroke-linecap:round; stroke-linejoin:round; stroke-width:2px;"/><path id="uuid-18c280b0-e936-4886-a7b7-fa34c54cb3a8" d="m169.79,394.53c2.73-4.74,5.52-9.37,6.31-14.26.44-2.73-1.89-5.85-4.39-7.02-2.75-1.28-6.97-.98-9.02,1.26-2.17,2.37-3.24,5.13-4.56,7.83-.46.94-1.14,2.91-1.14,2.91" style="fill:none; stroke:#55a; stroke-linecap:round; stroke-linejoin:round; stroke-width:2px;"/><path id="uuid-7e6b5e40-ebab-40da-afe2-c5210d32beaa" d="m150.22,381.12c2.06-3.74,4.97-8.01,4.11-12.23-.59-2.9-3.06-5.8-5.9-6.63-2.14-.63-5.08.04-6.43,1.8-2.92,3.81-4.45,8.11-5.76,11.75" style="fill:none; stroke:#55a; stroke-linecap:round; stroke-linejoin:round; stroke-width:2px;"/><path id="uuid-c06f7dc6-254f-46c5-8ac1-35951b722f69" d="m147.27,378.92c1.13-2.54,3.93-7.28,2.22-10.39-.69-1.26-2.69-2.02-4.03-1.51-3.21,1.22-4,6.84-4.82,9.1" style="fill:none; stroke:#55a; stroke-linecap:round; stroke-linejoin:round; stroke-width:2px;"/><path id="uuid-a8b61a07-6924-45b4-add2-80699f583d33" d="m106.95,454.86c.31-16.74-.52-33.64,1.73-50.22.98-7.28,2.85-15.13,7.7-20.65,3.44-3.91,8.55-6.55,13.83-7.29" style="fill:none; stroke:#55a; stroke-linecap:round; stroke-linejoin:round; stroke-width:2px;"/><path id="uuid-7ba7d0d5-d891-4a0e-bf13-d34ce2e286ed" d="m106.27,428.71c-3.04-5.32-5.73-11.08-6.5-17.14-.72-5.65.42-10.95,1.86-16.98" style="fill:none; stroke:#55a; stroke-linecap:round; stroke-linejoin:round; stroke-width:2px;"/><path id="uuid-ef1500d2-f7d0-456c-bf2d-e80dc2d36b7d" d="m107,419.99c-3.33-3.88-3.07-7.56-3.34-11.56-.17-2.61.8-5.66,1.16-7.75" style="fill:none; stroke:#55a; stroke-linecap:round; stroke-linejoin:round; stroke-width:2px;"/><path id="uuid-f106d077-82cd-4d0c-bc42-bf1c32e5446f" d="m107.58,405.18c-2.72-5.81-7-11.29-7.6-17.68-.34-3.64.04-7.91,2.4-10.7,1.38-1.62,3.8-2.03,5.92-2.4" style="fill:none; stroke:#55a; stroke-linecap:round; stroke-linejoin:round; stroke-width:2px;"/><path id="uuid-5b74f83e-af42-4654-966b-467908aa5c35" d="m108.6,398.65c-2.6-4.95-6.32-10.94-4.41-16.2.79-2.18,2.92-4.27,5.72-3.98" style="fill:none; stroke:#55a; stroke-linecap:round; stroke-linejoin:round; stroke-width:2px;"/><path id="uuid-173710f2-8e6d-453e-8630-d24c6c917303" d="m110.77,393.57c-2.55-3.84-4.28-7.08-2.73-10.26.5-1.03,2.36-1.2,3.16-1.36" style="fill:none; stroke:#55a; stroke-linecap:round; stroke-linejoin:round; stroke-width:2px;"/><path id="uuid-e86cd6f5-e5e5-4be7-bb04-eb4f033ee8a8" d="m115.86,382.68c-1.65-4.32-5.07-9.76-2.6-13.69,1.46-2.33,5.47-3.28,7.97-2.13,3.43,1.57,3.98,6.51,4.94,10.16" style="fill:none; stroke:#55a; stroke-linecap:round; stroke-linejoin:round; stroke-width:2px;"/><path id="uuid-c52f4658-41a4-44bd-9723-edc022cd7fc0" d="m122.54,378.47c-.69-3.66-1.56-8.72-4.56-8.02-2.12.5-.76,4.37-.38,6.52.23,1.32,1.24,2.89,1.59,3.68" style="fill:none; stroke:#55a; stroke-linecap:round; stroke-linejoin:round; stroke-width:2px;"/></g><path id="uuid-e2a4632f-5691-4a00-9236-d23647cde581" d="m29.5,305.21c7.16-.36,15.41,1.85,23.15,2.1,5.2.17,10.55.87,15.6-.39,3.24-.81,7.26-1.62,8.95-4.5,1.55-2.63,1.8-7.02-.38-9.16-2.64-2.59-8.32-2.71-11.09-.26-1.54,1.37-.71,4.11-.59,6.16-4.89.46-9.82.92-14.74.71-3.9-.17-7.7-1.4-11.6-1.57-3.1-.13-6.4.23-9.3.45v6.46Z" style="fill:#ff5; stroke:#55a; stroke-linecap:round; stroke-linejoin:round; stroke-width:2px;"/><g id="uuid-4739d6ea-84a7-4b90-976a-4419df424d37"><path id="uuid-24cb833d-a15f-479d-a4be-2a73cd64cb58" d="m66.08,287.87c-.43,1.89-1.33,3.68-2.39,5.31-.77,1.19-1.57,2.52-2.83,3.18-1.45.76-3.24.46-4.87.62-2.53.25-5.14,1.16-7.61.53-.85-.22-1.37-1.19-2.21-1.42-1.77-.47-3.71.7-5.48.27-.8-.19-1.66-.56-2.12-1.24-.33-.49-.27-1.77-.27-1.77,0,0-2.64.71-3.72.09-.85-.49-1.27-1.6-1.42-2.57-.2-1.31.28-2.67.8-3.89.45-1.05,1.13-2.03,1.95-2.83.38-.37,1.33-.88,1.33-.88,0,0-2.71,1.36-3.98.88-.83-.31-1.42-1.26-1.59-2.12-.18-.93.38-1.86.71-2.74.47-1.26.82-2.68,1.77-3.63,1-1,3.8-1.86,3.8-1.86,0,0-2.72.92-3.89.35-.77-.37-1.25-1.29-1.42-2.12-.22-1.15.15-2.42.71-3.45.42-.77,1.1-1.42,1.86-1.86.61-.35,2.03-.53,2.03-.53,0,0-2.66-.81-2.83-1.95-.19-1.27,1.25-2.41,2.39-3.01,2.33-1.22,5.31.08,7.87-.53,1.46-.35,2.69-1.41,4.16-1.77,2.24-.55,4.65-1.05,6.9-.53,1.7.39,3.26,1.44,4.51,2.65,1.47,1.43,2.38,3.37,3.27,5.22.92,1.89,1.69,3.87,2.12,5.93.59,2.81.55,5.71.62,8.58.03,1.33-.05,2.65-.09,3.98-.03,1.03.14,2.09-.09,3.1h0Z" style="fill:#fff; stroke:#55a; stroke-linecap:round; stroke-linejoin:round; stroke-width:2px;"/><path id="uuid-01348e41-b368-4ddb-9bb9-7748b12e5f95" d="m38.84,292.65c1.54-2.24,3.98-4.12,6.81-4.06,1.92-.37,3.86.73,5.67.24,1.25-.81,2.4-1.64,3.75-2.14,1.22-.46,2.51-.82,3.85-.76" style="fill:#fff; stroke:#55a; stroke-linecap:round; stroke-linejoin:round; stroke-width:2px;"/><path id="uuid-337dc94b-c45d-40b9-a821-9217991f2743" d="m37.42,283.01c3.16-1.83,7.73-3.61,11.4-3.97,1.6-.02,3.8-.11,4.59,1.62.68,1.37.14,3.15-1.27,3.81-2.37,1.38-6.82,3.73-9.41,4.65" style="fill:#fff; stroke:#55a; stroke-linecap:round; stroke-linejoin:round; stroke-width:2px;"/><path id="uuid-c3bd1b19-3496-4b07-946c-caf88c30b7d5" d="m50.07,285.49c-1.58-.02-4.29-1.36-4.52-3.17-.22-.63-.24-1.3-.26-1.96" style="fill:#fff; stroke:#55a; stroke-linecap:round; stroke-linejoin:round; stroke-width:2px;"/><path id="uuid-fa0d2c8f-5387-4417-afa4-ab9fb07d16fa" d="m37.78,273.99c4.03-.76,9.33-2.15,13.44-1.51,1.41.48,3.34.95,3.81,2.57.11,1.57-1.31,2.87-2.64,3.45-.52.15-3.36.31-3.91.35" style="fill:#fff; stroke:#55a; stroke-linecap:round; stroke-linejoin:round; stroke-width:2px;"/><path id="uuid-522a4a4c-a4bb-4683-9aa2-750ce7f0ff9d" d="m47.68,278.23c-1.59-.77-2.08-2.55-1.58-4.17.05-.26.1-.53.16-.79" style="fill:#fff; stroke:#55a; stroke-linecap:round; stroke-linejoin:round; stroke-width:2px;"/><path id="uuid-c466ad91-e782-4328-9966-b5abbc48ec08" d="m47.51,295.92c-.41-1.33-1.05-3.12-2.72-3.12-1.98-.11-3.86.61-5.59,1.52" style="fill:#fff; stroke:#55a; stroke-linecap:round; stroke-linejoin:round; stroke-width:2px;"/><path id="uuid-353f6d04-57f9-486c-a30f-4305eb2ad6d8" d="m50.34,272.22c1.35-.52,4.1-1.52,2.98-3.37-1.72-2.19-4.72-2.41-7.29-2.71-2.47-.07-4.93.49-7.4.13-.55-.04-1.1-.09-1.65-.15" style="fill:#fff; stroke:#55a; stroke-linecap:round; stroke-linejoin:round; stroke-width:2px;"/><path id="uuid-def09279-9424-4853-84cf-1457cf556c16" d="m46.27,266.11c1.95-.69,3.85-2.67,2.51-3.92-.69-.88-2.53-1.47-3.57-1.65" style="fill:#fff; stroke:#55a; stroke-linecap:round; stroke-linejoin:round; stroke-width:2px;"/><path id="uuid-3f7ca342-3626-45ec-956b-5e960e772d12" d="m46.71,271.95c-1.09-.84-1.57-1.81-1.61-2.92-.03-.87.87-1.99,1.08-2.39" style="fill:#fff; stroke:#55a; stroke-linecap:round; stroke-linejoin:round; stroke-width:2px;"/><path id="uuid-e6ed2c76-5a67-4e9b-8c79-05ec8b26d343" d="m43.88,265.67c-1.14-.74-2.47-2.03-1.62-3.49.16-.41.34-.81.56-1.2" style="fill:#fff; stroke:#55a; stroke-linecap:round; stroke-linejoin:round; stroke-width:2px;"/></g><g id="uuid-1e43f8f1-29b9-4953-abe3-87d03024f0c2"><path id="uuid-8fc10d87-b4ef-40ed-bfe6-e0e3edc9252f" d="m73.48,375.02c8.83-8.53,17.31-17.83,24.39-27.98,6.6-9.48,11.68-19.96,16.63-30.4-8.25-4.12-16.5-8.25-24.75-12.37-3.94,9.1-8.38,18.04-13.88,26.28-3.88,5.81-8.43,11.36-13.36,16.14-.12,6.72.12,14.14,0,20.85,3.54,2.59,7.44,4.89,10.98,7.48h0Z" style="fill:#ff5; stroke:#000; stroke-linecap:round; stroke-linejoin:round; stroke-width:2px;"/><path id="uuid-4a35e8f7-2d75-43ef-8866-cc4d1ad675e4" d="m69.77,370.72c7.62-7.18,9.93-8.74,14.2-13.75,5.74-6.74,10.69-14.16,15.2-21.79,3.84-6.5,8.56-17.6,10.02-20.31" style="fill:none; stroke:#000; stroke-linecap:round; stroke-linejoin:round; stroke-width:2px;"/><path id="uuid-aabf098a-b6fb-4cc8-9916-60e880336967" d="m63.01,354.9c5.37-5.19,10.96-11.34,15.69-17.62,3.48-4.62,6.59-9.54,9.26-14.66,2.54-4.87,4.62-9.98,6.38-15.17" style="fill:none; stroke:#000; stroke-linecap:round; stroke-linejoin:round; stroke-width:2px;"/><path id="uuid-5871c96e-191c-4434-8d8d-1706c465dc95" d="m72.05,368.02l-1.19-10.78-7.64.05" style="fill:none; stroke:#000; stroke-linecap:round; stroke-linejoin:round; stroke-width:2px;"/><path id="uuid-575d997c-6131-40ee-a22a-0f2c9ae3f850" d="m81.25,358.71l-.71-12.02-9.7,1.01" style="fill:none; stroke:#000; stroke-linecap:round; stroke-linejoin:round; stroke-width:2px;"/><path id="uuid-0ea31523-61f7-4f30-8885-20498f40a009" d="m90.09,348.62l-1.06-13.95-9.55,1.77" style="fill:none; stroke:#000; stroke-linecap:round; stroke-linejoin:round; stroke-width:2px;"/><path id="uuid-cbbb9785-e3e7-44ee-b466-cb4e9ac8c1f1" d="m97.87,336.32l-1.77-12.61-9.53,1.98" style="fill:none; stroke:#000; stroke-linecap:round; stroke-linejoin:round; stroke-width:2px;"/><path id="uuid-8351d624-1f9e-43ec-8d08-538f655a1864" d="m104.63,324.61l-3.22-12.57-9.93,4.23" style="fill:none; stroke:#000; stroke-linecap:round; stroke-linejoin:round; stroke-width:2px;"/></g><path id="uuid-8e62a3cf-b1cc-48e0-93d1-d254cfd6d94b" d="m99.79,391.3l-19.57-11.82-17.01-11.42" style="fill:none; stroke:#55a; stroke-linecap:round; stroke-linejoin:round; stroke-width:2px;"/><g id="uuid-3a45383f-cf31-4557-8a8b-3660b2da4cd8"><path id="uuid-7ed004b2-fc26-4d5d-a482-8666361913ec" d="m62.5,308.5v152l-14.5,13-12.5-13v-154.5" style="fill:none; stroke:#55a; stroke-linecap:round; stroke-linejoin:round; stroke-width:2px;"/><path id="uuid-133f0a51-60f8-4c34-a03a-11a7b9f21f94" d="m49,448.5s-2.01-12.68-1.7-19.04c.33-6.59,2.85-12.91,3.7-19.46.75-5.75,1.72-11.58,1.22-17.36-.56-6.55-3.73-12.64-4.72-19.14-.83-5.45-1.32-11-1-16.5.38-6.5,2.79-12.75,3.46-19.22.63-6.06,1.28-12.23.54-18.28-.53-4.29-3.5-12.5-3.5-12.5" style="fill:none; stroke:#55a; stroke-linecap:round; stroke-linejoin:round; stroke-width:2px;"/><path id="uuid-38b69574-ea20-4711-a83e-bbeb69893bf7" d="m41.13,249.37c0-4.05,3.21-7.34,7.16-7.34s7.16,3.28,7.16,7.34-3.21,7.34-7.16,7.34-7.16-3.28-7.16-7.34Z" style="fill:#ff5; stroke:#55a; stroke-linecap:round; stroke-linejoin:round; stroke-width:2px;"/><path id="uuid-beb5618e-8003-434c-96b3-cb19dc942deb" d="m54.47,252.62c.34-3.83-1.16-4.9-3.02-6.29-1.02-.76-2.5-.7-3.76-.6-1,.08-2.03.37-2.85.95-.62.44-1.26,1.25-1.39,1.79" style="fill:#ff5; stroke:#55a; stroke-linecap:round; stroke-linejoin:round; stroke-width:2px;"/></g><path id="uuid-2dec99be-da15-4af9-94d2-55895934941d" d="m137.68,363.16s3.04-3.7,5.11-4.77c.84-.43,2.78-.56,2.78-.56,0,0,3.92-8.82,5.56-13.35,2.2-6.08,4.06-12.29,5.75-18.54,1.64-6.06,3.23-12.16,4.26-18.35.8-4.78,1.48-14.46,1.48-14.46l-17.61.19s-1.15,6.81-1.85,10.2c-.77,3.67-1.55,7.34-2.6,10.94-1.27,4.39-2.77,8.72-4.45,12.98-1.77,4.47-3.78,8.86-5.93,13.16-2.24,4.48-4.63,8.88-7.23,13.16-1.5,2.48-4.82,7.23-4.82,7.23l5.19,1.85s5.6-8.36,7.97-12.79c2.89-5.39,5.32-11.01,7.6-16.68,2.51-6.26,4.78-12.62,6.67-19.09,1.5-5.12,3.71-15.57,3.71-15.57l7.6.19s-2.15,14.03-3.71,20.95c-1.28,5.69-2.87,11.31-4.63,16.87-1.43,4.51-3.03,8.97-4.82,13.35-1.83,4.45-6.04,13.11-6.04,13.11h0Z" style="fill:#ff5; stroke:#55a; stroke-linecap:round; stroke-linejoin:round; stroke-width:2px;"/><path id="uuid-c376d6ee-b73f-4d23-ad90-b14b09838a9f" d="m179.47,350.55s1.83,5.53.18,7.35c-2.14,2.37-7.12,2.8-9.55.73-2.11-1.79-.73-8.27-.73-8.27,0,0-5.36,1.31-6.98-.37-1.96-2.02-2.04-6.33-.18-8.45,1.5-1.71,6.8-.73,6.8-.73,0,0-.34-5.26,1.47-6.61,2.12-1.58,5.88-1.14,7.9.55,1.74,1.46,1.65,6.61,1.65,6.61,0,0,5.89-1.54,7.53.37,1.92,2.24,1.28,6.84-.92,8.82-1.77,1.6-7.16,0-7.16,0Z" style="fill:#ff5; stroke:#000; stroke-linecap:round; stroke-linejoin:round;"/><path id="uuid-2595f3ab-b6a0-4272-b5b6-c4a4341a7b11" d="m170.11,345.5c0-2.28,1.85-4.13,4.13-4.13s4.13,1.85,4.13,4.13-1.85,4.13-4.13,4.13-4.13-1.85-4.13-4.13Z" style="fill:#f55; stroke:#000; stroke-linecap:round; stroke-linejoin:round; stroke-width:2px;"/><path id="uuid-b4010cf3-5dc1-44fd-8e69-39d47bf5d7e9" d="m243.53,383.64c-7.75-12.38-15.1-25.13-20.55-38.67-4.06-10.1-6.6-20.78-8.92-31.41-1.43-6.56-2.11-13.25-3.06-19.89-7.54-.06-15.08-.12-22.63-.18.86,11.36,1.18,20.1,2.97,29.98,2.34,12.84,5.53,25.61,10.11,37.83,2.86,7.64,6.68,14.44,10.78,21.99.68-2.75,3.94-2.68,4.46-4.31-5.95-11.38-11.38-23.15-14.83-35.5-4.05-14.5-6.84-35.04-6.72-44.65,2.81.05,8.27.27,11.07.32,2.32,14.8,4.57,28.02,8.99,41.45,2.69,8.15,6.7,15.82,10.57,23.48,2.67,5.29,6.48,11.32,8.72,15.5,3.11,1.16,5.19,1.75,6.16,3.99.48.03,2.37.05,2.85.08h0Z" style="fill:#ff5; stroke:#55a; stroke-linecap:round; stroke-linejoin:round; stroke-width:2px;"/><path id="uuid-f2659e43-9f59-4b6d-be1b-26030b00d39c" d="m199.73,367.83c.2,2.03.79,4.54-.51,6.12-1.72,2.08-5.17,2.77-7.81,2.17-2.56-.59-4.43-3.05-5.92-5.21-1.19-1.73-1.64-3.88-2.2-5.91-.9,1.02-2.18,1.9-3.53,2.06-1.33.16-2.62-.63-3.85-1.16,2.16-1.78,4.37-3.78,5.44-6.36,1.03-2.5.85-5.39.62-8.08,1.82,4.32,3.59,8.73,6.17,12.64,1.32,1.99,2.44,4.63,4.7,5.41,1.52.52,3.17-.5,4.72-.91.74-.2,1.45-.48,2.17-.75h0Z" style="fill:#ff5; stroke:#000; stroke-linecap:round; stroke-linejoin:round;"/><path id="uuid-29ffa9d6-8b82-4219-a98a-b97d9f485ffe" d="m168.11,353s-2.34,4.39-4.42,5.48c-1.47.77-3.44,1.02-4.95.35-1.65-.73-3.36-4.24-3.36-4.24,0,0,2.03-2.83,3.54-2.83,1.21,0,1.65,1.99,2.83,2.3,2.08.55,6.36-1.06,6.36-1.06h0Z" style="fill:#ff5; stroke:#000; stroke-linecap:round; stroke-linejoin:round;"/><path id="uuid-b22e9a59-3fce-47dc-a7b9-c7bfe22f821e" d="m167.93,340.73c-1.6-1.47-3.42-2.8-4.25-4.75-.77-1.82-1.19-4.09-.44-5.91.71-1.71,2.38-3.39,4.22-3.64,1.17-.16,2.22.86,3.19,1.51.4.27,1.08.68,1.07.97-1.22.27-2.61.79-3.4,1.79-1.05,1.32-1.21,3.22-1.28,4.91-.07,1.73.46,3.38.89,5.12h0Z" style="fill:#ff5; stroke:#000; stroke-linecap:round; stroke-linejoin:round;"/><path id="uuid-ed46c797-cdb0-44f0-861e-97a31e194f55" d="m180.9,339.67c0-.3,3.91-3.29,4.69-5.59.67-1.99.84-4.52-.3-6.28-.95-1.46-2.96-1.95-4.65-2.34-1.29-.3-2.66-.05-3.98.07.16,1.32.46,2.69,1.13,3.84.68,1.16,2.27,1.65,2.8,2.89.98,2.27.69,4.98.31,7.41Z" style="fill:#ff5; stroke:#000; stroke-linecap:round; stroke-linejoin:round;"/><path id="uuid-5a1753c5-b09e-48c6-b0e0-66784d086402" d="m177.78,314.51c2.2-.32,4.49-1.52,5.76-3.34,1.57-2.24,1.55-5.36,1.42-8.09-.12-2.41-2.24-4.59-1.92-6.98.26-1.98,3.03-5.16,3.03-5.16l-2.53-2.22s-2.71,1.99-3.44,3.44c-1.08,2.16-1.05,4.76-1.01,7.18.02,1.61,1.14,3.18.81,4.75-.31,1.5-1.02,3.59-2.53,3.84-1.14.19-2.13-1.14-2.73-2.12-.83-1.35-.87-3.07-.91-4.65-.06-2.55,1.74-5.11,1.11-7.58-.4-1.59-1.61-2.97-2.93-3.94-.49-.36-1.72-.61-1.72-.61l-1.82,3.03s1.88.93,2.22,1.82c.91,2.35-1.01,4.96-1.11,7.48-.09,2.4-.18,4.88.51,7.18.51,1.74,1.19,3.66,2.63,4.75,1.41,1.07,3.41,1.47,5.16,1.21h0Z" style="fill:#ff5;"/><path id="uuid-9d6f39af-ba9b-4abe-ad6f-965bbc9d2206" d="m274.82,375.86c-12.29-16.27-22.65-34.4-28.87-53.77-5.44-16.96-6.23-35.2-6.84-53-.28-8.09.34-16.22,1.45-24.24.41-2.92,1.22-5.77,1.9-8.64" style="fill:none; stroke:#55a; stroke-linecap:round; stroke-linejoin:round; stroke-width:2px;"/><g id="uuid-367809cd-1a58-4e54-a1cd-ce3b704d5501"><path id="uuid-f8276770-7dd1-4af1-a654-ff70224cf00e" d="m321.75,349.3c-14.39-10.79-27.77-23.36-38.08-38.04-7.36-10.47-12.66-22.48-16.32-34.74-2.96-9.93-4.75-21.71-4.35-30.77,8.75,4.08,17.5,8.17,26.25,12.25,1.03,8.76,3.02,17.55,6.77,25.5,5.06,10.75,12.26,20.67,20.74,29,3.68,3.61,8.03,6.6,12.74,8.75v22c-2.58,2.02-5.17,4.03-7.75,6.05Z" style="fill:#ff5; stroke:#000; stroke-linecap:round; stroke-linejoin:round; stroke-width:2px;"/><path id="uuid-ab19a944-6d00-443a-a615-a4c128c49289" d="m324.75,345.5c-9.14-5.7-17.31-12.33-24.5-20.06-8.75-9.4-16.37-20.05-22.2-31.49-4.82-9.47-8.27-19.74-10.26-30.17-.99-5.17-1.08-10.5-.79-15.78" style="fill:none; stroke:#000; stroke-linecap:round; stroke-linejoin:round; stroke-width:2px;"/><path id="uuid-f1e134a6-9902-4f27-ae17-c95b2ae7b2ea" d="m328.75,326c-6.02-3.65-11.61-8.04-16.59-13-6.24-6.22-11.86-13.19-16.37-20.77-3.63-6.1-6.41-12.75-8.42-19.55-1.62-5.49-3.28-12.79-2.87-16.93" style="fill:none; stroke:#000; stroke-linecap:round; stroke-linejoin:round; stroke-width:2px;"/><path id="uuid-d5fe3182-3e35-4f2c-831b-f2b60909990b" d="m279.25,253.75l.25,4.5-4-.25v-3.5l-4.25-1,1,9.25,7.5-.75,2.25,8.5-3.25,1-1.5-4.5-4,1,2.5,8.25,7.5-2.5,4,8.5-4.25,1.5-1.75-3.75-4,1.25,3.5,8.75,7.5-3.75,4.25,8-3.75,2.75-2-4.25-4.25,2,4.75,7.75,7-4.25,5,6.75-3.75,2.75-1.75-2.75-3.25,2,4.75,7,7.25-5.75,5.5,6.5-3.5,3.5-3.25-3.75-2.5,2.5,6.25,7.25,6.5-6,6.25,6-3,3.75-4-4-2.25,3.5,6.75,6,6.5-6.5,6.82,5.25-3.57,3.5-3.25-2.5-3,2.75,7,4.75,3.25-3.5" style="fill:none; stroke:#000; stroke-linecap:round; stroke-linejoin:round; stroke-width:2px;"/></g><path id="uuid-622a1641-fa7b-4740-9366-dc0245a99727" d="m270.68,377.98c-12.44-16.67-22.78-35.25-29.15-55-5.17-16-6.38-33.16-6.91-49.97-.31-9.88.8-19.79,2.22-29.57.46-3.16,1.26-6.25,2.02-9.36" style="fill:none; stroke:#55a; stroke-linecap:round; stroke-linejoin:round; stroke-width:2px;"/><g id="uuid-af7ed0cc-ece9-42a4-aca5-496582ad1440"><path id="uuid-5e8f7fbf-0993-4902-8eb6-3f3f0b84d336" d="m274.12,373.38s4.05-8.85,5.66-13.44c1.64-4.68,3.27-9.42,4.07-14.32.82-5.01,1.01-10.14.71-15.2-.23-3.94-1.01-7.84-1.94-11.67-.86-3.55-1.85-7.1-3.36-10.43-2.04-4.5-4.77-8.68-7.6-12.73-2.95-4.23-6.05-8.41-9.72-12.02-2.93-2.88-6.29-5.33-9.72-7.6-3.87-2.56-12.2-6.72-12.2-6.72" style="fill:none; stroke:#55a; stroke-linecap:round; stroke-linejoin:round; stroke-width:2px;"/><path id="uuid-e127504f-9cca-4568-9036-a7a51870c4a0" d="m257.32,347.93c.85-8.23,1.42-16.8-.62-24.82-1.37-5.39-4.31-10.38-7.61-14.86-2.17-2.95-5.05-5.35-7.86-7.7,0,0,3.08,16.34,5.74,24.19,2.71,8.02,10.35,23.19,10.35,23.19h0Z" style="fill:#55a; stroke:#55a; stroke-linecap:round; stroke-linejoin:round; stroke-width:2px;"/><path id="uuid-6245d4fe-a9df-41fa-a841-80a630913ffa" d="m270.4,368.79s3.41-.03,4.6-1.06c1.38-1.2,2.01-3.3,1.94-5.13-.07-1.82-1.13-3.56-2.3-4.95-1.66-1.98-4.07-3.23-6.36-4.42-1.84-.95-5.83-2.12-5.83-2.12" style="fill:none; stroke:#55a; stroke-linecap:round; stroke-linejoin:round; stroke-width:2px;"/><path id="uuid-a992e25d-0f7d-4efb-b345-9974a1d3d249" d="m264.57,336.26s4.84.16,7.25.35c2.07.17,4.3-.15,6.19.71,1.75.8,3.37,2.18,4.24,3.89.72,1.43.86,3.21.53,4.77-.49,2.27-1.65,4.65-3.54,6.01-1.56,1.13-3.73,1.23-5.66,1.24-3.79.02-11.14-2.3-11.14-2.3" style="fill:none; stroke:#55a; stroke-linecap:round; stroke-linejoin:round; stroke-width:2px;"/><path id="uuid-2ec438b2-e316-4d26-b819-ace50a88d1ec" d="m263.51,348.19s5.79,1.86,8.66,1.33c1.38-.25,2.96-.82,3.71-2.09.7-1.18.66-2.88.18-4.17-.61-1.62-2.03-2.96-3.54-3.61-2.57-1.1-8.31,0-8.31,0l-.71,8.54Z" style="fill:#55a;"/><path id="uuid-3e7f9368-6e86-4828-8e10-859343839509" d="m262.32,322.21s4.64-1.34,6.99-1.91c2.02-.48,4.03-1.47,6.1-1.25,1.91.2,3.89.99,5.25,2.31,1.14,1.1,1.83,2.72,2,4.28.25,2.26-.11,4.83-1.47,6.68-1.13,1.54-3.15,2.29-4.98,2.9-3.59,1.19-11.29,1.3-11.29,1.3" style="fill:none; stroke:#55a; stroke-linecap:round; stroke-linejoin:round; stroke-width:2px;"/><path id="uuid-b18ec667-f521-4475-b2cc-a54f0ad2b9dd" d="m264.16,332.89s6.52.07,9.32-1.34c1.23-.62,2.57-1.63,2.91-2.95.32-1.23-.22-2.7-1.06-3.67-1.05-1.22-2.79-1.94-4.41-2.04-2.76-.16-7.89,2.56-7.89,2.56l1.12,7.44Z" style="fill:#55a;"/><path id="uuid-cae9a76e-c6d6-43bf-810f-25e5dde4f81f" d="m256.52,308.53s4.19-2.41,6.34-3.51c1.85-.94,3.57-2.38,5.63-2.66,1.9-.25,4.01.04,5.65,1,1.37.8,2.42,2.21,2.96,3.68.78,2.14,1.04,4.72.16,6.84-.73,1.76-2.52,2.97-4.15,3.99-3.21,2.01-10.67,3.93-10.67,3.93" style="fill:none; stroke:#55a; stroke-linecap:round; stroke-linejoin:round; stroke-width:2px;"/><path id="uuid-f7f17bee-c280-4350-bfc5-95e3945dbb4d" d="m261.74,318.64s5.56-1.5,7.65-3.34c1.04-.91,2.11-2.19,2.13-3.56.02-1.27-.85-2.57-1.89-3.32-1.31-.93-3.17-1.22-4.77-.93-2.72.5-7.06,4.36-7.06,4.36l3.94,6.79Z" style="fill:#55a;"/><path id="uuid-2cd6c66e-4185-4195-b433-85ddc848e449" d="m247.35,297.58s3.33-3.51,5.07-5.18c1.5-1.43,2.74-3.3,4.63-4.16,1.75-.79,3.85-1.11,5.7-.66,1.54.38,2.95,1.42,3.89,2.68,1.36,1.83,2.35,4.23,2.11,6.51-.2,1.89-1.56,3.57-2.84,5.02-2.5,2.84-9.09,6.82-9.09,6.82" style="fill:none; stroke:#55a; stroke-linecap:round; stroke-linejoin:round; stroke-width:2px;"/><path id="uuid-04ca4ec4-e060-4e68-94c6-dff2f9811d9b" d="m255.04,305.66s5.12-3.2,6.66-5.66c.74-1.18,1.4-2.7,1.02-4.02-.35-1.22-1.55-2.22-2.77-2.64-1.52-.52-3.39-.26-4.84.47-2.47,1.26-5.51,6.2-5.51,6.2l5.43,5.65Z" style="fill:#55a;"/><path id="uuid-1c5c9528-e22a-496a-8fc7-a540999ff496" d="m261.28,354.79c2.09.58,4.43.96,6.08,2.38,1.78,1.53,3.47,3.74,3.54,6.09.02.75-.46,1.51-1.02,2.02-.49.44-1.3.77-1.85.7-2.25-3.72-4.51-7.45-6.74-11.18Z" style="fill:#55a; stroke:#55a; stroke-linecap:round; stroke-linejoin:round; stroke-width:2px;"/><path id="uuid-c9723945-4d55-43f6-9096-5709549d5edd" d="m247.87,297.37c2.64-2.36,5.87-5.82,7.14-9.6.79-2.34.94-5.1.06-7.41-.73-1.91-2.27-3.62-4.13-4.54-1.88-.93-4.33-1.3-6.32-.6-2.16.76-3.47,2.96-4.79,4.74" style="fill:none; stroke:#55a; stroke-linecap:round; stroke-linejoin:round; stroke-width:2px;"/><path id="uuid-47863736-a3f8-4a9f-bd63-d09efaffb38b" d="m244.37,295.87s4.63-5.02,5.54-8.19c.38-1.33.64-3-.14-4.15-.98-1.45-3.08-2.31-4.82-2.12-1.92.21-3.7,2.13-4.69,3.41-.34,3.76.36,8.2.36,8.2l3.74,2.85Z" style="fill:#55a;"/></g><g id="uuid-6a2aecc6-5c1b-41c7-9246-3952ba1b7518"><path id="uuid-8dc805cf-0ce7-4423-ae56-258589d9b8e9" d="m136.43,441.95s.12,2.7-.26,3.96c-.21.68-1.06,1.85-1.06,1.85,0,0,4.34-1.58,6.61-1.59,2.35-.01,4.55,1.22,6.87,1.59,2.8.44,5.64.96,8.46.74,3.17-.25,6.39-.94,9.25-2.32,1.3-.63,3.44-2.64,3.44-2.64,0,0-5.86,2.74-8.99,3.44-2.41.54-4.93.72-7.4.53-2.34-.18-4.53-1.39-6.87-1.59-2.82-.23-5.69-.06-8.46.53-.75.16-2.16.8-2.16.8,0,0,.68-1.7.78-2.59.1-.9-.2-1.64-.2-2.7Z" style="fill:none; stroke:#55a; stroke-linecap:round; stroke-linejoin:round; stroke-width:2px;"/><path id="uuid-45f6003d-8074-4c3b-a526-42759589d224" d="m139.26,438.88s1.59-.55,2.37-.38c1.89.42,3,2.55,4.81,3.24,1.48.57,3.13.62,4.72.67,1.78.06,3.61.05,5.33-.4,2.33-.62,4.48-1.85,6.55-3.1,1.78-1.08,3.22-2.68,4.99-3.78.68-.42,2.16-1.08,2.16-1.08,0,0-3.85-.36-5.74-.07-3.07.48-5.79,2.35-8.84,2.97-1.68.34-3.41.4-5.13.4-1.63,0-3.26-.19-4.89-.37-.61-.07-1.21-.36-1.82-.27-1.65.25-4.52,2.15-4.52,2.15Z" style="fill:none; stroke:#55a; stroke-linecap:round; stroke-linejoin:round; stroke-width:2px;"/><path id="uuid-8e03cdf8-cee2-453a-94f1-2aaa47eee8ba" d="m163.11,433.58s-3.19-3.04-5.2-3.78c-1.44-.53-3.06-.36-4.59-.34-2.31.04-4.71-.02-6.88.74-1.31.46-2.4,1.4-3.51,2.23-.79.59-2.24,1.93-2.24,1.93,0,0,2.77,1.23,4.2,1.72,1.44.49,2.88,1.06,4.39,1.21,2.2.22,4.47.07,6.61-.47,2.56-.64,7.22-3.24,7.22-3.24h0Z" style="fill:none; stroke:#55a; stroke-linecap:round; stroke-linejoin:round; stroke-width:2px;"/><path id="uuid-c2707d63-201b-4d7a-b087-14b5e8172f28" d="m146.04,433.44c0-2.01,2.42-3.64,5.4-3.64s5.4,1.63,5.4,3.64-2.42,3.64-5.4,3.64-5.4-1.63-5.4-3.64Z" style="fill:none; stroke:#55a; stroke-linecap:round; stroke-linejoin:round; stroke-width:2.08px;"/><path id="uuid-66186362-eb5a-4c91-895f-26fef2a914c8" d="m149.14,434.29c0-.84.88-1.52,1.96-1.52s1.96.68,1.96,1.52-.88,1.52-1.96,1.52-1.96-.68-1.96-1.52Z" style="fill:#55a; stroke:#55a; stroke-linecap:round; stroke-linejoin:round; stroke-width:2px;"/><path id="uuid-7a40282e-1047-4f2a-a28a-6c19ebad0388" d="m104.75,440.38s1.72,1.28,2.75,3.25c.94,1.79,2.95,2.99,4.88,3.62,1.58.52,3.34.13,5,0,1.89-.15,3.73-.96,5.62-.88,1.03.05,2,.49,3,.75.46.12,1.38.38,1.38.38l-1-5.58.38,4.96s-2.45-1.02-3.75-1.25c-1.68-.29-3.42-.16-5.12-.12-2.05.04-4.17.98-6.12.38-2.83-.88-7-5.5-7-5.5Z" style="fill:#55a; stroke:#55a; stroke-linecap:round; stroke-linejoin:round; stroke-width:2px;"/><path id="uuid-fc280f10-9a86-404a-bb42-71a46f136a0a" d="m127.29,440.71c-.01-2.15-.04-4.88-.44-7.28-.43-2.61-1.54-5.07-2.11-7.66-.49-2.23-.66-4.52-1.09-6.76-.2-1.01-.67-1.98-.69-3.01-.03-1.06-.06-2.26.54-3.13,1.2-1.73,3.81-1.88,5.45-3.2.73-.59,1.31-1.33,1.92-2.05" style="fill:none; stroke:#55a; stroke-linecap:round; stroke-linejoin:round; stroke-width:2px;"/><path id="uuid-c855b336-aa81-41f8-8445-49f6fac53cdb" d="m140.12,417.75c1.26.46,2.45-.8,3.11-1.81.48-.74.51-1.79.28-2.64-.34-1.23-1.15-2.48-2.28-3.07-1.29-.67-2.99-.6-4.37-.12-1.04.36-1.57,1.58-2.53,2.11-1.21.67-2.62.94-3.96,1.29" style="fill:none; stroke:#55a; stroke-linecap:round; stroke-linejoin:round; stroke-width:2px;"/><path id="uuid-d88646ef-8c8d-4160-be5d-ac4b54648886" d="m150.62,408.88s2.75.86,4.12.62c.7-.12,1.44-.44,1.88-1,.74-.95.99-2.3.88-3.5-.12-1.28-.6-2.72-1.62-3.5-1.61-1.23-3.99-1.25-6-1-1.94.25-3.61,1.52-5.38,2.38-1.19.58-2.27,1.39-3.5,1.88-1.36.54-2.78,1.11-4.25,1.12-.9.01-2.36.23-2.62-.62-.2-.65.76-1.22,1.38-1.5,1.67-.76,3.7.22,5.5-.12,1.97-.38,3.71-1.55,5.62-2.12,1.8-.54,3.63-1.43,5.5-1.25,1.54.15,3.16.78,4.25,1.88.74.74,1.18,1.83,1.25,2.88.07,1.08-.19,2.29-.88,3.12-.86,1.06-2.27,1.84-3.62,1.88-.91.02-2.5-1.12-2.5-1.12Z" style="fill:#55a; stroke:#55a; stroke-linecap:round; stroke-linejoin:round; stroke-width:2px;"/><path id="uuid-405a5bd8-dd02-4f9b-bd61-5c5949653f49" d="m115.62,410.25s-2.31-.92-3-1.88c-.61-.83-.75-1.97-.75-3,0-1.41.07-3.06,1-4.12.59-.68,1.6-.94,2.5-1,1.33-.09,2.63.53,3.88,1,1.31.49,2.47,1.31,3.75,1.88,1.18.52,2.34,1.27,3.62,1.38.81.06,1.75-1.01,2.38-.5.26.21.16.71,0,1-.33.61-1.06,1.06-1.75,1.12-1.02.1-1.94-.7-2.88-1.12-1.32-.6-2.58-1.35-3.88-2-1.37-.68-2.61-1.82-4.12-2-1.18-.14-2.66-.09-3.5.75-.99.99-1.01,2.73-.88,4.12.11,1.17.57,2.39,1.38,3.25.57.61,2.25,1.12,2.25,1.12Z" style="fill:#55a; stroke:#55a; stroke-linecap:round; stroke-linejoin:round; stroke-width:2px;"/><path id="uuid-4942dc4a-d087-4fd7-a093-eef376b8c2b9" d="m144.5,396.25s-2.66.76-4,1.12c-1.25.34-2.46,1-3.75,1-1.43,0-2.73-.84-4.12-1.12-1.15-.24-2.35-.75-3.5-.5-.82.18-1.29,1.25-2.12,1.38-1.2.18-2.4-.49-3.5-1-.68-.32-1.88-1.25-1.88-1.25,0,0,1.86.94,2.88,1,1.32.07,2.56-.74,3.88-.88,1.66-.16,3.34-.05,5,.12,1.1.12,2.16.46,3.25.62,1.08.17,2.16.46,3.25.38,1.12-.08,2.14-.73,3.25-.88.45-.06,1.38,0,1.38,0Z" style="fill:#55a; stroke:#55a; stroke-linecap:round; stroke-linejoin:round; stroke-width:2px;"/><path id="uuid-6107e12d-0078-4b65-80a5-87d71cc028ea" d="m137.25,391.88s-2.26-1.16-3.5-1.38c-1.11-.19-2.28-.14-3.38.12-1.25.3-3.5,1.62-3.5,1.62" style="fill:none; stroke:#55a; stroke-linecap:round; stroke-linejoin:round; stroke-width:2px;"/><path id="uuid-75a4c77b-8508-4ae1-ae70-16a0c6977ec3" d="m126,437s-3.29,2.47-5.12,3.38c-1.5.74-3.08,1.51-4.75,1.62-1.52.11-3.04-.44-4.5-.88-1.16-.35-2.2-1.07-3.38-1.38-.98-.25-3-.38-3-.38" style="fill:none; stroke:#55a; stroke-linecap:round; stroke-linejoin:round; stroke-width:2px;"/><path id="uuid-91cf4ef1-a5a0-4839-b87c-0432b5ea8b0f" d="m106.67,434.96s2.89-2.51,4.59-3.34c1.21-.59,2.53-1,3.87-1.13,2-.2,4.1-.19,6.02.49,1.15.41,2.12,1.31,3.1,2.09.7.56,1.99,1.84,1.99,1.84,0,0-2.39,1.33-3.63,1.87-1.24.54-2.49,1.17-3.8,1.38-1.91.3-3.9.23-5.78-.23-2.24-.55-6.36-2.97-6.36-2.97h0Z" style="fill:none; stroke:#55a; stroke-linecap:round; stroke-linejoin:round; stroke-width:2px;"/><path id="uuid-1b892e1a-a62c-4da4-aade-24c2af9bb324" d="m121.56,434.2c-.04-2.01-2.17-3.55-4.77-3.44s-4.68,1.83-4.64,3.84,2.17,3.55,4.77,3.44,4.68-1.83,4.64-3.84Z" style="fill:none; stroke:#55a; stroke-linecap:round; stroke-linejoin:round; stroke-width:2.23px;"/><path id="uuid-d462ac1e-a8f6-4bcf-8167-8e17b7559575" d="m118.86,435.15c-.02-.84-.79-1.48-1.73-1.44s-1.69.75-1.68,1.59.79,1.48,1.73,1.44,1.69-.75,1.68-1.59Z" style="fill:#55a; stroke:#55a; stroke-linecap:round; stroke-linejoin:round; stroke-width:2.14px;"/><path id="uuid-d30bdd41-0746-4078-b4a2-93c258474063" d="m143.75,429.62l5.12-4.5" style="fill:none; stroke:#55a; stroke-linecap:round; stroke-linejoin:round; stroke-width:2px;"/><path id="uuid-086e469d-78d4-46a2-a27e-9faa80727dd1" d="m123.75,428l-5.12-3.75" style="fill:none; stroke:#55a; stroke-linecap:round; stroke-linejoin:round; stroke-width:2px;"/></g><path id="uuid-a48dde0b-5623-496c-b234-f2a246059b64" d="m135.13,274.69c-.33-.64-.86-1.3-1.85-1.42-1.79-.2-3.16,1.25-3.38,3.24-.16,1.39.25,2.37.61,3.49.38,1.2,1.03,2.3,1.63,3.4.78,1.42,2.56,4.11,2.56,4.11,0,0,2.34-2.23,3.41-3.44.83-.94,1.7-1.87,2.34-2.96.6-1.02,1.22-1.88,1.37-3.27.22-1.99-.79-3.71-2.58-3.91-.99-.11-1.66.42-2.12.97l-.18-.22q.31-.97.62-1.94c.31-.97,1.13-2.89,1.13-2.89q-2.03.17-3.97-.45s.37,2.05.46,3.07.09,1.02.17,2.03l-.22.18Z" style="fill:#fff;"/><path id="uuid-5c44cd43-0d68-4af8-a887-c2381fb1f078" d="m131.18,299.91c-.27-.67-.74-1.38-1.71-1.58-1.76-.37-3.26.96-3.67,2.92-.28,1.37.03,2.38.29,3.53.27,1.23.81,2.39,1.31,3.54.64,1.48,2.17,4.33,2.17,4.33,0,0,2.53-2.01,3.71-3.11.92-.86,1.87-1.71,2.61-2.73.69-.96,1.39-1.76,1.67-3.13.41-1.96-.44-3.77-2.21-4.13-.98-.2-1.69.26-2.2.77l-.16-.24q.4-.94.8-1.88c.4-.94,1.39-2.78,1.39-2.78q-2.04-.01-3.92-.81s.18,2.08.17,3.1q0,1.02-.01,2.04l-.24.16Z" style="fill:#fff;"/><path id="uuid-e2ab6b1b-ab6f-4418-b1d9-02fd99967e9f" d="m123.15,323.85c-.16-.7-.5-1.48-1.44-1.84-1.68-.65-3.37.42-4.09,2.28-.5,1.31-.35,2.35-.29,3.53.07,1.26.41,2.48.72,3.7.39,1.57,1.44,4.62,1.44,4.62,0,0,2.82-1.57,4.16-2.47,1.04-.7,2.12-1.38,3.01-2.27.84-.83,1.65-1.51,2.15-2.81.72-1.87.17-3.79-1.51-4.44-.93-.36-1.71-.01-2.3.4l-.11-.26,1.09-1.72c.55-.86,1.82-2.51,1.82-2.51q-2.01-.34-3.73-1.43s-.16,2.08-.33,3.09q-.17,1.01-.34,2.01l-.26.11Z" style="fill:#fff;"/><path id="uuid-6ac3c1be-08a2-4947-a992-af35bea20a7f" d="m111.21,347.29c-.05-.72-.27-1.54-1.14-2.04-1.56-.9-3.4-.11-4.4,1.62-.7,1.21-.71,2.27-.83,3.45-.13,1.25.02,2.52.14,3.77.15,1.61.71,4.79.71,4.79,0,0,3.03-1.12,4.5-1.8,1.14-.53,2.31-1.04,3.33-1.78.96-.69,1.86-1.23,2.56-2.45,1-1.73.76-3.72-.81-4.62-.87-.5-1.69-.28-2.33.04l-.07-.27q.67-.77,1.34-1.53c.67-.77,2.19-2.2,2.19-2.2q-1.93-.65-3.47-1.99s-.48,2.03-.8,3q-.33.97-.65,1.93l-.27.07Z" style="fill:#fff;"/><path id="uuid-e9ae107b-e553-43e5-a504-822a3644dfcc" d="m97.22,367.05c.08-.72.02-1.56-.75-2.21-1.37-1.17-3.32-.73-4.62.8-.91,1.07-1.11,2.1-1.44,3.24-.35,1.21-.44,2.48-.55,3.73-.15,1.61-.18,4.84-.18,4.84,0,0,3.18-.55,4.75-.95,1.22-.31,2.46-.6,3.6-1.14,1.07-.51,2.06-.88,2.97-1.94,1.3-1.52,1.42-3.52.05-4.69-.76-.65-1.61-.58-2.3-.38l-.02-.28q.8-.63,1.6-1.26c.8-.63,2.55-1.77,2.55-1.77q-1.78-.99-3.05-2.59s-.84,1.91-1.34,2.8q-.5.89-.99,1.78l-.28.02Z" style="fill:#fff;"/><path id="uuid-7866e12d-7868-4ed8-9fdc-1ff06a07ac81" d="m251.67,376.33c0,.72-.17,1.55-1.01,2.1-1.5.99-3.39.31-4.49-1.35-.77-1.17-.85-2.22-1.04-3.39-.2-1.24-.13-2.52-.09-3.77.05-1.61.41-4.82.41-4.82,0,0,3.09.93,4.6,1.52,1.17.46,2.37.9,3.43,1.57,1,.63,1.94,1.12,2.71,2.29,1.1,1.67.98,3.67-.52,4.66-.83.55-1.67.38-2.33.1l-.06.28q.72.72,1.43,1.45c.72.72,2.32,2.06,2.32,2.06q-1.89.77-3.34,2.2s-.6-2-.98-2.95q-.38-.95-.77-1.89l-.28-.06Z" style="fill:#fff;"/><path id="uuid-881ec75c-4f4a-496a-99f3-9a6af84b119d" d="m241.12,356.26c-.12.71-.43,1.5-1.34,1.91-1.65.73-3.39-.25-4.2-2.08-.57-1.28-.47-2.33-.46-3.51,0-1.26.29-2.5.54-3.74.32-1.58,1.21-4.69,1.21-4.69,0,0,2.9,1.43,4.28,2.26,1.08.65,2.19,1.28,3.12,2.12.88.79,1.72,1.43,2.29,2.71.81,1.83.36,3.78-1.29,4.5-.91.4-1.71.1-2.31-.29l-.1.26q.59.83,1.17,1.67c.59.83,1.94,2.42,1.94,2.42q-1.99.44-3.66,1.62s-.26-2.07-.48-3.07q-.22-1-.44-1.99l-.26-.1Z" style="fill:#fff;"/><path id="uuid-0e94baee-0d2c-46d1-a412-8ec95d9022d2" d="m232.14,335.66c-.16.7-.51,1.48-1.44,1.84-1.68.64-3.37-.42-4.09-2.29-.5-1.31-.35-2.35-.28-3.53.07-1.26.42-2.48.72-3.7.4-1.56,1.44-4.62,1.44-4.62,0,0,2.82,1.58,4.16,2.48,1.04.7,2.12,1.39,3.01,2.27.84.83,1.65,1.51,2.15,2.82.71,1.87.17,3.79-1.52,4.43-.93.36-1.71.01-2.3-.41l-.12.26q.54.86,1.09,1.72c.54.86,1.82,2.52,1.82,2.52q-2.01.34-3.74,1.43s-.15-2.08-.33-3.09q-.17-1.01-.34-2.01l-.26-.12Z" style="fill:#fff;"/><path id="uuid-11184e67-f9bc-41cb-b913-fc37abcbdbd6" d="m224.67,311.96c-.27.67-.73,1.38-1.71,1.59-1.76.38-3.27-.94-3.69-2.89-.29-1.37.02-2.38.27-3.53.26-1.23.79-2.39,1.29-3.55.63-1.48,2.14-4.34,2.14-4.34,0,0,2.54,1.99,3.73,3.09.92.85,1.88,1.7,2.62,2.71.7.95,1.4,1.75,1.69,3.12.42,1.96-.42,3.77-2.18,4.15-.98.21-1.69-.25-2.21-.76l-.15.24q.4.94.81,1.87c.4.94,1.41,2.77,1.41,2.77q-2.04.03-3.91.84s.17-2.08.16-3.1q-.01-1.02-.03-2.04l-.24-.15Z" style="fill:#fff;"/><path id="uuid-98c7e74b-039f-4e9b-801e-089d3045b800" d="m221.7,287.6c-.33.64-.85,1.31-1.85,1.42-1.79.21-3.16-1.24-3.4-3.23-.16-1.39.24-2.37.6-3.49.38-1.2,1.02-2.3,1.62-3.41.77-1.42,2.54-4.12,2.54-4.12,0,0,2.34,2.23,3.42,3.43.84.94,1.71,1.87,2.36,2.95.61,1.01,1.22,1.87,1.39,3.26.23,1.99-.78,3.71-2.56,3.92-.99.12-1.66-.41-2.13-.96l-.18.22q.31.97.63,1.94c.31.97,1.14,2.89,1.14,2.89q-2.03-.17-3.97.46s.37-2.06.45-3.07q.08-1.02.17-2.03l-.22-.18Z" style="fill:#fff;"/><path id="uuid-71a27059-23d3-4d9f-b738-a7501c95b567" d="m178.93,251.86s-9.43,7.64-9.43,17.64,8.87,17.83,8.87,17.83c0,0,11.13-7.83,11.13-17.83s-10.57-17.64-10.57-17.64Z" style="fill:#ff5; stroke:#000; stroke-linecap:round; stroke-linejoin:round; stroke-width:2px;"/><path id="uuid-c95fc41e-9d48-4539-991a-2f77679bc952" d="m179.6,257.91s-5.67,3.54-5.67,12.3c0,6.32,5.1,10.98,5.1,10.98,0,0,6.61-5.23,6.61-11.55s-6.04-11.74-6.04-11.74h0Z" style="fill:#ff5; stroke:#000; stroke-linecap:round; stroke-linejoin:round; stroke-width:2px;"/><path id="uuid-541f50d8-660e-4ff8-97a0-f727812b1ec9" d="m179.6,263.55s-2.08,4.04-2.08,6.48,2.08,5.72,2.08,5.72c0,0,2.46-4.23,2.46-6.66s-2.46-5.53-2.46-5.53Z" style="fill:#ff5; stroke:#000; stroke-linecap:round; stroke-linejoin:round; stroke-width:2px;"/><path id="uuid-cd21dbf7-ca1d-45c8-b025-28e4e46a25e9" d="m147.5,259.5v20h20s-3-5-3-10,3-10,3-10h-20Z" style="fill:#f55;"/><path id="uuid-5c4cfcba-3e0e-43a5-9d99-9fe10483792b" d="m211.5,259.5v20h-20s3-5,3-10-3-10-3-10h20Z" style="fill:#f55;"/><path id="uuid-aff17a22-aca7-4067-878d-4e907ceb6168" d="m29.5,149.5v360h270" style="fill:none; stroke:#55a; stroke-width:2px;"/><path id="uuid-8bc12d4a-3321-4ce6-9cee-b75ea777cb51" d="m59.5,29.5h270v360h0" style="fill:none; stroke:#55a; stroke-width:2px;"/><path id="uuid-6b990a5e-4f79-48c6-80c9-d2b632554a4b" d="m248.61,388.04c15.22-5.6,30.14-12.18,44.28-20.09,12.86-7.2,25.38-15.03,36.61-24.75" style="fill:none; stroke:#55a; stroke-linecap:round; stroke-linejoin:round; stroke-width:2px;"/><path id="uuid-85c4d9ed-64ef-497f-be4a-1554c963e266" d="m94.5,100.5c1,4,5,14,12,14,9,0,13-8,13-18,0-7-2.58-11.61-5-17-2.58-5.74-6.38-10.86-10-16-4.65-6.6-15-19-15-19,0,0-10.35,12.4-15,19-3.62,5.14-7.42,10.26-10,16-2.42,5.39-5,10-5,17,0,10,4,18,13,18,7,0,11-10,12-14,1-1,1,0,1,1-1,8-1,10-2,16s-4,17-4,17c5-2,15-2,20,0,0,0-3-11-4-17s-1-8-2-16c0-1,0-2,1-1Z"/><path id="uuid-de2bfb72-4d21-4786-88f2-45b13d2f4671" d="m32,117.5c.5,2,2.5,7,6,7,4.5,0,6.5-4,6.5-9,0-3.5-1.29-5.81-2.5-8.5-1.29-2.87-3.19-5.43-5-8-2.32-3.3-7.5-9.5-7.5-9.5,0,0-5.18,6.2-7.5,9.5-1.81,2.57-3.71,5.13-5,8-1.21,2.69-2.5,5-2.5,8.5,0,5,2,9,6.5,9,3.5,0,5.5-5,6-7,.5-.5.5,0,.5.5-.5,4-.5,5-1,8s-2,8.5-2,8.5c2.5-1,7.5-1,10,0,0,0-1.5-5.5-2-8.5s-.5-4-1-8c0-.5,0-1,.5-.5Z"/><path id="uuid-622f5388-4acf-4658-9cb4-e0942b633268" d="m264.5,438.5c-1-4-5-14-12-14-9,0-13,8-13,18,0,7,2.58,11.61,5,17,2.58,5.74,6.38,10.86,10,16,4.65,6.6,15,19,15,19,0,0,10.35-12.4,15-19,3.62-5.14,7.42-10.26,10-16,2.42-5.39,5-10,5-17,0-10-4-18-13-18-7,0-11,10-12,14-1,1-1,0-1-1,1-8,1-10,2-16s4-17,4-17c-5,2-15,2-20,0,0,0,3,11,4,17s1,8,2,16c0,1,0,2-1,1Z"/><path id="uuid-6f28f54b-d5e5-44ba-9b0e-70bdd5710588" d="m327,421.5c-.5-2-2.5-7-6-7-4.5,0-6.5,4-6.5,9,0,3.5,1.29,5.81,2.5,8.5,1.29,2.87,3.19,5.43,5,8,2.32,3.3,7.5,9.5,7.5,9.5,0,0,5.18-6.2,7.5-9.5,1.81-2.57,3.71-5.13,5-8,1.21-2.69,2.5-5,2.5-8.5,0-5-2-9-6.5-9-3.5,0-5.5,5-6,7-.5.5-.5,0-.5-.5.5-4,.5-5,1-8s2-8.5,2-8.5c-2.5,1-7.5,1-10,0,0,0,1.5,5.5,2,8.5s.5,4,1,8c0,.5,0,1-.5.5Z"/></g></svg>