<?xml version="1.0" encoding="UTF-8"?><svg id="uuid-98a172a9-020b-413c-8ffd-f3d83110cdf1" xmlns="http://www.w3.org/2000/svg" viewBox="0 0 359 539"><g id="uuid-b40420ee-a541-4c04-853e-6bb888acc094"><path id="uuid-16fc2a8b-b773-44c5-96b9-8b2d2abf7b24" d="m101.68,277.16l13.27-15.78,142.77-.19-13.31,16.1-142.74-.13Z"/><path id="uuid-0114a469-12fd-450e-b491-fcdfcd2973b3" d="m29.5,29.5c-5.52,0-10,4.48-10,10v30c0,5.52,4.48,10,10,10,.43,0,.86-.04,1.28-.09,1.71,3.05,4.97,5.09,8.72,5.09v-5c-1.64,0-3.09-.81-4-2.03,2.42-1.82,4-4.7,4-7.97v-30c0-5.52-4.48-10-10-10h0Zm0,5c2.76,0,5,2.24,5,5v30c0,.72-.17,1.38-.44,2-1.27-4.06-5.09-7-9.56-7v-25c0-2.76,2.24-5,5-5Zm-5,35c2.76,0,5,2.24,5,5-2.76,0-5-2.24-5-5Z"/><path id="uuid-38fd50a2-5fb4-49cf-b8b6-5f99a576360d" d="m329.5,509.5c5.52,0,10-4.48,10-10v-30c0-5.52-4.48-10-10-10-.43,0-.86.04-1.28.09-1.71-3.05-4.97-5.09-8.72-5.09v5c1.64,0,3.09.81,4,2.03-2.42,1.82-4,4.7-4,7.97v30c0,5.52,4.48,10,10,10h0Zm0-5c-2.76,0-5-2.24-5-5v-30c0-.72.17-1.38.44-2,1.27,4.06,5.09,7,9.56,7v25c0,2.76-2.24,5-5,5Zm5-35c-2.76,0-5-2.24-5-5,2.76,0,5,2.24,5,5Z"/><g id="uuid-79350973-80e9-4021-a53c-692f39c390d9"><path id="uuid-1a216ca8-c66c-4da4-b403-eb50c4ffa404" d="m286.75,157l-22,75.5.25,8.5-2.5,8.25-4.5,4.75-4.5,1.5,7.75,1,15.75-21,51.75,35.75.5-81-42.5-33.25Z" style="fill:#f55;"/><path id="uuid-0097a7cc-b7a3-421a-b715-8f3fbaa432f0" d="m29.5,192.5v77.5l2.38-1.25,15.88-28.25-10.75-12.5,10.25-8.25-14.38-24.62-3.38-2.62Z" style="fill:#f55;"/><path id="uuid-4160399c-0c41-4b67-93b8-ef89686094e9" d="m133.38,186.88l-34.38,30.38-8.12-3.25-7.25-.5-8.75,2.88-1.38-3.5-3.12-1.25-3.75,1.75-7.12-6.62,54.25-38.62,8.88,8.25,10.75,10.5Z" style="fill:#5455aa; stroke:#55a; stroke-linecap:round; stroke-linejoin:round; stroke-width:2px;"/><path id="uuid-5f3a5085-fb7a-4ca0-b5e2-20c3a35f8345" d="m215.14,255.7l34.23-.46-6.42-6.57-2.14-9.16-101.48-91.71-19.41,16.66,15.44,12.38,11.16,12.68,6.11,10.24,1.22,13.45,15.59-.31,45.7,42.79Z" style="fill:#f55;"/><path id="uuid-cabbb871-dfde-4714-b8f5-f86859ea10d0" d="m290.5,160l38.75,30.25" style="fill:none; stroke:#55a; stroke-linecap:round; stroke-linejoin:round; stroke-width:2px;"/><path id="uuid-4bc81fb0-d811-4a39-a40a-28113a16ceac" d="m130.5,29.5c3.32,8.88,5.67,18.12,7,27.5,1.01,7.12,1.42,14.33,1,21.5-.5,8.51-2.19,16.95-5,25,4.04.62,8.05,1.46,12,2.5,3.72.98,7.39,2.15,11,3.5l45.5-80h-71.5" style="fill:#ff5; stroke:#55a; stroke-linecap:round; stroke-linejoin:round; stroke-width:2px;"/><path id="uuid-74042b1c-078e-4a44-a6ab-cc36554d1d28" d="m157,109.5l8,6,49.5-86h-12.5l-45,80" style="fill:#f55; stroke:#55a; stroke-linecap:round; stroke-linejoin:round; stroke-width:2px;"/><path id="uuid-8e8c78fe-8801-47a9-b455-81c78d3ac850" d="m189.25,29.5s4,5.92.75,11c-1.82,2.84-9.5,3.5-9.5,3.5,0,0,3.08,9.22.5,12.5-2.63,3.34-12.5,2.5-12.5,2.5,0,0,5.15,10.99,2.5,15.5-3.84,6.55-10.67,4.34-10.67,4.34,0,0,4.07,7.88-1.33,14.16-2.8,3.26-12.75,2-12.75,2,3.61,4.28,3.45,5.49,4,7.75s.41,3,.41,3" style="fill:none; stroke:#000100; stroke-linecap:round; stroke-linejoin:round; stroke-width:2px;"/><path id="uuid-eb71249a-5c37-42e8-ac1e-1c3a3673d496" d="m159.39,82.66c-.34,1.16-.74,2.33-1.39,3.34-.86,1.34-1.8,2.83-3.25,3.5-1.82.84-4.34,1.36-6,.25-1.62-1.09-2.32-3.58-2-5.5.37-2.22,4.25-5.25,4.25-5.25,0,0-5.38-1.1-6.5-3.25-1.05-2.02-.41-4.97,1-6.75,1.39-1.76,4.1-3.16,6.25-2.5,2.41.74,4.25,6.25,4.25,6.25,0,0,.55-4.3,1.75-6,1.07-1.51,2.66-3.06,4.5-3.25,1.63-.17,3.61.62,4.5,2,1.41,2.17,1.17,5.45,0,7.75-1.18,2.31-6.29,4.56-6.29,4.56,0,0,1.14-3.19-1.51-4.61-2.12-1.14-5.55.97-6.47,3.19-.78,1.88.02,5.2,1.97,5.78,3.9,1.15,5.48-2.63,5.48-2.63,0,0-.24,2.11-.54,3.13Z" style="stroke:#000100; stroke-linecap:round; stroke-linejoin:round; stroke-width:2px;"/><path id="uuid-3bcb325e-b5a2-4094-937c-1e7bb8617c50" d="m178.89,47.78c-.34,1.16-.74,2.33-1.39,3.34-.86,1.34-1.8,2.83-3.25,3.5-1.82.84-4.34,1.36-6,.25-1.62-1.09-2.32-3.58-2-5.5.37-2.22,4.25-5.25,4.25-5.25,0,0-5.38-1.1-6.5-3.25-1.05-2.02-.41-4.97,1-6.75,1.39-1.76,4.1-3.16,6.25-2.5,2.41.74,4.25,6.25,4.25,6.25,0,0,.55-4.3,1.75-6,2.23-3.06,6.88-2.57,9-1.25,1.41,2.17,1.17,5.45,0,7.75-1.18,2.31-6.29,4.56-6.29,4.56,0,0,1.14-3.19-1.51-4.61-2.12-1.14-5.55.97-6.47,3.19-.78,1.88.02,5.2,1.97,5.78,3.9,1.15,5.48-2.63,5.48-2.63,0,0-.24,2.11-.54,3.13Z" style="stroke:#000100; stroke-linecap:round; stroke-linejoin:round; stroke-width:2px;"/><g id="uuid-d829f1da-ed84-4c8f-b8a2-17606ccb81f9"><g id="uuid-e5275590-0b46-4404-9902-c1293b37e1d8"><path id="uuid-9c31b3a9-f496-451d-9381-4d757b0c0d98" d="m185.35,115.15c.52,4.58,1.65,9.67,2.84,12.92" style="fill:none; stroke:#55a; stroke-linecap:round; stroke-linejoin:round; stroke-width:2px;"/><path id="uuid-96d5c0ef-2445-4eea-bc40-c9a6e271e331" d="m189.57,108.96c.79,8.12,3.1,14.76,4.71,20.64" style="fill:none; stroke:#55a; stroke-linecap:round; stroke-linejoin:round; stroke-width:2px;"/><path id="uuid-ea98419c-7ea7-42a8-a1f5-e3e0a870335b" d="m194.08,101.35c1.4,9.7,3.02,20.48,6.38,29.53" style="fill:none; stroke:#55a; stroke-linecap:round; stroke-linejoin:round; stroke-width:2px;"/><path id="uuid-96d0b886-b8f7-4ba3-a8a7-b8cbfd42e640" d="m201.88,112.79c.59,7.25,3.05,13.73,4.23,19.2" style="fill:none; stroke:#55a; stroke-linecap:round; stroke-linejoin:round; stroke-width:2px;"/><path id="uuid-ca060869-d7d7-407c-8964-0d9d004613f9" d="m208.15,120.19c1.04,6.69,2.46,9.39,3.25,12.61" style="fill:none; stroke:#55a; stroke-linecap:round; stroke-linejoin:round; stroke-width:2px;"/><path id="uuid-a8af06a5-db15-482b-944f-444e6bdbd2c4" d="m214.8,126.25c.75,2.67,1.62,4.75,2.37,6.76" style="fill:none; stroke:#55a; stroke-linecap:round; stroke-linejoin:round; stroke-width:2px;"/></g><g id="uuid-648c0799-8623-4cfb-b16d-eb5610a54352"><path id="uuid-9206c4f6-9520-4bcb-a0b4-2158bccd48ec" d="m250,29.5s.98,12.88,7.75,19.75c6.77,6.87,15.25,10.25,15.25,10.25" style="fill:none; stroke:#55a; stroke-linecap:round; stroke-linejoin:round; stroke-width:2px;"/><path id="uuid-2abdb627-f0ee-4778-85bb-4bbdcd717e5e" d="m254.12,29.5s1.27,10.77,6.64,16.78,12.11,8.22,12.11,8.22" style="fill:none; stroke:#55a; stroke-linecap:round; stroke-linejoin:round; stroke-width:2px;"/><path id="uuid-c517a3b1-e788-4bec-914f-43de1533dc1c" d="m257.62,29.5s1.56,7.84,5.54,12.42c3.98,4.58,9.96,7.58,9.96,7.58" style="fill:none; stroke:#55a; stroke-linecap:round; stroke-linejoin:round; stroke-width:2px;"/><path id="uuid-f9e44afa-0a3a-44bb-863c-fc45fed76048" d="m262.12,29.5s1.06,5.4,4.27,8.95,6.73,5.3,6.73,5.3" style="fill:none; stroke:#55a; stroke-linecap:round; stroke-linejoin:round; stroke-width:2px;"/><path id="uuid-6053fdb2-403d-4d86-9f1c-98911ccf43fb" d="m266.5,29.5s.62,4.08,2.51,6.25,4.24,3.25,4.24,3.25" style="fill:none; stroke:#55a; stroke-linecap:round; stroke-linejoin:round; stroke-width:2px;"/></g><g id="uuid-b19823fc-c2b8-4da1-ae00-cae1c001c562"><path id="uuid-da5002a8-0652-4bcc-af34-eb059dfe943c" d="m249.25,30.75s-.48,9.88-8.5,18.75c-8.02,8.87-22,8-22,8" style="fill:none; stroke:#55a; stroke-linecap:round; stroke-linejoin:round; stroke-width:2px;"/><path id="uuid-f6f7fb94-5d5e-480b-8d2a-96f7c0ffaada" d="m245.88,30.25s-1.27,8.52-8.39,16.03c-7.12,7.51-15.86,6.47-15.86,6.47" style="fill:none; stroke:#55a; stroke-linecap:round; stroke-linejoin:round; stroke-width:2px;"/><path id="uuid-27371ca4-a9a2-4515-99b8-bed6f63ecafa" d="m241.12,30.25s-1.56,7.84-5.54,12.42c-3.98,4.58-11.71,5.08-11.71,5.08" style="fill:none; stroke:#55a; stroke-linecap:round; stroke-linejoin:round; stroke-width:2px;"/><path id="uuid-99f5b096-855d-4f5e-876b-3a3512da67b8" d="m236.62,30.25s-1.06,5.4-4.27,8.95-5.23,3.05-5.23,3.05" style="fill:none; stroke:#55a; stroke-linecap:round; stroke-linejoin:round; stroke-width:2px;"/></g><path id="uuid-6aaeb7ba-bec9-4db1-8c2d-4d62029e16e6" d="m274.05,66.44s6.14,18.82,8.45,28.44c2.67,11.14,4.95,22.41,6.19,33.79,1.11,10.18,1.13,30.69,1.13,30.69l-32.1-26.75s8.9-12.18,11.55-19.15c2-5.27,2.33-11.03,3.1-16.61.72-5.23,1.12-10.5,1.41-15.77.26-4.87.28-14.64.28-14.64Z" style="fill:#55a; stroke:#55a; stroke-linecap:round; stroke-linejoin:round; stroke-width:2px;"/><g id="uuid-3c1f6a61-97d0-4c44-a77d-f4b18392b874"><path id="uuid-0cefe9c7-d598-4bb1-a58e-11c0f7018850" d="m252.93,75.73s-.22,5.08,0,7.6c.24,2.66.79,5.29,1.41,7.88.68,2.86,2.4,5.51,2.53,8.45.08,1.67,0,3.57-.99,4.93-.85,1.17-2.75,1.12-3.8,2.11-.89.84-1.97,3.1-1.97,3.1" style="fill:none; stroke:#55a; stroke-linecap:round; stroke-linejoin:round; stroke-width:2px;"/><path id="uuid-c38bd769-e9dd-4c2f-83ab-7a5d8451ed95" d="m237.72,98.82s-3.46,4.06-2.96,6.34c.32,1.43,1.95,2.5,3.38,2.82,1.57.34,3.17-.64,4.65-1.27,1.71-.72,3-3.29,4.79-2.82.73.19,1.44,1.28,1.13,1.97-.84,1.82-3.92.94-5.91,1.13-2.43.23-5.47,1.59-7.32,0-.94-.8-.81-2.45-.56-3.66.36-1.73,2.82-4.51,2.82-4.51Z" style="fill:#55a; stroke:#55a; stroke-linecap:round; stroke-linejoin:round; stroke-width:2px;"/></g><g id="uuid-83e9f1d7-edb4-48ad-a93f-cfa8fc87f248"><path id="uuid-6233ba6c-7bcd-4a57-b887-344db4c953db" d="m216.88,66.72s6.27-3.17,9.79-3.78c3.37-.58,7.05-.68,10.32.22,2.35.65,6.08,3.56,6.08,3.56,0,0-5.22-1.93-7.95-2.34-3.4-.51-6.9-.6-10.3-.1-2.74.4-7.94,2.45-7.94,2.45h0Z" style="fill:#55a; stroke:#55a; stroke-linecap:round; stroke-linejoin:round; stroke-width:2px;"/><path id="uuid-dbf9e0b2-b82b-4005-a786-2d25c9b2bc15" d="m237.44,73.76l2.82-2.25s-4.45-1.55-6.76-1.97c-2.5-.45-5.11-1.08-7.6-.56-2.38.49-4.48,1.98-6.48,3.38-2.61,1.83-7.04,6.48-7.04,6.48" style="fill:none; stroke:#55a; stroke-linecap:round; stroke-linejoin:round; stroke-width:2px;"/><path id="uuid-edf2fbe6-0d33-4197-98ca-53ec8006f17e" d="m215.48,78.83s6.78-3.32,10.42-4.22c2.24-.56,4.59-.62,6.9-.7,1.41-.05,4.22.14,4.22.14l2.96,5.07-4.79,2.25,4.39-.73c-1.52,4.47-6.72,7.33-9.46,9.18" style="fill:none; stroke:#55a; stroke-linecap:round; stroke-linejoin:round; stroke-width:2px;"/><path id="uuid-cc7fd46c-ec3b-491f-ad67-23edf54cc5b7" d="m234.06,75.02s2.02,3.4,0,6.34c-1.17,1.7-4.35,1.21-6.19.28-3.2-1.61-6.48-2.9-8.45-4.08l5.91-1.41c-1.06,1.73.24,3.53,1.41,4.65,1.4,1.33,3.84,2.14,5.63,1.41,1.83-.75,3.28-3.79,3.1-5.07-.12-.84-1.41-2.11-1.41-2.11h0Z" style="fill:none; stroke:#55a; stroke-linecap:round; stroke-linejoin:round; stroke-width:2px;"/><path id="uuid-75243f16-319d-438b-b382-fc8082c97951" d="m230.68,76.57c-.82-.28-2.1.83-1.97,1.69.13.91,1.81,1.7,2.53,1.13.75-.6.34-2.5-.56-2.82Z" style="fill:none; stroke:#55a; stroke-linecap:round; stroke-linejoin:round; stroke-width:2px;"/></g><g id="uuid-ac2445c7-b715-43d6-abad-384122be4c40"><path id="uuid-0a83c968-77da-4c0a-99d1-2fbed71c7f1e" d="m271.55,64.95s-5.79-2.06-8.6-1.34c-3.41.88-8.33,6.48-8.33,6.48,0,0,5.3-4.64,8.61-5.18,2.89-.47,8.57,1.9,8.57,1.9l-.25-1.87Z" style="fill:#55a; stroke:#55a; stroke-linecap:round; stroke-linejoin:round; stroke-width:2px;"/><path id="uuid-4bcfc4e0-eee5-4f6d-8af5-ac1904f1272b" d="m252.79,74.74s4.01-4.06,6.62-4.93c2.85-.94,6.21-1.1,9.01,0,1.67.66,3.94,3.66,3.94,3.66" style="fill:none; stroke:#55a; stroke-linecap:round; stroke-linejoin:round; stroke-width:2px;"/><path id="uuid-2a112151-ec78-42a3-bbf5-04e2654c75e5" d="m254.33,76.57s4.96-2.09,7.6-2.25c2.28-.14,4.56.51,6.76,1.13,1.46.41,4.22,1.69,4.22,1.69,0,0-2.62,2.55-4.22,3.38-2.08,1.08-4.41,2.02-6.76,1.97-1.19-.02-3.38-1.13-3.38-1.13l-3.66-1.44c.99,2.06,2.73,5.79,4.08,6.93" style="fill:none; stroke:#55a; stroke-linecap:round; stroke-linejoin:round; stroke-width:2px;"/><path id="uuid-bc608b97-ef07-484c-9733-a6a394a18035" d="m258.28,76.01c-1.48,3.08.1,3.09.28,4.51l1.13,1.13" style="fill:none; stroke:#55a; stroke-linecap:round; stroke-linejoin:round; stroke-width:2px;"/><path id="uuid-853ef627-02b2-49e1-8b90-d1ed2d3a8d6b" d="m263.06,76.85c-.66.49-1.07,1.75-.56,2.39.58.74,2.15.66,2.82,0,.53-.53.51-1.71,0-2.25-.52-.55-1.65-.59-2.25-.14Z" style="fill:none; stroke:#55a; stroke-linecap:round; stroke-linejoin:round; stroke-width:2px;"/></g><g id="uuid-8f0672df-1c1a-4c2c-949e-efc235dceac4"><path id="uuid-98d4a0ea-75bc-421d-8620-07e6e6f80721" d="m234.91,120.07s4.8-2.01,7.46-1.99c2.02.01,3.61,1.55,5.63,1.59,2.82.06,5.35-2.52,8.03-1.89,1.09.25,1.97,1.99,1.97,1.99,0,0-1.9-.81-2.96-.8-2.5.04-4.4,1.95-6.9,2.09-2.51.14-4.82-1.14-7.32-1.29-1.97-.12-5.91.3-5.91.3h0Z" style="fill:#55a; stroke:#55a; stroke-linecap:round; stroke-linejoin:round; stroke-width:2px;"/><path id="uuid-a8e93c9a-e8df-4744-98ab-72268a2bfe7c" d="m241.95,127.26s3.1-1.66,4.79-1.69c1.91-.04,5.49,1.69,5.49,1.69" style="fill:none; stroke:#55a; stroke-linecap:round; stroke-linejoin:round; stroke-width:2px;"/><path id="uuid-25561a6f-ff8e-4874-893c-d9cb4c3d41d3" d="m241.24,123.46s4.08,1.36,6.19,1.41c1.81.04,5.35-.99,5.35-.99" style="fill:none; stroke:#55a; stroke-linecap:round; stroke-linejoin:round; stroke-width:2px;"/></g><path id="uuid-7e491eb3-7131-438f-9c49-46ed61472883" d="m273.75,30.25s-.08,23.67-.5,35.5c-.47,13.1.48,26.43-2.25,39.25-1.22,5.75-3.72,11.19-6.25,16.5-1.99,4.18-3.53,8.93-7,12-2.85,2.52-6.73,3.99-10.5,4.5-4.25.57-8.65-.49-12.75-1.75-5.77-1.77-11.23-4.64-16.25-8-4.71-3.15-9.07-6.94-12.75-11.25-2.82-3.3-5.25-7.02-7-11-1.29-2.92-2.5-9.25-2.5-9.25" style="fill:none; stroke:#55a; stroke-linecap:round; stroke-linejoin:round; stroke-width:2px;"/></g><path id="uuid-bc34eebb-e088-449c-b21f-0a1d6ba0182b" d="m301.5,90.75l9.75-16.25,8.75,16.25-9.5,15.75-9-15.75Z" style="fill:#ff5; stroke:#000; stroke-linecap:round; stroke-linejoin:round; stroke-width:2px;"/><path id="uuid-b7831105-bebe-4a73-8c11-5460631c833e" d="m306.75,90.25l4-7,3.75,6.75-3.75,7.5-4-7.25Z" style="fill:#f55; stroke:#000; stroke-linecap:round; stroke-linejoin:round; stroke-width:2px;"/><path id="uuid-3fd1bf26-ef07-4a32-8e84-e1f2c9fc5d72" d="m309.75,109.38c0,3.11-2.41,5.62-5.38,5.62s-5.38-2.52-5.38-5.62,2.41-5.62,5.38-5.62,5.38,2.52,5.38,5.62Z" style="fill:#ff5; stroke:#000; stroke-linecap:round; stroke-linejoin:round; stroke-width:2px;"/><path id="uuid-027bd4e1-f787-404f-903e-bee9960501ce" d="m321.25,108.88c0,3.24-2.46,5.88-5.5,5.88s-5.5-2.63-5.5-5.88,2.46-5.88,5.5-5.88,5.5,2.63,5.5,5.88Z" style="fill:#ff5; stroke:#000; stroke-linecap:round; stroke-linejoin:round; stroke-width:2px;"/><path id="uuid-d2e0fb48-7552-460f-b03d-6cd14e130f8e" d="m319.25,192.75c0,4.56-4.03,8.25-9,8.25s-9-3.69-9-8.25,4.03-8.25,9-8.25,9,3.69,9,8.25Z" style="fill:#ff5; stroke:#000; stroke-linecap:round; stroke-linejoin:round; stroke-width:2px;"/><path id="uuid-c866d8cf-da45-4e31-af6b-963250d54ade" d="m310,184.5c-3.85-1.01-7.28-4.41-8.76-8.11-1.72-4.32.41-9.3.9-13.92,1.1-10.33,3.1-20.54,4.57-30.82.96-6.71,2.06-16.49,2.79-20.15,1.89-.53,2.13.83,2.07,2.51,1.9,15.05,4.1,30.06,5.7,45.14.52,4.89,2.06,9.84,1.27,14.69-.57,3.46-1.51,7.39-4.19,9.64-1.14.96-2.91,1.41-4.35,1.03h0Z" style="fill:#ff5; stroke:#000; stroke-linecap:round; stroke-linejoin:round; stroke-width:2px;"/><path id="uuid-97e55cbf-1596-4d44-9bca-635caf3127c7" d="m310.75,131.25s1.54,16.68,2.5,25c.52,4.51,1.71,8.96,1.75,13.5.02,2.26.23,4.71-.75,6.75-.71,1.49-3.5,3.5-3.5,3.5" style="fill:none; stroke:#000; stroke-linecap:round; stroke-linejoin:round; stroke-width:2px;"/><path id="uuid-1e1d8105-92d6-4604-9219-1eb242758941" d="m311.75,188.25c1.47,1.53,3.06,3.58,2.82,5.68-.17,1.41-1.41,2.72-2.72,3.28-.87.37-1.9-.11-2.84-.21" style="fill:none; stroke:#000; stroke-linecap:round; stroke-linejoin:round; stroke-width:2px;"/><path id="uuid-2bb1da85-8632-438d-ac0d-cea380d6bf9a" d="m305.75,255.25s-2.1-17.81-2.75-26.75c-.43-5.99-1.68-12.07-.75-18,.41-2.63.78-5.71,2.75-7.5,1.47-1.33,3.77-1.51,5.75-1.5,1.9.01,4.15.16,5.5,1.5,2.4,2.38,2.43,6.39,2.75,9.75.54,5.75-.82,11.52-1.5,17.25-.79,6.69-2.07,13.32-3,20-.45,3.25-1.25,9.75-1.25,9.75l-7.5-4.5Z" style="fill:#ff5; stroke:#000; stroke-linecap:round; stroke-linejoin:round; stroke-width:2px;"/><path id="uuid-f38a9db7-d4b0-4041-8ec6-3467565e97f8" d="m310.75,206s3.07,2.12,3.75,3.75c1.12,2.69.11,5.84,0,8.75-.21,5.68-.69,11.35-1.25,17-.73,7.35-2.75,22-2.75,22" style="fill:none; stroke:#000; stroke-linecap:round; stroke-linejoin:round; stroke-width:2px;"/><path id="uuid-96a886fa-d323-43e6-bd0a-63edb5c3586d" d="m179.25,126l-9,15.75,78.25,72.75,16.75-63,9.41-2.84-17.5-15.34s-5.18,3.51-8.16,4.19c-3.41.78-7.03.23-10.5-.25-3.66-.51-10.75-2.75-10.75-2.75,0,0-13.89-.72-20.75-1.75-5.82-.87-11.54-2.32-17.25-3.75-3.53-.89-10.5-3-10.5-3Z" style="fill:#ff5; stroke:#000; stroke-linecap:round; stroke-linejoin:round; stroke-width:2px;"/><path id="uuid-ccfc1716-ffd1-4d67-9e12-644e7644113b" d="m176.75,131s12.91,4.02,19.5,5.5c5.36,1.21,10.8,2.07,16.25,2.75,6.14.77,12.32,1.3,18.5,1.5,4.75.15,9.52.18,14.25-.25,5.13-.46,15.25-2.5,15.25-2.5" style="fill:none; stroke:#000; stroke-linecap:round; stroke-linejoin:round; stroke-width:2px;"/><path id="uuid-37b5db30-288e-4c53-b278-18d1a3a377e0" d="m176,146.75s12.74,3.73,19.25,5c6.19,1.21,12.47,1.93,18.75,2.5,4.99.46,9.99.76,15,.75,6.01-.02,12.02-.44,18-1,6.19-.58,18.5-2.43,18.5-2.43" style="fill:none; stroke:#000; stroke-linecap:round; stroke-linejoin:round; stroke-width:2px;"/><path id="uuid-c48df619-108f-46ec-b323-b240dfe966f3" d="m194.25,156.75s18.62,3.31,28.04,3.83c6.8.37,13.63,0,20.42-.54,5.21-.41,15.53-2.04,15.53-2.04l-12.25,48-51.75-49.25Z" style="fill:none; stroke:#000; stroke-linecap:round; stroke-linejoin:round; stroke-width:2px;"/><path id="uuid-7e3f8050-cbb1-4f2d-9dd0-1ff2800d64ad" d="m211.25,165s14.66,1.17,22,1c6.14-.14,18.36-1.68,18.36-1.68l-8.11,33.18-32.25-32.5Z" style="fill:none; stroke:#000; stroke-linecap:round; stroke-linejoin:round; stroke-width:2px;"/><path id="uuid-8e0078bd-bb1e-4c43-939e-18271f60d684" d="m234.25,187.25l7.46,3.21,4.29-4.71" style="fill:none; stroke:#000; stroke-linecap:round; stroke-linejoin:round; stroke-width:2px;"/><path id="uuid-10e243c6-01a1-498c-8b27-7207f4422fc2" d="m227.26,180.86c-.5-1,13.24,4.14,13.24,4.14l7.25-7" style="fill:none; stroke:#000; stroke-linecap:round; stroke-linejoin:round; stroke-width:2px;"/><path id="uuid-f7a24ff6-2808-4574-86ec-7fa7cfa6fb26" d="m219.33,172.54l19.17,7.46,11.36-9.82" style="fill:none; stroke:#000; stroke-linecap:round; stroke-linejoin:round; stroke-width:2px;"/><path id="uuid-9593f70c-f90e-4ab0-90c5-c6ca46e2a832" d="m215.9,165.47l21.6,9.53,11.18-9.96" style="fill:none; stroke:#000; stroke-linecap:round; stroke-linejoin:round; stroke-width:2px;"/><path id="uuid-6c80d046-5b08-4616-b12b-166a084809e4" d="m228.11,166l7.89,4.25,5.25-4" style="fill:none; stroke:#000; stroke-linecap:round; stroke-linejoin:round; stroke-width:2px;"/><path id="uuid-a8966468-ca30-4133-aa46-390e4be5fb02" d="m217.75,145l6,.57v4.5l-6-.57v-4.5Z" style="fill:none; stroke:#000; stroke-linecap:round; stroke-linejoin:round; stroke-width:2px;"/><path id="uuid-775794c9-9286-41f3-8649-1ff3ed0e9f02" d="m174.49,135.19l4.19,1.79-1.91,4.08-4.44-2.54,2.16-3.33Z" style="fill:none; stroke:#000; stroke-linecap:round; stroke-linejoin:round; stroke-width:2px;"/><path id="uuid-190c5962-b877-4e82-9e28-47279f3a1c61" d="m182.92,138.78l5.81,1.71-1.04,4.58-5.77-1.86,1-4.44Z" style="fill:none; stroke:#000; stroke-linecap:round; stroke-linejoin:round; stroke-width:2px;"/><path id="uuid-bb460786-87ea-4fa8-883d-0b983a3e8efc" d="m194.22,141.52l6.25,1.06-.47,4.48-6.11-1.06.33-4.48Z" style="fill:none; stroke:#000; stroke-linecap:round; stroke-linejoin:round; stroke-width:2px;"/><path id="uuid-90b55eae-5d4c-4375-8b66-4601a5beb8fa" d="m206.05,143.71l6.28.66-.17,4.5-6.14-.51.03-4.64Z" style="fill:none; stroke:#000; stroke-linecap:round; stroke-linejoin:round; stroke-width:2px;"/><path id="uuid-f62acd74-7d16-4b62-bc9e-1bdaa1083718" d="m229.34,145.78l6,.23-.17,4.5-6-.23.17-4.5Z" style="fill:none; stroke:#000; stroke-linecap:round; stroke-linejoin:round; stroke-width:2px;"/><path id="uuid-f6ac3c31-5715-4bac-a334-c41fcd5d7b70" d="m240.79,145.57l5.66-.39.19,4.46-5.8.25-.04-4.32Z" style="fill:none; stroke:#000; stroke-linecap:round; stroke-linejoin:round; stroke-width:2px;"/><path id="uuid-a852e5a0-6c37-47ef-bd3a-f12adf267834" d="m251.51,144.75l5.37-.82.61,4.6-5.37.82-.61-4.6Z" style="fill:none; stroke:#000; stroke-linecap:round; stroke-linejoin:round; stroke-width:2px;"/><path id="uuid-368967be-72f2-4f81-8eb6-4a17a567b42e" d="m261.23,142.79l2.84-1.36,3.44,3.77-5.2,1.94-1.08-4.35Z" style="fill:none; stroke:#000; stroke-linecap:round; stroke-linejoin:round; stroke-width:2px;"/><path id="uuid-3c6cac2c-6cdf-4973-8f06-78018f7c869d" d="m274.68,148.46l11.47,9.32-21.26,75.01s.48,6.61-.24,9.79c-.69,3.06-1.67,6.32-3.82,8.6-2.03,2.15-4.93,4.13-7.88,4.06-2.57-.06-4.88-2-6.69-3.82-1.61-1.62-2.63-3.8-3.34-5.97-.6-1.83-.72-5.73-.72-5.73l-102.96-93.16s9.33-8.21,13.38-12.9c4.66-5.41,8.96-11.2,12.42-17.44,17.28-31.1,49.93-86.47,49.93-86.47l17.68.24s-9.36,18.42-14.33,27.47c-7.05,12.82-14.7,25.29-21.98,37.98-5.61,9.77-11.17,19.58-16.72,29.38-3.2,5.65-9.56,16.96-9.56,16.96l78.11,72.62,17.68-62.35,8.84-3.58Z" style="stroke:#55a; stroke-linecap:round; stroke-linejoin:round; stroke-width:2px;"/><path id="uuid-e273872d-fd05-48d8-8dea-59422e4aac66" d="m139.21,146.42l-18.71,16.58-7.5,5.5-38.65,27.76-8.12,6.12-7.5,5-28.74-14.38" style="fill:none; stroke:#55a; stroke-linecap:round; stroke-linejoin:round; stroke-width:2px;"/><path id="uuid-951cf296-6edf-434b-a4de-b467397fe460" d="m57.9,207.1c3.23,2.02,9.1,6.9,9.1,6.9,0,0,1.44-1.89,2.5-2,1.85-.2,4.35.75,5,2.5.76,2.03-1.71,3.98-2.5,6-.86,2.2-1.98,4.33-2.44,6.65-.72,3.63-.88,7.41-.47,11.09.41,3.7,2.83,7.05,2.91,10.77.03,1.54.26,3.63-1,4.5-1.94,1.34-7-1-7-1l-26.5,12.5c9.14,5.57,14.78,10.24,22.5,14.79,7.22,4.56,20,14.21,20,14.21,0,0,6.72-8.29,10-12.5,5.42-6.94,10.21-14.37,16-21,4.03-4.61,8.45-8.9,13-13,5.1-4.6,11.63-7.69,16-13,3.84-4.66,6.86-10.19,8.5-16,1.45-5.14,2.41-10.84,1-16-1.64-6.02-6.4-10.79-10.5-15.5-6.06-6.96-20.56-18.53-20.56-18.53l5.5-4s13.42,9.94,19.06,16.03c5.44,5.87,11.55,11.88,14,19.5,1.87,5.81,1.17,12.33,0,18.32-1.19,6.07-3.44,12.12-7,17.18-3.74,5.31-9.39,8.99-14.5,13-3.02,2.37-6.58,4.01-9.5,6.5-5.91,5.06-11.07,10.98-16,17-4.92,6.01-9.21,12.52-13.5,19-2.81,4.24-8,13-8,13l-52-35,16-28-11-13,10.5-8-15-26s17.7,7.97,25.9,13.1Z" style="fill:#ff5; stroke:#55a; stroke-linecap:round; stroke-linejoin:round; stroke-width:2px;"/><path id="uuid-43521ce4-7cc1-4637-bd18-69acf021518a" d="m66.5,214.5s-2.62,6.46-3.32,9.85c-1.06,5.1-1.61,10.38-1.29,15.59.26,4.27,2.62,12.56,2.62,12.56" style="fill:none; stroke:#55a; stroke-linecap:round; stroke-linejoin:round; stroke-width:2px;"/><path id="uuid-7ef26ed9-5d73-4873-9ec0-71763a5240e0" d="m76.72,210.49c-2.69.15-5.65.23-8.01-1.08-3.06-1.7-4.62-5.27-6.68-8.11,0,0,5.97-.61,8.81.15,2.43.66,4.49,2.32,6.6,3.7,1.79,1.17,5.1,3.87,5.1,3.87,0,0-3.82,1.35-5.82,1.47Z" style="fill:#ff5; stroke:#55a; stroke-linecap:round; stroke-linejoin:round; stroke-width:2px;"/><path id="uuid-62ce9e35-271c-4a4d-b0a6-4b9849081af5" d="m64.5,188s1.4,4,2.8,5.51c2.17,2.35,5.4,3.44,8.2,4.99,3.59,1.98,8.01,2.7,11,5.5,3.04,2.85,6.3,10.79,6.3,10.79-3.03-.56-5.17-2.26-8.2-1.99,0,0-2.52-4.64-4.5-6.3-2.38-1.99-5.6-2.66-8.4-4-2.57-1.23-5.45-1.95-7.7-3.7-1.64-1.28-3.14-2.9-3.99-4.8-.9-2-1-6.5-1-6.5l5.5.5Z" style="fill:#ff5; stroke:#55a; stroke-linecap:round; stroke-linejoin:round; stroke-width:2px;"/><path id="uuid-65bf91e7-ece1-405f-8bf0-781de3b0da76" d="m53.35,205.17l9.15,17.84-6.54,7.25,5.54,10.24-8.1,16.2-8.79,3.7,10.2-19.39-6.3-11.5,7.3-7.7-10.93-20.5,8.48,3.87Z"/><path id="uuid-b366ba68-5332-49b5-82fe-c12c346ac09a" d="m56.88,168.35s-3.98-5.45-3.38-8.42c.5-2.45,2.89-4.63,5.3-5.31,1.88-.53,4.23.08,5.7,1.37,1.75,1.53,2.52,4.18,2.5,6.5-.01,1.8-2,5-2,5,0,0,4.04-3.54,6.5-3.5,2.32.04,4.85,1.49,6,3.5,1.08,1.88.63,4.43,0,6.5-.52,1.73-1.33,3.83-3,4.5-2.94,1.18-9.28-2.06-9.28-2.06,0,0,2.7,5.95,1.59,8.66-.77,1.88-2.97,3.48-5,3.5-3,.03-6.31-2.24-7.5-5-.95-2.2,1.2-7.1,1.2-7.1,0,0-5.08,2.3-7.5,1.5-2.13-.71-4.36-2.76-4.5-5-.17-2.86,2.24-6.09,4.94-7.05,2.76-.98,8.44,2.4,8.44,2.4h0Z" style="fill:#ff5; stroke:#55a; stroke-linecap:round; stroke-linejoin:round; stroke-width:2px;"/><path id="uuid-b3a2b24d-670e-45a0-a4da-d7021fcc9ec2" d="m52.5,172c3.29-2.16,6.72-3.99,9-8.5,2.26,4.68,4.9,6.67,7.5,9-2.61,1.28-5.21,2.62-8,8.5-1.96-3.26-3.22-6.73-8.5-9Z" style="fill:none; stroke:#55a; stroke-linecap:round; stroke-linejoin:round; stroke-width:2px;"/><path id="uuid-f391defb-c983-423e-8573-21a2b7cdc02f" d="m54.81,166.81l-7.95-3.34-1.62-7.21,6.97,2.56,2.6,7.98Z" style="fill:#f55; stroke:#55a; stroke-linecap:round; stroke-linejoin:round; stroke-width:2px;"/><path id="uuid-0f403c47-2b74-4890-8d50-773732291c2c" d="m66.5,165.5l1.98-7.72,7.52-3.28-2.5,8.5-7,2.5Z" style="fill:#f55; stroke:#55a; stroke-linecap:round; stroke-linejoin:round; stroke-width:2px;"/><path id="uuid-8486d76d-55a7-4451-9bbd-e9b91d38ab95" d="m66.27,176.86l1.23,7.14,8,4-1.5-8.5-7.73-2.64Z" style="fill:#f55; stroke:#55a; stroke-linecap:round; stroke-linejoin:round; stroke-width:2px;"/><path id="uuid-bf804d81-07e1-43e8-a9ab-e95efcb9dde0" d="m55.55,176.24l-8.35,3.27-1.61,7.7,7.91-3.21,2.05-7.76Z" style="fill:#f55; stroke:#55a; stroke-linecap:round; stroke-linejoin:round; stroke-width:2px;"/><path id="uuid-b41b9c22-d386-4420-9ba7-2ce5bb984eac" d="m74.12,216.68c3.74-1.5,7.63-3.43,11.66-3.27,5.19.2,10.14,2.76,14.63,5.36,1.97,1.14,5.05,2.12,5.23,4.39.16,1.96-1.97,3.91-3.86,4.47-2.47.73-4.91-1.64-7.43-2.17-2.42-.51-9.34-1.12-7.35-.96,4.73.38,9.74,1.18,13.7,3.78,1.6,1.05,3.69,2.57,3.59,4.48-.08,1.71-1.93,3.25-3.59,3.67-3.34.84-6.44-2.64-9.85-3.1-1.6-.22-6.5.16-4.85.17,4.09.02,8.52.73,11.89,3.05,1.45.99,3.57,2.62,3.05,4.3-.63,2.05-3.9,1.99-6.03,2.25-4.8.6-10.59-1.91-14.42-1.6,4.77.19,6.96.22,10.02,1.65,1.66.78,4.39,1.77,4.17,3.59-.24,1.96-3.35,2.3-5.29,2.67-2.93.57-5.95-1-8.93-.74-2.39.21-4.69,1.09-6.97,1.83" style="fill:none; stroke:#55a; stroke-linecap:round; stroke-linejoin:round; stroke-width:2px;"/><path id="uuid-5039be68-bce5-4481-81e7-cd3f8f7f893d" d="m93.5,214c-1.82-3.29-2.68-7.24-2.5-11,.16-3.16,2.21-5.94,3-9,.68-2.63,1.5-8,1.5-8,0,0,4.15,6.72,5,10.5.7,3.09.54,6.38,0,9.5-.42,2.44-1.46,4.75-2.5,7-.56,1.22-2,3.5-2,3.5,0,0-1.93-1.47-2.5-2.5Z" style="fill:#ff5; stroke:#55a; stroke-linecap:round; stroke-linejoin:round; stroke-width:2px;"/><g id="uuid-238d76c3-e5bb-4345-bbb8-bd3299300e62"><path id="uuid-e09beaeb-06a8-44eb-85f5-a83976b0fb06" d="m122.25,203.5l13.5-5.75-5.25,15.25s.05-3.47-1.19-4.28c-1.07-.7-3.81.53-3.81.53,0,0,1.73-3.44.84-4.79-.77-1.17-4.09-.96-4.09-.96Z" style="fill:#55a; stroke:#55a; stroke-linecap:round; stroke-linejoin:round; stroke-width:2px;"/><path id="uuid-5acb9cae-d55e-4a35-84bd-06b1122ac5d9" d="m131.43,195.69c-.31-.06-.52-.66-.31-.89.21-.22.81-.06.9.23.09.28-.3.72-.59.66Z" style="fill:none; stroke:#55a; stroke-linecap:round; stroke-linejoin:round; stroke-width:2px;"/><path id="uuid-26cea5b8-b3f2-4c5e-83bb-fd2d1353843c" d="m137.7,202.51c-.24-.18-.21-.69.03-.87.2-.15.62-.06.76.15.11.17,0,.44-.14.57-.16.15-.48.28-.65.14h0Z" style="fill:none; stroke:#55a; stroke-linecap:round; stroke-linejoin:round; stroke-width:2px;"/></g><path id="uuid-d0f2898e-cd30-4828-ad2d-837be425c0da" d="m215,256.5l-45.5-42.75-16.64.1c-1.44,10.69-4.18,16.19-9.11,23.9l15.5,1.25,19.25,17.75" style="fill:#ff5; stroke:#55a; stroke-linecap:round; stroke-linejoin:round; stroke-width:2px;"/><path id="uuid-da6b42ba-c509-45b2-9d0d-a08e14577729" d="m167.69,217.5l-14.56-.03-.41,3,14.44.07,37.84,36.31c.57.55,1.59.53,2.14-.05.55-.57.53-1.59-.05-2.14l-38.31-36.75c-.29-.27-.69-.42-1.09-.41h0Z" style="fill:#000200;"/><path id="uuid-29876bb7-a806-4d04-b768-f5a573ef7810" d="m150,226.54l14-.04,31.5,29.5" style="fill:none; stroke:#55a; stroke-linecap:round; stroke-linejoin:round; stroke-width:2px;"/><path id="uuid-5e2c5aed-2a63-430e-bcf7-c88206eb5c00" d="m148.57,231.62l-1.66,2.77,13.72.33,22.34,21.59c.52.7,1.68.77,2.28.15s.49-1.78-.22-2.28l-22.75-22.03c-.26-.26-.63-.42-1-.44l-12.71-.1Z" style="fill:#000200;"/><path id="uuid-db22b415-2fdd-4a1c-a750-ed7f3af6189b" d="m120.5,256.75l139.5-.5" style="fill:none; stroke:#55a; stroke-linecap:round; stroke-linejoin:round; stroke-width:2px;"/><path id="uuid-a3af0ae1-0467-44e6-914d-582e1d011cd0" d="m294.24,165.26c-2.42,1.18-4.34,3.13-6.34,4.85-4.35,4.93-7.71,12.66-6.41,19.41.63,2.7,2.08,5.09,3.47,7.45.15,2.88.54,6.36-1.56,8.66-1.75,1.63-5.84-1.93-5.76,1.75,1.3,2.2,4.68,2.13,6.75,1.02,2.27-.41,3.44-4.79,3.62-4.87.99,4.45,1.65,9,1.61,13.56-.92,3.46-2.87,5.5-5.47,7.21-3.04,1.67-6.29-1.02-7.15-3.94.17-2.15-3.18-4.28-3.55-1.26.93,3.56,2.94,7.65,6.9,8.49,3.06.94,6.46-.66,8.17-3.25-1.33,3.43-2.96,7.62-.64,11.01,1.36,2.42,7.65,4.77,8.07.96-1.33-1.98-5.36-.33-6.07-3.58-.71-2.65.87-5.21,1.6-7.71,1.63-3.96,1.11-9.57.96-13.74-.49-6.04-1.61-11.03-5.07-16.14-.64-1.14-2.41-3.91-2.01-4.14,2.05,2,5.24,2.28,7.71.9,2.25-.83,6.02-5.55,2.46-6.69-2.12,1.29-3.01,5.56-6.51,4.34-2.61-1.24-5.95-3.48-4.25-6.66.9-2.97,2.71-10.79,10.18-14.49,1.25-1.02,1.29-3.21-.72-3.15h0Z" style="fill:#fff;"/><g id="uuid-299dfad0-d75b-42ec-a55b-d09eaff5196b"><path id="uuid-568631ae-5b71-443c-ab5e-44bf49a3294c" d="m137.78,156.75c-5.47-.23-11.56,5.39-8.92,10.98,1.03,3.48,6.19,5.43,9,3.04.83-1.16-.59-2.82-1.87-2.18-7.06,1.56-5.13-9.36.88-8.72,5.54-1.03,7.76,5.1,8.94,9.31,1.91,5.2.77,10.96,2.81,16.16,1.58,7.91,5.67,15.88,13.28,19.46,4.97,3.03,10.9,2.35,16.2.74,5.56-.47,12.09-2.21,16.72,1.99,3.67,2.76,6.36,7.38,5.88,11.94-2.59,3.44-7.68,6.57-11.27,2.48-2.52-2.22.08-6.2-1.84-8.48-1.3-.92-2.85.68-2.41,2.08-.51,4.15.74,8.95,5.01,10.59,3.78,2.95,9.21-1.62,10.82-2.02.56,5.75,2,11.6,4.71,16.71,3.68,6.23,11.76,5.82,17.95,4.86,3.65-2.12,12.72-2.96,12.92,2.61-1.16,3.66-4.46,1.62-6.94,1.49-1.64.54-1.05,2.98.57,3.07,5.5,3.86,13.1-4.87,7.77-9.3-2.95-3.21-10.63-2.19-11.8-2.52,3.51-4.94,0-12.12-5.75-13.08-3-.75-6.93,1.03-8.35,3.73-.21,1.76,2.22,2.18,3.08.84,4.25-4.82,12.32,1.97,8.48,7-2.17,3.76-6.55,4.24-10.38,3.26-6.38-1.46-6.92-9.09-8.6-14.24-1.54-6.58.49-14.34-4.44-19.84-3.72-5.1-10.18-8.07-16.48-6.8-2.53-.04-8.14,1.95-4.4-1.86,3.01-5.15,1.7-13.22-4.56-15.24-2.4-.54-4.6-2.08-6.94-2.29-4-2.29-11.29-1.25-11.87-7.31-1.02-2.85,2.5-4.2,2.46-6.63-.53-1.81-3.12-1.07-3.59.46-3.93,4.68-1.4,13.1,4.89,14.08,2.29.71,6.26.88,2.38,2.81-3.13,2.55-1.65,8.56,1.91,9.91,1.77.14,2.12-2.48.52-3.04-4.14-6.01,5.83-8.7,9.69-4.91,5.08,2.2,4.2,9.37,1.06,12.89-1.89,4.54-7.78,3.42-11.3,1.7-7.25-3.05-10.99-10.56-12.49-17.88-2.06-5.82-.73-12.22-3.29-17.93-1.28-4.94-4.73-10.16-10.45-9.92h0Z" style="fill:#fff;"/><path id="uuid-76eee86b-4e80-4b1b-9c51-42d351a55277" d="m143.01,176.13c0,1.1-1.01,2-2.25,2s-2.25-.9-2.25-2,1.01-2,2.25-2,2.25.9,2.25,2Z" style="fill:#fff;"/><path id="uuid-952cf8af-cc12-42d9-9550-e865e74187bb" d="m188.55,195.62c0,1.1-1.01,2-2.25,2s-2.25-.9-2.25-2,1.01-2,2.25-2,2.25.9,2.25,2Z" style="fill:#fff;"/><path id="uuid-5c4b5fb9-18be-4a92-9e18-687108b3c1ed" d="m181.56,212.81c0,1.1-1.01,2-2.25,2s-2.25-.9-2.25-2,1.01-2,2.25-2,2.25.9,2.25,2Z" style="fill:#fff;"/><path id="uuid-d998bc86-2a24-4f9d-a0a3-c27024996c6f" d="m213.62,220.68c0,1.1-1.01,2-2.25,2s-2.25-.9-2.25-2,1.01-2,2.25-2,2.25.9,2.25,2Z" style="fill:#fff;"/></g><path id="uuid-3e457b46-2f1e-4ced-8016-3693824816c8" d="m174.86,155.74s.55,3.6.14,5.33c-.5,2.08-1.76,3.94-3.04,5.66-.59.79-2.12,1.09-2.1,2.07.03,1.56,1.91,3.21,3.47,3.13,1.76-.08,2.91-2.26,3.58-3.89.85-2.1.6-4.57.2-6.8-.35-1.95-2.24-5.51-2.24-5.51h0Z" style="fill:#ff5;"/><path id="uuid-d9a1c00f-a668-452e-969c-0939b2d99944" d="m180.25,160.21s1.02,2.32,1,3.57c-.03,1.5-.69,2.99-1.38,4.39-.32.64-1.44,1.14-1.26,1.8.29,1.04,2,1.8,3.18,1.45,1.33-.39,1.85-2.08,2.09-3.3.3-1.58-.3-3.19-.99-4.62-.6-1.25-2.64-3.28-2.64-3.28Z" style="fill:#ff5;"/><path id="uuid-d931b42b-c875-4b30-98a4-ed7991a216db" d="m185.14,165.06s1.02,2.32,1,3.57c-.03,1.5-.69,2.99-1.38,4.39-.32.64-1.44,1.14-1.26,1.8.29,1.04,2,1.8,3.18,1.45,1.33-.39,1.85-2.08,2.09-3.3.3-1.58-.3-3.19-.99-4.62-.6-1.25-2.64-3.28-2.64-3.28Z" style="fill:#ff5;"/><path id="uuid-6cdc880e-08a5-49d4-80f6-b984ab1849f8" d="m160.66,146.12s.37,1.76.09,2.6c-.33,1.01-1.19,1.92-2.05,2.76-.4.38-1.43.53-1.42,1.01.02.76,1.29,1.56,2.34,1.53,1.19-.04,1.97-1.1,2.41-1.9.58-1.02.41-2.23.13-3.31-.24-.95-1.51-2.68-1.51-2.68h0Z" style="fill:#ff5;"/><path id="uuid-10b370c9-761b-4f2f-a8d6-a31f89777b20" d="m164.33,146.36s1.02,2.32,1,3.57c-.03,1.5-.69,2.99-1.38,4.39-.32.64-1.44,1.14-1.26,1.8.29,1.04,2,1.8,3.18,1.45,1.33-.39,1.85-2.08,2.09-3.3.3-1.58-.3-3.19-.99-4.62-.6-1.25-2.64-3.28-2.64-3.28Z" style="fill:#ff5;"/><path id="uuid-b29bdca6-e261-47c6-9ed2-98fc8085206c" d="m169.22,151.21s1.02,2.32,1,3.57c-.03,1.5-.69,2.99-1.38,4.39-.32.64-1.44,1.14-1.26,1.8.29,1.04,2,1.8,3.18,1.45,1.33-.39,1.85-2.08,2.09-3.3.3-1.58-.3-3.19-.99-4.62-.6-1.25-2.64-3.28-2.64-3.28Z" style="fill:#ff5;"/><path id="uuid-df1a2579-f00e-4482-8c9f-5b5133cc7a41" d="m191.14,170.6s.55,3.73.14,5.52c-.5,2.16-1.76,4.09-3.04,5.86-.59.82-2.12,1.13-2.1,2.15.03,1.61,1.91,3.32,3.47,3.25,1.76-.08,2.91-2.34,3.58-4.03.85-2.18.6-4.73.2-7.04-.35-2.02-2.24-5.7-2.24-5.7h0Z" style="fill:#ff5;"/><path id="uuid-8fe411b0-29dc-4760-b48f-70393fe4545d" d="m196.53,175.07s1.02,2.32,1,3.57c-.03,1.5-.69,2.99-1.38,4.39-.32.64-1.44,1.14-1.26,1.8.29,1.04,2,1.8,3.18,1.45,1.33-.39,1.85-2.08,2.09-3.3.3-1.58-.3-3.19-.99-4.62-.6-1.25-2.64-3.28-2.64-3.28Z" style="fill:#ff5;"/><path id="uuid-aad7965e-5751-45e3-a24b-a5365fc10c0f" d="m201.42,179.91s1.02,2.32,1,3.57c-.03,1.5-.69,2.99-1.38,4.39-.32.64-1.44,1.14-1.26,1.8.29,1.04,2,1.8,3.18,1.45,1.33-.39,1.85-2.08,2.09-3.3.3-1.58-.3-3.19-.99-4.62-.6-1.25-2.64-3.28-2.64-3.28Z" style="fill:#ff5;"/><path id="uuid-da94cb0d-acce-4e7b-9403-cc5bcbf56fd0" d="m207.02,184.74s.55,3.6.14,5.33c-.5,2.08-1.76,3.94-3.04,5.66-.59.79-2.12,1.09-2.1,2.07.03,1.56,1.91,3.21,3.47,3.13,1.76-.08,2.91-2.26,3.58-3.89.85-2.1.6-4.57.2-6.8-.35-1.95-2.24-5.51-2.24-5.51h0Z" style="fill:#ff5;"/><path id="uuid-a7d56158-90d3-4713-b3c8-46ed20cfe23f" d="m211.25,189.05s1.02,2.32,1,3.57c-.03,1.5-.69,2.99-1.38,4.39-.32.64-1.44,1.14-1.26,1.8.29,1.04,2,1.8,3.18,1.45,1.33-.39,1.85-2.08,2.09-3.3.3-1.58-.3-3.19-.99-4.62-.6-1.25-2.64-3.28-2.64-3.28Z" style="fill:#ff5;"/><path id="uuid-009e5296-8591-4a5b-bb8d-ac0905a755b4" d="m215.55,193.03s1.02,2.32,1,3.57c-.03,1.5-.69,2.99-1.38,4.39-.32.64-1.44,1.14-1.26,1.8.29,1.04,2,1.8,3.18,1.45,1.33-.39,1.85-2.08,2.09-3.3.3-1.58-.3-3.19-.99-4.62-.6-1.25-2.64-3.28-2.64-3.28Z" style="fill:#ff5;"/><path id="uuid-1ab1e572-b6e8-4c46-93f6-c979ef8a8b05" d="m221.01,198.14s.55,3.6.14,5.33c-.5,2.08-1.76,3.94-3.04,5.66-.59.79-2.12,1.09-2.1,2.07.03,1.56,1.91,3.21,3.47,3.13,1.76-.08,2.91-2.26,3.58-3.89.85-2.1.6-4.57.2-6.8-.35-1.95-2.24-5.51-2.24-5.51h0Z" style="fill:#ff5;"/><path id="uuid-daf9fe32-393b-4c2f-bede-a0c28fbe8b11" d="m225.53,202.31s1.02,2.32,1,3.57c-.03,1.5-.69,2.99-1.38,4.39-.32.64-1.44,1.14-1.26,1.8.29,1.04,2,1.8,3.18,1.45,1.33-.39,1.85-2.08,2.09-3.3.3-1.58-.3-3.19-.99-4.62-.6-1.25-2.64-3.28-2.64-3.28Z" style="fill:#ff5;"/><path id="uuid-6858e606-6ae3-47ec-a2c2-074336c52457" d="m230.27,206.73s1.02,2.32,1,3.57c-.03,1.5-.69,2.99-1.38,4.39-.32.64-1.44,1.14-1.26,1.8.29,1.04,2,1.8,3.18,1.45,1.33-.39,1.85-2.08,2.09-3.3.3-1.58-.3-3.19-.99-4.62-.6-1.25-2.64-3.28-2.64-3.28Z" style="fill:#ff5;"/><path id="uuid-78168f15-4e62-4a78-99f8-ece1aaccfb05" d="m236.16,210.53s.55,3.6.14,5.33c-.5,2.08-1.76,3.94-3.04,5.66-.59.79-2.12,1.09-2.1,2.07.03,1.56,1.91,3.21,3.47,3.13,1.76-.08,2.91-2.26,3.58-3.89.85-2.1.6-4.57.2-6.8-.35-1.95-2.24-5.51-2.24-5.51h0Z" style="fill:#ff5;"/><path id="uuid-41534d8b-99c3-4b07-8acb-4aa75d061880" d="m240.54,214.85s1.02,2.32,1,3.57c-.03,1.5-.69,2.99-1.38,4.39-.32.64-1.44,1.14-1.26,1.8.29,1.04,2,1.8,3.18,1.45,1.33-.39,1.85-2.08,2.09-3.3.3-1.58-.3-3.19-.99-4.62-.6-1.25-2.64-3.28-2.64-3.28Z" style="fill:#ff5;"/><path id="uuid-dc74ab9b-e726-4bd8-a493-864560afc897" d="m261.85,190.69s.59,3.34,1.55,4.68c1.34,1.88,3.76,2.68,5.51,4.18.43.37,1.1.63,1.23,1.18.21.92-.18,2.15-.97,2.66-1.12.72-2.85.38-3.98-.33-1.92-1.21-2.84-3.69-3.41-5.88-.55-2.09.08-6.49.08-6.49Z" style="fill:#ff5;"/><path id="uuid-990b156a-1938-4ab1-a74e-cfd1840525df" d="m259.9,197.56s.84,1.49,1.27,2.23c.66,1.12,1.19,2.33,2.02,3.33.64.78,2.29,1.04,2.23,2.04-.08,1.16-1.64,2.13-2.86,2.01-1.38-.14-2.13-1.67-2.66-2.86-.61-1.38-.45-3-.39-4.5.03-.76.39-2.25.39-2.25Z" style="fill:#ff5;"/><path id="uuid-fdeb7d98-2e45-47ea-aa0c-6bd61aa9dddd" d="m258.05,202.54s.52,2.36,1.11,3.39c.75,1.32,1.81,2.49,3.01,3.42.58.45,1.81.31,1.97.98.24,1.05-.91,2.53-2.11,2.79-1.36.29-2.62-.94-3.41-1.91-1.02-1.24-1.25-2.95-1.33-4.53-.07-1.38.76-4.14.76-4.14h0Z" style="fill:#ff5;"/><path id="uuid-8cbb1261-2c54-4538-b1c8-8890ada901c5" d="m256.89,209.76s.59,3.34,1.55,4.68c1.34,1.88,3.76,2.68,5.51,4.18.43.37,1.1.63,1.23,1.18.21.92-.18,2.15-.97,2.66-1.12.72-2.85.38-3.98-.33-1.92-1.21-2.84-3.69-3.41-5.88-.55-2.09.08-6.49.08-6.49Z" style="fill:#ff5;"/><path id="uuid-bb6c39b5-e062-414d-b01f-b0c65699c969" d="m265.1,180.75s.64,1.42.97,2.13c.35.74.65,1.51,1.1,2.19.71,1.08,2.64,1.7,2.49,2.98-.11.88-1.25,1.67-2.14,1.58-1.19-.11-1.95-1.55-2.43-2.65-.56-1.27-.41-2.77-.35-4.16.03-.7.36-2.08.36-2.08h0Z" style="fill:#ff5;"/><path id="uuid-26c0bb97-660e-4eca-9d2a-57d78ca04b2c" d="m264.04,186.89s.44,1.81.94,2.6c.63,1.01,1.52,1.91,2.54,2.62.49.34,1.52.24,1.65.75.21.81-.76,1.94-1.77,2.14-1.14.22-2.2-.72-2.87-1.46-.86-.95-1.05-2.26-1.12-3.47-.06-1.06.64-3.18.64-3.18h0Z" style="fill:#ff5;"/><path id="uuid-a7b1182a-165b-4eee-af8b-f9b47cf2a881" d="m266.95,174.92s.54,3.08,1.42,4.31c1.23,1.73,3.45,2.47,5.05,3.85.4.34,1.01.58,1.13,1.09.19.85-.16,1.98-.89,2.45-1.03.66-2.62.35-3.65-.31-1.76-1.12-2.6-3.4-3.13-5.42-.5-1.93.07-5.98.07-5.98h0Z" style="fill:#ff5;"/><path id="uuid-bcb8dde9-22e6-4d80-8436-4562d16b4e89" d="m270.02,164.99s.8,1.37,1.17,2.06c.47.88.73,1.88,1.33,2.67.69.91,2.62,1.16,2.55,2.3-.06,1.07-1.5,1.97-2.62,1.86-1.27-.13-1.95-1.55-2.43-2.65-.56-1.27-.41-2.77-.35-4.16.03-.7.36-2.08.36-2.08Z" style="fill:#ff5;"/><path id="uuid-662ff8c4-6baa-4570-8fe4-e3773084e773" d="m268.76,170.82s.44,1.81.94,2.6c.63,1.01,1.52,1.91,2.54,2.62.49.34,1.52.24,1.65.75.21.81-.76,1.94-1.77,2.14-1.14.22-2.2-.72-2.87-1.46-.86-.95-1.05-2.26-1.12-3.47-.06-1.06.64-3.18.64-3.18h0Z" style="fill:#ff5;"/><path id="uuid-bf2caa16-e619-428f-b79b-b6ad6e70c02d" d="m271.08,156.84s.59,3.34,1.55,4.68c1.34,1.88,3.76,2.68,5.51,4.18.43.37,1.1.63,1.23,1.18.21.92-.18,2.15-.97,2.66-1.12.72-2.85.38-3.98-.33-1.92-1.21-2.84-3.69-3.41-5.88-.55-2.09.08-6.49.08-6.49Z" style="fill:#ff5;"/><path id="uuid-5c67cc42-c208-4602-9c31-c32fafe58fae" d="m274.43,149.55s.94.5,1.35.83c.59.48,1.03,1.13,1.57,1.67.66.65,2.03.96,2.04,1.89,0,.72-.85,1.49-1.57,1.49-1.19,0-2.02-1.39-2.61-2.42-.3-.53-.27-1.19-.4-1.79-.12-.56-.37-1.67-.37-1.67Z" style="fill:#ff5;"/><path id="uuid-b7b6e7fa-d648-4a80-a532-39f94a867163" d="m273.28,153.04s.44,1.81.94,2.6c.63,1.01,1.52,1.91,2.54,2.62.49.34,1.52.24,1.65.75.21.81-.76,1.94-1.77,2.14-1.14.22-2.2-.72-2.87-1.46-.86-.95-1.05-2.26-1.12-3.47-.06-1.06.64-3.18.64-3.18h0Z" style="fill:#ff5;"/><path id="uuid-45d22000-be26-478e-aef3-3af676bdf986" d="m253.25,222c-3.64.03-6.29,2.83-7.91,6.06s-2.4,7.07-2.34,10.22c.05,3.11.95,6.84,2.66,9.97s4.4,5.82,8,5.75c3.58-.07,6.13-2.86,7.69-6.03s2.31-6.9,2.28-9.97c-.03-3.1-.86-6.88-2.5-10.06s-4.26-5.96-7.88-5.94Zm0,3c2.05-.01,3.85,1.62,5.22,4.28s2.13,6.16,2.16,8.72c.02,2.53-.66,6-1.97,8.66s-3.04,4.3-5.06,4.34c-2.04.04-3.86-1.57-5.28-4.19s-2.27-6.06-2.31-8.59c-.04-2.57.68-6.11,2.03-8.81s3.15-4.39,5.22-4.41Z" style="fill:#ff5;"/><path id="uuid-2330db36-0ec5-44d8-98c8-d9566525e915" d="m252,238.5s-2.48-1.94-3.75-1.5c-.63.22-1.09,1.08-1,1.75.12.88.99,1.81,1.88,1.88,1.19.09,2.88-2.12,2.88-2.12Z" style="fill:#ff5;"/><path id="uuid-2758be2a-d8f8-4615-8784-bbcae7ec5e7b" d="m254.62,238.25s1.07-2.21,2.12-2.5c.89-.25,2.34,0,2.62.88.27.82-.7,1.79-1.5,2.12-1.01.43-3.25-.5-3.25-.5Z" style="fill:#ff5;"/><path id="uuid-cf391e3e-c3f7-4715-a473-085e35951609" d="m252.75,235.88s-3.37-2.14-3.5-3.88c-.11-1.5,1.01-3.56,2.5-3.75,1.43-.19,2.96,1.46,3.25,2.88.35,1.72-2.25,4.75-2.25,4.75Z" style="fill:#ff5;"/><path id="uuid-17e6af81-9642-458b-b947-93f459618b38" d="m253,240.88s-2.08,3.31-1.62,5c.29,1.08,1.38,2.31,2.5,2.25,1.44-.08,2.9-1.8,2.88-3.25-.03-1.83-3.75-4-3.75-4Z" style="fill:#ff5;"/><g id="uuid-f1fac287-2ddc-4c7e-bc88-58173b07914d"><path id="uuid-ccfc0c9f-21b7-4a38-9a69-6d0ad72949ef" d="m116.46,230.49l14.26-6.87-6.47,14.98s1.08-3.27.04-4.2c-1.18-1.06-4.73.52-4.73.52,0,0,1.54-3,.69-4.09-.77-1-3.79-.33-3.79-.33h0Z" style="fill:#55a; stroke:#55a; stroke-linecap:round; stroke-linejoin:round; stroke-width:2.02px;"/><path id="uuid-8060c57d-f921-4e56-a707-bd2e898096a9" d="m126.4,221.6c-.31-.06-.52-.65-.31-.87.21-.22.81-.06.9.23.09.28-.3.7-.59.65Z" style="fill:none; stroke:#55a; stroke-linecap:round; stroke-linejoin:round; stroke-width:2.02px;"/><path id="uuid-4cfd6b64-9ca7-4cde-a424-594016cdf534" d="m132.67,228.3c-.24-.18-.21-.68.03-.85.2-.15.62-.06.76.15.11.16,0,.43-.14.56-.16.15-.48.27-.65.14h0Z" style="fill:none; stroke:#55a; stroke-linecap:round; stroke-linejoin:round; stroke-width:2.02px;"/></g><g id="uuid-cd801f51-8b71-4cc5-ba31-d2fb2ef4cb98"><path id="uuid-32c68788-07b9-493d-a6b1-c50058468b28" d="m107.14,216.36l13.5-5.75-5.25,15.25s.05-3.47-1.19-4.28c-1.07-.7-3.81.53-3.81.53,0,0,1.73-3.44.84-4.79-.77-1.17-4.09-.96-4.09-.96Z" style="fill:#55a; stroke:#55a; stroke-linecap:round; stroke-linejoin:round; stroke-width:2px;"/><path id="uuid-120a54d9-4016-4e04-9ef0-8ef0e04ed4c0" d="m116.32,208.55c-.31-.06-.52-.66-.31-.89.21-.22.81-.06.9.23.09.28-.3.72-.59.66Z" style="fill:none; stroke:#55a; stroke-linecap:round; stroke-linejoin:round; stroke-width:2px;"/><path id="uuid-c801a1f9-868c-4a35-a28a-0d8ba33ea515" d="m122.6,215.37c-.24-.18-.21-.69.03-.87.2-.15.62-.06.76.15.11.17,0,.44-.14.57-.16.15-.48.28-.65.14h0Z" style="fill:none; stroke:#55a; stroke-linecap:round; stroke-linejoin:round; stroke-width:2px;"/></g><g id="uuid-9913f7f2-0f5d-4301-8099-8ecd46c6b26c"><path id="uuid-283f61b8-3a50-4e59-a7a1-a8de731ac309" d="m92.69,253.08l13.49-7.52-4.13,14.19s.29-3.37-.93-3.98c-1.51-.76-4.64,2.02-4.64,2.02,0,0,2.38-3.49,1.37-4.81-1.05-1.36-5.15.1-5.15.1Z" style="fill:#55a; stroke:#55a; stroke-linecap:round; stroke-linejoin:round; stroke-width:2.34px;"/><path id="uuid-5694fbab-8128-488e-b182-bb0e0ef6bc1b" d="m103.6,243.76c-.24-.06-.41-.61-.24-.83.17-.21.64-.06.71.22.07.26-.24.67-.47.61Z" style="fill:none; stroke:#55a; stroke-linecap:round; stroke-linejoin:round; stroke-width:2.34px;"/><path id="uuid-17f55be1-2b68-4961-b2e7-9828241ccc42" d="m108.71,249.58c-.18-.17-.16-.64.02-.81.16-.14.49-.05.6.14.09.15,0,.4-.11.53-.12.14-.38.26-.51.13h0Z" style="fill:none; stroke:#55a; stroke-linecap:round; stroke-linejoin:round; stroke-width:2.34px;"/></g><g id="uuid-212c4aae-9053-46e1-80b0-a06177072b15"><path id="uuid-f983729e-e048-4aa2-946f-498e2b5daee1" d="m56.23,264.79l13.5-5.75-5.25,15.25s.05-3.47-1.19-4.28c-1.07-.7-3.81.53-3.81.53,0,0,1.73-3.44.84-4.79-.77-1.17-4.09-.96-4.09-.96Z" style="fill:#55a; stroke:#55a; stroke-linecap:round; stroke-linejoin:round; stroke-width:2px;"/><path id="uuid-b5023de2-f33d-41af-9e13-9a2177945bdc" d="m65.41,256.99c-.31-.06-.52-.66-.31-.89.21-.22.81-.06.9.23.09.28-.3.72-.59.66Z" style="fill:none; stroke:#55a; stroke-linecap:round; stroke-linejoin:round; stroke-width:2px;"/><path id="uuid-90ef154c-1692-446b-8178-f9003229be54" d="m71.68,263.8c-.24-.18-.21-.69.03-.87.2-.15.62-.06.76.15.11.17,0,.44-.14.57-.16.15-.48.28-.65.14h0Z" style="fill:none; stroke:#55a; stroke-linecap:round; stroke-linejoin:round; stroke-width:2px;"/></g><g id="uuid-afc5bda9-6f74-44c5-99ec-09a633f10a3e"><path id="uuid-67fb6ed7-0d12-4690-8c5a-74f6c2f49e91" d="m71.79,275.93l13.5-5.75-5.25,15.25s.05-3.47-1.19-4.28c-1.07-.7-3.81.53-3.81.53,0,0,1.73-3.44.84-4.79-.77-1.17-4.09-.96-4.09-.96Z" style="fill:#55a; stroke:#55a; stroke-linecap:round; stroke-linejoin:round; stroke-width:2px;"/><path id="uuid-e0dc6cf3-f3e4-4b0e-ade2-965a4eedf59c" d="m80.97,268.12c-.31-.06-.52-.66-.31-.89.21-.22.81-.06.9.23.09.28-.3.72-.59.66Z" style="fill:none; stroke:#55a; stroke-linecap:round; stroke-linejoin:round; stroke-width:2px;"/><path id="uuid-f983d58a-5c86-4654-965e-a926aace3553" d="m87.24,274.94c-.24-.18-.21-.69.03-.87.2-.15.62-.06.76.15.11.17,0,.44-.14.57-.16.15-.48.28-.65.14h0Z" style="fill:none; stroke:#55a; stroke-linecap:round; stroke-linejoin:round; stroke-width:2px;"/></g></g><g id="uuid-d8fdede3-e199-44d1-949f-7bc32f2e3e84"><path id="uuid-a8ae1cbb-f1de-4ec4-aa1b-2767d79fe423" d="m72.5,381.5l22-75.5-.25-8.5,2.5-8.25,4.5-4.75,4.5-1.5-8.1-.29-13.98,22.29-52.81-35.28-.85,78.53,42.5,33.25Z" style="fill:#f55;"/><path id="uuid-3edd56ca-a816-49b7-a76e-bbf2bdc51500" d="m329.75,346v-77.5l-2.38,1.25-15.88,28.25,10.75,12.5-10.25,8.25,14.38,24.62,3.38,2.62Z" style="fill:#f55;"/><path id="uuid-b5e93929-0c11-475f-9bb6-a1992a33e519" d="m225.88,351.62l34.38-30.38,8.12,3.25,7.25.5,8.75-2.88,1.38,3.5,3.12,1.25,3.75-1.75,7.12,6.62-54.25,38.62-8.88-8.25-10.75-10.5Z" style="fill:#5455aa; stroke:#55a; stroke-linecap:round; stroke-linejoin:round; stroke-width:2px;"/><path id="uuid-d1ef95a5-00e4-4aa9-a44f-c7c92573579f" d="m144.11,282.8l-34.23.46,6.42,6.57,2.14,9.16,101.48,91.71,19.41-16.66-15.44-12.38-11.16-12.68-6.11-10.24-1.22-13.45-15.59.31-45.7-42.79Z" style="fill:#f55;"/><path id="uuid-d0258232-fd1f-435a-82fc-f780eedcf8cb" d="m68.75,378.5l-38.75-30.25" style="fill:none; stroke:#55a; stroke-linecap:round; stroke-linejoin:round; stroke-width:2px;"/><path id="uuid-5948ef98-7353-4c5d-9c08-eed728f3d7c8" d="m228.75,509c-3.32-8.88-5.67-18.12-7-27.5-1.01-7.12-1.42-14.33-1-21.5.5-8.51,2.19-16.95,5-25-4.04-.62-8.05-1.46-12-2.5-3.72-.98-7.39-2.15-11-3.5l-45.5,80h71.5" style="fill:#ff5; stroke:#55a; stroke-linecap:round; stroke-linejoin:round; stroke-width:2px;"/><path id="uuid-89092b69-f147-4807-b322-8c7aa77a5933" d="m202.25,429l-8-6-49.5,86h12.5l45-80" style="fill:#f55; stroke:#55a; stroke-linecap:round; stroke-linejoin:round; stroke-width:2px;"/><path id="uuid-71e7c28c-6170-4d86-a250-e1e0d3fd65c8" d="m170,509s-4-5.92-.75-11c1.82-2.84,9.5-3.5,9.5-3.5,0,0-3.08-9.22-.5-12.5,2.63-3.34,12.5-2.5,12.5-2.5,0,0-5.15-10.99-2.5-15.5,3.84-6.55,10.67-4.34,10.67-4.34,0,0-4.07-7.88,1.33-14.16,2.8-3.26,12.75-2,12.75-2-3.61-4.28-3.45-5.49-4-7.75s-.41-3-.41-3" style="fill:none; stroke:#000100; stroke-linecap:round; stroke-linejoin:round; stroke-width:2px;"/><path id="uuid-549bd1ce-6fc3-46d4-b0e4-6f23941eb210" d="m199.86,455.84c.34-1.16.74-2.33,1.39-3.34.86-1.34,1.8-2.83,3.25-3.5,1.82-.84,4.34-1.36,6-.25,1.62,1.09,2.32,3.58,2,5.5-.37,2.22-4.25,5.25-4.25,5.25,0,0,5.38,1.1,6.5,3.25,1.05,2.02.41,4.97-1,6.75-1.39,1.76-4.1,3.16-6.25,2.5-2.41-.74-4.25-6.25-4.25-6.25,0,0-.55,4.3-1.75,6-1.07,1.51-2.66,3.06-4.5,3.25-1.63.17-3.61-.62-4.5-2-1.41-2.17-1.17-5.45,0-7.75,1.18-2.31,6.29-4.56,6.29-4.56,0,0-1.14,3.19,1.51,4.61,2.12,1.14,5.55-.97,6.47-3.19.78-1.88-.02-5.2-1.97-5.78-3.9-1.15-5.48,2.63-5.48,2.63,0,0,.24-2.11.54-3.13Z" style="stroke:#000100; stroke-linecap:round; stroke-linejoin:round; stroke-width:2px;"/><path id="uuid-ac467e73-d5eb-49e2-89d0-68a40eae5c08" d="m180.36,490.72c.34-1.16.74-2.33,1.39-3.34.86-1.34,1.8-2.83,3.25-3.5,1.82-.84,4.34-1.36,6-.25,1.62,1.09,2.32,3.58,2,5.5-.37,2.22-4.25,5.25-4.25,5.25,0,0,5.38,1.1,6.5,3.25,1.05,2.02.41,4.97-1,6.75-1.39,1.76-4.1,3.16-6.25,2.5-2.41-.74-4.25-6.25-4.25-6.25,0,0-.55,4.3-1.75,6-2.23,3.06-6.88,2.57-9,1.25-1.41-2.17-1.17-5.45,0-7.75,1.18-2.31,6.29-4.56,6.29-4.56,0,0-1.14,3.19,1.51,4.61,2.12,1.14,5.55-.97,6.47-3.19.78-1.88-.02-5.2-1.97-5.78-3.9-1.15-5.48,2.63-5.48,2.63,0,0,.24-2.11.54-3.13Z" style="stroke:#000100; stroke-linecap:round; stroke-linejoin:round; stroke-width:2px;"/><g id="uuid-136283cb-034c-4d10-ba9a-cb5ab4cc86fb"><g id="uuid-7d5668e2-34a5-4bcf-89b5-ec5db670f976"><path id="uuid-e1d3046f-6374-4f9a-a3fd-489e7fe99b9d" d="m173.9,423.35c-.52-4.58-1.65-9.67-2.84-12.92" style="fill:none; stroke:#55a; stroke-linecap:round; stroke-linejoin:round; stroke-width:2px;"/><path id="uuid-fa81b49c-9660-4456-b725-81fbafadad88" d="m169.68,429.54c-.79-8.12-3.1-14.76-4.71-20.64" style="fill:none; stroke:#55a; stroke-linecap:round; stroke-linejoin:round; stroke-width:2px;"/><path id="uuid-3b75f5c5-8cbe-4f0b-a9f8-5985ea4e6ca0" d="m165.17,437.15c-1.4-9.7-3.02-20.48-6.38-29.53" style="fill:none; stroke:#55a; stroke-linecap:round; stroke-linejoin:round; stroke-width:2px;"/><path id="uuid-02f2e3a3-66d4-4284-9232-7a36354c7382" d="m157.37,425.71c-.59-7.25-3.05-13.73-4.23-19.2" style="fill:none; stroke:#55a; stroke-linecap:round; stroke-linejoin:round; stroke-width:2px;"/><path id="uuid-12783cdb-ec3a-412a-b75e-ac8ccc7dcbfe" d="m151.1,418.31c-1.04-6.69-2.46-9.39-3.25-12.61" style="fill:none; stroke:#55a; stroke-linecap:round; stroke-linejoin:round; stroke-width:2px;"/><path id="uuid-2bd6ffdf-5fff-4e41-be3e-c1c665c73523" d="m144.45,412.25c-.75-2.67-1.62-4.75-2.37-6.76" style="fill:none; stroke:#55a; stroke-linecap:round; stroke-linejoin:round; stroke-width:2px;"/></g><g id="uuid-e4d3c5a5-2b9b-4550-958d-b2bff21abac3"><path id="uuid-b376b15e-4a8f-49cf-9554-4a9f5a454433" d="m109.25,509s-.98-12.88-7.75-19.75c-6.77-6.87-15.25-10.25-15.25-10.25" style="fill:none; stroke:#55a; stroke-linecap:round; stroke-linejoin:round; stroke-width:2px;"/><path id="uuid-77350ed0-4f43-4eb5-ba77-5200dd3f2fc5" d="m105.12,509s-1.27-10.77-6.64-16.78-12.11-8.22-12.11-8.22" style="fill:none; stroke:#55a; stroke-linecap:round; stroke-linejoin:round; stroke-width:2px;"/><path id="uuid-cd0b1bfe-15e7-463f-9f2f-474497520af9" d="m101.62,509s-1.56-7.84-5.54-12.42c-3.98-4.58-9.96-7.58-9.96-7.58" style="fill:none; stroke:#55a; stroke-linecap:round; stroke-linejoin:round; stroke-width:2px;"/><path id="uuid-bc99e95d-4754-4dca-8967-c91ea783fdc7" d="m97.12,509s-1.06-5.4-4.27-8.95-6.73-5.3-6.73-5.3" style="fill:none; stroke:#55a; stroke-linecap:round; stroke-linejoin:round; stroke-width:2px;"/><path id="uuid-0851e81b-30dc-4f7e-8409-6e756c297db0" d="m92.75,509s-.62-4.08-2.51-6.25-4.24-3.25-4.24-3.25" style="fill:none; stroke:#55a; stroke-linecap:round; stroke-linejoin:round; stroke-width:2px;"/></g><g id="uuid-3205fda7-9104-4cff-8ed0-5e8a67ee5542"><path id="uuid-bb2b1d82-9c4b-426d-96a5-d0946754905f" d="m110,507.75s.48-9.88,8.5-18.75c8.02-8.87,22-8,22-8" style="fill:none; stroke:#55a; stroke-linecap:round; stroke-linejoin:round; stroke-width:2px;"/><path id="uuid-dbe417ed-6f56-4ae1-bb14-860dfdeb1d7d" d="m113.38,508.25s1.27-8.52,8.39-16.03c7.12-7.51,15.86-6.47,15.86-6.47" style="fill:none; stroke:#55a; stroke-linecap:round; stroke-linejoin:round; stroke-width:2px;"/><path id="uuid-e94bcddb-db44-42a5-be87-787602361d38" d="m118.12,508.25s1.56-7.84,5.54-12.42c3.98-4.58,11.71-5.08,11.71-5.08" style="fill:none; stroke:#55a; stroke-linecap:round; stroke-linejoin:round; stroke-width:2px;"/><path id="uuid-aac98cc2-0fb8-49cc-9e68-58492a3e799c" d="m122.62,508.25s1.06-5.4,4.27-8.95,5.23-3.05,5.23-3.05" style="fill:none; stroke:#55a; stroke-linecap:round; stroke-linejoin:round; stroke-width:2px;"/></g><path id="uuid-5589b45e-5977-4f9e-882e-a36fbcaac8a4" d="m85.2,472.06s-6.14-18.82-8.45-28.44c-2.67-11.14-4.95-22.41-6.19-33.79-1.11-10.18-1.13-30.69-1.13-30.69l32.1,26.75s-8.9,12.18-11.55,19.15c-2,5.27-2.33,11.03-3.1,16.61-.72,5.23-1.12,10.5-1.41,15.77-.26,4.87-.28,14.64-.28,14.64Z" style="fill:#55a; stroke:#55a; stroke-linecap:round; stroke-linejoin:round; stroke-width:2px;"/><g id="uuid-13f3f6f9-d934-483c-91f9-aa48ea44bd43"><path id="uuid-e9cd9c84-700c-4c27-85a0-a9534997744a" d="m106.32,462.77s.22-5.08,0-7.6c-.24-2.66-.79-5.29-1.41-7.88-.68-2.86-2.4-5.51-2.53-8.45-.08-1.67,0-3.57.99-4.93.85-1.17,2.75-1.12,3.8-2.11.89-.84,1.97-3.1,1.97-3.1" style="fill:none; stroke:#55a; stroke-linecap:round; stroke-linejoin:round; stroke-width:2px;"/><path id="uuid-ec4a0657-bcec-4bfe-9bb7-b5b1035cdf4c" d="m121.53,439.68s3.46-4.06,2.96-6.34c-.32-1.43-1.95-2.5-3.38-2.82-1.57-.34-3.17.64-4.65,1.27-1.71.72-3,3.29-4.79,2.82-.73-.19-1.44-1.28-1.13-1.97.84-1.82,3.92-.94,5.91-1.13,2.43-.23,5.47-1.59,7.32,0,.94.8.81,2.45.56,3.66-.36,1.73-2.82,4.51-2.82,4.51Z" style="fill:#55a; stroke:#55a; stroke-linecap:round; stroke-linejoin:round; stroke-width:2px;"/></g><g id="uuid-2356b0a5-8d0d-44d8-843d-26fb1e1204c7"><path id="uuid-f57ee295-ea76-48c0-9d00-23e53e5f82a2" d="m142.37,471.78s-6.27,3.17-9.79,3.78c-3.37.58-7.05.68-10.32-.22-2.35-.65-6.08-3.56-6.08-3.56,0,0,5.22,1.93,7.95,2.34,3.4.51,6.9.6,10.3.1,2.74-.4,7.94-2.45,7.94-2.45h0Z" style="fill:#55a; stroke:#55a; stroke-linecap:round; stroke-linejoin:round; stroke-width:2px;"/><path id="uuid-5712b809-494d-4cf2-9c29-6626e26ec26a" d="m121.81,464.74l-2.82,2.25s4.45,1.55,6.76,1.97c2.5.45,5.11,1.08,7.6.56,2.38-.49,4.48-1.98,6.48-3.38,2.61-1.83,7.04-6.48,7.04-6.48" style="fill:none; stroke:#55a; stroke-linecap:round; stroke-linejoin:round; stroke-width:2px;"/><path id="uuid-aca4f48e-e79a-4981-a6a3-ff28a22f221f" d="m143.77,459.67s-6.78,3.32-10.42,4.22c-2.24.56-4.59.62-6.9.7-1.41.05-4.22-.14-4.22-.14l-2.96-5.07,4.79-2.25-4.39.73c1.52-4.47,6.72-7.33,9.46-9.18" style="fill:none; stroke:#55a; stroke-linecap:round; stroke-linejoin:round; stroke-width:2px;"/><path id="uuid-d02d2246-28b4-43f8-a640-34ef997764cd" d="m125.19,463.48s-2.02-3.4,0-6.34c1.17-1.7,4.35-1.21,6.19-.28,3.2,1.61,6.48,2.9,8.45,4.08l-5.91,1.41c1.06-1.73-.24-3.53-1.41-4.65-1.4-1.33-3.84-2.14-5.63-1.41-1.83.75-3.28,3.79-3.1,5.07.12.84,1.41,2.11,1.41,2.11h0Z" style="fill:none; stroke:#55a; stroke-linecap:round; stroke-linejoin:round; stroke-width:2px;"/><path id="uuid-315b06c9-fb3e-4405-b51b-55d381991523" d="m128.57,461.93c.82.28,2.1-.83,1.97-1.69-.13-.91-1.81-1.7-2.53-1.13-.75.6-.34,2.5.56,2.82Z" style="fill:none; stroke:#55a; stroke-linecap:round; stroke-linejoin:round; stroke-width:2px;"/></g><g id="uuid-aabb3ea4-0e2b-44fc-a8ce-3331cc8d7b14"><path id="uuid-e2b449e4-fb83-42cc-abf3-20f9e36a34ab" d="m87.7,473.55s5.79,2.06,8.6,1.34c3.41-.88,8.33-6.48,8.33-6.48,0,0-5.3,4.64-8.61,5.18-2.89.47-8.57-1.9-8.57-1.9l.25,1.87Z" style="fill:#55a; stroke:#55a; stroke-linecap:round; stroke-linejoin:round; stroke-width:2px;"/><path id="uuid-da42a715-7579-4558-8cbc-c5b3991d2256" d="m106.46,463.76s-4.01,4.06-6.62,4.93c-2.85.94-6.21,1.1-9.01,0-1.67-.66-3.94-3.66-3.94-3.66" style="fill:none; stroke:#55a; stroke-linecap:round; stroke-linejoin:round; stroke-width:2px;"/><path id="uuid-9455245e-6c6b-4133-be5d-26468085824c" d="m104.92,461.93s-4.96,2.09-7.6,2.25c-2.28.14-4.56-.51-6.76-1.13-1.46-.41-4.22-1.69-4.22-1.69,0,0,2.62-2.55,4.22-3.38,2.08-1.08,4.41-2.02,6.76-1.97,1.19.02,3.38,1.13,3.38,1.13l3.66,1.44c-.99-2.06-2.73-5.79-4.08-6.93" style="fill:none; stroke:#55a; stroke-linecap:round; stroke-linejoin:round; stroke-width:2px;"/><path id="uuid-043820f7-b335-4348-b05e-907939a3c490" d="m100.97,462.49c1.48-3.08-.1-3.09-.28-4.51l-1.13-1.13" style="fill:none; stroke:#55a; stroke-linecap:round; stroke-linejoin:round; stroke-width:2px;"/><path id="uuid-a97aeec9-37b6-4136-b559-dd76943768dd" d="m96.19,461.65c.66-.49,1.07-1.75.56-2.39-.58-.74-2.15-.66-2.82,0-.53.53-.51,1.71,0,2.25.52.55,1.65.59,2.25.14Z" style="fill:none; stroke:#55a; stroke-linecap:round; stroke-linejoin:round; stroke-width:2px;"/></g><g id="uuid-2c15a3bc-2c4a-4fe7-ab42-5958ac8d7efe"><path id="uuid-37bc7278-d21b-40ed-b07c-9aca127f77f5" d="m124.34,418.43s-4.8,2.01-7.46,1.99c-2.02-.01-3.61-1.55-5.63-1.59-2.82-.06-5.35,2.52-8.03,1.89-1.09-.25-1.97-1.99-1.97-1.99,0,0,1.9.81,2.96.8,2.5-.04,4.4-1.95,6.9-2.09,2.51-.14,4.82,1.14,7.32,1.29,1.97.12,5.91-.3,5.91-.3h0Z" style="fill:#55a; stroke:#55a; stroke-linecap:round; stroke-linejoin:round; stroke-width:2px;"/><path id="uuid-f7626eb5-9c55-4b1b-bacf-73fc0e8c38e9" d="m117.3,411.24s-3.1,1.66-4.79,1.69c-1.91.04-5.49-1.69-5.49-1.69" style="fill:none; stroke:#55a; stroke-linecap:round; stroke-linejoin:round; stroke-width:2px;"/><path id="uuid-139648ec-80b5-4306-9936-b4bc06dccfea" d="m118.01,415.04s-4.08-1.36-6.19-1.41c-1.81-.04-5.35.99-5.35.99" style="fill:none; stroke:#55a; stroke-linecap:round; stroke-linejoin:round; stroke-width:2px;"/></g><path id="uuid-c5261a3d-acbd-42e5-857f-e4456e885f15" d="m85.5,508.25s.08-23.67.5-35.5c.47-13.1-.48-26.43,2.25-39.25,1.22-5.75,3.72-11.19,6.25-16.5,1.99-4.18,3.53-8.93,7-12,2.85-2.52,6.73-3.99,10.5-4.5,4.25-.57,8.65.49,12.75,1.75,5.77,1.77,11.23,4.64,16.25,8,4.71,3.15,9.07,6.94,12.75,11.25,2.82,3.3,5.25,7.02,7,11,1.29,2.92,2.5,9.25,2.5,9.25" style="fill:none; stroke:#55a; stroke-linecap:round; stroke-linejoin:round; stroke-width:2px;"/></g><path id="uuid-ae3c3953-a425-4966-ba71-bb5de331362c" d="m57.75,447.75l-9.75,16.25-8.75-16.25,9.5-15.75,9,15.75Z" style="fill:#ff5; stroke:#000; stroke-linecap:round; stroke-linejoin:round; stroke-width:2px;"/><path id="uuid-5cdc9f9d-3043-45a6-8118-75f81baa8c56" d="m52.5,448.25l-4,7-3.75-6.75,3.75-7.5,4,7.25Z" style="fill:#f55; stroke:#000; stroke-linecap:round; stroke-linejoin:round; stroke-width:2px;"/><path id="uuid-d0436bde-2fc2-4ecb-94d0-ba125542e936" d="m49.5,429.12c0-3.11,2.41-5.62,5.38-5.62s5.38,2.52,5.38,5.62-2.41,5.62-5.38,5.62-5.38-2.52-5.38-5.62Z" style="fill:#ff5; stroke:#000; stroke-linecap:round; stroke-linejoin:round; stroke-width:2px;"/><path id="uuid-d7f315c0-3a27-485f-899a-490c735d891a" d="m38,429.62c0-3.24,2.46-5.88,5.5-5.88s5.5,2.63,5.5,5.88-2.46,5.88-5.5,5.88-5.5-2.63-5.5-5.88Z" style="fill:#ff5; stroke:#000; stroke-linecap:round; stroke-linejoin:round; stroke-width:2px;"/><path id="uuid-f5d39842-6823-4202-88ee-0e13c0108f29" d="m40,345.75c0-4.56,4.03-8.25,9-8.25s9,3.69,9,8.25-4.03,8.25-9,8.25-9-3.69-9-8.25Z" style="fill:#ff5; stroke:#000; stroke-linecap:round; stroke-linejoin:round; stroke-width:2px;"/><path id="uuid-f4e27b83-f20a-4cf4-a6d3-b025b251af8f" d="m49.25,354c3.85,1.01,7.28,4.41,8.76,8.11,1.72,4.32-.41,9.3-.9,13.92-1.1,10.33-3.1,20.54-4.57,30.82-.96,6.71-2.06,16.49-2.79,20.15-1.89.53-2.13-.83-2.07-2.51-1.9-15.05-4.1-30.06-5.7-45.14-.52-4.89-2.06-9.84-1.27-14.69.57-3.46,1.51-7.39,4.19-9.64,1.14-.96,2.91-1.41,4.35-1.03h0Z" style="fill:#ff5; stroke:#000; stroke-linecap:round; stroke-linejoin:round; stroke-width:2px;"/><path id="uuid-58b58c32-6de6-4799-b056-26eb4bc38d2d" d="m48.5,407.25s-1.54-16.68-2.5-25c-.52-4.51-1.71-8.96-1.75-13.5-.02-2.26-.23-4.71.75-6.75.71-1.49,3.5-3.5,3.5-3.5" style="fill:none; stroke:#000; stroke-linecap:round; stroke-linejoin:round; stroke-width:2px;"/><path id="uuid-200d7f3c-cc27-4002-afb4-0899aad2e581" d="m47.5,350.25c-1.47-1.53-3.06-3.58-2.82-5.68.17-1.41,1.41-2.72,2.72-3.28.87-.37,1.9.11,2.84.21" style="fill:none; stroke:#000; stroke-linecap:round; stroke-linejoin:round; stroke-width:2px;"/><path id="uuid-759cd000-1474-4018-bd35-19c54afa15ef" d="m53.5,283.25s2.1,17.81,2.75,26.75c.43,5.99,1.68,12.07.75,18-.41,2.63-.78,5.71-2.75,7.5-1.47,1.33-3.77,1.51-5.75,1.5-1.9-.01-4.15-.16-5.5-1.5-2.4-2.38-2.43-6.39-2.75-9.75-.54-5.75.82-11.52,1.5-17.25.79-6.69,2.07-13.32,3-20,.45-3.25,1.25-9.75,1.25-9.75l7.5,4.5Z" style="fill:#ff5; stroke:#000; stroke-linecap:round; stroke-linejoin:round; stroke-width:2px;"/><path id="uuid-bf8b7246-26ca-4025-a37d-46dcb626a7ca" d="m48.5,332.5s-3.07-2.12-3.75-3.75c-1.12-2.69-.11-5.84,0-8.75.21-5.68.69-11.35,1.25-17,.73-7.35,2.75-22,2.75-22" style="fill:none; stroke:#000; stroke-linecap:round; stroke-linejoin:round; stroke-width:2px;"/><path id="uuid-9b1657ba-42da-4c9e-b707-582ddb97a57b" d="m180,412.5l9-15.75-78.25-72.75-16.75,63-9.41,2.84,17.5,15.34s5.18-3.51,8.16-4.19c3.41-.78,7.03-.23,10.5.25,3.66.51,10.75,2.75,10.75,2.75,0,0,13.89.72,20.75,1.75,5.82.87,11.54,2.32,17.25,3.75,3.53.89,10.5,3,10.5,3Z" style="fill:#ff5; stroke:#000; stroke-linecap:round; stroke-linejoin:round; stroke-width:2px;"/><path id="uuid-ebae4a5a-2653-44f8-900d-709130f5164a" d="m182.5,407.5s-12.91-4.02-19.5-5.5c-5.36-1.21-10.8-2.07-16.25-2.75-6.14-.77-12.32-1.3-18.5-1.5-4.75-.15-9.52-.18-14.25.25-5.13.46-15.25,2.5-15.25,2.5" style="fill:none; stroke:#000; stroke-linecap:round; stroke-linejoin:round; stroke-width:2px;"/><path id="uuid-cfa565ed-c80d-411e-8719-adf62a428fad" d="m183.25,391.75s-12.74-3.73-19.25-5c-6.19-1.21-12.47-1.93-18.75-2.5-4.99-.46-9.99-.76-15-.75-6.01.02-12.02.44-18,1-6.19.58-18.5,2.43-18.5,2.43" style="fill:none; stroke:#000; stroke-linecap:round; stroke-linejoin:round; stroke-width:2px;"/><path id="uuid-7ec9d7af-fef4-492a-85a2-af037b561490" d="m165,381.75s-18.62-3.31-28.04-3.83c-6.8-.37-13.63,0-20.42.54-5.21.41-15.53,2.04-15.53,2.04l12.25-48,51.75,49.25Z" style="fill:none; stroke:#000; stroke-linecap:round; stroke-linejoin:round; stroke-width:2px;"/><path id="uuid-4cb43480-7939-48ef-a671-265e57600d69" d="m148,373.5s-14.66-1.17-22-1c-6.14.14-18.36,1.68-18.36,1.68l8.11-33.18,32.25,32.5Z" style="fill:none; stroke:#000; stroke-linecap:round; stroke-linejoin:round; stroke-width:2px;"/><path id="uuid-783e192b-e678-4da6-a7d0-c178d4951acd" d="m125,351.25l-7.46-3.21-4.29,4.71" style="fill:none; stroke:#000; stroke-linecap:round; stroke-linejoin:round; stroke-width:2px;"/><path id="uuid-a0a7d887-09f9-4987-b6f2-665adb6eeed1" d="m131.99,357.64c.5,1-13.24-4.14-13.24-4.14l-7.25,7" style="fill:none; stroke:#000; stroke-linecap:round; stroke-linejoin:round; stroke-width:2px;"/><path id="uuid-df32a8f1-d7fd-4653-a9e7-346afdc3a45e" d="m139.92,365.96l-19.17-7.46-11.36,9.82" style="fill:none; stroke:#000; stroke-linecap:round; stroke-linejoin:round; stroke-width:2px;"/><path id="uuid-b91cceb0-711f-485a-85f2-86d4fa065c44" d="m143.35,373.03l-21.6-9.53-11.18,9.96" style="fill:none; stroke:#000; stroke-linecap:round; stroke-linejoin:round; stroke-width:2px;"/><path id="uuid-28f73f33-705f-4319-b76f-037a5561937b" d="m131.14,372.5l-7.89-4.25-5.25,4" style="fill:none; stroke:#000; stroke-linecap:round; stroke-linejoin:round; stroke-width:2px;"/><path id="uuid-26e6500c-47e5-48f7-9374-423831b003b4" d="m141.5,393.5l-6-.57v-4.5l6,.57v4.5Z" style="fill:none; stroke:#000; stroke-linecap:round; stroke-linejoin:round; stroke-width:2px;"/><path id="uuid-2e50e378-4c98-48bb-83cc-ace26a6cb1eb" d="m184.76,403.31l-4.19-1.79,1.91-4.08,4.44,2.54-2.16,3.33Z" style="fill:none; stroke:#000; stroke-linecap:round; stroke-linejoin:round; stroke-width:2px;"/><path id="uuid-7d1af8b3-c70c-4c30-b0dc-dbc9ff65e594" d="m176.33,399.72l-5.81-1.71,1.04-4.58,5.77,1.86-1,4.44Z" style="fill:none; stroke:#000; stroke-linecap:round; stroke-linejoin:round; stroke-width:2px;"/><path id="uuid-1d830280-7dfb-4fcf-b3b0-088006bffcd7" d="m165.03,396.98l-6.25-1.06.47-4.48,6.11,1.06-.33,4.48Z" style="fill:none; stroke:#000; stroke-linecap:round; stroke-linejoin:round; stroke-width:2px;"/><path id="uuid-94239948-c0dd-43e9-9ca2-c20b78b7920c" d="m153.2,394.79l-6.28-.66.17-4.5,6.14.51-.03,4.64Z" style="fill:none; stroke:#000; stroke-linecap:round; stroke-linejoin:round; stroke-width:2px;"/><path id="uuid-c68ec4a8-27af-4169-b6b0-1fe4cf6686db" d="m129.91,392.72l-6-.23.17-4.5,6,.23-.17,4.5Z" style="fill:none; stroke:#000; stroke-linecap:round; stroke-linejoin:round; stroke-width:2px;"/><path id="uuid-505737d1-4d43-4cb3-81b1-25e7384c7704" d="m118.46,392.93l-5.66.39-.19-4.46,5.8-.25.04,4.32Z" style="fill:none; stroke:#000; stroke-linecap:round; stroke-linejoin:round; stroke-width:2px;"/><path id="uuid-175fd081-2429-4008-83e5-a0c8a8bf78e6" d="m107.74,393.75l-5.37.82-.61-4.6,5.37-.82.61,4.6Z" style="fill:none; stroke:#000; stroke-linecap:round; stroke-linejoin:round; stroke-width:2px;"/><path id="uuid-6f77f113-bafb-4479-9184-d96570034334" d="m98.02,395.71l-2.84,1.36-3.44-3.77,5.2-1.94,1.08,4.35Z" style="fill:none; stroke:#000; stroke-linecap:round; stroke-linejoin:round; stroke-width:2px;"/><path id="uuid-11e51132-7aa4-4500-9496-3b6d3e3912ea" d="m84.57,390.04l-11.47-9.32,21.26-75.01s-.48-6.61.24-9.79c.69-3.06,1.67-6.32,3.82-8.6,2.03-2.15,4.93-4.13,7.88-4.06,2.57.06,4.88,2,6.69,3.82,1.61,1.62,2.63,3.8,3.34,5.97.6,1.83.72,5.73.72,5.73l102.96,93.16s-9.33,8.21-13.38,12.9c-4.66,5.41-8.96,11.2-12.42,17.44-17.28,31.1-49.93,86.47-49.93,86.47l-17.68-.24s9.36-18.42,14.33-27.47c7.05-12.82,14.7-25.29,21.98-37.98,5.61-9.77,11.17-19.58,16.72-29.38,3.2-5.65,9.56-16.96,9.56-16.96l-78.11-72.62-17.68,62.35-8.84,3.58Z" style="stroke:#55a; stroke-linecap:round; stroke-linejoin:round; stroke-width:2px;"/><path id="uuid-8db4c9c8-8b2a-40ba-b033-010e1ac1a781" d="m220.04,392.08l18.71-16.58,7.5-5.5,38.65-27.76,8.12-6.12,7.5-5,28.74,14.38" style="fill:none; stroke:#55a; stroke-linecap:round; stroke-linejoin:round; stroke-width:2px;"/><path id="uuid-b98587cd-517c-4975-b046-e6c08e08b800" d="m301.35,331.4c-3.23-2.02-9.1-6.9-9.1-6.9,0,0-1.44,1.89-2.5,2-1.85.2-4.35-.75-5-2.5-.76-2.03,1.71-3.98,2.5-6,.86-2.2,1.98-4.33,2.44-6.65.72-3.63.88-7.41.47-11.09-.41-3.7-2.83-7.05-2.91-10.77-.03-1.54-.26-3.63,1-4.5,1.94-1.34,7,1,7,1l26.5-12.5c-9.14-5.57-14.78-10.24-22.5-14.79-7.22-4.56-20-14.21-20-14.21,0,0-6.72,8.29-10,12.5-5.42,6.94-10.21,14.37-16,21-4.03,4.61-8.45,8.9-13,13-5.1,4.6-11.63,7.69-16,13-3.84,4.66-6.86,10.19-8.5,16-1.45,5.14-2.41,10.84-1,16,1.64,6.02,6.4,10.79,10.5,15.5,6.06,6.96,20.56,18.53,20.56,18.53l-5.5,4s-13.42-9.94-19.06-16.03c-5.44-5.87-11.55-11.88-14-19.5-1.87-5.81-1.17-12.33,0-18.32,1.19-6.07,3.44-12.12,7-17.18,3.74-5.31,9.39-8.99,14.5-13,3.02-2.37,6.58-4.01,9.5-6.5,5.91-5.06,11.07-10.98,16-17,4.92-6.01,9.21-12.52,13.5-19,2.81-4.24,8-13,8-13l52,35-16,28,11,13-10.5,8,15,26s-17.7-7.97-25.9-13.1Z" style="fill:#ff5; stroke:#55a; stroke-linecap:round; stroke-linejoin:round; stroke-width:2px;"/><path id="uuid-8342d999-1e74-4609-b8fe-6569afa239ba" d="m292.75,324s2.62-6.46,3.32-9.85c1.06-5.1,1.61-10.38,1.29-15.59-.26-4.27-2.62-12.56-2.62-12.56" style="fill:none; stroke:#55a; stroke-linecap:round; stroke-linejoin:round; stroke-width:2px;"/><path id="uuid-d7e75d06-0af9-4970-bdbd-52333858f6fa" d="m282.53,328.01c2.69-.15,5.65-.23,8.01,1.08,3.06,1.7,4.62,5.27,6.68,8.11,0,0-5.97.61-8.81-.15-2.43-.66-4.49-2.32-6.6-3.7-1.79-1.17-5.1-3.87-5.1-3.87,0,0,3.82-1.35,5.82-1.47Z" style="fill:#ff5; stroke:#55a; stroke-linecap:round; stroke-linejoin:round; stroke-width:2px;"/><path id="uuid-8cd49f39-e591-466e-ba82-1d0bf3120ba8" d="m294.75,350.5s-1.4-4-2.8-5.51c-2.17-2.35-5.4-3.44-8.2-4.99-3.59-1.98-8.01-2.7-11-5.5-3.04-2.85-6.3-10.79-6.3-10.79,3.03.56,5.17,2.26,8.2,1.99,0,0,2.52,4.64,4.5,6.3,2.38,1.99,5.6,2.66,8.4,4,2.57,1.23,5.45,1.95,7.7,3.7,1.64,1.28,3.14,2.9,3.99,4.8.9,2,1,6.5,1,6.5l-5.5-.5Z" style="fill:#ff5; stroke:#55a; stroke-linecap:round; stroke-linejoin:round; stroke-width:2px;"/><path id="uuid-8f77fead-4909-4116-a269-8944ffdaccc0" d="m305.9,333.33l-9.15-17.84,6.54-7.25-5.54-10.24,8.1-16.2,8.79-3.7-10.2,19.39,6.3,11.5-7.3,7.7,10.93,20.5-8.48-3.87Z"/><path id="uuid-b21a1d34-1c0a-474a-a3e4-01e508bb7df1" d="m302.37,370.15s3.98,5.45,3.38,8.42c-.5,2.45-2.89,4.63-5.3,5.31-1.88.53-4.23-.08-5.7-1.37-1.75-1.53-2.52-4.18-2.5-6.5.01-1.8,2-5,2-5,0,0-4.04,3.54-6.5,3.5-2.32-.04-4.85-1.49-6-3.5-1.08-1.88-.63-4.43,0-6.5.52-1.73,1.33-3.83,3-4.5,2.94-1.18,9.28,2.06,9.28,2.06,0,0-2.7-5.95-1.59-8.66.77-1.88,2.97-3.48,5-3.5,3-.03,6.31,2.24,7.5,5,.95,2.2-1.2,7.1-1.2,7.1,0,0,5.08-2.3,7.5-1.5,2.13.71,4.36,2.76,4.5,5,.17,2.86-2.24,6.09-4.94,7.05-2.76.98-8.44-2.4-8.44-2.4h0Z" style="fill:#ff5; stroke:#55a; stroke-linecap:round; stroke-linejoin:round; stroke-width:2px;"/><path id="uuid-84496acd-5e5f-4ba8-abc0-dd436f6d303d" d="m306.75,366.5c-3.29,2.16-6.72,3.99-9,8.5-2.26-4.68-4.9-6.67-7.5-9,2.61-1.28,5.21-2.62,8-8.5,1.96,3.26,3.22,6.73,8.5,9Z" style="fill:none; stroke:#55a; stroke-linecap:round; stroke-linejoin:round; stroke-width:2px;"/><path id="uuid-f62994c9-1f8a-449d-b27a-b64e81e711f9" d="m304.44,371.69l7.95,3.34,1.62,7.21-6.97-2.56-2.6-7.98Z" style="fill:#f55; stroke:#55a; stroke-linecap:round; stroke-linejoin:round; stroke-width:2px;"/><path id="uuid-8c631169-e6c1-4627-acb5-8a2ddd926f52" d="m292.75,373l-1.98,7.72-7.52,3.28,2.5-8.5,7-2.5Z" style="fill:#f55; stroke:#55a; stroke-linecap:round; stroke-linejoin:round; stroke-width:2px;"/><path id="uuid-2bc86678-798c-413c-b03e-fbef9911be15" d="m292.98,361.64l-1.23-7.14-8-4,1.5,8.5,7.73,2.64Z" style="fill:#f55; stroke:#55a; stroke-linecap:round; stroke-linejoin:round; stroke-width:2px;"/><path id="uuid-fb186a05-8172-4ff7-9af8-52bac3c8d4f6" d="m303.7,362.26l8.35-3.27,1.61-7.7-7.91,3.21-2.05,7.76Z" style="fill:#f55; stroke:#55a; stroke-linecap:round; stroke-linejoin:round; stroke-width:2px;"/><path id="uuid-bcf435fb-d69d-4947-bd8a-22df92d6214a" d="m285.13,321.82c-3.74,1.5-7.63,3.43-11.66,3.27-5.19-.2-10.14-2.76-14.63-5.36-1.97-1.14-5.05-2.12-5.23-4.39-.16-1.96,1.97-3.91,3.86-4.47,2.47-.73,4.91,1.64,7.43,2.17,2.42.51,9.34,1.12,7.35.96-4.73-.38-9.74-1.18-13.7-3.78-1.6-1.05-3.69-2.57-3.59-4.48.08-1.71,1.93-3.25,3.59-3.67,3.34-.84,6.44,2.64,9.85,3.1,1.6.22,6.5-.16,4.85-.17-4.09-.02-8.52-.73-11.89-3.05-1.45-.99-3.57-2.62-3.05-4.3.63-2.05,3.9-1.99,6.03-2.25,4.8-.6,10.59,1.91,14.42,1.6-4.77-.19-6.96-.22-10.02-1.65-1.66-.78-4.39-1.77-4.17-3.59.24-1.96,3.35-2.3,5.29-2.67,2.93-.57,5.95,1,8.93.74,2.39-.21,4.69-1.09,6.97-1.83" style="fill:none; stroke:#55a; stroke-linecap:round; stroke-linejoin:round; stroke-width:2px;"/><path id="uuid-d2b7e799-de2b-4cc7-a296-db78749de225" d="m265.75,324.5c1.82,3.29,2.68,7.24,2.5,11-.16,3.16-2.21,5.94-3,9-.68,2.63-1.5,8-1.5,8,0,0-4.15-6.72-5-10.5-.7-3.09-.54-6.38,0-9.5.42-2.44,1.46-4.75,2.5-7,.56-1.22,2-3.5,2-3.5,0,0,1.93,1.47,2.5,2.5Z" style="fill:#ff5; stroke:#55a; stroke-linecap:round; stroke-linejoin:round; stroke-width:2px;"/><g id="uuid-0dcb7a7e-f829-4916-8e54-450a110c1724"><path id="uuid-5abf05b3-6b26-4617-b14a-52adacdfabf1" d="m237,335l-13.5,5.75,5.25-15.25s-.05,3.47,1.19,4.28c1.07.7,3.81-.53,3.81-.53,0,0-1.73,3.44-.84,4.79.77,1.17,4.09.96,4.09.96Z" style="fill:#55a; stroke:#55a; stroke-linecap:round; stroke-linejoin:round; stroke-width:2px;"/><path id="uuid-767db9a8-e5fd-4ae4-9e17-b350bf86a0f2" d="m227.82,342.81c.31.06.52.66.31.89-.21.22-.81.06-.9-.23-.09-.28.3-.72.59-.66Z" style="fill:none; stroke:#55a; stroke-linecap:round; stroke-linejoin:round; stroke-width:2px;"/><path id="uuid-b6f69f32-f60a-48e6-b5ef-6fed64309a79" d="m221.55,335.99c.24.18.21.69-.03.87-.2.15-.62.06-.76-.15-.11-.17,0-.44.14-.57.16-.15.48-.28.65-.14h0Z" style="fill:none; stroke:#55a; stroke-linecap:round; stroke-linejoin:round; stroke-width:2px;"/></g><path id="uuid-a91e480d-83f0-4207-8f0d-6c7d562bd296" d="m144.25,282l45.5,42.75,16.64-.1c1.44-10.69,4.18-16.19,9.11-23.9l-15.5-1.25-19.25-17.75" style="fill:#ff5; stroke:#55a; stroke-linecap:round; stroke-linejoin:round; stroke-width:2px;"/><path id="uuid-521fb60a-0c33-410d-a52c-997fe98d9a93" d="m191.56,321l14.56.03.41-3-14.44-.07-37.84-36.31c-.57-.55-1.59-.53-2.14.05-.55.57-.53,1.59.05,2.14l38.31,36.75c.29.27.69.42,1.09.41h0Z" style="fill:#000200;"/><path id="uuid-49922b18-25b7-46c8-91e5-7a73cb70abf7" d="m209.25,311.96l-14,.04-31.5-29.5" style="fill:none; stroke:#55a; stroke-linecap:round; stroke-linejoin:round; stroke-width:2px;"/><path id="uuid-8b5ddfcc-eba3-43d4-9037-8abd1b93ba48" d="m210.68,306.88l1.66-2.77-13.72-.33-22.34-21.59c-.52-.7-1.68-.77-2.28-.15s-.49,1.78.22,2.28l22.75,22.03c.26.26.63.42,1,.44l12.71.1Z" style="fill:#000200;"/><path id="uuid-f22d62a6-c737-4016-b23b-cd8726b0489d" d="m238.75,281.75l-139.5.5" style="fill:none; stroke:#55a; stroke-linecap:round; stroke-linejoin:round; stroke-width:2px;"/><path id="uuid-61d41549-529f-4d8a-8dd0-685610f596d2" d="m65.01,373.24c2.42-1.18,4.34-3.13,6.34-4.85,4.35-4.93,7.71-12.66,6.41-19.41-.63-2.7-2.08-5.09-3.47-7.45-.15-2.88-.54-6.36,1.56-8.66,1.75-1.63,5.84,1.93,5.76-1.75-1.3-2.2-4.68-2.13-6.75-1.02-2.27.41-3.44,4.79-3.62,4.87-.99-4.45-1.65-9-1.61-13.56.92-3.46,2.87-5.5,5.47-7.21,3.04-1.67,6.29,1.02,7.15,3.94-.17,2.15,3.18,4.28,3.55,1.26-.93-3.56-2.94-7.65-6.9-8.49-3.06-.94-6.46.66-8.17,3.25,1.33-3.43,2.96-7.62.64-11.01-1.36-2.42-7.65-4.77-8.07-.96,1.33,1.98,5.36.33,6.07,3.58.71,2.65-.87,5.21-1.6,7.71-1.63,3.96-1.11,9.57-.96,13.74.49,6.04,1.61,11.03,5.07,16.14.64,1.14,2.41,3.91,2.01,4.14-2.05-2-5.24-2.28-7.71-.9-2.25.83-6.02,5.55-2.46,6.69,2.12-1.29,3.01-5.56,6.51-4.34,2.61,1.24,5.95,3.48,4.25,6.66-.9,2.97-2.71,10.79-10.18,14.49-1.25,1.02-1.29,3.21.72,3.15h0Z" style="fill:#fff;"/><g id="uuid-afe764fa-c757-472a-a4b4-81079d4751cc"><path id="uuid-cd26f735-c177-46c5-bd42-bd4ff6b4f578" d="m221.47,381.75c5.47.23,11.56-5.39,8.92-10.98-1.03-3.48-6.19-5.43-9-3.04-.83,1.16.59,2.82,1.87,2.18,7.06-1.56,5.13,9.36-.88,8.72-5.54,1.03-7.76-5.1-8.94-9.31-1.91-5.2-.77-10.96-2.81-16.16-1.58-7.91-5.67-15.88-13.28-19.46-4.97-3.03-10.9-2.35-16.2-.74-5.56.47-12.09,2.21-16.72-1.99-3.67-2.76-6.36-7.38-5.88-11.94,2.59-3.44,7.68-6.57,11.27-2.48,2.52,2.22-.08,6.2,1.84,8.48,1.3.92,2.85-.68,2.41-2.08.51-4.15-.74-8.95-5.01-10.59-3.78-2.95-9.21,1.62-10.82,2.02-.56-5.75-2-11.6-4.71-16.71-3.68-6.23-11.76-5.82-17.95-4.86-3.65,2.12-12.72,2.96-12.92-2.61,1.16-3.66,4.46-1.62,6.94-1.49,1.64-.54,1.05-2.98-.57-3.07-5.5-3.86-13.1,4.87-7.77,9.3,2.95,3.21,10.63,2.19,11.8,2.52-3.51,4.94,0,12.12,5.75,13.08,3,.75,6.93-1.03,8.35-3.73.21-1.76-2.22-2.18-3.08-.84-4.25,4.82-12.32-1.97-8.48-7,2.17-3.76,6.55-4.24,10.38-3.26,6.38,1.46,6.92,9.09,8.6,14.24,1.54,6.58-.49,14.34,4.44,19.84,3.72,5.1,10.18,8.07,16.48,6.8,2.53.04,8.14-1.95,4.4,1.86-3.01,5.15-1.7,13.22,4.56,15.24,2.4.54,4.6,2.08,6.94,2.29,4,2.29,11.29,1.25,11.87,7.31,1.02,2.85-2.5,4.2-2.46,6.63.53,1.81,3.12,1.07,3.59-.46,3.93-4.68,1.4-13.1-4.89-14.08-2.29-.71-6.26-.88-2.38-2.81,3.13-2.55,1.65-8.56-1.91-9.91-1.77-.14-2.12,2.48-.52,3.04,4.14,6.01-5.83,8.7-9.69,4.91-5.08-2.2-4.2-9.37-1.06-12.89,1.89-4.54,7.78-3.42,11.3-1.7,7.25,3.05,10.99,10.56,12.49,17.88,2.06,5.82.73,12.22,3.29,17.93,1.28,4.94,4.73,10.16,10.45,9.92h0Z" style="fill:#fff;"/><path id="uuid-7dfbb02c-250d-4d54-b9aa-842799ce46ae" d="m216.24,362.37c0-1.1,1.01-2,2.25-2s2.25.9,2.25,2-1.01,2-2.25,2-2.25-.9-2.25-2Z" style="fill:#fff;"/><path id="uuid-2b7dfa2b-c57f-440b-9958-b1b2c26543a7" d="m170.7,342.88c0-1.1,1.01-2,2.25-2s2.25.9,2.25,2-1.01,2-2.25,2-2.25-.9-2.25-2Z" style="fill:#fff;"/><path id="uuid-6382645a-82a5-4b66-be9b-c0eacdb59fc8" d="m177.69,325.69c0-1.1,1.01-2,2.25-2s2.25.9,2.25,2-1.01,2-2.25,2-2.25-.9-2.25-2Z" style="fill:#fff;"/><path id="uuid-1e95cf0c-a0ed-4bf4-8294-db588a95fc20" d="m145.63,317.82c0-1.1,1.01-2,2.25-2s2.25.9,2.25,2-1.01,2-2.25,2-2.25-.9-2.25-2Z" style="fill:#fff;"/></g><path id="uuid-881539d4-f118-4535-ad9e-671d95488bcf" d="m184.39,382.76s-.55-3.6-.14-5.33c.5-2.08,1.76-3.94,3.04-5.66.59-.79,2.12-1.09,2.1-2.07-.03-1.56-1.91-3.21-3.47-3.13-1.76.08-2.91,2.26-3.58,3.89-.85,2.1-.6,4.57-.2,6.8.35,1.95,2.24,5.51,2.24,5.51h0Z" style="fill:#ff5;"/><path id="uuid-266ebccf-8959-4367-8a1e-b972d258aff7" d="m179,378.29s-1.02-2.32-1-3.57c.03-1.5.69-2.99,1.38-4.39.32-.64,1.44-1.14,1.26-1.8-.29-1.04-2-1.8-3.18-1.45-1.33.39-1.85,2.08-2.09,3.3-.3,1.58.3,3.19.99,4.62.6,1.25,2.64,3.28,2.64,3.28Z" style="fill:#ff5;"/><path id="uuid-02fc6bd4-561c-4bcf-a970-25603deab38d" d="m174.11,373.44s-1.02-2.32-1-3.57c.03-1.5.69-2.99,1.38-4.39.32-.64,1.44-1.14,1.26-1.8-.29-1.04-2-1.8-3.18-1.45-1.33.39-1.85,2.08-2.09,3.3-.3,1.58.3,3.19.99,4.62.6,1.25,2.64,3.28,2.64,3.28Z" style="fill:#ff5;"/><path id="uuid-0afd348e-0724-4954-a102-af99bb935f43" d="m198.59,392.38s-.37-1.76-.09-2.6c.33-1.01,1.19-1.92,2.05-2.76.4-.38,1.43-.53,1.42-1.01-.02-.76-1.29-1.56-2.34-1.53-1.19.04-1.97,1.1-2.41,1.9-.58,1.02-.41,2.23-.13,3.31.24.95,1.51,2.68,1.51,2.68h0Z" style="fill:#ff5;"/><path id="uuid-ef2e1761-826c-482d-abd8-225ca4eb6d2a" d="m194.92,392.14s-1.02-2.32-1-3.57c.03-1.5.69-2.99,1.38-4.39.32-.64,1.44-1.14,1.26-1.8-.29-1.04-2-1.8-3.18-1.45-1.33.39-1.85,2.08-2.09,3.3-.3,1.58.3,3.19.99,4.62.6,1.25,2.64,3.28,2.64,3.28Z" style="fill:#ff5;"/><path id="uuid-1d23c0c4-f7c0-43fe-a834-18f2c070cede" d="m190.03,387.29s-1.02-2.32-1-3.57c.03-1.5.69-2.99,1.38-4.39.32-.64,1.44-1.14,1.26-1.8-.29-1.04-2-1.8-3.18-1.45-1.33.39-1.85,2.08-2.09,3.3-.3,1.58.3,3.19.99,4.62.6,1.25,2.64,3.28,2.64,3.28Z" style="fill:#ff5;"/><path id="uuid-9e6cb3f2-5da0-44ac-b490-934e7ef08301" d="m168.11,367.9s-.55-3.73-.14-5.52c.5-2.16,1.76-4.09,3.04-5.86.59-.82,2.12-1.13,2.1-2.15-.03-1.61-1.91-3.32-3.47-3.25-1.76.08-2.91,2.34-3.58,4.03-.85,2.18-.6,4.73-.2,7.04.35,2.02,2.24,5.7,2.24,5.7h0Z" style="fill:#ff5;"/><path id="uuid-cf77a598-7743-4821-87ec-f8286d9a6463" d="m162.72,363.43s-1.02-2.32-1-3.57c.03-1.5.69-2.99,1.38-4.39.32-.64,1.44-1.14,1.26-1.8-.29-1.04-2-1.8-3.18-1.45-1.33.39-1.85,2.08-2.09,3.3-.3,1.58.3,3.19.99,4.62.6,1.25,2.64,3.28,2.64,3.28Z" style="fill:#ff5;"/><path id="uuid-54d5530a-da65-4a16-9905-8557da80f02a" d="m157.83,358.59s-1.02-2.32-1-3.57c.03-1.5.69-2.99,1.38-4.39.32-.64,1.44-1.14,1.26-1.8-.29-1.04-2-1.8-3.18-1.45-1.33.39-1.85,2.08-2.09,3.3-.3,1.58.3,3.19.99,4.62.6,1.25,2.64,3.28,2.64,3.28Z" style="fill:#ff5;"/><path id="uuid-6015771a-b8a6-459b-8279-7dd2b23ab6a2" d="m152.23,353.76s-.55-3.6-.14-5.33c.5-2.08,1.76-3.94,3.04-5.66.59-.79,2.12-1.09,2.1-2.07-.03-1.56-1.91-3.21-3.47-3.13-1.76.08-2.91,2.26-3.58,3.89-.85,2.1-.6,4.57-.2,6.8.35,1.95,2.24,5.51,2.24,5.51h0Z" style="fill:#ff5;"/><path id="uuid-5bacaba2-4b78-4b0d-9313-4b4b9dbc811f" d="m148,349.45s-1.02-2.32-1-3.57c.03-1.5.69-2.99,1.38-4.39.32-.64,1.44-1.14,1.26-1.8-.29-1.04-2-1.8-3.18-1.45-1.33.39-1.85,2.08-2.09,3.3-.3,1.58.3,3.19.99,4.62.6,1.25,2.64,3.28,2.64,3.28Z" style="fill:#ff5;"/><path id="uuid-ae48cc12-0c24-4cc1-85e1-9c64e3b74d96" d="m143.7,345.47s-1.02-2.32-1-3.57c.03-1.5.69-2.99,1.38-4.39.32-.64,1.44-1.14,1.26-1.8-.29-1.04-2-1.8-3.18-1.45-1.33.39-1.85,2.08-2.09,3.3-.3,1.58.3,3.19.99,4.62.6,1.25,2.64,3.28,2.64,3.28Z" style="fill:#ff5;"/><path id="uuid-b56cd0c3-c6bb-4558-af64-16b6361d34fe" d="m138.24,340.36s-.55-3.6-.14-5.33c.5-2.08,1.76-3.94,3.04-5.66.59-.79,2.12-1.09,2.1-2.07-.03-1.56-1.91-3.21-3.47-3.13-1.76.08-2.91,2.26-3.58,3.89-.85,2.1-.6,4.57-.2,6.8.35,1.95,2.24,5.51,2.24,5.51h0Z" style="fill:#ff5;"/><path id="uuid-dd23f448-4422-4483-a47a-f42d20f9d7c2" d="m133.72,336.19s-1.02-2.32-1-3.57c.03-1.5.69-2.99,1.38-4.39.32-.64,1.44-1.14,1.26-1.8-.29-1.04-2-1.8-3.18-1.45-1.33.39-1.85,2.08-2.09,3.3-.3,1.58.3,3.19.99,4.62.6,1.25,2.64,3.28,2.64,3.28Z" style="fill:#ff5;"/><path id="uuid-491aaab6-496b-41ed-b567-6d859feb7161" d="m128.98,331.77s-1.02-2.32-1-3.57c.03-1.5.69-2.99,1.38-4.39.32-.64,1.44-1.14,1.26-1.8-.29-1.04-2-1.8-3.18-1.45-1.33.39-1.85,2.08-2.09,3.3-.3,1.58.3,3.19.99,4.62.6,1.25,2.64,3.28,2.64,3.28Z" style="fill:#ff5;"/><path id="uuid-b8e7a636-7d4b-41a2-8f82-11ba4a6b86aa" d="m123.09,327.97s-.55-3.6-.14-5.33c.5-2.08,1.76-3.94,3.04-5.66.59-.79,2.12-1.09,2.1-2.07-.03-1.56-1.91-3.21-3.47-3.13-1.76.08-2.91,2.26-3.58,3.89-.85,2.1-.6,4.57-.2,6.8.35,1.95,2.24,5.51,2.24,5.51h0Z" style="fill:#ff5;"/><path id="uuid-1ab1672b-244c-4dca-bdcd-caa44b7e5761" d="m118.71,323.65s-1.02-2.32-1-3.57c.03-1.5.69-2.99,1.38-4.39.32-.64,1.44-1.14,1.26-1.8-.29-1.04-2-1.8-3.18-1.45-1.33.39-1.85,2.08-2.09,3.3-.3,1.58.3,3.19.99,4.62.6,1.25,2.64,3.28,2.64,3.28Z" style="fill:#ff5;"/><path id="uuid-7606418b-4faa-4584-93f6-17503a0f08d7" d="m97.4,347.81s-.59-3.34-1.55-4.68c-1.34-1.88-3.76-2.68-5.51-4.18-.43-.37-1.1-.63-1.23-1.18-.21-.92.18-2.15.97-2.66,1.12-.72,2.85-.38,3.98.33,1.92,1.21,2.84,3.69,3.41,5.88.55,2.09-.08,6.49-.08,6.49Z" style="fill:#ff5;"/><path id="uuid-12e4d7c9-d14d-41e7-9385-d579fe543c52" d="m99.35,340.94s-.84-1.49-1.27-2.23c-.66-1.12-1.19-2.33-2.02-3.33-.64-.78-2.29-1.04-2.23-2.04.08-1.16,1.64-2.13,2.86-2.01,1.38.14,2.13,1.67,2.66,2.86.61,1.38.45,3,.39,4.5-.03.76-.39,2.25-.39,2.25Z" style="fill:#ff5;"/><path id="uuid-d478b352-9f8a-4583-a5d1-5dbbf44abfb7" d="m101.2,335.96s-.52-2.36-1.11-3.39c-.75-1.32-1.81-2.49-3.01-3.42-.58-.45-1.81-.31-1.97-.98-.24-1.05.91-2.53,2.11-2.79,1.36-.29,2.62.94,3.41,1.91,1.02,1.24,1.25,2.95,1.33,4.53.07,1.38-.76,4.14-.76,4.14h0Z" style="fill:#ff5;"/><path id="uuid-5e672d8a-a83d-41ff-9351-a599b0414579" d="m102.36,328.74s-.59-3.34-1.55-4.68c-1.34-1.88-3.76-2.68-5.51-4.18-.43-.37-1.1-.63-1.23-1.18-.21-.92.18-2.15.97-2.66,1.12-.72,2.85-.38,3.98.33,1.92,1.21,2.84,3.69,3.41,5.88.55,2.09-.08,6.49-.08,6.49Z" style="fill:#ff5;"/><path id="uuid-c571c51c-9145-475a-8fb6-d5c87e5f85d8" d="m94.15,357.75s-.64-1.42-.97-2.13c-.35-.74-.65-1.51-1.1-2.19-.71-1.08-2.64-1.7-2.49-2.98.11-.88,1.25-1.67,2.14-1.58,1.19.11,1.95,1.55,2.43,2.65.56,1.27.41,2.77.35,4.16-.03.7-.36,2.08-.36,2.08h0Z" style="fill:#ff5;"/><path id="uuid-9cc990e9-f315-4084-9382-1e2940a99cc2" d="m95.21,351.61s-.44-1.81-.94-2.6c-.63-1.01-1.52-1.91-2.54-2.62-.49-.34-1.52-.24-1.65-.75-.21-.81.76-1.94,1.77-2.14,1.14-.22,2.2.72,2.87,1.46.86.95,1.05,2.26,1.12,3.47.06,1.06-.64,3.18-.64,3.18h0Z" style="fill:#ff5;"/><path id="uuid-cae2f011-c8b9-4863-a4c8-fc31acfd168f" d="m92.3,363.58s-.54-3.08-1.42-4.31c-1.23-1.73-3.45-2.47-5.05-3.85-.4-.34-1.01-.58-1.13-1.09-.19-.85.16-1.98.89-2.45,1.03-.66,2.62-.35,3.65.31,1.76,1.12,2.6,3.4,3.13,5.42.5,1.93-.07,5.98-.07,5.98h0Z" style="fill:#ff5;"/><path id="uuid-1f090190-b596-4df0-855b-27cacc725256" d="m89.23,373.51s-.8-1.37-1.17-2.06c-.47-.88-.73-1.88-1.33-2.67-.69-.91-2.62-1.16-2.55-2.3.06-1.07,1.5-1.97,2.62-1.86,1.27.13,1.95,1.55,2.43,2.65.56,1.27.41,2.77.35,4.16-.03.7-.36,2.08-.36,2.08Z" style="fill:#ff5;"/><path id="uuid-201b7fcf-5ee5-4d95-8b62-4c2a9ae92be0" d="m90.49,367.68s-.44-1.81-.94-2.6c-.63-1.01-1.52-1.91-2.54-2.62-.49-.34-1.52-.24-1.65-.75-.21-.81.76-1.94,1.77-2.14,1.14-.22,2.2.72,2.87,1.46.86.95,1.05,2.26,1.12,3.47.06,1.06-.64,3.18-.64,3.18h0Z" style="fill:#ff5;"/><path id="uuid-802a20a1-0a93-4ef0-8312-27faf37c9460" d="m88.17,381.66s-.59-3.34-1.55-4.68c-1.34-1.88-3.76-2.68-5.51-4.18-.43-.37-1.1-.63-1.23-1.18-.21-.92.18-2.15.97-2.66,1.12-.72,2.85-.38,3.98.33,1.92,1.21,2.84,3.69,3.41,5.88.55,2.09-.08,6.49-.08,6.49Z" style="fill:#ff5;"/><path id="uuid-6a08ebdd-47ab-43e0-a35d-85053c551a56" d="m84.82,388.95s-.94-.5-1.35-.83c-.59-.48-1.03-1.13-1.57-1.67-.66-.65-2.03-.96-2.04-1.89,0-.72.85-1.49,1.57-1.49,1.19,0,2.02,1.39,2.61,2.42.3.53.27,1.19.4,1.79.12.56.37,1.67.37,1.67Z" style="fill:#ff5;"/><path id="uuid-0e503d4d-0030-4fbc-94fc-e4c8374b7b59" d="m85.97,385.46s-.44-1.81-.94-2.6c-.63-1.01-1.52-1.91-2.54-2.62-.49-.34-1.52-.24-1.65-.75-.21-.81.76-1.94,1.77-2.14,1.14-.22,2.2.72,2.87,1.46.86.95,1.05,2.26,1.12,3.47.06,1.06-.64,3.18-.64,3.18h0Z" style="fill:#ff5;"/><path id="uuid-d6a2c2c5-38d5-4aaf-8184-90f54bf38ee3" d="m106,316.5c3.64-.03,6.29-2.83,7.91-6.06s2.4-7.07,2.34-10.22c-.05-3.11-.95-6.84-2.66-9.97s-4.4-5.82-8-5.75c-3.58.07-6.13,2.86-7.69,6.03s-2.31,6.9-2.28,9.97c.03,3.1.86,6.88,2.5,10.06s4.26,5.96,7.88,5.94Zm0-3c-2.05.01-3.85-1.62-5.22-4.28s-2.13-6.16-2.16-8.72c-.02-2.53.66-6,1.97-8.66s3.04-4.3,5.06-4.34c2.04-.04,3.86,1.57,5.28,4.19s2.27,6.06,2.31,8.59c.04,2.57-.68,6.11-2.03,8.81s-3.15,4.39-5.22,4.41Z" style="fill:#ff5;"/><path id="uuid-fd627446-8c79-4acd-8a30-b6420e719abf" d="m107.25,300s2.48,1.94,3.75,1.5c.63-.22,1.09-1.08,1-1.75-.12-.88-.99-1.81-1.88-1.88-1.19-.09-2.88,2.12-2.88,2.12Z" style="fill:#ff5;"/><path id="uuid-6ebfd8f7-fd05-4361-89d7-826774d9aaf6" d="m104.62,300.25s-1.07,2.21-2.12,2.5c-.89.25-2.34,0-2.62-.88-.27-.82.7-1.79,1.5-2.12,1.01-.43,3.25.5,3.25.5Z" style="fill:#ff5;"/><path id="uuid-8c7b4569-72ac-430b-a346-8fbc77e1b1e7" d="m106.5,302.62s3.37,2.14,3.5,3.88c.11,1.5-1.01,3.56-2.5,3.75-1.43.19-2.96-1.46-3.25-2.88-.35-1.72,2.25-4.75,2.25-4.75Z" style="fill:#ff5;"/><path id="uuid-91cbca9f-aa82-4214-9a74-59cf66c3a14b" d="m106.25,297.62s2.08-3.31,1.62-5c-.29-1.08-1.38-2.31-2.5-2.25-1.44.08-2.9,1.8-2.88,3.25.03,1.83,3.75,4,3.75,4Z" style="fill:#ff5;"/><g id="uuid-efe6d3f1-44eb-4109-a84d-3cd03b89152b"><path id="uuid-c1c70a4f-e973-450e-94b2-1605b2b01f7c" d="m242.79,308.01l-14.26,6.87,6.47-14.98s-1.08,3.27-.04,4.2c1.18,1.06,4.73-.52,4.73-.52,0,0-1.54,3-.69,4.09.77,1,3.79.33,3.79.33h0Z" style="fill:#55a; stroke:#55a; stroke-linecap:round; stroke-linejoin:round; stroke-width:2.02px;"/><path id="uuid-e1a04394-1c3f-4767-af87-dfefddf8ca6d" d="m232.85,316.9c.31.06.52.65.31.87-.21.22-.81.06-.9-.23-.09-.28.3-.7.59-.65Z" style="fill:none; stroke:#55a; stroke-linecap:round; stroke-linejoin:round; stroke-width:2.02px;"/><path id="uuid-b0488c86-7884-47ae-8cdb-f0541aefdcd2" d="m226.58,310.2c.24.18.21.68-.03.85-.2.15-.62.06-.76-.15-.11-.16,0-.43.14-.56.16-.15.48-.27.65-.14h0Z" style="fill:none; stroke:#55a; stroke-linecap:round; stroke-linejoin:round; stroke-width:2.02px;"/></g><g id="uuid-bf7c194b-205a-4114-817c-55fd6a687022"><path id="uuid-cb7aa2c6-b42d-45ef-ab0b-cb79dae95a3e" d="m252.11,322.14l-13.5,5.75,5.25-15.25s-.05,3.47,1.19,4.28c1.07.7,3.81-.53,3.81-.53,0,0-1.73,3.44-.84,4.79.77,1.17,4.09.96,4.09.96Z" style="fill:#55a; stroke:#55a; stroke-linecap:round; stroke-linejoin:round; stroke-width:2px;"/><path id="uuid-f5e98273-acdb-44b9-b976-9974730fa7de" d="m242.93,329.95c.31.06.52.66.31.89-.21.22-.81.06-.9-.23-.09-.28.3-.72.59-.66Z" style="fill:none; stroke:#55a; stroke-linecap:round; stroke-linejoin:round; stroke-width:2px;"/><path id="uuid-0a1cf934-cf0c-40fe-8cfb-58283cf21cf8" d="m236.65,323.13c.24.18.21.69-.03.87-.2.15-.62.06-.76-.15-.11-.17,0-.44.14-.57.16-.15.48-.28.65-.14h0Z" style="fill:none; stroke:#55a; stroke-linecap:round; stroke-linejoin:round; stroke-width:2px;"/></g><g id="uuid-a7234c2a-f727-487e-a88b-647802f00b93"><path id="uuid-bc11c888-8433-47d6-8209-8a58b5783af6" d="m266.56,285.42l-13.49,7.52,4.13-14.19s-.29,3.37.93,3.98c1.51.76,4.64-2.02,4.64-2.02,0,0-2.38,3.49-1.37,4.81,1.05,1.36,5.15-.1,5.15-.1Z" style="fill:#55a; stroke:#55a; stroke-linecap:round; stroke-linejoin:round; stroke-width:2.34px;"/><path id="uuid-54c5d0dc-aaba-49b6-80cb-e8e1e1ca79d8" d="m255.65,294.74c.24.06.41.61.24.83-.17.21-.64.06-.71-.22-.07-.26.24-.67.47-.61Z" style="fill:none; stroke:#55a; stroke-linecap:round; stroke-linejoin:round; stroke-width:2.34px;"/><path id="uuid-ef729658-ee75-468d-838f-ca4ad8e57f7f" d="m250.54,288.92c.18.17.16.64-.02.81-.16.14-.49.05-.6-.14-.09-.15,0-.4.11-.53.12-.14.38-.26.51-.13h0Z" style="fill:none; stroke:#55a; stroke-linecap:round; stroke-linejoin:round; stroke-width:2.34px;"/></g><g id="uuid-6a8a3089-d0d2-4388-837d-83b8d89be852"><path id="uuid-01036ca3-9e73-44e3-8053-cdc0d90dbc53" d="m303.02,273.71l-13.5,5.75,5.25-15.25s-.05,3.47,1.19,4.28c1.07.7,3.81-.53,3.81-.53,0,0-1.73,3.44-.84,4.79.77,1.17,4.09.96,4.09.96Z" style="fill:#55a; stroke:#55a; stroke-linecap:round; stroke-linejoin:round; stroke-width:2px;"/><path id="uuid-8062fec3-7c8a-409c-9828-ca9cd100ceeb" d="m293.84,281.51c.31.06.52.66.31.89-.21.22-.81.06-.9-.23-.09-.28.3-.72.59-.66Z" style="fill:none; stroke:#55a; stroke-linecap:round; stroke-linejoin:round; stroke-width:2px;"/><path id="uuid-2a0cb913-6249-408b-9a2b-f46e11ad4eeb" d="m287.57,274.7c.24.18.21.69-.03.87-.2.15-.62.06-.76-.15-.11-.17,0-.44.14-.57.16-.15.48-.28.65-.14h0Z" style="fill:none; stroke:#55a; stroke-linecap:round; stroke-linejoin:round; stroke-width:2px;"/></g><g id="uuid-5959d69b-38b4-4f2f-ba83-f611fdb38f91"><path id="uuid-a38eaa49-4854-4fd8-99fa-05cfd765243e" d="m287.46,262.57l-13.5,5.75,5.25-15.25s-.05,3.47,1.19,4.28c1.07.7,3.81-.53,3.81-.53,0,0-1.73,3.44-.84,4.79.77,1.17,4.09.96,4.09.96Z" style="fill:#55a; stroke:#55a; stroke-linecap:round; stroke-linejoin:round; stroke-width:2px;"/><path id="uuid-30c0857e-fcb5-45d0-9320-4b632f062807" d="m278.28,270.38c.31.06.52.66.31.89-.21.22-.81.06-.9-.23-.09-.28.3-.72.59-.66Z" style="fill:none; stroke:#55a; stroke-linecap:round; stroke-linejoin:round; stroke-width:2px;"/><path id="uuid-83c43b65-3393-4040-9cb9-432ce6ff5cbb" d="m272.01,263.56c.24.18.21.69-.03.87-.2.15-.62.06-.76-.15-.11-.17,0-.44.14-.57.16-.15.48-.28.65-.14h0Z" style="fill:none; stroke:#55a; stroke-linecap:round; stroke-linejoin:round; stroke-width:2px;"/></g></g><path id="uuid-31fa3bf6-1d94-448b-998d-97a766186c6b" d="m59.5,29.5h270v360h0" style="fill:none; stroke:#55a; stroke-width:2px;"/><path id="uuid-6810b161-321d-4232-b0c8-00af32972ee8" d="m29.5,149.5v360h270" style="fill:none; stroke:#55a; stroke-width:2px;"/><path id="uuid-7301f8d2-3ec6-4d0f-9a05-21b0ca7b1db2" d="m94.5,100.5c1,4,5,14,12,14,9,0,13-8,13-18,0-7-2.58-11.61-5-17-2.58-5.74-6.38-10.86-10-16-4.65-6.6-15-19-15-19,0,0-10.35,12.4-15,19-3.62,5.14-7.42,10.26-10,16-2.42,5.39-5,10-5,17,0,10,4,18,13,18,7,0,11-10,12-14,1-1,1,0,1,1-1,8-1,10-2,16s-4,17-4,17c5-2,15-2,20,0,0,0-3-11-4-17s-1-8-2-16c0-1,0-2,1-1Z"/><path id="uuid-ca6c5656-fe35-4ad3-a2e4-ce0da236783b" d="m32,117.5c.5,2,2.5,7,6,7,4.5,0,6.5-4,6.5-9,0-3.5-1.29-5.81-2.5-8.5-1.29-2.87-3.19-5.43-5-8-2.32-3.3-7.5-9.5-7.5-9.5,0,0-5.18,6.2-7.5,9.5-1.81,2.57-3.71,5.13-5,8-1.21,2.69-2.5,5-2.5,8.5,0,5,2,9,6.5,9,3.5,0,5.5-5,6-7,.5-.5.5,0,.5.5-.5,4-.5,5-1,8s-2,8.5-2,8.5c2.5-1,7.5-1,10,0,0,0-1.5-5.5-2-8.5s-.5-4-1-8c0-.5,0-1,.5-.5Z"/><path id="uuid-7e6b3fbe-673a-459c-8292-dffc22993b7b" d="m264.5,438.5c-1-4-5-14-12-14-9,0-13,8-13,18,0,7,2.58,11.61,5,17,2.58,5.74,6.38,10.86,10,16,4.65,6.6,15,19,15,19,0,0,10.35-12.4,15-19,3.62-5.14,7.42-10.26,10-16,2.42-5.39,5-10,5-17,0-10-4-18-13-18-7,0-11,10-12,14-1,1-1,0-1-1,1-8,1-10,2-16s4-17,4-17c-5,2-15,2-20,0,0,0,3,11,4,17s1,8,2,16c0,1,0,2-1,1Z"/><path id="uuid-2ff4c9f1-75d4-471e-8291-71cd69f86c0b" d="m327,421.5c-.5-2-2.5-7-6-7-4.5,0-6.5,4-6.5,9,0,3.5,1.29,5.81,2.5,8.5,1.29,2.87,3.19,5.43,5,8,2.32,3.3,7.5,9.5,7.5,9.5,0,0,5.18-6.2,7.5-9.5,1.81-2.57,3.71-5.13,5-8,1.21-2.69,2.5-5,2.5-8.5,0-5-2-9-6.5-9-3.5,0-5.5,5-6,7-.5.5-.5,0-.5-.5.5-4,.5-5,1-8s2-8.5,2-8.5c-2.5,1-7.5,1-10,0,0,0,1.5,5.5,2,8.5s.5,4,1,8c0,.5,0,1-.5.5Z"/></g></svg>