<?xml version="1.0" encoding="UTF-8"?><svg id="uuid-b9c9c6cc-467c-4b5a-88f3-6a178603d697" xmlns="http://www.w3.org/2000/svg" viewBox="0 0 142 142"><path d="M129.74,58.74c-4.52-21.77-20.84-39.2-41.96-45.35V0l-8.39,8.39L71,0l-8.39,8.39L54.22,0v13.4c-21.13,6.14-37.44,23.58-41.96,45.35L0,71l12.26,12.26c4.84,23.3,23.19,41.65,46.49,46.49l12.26,12.26,12.26-12.26c23.3-4.84,41.65-23.19,46.49-46.49l12.26-12.26-12.26-12.26ZM71,21.78c-2.76,0-5-2.24-5-5s2.24-5,5-5,5,2.24,5,5-2.24,5-5,5Z" style="fill:#e6e6e6;"/></svg>