<?xml version="1.0" encoding="UTF-8"?><svg id="uuid-dd63e7bb-f110-4763-ad93-cdab4bca9923" xmlns="http://www.w3.org/2000/svg" viewBox="0 0 359 539"><g id="uuid-91360d04-be29-48cb-9880-7a2aed3e20a1"><path id="uuid-5a336de2-97f2-4814-9e49-fb458a92876b" d="m27,29.5l-9,50h5l2.34-13h8.31l2.34,13h5l-9-50h-5Zm2.5,13.91l3.25,18.09h-6.5l3.25-18.09Z"/><path id="uuid-7506c5e5-0c42-43d4-8983-269d34dc9200" d="m327,509.5l-9-50h5l2.34,13h8.31l2.34-13h5l-9,50h-5Zm2.5-13.91l3.25-18.09h-6.5l3.25,18.09h0Z"/><path id="uuid-11be51c7-0c43-45d4-8c27-f0009f575be0" d="m184.5,280.5c1,4,5,14,12,14,9,0,13-8,13-18,0-7-2.58-11.61-5-17-2.58-5.74-6.38-10.86-10-16-4.65-6.6-15-19-15-19,0,0-10.35,12.4-15,19-3.62,5.14-7.42,10.26-10,16-2.42,5.39-5,10-5,17,0,10,4,18,13,18,7,0,11-10,12-14,1-1,1,0,1,1-1,8-1,10-2,16s-4,17-4,17c5-2,15-2,20,0,0,0-3-11-4-17s-1-8-2-16c0-1,0-2,1-1Z"/><path id="uuid-203a56df-8a41-475d-905e-5acdf10294fc" d="m32,117.5c.5,2,2.5,7,6,7,4.5,0,6.5-4,6.5-9,0-3.5-1.29-5.81-2.5-8.5-1.29-2.87-3.19-5.43-5-8-2.32-3.3-7.5-9.5-7.5-9.5,0,0-5.18,6.2-7.5,9.5-1.81,2.57-3.71,5.13-5,8-1.21,2.69-2.5,5-2.5,8.5,0,5,2,9,6.5,9,3.5,0,5.5-5,6-7,.5-.5.5,0,.5.5-.5,4-.5,5-1,8s-2,8.5-2,8.5c2.5-1,7.5-1,10,0,0,0-1.5-5.5-2-8.5s-.5-4-1-8c0-.5,0-1,.5-.5Z"/><path id="uuid-dff2d0a9-872e-4553-8309-a61243f7633c" d="m332,421.5c.5-2,2.5-7,6-7,4.5,0,6.5,4,6.5,9,0,3.5-1.29,5.81-2.5,8.5-1.29,2.87-3.19,5.43-5,8-2.32,3.3-7.5,9.5-7.5,9.5,0,0-5.18-6.2-7.5-9.5-1.81-2.57-3.71-5.13-5-8-1.21-2.69-2.5-5-2.5-8.5,0-5,2-9,6.5-9,3.5,0,5.5,5,6,7,.5.5.5,0,.5-.5-.5-4-.5-5-1-8s-2-8.5-2-8.5c2.5,1,7.5,1,10,0,0,0-1.5,5.5-2,8.5s-.5,4-1,8c0,.5,0,1,.5.5Z"/></g></svg>