<?xml version="1.0" encoding="UTF-8"?><svg id="uuid-ad48414b-8fa4-4538-be0f-c018664f5858" xmlns="http://www.w3.org/2000/svg" viewBox="0 0 359 539"><g id="uuid-f6d8ce4b-a037-40e0-b32c-c97bc9f40ad1"><path id="uuid-8dfe67e0-9f0b-4612-9370-b3a8cb5a36c9" d="m29.5,29.5v5h5v35c0,2.76-2.24,5-5,5s-5-2.24-5-5v-5h-5v5c0,5.52,4.48,10,10,10s10-4.48,10-10V29.5h-10Z" style="fill:#f55;"/><path id="uuid-93c3a2d9-8c8e-463d-8c88-929245a362fe" d="m329.5,509.5v-5h-5v-35c0-2.76,2.24-5,5-5s5,2.24,5,5v5h5v-5c0-5.52-4.48-10-10-10s-10,4.48-10,10v40h10Z" style="fill:#f55;"/><path id="uuid-7aa1cfa9-adfe-4f52-8272-a954ec2e5ecb" d="m29.5,149.5v360h270" style="fill:none; stroke:#55a; stroke-width:2px;"/><g id="uuid-b0fdb865-df67-4668-aaab-e6d0f0a1843f"><path id="uuid-adfc9397-f935-41ac-8c51-174152375c5b" d="m291.96,164.51c-5.22,4.6-9.39,9.45-13.52,14.66-5.26,6.64-10.22,13.59-14.25,21.05-3.75,6.95-6.76,14.33-9.1,21.87-2.13,6.87-3.58,13.97-4.43,21.12-.75,6.34-.87,12.78-.54,19.16.27,5.35,1.35,10.62,2.08,15.92.84,6.07,1.02,12.28,2.64,18.19,1.85,6.73,4.84,13.14,8.02,19.35,2.53,4.96,5.92,9,8.76,14.22,2.04-1.82,4.09-3.63,6.13-5.45-3.41-6.24-7.13-12.35-9.88-18.9-2.42-5.78-4.27-11.8-5.79-17.88-1.73-6.94-3.19-13.99-3.75-21.12-.46-5.89-.23-11.83.34-17.71.7-7.23,1.85-14.45,3.75-21.46,1.7-6.31,4.08-12.45,6.81-18.39,2.93-6.37,6.2-12.64,10.22-18.39,3.78-5.41,7.61-10.5,12.94-14.99-.45-3.63-.67-7.11-.44-11.25h0Z" style="fill:#f55;"/><path id="uuid-33d34fb2-6038-4363-8d3a-2f355781d6f5" d="m296.84,194.08c-4.01,6.01-8.79,11.57-12.02,18.03-3.64,7.27-6.26,15.07-8.13,22.98-1.53,6.47-2.32,13.15-2.47,19.8-.18,7.68.31,15.44,1.77,22.98,1.34,6.92,3.72,13.62,6.36,20.15,2.08,5.13,4.95,9.9,7.42,14.85l15.91-11.31.35-105.71c-1.41-.12-2.85-.1-4.24-.35-1.69-.31-3.3-.94-4.95-1.41h0Z" style="fill:#f55;"/><path id="uuid-fe99ba87-bdc2-46c6-b9a3-9f27cb554cf9" d="m328.5,189.66l-3.02,3.71-3.89,2.65h-5.13l-3.89-.71.35,174.48,15.57,10.08v-190.21Z"/><path id="uuid-4099308d-36eb-48f8-a264-3822254e4c3d" d="m312.22,114.18v46.67l13.44-2.3,2.85,3.18v-45.25l-8.33-.53-7.95-1.77Z"/><path id="uuid-c74e3cf2-4ef2-4431-98d6-e60c4f45c804" d="m329.09,96.92l-11.75-1.04-11.75-1.83-10.45-2.96-8.01-3.48-7.14-2.96,4.7,6.27,6.35,6.96,11.49,6.53,13.06,4.44,7.31,1.31,6.18.7v-13.93Z"/><g id="uuid-f85b7633-6a45-4314-918a-85d31ed9be9c"><path id="uuid-ee76d6a3-0af6-4662-8ba6-1fa5b607ddfa" d="m138.09,256.66s3.1,4.46,4.6,6.72c1.93,2.92,5.66,8.84,5.66,8.84l131.17-126.22s-7.25-5.64-10.61-7.78c-1.1-.17-3.18,1.06-3.18,1.06,0,0-.89,2.93-2.12,3.54-.85.42-2.83-.35-2.83-.35l-2.83,2.83s-1.99,4.93-3.54,7.07c-3.32,4.6-7.69,8.41-12.06,12.02-3.39,2.8-7.07,5.28-10.92,7.42-2.76,1.54-5.75,2.6-8.64,3.87-1.86.81-5.59,2.39-5.59,2.39l-79.11,78.6Z" style="fill:#ff5;"/><path id="uuid-0719e3f2-ad38-4eaf-93e7-2ccdfd0bde63" d="m141.99,262.04l3.88,6.31,128.66-125.5-6.07-4.13-126.47,123.32Z"/></g><g id="uuid-ff092524-942a-4c9d-8f9b-7874e626d1b8"><path id="uuid-cbd8273a-8cf8-4ac0-8ca7-640fa53d1302" d="m111.75,177.25l.25,62.75s7.36,2.97,10.75,5c3.58,2.14,10,7.5,10,7.5l-.75-83-10.75-9.25-9.5,17Z" style="fill:#ff5;"/><path id="uuid-1825c14e-f035-4e6b-8b00-b210cfe7564a" d="m118.25,167l.25,75,7.25,4-.5-81.25-4-3.75-3,6Z"/></g><path id="uuid-df644aeb-2e55-42af-97af-c07cf3a826cd" d="m109.72,147.82c4.82-3.16,10.53-6.92,15.34-10.08,3.61,3.91,6.8,8.28,10.84,11.74,3.99,3.42,8.46,6.32,13.1,8.81,3.56,1.91,7.34,3.43,11.18,4.66,3.82,1.22,7.77,2.13,11.74,2.67,4.33.59,8.73.79,13.1.64,4.29-.14,8.59-.61,12.78-1.49,3.92-.83,7.74-2.14,11.49-3.55,3.34-1.25,6.63-2.66,9.77-4.34,2.26-1.21,4.6-3.13,6.49-4.11,1.88.9,2.85,3.77,4.97,4.39,1.83.53,3.88-.18,5.65-.9,1.54-.64,2.71-1.96,4.07-2.94.98,0,2.03.37,2.94,0,1.57-.65,1.98-3.14,3.61-3.61.67-.19,1.36.63,2.03.45,1.18-.32,1.81-1.66,2.71-2.48.68,0,1.41.26,2.03,0,1.08-.45,1.66-1.66,2.48-2.48l2.26.45c-2.26,3.46-4.04,7.29-6.78,10.39-3.46,3.93-7.67,7.18-11.97,10.16-4.82,3.34-10.05,6.1-15.36,8.58-5.33,2.5-10.83,4.69-16.49,6.32-4.79,1.39-9.72,2.4-14.68,2.94-4.72.5-9.49.41-14.23.23-4.08-.16-8.17-.43-12.2-1.13-3.6-.62-7.14-1.6-10.61-2.71-6.15-1.97-12.42-3.87-18.07-7-4.85-2.68-9.05-6.41-13.32-9.94-2.67-2.2-5.29-4.5-7.68-7-2.6-2.72-5.11-5.58-7.21-8.67h0Z" style="fill:#ff5; stroke:#55a; stroke-linecap:round; stroke-linejoin:round; stroke-width:2px;"/><path id="uuid-9b7e5627-f250-4c65-a9de-1d72362d0b80" d="m115.3,145.29l5.44-3.68s2.85,3.87,4.46,5.64c1.95,2.14,4.06,4.13,6.28,5.98,2.83,2.37,5.82,4.57,8.95,6.52,4.53,2.84,9.19,5.57,14.17,7.53,4.97,1.95,10.2,3.25,15.47,4.1,5.16.83,10.43,1.08,15.66.93,4.97-.14,9.97-.63,14.82-1.75,5.23-1.21,10.31-3.1,15.19-5.33,4.95-2.26,14.17-8.08,14.17-8.08,0,0,4.07-.41,5.97-1.12,1.83-.69,5.03-2.98,5.03-2.98,0,0,2.06.38,2.98,0,1.22-.5,2.8-2.8,2.8-2.8,0,0,1.1.67,1.68.56.95-.18,2.24-1.86,2.24-1.86,0,0-2.46,3.01-3.91,4.29-3.48,3.07-7.49,5.47-11.37,8.02-3.53,2.32-7.05,4.68-10.81,6.59-5.27,2.68-10.7,5.12-16.37,6.8-6.56,1.95-13.35,3.29-20.17,3.75-6.33.43-12.73.01-19-.93-6.1-.92-12.2-2.27-17.92-4.59-5.84-2.37-11.22-5.81-16.4-9.39-3.31-2.28-6.36-4.92-9.32-7.64-2.23-2.05-4.26-4.32-6.34-6.52-1.25-1.33-3.69-4.03-3.69-4.03h0Z"/><g id="uuid-35081f22-e5dd-4713-962e-7d478c1f96c6"><path id="uuid-eca7a940-0034-4386-ae6f-cbf97f8cc98c" d="m145.5,114.25c-.6,2.56-1.02,5.17-1.81,7.68-.64,2.05-1.47,4.04-2.37,5.98-.61,1.31-1.35,2.56-2.03,3.84-.15-1.32-.08-2.68-.45-3.95-.48-1.65-.92-3.55-2.26-4.63-1.57-1.27-3.86-1.54-5.87-1.47-1.7.06-3.51.53-4.86,1.58-1.4,1.09-2.38,2.8-2.82,4.52-.47,1.83-.29,3.87.34,5.65.52,1.48,1.61,2.73,2.71,3.84.82.82,1.88,1.35,2.82,2.03.11,1.05-.16,2.23.34,3.16.53.99,1.57,1.69,2.6,2.15.7.31,1.51.23,2.26.34.11.9-.09,1.9.34,2.71.42.8,1.19,1.46,2.03,1.81.66.27,1.43.08,2.15.11.26.87.22,1.89.79,2.6.49.6,1.26,1.02,2.03,1.13,1.3.18,2.56-.6,3.84-.9.45.75.62,1.78,1.36,2.26.7.46,1.65.42,2.48.34.95-.09,1.81-.6,2.71-.9.41.75.48,1.85,1.24,2.26.77.41,1.76.02,2.6-.23.69-.2,1.28-.68,1.92-1.02.64.68,1.07,1.64,1.92,2.03.75.35,1.7.38,2.48.11.61-.21,1.02-.78,1.47-1.24.71-.73,1.28-1.58,1.92-2.37-1.2-.75-2.47-1.41-3.61-2.26-1.24-.92-2.46-1.9-3.5-3.05-1.09-1.2-1.97-2.58-2.82-3.95-.97-1.56-1.78-3.21-2.6-4.86-.84-1.67-1.71-3.33-2.37-5.08-.94-2.5-1.58-5.1-2.26-7.68-.59-2.24-1.09-4.51-1.58-6.78-.41-1.91-.75-3.84-1.13-5.76h0Z" style="fill:#ff5;"/><path id="uuid-29b536c4-0ed0-45fb-a482-dd11a4e577e1" d="m132.11,127.89c-1.43,0-2.97,1.27-3.18,2.63-.24,1.59,1.18,3.33,2.62,4.04,1.78.88,4.27.6,5.95-.48,2.72-1.74,3.51-5.47,4.75-8.45,1.58-3.82,2.22-8.45,3.33-11.94" style="fill:none; stroke:#55a; stroke-linecap:round; stroke-linejoin:round; stroke-width:2px;"/><path id="uuid-c63dce17-86db-4e5e-8370-64d79c9b7287" d="m137.45,133.91c1.24-1.29,1.94-4.1,1.69-6.24-.19-1.65-1.02-3.39-2.34-4.4-1.71-1.3-4.16-1.6-6.29-1.39-1.95.19-4.02.96-5.4,2.36-1.29,1.32-1.86,3.28-2.1,5.1-.23,1.78-.06,3.73.72,5.35.8,1.66,2.25,3.04,3.83,3.99,1.23.74,2.72,1.06,4.15,1.2,1.83.18,3.74.05,5.51-.48,1.61-.49,3.16-1.32,4.44-2.41,1.27-1.09,2.17-2.56,3.07-3.97,1.24-1.95,2.13-4.1,3.19-6.15" style="fill:none; stroke:#55a; stroke-linecap:round; stroke-linejoin:round; stroke-width:2px;"/><path id="uuid-fab330e9-86b8-4046-9195-a37884bdfa2a" d="m129.01,139.88c-.16,1.17.03,2.39.72,3.27.88,1.13,2.42,1.7,3.83,1.92,1.63.25,3.29-.34,4.87-.8,1.53-.44,3.02-1.03,4.39-1.84,1.23-.72,2.33-1.64,3.35-2.63,1.49-1.45,2.66-3.19,3.99-4.79" style="fill:none; stroke:#55a; stroke-linecap:round; stroke-linejoin:round; stroke-width:2px;"/><path id="uuid-435efd89-b2a5-49d5-969b-fd827b010c5c" d="m134.28,145.79c.16.83,0,1.78.48,2.48.46.67,1.28,1.13,2.08,1.28,1.3.24,2.65-.32,3.91-.72,1.23-.39,2.38-.98,3.51-1.6,1.56-.85,3.1-1.75,4.47-2.87,1.4-1.15,2.5-2.61,3.75-3.91" style="fill:none; stroke:#55a; stroke-linecap:round; stroke-linejoin:round; stroke-width:2px;"/><path id="uuid-5f0f3930-57cd-430e-9cf1-9b05868ae67d" d="m138.91,149.94c.19.72.07,1.6.56,2.16.64.74,1.74,1.09,2.71,1.12,1.19.03,2.28-.69,3.35-1.2,1.4-.66,2.73-1.49,3.99-2.4,1.14-.81,2.11-1.84,3.19-2.71.78-.63,1.6-1.22,2.4-1.84" style="fill:none; stroke:#55a; stroke-linecap:round; stroke-linejoin:round; stroke-width:2px;"/><path id="uuid-aa11155e-11bc-47dc-87a0-c78587ab2a73" d="m145.46,152.49c.19,1.68.93,2.17,1.92,2.56,1,.4,2.19-.17,3.19-.56,1.21-.47,2.23-1.31,3.27-2.08,1.52-1.12,2.87-2.45,4.31-3.67" style="fill:none; stroke:#55a; stroke-linecap:round; stroke-linejoin:round; stroke-width:2px;"/><path id="uuid-cdc9e2c7-fecd-4af0-b69d-f201baf0968f" d="m151.92,154.41c.08.93.87,1.65,1.68,1.92.96.32,2.02-.26,2.95-.64.84-.34,1.6-.88,2.32-1.44.93-.73,1.7-1.65,2.56-2.48" style="fill:none; stroke:#55a; stroke-linecap:round; stroke-linejoin:round; stroke-width:2px;"/><path id="uuid-c101abaa-597b-4c79-85e7-07e6838a58dc" d="m157.99,155.69c.4.61.92,1.27,1.6,1.6.58.28,1.29.4,1.92.24.83-.21,1.5-.88,2.08-1.52.52-.57.8-1.33,1.2-2" style="fill:none; stroke:#55a; stroke-linecap:round; stroke-linejoin:round; stroke-width:2px;"/></g><g id="uuid-b676b15b-53ce-45de-888e-023bc9b628f5"><path id="uuid-0bc9b961-31b9-4fa9-8fcf-f101fa1e0857" d="m207.33,65.23c6,.93,12.02,1.53,18.01,2.8,4.97,1.05,9.93,2.4,14.86,4,3.23,1.05,6.4,2.43,9.6,3.65.5,4.29,1.03,8.57,1.5,12.86.53,4.83.95,9.66,1.5,14.48.41,3.62.66,7.26,1.35,10.85.41,2.15,1.1,4.25,1.65,6.37.75.22,1.5.44,2.25.67.75-.8,1.24-2.16,2.25-2.41,1.36-.33,2.95.48,4.2,1.47,1.8,1.43,3.12,3.74,4.2,5.99,1.04,2.17,1.9,4.57,2.1,6.97.13,1.54-.09,3.11-.6,4.44-.39,1.01-.93,2.08-1.8,2.47-.86.38-1.9-.26-2.85-.39-.5.78-.84,1.76-1.5,2.33-1.02.88-2.4,1-3.6,1.5-.65.82-1.05,2.07-1.95,2.45-.77.32-1.7-.23-2.55-.35-.75.74-1.3,1.9-2.25,2.23-.79.27-1.7-.23-2.55-.35-.85,1.09-1.35,2.81-2.55,3.27-.87.34-1.9-.38-2.85-.57-.75.98-1.19,2.49-2.25,2.95-.86.37-1.9-.26-2.85-.39-.95.84-1.79,1.87-2.85,2.51-1.2.73-2.53,1.25-3.9,1.46-1.41.22-2.92.27-4.35-.23-1.57-.55-3.06-1.65-4.35-2.94-1.44-1.44-2.62-3.28-3.6-5.19-1.34-2.61-2.26-5.49-3-8.36-1.34-5.21-1.78-10.59-2.55-15.89-1.01-6.92-1.72-13.87-2.7-20.79-.97-6.9-2.06-13.79-3.15-20.67-.91-5.74-1.9-11.46-2.85-17.2h0Z" style="fill:#ff5;"/><g id="uuid-2743dc06-6270-4546-ae5e-fdd80388e601"><path id="uuid-2c8e0d5e-92d5-4d9f-a931-f4306ad99095" d="m207.54,66.16s2.94,17.41,4.24,26.14c1.55,10.41,2.49,20.86,4.24,31.25,1.19,7.04,1.37,14.52,4.24,21.03,1.97,4.46,4.62,9.61,8.49,11.37,3.75,1.71,8.65.97,11.24-2.17,2.17-2.64,2.62-7.61,1.49-11.45-1.22-4.17-4.51-9.14-8.05-9.46-3.69-.34-7.78,3.93-7.83,8.37-.04,3.99,3.53,8.9,6.84,9.62,2.05.44,4.53-1.58,4.8-3.99.31-2.81-1.85-7.24-4.24-7.54-1.44-.18-3.42,1.57-2.49,3.9" style="fill:none; stroke:#55a; stroke-linecap:round; stroke-linejoin:round; stroke-width:2.15px;"/><path id="uuid-d79d3d8e-5724-472b-bf32-affbb905e9ac" d="m212.49,65.98c2.49,9.51,3.13,18.91,4.47,28.39,1.33,9.41,1.72,18.91,3.52,28.27,1.43,7.43,3.04,15.36,5.75,22" style="fill:none; stroke:#55a; stroke-linecap:round; stroke-linejoin:round; stroke-width:2.15px;"/><path id="uuid-a6161b62-63f1-4cd2-a986-01ec364bdb71" d="m218.16,66.74c1.9,8.25,2.47,16.74,3.52,25.14,1.02,8.18,1.39,16.43,2.68,24.56.94,5.92,1.62,11.82,3.69,17.55" style="fill:none; stroke:#55a; stroke-linecap:round; stroke-linejoin:round; stroke-width:2.15px;"/><path id="uuid-73a8f98c-0b4f-451f-8e30-b8d4977b8f1e" d="m223.21,67.82c1.69,7.87,2.2,15.98,3.13,24,.91,7.81,1.23,15.69,2.38,23.45.84,5.65,1.44,11.28,3.28,16.75" style="fill:none; stroke:#55a; stroke-linecap:round; stroke-linejoin:round; stroke-width:2.15px;"/><path id="uuid-88e8e982-c389-4d5b-bca0-70351d106e60" d="m228.16,69.15c1.52,7.46,1.98,15.16,2.82,22.76.81,7.41,1.11,14.89,2.15,22.26.75,5.36,1.3,10.7,2.95,15.88" style="fill:none; stroke:#55a; stroke-linecap:round; stroke-linejoin:round; stroke-width:2.15px;"/><path id="uuid-0e818c5c-4533-4fef-b0ca-c0feb34f7a1e" d="m232.99,70.33c1.52,7.1,1.98,14.44,2.82,21.68.81,7.05,1.11,14.17,2.15,21.19.75,5.1,1.3,10.19,2.95,15.13" style="fill:none; stroke:#55a; stroke-linecap:round; stroke-linejoin:round; stroke-width:2.15px;"/><path id="uuid-cf9eff4b-b980-44e4-a016-d212bfaaa8f2" d="m238.42,72.01c1.48,6.62,1.81,13.07,2.59,19.62.78,6.57,1.08,13.19,2.09,19.72.73,4.75,1.26,9.49,2.87,14.09" style="fill:none; stroke:#55a; stroke-linecap:round; stroke-linejoin:round; stroke-width:2.15px;"/><path id="uuid-643305ab-617c-44e0-9f8f-973def3a0536" d="m243.65,73.63c1.39,6.06,1.81,12.3,2.58,18.47.75,6.01,1.02,12.07,1.97,18.05.69,4.35,1.19,8.69,2.7,12.9" style="fill:none; stroke:#55a; stroke-linecap:round; stroke-linejoin:round; stroke-width:2.15px;"/><path id="uuid-ffa3a25e-937a-4e98-a6c1-685d12e23278" d="m248.91,74.62c1.18,5.42,2.08,11.85,2.87,17.81.71,5.37.86,10.81,1.67,16.17.59,3.89,1.01,7.78,2.29,11.54" style="fill:none; stroke:#55a; stroke-linecap:round; stroke-linejoin:round; stroke-width:2.15px;"/><path id="uuid-156970dc-0d9a-48a0-a985-d97da88c1443" d="m233.13,132.45c1.37-.95,2.38-2.05,3.8-1.92,3.02.28,5.44,2.82,7.22,5.55,1.88,2.9,3.03,6.81,2.83,10.26-.14,2.47-1.15,5.03-2.8,6.31-.83.64-1.71.34-3.05.29" style="fill:none; stroke:#55a; stroke-linecap:round; stroke-linejoin:round; stroke-width:2.15px;"/><path id="uuid-de387972-e797-463a-84a1-6eb1189897bf" d="m238.13,130.61c1.15-1.38,2.02-2.44,3.39-2.35,2.71.17,5.44,2.82,7.22,5.55,1.88,2.9,3.03,6.81,2.83,10.26-.14,2.47-.85,5.09-2.8,6.31-.67.42-1.04.9-2.39-.08" style="fill:none; stroke:#55a; stroke-linecap:round; stroke-linejoin:round; stroke-width:2.15px;"/><path id="uuid-782c528e-fa00-487c-bf57-0ae69705d492" d="m242.31,128.13c1.37-.95,2.59-2.78,4.27-2.63,2.72.25,5.44,2.82,7.22,5.55,1.88,2.9,3.03,6.81,2.83,10.26-.14,2.47-1.05,5.21-2.8,6.31-.77.48-1.38.42-2.73-.29" style="fill:none; stroke:#55a; stroke-linecap:round; stroke-linejoin:round; stroke-width:2.15px;"/><path id="uuid-5efe9a90-993b-48e6-a931-74028004f5b1" d="m248.02,125.46c1.04-1.66,2.1-2.44,3.5-2.34,2.71.2,5.44,2.82,7.22,5.55,1.88,2.9,3.03,6.81,2.83,10.26-.14,2.47-1.12,5.08-2.8,6.31-.78.56-1.38.69-2.84.09" style="fill:none; stroke:#55a; stroke-linecap:round; stroke-linejoin:round; stroke-width:2.15px;"/><path id="uuid-db584c26-224d-45b3-a5fb-71bb5d32b691" d="m252.86,122.67c.5-1.46,1.88-2.33,3.17-2.25,2.71.16,5.44,2.82,7.22,5.55,1.88,2.9,3.03,6.81,2.83,10.26-.14,2.47-1.11,5.09-2.8,6.31-.64.46-1,.11-2.35.06" style="fill:none; stroke:#55a; stroke-linecap:round; stroke-linejoin:round; stroke-width:2.15px;"/><path id="uuid-7b9b8b28-5c24-4898-90ff-5605da8c3760" d="m257.91,120.71c.5-1.73,1.51-2.21,2.62-2.19,2.7.05,5.44,2.82,7.22,5.55,1.88,2.9,2.91,6.79,2.83,10.26-.04,1.83-.57,3.81-1.7,4.87-.9.84-2.15.72-3.49.66" style="fill:none; stroke:#55a; stroke-linecap:round; stroke-linejoin:round; stroke-width:2.15px;"/></g></g><g id="uuid-98082296-776a-43be-96df-e9dbf699d278"><path id="uuid-47b48c49-7237-4c01-bc19-d6b15271d8f9" d="m111.97,29.5l32.53,40s9.17-2.9,13.88-3.78c6.95-1.3,14.02-2.07,21.09-2.22,11.09-.24,22.25.4,33.22,2.06,12.49,1.89,36.81,8.94,36.81,8.94l28.96-45H111.97Z" style="fill:#f55; stroke:#55a; stroke-linecap:round; stroke-linejoin:round; stroke-width:2px;"/><path id="uuid-7fd84378-f3cd-498f-8b37-738d45189135" d="m128.65,30.98l18.65,27.14c7.3-2.25,11.53-1.8,20.83-2.72l-4.65-24.42h-6.44l5.76,20.88c-5.34.33-7.74.28-13.14,1.12l-13.6-22h-7.4Z" style="fill:#fff; stroke:#fff; stroke-linecap:round; stroke-linejoin:round; stroke-width:2px;"/><path id="uuid-abd6407a-5e12-49f0-84db-37c637a7a0b7" d="m173.49,30.98l4.48,23.71c11.34-.94,19.89-.96,31.23.04l5.64-23.75h-7.27l-3.43,19.28c-8.91-.47-13.6-.52-21.08-.04l-3.03-19.24h-6.55Z" style="fill:#fff; stroke:#fff; stroke-linecap:round; stroke-linejoin:round; stroke-width:2px;"/><path id="uuid-633b8a8a-4564-4b30-9b58-85c792d12707" d="m225.87,30.98l-8.23,25.05c8.27.61,19.52,5,28.53,6.9l16.23-31.95h-7.13l-12.21,24.57c-5.03-1.22-12.98-2.81-18.01-3.43l6.99-21.15h-6.17Z" style="fill:#fff; stroke:#fff; stroke-linecap:round; stroke-linejoin:round; stroke-width:2px;"/></g><path id="uuid-bf080be0-6a66-43fe-ac43-96295b71c8df" d="m59.5,29.5h270v360h0" style="fill:none; stroke:#55a; stroke-width:2px;"/><g id="uuid-cc649964-1b2b-4f41-b068-09e77866d7cf"><path id="uuid-87cc3138-6ac7-4df9-b549-de3bb9b3c5f6" d="m157.15,93.79c.4.44.2,1.26-.09,1.77-.32.54-.96,1.01-1.59,1.03-.61,0-1.27-.41-1.59-.93-.35-.59-.58-1.57-.09-2.05.8-.79,2.61-.65,3.36.19h0Z" style="fill:#55a; stroke:#55a; stroke-linecap:round; stroke-linejoin:round; stroke-width:1.82px;"/><path id="uuid-f3cf351d-be64-4954-8477-21d7222c25e0" d="m207.4,82.46c-4.75-1.14-9.37-2.78-14.26-3.42-3.16-.41-6.52-1.1-9.6-.23-1.93.55-5.27,2.52-5.05,3.29.11.39.9.37,1.37.34,2.18-.12,4-1.88,6.15-2.26,2.61-.47,5.32-.22,7.95,0,4.55.38,8.96,1.52,13.44,2.28h0Z" style="fill:#55a; stroke:#55a; stroke-linecap:round; stroke-linejoin:round; stroke-width:1.82px;"/><path id="uuid-ab9ce28f-227c-47a3-bba3-536958e9107e" d="m181.73,91.52c-.55-.49-3.03-.73-2.58-1.29.58-.74,3.93-3.3,6.29-4.21,2.19-.85,4.61-1,6.97-1.05,2.5-.05,5.07.03,7.45.79,2.88.92,6.01,3.81,7.89,4.47" style="fill:none; stroke:#55a; stroke-linecap:round; stroke-linejoin:round; stroke-width:1.82px;"/><path id="uuid-ddc7b4db-9dc5-430f-8303-35562fc7b889" d="m210,96.64c-4.02-.89-7.76-4.73-12.07-5.67-2.87-.62-5.88-.33-8.78.12-1.75.27-3.49.79-5.11,1.56-.97.46-1.7.69-2.7,1.78,1.97.77,2.15,3.46,3.83,4.31,3.07,1.54,6.77.97,10.15.73,2.67-.19,5.22-1.2,7.85-1.7,2.26-.43,4.67.06,6.82-1.12h0Z" style="fill:none; stroke:#55a; stroke-linecap:round; stroke-linejoin:round; stroke-width:1.82px;"/><path id="uuid-8896fa96-19a6-4714-ab07-79bc54a4ba07" d="m199.85,92.54c-.09,1.18.41,2.5-.27,3.53-.82,1.24-2.5,2.07-4.11,2.5-1.26.34-2.73.38-3.98,0-1.19-.36-2.23-1.15-2.88-2.05-.89-1.23-.73-2.81-1.1-4.21" style="fill:none; stroke:#55a; stroke-linecap:round; stroke-linejoin:round; stroke-width:1.82px;"/><path id="uuid-9d6a6d70-a514-405d-adab-27c37d44f791" d="m195.3,92.57c.4.44.2,1.26-.09,1.77-.32.54-.96,1.01-1.59,1.03-.61,0-1.27-.41-1.59-.93-.35-.59-.58-1.57-.09-2.05.8-.79,2.61-.65,3.36.19h0Z" style="fill:#55a; stroke:#55a; stroke-linecap:round; stroke-linejoin:round; stroke-width:1.82px;"/><path id="uuid-b172eb47-e221-4a51-a9d3-f54161fc8b4c" d="m195.95,107.12c-2.88-.46-5.96-2.21-8.46-4.11-2.35-1.79-4.31-4.57-5.84-6.65" style="fill:none; stroke:#55a; stroke-linecap:round; stroke-linejoin:round; stroke-width:1.82px;"/><path id="uuid-57753524-9eae-4ab9-8641-57190635faa6" d="m164.99,84.51c.73,1.48,1.84,2.87,2.19,4.44.72,3.21.2,6.55-.27,9.79-.59,4.01-2.2,7.87-3.15,11.84-.61,2.55-2.99,5.43-1.66,7.7.78,1.32,3,.72,4.4,1.34,1.83.82,3.68,2.38,5.14,3.1" style="fill:none; stroke:#55a; stroke-linecap:round; stroke-linejoin:round; stroke-width:1.82px;"/><path id="uuid-ee2eaade-a074-44c8-a01e-1ea6fa95fd31" d="m182.16,109.89c1.87,1.71,4.62,2.97,5.62,5.12.48,1.03.56,2.3,0,3.3-.66,1.17-2.05,2.22-3.57,2.5-1.24.24-2.57-.31-3.7-.8-1.44-.62-2.24-2.03-3.7-2.62-1.05-.42-2.34-.92-3.43-.57-.37.12-.8.48-.69.8.37,1.01,2.37.77,3.57,1.14,1.55.47,3.11.91,4.66,1.37" style="fill:none; stroke:#55a; stroke-linecap:round; stroke-linejoin:round; stroke-width:1.82px;"/><path id="uuid-d7db2968-2576-4b4b-bc08-e1aa99a709dc" d="m188.81,130.96c-1.93-.8-4.64-.63-6.97-.59-2.38.05-4.68.97-7.05.88-2.71-.1-5.19-1.59-7.9-1.61-1.99-.02-4.26.72-5.82,1.09.13.56.32,1.3,0,1.74,2-.62,4.81-1.5,7.27-1.25,2.31.23,3.98,2.45,6.31,2.5,2.72.06,4.82-2.52,7.54-2.6,2.6-.08,5.38,1.64,7.41,2.03-.54-.67-.81-1.73-.78-2.19h0Z" style="fill:#55a; stroke:#55a; stroke-linecap:round; stroke-linejoin:round; stroke-width:1.82px;"/><path id="uuid-e2997956-481e-4d36-9e42-49e54627d2eb" d="m182.74,137.18c-1.92.68-3.71,1.7-5.75,2.05-1.52.25-3.13.2-4.65-.03-1.04-.16-2-.57-2.97-.91-.9-.31-1.77-.69-2.66-1.04" style="fill:none; stroke:#55a; stroke-linecap:round; stroke-linejoin:round; stroke-width:1.82px;"/><path id="uuid-59be97f7-a739-47c5-8ec5-22ed9c9812cb" d="m169.99,144.62c1.4-.47,2.72-.92,4.15-.91,1.19,0,2.31.38,3.44.81" style="fill:none; stroke:#55a; stroke-linecap:round; stroke-linejoin:round; stroke-width:1.82px;"/><path id="uuid-873107ee-0bcc-4fb0-b73c-27f410546848" d="m164.73,82.13c-1.9-1.85-6.06-2.31-9.31-2.52-2.37-.15-4.76.27-7.03.95-1.28.38-2.1,1.16-3.62,1.73,2.6-.42,4.53-1.18,6.85-1.26,2.36-.08,4.73.35,7.03.79,1.62.31,3.13.93,4.56,1.58.63.28,1.99-.81,1.52-1.26h0Z" style="fill:#55a; stroke:#55a; stroke-linecap:round; stroke-linejoin:round; stroke-width:1.82px;"/><path id="uuid-3e2323ee-4518-4725-9854-e11346bb920e" d="m165.4,90.25c-1.86-.76-3.47-2.9-5.57-3.59-2.8-.92-5.91-.98-8.81-.55-1.92.28-3.55,1.33-5.32,2" style="fill:none; stroke:#55a; stroke-linecap:round; stroke-linejoin:round; stroke-width:1.82px;"/><path id="uuid-300c4350-73a4-4713-8a5d-9bd66dbe5769" d="m165.14,93.25c-2.05-.75-3.57-.98-5.4-1.18-2.7-.31-5.46-.41-8.15-.08-1.6.2-3.27.47-4.66,1.22-.88.47-1.44,1.32-2.16,1.98.14,1.01.28,2.03.42,3.04,1.44.46,2.83,1.11,4.32,1.37,2.04.35,4.16.35,6.24.23,2.21-.12,4.46-.27,6.57-.99,1.14-.39,2.28-.93,3.2-1.76.65-.58,1.15-1.8,1.54-2.18-.36-.66-1.6-1.3-1.92-1.65h0Z" style="fill:none; stroke:#55a; stroke-linecap:round; stroke-linejoin:round; stroke-width:1.82px;"/><path id="uuid-e0c0e1c7-98e5-4dcf-82cd-05757094273a" d="m161.34,93.51c-.09,1.18.41,2.5-.27,3.53-.82,1.24-2.5,2.07-4.11,2.5-1.26.34-2.73.38-3.98,0-1.19-.36-2.23-1.15-2.88-2.05-.89-1.23-.73-2.81-1.1-4.21" style="fill:none; stroke:#55a; stroke-linecap:round; stroke-linejoin:round; stroke-width:1.82px;"/><path id="uuid-ad4567a2-959b-43c4-83ad-5785b4a0dea6" d="m165.68,99.67c-1.53,1.4-2.79,3.03-4.59,4.2-1.44.93-3.21,1.43-4.82,2.15" style="fill:none; stroke:#55a; stroke-linecap:round; stroke-linejoin:round; stroke-width:1.82px;"/></g><path id="uuid-878f0c31-ec49-443a-8696-8cb6941a9701" d="m143.91,70.33c.08,6.74,0,13.49.24,20.22.24,6.59.4,13.2,1.19,19.75.79,6.56,1.55,13.21,3.57,19.51,1.76,5.51,3.96,11.04,7.38,15.7,2.55,3.49,5.74,6.71,9.52,8.8,3.16,1.75,6.86,2.62,10.47,2.85,4.15.28,8.35-.59,12.37-1.67,4.47-1.19,8.71-3.17,12.85-5.23,3.31-1.65,6.36-3.78,9.52-5.71,2.55-1.56,5.08-3.17,7.61-4.76" style="fill:none; stroke:#55a; stroke-linecap:round; stroke-linejoin:round; stroke-width:2px;"/><path id="uuid-63b43f52-ac5c-44d4-9469-6d80267d1af7" d="m110.34,147.41c-18.86,9.05-37.74,18.17-55.68,24.93l-.35,46.49s12.96-11.55,18.92-17.85c5.28-5.6,10.26-11.5,14.85-17.68,3.66-4.92,6.83-10.18,10.08-15.38,4.21-6.75,12.2-20.51,12.2-20.51h0Z" style="stroke:#55a; stroke-linecap:round; stroke-linejoin:round; stroke-width:2px;"/><path id="uuid-394c61a2-e1e4-4be2-8412-a19469fb5988" d="m54,218.25c.08,6.5.17,13,.25,19.5,5.17-4.17,10.44-8.2,15.5-12.5,5.62-4.78,11.47-9.35,16.5-14.75,4.74-5.09,8.68-10.87,12.75-16.5,4.36-6.03,8.44-12.26,12.5-18.5,3.17-4.86,6.17-9.83,9.25-14.75-3.67-4.17-7.33-8.33-11-12.5-3.08,5.33-6.03,10.75-9.25,16-3.52,5.76-7.05,11.53-11,17-4.13,5.72-8.57,11.22-13.25,16.5-3.16,3.57-6.5,7.01-10,10.25-3.91,3.62-8.17,6.83-12.25,10.25Z" style="fill:#55a; stroke:#55a; stroke-linecap:round; stroke-linejoin:round; stroke-width:2px;"/><path id="uuid-0b004e2c-742f-4a82-96c3-3077d184dfb8" d="m107.28,156.25c-1.01-.29-1.55,1.64-1.66,2.69-.31,3.16,5.32,6.43,3.34,8.91-1.62,2.02-5.27-1.99-7.69-1.06-1.06.41-1.97,1.48-2.19,2.59-.66,3.39,5.48,7.23,3.22,9.84-1.82,2.1-5.58-2.31-8.22-1.44-1.05.35-1.99,1.34-2.28,2.41-.96,3.48,4.84,7.96,2.34,10.56-1.95,2.03-5.63-2.33-8.31-1.47-1.05.34-2,1.31-2.31,2.38-.98,3.36,4.59,7.8,2.12,10.28-2.28,2.29-6.39-2.79-9.5-1.91-1.04.3-2.01,1.2-2.38,2.22-1.18,3.28,4.08,8.26,1.31,10.38-2.24,1.72-5.03-3.47-7.84-3.22-1.08.1-2.2.81-2.75,1.75-1.89,3.25,2.79,9.57-.56,11.28-1.98,1.01-3.41-3.22-5.59-3.62-.93-.17-2.27-.2-2.78.59s.06,2,.59,2.78c1.92,2.78,5.13,5.33,8.5,5.5,1.16.06,2.47-.62,3.09-1.59,2.16-3.35-2.77-9.8.59-11.94,2.55-1.62,5.41,3.84,8.41,3.44,1.13-.15,2.28-1.04,2.72-2.09,1.42-3.41-4.11-8.48-1.41-11,2.43-2.27,6.6,2.93,9.78,1.97,1.07-.32,2.05-1.3,2.38-2.38,1.01-3.38-4.61-7.81-2.16-10.34,1.97-2.03,5.66,2.35,8.34,1.47,1.05-.35,1.99-1.34,2.28-2.41.97-3.49-4.84-7.98-2.34-10.59,2-2.09,5.83,2.47,8.56,1.5,1.08-.38,2.02-1.47,2.25-2.59.69-3.43-5.49-7.29-3.25-9.97,1.68-2.02,5.37,2.03,7.81,1.06,1.06-.42,1.97-1.53,2.16-2.66.5-3.05-5.24-6.32-3.25-8.69,1.26-1.49,3.84,1.49,5.75,1.09.93-.19,2.17-.67,2.34-1.59.18-.93-.8-1.83-1.59-2.34-2.62-1.72-6.13-1.38-9.25-1.75-.2-.02-.46.11-.59-.03,0,0,0,0,0,0Z" style="fill:#fff;"/><path id="uuid-22dfe1ed-1edd-4490-8a7e-511baec33b8b" d="m132.77,245.78c.24-3.64-.26-5.78-.02-9.42,6.23-8.09,11.28-19.37,17.51-27.46,1.69-6.07,11.22-17.36,13.85-19.28,1.85.37,3.53,1.1,2.9,3.34-.63,2.24-2.72,5.97-7.08,11.63-1.86,2.18-5.44,10.11-8.47,14.98-2.96,4.74-6.22,9.29-9.47,13.84-2.99,4.19-6.15,8.25-9.22,12.38h0Z" style="fill:#ff5; stroke:#55a; stroke-linecap:round; stroke-linejoin:round; stroke-width:2px;"/><path id="uuid-add70619-2917-481f-a37b-8e1049d861f7" d="m164.82,192.28l-1.33-10.22,5.45-3.04,2.21,6.07-6.33,7.19Z" style="fill:#ff5; stroke:#55a; stroke-linecap:round; stroke-linejoin:round; stroke-width:2px;"/><path id="uuid-ef3bb332-6104-4cf6-be98-984b4b3fa04d" d="m164.32,209.16s-2.41,10.15-5.1,14.53c-2.69,4.39-7.36,7.23-10.68,11.17-2.01,2.39-4.44,4.62-5.58,7.53-1.1,2.8-.04,6.12-.97,8.98-.75,2.31-3.64,6.31-3.64,6.31l-5.83-5.1.49-6.8s6.39-7.26,9.22-11.17c2.31-3.18,4.14-6.68,6.31-9.95,1.41-2.13,2.99-4.15,4.37-6.31,4.46-6.99,12.56-21.47,12.56-21.47l4.48-2.89-5.63,15.17Z" style="fill:#f55; stroke:#55a; stroke-linecap:round; stroke-linejoin:round; stroke-width:2px;"/><path id="uuid-bd899bbd-6290-4b3b-9697-dfd122ad2003" d="m132.04,170.52l.48,80.78" style="fill:#f55; stroke:#55a; stroke-linecap:round; stroke-linejoin:round; stroke-width:2px;"/><path id="uuid-7369ff3c-43ae-46d5-9819-fd8013d0752e" d="m215.55,179.26l-72.82,71.85" style="fill:#f55; stroke:#55a; stroke-linecap:round; stroke-linejoin:round; stroke-width:2px;"/><path id="uuid-167d9981-245c-455e-9efb-ac2ac232e78c" d="m133.01,178.29l4.37-3.88" style="fill:#f55; stroke:#55a; stroke-linecap:round; stroke-linejoin:round; stroke-width:2px;"/><path id="uuid-2befd37d-b3d7-4ad5-853f-ff7fd219c8ef" d="m132.77,185.57l10.68-8.5" style="fill:#f55; stroke:#55a; stroke-linecap:round; stroke-linejoin:round; stroke-width:2px;"/><path id="uuid-bea8cce7-522d-47d6-9292-b8105fd6094d" d="m132.77,191.89l17.24-12.38" style="fill:#f55; stroke:#55a; stroke-linecap:round; stroke-linejoin:round; stroke-width:2px;"/><path id="uuid-0a91ee06-39c5-4c89-9cf9-c7eb1a3add21" d="m133.25,198.68l23.55-17.48" style="fill:#f55; stroke:#55a; stroke-linecap:round; stroke-linejoin:round; stroke-width:2px;"/><path id="uuid-06bf54f8-7326-4f68-9211-b9ed763cdf56" d="m133.5,206.21l24.92-19.59" style="fill:#f55; stroke:#55a; stroke-linecap:round; stroke-linejoin:round; stroke-width:2px;"/><path id="uuid-3b3bf59a-56c6-468d-8b74-5497f49ebf18" d="m133.25,213.49l24.2-21.04" style="fill:#f55; stroke:#55a; stroke-linecap:round; stroke-linejoin:round; stroke-width:2px;"/><path id="uuid-b14513dc-dd0c-44a3-9f0e-34c16558157c" d="m133.74,219.56l19.63-16.95" style="fill:#f55; stroke:#55a; stroke-linecap:round; stroke-linejoin:round; stroke-width:2px;"/><path id="uuid-5ad2d55a-567e-4a6a-b977-013b5e25d368" d="m133.98,225.63l11.4-10.16" style="fill:#f55; stroke:#55a; stroke-linecap:round; stroke-linejoin:round; stroke-width:2px;"/><path id="uuid-9732d25e-dcec-4633-9a9c-0d1ec17f3e59" d="m146.36,239.22l.73,6.55" style="fill:#f55; stroke:#55a; stroke-linecap:round; stroke-linejoin:round; stroke-width:2px;"/><path id="uuid-a98eca04-7698-43c8-91e2-18612596319e" d="m150.73,233.15l.49,8.25" style="fill:#f55; stroke:#55a; stroke-linecap:round; stroke-linejoin:round; stroke-width:2px;"/><path id="uuid-3a1a5f73-e67e-49ab-8b6e-c004ca63242a" d="m155.83,227.81l.97,8.74" style="fill:#f55; stroke:#55a; stroke-linecap:round; stroke-linejoin:round; stroke-width:2px;"/><path id="uuid-9e17872f-2d8e-4cac-b1a7-7b3b951598e7" d="m161.17,222.23l1.21,7.53" style="fill:#f55; stroke:#55a; stroke-linecap:round; stroke-linejoin:round; stroke-width:2px;"/><path id="uuid-affdf31b-aa5b-4f77-9435-1b67abf61e42" d="m164.58,211.56l2.42,14.79" style="fill:#f55; stroke:#55a; stroke-linecap:round; stroke-linejoin:round; stroke-width:2px;"/><path id="uuid-ef5eb610-79b1-4f57-8530-16def87e58f6" d="m167.27,201.66l4.83,20.31" style="fill:#f55; stroke:#55a; stroke-linecap:round; stroke-linejoin:round; stroke-width:2px;"/><path id="uuid-66a2f2ea-d9b8-46ac-b393-393f5b031570" d="m171.15,191.97l5.56,24.66" style="fill:#f55; stroke:#55a; stroke-linecap:round; stroke-linejoin:round; stroke-width:2px;"/><path id="uuid-20bc39ac-904f-4231-99c9-6391486ee14d" d="m175.73,185.57l4.85,26.7" style="fill:#f55; stroke:#55a; stroke-linecap:round; stroke-linejoin:round; stroke-width:2px;"/><path id="uuid-5c490bc4-e546-4ed6-933d-ace0c073198e" d="m182.05,185.57l3.64,20.88" style="fill:#f55; stroke:#55a; stroke-linecap:round; stroke-linejoin:round; stroke-width:2px;"/><path id="uuid-ea4ab29d-997b-4a96-ba2f-8c9a3db746ec" d="m187.14,185.33l3.4,16.26" style="fill:#f55; stroke:#55a; stroke-linecap:round; stroke-linejoin:round; stroke-width:2px;"/><path id="uuid-c0a1aa6b-d0f1-4a37-907d-7687a5259161" d="m192.73,185.09l2.91,12.38" style="fill:#f55; stroke:#55a; stroke-linecap:round; stroke-linejoin:round; stroke-width:2px;"/><path id="uuid-ef15c34b-1575-462e-a000-a72a4da9e70d" d="m198.8,183.63l1.93,9.73" style="fill:#f55; stroke:#55a; stroke-linecap:round; stroke-linejoin:round; stroke-width:2px;"/><path id="uuid-0681ca83-1ab9-4bc3-8a0b-dc636dc9d6ad" d="m202.92,182.9l1.21,5.83" style="fill:#f55; stroke:#55a; stroke-linecap:round; stroke-linejoin:round; stroke-width:2px;"/><path id="uuid-6ae69a65-d6ce-4d24-a780-ea6b0d9d6bfc" d="m208.02,181.45l.72,4.13" style="fill:#f55; stroke:#55a; stroke-linecap:round; stroke-linejoin:round; stroke-width:2px;"/><path id="uuid-bebac67b-7d36-49eb-a262-ee90273b18f8" d="m303.33,182.65c-1.14-1.84,2.08-5.63,2.09-8.58.02-3.76-2.9-7.23-2.57-10.97.2-2.29,1.98-4.16,2.72-6.33.58-1.73,1.76-3.54,1.33-5.32-.45-1.9-1.89-4.3-3.84-4.41-1.71-.09-2.74,2.13-3.79,3.49-2.43,3.16-4.3,6.81-5.56,10.6-1.36,4.11-2.07,5.82-2.04,8.84.03,3.77.26,5.92,2.74,10.98-.13,2.29-.69,4.59-.4,6.86.22,1.7.48,3.57,1.57,4.9,1.23,1.49,3.19,2.37,5.07,2.8,3.3.76,7.11.87,10.14-.52" style="fill:none; stroke:#55a; stroke-linecap:round; stroke-linejoin:round; stroke-width:2px;"/><path id="uuid-a6b971c6-9d2e-421c-8e75-4dafbab18d03" d="m296.73,154.84c.96.91,1.58,2.48,2.88,2.72.95.17,1.93-.49,2.67-1.12.85-.73,1.28-1.85,1.78-2.85.57-1.14.96-2.78,1.36-3.56" style="fill:none; stroke:#55a; stroke-linecap:round; stroke-linejoin:round; stroke-width:2px;"/><path id="uuid-844f82a5-3f2f-4eca-bde2-e0d7dd1b6395" d="m314.42,169.95c.18-.45.46-.87.55-1.34.13-.66.17-1.36,0-2.01-.24-.9-.63-1.87-1.38-2.41-.87-.64-2.1-.79-3.17-.67-1.16.13-2.33.67-3.17,1.48-.58.56-1.03,1.35-1.1,2.15-.06.65.12,1.38.55,1.88.63.73,1.68.99,2.62,1.21,1.66.39,3.4.23,5.1.13,2.14-.12,4.36-.13,6.37-.87,1.79-.66,3.46-1.76,4.82-3.08.82-.8,1.78-1.7,1.93-2.82.2-1.5-.17-3.41-1.52-4.29-.79-.52-1.96-.07-2.94.04-2.44.27-4.77,1.1-7.18,1.53-2.07.37-4.23.33-6.25.92-2.05.6-3.93,1.76-5.83,2.61" style="fill:none; stroke:#55a; stroke-linecap:round; stroke-linejoin:round; stroke-width:2px;"/><path id="uuid-1d5b10de-3285-4b9b-bf79-302579f036bb" d="m325.02,166.53c1,.94,2.42,1.5,3,2.82.41.93.47,2.15.13,3.11-.54,1.53-1.94,2.48-3.13,3.41-1.43,1.12-3.04,1.94-4.7,2.52-1.64.57-3.38.72-5.09.89-1.69.17-3.41.4-5.09.15-.77-.11-1.61-.21-2.22-.74-.53-.46-.97-1.18-1.04-1.93-.08-.78.26-1.58.65-2.22.61-.98,1.46-1.91,2.48-2.22.93-.29,1.96.09,2.87.44.81.32,1.75.67,2.22,1.48.36.62.32,1.48.26,2.22-.06.83-.44,1.58-.65,2.37" style="fill:none; stroke:#55a; stroke-linecap:round; stroke-linejoin:round; stroke-width:2px;"/><path id="uuid-3ce0d914-45b9-4981-9c8c-2e3c01a004d0" d="m325.93,176.17c.68,1.14,1.77,2.09,2.05,3.41.32,1.51.24,3.31-.55,4.6-.9,1.48-2.69,2.09-4.23,2.67-1.91.71-3.99.74-6.01.89-1.73.13-3.5.41-5.19,0-1.03-.25-2.09-.7-2.87-1.48-.61-.62-1.19-1.47-1.23-2.37-.04-.86.39-1.76.96-2.37.74-.8,1.84-1.16,2.87-1.33,1.04-.18,2.21-.23,3.14.3.69.39,1.2,1.15,1.5,1.93.34.87.45,1.89.27,2.82-.17.89-.82,1.58-1.23,2.37" style="fill:none; stroke:#55a; stroke-linecap:round; stroke-linejoin:round; stroke-width:2px;"/><path id="uuid-9c5fa250-4873-4984-a0f5-a8e4a9ee8c3b" d="m324.81,186.7c.92.44,2.51.82,2.91,1.93.4,1.12-.4,2.4-1.02,3.41-.88,1.42-2.12,2.74-3.64,3.41-1.25.55-2.71.32-4.07.3-1.9-.03-3.84-.09-5.67-.59-1.38-.38-3.06-.62-3.93-1.78-.39-.52-.45-1.3-.29-1.93.28-1.09,1.09-2.09,2.04-2.67,1.22-.75,2.91-1.31,4.22-.74,1.19.51,1.84,1.99,2.18,3.26.21.76.16,1.64-.15,2.37-.31.74-1.07,1.19-1.6,1.78" style="fill:none; stroke:#55a; stroke-linecap:round; stroke-linejoin:round; stroke-width:2px;"/><path id="uuid-3da87af3-6c5b-446f-af65-debf1f6d378c" d="m111.29,176.25l.71,63.15s-4.56-13.94-7.8-20.5c-3.02-6.12-10.78-17.4-10.78-17.4,0,0,6.3-8.01,9.24-12.16,3.02-4.26,8.62-13.09,8.62-13.09Z" style="fill:#f55; stroke:#55a; stroke-linecap:round; stroke-linejoin:round; stroke-width:2px;"/><path id="uuid-717fc0ca-056c-42fb-aedf-c3fa6abd3104" d="m328.5,51.05l-16.19,14.95.2,23.33s5.02,1.19,7.58,1.4c2.8.22,8.42-.2,8.42-.2v-39.47Z"/><path id="uuid-37b57446-6358-4c6a-9b76-921dd6e3d67e" d="m329.5,43.08l-23.18,20.13v25.72l5.78.8.4-23.72,16.99-14.16v-8.77Z" style="fill:#ff5; stroke:#55a; stroke-linecap:round; stroke-linejoin:round; stroke-width:2px;"/><path id="uuid-a6e57002-69ea-4782-b861-fb7d4f741c53" d="m329.5,90.73c-5.12-.2-11-.49-16.42-1.38-6.07-.99-12.11-2.38-17.92-4.4-5.87-2.05-11.46-4.86-16.95-7.78-3.85-2.04-7.44-4.52-11.16-6.78,2.46,5.38,4.19,11.16,7.38,16.15,3.91,6.12,8.44,12.08,14.15,16.55,5.85,4.58,12.9,7.59,19.94,9.97,5.06,1.71,10.45,2.29,15.75,2.99,1.73.23,3.57.27,5.23.4v-5.78c-3.92-.16-8.31-.54-12.36-1.45-5.49-1.22-10.9-2.96-16-5.33-3.81-1.77-7.52-3.9-10.77-6.58-2.56-2.11-4.67-4.74-6.69-7.37-1.41-1.83-3.01-3.47-3.75-5.83,2.59,1.2,5.78,2.99,8.77,4.27,3.49,1.5,7.04,2.89,10.68,3.99,3.51,1.05,7.1,1.81,10.7,2.47,3.22.59,6.46,1.03,9.72,1.35,3.22.31,6.5.26,9.69.53v-5.98Z" style="fill:#ff5; stroke:#55a; stroke-linecap:round; stroke-linejoin:round; stroke-width:2px;"/><path id="uuid-97c15067-6dcf-4a83-948c-1dadb2e5db22" d="m294.22,94.03c0,.83-.67,1.5-1.5,1.5s-1.5-.67-1.5-1.5.67-1.5,1.5-1.5,1.5.67,1.5,1.5Z" style="fill:#ff5;"/><path id="uuid-ed0e57c9-d8e3-4ce9-b103-87a1af89a87f" d="m302.92,97.55c0,1.38-1.12,2.5-2.5,2.5s-2.5-1.12-2.5-2.5,1.12-2.5,2.5-2.5,2.5,1.12,2.5,2.5Z" style="fill:#ff5;"/><path id="uuid-9da64b16-7f7d-4645-b9c0-58955a8002e2" d="m314.23,100.91c0,1.93-1.57,3.5-3.5,3.5s-3.5-1.57-3.5-3.5,1.57-3.5,3.5-3.5,3.5,1.57,3.5,3.5Z" style="fill:#ff5;"/><path id="uuid-65557883-ad9d-4793-9ca4-4bc0098f8bcc" d="m326.42,103.21c0,2.49-2.01,4.5-4.5,4.5s-4.5-2.01-4.5-4.5,2.01-4.5,4.5-4.5,4.5,2.01,4.5,4.5Z" style="fill:#ff5;"/><path id="uuid-3bc433d6-22ba-4e5c-b54f-40f79051e225" d="m306.38,112.76v50.2l5.48-1.77v-46.49l-5.48-1.94Z" style="fill:#ff5; stroke:#55a; stroke-linecap:round; stroke-linejoin:round; stroke-width:2px;"/><path id="uuid-48564eab-b911-4cfc-9dd4-1d81317a799a" d="m306.03,196.73l4.77-1.94,2.3.88-.35,174.48,16.62,10.25.13,9.1-23.65-14.93.18-177.84Z" style="fill:#ff5; stroke:#55a; stroke-linecap:round; stroke-linejoin:round; stroke-width:2px;"/><path id="uuid-8fb3c76f-81bd-4c9a-881a-cf2ca39599ea" d="m293.66,185.95c-3.89,5.07-8.3,9.77-11.67,15.2-3.53,5.69-6.44,11.78-8.84,18.03-2.46,6.41-4.39,13.05-5.66,19.8-1.18,6.28-1.85,12.7-1.77,19.09.08,6.05,1.14,12.06,2.12,18.03.92,5.59,1.92,11.19,3.54,16.62,1.4,4.72,3.29,9.29,5.3,13.79,1.9,4.23,4.24,8.25,6.36,12.37,2.47-2.24,4.95-4.48,7.42-6.72-3.3-6.48-7.37-12.63-9.9-19.45-2.24-6.03-3.61-12.38-4.6-18.74-1.07-6.89-1.74-13.9-1.41-20.86.28-5.84,1.48-11.63,2.83-17.32,1.45-6.13,3.19-12.24,5.66-18.03,2.21-5.19,5.06-10.11,8.13-14.85,2.01-3.1,4.48-5.89,6.72-8.84-1.18-.94-2.79-1.51-3.54-2.83-.88-1.55-.47-3.54-.71-5.3Z" style="fill:#55a;"/><path id="uuid-e54e7fba-5ab9-4eec-a072-121cffd15c88" d="m296.1,155.67c-1.48-1.14-4.95-2.27-6.43-3.41-3.52,4.09-7.07,8.15-10.56,12.26-2.29,2.71-4.6,5.4-6.81,8.17-2.57,3.23-5.12,6.49-7.49,9.88-2.17,3.1-4.24,6.26-6.13,9.54-1.86,3.21-3.49,6.54-5.11,9.88-1.68,3.48-3.35,6.97-4.77,10.56-1.55,3.91-3.05,7.85-4.09,11.92-1.17,4.58-1.84,9.27-2.38,13.96-.65,5.58-1.08,11.2-1.06,16.81.01,5.19.52,10.38,1.06,15.54.68,6.5,1.26,13.04,2.72,19.41,1.57,6.86,3.95,13.53,6.47,20.09,2.19,5.69,4.7,11.27,7.49,16.69,1.75,3.39,3.86,6.58,5.79,9.88,2.38-2.38,4.77-4.77,7.15-7.15-3.63-6.24-7.99-12.12-10.9-18.73-2.92-6.64-4.79-13.72-6.47-20.78-1.76-7.39-3.18-14.9-3.75-22.48-.52-7.02-.25-14.1.34-21.12.54-6.47,1.29-12.97,2.92-19.25,1.75-6.74,4.39-13.24,7.29-19.57,2.65-5.77,5.9-11.26,9.2-16.69,2.76-4.55,5.46-9.18,8.86-13.28,3.69-4.47,8.43-8.46,12.4-12.2.91-3.63,3.33-6.3,4.24-9.94h0Z" style="fill:#55a;"/><path id="uuid-65c06af5-a10b-4dcb-be40-b4cfc059ca24" d="m270.19,139.49l26.08,16.62" style="fill:none; stroke:#55a; stroke-linecap:round; stroke-linejoin:round; stroke-width:2px;"/><path id="uuid-03a65abc-8363-4889-aec4-da9bd503f291" d="m226.84,197.77l53.46-51.78,9.63,7.47s-10.5,10.75-15.17,16.62c-5.71,7.18-11.05,14.7-15.65,22.64-2.24,3.85-3.99,7.97-5.78,12.04-2.09,4.75-5.78,14.45-5.78,14.45l-20.71-21.43Z" style="fill:#55a; stroke:#55a; stroke-linecap:round; stroke-linejoin:round; stroke-width:2px;"/><path id="uuid-23e72a4f-44ca-43f8-bf6f-4c2ff2efa940" d="m275.88,150.97c-.95.37-1.64,1.42-1.88,2.41-.72,3.07,4.29,7.19,1.91,9.25-1.93,1.67-4.67-3.05-7.19-2.62-1.14.19-2.27,1.11-2.69,2.19-1.11,2.86,3.84,7.32,1.34,9.09-2.03,1.44-4.18-2.98-6.62-3.47-.7-.14-1.58-.25-2.15.19s-.69,1.31-.73,2.03c-.21,3.53,5.18,8.14,2.41,10.34-2.32,1.85-5.08-3.4-8-3.91-.7-.12-1.56-.2-2.11.24-.55.44-.66,1.3-.7,2.01-.21,3.9,5.71,9.01,2.62,11.41-2.86,2.22-6.1-4.3-9.66-4.97-.71-.13-1.59-.23-2.16.22s-.62,1.34-.69,2.06c-.51,5.54,7.33,14.12,2.31,16.53-4,1.93-4.88-8.46-9.16-9.69-.91-.26-2.27-.1-2.75.72s.2,1.96.72,2.75c3.57,5.45,9.13,10.15,15.34,12.09.7.22,1.62.31,2.2-.14.59-.44.7-1.35.74-2.08.24-5.8-8.94-13.22-4.41-16.84,2.78-2.23,6,4.22,9.5,4.91.7.14,1.58.25,2.15-.19s.69-1.31.73-2.03c.23-3.95-5.78-9.1-2.69-11.56,2.33-1.86,5.1,3.41,8.03,3.94.71.13,1.58.23,2.14-.22.56-.44.67-1.32.7-2.03.18-3.48-5.13-8.05-2.38-10.19,1.85-1.44,3.95,2.77,6.25,3.25.68.14,1.52.26,2.08-.14.57-.4.73-1.23.82-1.92.42-3.24-3.97-7.63-1.44-9.69,2.05-1.67,4.84,3.2,7.44,2.72,1.14-.21,2.25-1.18,2.62-2.28,1.01-2.99-4.29-7.21-1.91-9.28,2.33-2.02,5.61,3.2,8.69,3.12.98-.02,2.4-.21,2.73-1.14.33-.93-.64-1.97-1.38-2.61-3.22-2.8-7.9-3.28-12.03-4.34-.26-.07-.54-.22-.78-.12Z" style="fill:#fff;"/><path id="uuid-03efdd83-f695-4d46-953a-1954328a65de" d="m166.27,191.37l5.21-5.09,1.93,7.52-5.69,6.07-1.45-8.5Z" style="fill:#f55; stroke:#55a; stroke-linecap:round; stroke-linejoin:round; stroke-width:2px;"/><path id="uuid-2664c27c-1654-4f70-a1c2-ea811eec1071" d="m155.85,187.4l6.54-4.74,1.49,7.3-6.1,6.29-1.93-8.86Z" style="fill:#f55; stroke:#55a; stroke-linecap:round; stroke-linejoin:round; stroke-width:2px;"/><path id="uuid-ca9187f5-2a91-4f27-8605-848a4e669b20" d="m150,272.5l62-5.5s3.05,5.34,4.84,7.84c2.18,3.05,4.5,6.03,7.16,8.66,2.52,2.49,5.34,4.69,8.27,6.68,2.55,1.74,5.37,3.04,8.06,4.56,2.06,1.17,6.17,3.5,6.17,3.5,0,0-2.87-10.92-3.76-16.48-.8-5.03-1.11-10.12-1.41-15.2-.28-4.71-.55-9.43-.35-14.14.27-6.63.9-13.28,2.12-19.8.83-4.44,3.54-13.08,3.54-13.08l-19.86-21.27-76.77,74.24Z" style="stroke:#000; stroke-linecap:round; stroke-linejoin:round; stroke-width:2px;"/><path id="uuid-663dfb72-544b-4026-843e-ca8ea04ce881" d="m220.59,205.44l-4.06,4,8.44.06-1.56,1.47h-.62l-7.78.16-3.94,4,8-.09-2.31,2.16-6.72-.81-4.5,3.97,7.44.41-1.34,1.28-7.5.22-3.88,4,6.97-.09-1.25,1.19h-6.88l-4.03,4h6.62l-2.12,2-5.66-.62-4.44,3.97,9.38.59.36,13.7,4-3.97-.36-11.26,2.09-2,.16,11.41,4-4.06-.22-11.03,1.88-1.75.34,11.5,4-4.19-.5-10.94,1.53-1.44.34,10.88,4-4.19-.5-10.28,1.19-1.12.41,9.94,4-4.25-.62-9.25,2.5-2.34.28,10.56,3.97-4.16-.44-11.53-.06-1.91-1.91-.03-8.69-.13Z" style="fill:#ff5;"/><path id="uuid-ca8e2992-a39a-4c26-a561-df47880a755d" d="m234.52,220.94l-4.06,4,8.44.06-1.56,1.47h-.62l-7.78.16-3.94,4,8-.09-2.31,2.16-6.72-.81-4.5,3.97,7.44.41-1.34,1.28-7.5.22-3.88,4,6.97-.09-1.25,1.19h-6.88l-4.03,4h6.62l-2.12,2-5.66-.62-4.44,3.97,9.38.59.47,13.38,4-3.97-.47-10.94,2.09-2,.16,11.41,4-4.06-.22-11.03,1.88-1.75.34,11.5,4-4.19-.5-10.94,1.53-1.44.34,10.88,4-4.19-.5-10.28,1.19-1.12.41,9.94,4-4.25-.62-9.25,2.5-2.34.28,10.56,1.43-7.86,2.1-7.83-.06-1.91-1.91-.03-8.69-.13Z" style="fill:#ff5;"/><path id="uuid-0684e1c0-c485-4b52-8cbe-0c4bd8986819" d="m238.15,245.86l-4.5,3.97,5.96.41-.39,1.49h-6.97s-3.88,4.01-3.88,4.01l6.97-.09-1.25,1.19h-6.88l-4.03,4h6.62l-2.12,2-5.66-.62-4.44,3.97,9.38.59.47,13.38,4-3.97-.47-10.94,2.09-2,.16,11.41,4-4.06-.22-11.03,1.88-1.75.34,11.5,1.04-2.28-.08-11.68.47-9.13-2.49-.34Z" style="fill:#ff5;"/><path id="uuid-b933e2f2-3253-4358-bfc7-0f8d2c7d5821" d="m324.19,62.56c-.55-.01-1.04.43-1.47.78-2.92,2.42-5.79,5.32-7.12,8.88-.27.73-.3,1.59-.09,2.34.98,3.54,3.02,7.11,6.03,9.22.79.55,2.01,1.19,2.82.66.81-.53.71-1.9.52-2.85-.63-3.14-5.4-4.84-5.25-8.03.16-3.29,4.91-4.68,6.19-7.72.28-.67.58-1.52.26-2.17s-1.15-1.09-1.88-1.11h0Z" style="fill:#ff5;"/><path id="uuid-177c58e5-4c0f-41c8-8de8-77a321dde7ec" d="m317.22,118.31c-.94.6-1.46,1.92-1.41,3.03.24,4.61,7.48,7.3,7.09,11.91-.31,3.71-5.9,5.03-7.25,8.5-.3.77-.33,1.68-.09,2.47,1.11,3.64,3.48,7.23,6.72,9.22.8.49,2.03,1.01,2.8.45s.67-1.88.45-2.8c-.76-3.2-5.94-4.68-5.81-7.97.14-3.66,5.7-5,7.12-8.38.3-.71.39-1.56.22-2.31-1.12-4.97-4.07-9.67-7.81-13.12-.55-.51-1.3-.83-2.03-1h0Z" style="fill:#ff5;"/><path id="uuid-ec08184e-a120-46f3-8ae5-9a788d769d79" d="m321.44,197.44c-.67.18-1.46.44-1.79,1.05-.33.61-.11,1.42.11,2.08.75,2.3,3.88,3.65,3.97,6.06.18,4.74-5.61,7.89-6.88,12.47-.16.58-.18,1.22-.06,1.81.93,4.51,6.21,7.9,5.91,12.5-.29,4.41-5.81,6.93-7.19,11.12-.21.63-.26,1.35-.12,2,1.15,5.52,7.72,9.42,7.72,15.06,0,5.11-5.76,8.67-7,13.62-.14.58-.16,1.2-.03,1.78,1.16,5.3,7.23,9.26,7.03,14.69-.17,4.69-5.73,7.7-6.97,12.22-.17.61-.18,1.29-.03,1.91,1.15,4.96,7.05,8.5,6.97,13.59-.07,4.78-5.7,7.94-6.94,12.56-.16.6-.18,1.27-.03,1.88,1.15,4.82,7.14,8.21,6.91,13.16-.2,4.13-5.41,6.48-6.78,10.38-.21.59-.28,1.25-.19,1.88.49,3.41,1.55,7.06,3.91,9.56.68.72,1.76,1.66,2.67,1.29s1.03-1.8,1.02-2.79c-.06-3.09-3.8-5.52-3.5-8.59.4-4.16,5.59-6.52,6.88-10.5.21-.64.24-1.37.09-2.03-1.08-4.87-7-8.26-6.94-13.25.06-4.77,5.7-7.92,6.94-12.53.16-.6.17-1.27.03-1.88-1.15-4.96-7.08-8.5-6.97-13.59.1-4.67,5.64-7.69,6.91-12.19.17-.59.19-1.24.06-1.84-1.11-5.32-7.08-9.29-7-14.72.07-5.12,5.8-8.71,7-13.69.14-.59.14-1.23,0-1.81-1.31-5.44-7.94-9.35-7.66-14.94.22-4.41,5.8-6.93,7.19-11.12.2-.61.25-1.3.12-1.94-.87-4.55-6.08-7.93-5.94-12.56.15-4.79,5.81-7.93,6.94-12.59.16-.67.14-1.41-.06-2.06-.85-2.69-2.57-5.16-4.62-7.09-.46-.43-1.04-.78-1.66-.94h0Z" style="fill:#ff5;"/><path id="uuid-d937f256-13d2-4fe1-8073-b4b5fc81b289" d="m112,239.75c3.17,1.25,6.55,2.05,9.5,3.75,3.96,2.28,7.38,5.41,10.75,8.5,2.96,2.71,5.73,5.63,8.25,8.75,2.86,3.54,5.17,7.5,7.75,11.25" style="fill:none; stroke:#000; stroke-linecap:round; stroke-linejoin:round; stroke-width:2px;"/></g><g id="uuid-7c24dcf2-2fb8-437c-a5f0-22da389d56f6"><path id="uuid-66ad9ed3-53fc-4ada-b4bc-f3433fe0b9f9" d="m67.04,374.49c5.22-4.6,9.39-9.45,13.52-14.66,5.26-6.64,10.22-13.59,14.25-21.05,3.75-6.95,6.76-14.33,9.1-21.87,2.13-6.87,3.58-13.97,4.43-21.12.75-6.34.87-12.78.54-19.16-.27-5.35-1.35-10.62-2.08-15.92-.84-6.07-1.02-12.28-2.64-18.19-1.85-6.73-4.84-13.14-8.02-19.35-2.53-4.96-5.92-9-8.76-14.22-2.04,1.82-4.09,3.63-6.13,5.45,3.41,6.24,7.13,12.35,9.88,18.9,2.42,5.78,4.27,11.8,5.79,17.88,1.73,6.94,3.19,13.99,3.75,21.12.46,5.89.23,11.83-.34,17.71-.7,7.23-1.85,14.45-3.75,21.46-1.7,6.31-4.08,12.45-6.81,18.39-2.93,6.37-6.2,12.64-10.22,18.39-3.78,5.41-7.61,10.5-12.94,14.99.45,3.63.67,7.11.44,11.25h0Z" style="fill:#f55;"/><path id="uuid-4351e1f4-8f85-490c-a9f7-99d0d0b9fd79" d="m62.16,344.92c4.01-6.01,8.79-11.57,12.02-18.03,3.64-7.27,6.26-15.07,8.13-22.98,1.53-6.47,2.32-13.15,2.47-19.8.18-7.68-.31-15.44-1.77-22.98-1.34-6.92-3.72-13.62-6.36-20.15-2.08-5.13-4.95-9.9-7.42-14.85l-15.91,11.31-.35,105.71c1.41.12,2.85.1,4.24.35,1.69.31,3.3.94,4.95,1.41h0Z" style="fill:#f55;"/><path id="uuid-29532f26-aa8d-43f2-8e1c-93ca1e890c69" d="m30.5,349.34l3.02-3.71,3.89-2.65h5.13l3.89.71-.35-174.48-15.57-10.08v190.21Z"/><path id="uuid-fd8c6735-79ed-4d29-98b7-da82ca6ffb17" d="m46.78,424.82v-46.67l-13.44,2.3-2.85-3.18v45.25l8.33.53,7.95,1.77Z"/><path id="uuid-cc9fee96-e1e6-491d-8423-a026f64d47a8" d="m29.91,442.08l11.75,1.04,11.75,1.83,10.45,2.96,8.01,3.48,7.14,2.96-4.7-6.27-6.35-6.96-11.49-6.53-13.06-4.44-7.31-1.31-6.18-.7v13.93Z"/><g id="uuid-3bc3e58d-2c8f-4ad0-820b-8ac068d7d910"><path id="uuid-2154a4f2-0109-4baa-a0d6-de32011a61af" d="m220.91,282.34s-3.1-4.46-4.6-6.72c-1.93-2.92-5.66-8.84-5.66-8.84l-131.17,126.22s7.25,5.64,10.61,7.78c1.1.17,3.18-1.06,3.18-1.06,0,0,.89-2.93,2.12-3.54.85-.42,2.83.35,2.83.35l2.83-2.83s1.99-4.93,3.54-7.07c3.32-4.6,7.69-8.41,12.06-12.02,3.39-2.8,7.07-5.28,10.92-7.42,2.76-1.54,5.75-2.6,8.64-3.87,1.86-.81,5.59-2.39,5.59-2.39l79.11-78.6Z" style="fill:#ff5;"/><path id="uuid-fea30e4f-7be5-42df-9277-ee44adf51318" d="m217.01,276.96l-3.88-6.31-128.66,125.5,6.07,4.13,126.47-123.32Z"/></g><g id="uuid-8872e95c-3922-46b1-9195-6d8ece231123"><path id="uuid-0cc09445-f88e-4802-88dc-cf38a799957f" d="m247.25,361.75l-.25-62.75s-7.36-2.97-10.75-5c-3.58-2.14-10-7.5-10-7.5l.75,83,10.75,9.25,9.5-17Z" style="fill:#ff5;"/><path id="uuid-4c6dcdb8-99e7-4cbe-a3bf-16822cd6b431" d="m240.75,372l-.25-75-7.25-4,.5,81.25,4,3.75,3-6Z"/></g><path id="uuid-c67d67dc-14fa-456d-949f-4748f69e8078" d="m249.28,391.18c-4.82,3.16-10.53,6.92-15.34,10.08-3.61-3.91-6.8-8.28-10.84-11.74-3.99-3.42-8.46-6.32-13.1-8.81-3.56-1.91-7.34-3.43-11.18-4.66-3.82-1.22-7.77-2.13-11.74-2.67-4.33-.59-8.73-.79-13.1-.64-4.29.14-8.59.61-12.78,1.49-3.92.83-7.74,2.14-11.49,3.55-3.34,1.25-6.63,2.66-9.77,4.34-2.26,1.21-4.6,3.13-6.49,4.11-1.88-.9-2.85-3.77-4.97-4.39-1.83-.53-3.88.18-5.65.9-1.54.64-2.71,1.96-4.07,2.94-.98,0-2.03-.37-2.94,0-1.57.65-1.98,3.14-3.61,3.61-.67.19-1.36-.63-2.03-.45-1.18.32-1.81,1.66-2.71,2.48-.68,0-1.41-.26-2.03,0-1.08.45-1.66,1.66-2.48,2.48l-2.26-.45c2.26-3.46,4.04-7.29,6.78-10.39,3.46-3.93,7.67-7.18,11.97-10.16,4.82-3.34,10.05-6.1,15.36-8.58,5.33-2.5,10.83-4.69,16.49-6.32,4.79-1.39,9.72-2.4,14.68-2.94,4.72-.5,9.49-.41,14.23-.23,4.08.16,8.17.43,12.2,1.13,3.6.62,7.14,1.6,10.61,2.71,6.15,1.97,12.42,3.87,18.07,7,4.85,2.68,9.05,6.41,13.32,9.94,2.67,2.2,5.29,4.5,7.68,7,2.6,2.72,5.11,5.58,7.21,8.67h0Z" style="fill:#ff5; stroke:#55a; stroke-linecap:round; stroke-linejoin:round; stroke-width:2px;"/><path id="uuid-4340d1a4-83db-4c8b-9f16-fdc252cb9537" d="m243.7,393.71l-5.44,3.68s-2.85-3.87-4.46-5.64c-1.95-2.14-4.06-4.13-6.28-5.98-2.83-2.37-5.82-4.57-8.95-6.52-4.53-2.84-9.19-5.57-14.17-7.53-4.97-1.95-10.2-3.25-15.47-4.1-5.16-.83-10.43-1.08-15.66-.93-4.97.14-9.97.63-14.82,1.75-5.23,1.21-10.31,3.1-15.19,5.33-4.95,2.26-14.17,8.08-14.17,8.08,0,0-4.07.41-5.97,1.12-1.83.69-5.03,2.98-5.03,2.98,0,0-2.06-.38-2.98,0-1.22.5-2.8,2.8-2.8,2.8,0,0-1.1-.67-1.68-.56-.95.18-2.24,1.86-2.24,1.86,0,0,2.46-3.01,3.91-4.29,3.48-3.07,7.49-5.47,11.37-8.02,3.53-2.32,7.05-4.68,10.81-6.59,5.27-2.68,10.7-5.12,16.37-6.8,6.56-1.95,13.35-3.29,20.17-3.75,6.33-.43,12.73-.01,19,.93,6.1.92,12.2,2.27,17.92,4.59,5.84,2.37,11.22,5.81,16.4,9.39,3.31,2.28,6.36,4.92,9.32,7.64,2.23,2.05,4.26,4.32,6.34,6.52,1.25,1.33,3.69,4.03,3.69,4.03h0Z"/><g id="uuid-16aac53b-3322-4521-b73f-381710161d55"><path id="uuid-6b1af403-6bad-4af6-9832-8636da5dc5c8" d="m213.5,424.75c.6-2.56,1.02-5.17,1.81-7.68.64-2.05,1.47-4.04,2.37-5.98.61-1.31,1.35-2.56,2.03-3.84.15,1.32.08,2.68.45,3.95.48,1.65.92,3.55,2.26,4.63,1.57,1.27,3.86,1.54,5.87,1.47,1.7-.06,3.51-.53,4.86-1.58,1.4-1.09,2.38-2.8,2.82-4.52.47-1.83.29-3.87-.34-5.65-.52-1.48-1.61-2.73-2.71-3.84-.82-.82-1.88-1.35-2.82-2.03-.11-1.05.16-2.23-.34-3.16-.53-.99-1.57-1.69-2.6-2.15-.7-.31-1.51-.23-2.26-.34-.11-.9.09-1.9-.34-2.71-.42-.8-1.19-1.46-2.03-1.81-.66-.27-1.43-.08-2.15-.11-.26-.87-.22-1.89-.79-2.6-.49-.6-1.26-1.02-2.03-1.13-1.3-.18-2.56.6-3.84.9-.45-.75-.62-1.78-1.36-2.26-.7-.46-1.65-.42-2.48-.34-.95.09-1.81.6-2.71.9-.41-.75-.48-1.85-1.24-2.26-.77-.41-1.76-.02-2.6.23-.69.2-1.28.68-1.92,1.02-.64-.68-1.07-1.64-1.92-2.03-.75-.35-1.7-.38-2.48-.11-.61.21-1.02.78-1.47,1.24-.71.73-1.28,1.58-1.92,2.37,1.2.75,2.47,1.41,3.61,2.26,1.24.92,2.46,1.9,3.5,3.05,1.09,1.2,1.97,2.58,2.82,3.95.97,1.56,1.78,3.21,2.6,4.86.84,1.67,1.71,3.33,2.37,5.08.94,2.5,1.58,5.1,2.26,7.68.59,2.24,1.09,4.51,1.58,6.78.41,1.91.75,3.84,1.13,5.76h0Z" style="fill:#ff5;"/><path id="uuid-476105a8-94fc-46f2-9cc6-901939559ce8" d="m226.89,411.11c1.43,0,2.97-1.27,3.18-2.63.24-1.59-1.18-3.33-2.62-4.04-1.78-.88-4.27-.6-5.95.48-2.72,1.74-3.51,5.47-4.75,8.45-1.58,3.82-2.22,8.45-3.33,11.94" style="fill:none; stroke:#55a; stroke-linecap:round; stroke-linejoin:round; stroke-width:2px;"/><path id="uuid-7d5d3578-04ee-4588-a622-b6c449f03958" d="m221.55,405.09c-1.24,1.29-1.94,4.1-1.69,6.24.19,1.65,1.02,3.39,2.34,4.4,1.71,1.3,4.16,1.6,6.29,1.39,1.95-.19,4.02-.96,5.4-2.36,1.29-1.32,1.86-3.28,2.1-5.1.23-1.78.06-3.73-.72-5.35-.8-1.66-2.25-3.04-3.83-3.99-1.23-.74-2.72-1.06-4.15-1.2-1.83-.18-3.74-.05-5.51.48-1.61.49-3.16,1.32-4.44,2.41-1.27,1.09-2.17,2.56-3.07,3.97-1.24,1.95-2.13,4.1-3.19,6.15" style="fill:none; stroke:#55a; stroke-linecap:round; stroke-linejoin:round; stroke-width:2px;"/><path id="uuid-2fd01936-494f-44e2-afdf-f4f248ae5232" d="m229.99,399.12c.16-1.17-.03-2.39-.72-3.27-.88-1.13-2.42-1.7-3.83-1.92-1.63-.25-3.29.34-4.87.8-1.53.44-3.02,1.03-4.39,1.84-1.23.72-2.33,1.64-3.35,2.63-1.49,1.45-2.66,3.19-3.99,4.79" style="fill:none; stroke:#55a; stroke-linecap:round; stroke-linejoin:round; stroke-width:2px;"/><path id="uuid-e5806017-50aa-4cd0-8437-b23b8e870e9b" d="m224.72,393.21c-.16-.83,0-1.78-.48-2.48-.46-.67-1.28-1.13-2.08-1.28-1.3-.24-2.65.32-3.91.72-1.23.39-2.38.98-3.51,1.6-1.56.85-3.1,1.75-4.47,2.87-1.4,1.15-2.5,2.61-3.75,3.91" style="fill:none; stroke:#55a; stroke-linecap:round; stroke-linejoin:round; stroke-width:2px;"/><path id="uuid-9a7a3b41-ad87-4f80-baf1-3d3455ceab9c" d="m220.09,389.06c-.19-.72-.07-1.6-.56-2.16-.64-.74-1.74-1.09-2.71-1.12-1.19-.03-2.28.69-3.35,1.2-1.4.66-2.73,1.49-3.99,2.4-1.14.81-2.11,1.84-3.19,2.71-.78.63-1.6,1.22-2.4,1.84" style="fill:none; stroke:#55a; stroke-linecap:round; stroke-linejoin:round; stroke-width:2px;"/><path id="uuid-2c4f6aba-0442-466b-ac96-2c4112a6d278" d="m213.54,386.51c-.19-1.68-.93-2.17-1.92-2.56-1-.4-2.19.17-3.19.56-1.21.47-2.23,1.31-3.27,2.08-1.52,1.12-2.87,2.45-4.31,3.67" style="fill:none; stroke:#55a; stroke-linecap:round; stroke-linejoin:round; stroke-width:2px;"/><path id="uuid-f1c5f5b0-5281-4a5b-864d-d7f36cb81097" d="m207.08,384.59c-.08-.93-.87-1.65-1.68-1.92-.96-.32-2.02.26-2.95.64-.84.34-1.6.88-2.32,1.44-.93.73-1.7,1.65-2.56,2.48" style="fill:none; stroke:#55a; stroke-linecap:round; stroke-linejoin:round; stroke-width:2px;"/><path id="uuid-6b400f15-e823-45fb-8243-b226735c5ed7" d="m201.01,383.31c-.4-.61-.92-1.27-1.6-1.6-.58-.28-1.29-.4-1.92-.24-.83.21-1.5.88-2.08,1.52-.52.57-.8,1.33-1.2,2" style="fill:none; stroke:#55a; stroke-linecap:round; stroke-linejoin:round; stroke-width:2px;"/></g><g id="uuid-24fad0d0-4bc4-430c-b44b-c4153a9c2792"><path id="uuid-4b7b4e02-0c17-41ce-8faa-64ead3b5c8e9" d="m151.67,473.77c-6-.93-12.02-1.53-18.01-2.8-4.97-1.05-9.93-2.4-14.86-4-3.23-1.05-6.4-2.43-9.6-3.65-.5-4.29-1.03-8.57-1.5-12.86-.53-4.83-.95-9.66-1.5-14.48-.41-3.62-.66-7.26-1.35-10.85-.41-2.15-1.1-4.25-1.65-6.37-.75-.22-1.5-.44-2.25-.67-.75.8-1.24,2.16-2.25,2.41-1.36.33-2.95-.48-4.2-1.47-1.8-1.43-3.12-3.74-4.2-5.99-1.04-2.17-1.9-4.57-2.1-6.97-.13-1.54.09-3.11.6-4.44.39-1.01.93-2.08,1.8-2.47.86-.38,1.9.26,2.85.39.5-.78.84-1.76,1.5-2.33,1.02-.88,2.4-1,3.6-1.5.65-.82,1.05-2.07,1.95-2.45.77-.32,1.7.23,2.55.35.75-.74,1.3-1.9,2.25-2.23.79-.27,1.7.23,2.55.35.85-1.09,1.35-2.81,2.55-3.27.87-.34,1.9.38,2.85.57.75-.98,1.19-2.49,2.25-2.95.86-.37,1.9.26,2.85.39.95-.84,1.79-1.87,2.85-2.51,1.2-.73,2.53-1.25,3.9-1.46,1.41-.22,2.92-.27,4.35.23,1.57.55,3.06,1.65,4.35,2.94,1.44,1.44,2.62,3.28,3.6,5.19,1.34,2.61,2.26,5.49,3,8.36,1.34,5.21,1.78,10.59,2.55,15.89,1.01,6.92,1.72,13.87,2.7,20.79.97,6.9,2.06,13.79,3.15,20.67.91,5.74,1.9,11.46,2.85,17.2h0Z" style="fill:#ff5;"/><g id="uuid-80922d77-9848-42a2-a4ad-fec6773fb181"><path id="uuid-5f935d28-366d-4c1b-a429-f53bc593ef6c" d="m151.46,472.84s-2.94-17.41-4.24-26.14c-1.55-10.41-2.49-20.86-4.24-31.25-1.19-7.04-1.37-14.52-4.24-21.03-1.97-4.46-4.62-9.61-8.49-11.37-3.75-1.71-8.65-.97-11.24,2.17-2.17,2.64-2.62,7.61-1.49,11.45,1.22,4.17,4.51,9.14,8.05,9.46,3.69.34,7.78-3.93,7.83-8.37.04-3.99-3.53-8.9-6.84-9.62-2.05-.44-4.53,1.58-4.8,3.99-.31,2.81,1.85,7.24,4.24,7.54,1.44.18,3.42-1.57,2.49-3.9" style="fill:none; stroke:#55a; stroke-linecap:round; stroke-linejoin:round; stroke-width:2.15px;"/><path id="uuid-1210c6b7-2645-4ddb-a0ff-0e387c1884a5" d="m146.51,473.02c-2.49-9.51-3.13-18.91-4.47-28.39-1.33-9.41-1.72-18.91-3.52-28.27-1.43-7.43-3.04-15.36-5.75-22" style="fill:none; stroke:#55a; stroke-linecap:round; stroke-linejoin:round; stroke-width:2.15px;"/><path id="uuid-e718c70c-8e4c-433c-ad79-48b0c325fa5b" d="m140.84,472.26c-1.9-8.25-2.47-16.74-3.52-25.14-1.02-8.18-1.39-16.43-2.68-24.56-.94-5.92-1.62-11.82-3.69-17.55" style="fill:none; stroke:#55a; stroke-linecap:round; stroke-linejoin:round; stroke-width:2.15px;"/><path id="uuid-802c8dc8-d783-4c12-aa4f-d3eb8162927f" d="m135.79,471.18c-1.69-7.87-2.2-15.98-3.13-24-.91-7.81-1.23-15.69-2.38-23.45-.84-5.65-1.44-11.28-3.28-16.75" style="fill:none; stroke:#55a; stroke-linecap:round; stroke-linejoin:round; stroke-width:2.15px;"/><path id="uuid-a8b56c12-84d5-4f05-a77f-67c59c02b722" d="m130.84,469.85c-1.52-7.46-1.98-15.16-2.82-22.76-.81-7.41-1.11-14.89-2.15-22.26-.75-5.36-1.3-10.7-2.95-15.88" style="fill:none; stroke:#55a; stroke-linecap:round; stroke-linejoin:round; stroke-width:2.15px;"/><path id="uuid-a9d61cae-429c-411e-a766-dd7456a54fb6" d="m126.01,468.67c-1.52-7.1-1.98-14.44-2.82-21.68-.81-7.05-1.11-14.17-2.15-21.19-.75-5.1-1.3-10.19-2.95-15.13" style="fill:none; stroke:#55a; stroke-linecap:round; stroke-linejoin:round; stroke-width:2.15px;"/><path id="uuid-6086f4a4-d0fc-47f9-85c9-f3ee79926dd1" d="m120.58,466.99c-1.48-6.62-1.81-13.07-2.59-19.62-.78-6.57-1.08-13.19-2.09-19.72-.73-4.75-1.26-9.49-2.87-14.09" style="fill:none; stroke:#55a; stroke-linecap:round; stroke-linejoin:round; stroke-width:2.15px;"/><path id="uuid-4db07872-1b89-428d-a589-49c46c04098e" d="m115.35,465.37c-1.39-6.06-1.81-12.3-2.58-18.47-.75-6.01-1.02-12.07-1.97-18.05-.69-4.35-1.19-8.69-2.7-12.9" style="fill:none; stroke:#55a; stroke-linecap:round; stroke-linejoin:round; stroke-width:2.15px;"/><path id="uuid-92d2c6d7-7a15-46db-845e-b0c5d6ebe614" d="m110.09,464.38c-1.18-5.42-2.08-11.85-2.87-17.81-.71-5.37-.86-10.81-1.67-16.17-.59-3.89-1.01-7.78-2.29-11.54" style="fill:none; stroke:#55a; stroke-linecap:round; stroke-linejoin:round; stroke-width:2.15px;"/><path id="uuid-a07756ac-1337-493b-9125-32a04f9245fa" d="m125.87,406.55c-1.37.95-2.38,2.05-3.8,1.92-3.02-.28-5.44-2.82-7.22-5.55-1.88-2.9-3.03-6.81-2.83-10.26.14-2.47,1.15-5.03,2.8-6.31.83-.64,1.71-.34,3.05-.29" style="fill:none; stroke:#55a; stroke-linecap:round; stroke-linejoin:round; stroke-width:2.15px;"/><path id="uuid-7b31093b-04a5-4fb9-9717-da76efaa0a42" d="m120.87,408.39c-1.15,1.38-2.02,2.44-3.39,2.35-2.71-.17-5.44-2.82-7.22-5.55-1.88-2.9-3.03-6.81-2.83-10.26.14-2.47.85-5.09,2.8-6.31.67-.42,1.04-.9,2.39.08" style="fill:none; stroke:#55a; stroke-linecap:round; stroke-linejoin:round; stroke-width:2.15px;"/><path id="uuid-f3d5b9d4-db56-46f7-bec7-f2b81ad7431e" d="m116.69,410.87c-1.37.95-2.59,2.78-4.27,2.63-2.72-.25-5.44-2.82-7.22-5.55-1.88-2.9-3.03-6.81-2.83-10.26.14-2.47,1.05-5.21,2.8-6.31.77-.48,1.38-.42,2.73.29" style="fill:none; stroke:#55a; stroke-linecap:round; stroke-linejoin:round; stroke-width:2.15px;"/><path id="uuid-dbae25d4-6519-444a-9e14-f5ca626c7c7c" d="m110.98,413.54c-1.04,1.66-2.1,2.44-3.5,2.34-2.71-.2-5.44-2.82-7.22-5.55-1.88-2.9-3.03-6.81-2.83-10.26.14-2.47,1.12-5.08,2.8-6.31.78-.56,1.38-.69,2.84-.09" style="fill:none; stroke:#55a; stroke-linecap:round; stroke-linejoin:round; stroke-width:2.15px;"/><path id="uuid-291cc9c0-271e-472a-b45b-891357108659" d="m106.14,416.33c-.5,1.46-1.88,2.33-3.17,2.25-2.71-.16-5.44-2.82-7.22-5.55-1.88-2.9-3.03-6.81-2.83-10.26.14-2.47,1.11-5.09,2.8-6.31.64-.46,1-.11,2.35-.06" style="fill:none; stroke:#55a; stroke-linecap:round; stroke-linejoin:round; stroke-width:2.15px;"/><path id="uuid-3d4c8ace-bf1e-4636-a87f-cff11c3425ab" d="m101.09,418.29c-.5,1.73-1.51,2.21-2.62,2.19-2.7-.05-5.44-2.82-7.22-5.55-1.88-2.9-2.91-6.79-2.83-10.26.04-1.83.57-3.81,1.7-4.87.9-.84,2.15-.72,3.49-.66" style="fill:none; stroke:#55a; stroke-linecap:round; stroke-linejoin:round; stroke-width:2.15px;"/></g></g><g id="uuid-85b88e82-0c10-4677-900c-e0a1dd864381"><path id="uuid-c50ee503-6c5d-43ea-b041-bea1521029a8" d="m247.03,509.5l-32.53-40s-9.17,2.9-13.88,3.78c-6.95,1.3-14.02,2.07-21.09,2.22-11.09.24-22.25-.4-33.22-2.06-12.49-1.89-36.81-8.94-36.81-8.94l-28.96,45h166.49Z" style="fill:#f55; stroke:#55a; stroke-linecap:round; stroke-linejoin:round; stroke-width:2px;"/><path id="uuid-8007b4d6-5668-4bc3-978e-62eea8336b54" d="m230.35,508.02l-18.65-27.14c-7.3,2.25-11.53,1.8-20.83,2.72l4.65,24.42h6.44l-5.76-20.88c5.34-.33,7.74-.28,13.14-1.12l13.6,22h7.4Z" style="fill:#fff; stroke:#fff; stroke-linecap:round; stroke-linejoin:round; stroke-width:2px;"/><path id="uuid-f719db52-bfed-43bd-bba4-1ab5d060a3bf" d="m185.51,508.02l-4.48-23.71c-11.34.94-19.89.96-31.23-.04l-5.64,23.75h7.27l3.43-19.28c8.91.47,13.6.52,21.08.04l3.03,19.24h6.55Z" style="fill:#fff; stroke:#fff; stroke-linecap:round; stroke-linejoin:round; stroke-width:2px;"/><path id="uuid-53f798f6-214e-4236-b193-fc3f3723f53c" d="m133.13,508.02l8.23-25.05c-8.27-.61-19.52-5-28.53-6.9l-16.23,31.95h7.13l12.21-24.57c5.03,1.22,12.98,2.81,18.01,3.43l-6.99,21.15h6.17Z" style="fill:#fff; stroke:#fff; stroke-linecap:round; stroke-linejoin:round; stroke-width:2px;"/></g><path id="uuid-e8c1854b-6026-4c0f-bbbe-213d9d38dd35" d="m299.5,509.5H29.5V149.5h0" style="fill:none; stroke:#55a; stroke-width:2px;"/><g id="uuid-902a0152-093e-46f4-a3d3-e467d48c34d3"><path id="uuid-13cb07b0-d3d7-4746-b15f-f219a4688f70" d="m201.85,445.21c-.4-.44-.2-1.26.09-1.77.32-.54.96-1.01,1.59-1.03.61,0,1.27.41,1.59.93.35.59.58,1.57.09,2.05-.8.79-2.61.65-3.36-.19h0Z" style="fill:#55a; stroke:#55a; stroke-linecap:round; stroke-linejoin:round; stroke-width:1.82px;"/><path id="uuid-f11fddb3-26fb-4bcf-bf28-f795b561a4bf" d="m151.6,456.54c4.75,1.14,9.37,2.78,14.26,3.42,3.16.41,6.52,1.1,9.6.23,1.93-.55,5.27-2.52,5.05-3.29-.11-.39-.9-.37-1.37-.34-2.18.12-4,1.88-6.15,2.26-2.61.47-5.32.22-7.95,0-4.55-.38-8.96-1.52-13.44-2.28h0Z" style="fill:#55a; stroke:#55a; stroke-linecap:round; stroke-linejoin:round; stroke-width:1.82px;"/><path id="uuid-01040e5e-3351-46ed-8c94-afeaf3e82e54" d="m177.27,447.48c.55.49,3.03.73,2.58,1.29-.58.74-3.93,3.3-6.29,4.21-2.19.85-4.61,1-6.97,1.05-2.5.05-5.07-.03-7.45-.79-2.88-.92-6.01-3.81-7.89-4.47" style="fill:none; stroke:#55a; stroke-linecap:round; stroke-linejoin:round; stroke-width:1.82px;"/><path id="uuid-4685365e-ede7-4978-8a2c-5d9df6cd225e" d="m149,442.36c4.02.89,7.76,4.73,12.07,5.67,2.87.62,5.88.33,8.78-.12,1.75-.27,3.49-.79,5.11-1.56.97-.46,1.7-.69,2.7-1.78-1.97-.77-2.15-3.46-3.83-4.31-3.07-1.54-6.77-.97-10.15-.73-2.67.19-5.22,1.2-7.85,1.7-2.26.43-4.67-.06-6.82,1.12h0Z" style="fill:none; stroke:#55a; stroke-linecap:round; stroke-linejoin:round; stroke-width:1.82px;"/><path id="uuid-b9b3e884-381f-44a2-b5a1-904767350cab" d="m159.15,446.46c.09-1.18-.41-2.5.27-3.53.82-1.24,2.5-2.07,4.11-2.5,1.26-.34,2.73-.38,3.98,0,1.19.36,2.23,1.15,2.88,2.05.89,1.23.73,2.81,1.1,4.21" style="fill:none; stroke:#55a; stroke-linecap:round; stroke-linejoin:round; stroke-width:1.82px;"/><path id="uuid-5af0d98c-5e5f-4431-ad2c-53f5d22097a2" d="m163.7,446.43c-.4-.44-.2-1.26.09-1.77.32-.54.96-1.01,1.59-1.03.61,0,1.27.41,1.59.93.35.59.58,1.57.09,2.05-.8.79-2.61.65-3.36-.19h0Z" style="fill:#55a; stroke:#55a; stroke-linecap:round; stroke-linejoin:round; stroke-width:1.82px;"/><path id="uuid-bc857c73-9c86-4a0a-a456-e53430c87ffb" d="m163.05,431.88c2.88.46,5.96,2.21,8.46,4.11,2.35,1.79,4.31,4.57,5.84,6.65" style="fill:none; stroke:#55a; stroke-linecap:round; stroke-linejoin:round; stroke-width:1.82px;"/><path id="uuid-fc19d47f-42ca-466e-b1e5-9224d3e9b649" d="m194.01,454.49c-.73-1.48-1.84-2.87-2.19-4.44-.72-3.21-.2-6.55.27-9.79.59-4.01,2.2-7.87,3.15-11.84.61-2.55,2.99-5.43,1.66-7.7-.78-1.32-3-.72-4.4-1.34-1.83-.82-3.68-2.38-5.14-3.1" style="fill:none; stroke:#55a; stroke-linecap:round; stroke-linejoin:round; stroke-width:1.82px;"/><path id="uuid-42dc7a45-0f4c-44b8-b558-6ce228667e6b" d="m176.84,429.11c-1.87-1.71-4.62-2.97-5.62-5.12-.48-1.03-.56-2.3,0-3.3.66-1.17,2.05-2.22,3.57-2.5,1.24-.24,2.57.31,3.7.8,1.44.62,2.24,2.03,3.7,2.62,1.05.42,2.34.92,3.43.57.37-.12.8-.48.69-.8-.37-1.01-2.37-.77-3.57-1.14-1.55-.47-3.11-.91-4.66-1.37" style="fill:none; stroke:#55a; stroke-linecap:round; stroke-linejoin:round; stroke-width:1.82px;"/><path id="uuid-92ac2de8-317c-469c-8115-7daa63e3d84e" d="m170.19,408.04c1.93.8,4.64.63,6.97.59,2.38-.05,4.68-.97,7.05-.88,2.71.1,5.19,1.59,7.9,1.61,1.99.02,4.26-.72,5.82-1.09-.13-.56-.32-1.3,0-1.74-2,.62-4.81,1.5-7.27,1.25-2.31-.23-3.98-2.45-6.31-2.5-2.72-.06-4.82,2.52-7.54,2.6-2.6.08-5.38-1.64-7.41-2.03.54.67.81,1.73.78,2.19h0Z" style="fill:#55a; stroke:#55a; stroke-linecap:round; stroke-linejoin:round; stroke-width:1.82px;"/><path id="uuid-f7826802-8ecf-441d-958b-96cfafbb1861" d="m176.26,401.82c1.92-.68,3.71-1.7,5.75-2.05,1.52-.25,3.13-.2,4.65.03,1.04.16,2,.57,2.97.91.9.31,1.77.69,2.66,1.04" style="fill:none; stroke:#55a; stroke-linecap:round; stroke-linejoin:round; stroke-width:1.82px;"/><path id="uuid-fca636eb-b8ed-44ec-9e26-83e7e3922dee" d="m189.01,394.38c-1.4.47-2.72.92-4.15.91-1.19,0-2.31-.38-3.44-.81" style="fill:none; stroke:#55a; stroke-linecap:round; stroke-linejoin:round; stroke-width:1.82px;"/><path id="uuid-13f94274-e554-45ac-ba84-5f2102c025a7" d="m194.27,456.87c1.9,1.85,6.06,2.31,9.31,2.52,2.37.15,4.76-.27,7.03-.95,1.28-.38,2.1-1.16,3.62-1.73-2.6.42-4.53,1.18-6.85,1.26-2.36.08-4.73-.35-7.03-.79-1.62-.31-3.13-.93-4.56-1.58-.63-.28-1.99.81-1.52,1.26h0Z" style="fill:#55a; stroke:#55a; stroke-linecap:round; stroke-linejoin:round; stroke-width:1.82px;"/><path id="uuid-72b8d708-b179-442e-a62c-7b765034d6ed" d="m193.6,448.75c1.86.76,3.47,2.9,5.57,3.59,2.8.92,5.91.98,8.81.55,1.92-.28,3.55-1.33,5.32-2" style="fill:none; stroke:#55a; stroke-linecap:round; stroke-linejoin:round; stroke-width:1.82px;"/><path id="uuid-8aa12594-bb3d-4974-b409-91a3a729a4d8" d="m193.86,445.75c2.05.75,3.57.98,5.4,1.18,2.7.31,5.46.41,8.15.08,1.6-.2,3.27-.47,4.66-1.22.88-.47,1.44-1.32,2.16-1.98-.14-1.01-.28-2.03-.42-3.04-1.44-.46-2.83-1.11-4.32-1.37-2.04-.35-4.16-.35-6.24-.23-2.21.12-4.46.27-6.57.99-1.14.39-2.28.93-3.2,1.76-.65.58-1.15,1.8-1.54,2.18.36.66,1.6,1.3,1.92,1.65h0Z" style="fill:none; stroke:#55a; stroke-linecap:round; stroke-linejoin:round; stroke-width:1.82px;"/><path id="uuid-a5388582-467f-4f2d-8dcf-c296f41213a2" d="m197.66,445.49c.09-1.18-.41-2.5.27-3.53.82-1.24,2.5-2.07,4.11-2.5,1.26-.34,2.73-.38,3.98,0,1.19.36,2.23,1.15,2.88,2.05.89,1.23.73,2.81,1.1,4.21" style="fill:none; stroke:#55a; stroke-linecap:round; stroke-linejoin:round; stroke-width:1.82px;"/><path id="uuid-9ef3c362-c045-4b59-833e-74293bd0dc09" d="m193.32,439.33c1.53-1.4,2.79-3.03,4.59-4.2,1.44-.93,3.21-1.43,4.82-2.15" style="fill:none; stroke:#55a; stroke-linecap:round; stroke-linejoin:round; stroke-width:1.82px;"/></g><path id="uuid-82940642-8194-4a99-b1af-a87a50d6dbb8" d="m215.09,468.67c-.08-6.74,0-13.49-.24-20.22-.24-6.59-.4-13.2-1.19-19.75-.79-6.56-1.55-13.21-3.57-19.51-1.76-5.51-3.96-11.04-7.38-15.7-2.55-3.49-5.74-6.71-9.52-8.8-3.16-1.75-6.86-2.62-10.47-2.85-4.15-.28-8.35.59-12.37,1.67-4.47,1.19-8.71,3.17-12.85,5.23-3.31,1.65-6.36,3.78-9.52,5.71-2.55,1.56-5.08,3.17-7.61,4.76" style="fill:none; stroke:#55a; stroke-linecap:round; stroke-linejoin:round; stroke-width:2px;"/><path id="uuid-4f77ce2b-a2de-4501-ab2f-9e4aab33ee44" d="m248.66,391.59c18.86-9.05,37.74-18.17,55.68-24.93l.35-46.49s-12.96,11.55-18.92,17.85c-5.28,5.6-10.26,11.5-14.85,17.68-3.66,4.92-6.83,10.18-10.08,15.38-4.21,6.75-12.2,20.51-12.2,20.51h0Z" style="stroke:#55a; stroke-linecap:round; stroke-linejoin:round; stroke-width:2px;"/><path id="uuid-5bbed457-a226-49b8-9082-c87cf8afccc6" d="m305,320.75c-.08-6.5-.17-13-.25-19.5-5.17,4.17-10.44,8.2-15.5,12.5-5.62,4.78-11.47,9.35-16.5,14.75-4.74,5.09-8.68,10.87-12.75,16.5-4.36,6.03-8.44,12.26-12.5,18.5-3.17,4.86-6.17,9.83-9.25,14.75,3.67,4.17,7.33,8.33,11,12.5,3.08-5.33,6.03-10.75,9.25-16,3.52-5.76,7.05-11.53,11-17,4.13-5.72,8.57-11.22,13.25-16.5,3.16-3.57,6.5-7.01,10-10.25,3.91-3.62,8.17-6.83,12.25-10.25Z" style="fill:#55a; stroke:#55a; stroke-linecap:round; stroke-linejoin:round; stroke-width:2px;"/><path id="uuid-ecea3bc0-d786-4073-aa24-43eb0566e451" d="m251.72,382.75c1.01.29,1.55-1.64,1.66-2.69.31-3.16-5.32-6.43-3.34-8.91,1.62-2.02,5.27,1.99,7.69,1.06,1.06-.41,1.97-1.48,2.19-2.59.66-3.39-5.48-7.23-3.22-9.84,1.82-2.1,5.58,2.31,8.22,1.44,1.05-.35,1.99-1.34,2.28-2.41.96-3.48-4.84-7.96-2.34-10.56,1.95-2.03,5.63,2.33,8.31,1.47,1.05-.34,2-1.31,2.31-2.38.98-3.36-4.59-7.8-2.12-10.28,2.28-2.29,6.39,2.79,9.5,1.91,1.04-.3,2.01-1.2,2.38-2.22,1.18-3.28-4.08-8.26-1.31-10.38,2.24-1.72,5.03,3.47,7.84,3.22,1.08-.1,2.2-.81,2.75-1.75,1.89-3.25-2.79-9.57.56-11.28,1.98-1.01,3.41,3.22,5.59,3.62.93.17,2.27.2,2.78-.59s-.06-2-.59-2.78c-1.92-2.78-5.13-5.33-8.5-5.5-1.16-.06-2.47.62-3.09,1.59-2.16,3.35,2.77,9.8-.59,11.94-2.55,1.62-5.41-3.84-8.41-3.44-1.13.15-2.28,1.04-2.72,2.09-1.42,3.41,4.11,8.48,1.41,11-2.43,2.27-6.6-2.93-9.78-1.97-1.07.32-2.05,1.3-2.38,2.38-1.01,3.38,4.61,7.81,2.16,10.34-1.97,2.03-5.66-2.35-8.34-1.47-1.05.35-1.99,1.34-2.28,2.41-.97,3.49,4.84,7.98,2.34,10.59-2,2.09-5.83-2.47-8.56-1.5-1.08.38-2.02,1.47-2.25,2.59-.69,3.43,5.49,7.29,3.25,9.97-1.68,2.02-5.37-2.03-7.81-1.06-1.06.42-1.97,1.53-2.16,2.66-.5,3.05,5.24,6.32,3.25,8.69-1.26,1.49-3.84-1.49-5.75-1.09-.93.19-2.17.67-2.34,1.59-.18.93.8,1.83,1.59,2.34,2.62,1.72,6.13,1.38,9.25,1.75.2.02.46-.11.59.03,0,0,0,0,0,0Z" style="fill:#fff;"/><path id="uuid-865d225d-af09-48d2-9333-2eefa9ce8f62" d="m226.23,293.22c-.24,3.64.26,5.78.02,9.42-6.23,8.09-11.28,19.37-17.51,27.46-1.69,6.07-11.22,17.36-13.85,19.28-1.85-.37-3.53-1.1-2.9-3.34.63-2.24,2.72-5.97,7.08-11.63,1.86-2.18,5.44-10.11,8.47-14.98,2.96-4.74,6.22-9.29,9.47-13.84,2.99-4.19,6.15-8.25,9.22-12.38h0Z" style="fill:#ff5; stroke:#55a; stroke-linecap:round; stroke-linejoin:round; stroke-width:2px;"/><path id="uuid-09dc95e8-9b2c-4e08-af03-f4872274144e" d="m194.18,346.72l1.33,10.22-5.45,3.04-2.21-6.07,6.33-7.19Z" style="fill:#ff5; stroke:#55a; stroke-linecap:round; stroke-linejoin:round; stroke-width:2px;"/><path id="uuid-844c2f44-206b-462b-a6e2-66f9496249b1" d="m194.68,329.84s2.41-10.15,5.1-14.53c2.69-4.39,7.36-7.23,10.68-11.17,2.01-2.39,4.44-4.62,5.58-7.53,1.1-2.8.04-6.12.97-8.98.75-2.31,3.64-6.31,3.64-6.31l5.83,5.1-.49,6.8s-6.39,7.26-9.22,11.17c-2.31,3.18-4.14,6.68-6.31,9.95-1.41,2.13-2.99,4.15-4.37,6.31-4.46,6.99-12.56,21.47-12.56,21.47l-4.48,2.89,5.63-15.17Z" style="fill:#f55; stroke:#55a; stroke-linecap:round; stroke-linejoin:round; stroke-width:2px;"/><path id="uuid-5492f06b-b585-451a-aee2-c84fff88b48c" d="m226.96,368.48l-.48-80.78" style="fill:#f55; stroke:#55a; stroke-linecap:round; stroke-linejoin:round; stroke-width:2px;"/><path id="uuid-724684f4-88a2-419a-bb9f-26be324e1e5b" d="m143.45,359.74l72.82-71.85" style="fill:#f55; stroke:#55a; stroke-linecap:round; stroke-linejoin:round; stroke-width:2px;"/><path id="uuid-bab92c28-d80c-45c4-86d6-d0623a977496" d="m225.99,360.71l-4.37,3.88" style="fill:#f55; stroke:#55a; stroke-linecap:round; stroke-linejoin:round; stroke-width:2px;"/><path id="uuid-dfc48472-ac44-488f-a8ea-ddbaa86a74f3" d="m226.23,353.43l-10.68,8.5" style="fill:#f55; stroke:#55a; stroke-linecap:round; stroke-linejoin:round; stroke-width:2px;"/><path id="uuid-6066828b-d443-4ec2-b2e1-ffa8c060b856" d="m226.23,347.11l-17.24,12.38" style="fill:#f55; stroke:#55a; stroke-linecap:round; stroke-linejoin:round; stroke-width:2px;"/><path id="uuid-bb18c13b-ae62-4854-a529-f378e5b1c89a" d="m225.75,340.32l-23.55,17.48" style="fill:#f55; stroke:#55a; stroke-linecap:round; stroke-linejoin:round; stroke-width:2px;"/><path id="uuid-747f8411-aa9c-4410-921e-1a9a261e6608" d="m225.5,332.79l-24.92,19.59" style="fill:#f55; stroke:#55a; stroke-linecap:round; stroke-linejoin:round; stroke-width:2px;"/><path id="uuid-b104f9c4-f519-4771-a24d-165e569d9cbb" d="m225.75,325.51l-24.2,21.04" style="fill:#f55; stroke:#55a; stroke-linecap:round; stroke-linejoin:round; stroke-width:2px;"/><path id="uuid-cbb82362-bbc0-4170-9e37-d63da5afe28e" d="m225.26,319.44l-19.63,16.95" style="fill:#f55; stroke:#55a; stroke-linecap:round; stroke-linejoin:round; stroke-width:2px;"/><path id="uuid-1b4bd5a1-206c-4bc3-95da-eb067afa42a5" d="m225.02,313.37l-11.4,10.16" style="fill:#f55; stroke:#55a; stroke-linecap:round; stroke-linejoin:round; stroke-width:2px;"/><path id="uuid-c599ea48-acd9-4e61-97b8-8e44a6b1215b" d="m212.64,299.78l-.73-6.55" style="fill:#f55; stroke:#55a; stroke-linecap:round; stroke-linejoin:round; stroke-width:2px;"/><path id="uuid-e8a060ab-0c10-461c-903d-eb7461f196f9" d="m208.27,305.85l-.49-8.25" style="fill:#f55; stroke:#55a; stroke-linecap:round; stroke-linejoin:round; stroke-width:2px;"/><path id="uuid-4ef80673-d135-4b18-9178-3c04ee118fe2" d="m203.17,311.19l-.97-8.74" style="fill:#f55; stroke:#55a; stroke-linecap:round; stroke-linejoin:round; stroke-width:2px;"/><path id="uuid-0639181a-29a8-4164-bb1f-2538dfdafcec" d="m197.83,316.77l-1.21-7.53" style="fill:#f55; stroke:#55a; stroke-linecap:round; stroke-linejoin:round; stroke-width:2px;"/><path id="uuid-714fbdac-8d3e-4f52-8caa-61696cbd8be0" d="m194.42,327.44l-2.42-14.79" style="fill:#f55; stroke:#55a; stroke-linecap:round; stroke-linejoin:round; stroke-width:2px;"/><path id="uuid-95f5e1fa-02e5-47cc-a43e-ab2fdba66e59" d="m191.73,337.34l-4.83-20.31" style="fill:#f55; stroke:#55a; stroke-linecap:round; stroke-linejoin:round; stroke-width:2px;"/><path id="uuid-76118ea1-a808-4ce2-958d-eeb512211b82" d="m187.85,347.03l-5.56-24.66" style="fill:#f55; stroke:#55a; stroke-linecap:round; stroke-linejoin:round; stroke-width:2px;"/><path id="uuid-da2d50d7-1075-4b23-adb9-12b1d4ed48bb" d="m183.27,353.43l-4.85-26.7" style="fill:#f55; stroke:#55a; stroke-linecap:round; stroke-linejoin:round; stroke-width:2px;"/><path id="uuid-bc5812d2-d3f4-4c9f-9352-de8c96574cb5" d="m176.95,353.43l-3.64-20.88" style="fill:#f55; stroke:#55a; stroke-linecap:round; stroke-linejoin:round; stroke-width:2px;"/><path id="uuid-70b6e23a-c7d2-4518-a2c5-30c0206b415c" d="m171.86,353.67l-3.4-16.26" style="fill:#f55; stroke:#55a; stroke-linecap:round; stroke-linejoin:round; stroke-width:2px;"/><path id="uuid-4c491475-c036-4336-b31a-fd90ec93b33e" d="m166.27,353.91l-2.91-12.38" style="fill:#f55; stroke:#55a; stroke-linecap:round; stroke-linejoin:round; stroke-width:2px;"/><path id="uuid-8ad894b7-ab36-4261-a758-1bfa43a85b16" d="m160.2,355.37l-1.93-9.73" style="fill:#f55; stroke:#55a; stroke-linecap:round; stroke-linejoin:round; stroke-width:2px;"/><path id="uuid-effa62c6-e2b3-4a8b-8717-daf11e68b34c" d="m156.08,356.1l-1.21-5.83" style="fill:#f55; stroke:#55a; stroke-linecap:round; stroke-linejoin:round; stroke-width:2px;"/><path id="uuid-414c6ee6-088c-4d1d-a671-8c25e74953f1" d="m150.98,357.55l-.72-4.13" style="fill:#f55; stroke:#55a; stroke-linecap:round; stroke-linejoin:round; stroke-width:2px;"/><path id="uuid-ced14b25-79e2-4001-b74b-9cf868be4b03" d="m55.67,356.35c1.14,1.84-2.08,5.63-2.09,8.58-.02,3.76,2.9,7.23,2.57,10.97-.2,2.29-1.98,4.16-2.72,6.33-.58,1.73-1.76,3.54-1.33,5.32.45,1.9,1.89,4.3,3.84,4.41,1.71.09,2.74-2.13,3.79-3.49,2.43-3.16,4.3-6.81,5.56-10.6,1.36-4.11,2.07-5.82,2.04-8.84-.03-3.77-.26-5.92-2.74-10.98.13-2.29.69-4.59.4-6.86-.22-1.7-.48-3.57-1.57-4.9-1.23-1.49-3.19-2.37-5.07-2.8-3.3-.76-7.11-.87-10.14.52" style="fill:none; stroke:#55a; stroke-linecap:round; stroke-linejoin:round; stroke-width:2px;"/><path id="uuid-9e76296b-a91f-4c99-8895-4deb0387c60f" d="m62.27,384.16c-.96-.91-1.58-2.48-2.88-2.72-.95-.17-1.93.49-2.67,1.12-.85.73-1.28,1.85-1.78,2.85-.57,1.14-.96,2.78-1.36,3.56" style="fill:none; stroke:#55a; stroke-linecap:round; stroke-linejoin:round; stroke-width:2px;"/><path id="uuid-f20986f0-3481-4c19-9e5a-7f7d285a73c0" d="m44.58,369.05c-.18.45-.46.87-.55,1.34-.13.66-.17,1.36,0,2.01.24.9.63,1.87,1.38,2.41.87.64,2.1.79,3.17.67,1.16-.13,2.33-.67,3.17-1.48.58-.56,1.03-1.35,1.1-2.15.06-.65-.12-1.38-.55-1.88-.63-.73-1.68-.99-2.62-1.21-1.66-.39-3.4-.23-5.1-.13-2.14.12-4.36.13-6.37.87-1.79.66-3.46,1.76-4.82,3.08-.82.8-1.78,1.7-1.93,2.82-.2,1.5.17,3.41,1.52,4.29.79.52,1.96.07,2.94-.04,2.44-.27,4.77-1.1,7.18-1.53,2.07-.37,4.23-.33,6.25-.92,2.05-.6,3.93-1.76,5.83-2.61" style="fill:none; stroke:#55a; stroke-linecap:round; stroke-linejoin:round; stroke-width:2px;"/><path id="uuid-15ee7343-f3c6-4aec-98e0-6d2da8f3c81d" d="m33.98,372.47c-1-.94-2.42-1.5-3-2.82-.41-.93-.47-2.15-.13-3.11.54-1.53,1.94-2.48,3.13-3.41,1.43-1.12,3.04-1.94,4.7-2.52,1.64-.57,3.38-.72,5.09-.89,1.69-.17,3.41-.4,5.09-.15.77.11,1.61.21,2.22.74.53.46.97,1.18,1.04,1.93.08.78-.26,1.58-.65,2.22-.61.98-1.46,1.91-2.48,2.22-.93.29-1.96-.09-2.87-.44-.81-.32-1.75-.67-2.22-1.48-.36-.62-.32-1.48-.26-2.22.06-.83.44-1.58.65-2.37" style="fill:none; stroke:#55a; stroke-linecap:round; stroke-linejoin:round; stroke-width:2px;"/><path id="uuid-d351a728-c192-4d28-a5cf-c7acfa18d73a" d="m33.07,362.83c-.68-1.14-1.77-2.09-2.05-3.41-.32-1.51-.24-3.31.55-4.6.9-1.48,2.69-2.09,4.23-2.67,1.91-.71,3.99-.74,6.01-.89,1.73-.13,3.5-.41,5.19,0,1.03.25,2.09.7,2.87,1.48.61.62,1.19,1.47,1.23,2.37.04.86-.39,1.76-.96,2.37-.74.8-1.84,1.16-2.87,1.33-1.04.18-2.21.23-3.14-.3-.69-.39-1.2-1.15-1.5-1.93-.34-.87-.45-1.89-.27-2.82.17-.89.82-1.58,1.23-2.37" style="fill:none; stroke:#55a; stroke-linecap:round; stroke-linejoin:round; stroke-width:2px;"/><path id="uuid-5c62fdb7-f828-498c-8010-2fc68aaaff18" d="m34.19,352.3c-.92-.44-2.51-.82-2.91-1.93-.4-1.12.4-2.4,1.02-3.41.88-1.42,2.12-2.74,3.64-3.41,1.25-.55,2.71-.32,4.07-.3,1.9.03,3.84.09,5.67.59,1.38.38,3.06.62,3.93,1.78.39.52.45,1.3.29,1.93-.28,1.09-1.09,2.09-2.04,2.67-1.22.75-2.91,1.31-4.22.74-1.19-.51-1.84-1.99-2.18-3.26-.21-.76-.16-1.64.15-2.37.31-.74,1.07-1.19,1.6-1.78" style="fill:none; stroke:#55a; stroke-linecap:round; stroke-linejoin:round; stroke-width:2px;"/><path id="uuid-34e4f9f9-ccb2-4ed2-b521-687a96811e45" d="m247.71,362.75l-.71-63.15s4.56,13.94,7.8,20.5c3.02,6.12,10.78,17.4,10.78,17.4,0,0-6.3,8.01-9.24,12.16-3.02,4.26-8.62,13.09-8.62,13.09Z" style="fill:#f55; stroke:#55a; stroke-linecap:round; stroke-linejoin:round; stroke-width:2px;"/><path id="uuid-ab460375-15bc-4c5a-ad19-f8d2cc12f160" d="m30.5,487.95l16.19-14.95-.2-23.33s-5.02-1.19-7.58-1.4c-2.8-.22-8.42.2-8.42.2v39.47Z"/><path id="uuid-8e1a6d00-5b2f-4434-ae09-13d59afda2eb" d="m29.5,495.92l23.18-20.13v-25.72l-5.78-.8-.4,23.72-16.99,14.16v8.77Z" style="fill:#ff5; stroke:#55a; stroke-linecap:round; stroke-linejoin:round; stroke-width:2px;"/><path id="uuid-6555aa3c-f055-4525-b219-70fc5e797db3" d="m29.5,448.27c5.12.2,11,.49,16.42,1.38,6.07.99,12.11,2.38,17.92,4.4,5.87,2.05,11.46,4.86,16.95,7.78,3.85,2.04,7.44,4.52,11.16,6.78-2.46-5.38-4.19-11.16-7.38-16.15-3.91-6.12-8.44-12.08-14.15-16.55-5.85-4.58-12.9-7.59-19.94-9.97-5.06-1.71-10.45-2.29-15.75-2.99-1.73-.23-3.57-.27-5.23-.4v5.78c3.92.16,8.31.54,12.36,1.45,5.49,1.22,10.9,2.96,16,5.33,3.81,1.77,7.52,3.9,10.77,6.58,2.56,2.11,4.67,4.74,6.69,7.37,1.41,1.83,3.01,3.47,3.75,5.83-2.59-1.2-5.78-2.99-8.77-4.27-3.49-1.5-7.04-2.89-10.68-3.99-3.51-1.05-7.1-1.81-10.7-2.47-3.22-.59-6.46-1.03-9.72-1.35-3.22-.31-6.5-.26-9.69-.53v5.98Z" style="fill:#ff5; stroke:#55a; stroke-linecap:round; stroke-linejoin:round; stroke-width:2px;"/><path id="uuid-b2de1e65-87dc-40df-b0b2-b26747a40c5d" d="m64.78,444.97c0-.83.67-1.5,1.5-1.5s1.5.67,1.5,1.5-.67,1.5-1.5,1.5-1.5-.67-1.5-1.5Z" style="fill:#ff5;"/><path id="uuid-88792eae-79cf-412a-a73c-de4adc4ae816" d="m56.08,441.45c0-1.38,1.12-2.5,2.5-2.5s2.5,1.12,2.5,2.5-1.12,2.5-2.5,2.5-2.5-1.12-2.5-2.5Z" style="fill:#ff5;"/><path id="uuid-a49b6f18-2ef2-42b3-9388-7d5e78ca063e" d="m44.77,438.09c0-1.93,1.57-3.5,3.5-3.5s3.5,1.57,3.5,3.5-1.57,3.5-3.5,3.5-3.5-1.57-3.5-3.5Z" style="fill:#ff5;"/><path id="uuid-85a7d7de-2ebd-4f44-9321-4064def310cd" d="m32.58,435.79c0-2.49,2.01-4.5,4.5-4.5s4.5,2.01,4.5,4.5-2.01,4.5-4.5,4.5-4.5-2.01-4.5-4.5Z" style="fill:#ff5;"/><path id="uuid-00fe6d36-5a44-475a-968b-13c0d9d0950e" d="m52.62,426.24v-50.2l-5.48,1.77v46.49l5.48,1.94Z" style="fill:#ff5; stroke:#55a; stroke-linecap:round; stroke-linejoin:round; stroke-width:2px;"/><path id="uuid-f9362814-d67b-42ca-830d-82c966ddc5a0" d="m52.97,342.27l-4.77,1.94-2.3-.88.35-174.48-16.62-10.25-.13-9.1,23.65,14.93-.18,177.84Z" style="fill:#ff5; stroke:#55a; stroke-linecap:round; stroke-linejoin:round; stroke-width:2px;"/><path id="uuid-210c4f79-fd3b-4a30-aa69-b1a1ba38f56e" d="m65.34,353.05c3.89-5.07,8.3-9.77,11.67-15.2,3.53-5.69,6.44-11.78,8.84-18.03,2.46-6.41,4.39-13.05,5.66-19.8,1.18-6.28,1.85-12.7,1.77-19.09-.08-6.05-1.14-12.06-2.12-18.03-.92-5.59-1.92-11.19-3.54-16.62-1.4-4.72-3.29-9.29-5.3-13.79-1.9-4.23-4.24-8.25-6.36-12.37-2.47,2.24-4.95,4.48-7.42,6.72,3.3,6.48,7.37,12.63,9.9,19.45,2.24,6.03,3.61,12.38,4.6,18.74,1.07,6.89,1.74,13.9,1.41,20.86-.28,5.84-1.48,11.63-2.83,17.32-1.45,6.13-3.19,12.24-5.66,18.03-2.21,5.19-5.06,10.11-8.13,14.85-2.01,3.1-4.48,5.89-6.72,8.84,1.18.94,2.79,1.51,3.54,2.83.88,1.55.47,3.54.71,5.3Z" style="fill:#55a;"/><path id="uuid-0c7f4fed-235e-43be-a4f5-8612153e3bb8" d="m62.9,383.33c1.48,1.14,4.95,2.27,6.43,3.41,3.52-4.09,7.07-8.15,10.56-12.26,2.29-2.71,4.6-5.4,6.81-8.17,2.57-3.23,5.12-6.49,7.49-9.88,2.17-3.1,4.24-6.26,6.13-9.54,1.86-3.21,3.49-6.54,5.11-9.88,1.68-3.48,3.35-6.97,4.77-10.56,1.55-3.91,3.05-7.85,4.09-11.92,1.17-4.58,1.84-9.27,2.38-13.96.65-5.58,1.08-11.2,1.06-16.81-.01-5.19-.52-10.38-1.06-15.54-.68-6.5-1.26-13.04-2.72-19.41-1.57-6.86-3.95-13.53-6.47-20.09-2.19-5.69-4.7-11.27-7.49-16.69-1.75-3.39-3.86-6.58-5.79-9.88-2.38,2.38-4.77,4.77-7.15,7.15,3.63,6.24,7.99,12.12,10.9,18.73,2.92,6.64,4.79,13.72,6.47,20.78,1.76,7.39,3.18,14.9,3.75,22.48.52,7.02.25,14.1-.34,21.12-.54,6.47-1.29,12.97-2.92,19.25-1.75,6.74-4.39,13.24-7.29,19.57-2.65,5.77-5.9,11.26-9.2,16.69-2.76,4.55-5.46,9.18-8.86,13.28-3.69,4.47-8.43,8.46-12.4,12.2-.91,3.63-3.33,6.3-4.24,9.94h0Z" style="fill:#55a;"/><path id="uuid-153b0ccd-1a6a-4c10-8f7b-e019a1cc64fa" d="m88.81,399.51l-26.08-16.62" style="fill:none; stroke:#55a; stroke-linecap:round; stroke-linejoin:round; stroke-width:2px;"/><path id="uuid-b2d51787-26f8-4ecb-b252-7ae898dd16ed" d="m132.16,341.23l-53.46,51.78-9.63-7.47s10.5-10.75,15.17-16.62c5.71-7.18,11.05-14.7,15.65-22.64,2.24-3.85,3.99-7.97,5.78-12.04,2.09-4.75,5.78-14.45,5.78-14.45l20.71,21.43Z" style="fill:#55a; stroke:#55a; stroke-linecap:round; stroke-linejoin:round; stroke-width:2px;"/><path id="uuid-f134c02f-769d-4cc6-b170-a471b67262ea" d="m83.12,388.03c.95-.37,1.64-1.42,1.88-2.41.72-3.07-4.29-7.19-1.91-9.25,1.93-1.67,4.67,3.05,7.19,2.62,1.14-.19,2.27-1.11,2.69-2.19,1.11-2.86-3.84-7.32-1.34-9.09,2.03-1.44,4.18,2.98,6.62,3.47.7.14,1.58.25,2.15-.19s.69-1.31.73-2.03c.21-3.53-5.18-8.14-2.41-10.34,2.32-1.85,5.08,3.4,8,3.91.7.12,1.56.2,2.11-.24.55-.44.66-1.3.7-2.01.21-3.9-5.71-9.01-2.62-11.41,2.86-2.22,6.1,4.3,9.66,4.97.71.13,1.59.23,2.16-.22s.62-1.34.69-2.06c.51-5.54-7.33-14.12-2.31-16.53,4-1.93,4.88,8.46,9.16,9.69.91.26,2.27.1,2.75-.72s-.2-1.96-.72-2.75c-3.57-5.45-9.13-10.15-15.34-12.09-.7-.22-1.62-.31-2.2.14-.59.44-.7,1.35-.74,2.08-.24,5.8,8.94,13.22,4.41,16.84-2.78,2.23-6-4.22-9.5-4.91-.7-.14-1.58-.25-2.15.19s-.69,1.31-.73,2.03c-.23,3.95,5.78,9.1,2.69,11.56-2.33,1.86-5.1-3.41-8.03-3.94-.71-.13-1.58-.23-2.14.22-.56.44-.67,1.32-.7,2.03-.18,3.48,5.13,8.05,2.38,10.19-1.85,1.44-3.95-2.77-6.25-3.25-.68-.14-1.52-.26-2.08.14-.57.4-.73,1.23-.82,1.92-.42,3.24,3.97,7.63,1.44,9.69-2.05,1.67-4.84-3.2-7.44-2.72-1.14.21-2.25,1.18-2.62,2.28-1.01,2.99,4.29,7.21,1.91,9.28-2.33,2.02-5.61-3.2-8.69-3.12-.98.02-2.4.21-2.73,1.14-.33.93.64,1.97,1.38,2.61,3.22,2.8,7.9,3.28,12.03,4.34.26.07.54.22.78.12Z" style="fill:#fff;"/><path id="uuid-b90af354-6345-48a8-9c45-cf2f8c64e86b" d="m192.73,347.63l-5.21,5.09-1.93-7.52,5.69-6.07,1.45,8.5Z" style="fill:#f55; stroke:#55a; stroke-linecap:round; stroke-linejoin:round; stroke-width:2px;"/><path id="uuid-26e842d5-97bf-4471-ab28-2870a046318a" d="m203.15,351.6l-6.54,4.74-1.49-7.3,6.1-6.29,1.93,8.86Z" style="fill:#f55; stroke:#55a; stroke-linecap:round; stroke-linejoin:round; stroke-width:2px;"/><path id="uuid-2ed81f7f-26dd-4f0a-8904-1328a77b5761" d="m209,266.5l-62,5.5s-3.05-5.34-4.84-7.84c-2.18-3.05-4.5-6.03-7.16-8.66-2.52-2.49-5.34-4.69-8.27-6.68-2.55-1.74-5.37-3.04-8.06-4.56-2.06-1.17-6.17-3.5-6.17-3.5,0,0,2.87,10.92,3.76,16.48.8,5.03,1.11,10.12,1.41,15.2.28,4.71.55,9.43.35,14.14-.27,6.63-.9,13.28-2.12,19.8-.83,4.44-3.54,13.08-3.54,13.08l19.86,21.27,76.77-74.24Z" style="stroke:#000; stroke-linecap:round; stroke-linejoin:round; stroke-width:2px;"/><path id="uuid-45b161df-e320-4d01-8290-0e6d674a64c0" d="m138.41,333.56l4.06-4-8.44-.06,1.56-1.47h.62l7.78-.16,3.94-4-8,.09,2.31-2.16,6.72.81,4.5-3.97-7.44-.41,1.34-1.28,7.5-.22,3.88-4-6.97.09,1.25-1.19h6.88l4.03-4h-6.62l2.12-2,5.66.62,4.44-3.97-9.38-.59-.36-13.7-4,3.97.36,11.26-2.09,2-.16-11.41-4,4.06.22,11.03-1.88,1.75-.34-11.5-4,4.19.5,10.94-1.53,1.44-.34-10.88-4,4.19.5,10.28-1.19,1.12-.41-9.94-4,4.25.62,9.25-2.5,2.34-.28-10.56-3.97,4.16.44,11.53.06,1.91,1.91.03,8.69.13Z" style="fill:#ff5;"/><path id="uuid-8329532e-066e-427b-ac64-1f79a7e5e382" d="m124.48,318.06l4.06-4-8.44-.06,1.56-1.47h.62l7.78-.16,3.94-4-8,.09,2.31-2.16,6.72.81,4.5-3.97-7.44-.41,1.34-1.28,7.5-.22,3.88-4-6.97.09,1.25-1.19h6.88l4.03-4h-6.62l2.12-2,5.66.62,4.44-3.97-9.38-.59-.47-13.38-4,3.97.47,10.94-2.09,2-.16-11.41-4,4.06.22,11.03-1.88,1.75-.34-11.5-4,4.19.5,10.94-1.53,1.44-.34-10.88-4,4.19.5,10.28-1.19,1.12-.41-9.94-4,4.25.62,9.25-2.5,2.34-.28-10.56-1.43,7.86-2.1,7.83.06,1.91,1.91.03,8.69.13Z" style="fill:#ff5;"/><path id="uuid-bfd0f20e-7166-4c0c-b16a-18088a14b82e" d="m120.85,293.14l4.5-3.97-5.96-.41.39-1.49h6.97s3.88-4.01,3.88-4.01l-6.97.09,1.25-1.19h6.88l4.03-4h-6.62l2.12-2,5.66.62,4.44-3.97-9.38-.59-.47-13.38-4,3.97.47,10.94-2.09,2-.16-11.41-4,4.06.22,11.03-1.88,1.75-.34-11.5-1.04,2.28.08,11.68-.47,9.13,2.49.34Z" style="fill:#ff5;"/><path id="uuid-372b36c1-40f9-400d-8e8d-6ae78389162d" d="m34.81,476.44c.55.01,1.04-.43,1.47-.78,2.92-2.42,5.79-5.32,7.12-8.88.27-.73.3-1.59.09-2.34-.98-3.54-3.02-7.11-6.03-9.22-.79-.55-2.01-1.19-2.82-.66-.81.53-.71,1.9-.52,2.85.63,3.14,5.4,4.84,5.25,8.03-.16,3.29-4.91,4.68-6.19,7.72-.28.67-.58,1.52-.26,2.17s1.15,1.09,1.88,1.11h0Z" style="fill:#ff5;"/><path id="uuid-8902e083-8c24-476c-9069-212c03325ea9" d="m41.78,420.69c.94-.6,1.46-1.92,1.41-3.03-.24-4.61-7.48-7.3-7.09-11.91.31-3.71,5.9-5.03,7.25-8.5.3-.77.33-1.68.09-2.47-1.11-3.64-3.48-7.23-6.72-9.22-.8-.49-2.03-1.01-2.8-.45s-.67,1.88-.45,2.8c.76,3.2,5.94,4.68,5.81,7.97-.14,3.66-5.7,5-7.12,8.38-.3.71-.39,1.56-.22,2.31,1.12,4.97,4.07,9.67,7.81,13.12.55.51,1.3.83,2.03,1h0Z" style="fill:#ff5;"/><path id="uuid-7037c1dc-5453-444e-9937-a32d8c5ab474" d="m37.56,341.56c.67-.18,1.46-.44,1.79-1.05.33-.61.11-1.42-.11-2.08-.75-2.3-3.88-3.65-3.97-6.06-.18-4.74,5.61-7.89,6.88-12.47.16-.58.18-1.22.06-1.81-.93-4.51-6.21-7.9-5.91-12.5.29-4.41,5.81-6.93,7.19-11.12.21-.63.26-1.35.12-2-1.15-5.52-7.72-9.42-7.72-15.06,0-5.11,5.76-8.67,7-13.62.14-.58.16-1.2.03-1.78-1.16-5.3-7.23-9.26-7.03-14.69.17-4.69,5.73-7.7,6.97-12.22.17-.61.18-1.29.03-1.91-1.15-4.96-7.05-8.5-6.97-13.59.07-4.78,5.7-7.94,6.94-12.56.16-.6.18-1.27.03-1.88-1.15-4.82-7.14-8.21-6.91-13.16.2-4.13,5.41-6.48,6.78-10.38.21-.59.28-1.25.19-1.88-.49-3.41-1.55-7.06-3.91-9.56-.68-.72-1.76-1.66-2.67-1.29s-1.03,1.8-1.02,2.79c.06,3.09,3.8,5.52,3.5,8.59-.4,4.16-5.59,6.52-6.88,10.5-.21.64-.24,1.37-.09,2.03,1.08,4.87,7,8.26,6.94,13.25-.06,4.77-5.7,7.92-6.94,12.53-.16.6-.17,1.27-.03,1.88,1.15,4.96,7.08,8.5,6.97,13.59-.1,4.67-5.64,7.69-6.91,12.19-.17.59-.19,1.24-.06,1.84,1.11,5.32,7.08,9.29,7,14.72-.07,5.12-5.8,8.71-7,13.69-.14.59-.14,1.23,0,1.81,1.31,5.44,7.94,9.35,7.66,14.94-.22,4.41-5.8,6.93-7.19,11.12-.2.61-.25,1.3-.12,1.94.87,4.55,6.08,7.93,5.94,12.56-.15,4.79-5.81,7.93-6.94,12.59-.16.67-.14,1.41.06,2.06.85,2.69,2.57,5.16,4.62,7.09.46.43,1.04.78,1.66.94h0Z" style="fill:#ff5;"/><path id="uuid-2f7fdcb2-3903-41ff-b17c-e73ca2e5c5c0" d="m247,299.25c-3.17-1.25-6.55-2.05-9.5-3.75-3.96-2.28-7.38-5.41-10.75-8.5-2.96-2.71-5.73-5.63-8.25-8.75-2.86-3.54-5.17-7.5-7.75-11.25" style="fill:none; stroke:#000; stroke-linecap:round; stroke-linejoin:round; stroke-width:2px;"/></g><path id="uuid-820e2b8a-38a0-49a7-b939-e317bb963f98" d="m179.5,254.5s3,5.17,6.5,8.5c3.5,3.33,8.5,6.5,8.5,6.5,0,0-5,3.33-8.5,6.67-3.5,3.33-6.5,8.33-6.5,8.33,0,0-3-5-6.5-8.33-3.5-3.33-8.5-6.5-8.5-6.5,0,0,5-3.5,8.5-6.83,3.5-3.33,6.5-8.33,6.5-8.33" style="fill:#ff5;"/><path id="uuid-23871be6-7fdb-4f79-8c3d-886550d37de3" d="m179.5,259.5s2,3.44,4.33,5.67c2.33,2.22,5.67,4.33,5.67,4.33,0,0-3.33,2.22-5.67,4.44-2.33,2.22-4.33,5.56-4.33,5.56,0,0-2-3.33-4.33-5.56-2.33-2.22-5.67-4.33-5.67-4.33,0,0,3.33-2.33,5.67-4.56,2.33-2.22,4.33-5.56,4.33-5.56" style="fill:#f55;"/><path id="uuid-c47c402c-44b6-43d8-84f8-759ed71cf1f6" d="m89.5,44.5s6,15,13,25,17,20,17,20c0,0-10,10-17,20s-13,25-13,25c0,0-6-15-13-25s-17-20-17-20c0,0,10-10,17-20s13-25,13-25" style="fill:#f55;"/><path id="uuid-d8ad9523-f943-4a6c-ab37-0cf06eb58e8d" d="m29.5,89.5s3,7.5,6.5,12.5,8.5,10,8.5,10c0,0-5,5-8.5,10s-6.5,12.5-6.5,12.5c0,0-3-7.5-6.5-12.5s-8.5-10-8.5-10c0,0,5-5,8.5-10s6.5-12.5,6.5-12.5" style="fill:#f55;"/><path id="uuid-433c5c98-0571-44be-aa07-1a656c2f92f9" d="m269.5,494.5s-6-15-13-25-17-20-17-20c0,0,10-10,17-20s13-25,13-25c0,0,6,15,13,25s17,20,17,20c0,0-10,10-17,20s-13,25-13,25" style="fill:#f55;"/><path id="uuid-913e8488-0c55-4187-8dd1-9a0ca30a9331" d="m329.5,449.5s-3-7.5-6.5-12.5-8.5-10-8.5-10c0,0,5-5,8.5-10s6.5-12.5,6.5-12.5c0,0,3,7.5,6.5,12.5s8.5,10,8.5,10c0,0-5,5-8.5,10s-6.5,12.5-6.5,12.5" style="fill:#f55;"/></g></svg>