<?xml version="1.0" encoding="UTF-8"?><svg id="uuid-4b5d86cd-1e16-42e9-841d-4b8367178c1e" xmlns="http://www.w3.org/2000/svg" viewBox="0 0 64 64"><path d="M6.09,57.91c5.57,5.57,13.57,5.67,19.04.2,5.47-5.47,5.77-17.52,2.03-21.27s-15.8-3.44-21.27,2.03-5.37,13.47.2,19.04Z" style="fill:#999;"/><path d="M60.37,57.95c3.75-8.07-4.13-24.24-17.11-37.21C30.29,7.77,14.11-.12,6.05,3.63-3.54,8.1,1.65,26.79,19.43,44.57c17.78,17.78,36.47,22.97,40.94,13.38ZM28.22,35.78c-8.81-8.81-13.3-17.71-10.22-19.74,2.88-1.9,11.4,2.97,19.2,10.77,7.8,7.8,12.67,16.32,10.77,19.2-2.03,3.08-10.93-1.41-19.74-10.22Z" style="fill:#333;"/><path d="M57.91,6.09c-5.88-5.88-14.32-5.98-20.09-.21s-6.09,18.48-2.14,22.44,16.67,3.63,22.44-2.14,5.66-14.21-.21-20.09Z" style="fill:#999;"/></svg>