<?xml version="1.0" encoding="UTF-8"?><svg id="uuid-36150bde-3829-42a9-8273-e2d6cf8bd724" xmlns="http://www.w3.org/2000/svg" xmlns:xlink="http://www.w3.org/1999/xlink" viewBox="0 0 359 539"><defs><pattern id="uuid-2edd6828-1df1-4867-944f-e170fe205a78" x="0" y="0" width="132" height="76.12" patternTransform="translate(-4594.1 -3027.91)" patternUnits="userSpaceOnUse" viewBox="0 0 132 76.12"><rect width="132" height="76.12" style="fill:none;"/><polyline points="154 38.06 132 50.71 132 101.53 110 114.18" style="fill:none; stroke:#ff5655; stroke-miterlimit:10; stroke-width:14px;"/><polyline points="176 76.12 154 63.47 110 88.77 88 76.12" style="fill:none; stroke:#ff5655; stroke-miterlimit:10; stroke-width:14px;"/><polyline points="154 114.18 154 88.77 110 63.47 110 38.06" style="fill:none; stroke:#ff5655; stroke-miterlimit:10; stroke-width:14px;"/><polyline points="88 76.12 66 88.77 66 139.59 44 152.24" style="fill:none; stroke:#ff5655; stroke-miterlimit:10; stroke-width:14px;"/><polyline points="22 38.06 0 50.71 0 101.53 -22 114.18" style="fill:none; stroke:#ff5655; stroke-miterlimit:10; stroke-width:14px;"/><polyline points="44 76.12 22 63.47 -22 88.77 -44 76.12" style="fill:none; stroke:#ff5655; stroke-miterlimit:10; stroke-width:14px;"/><polyline points="22 114.18 22 88.77 -22 63.47 -22 38.06" style="fill:none; stroke:#ff5655; stroke-miterlimit:10; stroke-width:14px;"/><polyline points="154 -38.06 132 -25.41 132 25.41 110 38.06" style="fill:none; stroke:#ff5655; stroke-miterlimit:10; stroke-width:14px;"/><polyline points="176 0 154 -12.65 110 12.65 88 0" style="fill:none; stroke:#ff5655; stroke-miterlimit:10; stroke-width:14px;"/><polyline points="154 38.06 154 12.65 110 -12.65 110 -38.06" style="fill:none; stroke:#ff5655; stroke-miterlimit:10; stroke-width:14px;"/><polyline points="88 0 66 12.65 66 63.47 44 76.12" style="fill:none; stroke:#ff5655; stroke-miterlimit:10; stroke-width:14px;"/><polyline points="110 38.06 88 25.41 44 50.71 22 38.06" style="fill:none; stroke:#ff5655; stroke-miterlimit:10; stroke-width:14px;"/><polyline points="88 76.12 88 50.71 44 25.41 44 0" style="fill:none; stroke:#ff5655; stroke-miterlimit:10; stroke-width:14px;"/><polyline points="22 -38.06 0 -25.41 0 25.41 -22 38.06" style="fill:none; stroke:#ff5655; stroke-miterlimit:10; stroke-width:14px;"/><polyline points="44 0 22 -12.65 -22 12.65 -44 0" style="fill:none; stroke:#ff5655; stroke-miterlimit:10; stroke-width:14px;"/><polyline points="22 38.06 22 12.65 -22 -12.65 -22 -38.06" style="fill:none; stroke:#ff5655; stroke-miterlimit:10; stroke-width:14px;"/><polyline points="88 -76.12 66 -63.47 66 -12.65 44 0" style="fill:none; stroke:#ff5655; stroke-miterlimit:10; stroke-width:14px;"/></pattern></defs><rect x="-2" y="-64.4" width="362.24" height="784.38" style="fill:url(#uuid-2edd6828-1df1-4867-944f-e170fe205a78);"/></svg>