<?xml version="1.0" encoding="UTF-8"?><svg id="uuid-1c3e91cd-e192-4bc5-83fa-a54e00565cc5" xmlns="http://www.w3.org/2000/svg" viewBox="0 0 359 539"><g id="uuid-dc7b8928-1ba0-4417-9f3f-2ca7c9853f2f"><g id="uuid-50515124-3bab-4f37-9f1e-0477c38ffdea"><path id="uuid-6ab88783-aa19-4f36-87e2-b3dc145fed15" d="m143.94,194.97l-5.84,3-3.38,3.72-5.47-3.38-6-1.06-5.5,3.38-4.41,6.19,5.84,6.72,6.72,9.19,5.81,10.25,5.5,11.12,4.59,13.09,3,14.31,1.06.03,2.19,14.53s1.25,15.55,1.25,14.84,1.78,13.09,1.78,13.09l4.41,8.66,7.44,6.34,8.66,1.06,6.53,5.84,7.44,4.59,7.94-.72,7.44-3,6.19,4.59,7.94,2.66,5.84-3,3.38-3.72,5.47,3.38,6,1.06,5.5-3.38,4.41-6.19-5.84-6.72-6.72-9.19-5.81-10.25-5.5-11.12-4.59-13.09-3-14.31-1.06-.03-2.19-14.53s-1.25-15.55-1.25-14.84-1.78-13.09-1.78-13.09l-4.41-8.66-7.44-6.34-8.66-1.06-6.53-5.84-7.44-4.59-7.94.72-7.44,3-6.19-4.59-7.94-2.66Z"/><path id="uuid-433da10c-c2e3-41e9-bd0f-c01f2f4dee97" d="m144.28,69.63c-2.3,5.13-4.12,10.49-6.89,15.38-1.77,3.13-4.32,5.76-6.19,8.84-1.72,2.84-3.46,5.72-4.6,8.84-.84,2.33-1.64,4.77-1.59,7.25.05,2.31,1.18,4.48,1.77,6.72-1.65,2.47-3.3,4.95-4.95,7.42-2.53.29-5.33-.28-7.6.88-2.34,1.2-4.36,3.38-5.3,5.83-.96,2.47-.86,5.45,0,7.95.87,2.54,2.72,4.86,4.95,6.36,2.13,1.44,4.86,2.38,7.42,2.12,2.91-.3,5.44-2.31,7.78-4.07,2.73-2.06,4.71-4.95,7.07-7.42.71,2,.92,4.26,2.12,6.01,1.18,1.72,2.84,3.28,4.77,4.07,1.7.69,3.67.61,5.48.35,2.05-.29,4.04-1.08,5.83-2.12.87-.5,1.35-1.62,2.3-1.94,4.51-1.56,9.55.35,14.32.53,2.12-5.42,4.24-10.84,6.36-16.26-.59-1.18-1.18-2.36-1.77-3.54,2.3.35,4.59,1.39,6.89,1.06,2.06-.3,4.22-1.14,5.66-2.65,1.4-1.48,2.03-3.64,2.3-5.66.26-1.94.01-4.01-.71-5.83-.81-2.04-2.11-4.02-3.89-5.3-1.1-.79-2.59-.82-3.89-1.24.65-2.47,1.12-5,1.94-7.42.93-2.73,2.15-5.34,3.36-7.95.94-2.03,2.09-3.97,3.01-6.01,1.3-2.89,2.59-5.81,3.54-8.84.79-2.54,1.21-5.18,1.77-7.78.5-2.29.94-4.6,1.41-6.89-3.89.12-7.79.01-11.67.35-3.26.29-6.48.93-9.72,1.41-3.42.51-6.86.91-10.25,1.59-3.1.63-6.2,1.28-9.19,2.3-2.37.81-4.64,1.91-6.89,3.01-1.68.82-3.3,1.77-4.95,2.65Z" style="fill:#ff5;"/><path id="uuid-588cd9d8-15e3-4284-bb61-dac16539687d" d="m124.54,145.86s3.66-1.46,5.23-2.61c1.69-1.25,4.36-4.57,4.36-4.57l.22,61.87s-3.79-2.35-5.88-3.05c-1.26-.42-3.92-.65-3.92-.65v-50.98Z"/><path id="uuid-79c8fdfb-a90b-4099-b229-18965fec578b" d="m133.69,170.47l78.21-.44-25.27,39.65s-8.97-8.86-14.81-10.24c-4.57-1.08-13.94,1.96-13.94,1.96,0,0-8.45-6-13.29-5.88-4.06.1-10.89,5.45-10.89,5.45" style="fill:#f55;"/><path id="uuid-fa88cc05-9c8d-4c9f-9ecc-19af6c45ba82" d="m226.5,148.75l-39,60.5s4.07-.28,6,.25c1.19.33,3.25,1.75,3.25,1.75l41.75-64.75-3.5-2-3.25,2.25-5.25,2Z"/><path id="uuid-8114a19b-b9cd-418b-9411-12270a7e1fca" d="m134.5,169.5h78l12.78-19.58-90.78-.42v20Z" style="fill:#ff5; stroke:#55a; stroke-linecap:round; stroke-linejoin:round; stroke-width:2px;"/><path id="uuid-cceff9a3-9da6-4aa2-a7c9-ea011ec1549c" d="m217.88,288.75l10.75,6.88,7.38,6.5,6.5,8.25,5,8.88,3.38,8.5.62,6.88-.5,6.62-8.75-10.75-5.5-6.75-5.25-7.62-4.38-7-4.75-8.12-3.5-7.5-1-4.75Z" style="fill:#55a;"/><path id="uuid-75d0fd9d-bd5b-4c19-aac5-56c902531360" d="m213.37,230.8c7,1.33,11.44,2.58,16.88,4.7,9.24,3.6,18.26,7.99,26.5,13.5,6.83,4.56,13.12,10.01,18.75,16,6.93,7.37,13.32,15.42,18.25,24.25,3.81,6.82,6.53,14.28,8.56,21.83,2.1,7.79,3.17,15.87,3.69,23.92.45,6.99.23,14.04-.5,21-.42,4.05-1.46,8.01-2.25,12-.79,4.01-1.67,8-2.5,12,0,0,9.3,4.01,14.12,5.53,4.79,1.51,14.63,3.54,14.63,3.54v-158.22l-82.51-51.97-33.62,51.93Z" style="fill:#55a; stroke:#55a; stroke-linecap:round; stroke-linejoin:round; stroke-width:2px;"/><path id="uuid-cb51a2e9-d5e4-4d6d-906d-24d253c86d71" d="m296.41,368.54c1.3-6.38,2.78-12.79,3.09-19.29.44-9.26-.08-18.63-1.75-27.75-1.32-7.21-3.57-14.29-6.5-21-3.47-7.94-7.85-15.54-13-22.5-4.07-5.5-8.87-10.48-14-15-6.32-5.56-13.26-10.46-20.5-14.75-3.66-2.17-7.55-3.94-11.5-5.5-4.14-1.63-8.44-2.86-12.75-4-3.39-.89-7.02-1.84-10.27-2.21l2.06,18.66,11.45,3.6,17.81,7.42,19.29,17.38,11.87,16.96,6.78,17.38,3.18,20.78-1.27,13.78-2.76,13.99c6.78,5.3,11.02,7.61,16.54,11.02,0,0,1.61-5.96,2.22-8.99h0Z" style="fill:#55a; stroke:#55a; stroke-linecap:round; stroke-linejoin:round; stroke-width:2px;"/><path id="uuid-ba721653-2cd3-4990-9d59-e408de769036" d="m119.5,29.5l25,40s6.47-3.79,10-5c8.04-2.76,16.54-4.16,25-5,9.95-.99,20.03-.82,30,0,10.1.84,30,5,30,5l25-35H119.5Z" style="fill:#f55; stroke:#55a; stroke-linecap:round; stroke-linejoin:round; stroke-width:2px;"/><path id="uuid-c96a486f-1fcc-4abf-8767-6de8e14a868e" d="m238.98,64.53s3.14,9.29,2.35,13.93c-.45,2.65-3.22,4.47-3.89,7.07-.26,1.03-.28,2.16,0,3.18,1.77,6.58,8.08,11.22,10.25,17.68.3.9.7,1.94.35,2.83-1.41,3.58-7.21,3.94-8.84,7.42-1.05,2.24.78,5.08,0,7.42-.37,1.12-1.86,1.68-2.12,2.83-.4,1.76,1.28,3.51,1.06,5.3-.23,1.94-1.99,3.41-2.47,5.3-.44,1.72.54,3.78-.35,5.3-1.42,2.42-4.45,3.58-7.07,4.6-3.34,1.3-7.02,1.76-10.61,1.77-5.13,0-10.36-.76-15.2-2.47-4.48-1.59-8.45-4.39-12.37-7.07-2.48-1.7-4.96-3.48-7.01-5.68-3.01-3.22-7.58-10.83-7.58-10.83" style="fill:none; stroke:#55a; stroke-linecap:round; stroke-linejoin:round; stroke-width:2px;"/><path id="uuid-9cd5aee3-da67-4c9f-9194-68fa6dc99c8e" d="m234.03,75.26s-4.33-3.63-6.99-4.2c-3.78-.8-7.81.26-11.5,1.4-3.12.96-5.82,2.96-8.7,4.51-1.41.76-4.2,2.33-4.2,2.33,0,0,5.2-2.87,7.93-4.04,2.57-1.1,5.16-2.32,7.93-2.8,2.66-.45,5.43-.48,8.08,0,2.61.47,7.46,2.8,7.46,2.8h0Z" style="fill:none; stroke:#55a; stroke-linecap:round; stroke-linejoin:round; stroke-width:2px;"/><path id="uuid-3ebd2c4e-77f8-4628-909f-d5b34d2bcc4d" d="m226.57,78.83s-3.42-.82-5.13-.62c-2.25.26-4.38,1.26-6.37,2.33-1.93,1.03-3.65,2.44-5.28,3.89-1.76,1.56-4.82,5.13-4.82,5.13" style="fill:none; stroke:#55a; stroke-linecap:round; stroke-linejoin:round; stroke-width:2px;"/><path id="uuid-32f33064-7a00-4e62-9a02-77af2ec62efb" d="m229.99,80.7s-2,1.22-3.11,1.55c-2.05.62-4.28.34-6.37.78-1.59.33-3.16.79-4.66,1.4-1.68.68-3.24,1.61-4.82,2.49-1.16.64-2.23,1.45-3.42,2.02-.8.38-2.49.93-2.49.93" style="fill:none; stroke:#55a; stroke-linecap:round; stroke-linejoin:round; stroke-width:2px;"/><path id="uuid-0316f6cf-727e-4b18-852d-e80a6155e40f" d="m228.12,90.64s-2.48,3.21-3.89,4.66c-.92.95-1.9,1.84-2.95,2.64-.98.75-3.11,2.02-3.11,2.02" style="fill:none; stroke:#55a; stroke-linecap:round; stroke-linejoin:round; stroke-width:2px;"/><path id="uuid-f8bc7493-fe23-4aee-bfe4-58383e10cc06" d="m227.97,105.25s-1.97,2.92-1.71,4.51c.24,1.45,1.47,2.79,2.8,3.42,1.31.62,2.94.32,4.35,0,.95-.21,1.8-.76,2.64-1.24,1.09-.63,1.89-1.84,3.11-2.18.65-.18,1.85-.5,2.02.16.24.9-1.5,1.13-2.33,1.55-1.08.55-2.25.92-3.42,1.24-1.32.37-2.67.8-4.04.78-1.38-.03-3.05.03-4.04-.93-.73-.71-.8-1.94-.78-2.95.04-1.52,1.4-4.35,1.4-4.35h0Z" style="fill:none; stroke:#55a; stroke-linecap:round; stroke-linejoin:round; stroke-width:2px;"/><path id="uuid-abbf156d-bee7-4522-91a9-68f42840db9d" d="m213.98,117.38s-2.18-2.21-3.57-2.18c-1.19.03-2.25,1.05-2.95,2.02-.76,1.05-1.23,2.44-1.09,3.73.13,1.18.79,2.36,1.71,3.11,1.64,1.33,3.96,2.06,6.06,1.87,2.1-.2,3.77-1.89,5.6-2.95,1.65-.97,3.16-2.16,4.82-3.11,1.41-.8,2.75-1.93,4.35-2.18,1.66-.26,3.69-.31,4.97.78.38.32.78,1.02.47,1.4-.91,1.08-2.78-.69-4.2-.62-1.71.08-3.39.6-4.97,1.24-2.11.85-3.84,2.46-5.91,3.42-2.1.97-4.22,2.5-6.53,2.33-1.76-.13-3.46-1.2-4.66-2.49-.96-1.04-1.73-2.47-1.71-3.89.02-1.32.67-2.76,1.71-3.57,1-.78,2.5-1.09,3.73-.78.93.24,2.18,1.87,2.18,1.87Z" style="fill:none; stroke:#55a; stroke-linecap:round; stroke-linejoin:round; stroke-width:2px;"/><path id="uuid-a7b1b334-a575-4c13-9584-3e02e748fe9e" d="m236.05,124.37c-1.5.28-3,.53-4.51.78-2.23.37-4.59.24-6.68,1.09-.76.31-2.02,1.4-2.02,1.4,0,0,2.52-1.2,3.89-1.4,1.95-.29,3.93.32,5.91.31,1.56-.01,4.66-.31,4.66-.31l1.87-2.49s-2.07.43-3.11.62h0Z" style="fill:none; stroke:#55a; stroke-linecap:round; stroke-linejoin:round; stroke-width:2px;"/><path id="uuid-aa7e1b2f-76cc-4755-8cdd-abf83aa645f5" d="m223.46,83.18c1.16,0,2.4.64,3.11,1.55.94,1.22,1.51,3.08.93,4.51-.52,1.28-2.04,2.24-3.42,2.33-1.73.12-3.69-.89-4.66-2.33-.73-1.08-.95-2.75-.31-3.89.8-1.41,2.73-2.18,4.35-2.18Z" style="fill:none; stroke:#55a; stroke-linecap:round; stroke-linejoin:round; stroke-width:2px;"/><path id="uuid-4db6a71d-8148-4dc5-b347-2e6edd3f101b" d="m207.92,89.09s3.66-.22,5.44.16c1.48.31,2.73,1.35,4.2,1.71,2.02.5,6.22.62,6.22.62" style="fill:none; stroke:#55a; stroke-linecap:round; stroke-linejoin:round; stroke-width:2px;"/><path id="uuid-dd9c26e8-9350-42f9-9b09-0cf057738628" d="m224.24,85.36c-.95-.03-1.84,1.22-1.87,2.18-.02.92.79,2.19,1.71,2.18.96-.02,1.72-1.37,1.71-2.33,0-.85-.7-2-1.55-2.02h0Z" style="fill:#55a; stroke:#55a; stroke-linecap:round; stroke-linejoin:round; stroke-width:2px;"/><path id="uuid-2ba8c19e-85c9-4d29-9b23-cc6a878525ef" d="m133.95,29.5l14.5,28.53c6.49-2.25,12.08-3.34,20.36-4.27l-3.9-24.27h-5.73l5.12,20.73c-4.75.33-9.19,1.29-13.29,2.93l-10.48-23.66h-6.58Z" style="fill:#55a; stroke:#55a; stroke-linecap:round; stroke-linejoin:round; stroke-width:2px;"/><path id="uuid-c85425f2-2fba-4633-bef3-abc096f6f391" d="m173.8,29.5l3.05,23.29c10.08-.94,18.15-1.49,28.23-.49l5.49-22.8h-6.46l-3.05,17.81c-7.92-.47-12.56,0-19.21.49l-2.23-18.29h-5.82Z" style="fill:#55a; stroke:#55a; stroke-linecap:round; stroke-linejoin:round; stroke-width:2px;"/><path id="uuid-333c401b-46d3-4ee7-8a1d-28e1a7ed0d70" d="m220.37,29.5l-7.31,23.05c7.36.61,14.06,1.02,22.06,2.93l15.72-25.97h-6.34l-12.07,21.34c-4.47-1.22-8.33-1.58-12.8-2.19l6.22-19.15h-5.49Z" style="fill:#55a; stroke:#55a; stroke-linecap:round; stroke-linejoin:round; stroke-width:2px;"/><path id="uuid-1e197ec8-0f1f-4e81-bd75-1a1a6db05d79" d="m144.47,69.77s-4.62,10.62-7.41,15.69c-3.05,5.54-7.92,10.12-10.17,16.03-1.26,3.32-2.35,7.02-1.72,10.52.51,2.86,2.06,5.74,4.31,7.58,1.82,1.5,4.36,2.23,6.72,2.24,2.6,0,5.61-.54,7.41-2.41,1.92-2,2.42-5.24,2.24-8-.18-2.78-1.19-5.84-3.27-7.69-1.07-.95-2.7-1.26-4.14-1.21-1.83.06-3.89.58-5.17,1.9-1.52,1.56-2.21,4.03-2.07,6.21.12,1.85.9,3.94,2.41,5,1.42.99,3.6,1.24,5.17.52,1.27-.59,2.23-2.06,2.41-3.45.16-1.24-.44-2.61-1.31-3.52-.58-.6-2.31-.97-2.31-.97" style="fill:none; stroke:#55a; stroke-linecap:round; stroke-linejoin:round; stroke-width:2px;"/><path id="uuid-4c3fd64f-a411-4f24-9195-6d7fe2c28890" d="m163.51,62.53s-4.43,14.14-7.41,20.9c-2.22,5.02-6,9.33-7.76,14.53-1.5,4.43-3.18,9.28-2.24,13.86.56,2.73,2.37,5.35,4.48,7.07,1.89,1.54,4.36,2.41,6.72,2.42,2.6.01,5.54-.78,7.41-2.61,2.19-2.13,3.44-5.52,3.28-8.57-.17-3.13-1.91-6.34-4.31-8.36-1.11-.93-2.7-1.35-4.14-1.3-1.83.07-3.89.62-5.17,2.05-1.52,1.69-2.21,4.35-2.07,6.7.12,1.99.92,4.11,2.41,5.4,1.36,1.16,3.45,1.91,5.17,1.42,1.55-.44,2.92-1.98,3.28-3.55.38-1.68-.44-4.15-1.55-4.94-2.97-2.14-4.31.79-4.31.79" style="fill:none; stroke:#55a; stroke-linecap:round; stroke-linejoin:round; stroke-width:2px;"/><path id="uuid-73285e6c-90cc-47fb-916b-762a409bd325" d="m183.13,59.6s-1.65,12.01-6.38,22.79c-2.26,5.15-5.44,9.96-6.9,15.4-1.32,4.93-2.51,10.22-1.55,15.24.59,3.06,1.97,6.23,4.31,8.28,1.79,1.57,4.34,2.3,6.72,2.42,2.66.14,5.78-.13,7.76-1.92,2.43-2.2,3.55-6,3.28-9.26-.27-3.18-2.18-6.34-4.65-8.36-1.12-.91-2.69-1.35-4.14-1.3-1.85.07-3.91.69-5.17,2.05-1.59,1.72-2.21,4.37-2.07,6.7.12,1.97.92,4.11,2.41,5.4,1.36,1.16,3.45,1.91,5.17,1.42,1.55-.44,2.92-1.98,3.28-3.55.38-1.68-.44-4.15-1.55-4.94-2.97-2.14-4.31.79-4.31.79" style="fill:none; stroke:#55a; stroke-linecap:round; stroke-linejoin:round; stroke-width:2px;"/><path id="uuid-fc3f9d4d-f9d7-43db-99e4-91cd83838f5a" d="m150.68,67.01c-1.15,3.62-1.93,7.38-3.45,10.86-1.87,4.29-4.44,8.25-6.9,12.24-1.67,2.71-3.83,5.13-5.34,7.93-1.55,2.85-2.82,6.03-3.79,8.96" style="fill:none; stroke:#55a; stroke-linecap:round; stroke-linejoin:round; stroke-width:2px;"/><path id="uuid-e67ac819-f771-432f-80f8-2f16337b8eb0" d="m157.05,64.85c-.97,3.39-1.63,6.9-2.9,10.16-1.57,4.02-3.7,7.73-5.81,11.45-1.6,2.83-3.8,5.32-5.2,8.26-1.17,2.45-1.82,4.97-2.64,7.71" style="fill:none; stroke:#55a; stroke-linecap:round; stroke-linejoin:round; stroke-width:2px;"/><path id="uuid-8b9d1a85-c922-42c3-8670-b972cb9302fa" d="m169.47,60.98c-.97,3.88-1.63,7.92-2.9,11.65-1.57,4.61-3.7,8.86-5.81,13.13-1.6,3.25-3.8,6.11-5.2,9.47-1.17,2.81-1.82,5.7-2.64,8.84" style="fill:none; stroke:#55a; stroke-linecap:round; stroke-linejoin:round; stroke-width:2px;"/><path id="uuid-0401f3e7-b75c-47db-b977-ffd98e11241d" d="m176.88,60.46c-.91,3.56-1.53,7.25-2.72,10.67-1.47,4.22-3.53,8.06-5.44,12.03-1.44,2.98-3.22,5.81-4.53,8.85-1.11,2.57-2.05,5.04-2.82,7.92" style="fill:none; stroke:#55a; stroke-linecap:round; stroke-linejoin:round; stroke-width:2px;"/><path id="uuid-01cf108a-ec5f-4168-9007-6130fb5af6f9" d="m189.63,59.08c-.88,4.46-1.34,9.02-2.63,13.38-1.43,4.83-3.8,9.33-5.61,14.04-1.51,3.95-3.15,7.86-4.37,11.91-1,3.33-1.65,6.54-2.39,10.15" style="fill:none; stroke:#55a; stroke-linecap:round; stroke-linejoin:round; stroke-width:2px;"/><path id="uuid-8f7c8058-9cea-4005-863b-a01730f2afcf" d="m196.7,59.34c-.83,3.84-1.39,7.82-2.48,11.51-1.34,4.55-3.16,8.76-4.96,12.97-1.37,3.21-3.24,6.03-4.44,9.36-1,2.78-1.55,5.63-2.26,8.73" style="fill:none; stroke:#55a; stroke-linecap:round; stroke-linejoin:round; stroke-width:2px;"/><path id="uuid-e44014c6-7b92-4be5-9bed-541b0bf18c91" d="m143.77,119.32c-2.33,5.25-4.04,10.78-7.31,15.44-2.64,3.75-5.72,7.48-9.71,9.74-2.69,1.53-5.95,2.76-9,2.25-2.55-.43-4.93-2.19-6.5-4.25-1.65-2.16-2.51-5.04-2.5-7.75.01-2.64.81-5.48,2.5-7.5,1.46-1.74,3.8-2.69,6-3.25,1.86-.47,4-.78,5.75,0,2.05.91,3.54,2.97,4.5,5,.94,1.98,1.68,4.42,1,6.5-.7,2.13-2.68,3.89-4.75,4.75-1.77.73-4.04.87-5.75,0-1.38-.7-2.27-2.28-2.75-3.75-.41-1.27-.6-2.81,0-4,.61-1.21,1.91-2.28,3.25-2.41,1.1-.11,2.4.49,3,1.41.54.85.27,2.39.04,3.02" style="fill:none; stroke:#55a; stroke-linecap:round; stroke-linejoin:round; stroke-width:2px;"/><path id="uuid-38ff0a44-95b5-4eb3-8ab6-f85f7bac4d86" d="m168.42,115.86c-2.03,4.55-2.92,10.63-5.37,15.53-2.26,4.52-4.36,9.63-8.48,12.56-2.61,1.86-6.12,2.98-9.29,2.47-2.22-.36-4.29-1.9-5.66-3.69-1.43-1.87-2.21-4.37-2.18-6.72.03-2.16.82-4.42,2.18-6.09,1.29-1.59,3.25-2.67,5.22-3.23,1.61-.46,3.48-.68,5.01,0,1.78.79,3.09,2.58,3.92,4.34.74,1.56,1.25,3.46.77,5.12-.57,1.97-2.17,3.79-4.03,4.64-1.52.69-3.52.75-5.01,0-1.2-.61-2.05-1.95-2.39-3.25-.32-1.19-.24-2.63.41-3.68.51-.81,1.47-1.4,2.42-1.53,1.08-.14,2.48.09,3.13.97.61.83.56,2.79.01,3.1" style="fill:none; stroke:#55a; stroke-linecap:round; stroke-linejoin:round; stroke-width:2px;"/><path id="uuid-ed3726b6-5746-4e3b-a45e-aa6052d49796" d="m126.5,116.93c-1.39,2.68-3.12,4.68-4.77,6.84" style="fill:none; stroke:#55a; stroke-linecap:round; stroke-linejoin:round; stroke-width:2px;"/><path id="uuid-ca9e9365-ada9-493f-92c2-5df1c66aad75" d="m130.75,120.87c-1.62,2.54-2.89,4.05-4.25,5.81" style="fill:none; stroke:#55a; stroke-linecap:round; stroke-linejoin:round; stroke-width:2px;"/><path id="uuid-6ecef447-4b6f-4a3e-ac9c-39f5895b0606" d="m136.97,122.01c-2.44,4.35-4.99,8.31-7.98,10.47" style="fill:none; stroke:#55a; stroke-linecap:round; stroke-linejoin:round; stroke-width:2px;"/><path id="uuid-805309cf-e842-412f-bc84-eb56cdbe897e" d="m149.41,118.8c-.15,2.37-1.46,4.68-2.18,7.36" style="fill:none; stroke:#55a; stroke-linecap:round; stroke-linejoin:round; stroke-width:2px;"/><path id="uuid-dcbeb694-764e-4379-9a82-5c5fe18923ba" d="m155.06,121.34c-.15,2.37-1.46,4.68-2.18,7.36" style="fill:none; stroke:#55a; stroke-linecap:round; stroke-linejoin:round; stroke-width:2px;"/><path id="uuid-1f91475c-0304-4335-924a-76ec1cce0828" d="m160.76,121.34c-.25,3.41-3.75,10.87-5.7,14" style="fill:none; stroke:#55a; stroke-linecap:round; stroke-linejoin:round; stroke-width:2px;"/><path id="uuid-3f7d44c2-17f2-451d-8e4e-ff909f4eb6cb" d="m172.22,121.08c-.69,3.97-2.15,7.63-3.63,11.3-1.32,3.28-2.9,6.15-4.67,9.54" style="fill:none; stroke:#55a; stroke-linecap:round; stroke-linejoin:round; stroke-width:2px;"/><path id="uuid-ec077b96-d556-4343-8bb8-ba67618a814c" d="m176.99,125.95c-.76,2.94-1.73,5.92-2.8,8.81-.95,2.57-2.04,4.84-3.21,7.57" style="fill:none; stroke:#55a; stroke-linecap:round; stroke-linejoin:round; stroke-width:2px;"/><path id="uuid-a7c8e96e-ad19-4a15-884f-ff5951f32713" d="m310.27,82.36s5.47-6.67,7.07-10.61c1.45-3.55,2.85-7.55,2.12-11.31-.58-3.02-2.47-5.96-4.95-7.78-2.95-2.16-6.99-3.39-10.61-2.83-3.04.47-5.85,2.56-7.78,4.95-1.5,1.86-2.24,4.34-2.47,6.72-.29,2.97.37,6.04,1.41,8.84.78,2.08,2.27,3.83,3.54,5.66,1.49,2.14,4.77,6.2,4.77,6.2l-9.89,13.61,9.74,13.95s-4.71,5.49-6.38,8.67c-1.51,2.87-2.86,5.97-3.18,9.19-.26,2.6-.06,5.42,1.06,7.78,1.11,2.33,3.16,4.21,5.3,5.66,1.89,1.27,4.09,2.39,6.36,2.47,2.83.11,5.87-.77,8.13-2.47,1.91-1.44,3.12-3.75,3.89-6.01.91-2.68.97-5.65.7-8.47-.27-2.81-1.06-5.61-2.3-8.14-1.66-3.36-6.72-9.02-6.72-9.02l9.73-13.26-9.55-13.79Z" style="fill:#ff5; stroke:#55a; stroke-linecap:round; stroke-linejoin:round; stroke-width:2px;"/><path id="uuid-c96fb269-6daa-43ab-acdb-889b8f203991" d="m306.97,77.34s-4.78-5.68-6.25-9.03c-.74-1.68-1.45-3.56-1.22-5.38.22-1.75,1.18-3.45,2.43-4.69,1.29-1.27,3.05-2.4,4.86-2.43,1.79-.03,3.63.96,4.86,2.26,1.38,1.45,2.11,3.56,2.26,5.56.15,1.96-.58,3.94-1.39,5.73-1.33,2.96-3.15,5.36-5.56,7.99Z" style="fill:#f55; stroke:#55a; stroke-linecap:round; stroke-linejoin:round; stroke-width:2px;"/><path id="uuid-54948300-3fbb-4641-9d9c-1808e221f80f" d="m306.9,114.49s-4.76,6.29-6.25,9.9c-.7,1.7-1.45,3.56-1.22,5.38.22,1.75,1.18,3.45,2.43,4.69,1.29,1.27,3.05,2.4,4.86,2.43,1.79.03,3.63-.96,4.86-2.26,1.38-1.45,2.11-3.56,2.26-5.56.15-1.96-.63-3.92-1.39-5.73-1.35-3.21-3.15-6.23-5.56-8.85Z" style="fill:#f55; stroke:#55a; stroke-linecap:round; stroke-linejoin:round; stroke-width:2px;"/><path id="uuid-5b59e38f-ae62-4c6a-a460-d901f378de6a" d="m306.45,104.42l-5.9-8.16,6.08-8.85,6.08,8.33-6.25,8.68Z" style="fill:#55a; stroke:#55a; stroke-linecap:round; stroke-linejoin:round; stroke-width:2px;"/><g id="uuid-d1d9fe54-994c-487f-83d7-881cd4bd19ec"><path id="uuid-1b6e61c2-b719-44a1-a45a-e569d8bde82b" d="m274.38,169.12c2.21-4.83,3.85-10.19,7.45-14.11,3.4-3.7,7.95-6.45,12.68-8.12,3.81-1.35,8.01-1.34,12.06-1.36,1.72,0,4.02-.77,5.12.54,1.22,1.46.57,4.07-.43,5.69-1.62,2.62-5,3.78-7.93,4.74-2.49.82-5.2.66-7.82.74.62,4.24.8,7.79.06,11.57-.47,2.41-2.16,4.88-2.81,6.8" style="fill:none; stroke:#55a; stroke-linecap:round; stroke-linejoin:round; stroke-width:2px;"/><path id="uuid-e5128d8a-726b-4a9e-b961-3fc27470e10f" d="m301.62,146.38c0,1.29-.68,2.78,0,3.88.54.87,1.76,1.11,2.75,1.38,1.29.35,2.67.33,4,.25.89-.06,1.75-.33,2.62-.5" style="fill:none; stroke:#55a; stroke-linecap:round; stroke-linejoin:round; stroke-width:2px;"/><path id="uuid-dc2d4e3f-ed83-4dca-b060-a029e23fb941" d="m312.5,151.88c1.08.29,2.43.11,3.25.88,1.03.96,1.56,2.6,1.38,4-.13,1.04-1,1.88-1.75,2.62-1.24,1.23-2.79,2.15-4.38,2.88-1.77.82-3.69,1.38-5.62,1.62-1.53.2-3.13.23-4.62-.12-.85-.2-1.81-.46-2.38-1.12-.39-.46-.56-1.15-.5-1.75.07-.74.47-1.48,1-2,.76-.74,1.82-1.25,2.88-1.38.97-.11,2.09.04,2.88.62.69.51,1.03,1.42,1.25,2.25.16.61.12,1.26,0,1.88-.08.44-.33.83-.5,1.25" style="fill:none; stroke:#55a; stroke-linecap:round; stroke-linejoin:round; stroke-width:2px;"/><path id="uuid-c8cb2e57-54c3-449e-86c3-90d59ceb1be0" d="m315.88,159.5c.96.79,2.32,1.26,2.88,2.38.39.78.45,1.81.12,2.62-.51,1.29-1.86,2.09-3,2.88-1.37.94-2.91,1.64-4.5,2.12-1.57.48-3.24.6-4.88.75-1.62.14-3.26.34-4.88.12-.73-.1-1.54-.18-2.12-.62-.51-.39-.93-.99-1-1.62-.08-.65.25-1.34.62-1.88.58-.83,1.4-1.61,2.38-1.88.89-.24,1.88.07,2.75.38.78.27,1.67.57,2.12,1.25.35.53.3,1.25.25,1.88-.06.7-.42,1.33-.62,2" style="fill:none; stroke:#55a; stroke-linecap:round; stroke-linejoin:round; stroke-width:2px;"/><path id="uuid-58c5733b-b8ae-429f-888f-11f9f0afc0c7" d="m316,167.62c.62.96,1.62,1.76,1.88,2.88.29,1.27.22,2.79-.5,3.88-.83,1.24-2.46,1.76-3.88,2.25-1.75.6-3.65.62-5.5.75-1.58.11-3.21.35-4.75,0-.95-.21-1.92-.59-2.62-1.25-.56-.52-1.09-1.24-1.12-2-.04-.73.36-1.49.88-2,.68-.67,1.69-.97,2.62-1.12.95-.15,2.02-.19,2.88.25.63.33,1.1.97,1.38,1.62.31.73.41,1.6.25,2.38-.15.75-.75,1.33-1.12,2" style="fill:none; stroke:#55a; stroke-linecap:round; stroke-linejoin:round; stroke-width:2px;"/><path id="uuid-297a9572-350e-4f8d-8f40-00e664214ac8" d="m314.12,176.5c.79.38,2.16.69,2.5,1.62.34.94-.34,2.03-.88,2.88-.75,1.2-1.83,2.31-3.12,2.88-1.07.46-2.33.27-3.5.25-1.63-.03-3.3-.08-4.88-.5-1.19-.32-2.63-.52-3.38-1.5-.33-.44-.39-1.09-.25-1.62.24-.92.94-1.76,1.75-2.25,1.05-.63,2.5-1.1,3.62-.62,1.02.43,1.58,1.68,1.88,2.75.18.64.14,1.39-.12,2-.27.62-.92,1-1.38,1.5" style="fill:none; stroke:#55a; stroke-linecap:round; stroke-linejoin:round; stroke-width:2px;"/><path id="uuid-1f2bccaf-1495-46f1-aee9-0e3d9101cfb7" d="m307.12,184.88c-.36,1.17-2.26,2.33-4.25,3.5" style="fill:none; stroke:#55a; stroke-linecap:round; stroke-linejoin:round; stroke-width:2px;"/></g><path id="uuid-7f707d8d-cffa-4bec-acab-daeca28c7479" d="m134.5,149.5h81.36s-9.91-.71-14.48-2.44c-2.08-.79-5.66-3.54-5.66-3.54l-39.24-1.06s-3.6,2.52-5.66,3.18c-2.03.65-4.28,1.15-6.36.71-1.6-.34-3.03-1.37-4.24-2.47-.75-.68-1.32-1.56-1.77-2.47-.54-1.1-.88-2.32-1.06-3.54-.17-1.17,0-3.54,0-3.54l-2.89,5.17v10Z" style="fill:#55a; stroke:#55a; stroke-linecap:round; stroke-linejoin:round; stroke-width:2px;"/><path id="uuid-e89cecbe-a229-4a08-930e-1b8696a98640" d="m134.5,154.5h87" style="fill:none; stroke:#55a; stroke-linecap:round; stroke-linejoin:round; stroke-width:2px;"/><path id="uuid-960bb705-a565-4ead-a2d9-2bd62b47d1fd" d="m166.88,180.4c1.41-1.41-1.41-4.56,0-5.96s4.56-1.41,5.96,0-1.41,4.56,0,5.96c1.41,1.41,4.56-1.41,5.96,0,1.41,1.41,1.41,4.56,0,5.96-1.41,1.41-4.56-1.41-5.96,0-1.41,1.41,1.41,4.56,0,5.96s-4.56,1.41-5.96,0,1.41-4.56,0-5.96c-1.41-1.41-4.56,1.41-5.96,0-1.41-1.41-1.41-4.56,0-5.96,1.41-1.41,4.56,1.41,5.96,0Z" style="fill:#fff;"/><path id="uuid-e8c9a402-7162-40ef-8434-d887bf606800" d="m238.17,146.68l6.83,4.82-42,65.25s-1.31-2.18-2.25-3c-1.15-1.01-4-2.25-4-2.25l41.42-64.82Z" style="fill:#ff5;"/><path id="uuid-11a7a83d-63fa-42c9-a050-97629d70e319" d="m244.8,151.37l3.95,2.38-43,66.75-2.5-4,41.55-65.13Z" style="fill:#55a;"/><path id="uuid-04c57d93-c532-4032-933b-42900a13cde1" d="m248.42,154.05l4.83,3.45-45,69.5-2.32-7.1,42.49-65.84Z" style="fill:#ff5;"/><path id="uuid-2a4a8620-a7b5-47d3-ba8b-8815c546a758" d="m253.75,157.5l74.75,47.25v8l-77.5-49.5,2.75-5.75Z" style="fill:#f55;"/><path id="uuid-ab9ca90a-eaa4-40a6-92aa-547a1910e178" d="m250.44,162.58l-5.47,8.69,83.54,53.73v-12.2l-78.06-50.22Z"/><path id="uuid-27a73ad3-1552-40cb-920f-79ffbed4a510" d="m245.05,170.77l-2.84,4.79,86.29,55.2v-6l-83.45-53.98Z" style="fill:#f55;"/><path id="uuid-3b398cd2-ea3c-4b31-918e-8be0d8cbb74d" d="m329.5,271.5s-16.21-12.66-22.75-20.5c-5.59-6.69-10.38-14.21-13.75-22.25-3.1-7.38-5.72-23.33-5.72-23.33l-7.75-4.89s3.66,21.71,7.97,31.72c3.99,9.26,9.7,17.84,16.25,25.5,7.44,8.71,25.75,22.75,25.75,22.75v-9Z" style="fill:#ff5; stroke:#55a; stroke-linecap:round; stroke-linejoin:round; stroke-width:2px;"/><path id="uuid-15e2b7ca-e533-4e11-a0bb-c39792a03dec" d="m262.75,190.5s1.64,25.35,5,37.5c2.47,8.92,6.12,17.63,11,25.5,6.73,10.86,15.18,20.79,24.75,29.25,7.76,6.86,26,17,26,17v6.7s-21.11-12.05-30.25-19.95c-8.71-7.52-16.68-16.13-23-25.75-6.1-9.29-10.77-19.62-14-30.25-2.48-8.15-4-25.25-4-25.25l-20.62,32.75-6.5-2.62,30.12-45.88,1.5,1Z" style="fill:#ff5; stroke:#55a; stroke-linecap:round; stroke-linejoin:round; stroke-width:2px;"/><path id="uuid-dd153f9b-08ef-42e7-8c40-202145cd8076" d="m329.5,389.5c-9.97-2.24-19.68-5.06-29-9-1.92-.81-3.7-1.94-5.5-3-5.78-3.4-11.7-6.64-17-10.75-1.54-1.19-2.82-2.68-4.25-4-4.45-4.09-9.12-7.95-13.5-12.12-3.09-2.95-6.11-5.98-9-9.12-3.08-3.35-6.04-6.81-8.88-10.38-4.41-5.55-8.88-11.1-12.62-17.12-4.6-7.41-9.07-15.04-12-23.25-1.49-4.17-1.89-8.66-2.75-13-1.07-5.4-2.1-10.82-3-16.25-.37-2.24-.71-4.49-1-6.75-.79-6.24-1.34-12.5-2-18.75-.34-3.21-.32-6.47-1-9.62-.47-2.15-1.1-4.29-2.09-6.25-.82-1.61-1.9-3.1-3.15-4.41-1.75-1.84-3.76-3.5-5.99-4.73-1.51-.84-3.19-1.38-4.88-1.73-1.49-.31-3.05-.21-4.57-.32,0,0-9.12-8.99-15.06-10.14-4.81-.93-14.38,3.05-14.38,3.05,0,0-8.98-6.98-14.16-6.54-3.72.32-9.23,6.34-9.23,6.34,0,0-7.44-5.22-11.47-4.46-4.36.82-9.8,9.02-9.8,9.02" style="fill:none; stroke:#55a; stroke-linecap:round; stroke-linejoin:round; stroke-width:2px;"/><path id="uuid-bcd71656-768d-4f42-a6ef-74b628f384e5" d="m187.31,208.94l28.19-44.44h-81" style="fill:none; stroke:#55a; stroke-linecap:round; stroke-linejoin:round; stroke-width:2px;"/><path id="uuid-bf354711-577f-46db-8d29-6d496ad697a7" d="m278.12,366.75c1-6.83,2.84-13.43,3.12-20.25.34-8.26.12-16.69-1.75-24.75-1.95-8.41-5.49-16.49-9.75-24-4.37-7.71-9.6-15.12-16-21.25-5.84-5.6-12.79-10.08-20-13.75-7.17-3.64-15.67-5.33-22.75-8,2.17,13.09,4.33,23.22,6.5,33.75,5,3.33,11.53,7.18,16.5,11.75,3.22,2.96,6.09,6.35,8.5,10,2.88,4.35,5.21,9.1,7,14,1.09,2.98,1.97,6.09,2.25,9.25.24,2.66-.5,5.83-.5,8l13.25,13.5,13.62,11.75Z" style="fill:#ff5; stroke:#55a; stroke-linecap:round; stroke-linejoin:round; stroke-width:2px;"/><path id="uuid-990c19aa-e8f5-499e-835e-ab43524ae7f5" d="m273,361.5c.92-5.58,2.59-11.09,2.75-16.75.22-7.79-.59-15.69-2.5-23.25-1.78-7.07-4.7-13.88-8.25-20.25-4.06-7.3-8.8-14.4-14.75-20.25-5.37-5.28-11.81-9.54-18.5-13-5.74-2.97-12.17-4.33-18.25-6.5l2.5,15.75c2.83,1.17,5.8,2.06,8.5,3.5,3.71,1.98,7.2,4.4,10.5,7,2.99,2.35,5.82,4.93,8.38,7.75,2.74,3.02,5.21,6.3,7.38,9.75,2.24,3.57,4.22,7.33,5.75,11.25,1.47,3.79,2.62,7.74,3.25,11.75.62,3.96.51,8,.5,12-.01,3.42-.5,7.17-.5,10.25l13.25,11Z" style="fill:#55a; stroke:#55a; stroke-linecap:round; stroke-linejoin:round; stroke-width:2px;"/><path id="uuid-ce047ab3-f0dc-40b1-ac11-98fc6d3c0b9a" d="m216.75,283.75c4.17,1.38,8.36,3.78,12.12,6.38,4.25,2.93,8.15,6.42,11.62,10.25,2.87,3.16,5.31,6.71,7.5,10.38,2.11,3.54,4.06,7.22,5.38,11.12,1.27,3.75,2,7.69,2.38,11.62.37,3.9-.12,8.08-.12,11.75" style="fill:none; stroke:#55a; stroke-linecap:round; stroke-linejoin:round; stroke-width:2px;"/><g id="uuid-8d516ac0-a474-49e9-a1e6-9e0945d16a42"><path id="uuid-d785b0dc-7f5a-4ac3-bf6d-6d300a788d69" d="m222.47,257.22s-6.19-2.88-7.88-5.62c-1.45-2.37-1.25-8.25-1.25-8.25,0,0,4.94,2.94,6.5,5.25,1.68,2.49,2.62,8.62,2.62,8.62Z" style="fill:#f55;"/><path id="uuid-7ef05f81-e732-4374-950a-2dfabcc577ea" d="m222.72,257.22s4.66-5.23,7.88-5.88c2.36-.47,7,1.75,7,1.75,0,0-3.5,3.87-5.88,4.62-2.87.9-9-.5-9-.5Z" style="fill:#f55;"/><path id="uuid-224572ed-3b47-42b7-954c-87772212516f" d="m224.84,251.35c-1.81-.29-3.72-2.43-3.5-4.25.25-2.07,2.95-4.11,5-3.75,1.96.35,3.68,3.06,3.25,5-.4,1.83-2.9,3.3-4.75,3Z" style="fill:#f55;"/></g><path id="uuid-733e1370-80a9-4458-b26f-1a3e30576b72" d="m296.47,210.76s-3.55,4.21-3.95,6.8c-.24,1.52-.12,3.45,1,4.5,1.17,1.1,3.16.96,4.75.75,3.61-.47,10-4.4,10-4.4l-3.75-2.2s-3.14,2.89-5,2.6c-1.05-.16-2.01-1.22-2.25-2.25-.3-1.28,1.25-3.75,1.25-3.75l-2.05-2.05Z" style="fill:#ff5;"/><path id="uuid-d9aa6b24-fe11-45ef-b810-fd92f73fcadb" d="m309.86,219.69s-6.31,2.53-8.55,4.95c-1.44,1.56-2.65,3.63-2.75,5.75-.08,1.69.53,3.58,1.75,4.75,1.48,1.41,3.8,1.87,5.85,1.85,2.17-.02,4.24-1.07,6.15-2.1,2.51-1.35,4.51-3.48,6.75-5.25,1.02-.81,3.05-2.45,3.05-2.45l-3.45-2.2s-4.99,4.69-8.1,5.9c-1.41.55-3.09,1.04-4.5.5-1.05-.4-2.32-1.38-2.25-2.5.1-1.65,2.44-2.25,3.75-3.25,1.93-1.47,6.05-4.05,6.05-4.05l-3.75-1.9Z" style="fill:#ff5;"/><path id="uuid-5695c6a0-8264-4900-be7f-c90429863f84" d="m323.8,228.6s-7.64,5.29-10.8,8.65c-1.68,1.78-4.04,3.56-4.25,6-.18,2.12.95,4.62,2.75,5.75,1.13.71,2.74.44,4,0,2.41-.84,4.02-3.14,6-4.75,2.7-2.21,8-6.75,8-6.75v-3.9s-4.23,3.45-6.4,5.1c-2.16,1.65-3.98,4.07-6.6,4.8-.97.27-2.62.68-3-.25-.83-2.02,2.68-3.48,4.25-5,1.52-1.47,3.28-2.66,4.95-3.95,1.56-1.21,4.75-3.55,4.75-3.55l-3.65-2.15Z" style="fill:#ff5;"/><path id="uuid-9f1f46ef-e103-474f-a5b2-dcdb428fb1a6" d="m329.5,240.95s-9.49,5.66-12,10.3c-.92,1.7-1.43,3.94-.75,5.75.66,1.77,2.38,3.45,4.25,3.75,1.88.3,3.86-.94,5.25-2.25,1.76-1.66,3.25-6.5,3.25-6.5,0,0-3.8,4.85-6.25,4.25-1.38-.34-2.18-2.34-2-3.75.17-1.35,1.74-2.1,2.75-3,1.69-1.5,5.5-3.95,5.5-3.95v-4.6Z" style="fill:#ff5;"/><path id="uuid-41f5d241-75d9-4ba2-9968-f650665f315a" d="m278.75,205s-6.76-3.16-9.75-1.75c-1.38.65-2.87,2.6-2.25,4,.45,1.02,2.14.81,3.25.75,3.08-.16,8.75-3,8.75-3Z" style="fill:#fff;"/><g id="uuid-59b6735c-ba4b-4984-99fa-8b290e91da72"><path id="uuid-da3d3a20-36b5-4cfa-8641-e71f32de8ea6" d="m229.35,268.08c-1.72-.65-3.84-.56-5.5.24-1.65.79-3.05,2.38-3.61,4.12-.52,1.62-.29,3.58.52,5.07.82,1.51,2.37,2.72,4,3.23,1.56.49,3.41.35,4.88-.35,1.53-.74,2.88-2.15,3.46-3.75.59-1.64.45-3.64-.28-5.23-.67-1.46-1.97-2.77-3.48-3.34Z" style="fill:#ff5; stroke:#55a; stroke-linecap:round; stroke-linejoin:round; stroke-width:2px;"/><path id="uuid-3cc8bf26-1d27-4f11-a472-4eadf3992202" d="m227.3,271.78c-1.2-.3-2.88.67-3.21,1.87-.34,1.2.56,2.97,1.77,3.3,1.28.35,3.09-.78,3.39-2.07.28-1.19-.76-2.8-1.95-3.09Z" style="fill:none; stroke:#55a; stroke-linecap:round; stroke-linejoin:round; stroke-width:2px;"/></g><path id="uuid-3f20d4ea-1944-4ad6-b662-a97dfd361d81" d="m227.62,295.87c-1.53-.37-3.68,1.02-4,2.66-.27,1.37.97,3.14,2.25,3.46,1.49.37,3.63-.81,4-2.39.33-1.43-.9-3.4-2.25-3.72Z" style="fill:#ff5; stroke:#55a; stroke-linecap:round; stroke-linejoin:round; stroke-width:2px;"/><path id="uuid-8f8e5e01-83dc-4369-a749-e36813791efd" d="m232.66,302.14c-1.84-.48-4.41,1.35-4.79,3.51-.32,1.81,1.16,4.15,2.69,4.57,1.78.48,4.35-1.08,4.79-3.16.4-1.89-1.07-4.49-2.69-4.92Z" style="fill:#ff5; stroke:#55a; stroke-linecap:round; stroke-linejoin:round; stroke-width:2px;"/><path id="uuid-69abba5d-e6df-4615-8106-2c4154a2df39" d="m238.24,309.27c-2.2-.51-5.28,1.43-5.73,3.72-.38,1.92,1.38,4.4,3.23,4.84,2.14.51,5.21-1.14,5.73-3.35.48-2.01-1.29-4.76-3.23-5.21h0Z" style="fill:#ff5; stroke:#55a; stroke-linecap:round; stroke-linejoin:round; stroke-width:2px;"/><path id="uuid-4a1ec6d8-c5bc-448f-b6a1-afe1f09a8b41" d="m242.98,317.39c-1.96-.44-4.7,1.23-5.1,3.19-.34,1.65,1.23,3.77,2.87,4.15,1.9.44,4.63-.98,5.1-2.87.43-1.72-1.14-4.08-2.87-4.47Z" style="fill:#ff5; stroke:#55a; stroke-linecap:round; stroke-linejoin:round; stroke-width:2px;"/><path id="uuid-cae25878-e8a4-4dca-a108-8e38bcb8fe02" d="m246.87,325.5c-1.53-.34-3.68.96-4,2.5-.27,1.29.97,2.95,2.25,3.25,1.49.34,3.63-.77,4-2.25.33-1.35-.9-3.2-2.25-3.5Z" style="fill:#ff5; stroke:#55a; stroke-linecap:round; stroke-linejoin:round; stroke-width:2px;"/><path id="uuid-dc376bb1-a100-4cf0-83da-839d42397afb" d="m139.5,158.5v2h10v-2h-10Z" style="fill:none; stroke:#55a; stroke-linecap:round; stroke-linejoin:round; stroke-width:2px;"/><g id="uuid-aa817be6-6a0d-46fc-b450-5367cda9cfee"><path id="uuid-2fb25dc3-bffe-4240-a8e3-333407fe4c4f" d="m241.63,275.49c-1.72-.65-3.84-.56-5.5.24-1.65.79-3.05,2.38-3.61,4.12-.52,1.62-.29,3.58.52,5.07.82,1.51,2.37,2.72,4,3.23,1.56.49,3.41.35,4.88-.35,1.53-.74,2.88-2.15,3.46-3.75.59-1.64.45-3.64-.28-5.23-.67-1.46-1.97-2.77-3.48-3.34Z" style="fill:#ff5; stroke:#55a; stroke-linecap:round; stroke-linejoin:round; stroke-width:2px;"/><path id="uuid-73aaa272-43ef-4387-b12f-ef3ec04f8177" d="m239.58,279.18c-1.2-.3-2.88.67-3.21,1.87-.34,1.2.56,2.97,1.77,3.3,1.28.35,3.09-.78,3.39-2.07.28-1.19-.76-2.8-1.95-3.09Z" style="fill:none; stroke:#55a; stroke-linecap:round; stroke-linejoin:round; stroke-width:2px;"/></g><g id="uuid-a804d3bd-c87c-4476-a514-a3c349eeef47"><path id="uuid-0c3c499d-e329-4c24-b270-329602da3514" d="m251.63,284.49c-1.72-.65-3.84-.56-5.5.24-1.65.79-3.05,2.38-3.61,4.12-.52,1.62-.29,3.58.52,5.07.82,1.51,2.37,2.72,4,3.23,1.56.49,3.41.35,4.88-.35,1.53-.74,2.88-2.15,3.46-3.75.59-1.64.45-3.64-.28-5.23-.67-1.46-1.97-2.77-3.48-3.34Z" style="fill:#ff5; stroke:#55a; stroke-linecap:round; stroke-linejoin:round; stroke-width:2px;"/><path id="uuid-30166f90-b3e9-48cb-ae4e-bc6efdae10ef" d="m249.58,288.18c-1.2-.3-2.88.67-3.21,1.87-.34,1.2.56,2.97,1.77,3.3,1.28.35,3.09-.78,3.39-2.07.28-1.19-.76-2.8-1.95-3.09Z" style="fill:none; stroke:#55a; stroke-linecap:round; stroke-linejoin:round; stroke-width:2px;"/></g><g id="uuid-be2f304f-2b0d-414e-89d9-9d61d3af2112"><path id="uuid-88849fd8-b64f-4756-b162-8ed15b9c16b0" d="m259.38,295.49c-1.72-.65-3.84-.56-5.5.24-1.65.79-3.05,2.38-3.61,4.12-.52,1.62-.29,3.58.52,5.07.82,1.51,2.37,2.72,4,3.23,1.56.49,3.41.35,4.88-.35,1.53-.74,2.88-2.15,3.46-3.75.59-1.64.45-3.64-.28-5.23-.67-1.46-1.97-2.77-3.48-3.34Z" style="fill:#ff5; stroke:#55a; stroke-linecap:round; stroke-linejoin:round; stroke-width:2px;"/><path id="uuid-be28cec4-073a-4f2f-83a2-4e5e6eb0d47f" d="m257.33,299.18c-1.2-.3-2.88.67-3.21,1.87-.34,1.2.56,2.97,1.77,3.3,1.28.35,3.09-.78,3.39-2.07.28-1.19-.76-2.8-1.95-3.09Z" style="fill:none; stroke:#55a; stroke-linecap:round; stroke-linejoin:round; stroke-width:2px;"/></g><g id="uuid-2ea51171-d221-4148-9524-36691fe60722"><path id="uuid-bebbbf53-4f62-44d8-8312-fe0b9bdbad06" d="m265.38,308.11c-1.72-.65-3.84-.56-5.5.24-1.65.79-3.05,2.38-3.61,4.12-.52,1.62-.29,3.58.52,5.07.82,1.51,2.37,2.72,4,3.23,1.56.49,3.41.35,4.88-.35,1.53-.74,2.88-2.15,3.46-3.75.59-1.64.45-3.64-.28-5.23-.67-1.46-1.97-2.77-3.48-3.34Z" style="fill:#ff5; stroke:#55a; stroke-linecap:round; stroke-linejoin:round; stroke-width:2px;"/><path id="uuid-4827ffc0-e11a-4997-8cb3-8557627f980e" d="m263.33,311.8c-1.2-.3-2.88.67-3.21,1.87-.34,1.2.56,2.97,1.77,3.3,1.28.35,3.09-.78,3.39-2.07.28-1.19-.76-2.8-1.95-3.09Z" style="fill:none; stroke:#55a; stroke-linecap:round; stroke-linejoin:round; stroke-width:2px;"/></g><g id="uuid-efca332c-a372-4593-89d0-46635937b14e"><path id="uuid-efb56f5c-6028-4797-b8ab-8d92a1dd373f" d="m269.75,321.24c-1.72-.65-3.84-.56-5.5.24-1.65.79-3.05,2.38-3.61,4.12-.52,1.62-.29,3.58.52,5.07.82,1.51,2.37,2.72,4,3.23,1.56.49,3.41.35,4.88-.35,1.53-.74,2.88-2.15,3.46-3.75.59-1.64.45-3.64-.28-5.23-.67-1.46-1.97-2.77-3.48-3.34Z" style="fill:#ff5; stroke:#55a; stroke-linecap:round; stroke-linejoin:round; stroke-width:2px;"/><path id="uuid-9b2e6161-43bf-4e44-90ad-19d62cd59c1f" d="m267.71,324.93c-1.2-.3-2.88.67-3.21,1.87-.34,1.2.56,2.97,1.77,3.3,1.28.35,3.09-.78,3.39-2.07.28-1.19-.76-2.8-1.95-3.09Z" style="fill:none; stroke:#55a; stroke-linecap:round; stroke-linejoin:round; stroke-width:2px;"/></g><g id="uuid-209aa31f-3b01-45a0-a95f-cc2464154cb9"><path id="uuid-8d8cd953-51fa-4584-8a3a-cbb5caad59fc" d="m270.63,347.89c-1.72.65-3.84.56-5.5-.24-1.65-.79-3.05-2.38-3.61-4.12-.52-1.62-.29-3.58.52-5.07.82-1.51,2.37-2.72,4-3.23,1.56-.49,3.41-.35,4.88.35,1.53.74,2.88,2.15,3.46,3.75.59,1.64.45,3.64-.28,5.23-.67,1.46-1.97,2.77-3.48,3.34Z" style="fill:#ff5; stroke:#55a; stroke-linecap:round; stroke-linejoin:round; stroke-width:2px;"/><path id="uuid-926eb90e-d2f8-4588-89fe-8fb215af35d7" d="m268.58,344.2c-1.2.3-2.88-.67-3.21-1.87-.34-1.2.56-2.97,1.77-3.3,1.28-.35,3.09.78,3.39,2.07.28,1.19-.76,2.8-1.95,3.09Z" style="fill:none; stroke:#55a; stroke-linecap:round; stroke-linejoin:round; stroke-width:2px;"/></g><g id="uuid-f1b69c73-14f4-4a08-8039-0061e1f752bf"><path id="uuid-2f5dcc68-0e7f-4023-b0e7-4a44a55b11dc" d="m271.38,359.8c1.72-1.64,2.15-4.75,1.35-6.98-.62-1.71-2.43-3.13-4.23-3.46-2.2-.41-5.59.07-6.37,2.11" style="fill:#ff5; stroke:#55a; stroke-linecap:round; stroke-linejoin:round; stroke-width:2px;"/><path id="uuid-1585e974-0201-4033-bab6-7c012b17c0a3" d="m268.36,357.87c1.05-.62,1.13-3.12.15-4.04-.84-.79-2.85-.99-3.44.34" style="fill:none; stroke:#55a; stroke-linecap:round; stroke-linejoin:round; stroke-width:2px;"/></g><g id="uuid-540c82ce-6f7c-46a5-8713-441a16877608"><path id="uuid-3d97a71b-e8e8-4a3b-820d-f788b087353a" d="m215.51,276.06c2.25-.17,4.44-2.28,5.2-4.51.58-1.71.17-3.96-.99-5.36-1.44-1.74-4.5-3.52-6.3-2.44" style="fill:#ff5; stroke:#55a; stroke-linecap:round; stroke-linejoin:round; stroke-width:2.05px;"/><path id="uuid-2638be43-eceb-4d55-9219-18f01ba6bcce" d="m214.48,272.64c1.14.2,2.71-1.68,2.55-3.02-.13-1.14-1.48-2.58-2.72-1.94" style="fill:none; stroke:#55a; stroke-linecap:round; stroke-linejoin:round; stroke-width:2.05px;"/></g><g id="uuid-8f3eb70c-0d5a-4041-9838-384aaab22f00"><path id="uuid-661907ed-96ff-4954-94e6-4a36c11ffd00" d="m245.24,268.4s-4.9-4.21-5.76-7.19c-.74-2.57.86-7.98.86-7.98,0,0,3.76,3.96,4.6,6.5.92,2.73.29,8.67.29,8.67Z" style="fill:#f55;"/><path id="uuid-1fb06e2a-694d-41e5-b874-8fb124f99606" d="m245.46,268.46s5.48-3.7,8.54-3.5c2.25.15,5.9,3.37,5.9,3.37,0,0-4.1,2.73-6.43,2.84-2.81.13-8.01-2.7-8.01-2.7Z" style="fill:#f55;"/><path id="uuid-dedb4fd3-c541-4628-afa2-d69ecce22403" d="m248.8,263.53c-1.57-.72-2.77-3.18-2.14-4.82.72-1.86,3.66-3.09,5.42-2.24,1.68.81,2.58,3.76,1.73,5.46-.8,1.6-3.42,2.34-5.02,1.61Z" style="fill:#f55;"/></g><g id="uuid-4a9b9944-362f-4c34-bbc3-4b2d4de854c0"><path id="uuid-32b8e74c-4c83-4eda-a825-96775012ebc5" d="m263.11,285.94s-3.8-5.3-3.83-8.31c-.02-2.6,3.2-7.21,3.2-7.21,0,0,2.71,4.75,2.84,7.35.15,2.81-2.22,8.17-2.22,8.17Z" style="fill:#f55;"/><path id="uuid-b0ea82cf-7ef1-4ab1-bcce-6b28de33b30b" d="m263.33,286.06s6.7-1.93,9.78-.89c2.26.76,5.08,4.79,5.08,4.79,0,0-5,1.41-7.42.86-2.92-.66-7.44-4.76-7.44-4.76Z" style="fill:#f55;"/><path id="uuid-0b1fb5d4-e71e-4430-ad82-85928f79e8b2" d="m268.18,282.39c-1.4-1.11-1.92-3.74-.79-5.09,1.28-1.53,4.65-1.86,6.22-.58,1.49,1.23,1.56,4.23.19,5.57-1.29,1.27-4.19,1.23-5.62.1Z" style="fill:#f55;"/></g><g id="uuid-92212ab8-f024-4e03-8fa7-6be88a0ab495"><path id="uuid-42ac84a5-3743-42b4-8e17-c6b62ea2ffa3" d="m276.46,308.41s-2.34-5.9-1.58-8.79c.65-2.49,4.95-6.18,4.95-6.18,0,0,1.41,5.13.88,7.65-.58,2.72-4.25,7.32-4.25,7.32Z" style="fill:#f55;"/><path id="uuid-eaec8dbe-d677-4df9-807b-6dbe0c9e74fb" d="m276.64,308.58s7-.36,9.72,1.31c2,1.23,3.71,5.7,3.71,5.7,0,0-5.21.24-7.42-.82-2.66-1.28-6.01-6.19-6.01-6.19Z" style="fill:#f55;"/><path id="uuid-eaa6d4cf-9cbf-49ac-9e7b-b5e00468aee8" d="m282.29,306.14c-1.07-1.37-.91-4,.53-5.04,1.64-1.18,4.99-.76,6.19.82,1.14,1.5.43,4.38-1.24,5.37-1.58.93-4.38.26-5.48-1.14Z" style="fill:#f55;"/></g><g id="uuid-1c5256a7-3e72-41d9-88fe-1bf2b264858a"><path id="uuid-60e3c09d-ef83-424e-b28a-ec6b9a2f0821" d="m282.51,332.17s.06-6.57,1.86-9.15c1.56-2.22,6.99-4.38,6.99-4.38,0,0-.63,5.51-2.09,7.79-1.57,2.47-6.77,5.74-6.77,5.74Z" style="fill:#f55;"/><path id="uuid-48a3cc7f-cc7e-4a47-baa9-f953d16f90eb" d="m282.61,332.39s6.69,2,8.61,4.56c1.41,1.88,1.3,6.84,1.3,6.84,0,0-4.98-1.52-6.64-3.31-2.01-2.15-3.27-8.09-3.27-8.09Z" style="fill:#f55;"/><path id="uuid-6f51c22b-0f68-4d2a-bc5f-03b434f0c04b" d="m288.84,331.92c-.48-1.7.67-4.23,2.42-4.76,1.99-.61,4.97.95,5.48,2.89.49,1.85-1.26,4.44-3.21,4.84-1.83.38-4.2-1.23-4.7-2.97Z" style="fill:#f55;"/></g><g id="uuid-2ed5a0a7-15c2-45d6-a871-b3b148cc531f"><path id="uuid-c0403207-24fc-4e38-9704-1be31d9ec80a" d="m281.29,357.58s1.99-6.28,4.48-8.26c2.15-1.7,8-2.29,8-2.29,0,0-2.23,5.1-4.3,6.9-2.23,1.93-8.18,3.66-8.18,3.66Z" style="fill:#f55;"/><path id="uuid-87801c51-6b7c-405b-9879-ffd847c480f4" d="m281.33,357.81s5.83,3.74,6.91,6.72c.8,2.18-.76,6.9-.76,6.9,0,0-4.32-2.81-5.4-4.98-1.29-2.61-.76-8.64-.76-8.64Z" style="fill:#f55;"/><path id="uuid-3b36ffd5-160c-4c87-90b3-ceddd5f4fbb1" d="m287.44,359.05c.04-1.77,1.89-3.87,3.72-3.9,2.08-.04,4.48,2.26,4.41,4.26-.07,1.91-2.52,3.91-4.5,3.77-1.87-.14-3.67-2.32-3.63-4.12Z" style="fill:#f55;"/></g><path id="uuid-19f9be60-ea65-4399-85db-6c0ee90b011c" d="m280.44,217.05s-7.24-1.83-9.91.11c-1.24.9-2.33,3.09-1.46,4.35.63.91,2.25.39,3.33.13,2.99-.73,8.03-4.59,8.03-4.59h0Z" style="fill:#fff;"/><path id="uuid-8c3f62a9-f597-4d80-8b91-92d622065fb1" d="m283.19,228.05s-7.43-.69-9.77,1.64c-1.08,1.08-1.82,3.41-.77,4.52.77.81,2.29.04,3.31-.39,2.85-1.19,7.23-5.77,7.23-5.77Z" style="fill:#fff;"/><path id="uuid-7dd36a75-4b7b-4ed1-8d82-9de9d83e77b8" d="m287.26,238.51s-7.42.8-9.25,3.55c-.85,1.27-1.11,3.71.15,4.59.91.64,2.25-.42,3.17-1.04,2.55-1.73,5.93-7.1,5.93-7.1Z" style="fill:#fff;"/><path id="uuid-3b054425-3f3d-4d0b-9aaa-981671537e39" d="m293.51,249.84s-7.42.8-9.25,3.55c-.85,1.27-1.11,3.71.15,4.59.91.64,2.25-.42,3.17-1.04,2.55-1.73,5.93-7.1,5.93-7.1Z" style="fill:#fff;"/><path id="uuid-9e91d375-21b1-4d11-8a51-96bb8f33ddb5" d="m300.96,259.21s-7.22,1.91-8.61,4.9c-.64,1.39-.54,3.83.84,4.51,1,.49,2.16-.75,2.98-1.51,2.26-2.1,4.8-7.91,4.8-7.91h0Z" style="fill:#fff;"/><path id="uuid-86650cd9-7ff7-4d6b-802c-c6ae2964423a" d="m310.17,268.69s-7.22,1.91-8.61,4.9c-.64,1.39-.54,3.83.84,4.51,1,.49,2.16-.75,2.98-1.51,2.26-2.1,4.8-7.91,4.8-7.91h0Z" style="fill:#fff;"/><path id="uuid-34c3c49e-beb4-4aec-b0ca-4623472c2849" d="m319.18,276.72s-6.97,2.67-8.03,5.8c-.49,1.45-.12,3.87,1.31,4.4,1.04.38,2.07-.98,2.8-1.82,2.02-2.33,3.92-8.38,3.92-8.38Z" style="fill:#fff;"/><path id="uuid-971d290e-2d72-4527-b880-a16e4bf712f9" d="m328.36,282.85s-6.56,3.56-7.21,6.8c-.3,1.5.38,3.85,1.88,4.19,1.08.24,1.92-1.24,2.54-2.17,1.7-2.57,2.79-8.82,2.79-8.82Z" style="fill:#fff;"/><g id="uuid-21c9eb73-510e-4c29-a7c8-e8dff0e64b9e"><path id="uuid-b798ddc1-0514-4ac3-bfc1-9152eda98db6" d="m223.97,221.64s2.92,5.74,5.7,6.47c1.48.39,3.87-.06,4.33-1.52.33-1.06-1.03-2.07-1.95-2.71-2.29-1.6-8.09-2.24-8.09-2.24Z" style="fill:#fff;"/><path id="uuid-5396d260-c2a2-413b-80b9-e929866fab28" d="m221.52,221.7c-.78,4.85-1.17,6.08.98,8.58,1,1.16,3.27,2.07,4.46,1.1.86-.7.25-2.3-.15-3.33-.99-2.57-5.29-6.35-5.29-6.35h0Z" style="fill:#fff;"/><path id="uuid-982ff019-e2c8-46c8-a565-8340fa13513a" d="m222.89,219.46s6.22,2.46,8.85,1.07c1.12-.59,2.19-2.18,1.76-3.38-.37-1.04-1.95-1.32-3.06-1.3-2.79.06-7.55,3.61-7.55,3.61h0Z" style="fill:#fff;"/></g><g id="uuid-b73f9fe7-2e20-4f60-a045-43e25d2534d8"><path id="uuid-700b74b8-0afa-4a12-b530-91857e63bf41" d="m235.36,205.94s2.21,5.83,4.83,6.65c1.46.46,3.87-.06,4.33-1.52.33-1.06-1.05-2.05-1.95-2.71-2.04-1.51-7.21-2.42-7.21-2.42Z" style="fill:#fff;"/><path id="uuid-bca4ddd8-382d-4658-9a0f-d77c855c1d02" d="m232.2,205.71s-1.17,6.75.81,9.05c1,1.16,3.27,2.07,4.46,1.1.86-.7.23-2.29-.15-3.33-.96-2.67-5.12-6.81-5.12-6.81h0Z" style="fill:#fff;"/><path id="uuid-0005e78b-21c4-47ca-8ad7-d02ecc491881" d="m234.16,203.53s5.65,2.72,8.09,1.48c1.36-.69,2.7-2.78,1.99-4.13-.51-.99-2.19-.7-3.29-.54-2.48.35-6.79,3.2-6.79,3.2h0Z" style="fill:#fff;"/></g><g id="uuid-68dfcd42-c866-4b02-8e66-da27a01a3c12"><path id="uuid-d2f7dd27-9983-4a9a-979e-ddae6d5ba91c" d="m244.99,188.91s2.32,6.18,5.09,7.05c1.46.46,3.87-.06,4.33-1.52.33-1.06-1.06-2.03-1.95-2.71-2.11-1.62-7.47-2.83-7.47-2.83h0Z" style="fill:#fff;"/><path id="uuid-cf0f7268-6205-4152-aba4-49e4878645b0" d="m242.13,189.18s-1.17,6.68.78,8.96c.99,1.16,3.27,2.07,4.46,1.1.86-.7.23-2.29-.15-3.33-.95-2.64-5.09-6.73-5.09-6.73h0Z" style="fill:#fff;"/><path id="uuid-85e9cccd-062a-42b0-8b01-51c2e89302fe" d="m243.65,186.59s5.9,3.08,8.5,1.8c1.37-.67,2.7-2.78,1.99-4.13-.51-.99-2.19-.66-3.29-.54-2.57.28-7.2,2.88-7.2,2.88Z" style="fill:#fff;"/></g><path id="uuid-6130003a-2797-41e6-bb30-e31ff5b73fbf" d="m328.95,231.78l-86.9-55.82" style="stroke:#55a; stroke-linecap:round; stroke-linejoin:round; stroke-width:2px;"/><path id="uuid-0dd405f0-c3c2-4f10-84b4-495845ea5357" d="m234.58,144.49l94.92,60.66" style="stroke:#55a; stroke-linecap:round; stroke-linejoin:round; stroke-width:2px;"/><path id="uuid-8736422b-7aa6-40a1-9bcb-faac5dda9cfd" d="m253.96,156.94l-45.85,70.12" style="stroke:#55a; stroke-linecap:round; stroke-linejoin:round; stroke-width:2px;"/><path id="uuid-462f8cd1-ddb8-4edf-8a7b-ea415e698677" d="m154.5,158.5v2h10v-2h-10Z" style="fill:none; stroke:#55a; stroke-linecap:round; stroke-linejoin:round; stroke-width:2px;"/><path id="uuid-32b9187e-a2a3-4182-a21a-dc19d82805a5" d="m169.5,158.5v2h10v-2h-10Z" style="fill:none; stroke:#55a; stroke-linecap:round; stroke-linejoin:round; stroke-width:2px;"/><path id="uuid-761a1a16-3fe0-427b-b89e-23dcf439166e" d="m184.5,158.5v2h10v-2h-10Z" style="fill:none; stroke:#55a; stroke-linecap:round; stroke-linejoin:round; stroke-width:2px;"/><path id="uuid-4af90cd1-0dde-4a9e-982f-ff6f729517c3" d="m199.5,158.5v2h10v-2h-10Z" style="fill:none; stroke:#55a; stroke-linecap:round; stroke-linejoin:round; stroke-width:2px;"/><path id="uuid-cd05ac51-7653-4a4f-be9b-5aa786f8c90d" d="m214.5,158.5v2h3.3l1.2-2h-4.5Z" style="fill:none; stroke:#55a; stroke-linecap:round; stroke-linejoin:round; stroke-width:2px;"/><path id="uuid-2b27b2c0-1d9e-4f4c-af4e-c1037df843dc" d="m85.5,154.5v22.38l-17.38-11.88,17.38-10.5Z" style="fill:#f55;"/><path id="uuid-e1d36f25-6ea7-4361-b10a-e9d91f36232a" d="m94.25,150.62l.25,34.62-9.62-8.25.38-22.38,9-4Z"/><path id="uuid-a876b831-94d4-4df4-afc6-5bef37ce1cf8" d="m98.62,149l.12,40.12,13.25,14.25,1.38,1.38s1.65-1.84,2.5-2.75c1.23-1.32,3.75-3.91,3.75-3.91l-.12-50.34-4.38-1.62-3.38-2.12-13.12,5Z" style="fill:#55a; stroke:#55a; stroke-linecap:round; stroke-linejoin:round; stroke-width:2px;"/><path id="uuid-4c5a9cf1-60bd-4a47-ac78-81c76a4bb39b" d="m111.73,145.16c-.31,2.87-.22,6.88-.81,9.06-.52,1.9-1.44,3.78-2.53,5.62-1.27,2.14-3.71,4.13-5.41,7.19-1.58,2.86-3.44,6.11-3.75,9.94-.26,3.27.52,4.59,1.97,7.44,1.68,3.3,4.59,4.96,6.09,6.84,1.19,1.49,3.17,2.61,3.91,4.03.58,1.13,1.93,6.29,2.53,8l5.12-4.06c-.48-1.37-1.55-4.85-2.47-6.62-.99-1.93-2.55-3.26-3.72-4.72-2.14-2.68-4.31-3.87-5.28-5.78-1.14-2.23-1.6-3.27-1.41-5.69.21-2.67.92-4.59,2.5-7.44,1.19-2.15,3.58-4.08,5.34-7.06,1.19-2.01,2.31-4.21,2.97-6.62.81-2.99.67-5.85.94-8.31l-6-1.81Z" style="fill:#ff5; stroke:#55a; stroke-width:2px;"/><path id="uuid-d4cad3c4-82ab-43c5-9ddd-031b3622666c" d="m107.38,146.59l-6,1.44c.27,3.19-.34,7.04.97,10.97,1.19,3.58,3.73,6.04,5.22,8.44,1.75,2.82,3.82,4.84,4.38,6.94.47,1.76.13,4.02-.28,6.41-.37,2.11-1.01,4.2-1.94,6.09-.6,1.22-1.77,2.48-2.88,4.16-.92,1.4-1.67,2.18-2.53,3.53l4,4.88c.89-1.39,2.97-4.9,3.84-6.22.84-1.28,2.17-2.64,3.12-4.59,1.11-2.27,1.88-4.7,2.31-7.16.41-2.37.99-5.18.22-8.09-.95-3.58-3.52-5.89-4.88-8.06-1.83-2.95-3.99-5.18-4.78-7.56-.91-2.74-.46-7.34-.78-11.16Z" style="fill:#ff5; stroke:#55a; stroke-linecap:round; stroke-linejoin:round; stroke-width:2px;"/><path id="uuid-3282776f-078f-4de3-8697-9b0092b1f726" d="m111.88,143.62c-5.33,1.71-10.66,3.62-15.88,5.75-4.28,1.75-8.55,3.57-12.62,5.75-5.79,3.1-11.17,6.92-16.75,10.38" style="fill:none; stroke:#55a; stroke-linecap:round; stroke-linejoin:round; stroke-width:2px;"/><path id="uuid-93580b9e-b948-4f54-b721-11bb104dcadf" d="m134.5,169.71v31.72" style="fill:#fff; stroke:#55a; stroke-linecap:round; stroke-linejoin:round; stroke-width:2px;"/><path id="uuid-250a6c34-9667-468b-b95d-1471998d308a" d="m112.72,206.08s-4.6-6.65-7.16-9.78c-1.99-2.43-4.18-4.68-6.37-6.93-1.88-1.94-3.79-3.87-5.8-5.68-2.78-2.51-5.65-4.92-8.64-7.16-5.45-4.09-16.94-11.48-16.94-11.48" style="fill:none; stroke:#55a; stroke-linecap:round; stroke-linejoin:round; stroke-width:2px;"/><path id="uuid-58f9fbd9-c454-4506-a907-96481b403e4c" d="m164.78,262.5l-.09,4.03c-3.84.48-5.93-1.06-9.09-2.97-.63,3.57-1.13,6.12-1.34,10.81,3.12-2.21,5.47-2.91,9.09-2.81l-.25,4.94h31.12l.09-4.03c3.84-.48,5.93,1.06,9.09,2.97.63-3.57,1.13-6.12,1.34-10.81-3.12,2.21-5.47,2.91-9.09,2.81l.25-4.94h-31.12Z" style="fill:#ff5;"/><path id="uuid-4d4b65d3-604c-43d4-a2cb-127a3a8e4eb1" d="m177.51,254.36s-.22-14.75,0-22.98c.06-2.38,1.36-4.84,3.18-6.36,1.6-1.34,3.93-1.92,6.01-1.77,2.39.17,4.85,1.3,6.54,3.01,1.32,1.33,2.26,3.26,2.3,5.13.18,8.08-.35,22.45-.35,22.45l-17.68.53Z" style="fill:#f55;"/><path id="uuid-839086af-21f7-40ba-90fd-16cf176776ad" d="m185.12,238.54s-4.6-.92-4.42-5.44c.09-2.39,2.8-5.06,5.3-5.08,2.63-.02,4.7,2.9,5.66,5.25.73,1.79.31,3.94-.35,5.75-.74,2.02-2.94,3.3-3.89,5.25-.59,1.22-.79,2.58-1.06,3.89-.25,1.23-.53,3.72-.53,3.72,0,0-1.36-3.9-1.59-5.92-.18-1.57-.06-3.18.18-4.74.14-.92.71-2.69.71-2.69h0Z"/><path id="uuid-97c830e3-d542-4c9f-9e7e-1fdea0b456b2" d="m156.9,254.28s-.22-23.41,0-31.64c.06-2.38,1.81-4.72,3.71-6.19,1.65-1.28,3.93-1.92,6.01-1.77,2.39.17,4.79,1.36,6.54,3.01,1.27,1.19,2.43,2.73,2.47,4.6.18,8.08.18,31.82.18,31.82l-18.92.18Z" style="fill:#f55;"/><path id="uuid-aac6158e-1eeb-4767-b659-2ae95c1c3acc" d="m166.19,232.51s-5.3-.43-5.13-5.38c.09-2.62,2.8-5.55,5.3-5.57,2.63-.02,4.7,3.18,5.66,5.75.73,1.96.31,4.32-.35,6.31-.74,2.22-2.94,3.62-3.89,5.75-.59,1.33-.81,2.82-1.06,4.27-.3,1.7-.53,5.14-.53,5.14,0,0-1.37-4.99-1.59-7.55-.15-1.73-.18-3.5.18-5.2.26-1.25,1.41-3.53,1.41-3.53h0Z"/><path id="uuid-f68eaddc-91e5-4c71-973c-a7946d5cd90c" d="m137.17,240.93s-1.46-13.86-1.24-22.1c.06-2.38,1.81-4.72,3.71-6.19,1.65-1.28,3.93-1.92,6.01-1.77,2.39.17,4.79,1.36,6.54,3.01,1.27,1.19,2.43,2.73,2.47,4.6.18,8.08.18,35.71.18,35.71l-13.08.18c-1.19-4.3-2.48-9.13-4.6-13.44h0Z" style="fill:#f55;"/><path id="uuid-e7d3700f-c4d3-4484-82be-b9a75171b15b" d="m145.15,227.48s-5.3-.43-5.13-5.38c.09-2.62,2.8-5.55,5.3-5.57,2.63-.02,4.7,3.18,5.66,5.75.73,1.96.31,4.32-.35,6.31-.74,2.22-2.94,3.62-3.89,5.75-.59,1.33-.86,2.82-1.06,4.27-.29,2.17-.18,6.56-.18,6.56,0,0-1.67-5.92-1.94-8.97-.16-1.73-.18-3.5.18-5.2.26-1.25,1.41-3.53,1.41-3.53h0Z"/><path id="uuid-ba354ef2-7752-46ab-bc67-1d9336ed8484" d="m134.56,235.27s-2.44-3.84-3.54-5.83c-.76-1.38-2.12-4.24-2.12-4.24,0,0,.27-4.03,0-6.01-.24-1.76-.38-3.69-1.41-5.13-.75-1.03-1.94-1.85-3.18-2.12-1.11-.24-2.44-.14-3.36.53-.32.23-.53,1.06-.53,1.06l-1.77-2.3s1.39-2.11,2.47-2.65c1.48-.74,3.35-.96,4.95-.53,2.32.62,4.36,2.35,5.83,4.24,1.17,1.5,2.07,3.4,2.12,5.3.17,6.5.53,17.68.53,17.68h0Z" style="fill:#f55;"/></g><g id="uuid-2af9f810-2205-485a-81b9-57dd2384f606"><path id="uuid-3540ecc2-e004-407c-a626-06fc7d890cc2" d="m179.49,284.64s.22,14.75,0,22.98c-.06,2.38-1.36,4.84-3.18,6.36-1.6,1.34-3.93,1.92-6.01,1.77-2.39-.17-4.85-1.3-6.54-3.01-1.32-1.33-2.26-3.26-2.3-5.13-.18-8.08.35-22.45.35-22.45l17.68-.53Z" style="fill:#f55;"/><path id="uuid-49c884bd-f946-4f62-9834-842bb12c06f4" d="m200.1,284.72s.22,23.41,0,31.64c-.06,2.38-1.81,4.72-3.71,6.19-1.65,1.28-3.93,1.92-6.01,1.77-2.39-.17-4.79-1.36-6.54-3.01-1.27-1.19-2.43-2.73-2.47-4.6-.18-8.08-.18-31.82-.18-31.82l18.92-.18Z" style="fill:#f55;"/><path id="uuid-ef24efcc-d79a-402a-b1a7-7078734998eb" d="m219.83,298.07s1.46,13.86,1.24,22.1c-.06,2.38-1.81,4.72-3.71,6.19-1.65,1.28-3.93,1.92-6.01,1.77-2.39-.17-4.79-1.36-6.54-3.01-1.27-1.19-2.43-2.73-2.47-4.6-.18-8.08-.18-35.71-.18-35.71l13.08-.18c1.19,4.3,2.48,9.13,4.6,13.44h0Z" style="fill:#f55;"/><path id="uuid-5d99cf86-22d1-495c-abec-0d0697df898d" d="m222.44,303.73s2.44,3.84,3.54,5.83c.76,1.38,2.12,4.24,2.12,4.24,0,0-.27,4.03,0,6.01.24,1.76.38,3.69,1.41,5.13.75,1.03,1.94,1.85,3.18,2.12,1.11.24,2.44.14,3.36-.53.32-.23.53-1.06.53-1.06l1.77,2.3s-1.39,2.11-2.47,2.65c-1.48.74-3.35.96-4.95.53-2.32-.62-4.36-2.35-5.83-4.24-1.17-1.5-2.07-3.4-2.12-5.3-.17-6.5-.53-17.68-.53-17.68h0Z" style="fill:#f55;"/><path id="uuid-22a69633-f232-408a-989a-21f06e290b94" d="m214.72,469.37c2.3-5.13,4.12-10.49,6.89-15.38,1.77-3.13,4.32-5.76,6.19-8.84,1.72-2.84,3.46-5.72,4.6-8.84.84-2.33,1.64-4.77,1.59-7.25-.05-2.31-1.18-4.48-1.77-6.72,1.65-2.47,3.3-4.95,4.95-7.42,2.53-.29,5.33.28,7.6-.88,2.34-1.2,4.36-3.38,5.3-5.83.96-2.47.86-5.45,0-7.95-.87-2.54-2.72-4.86-4.95-6.36-2.13-1.44-4.86-2.38-7.42-2.12-2.91.3-5.44,2.31-7.78,4.07-2.73,2.06-4.71,4.95-7.07,7.42-.71-2-.92-4.26-2.12-6.01-1.18-1.72-2.84-3.28-4.77-4.07-1.7-.69-3.67-.61-5.48-.35-2.05.29-4.04,1.08-5.83,2.12-.87.5-1.35,1.62-2.3,1.94-4.51,1.56-9.55-.35-14.32-.53-2.12,5.42-4.24,10.84-6.36,16.26.59,1.18,1.18,2.36,1.77,3.54-2.3-.35-4.59-1.39-6.89-1.06-2.06.3-4.22,1.14-5.66,2.65-1.4,1.48-2.03,3.64-2.3,5.66-.26,1.94-.01,4.01.71,5.83.81,2.04,2.11,4.02,3.89,5.3,1.1.79,2.59.82,3.89,1.24-.65,2.47-1.12,5-1.94,7.42-.93,2.73-2.15,5.34-3.36,7.95-.94,2.03-2.09,3.97-3.01,6.01-1.3,2.89-2.59,5.81-3.54,8.84-.79,2.54-1.21,5.18-1.77,7.78-.5,2.29-.94,4.6-1.41,6.89,3.89-.12,7.79-.01,11.67-.35,3.26-.29,6.48-.93,9.72-1.41,3.42-.51,6.86-.91,10.25-1.59,3.1-.63,6.2-1.28,9.19-2.3,2.37-.81,4.64-1.91,6.89-3.01,1.68-.82,3.3-1.77,4.95-2.65Z" style="fill:#ff5;"/><path id="uuid-f9e73f43-ea51-4100-96f5-f14bd0fc1700" d="m234.46,393.14s-3.66,1.46-5.23,2.61c-1.69,1.25-4.36,4.57-4.36,4.57l-.22-61.87s3.79,2.35,5.88,3.05c1.26.42,3.92.65,3.92.65v50.98Z"/><path id="uuid-cc4cebd9-bcec-478a-aedb-2188d6ad6c6b" d="m225.31,368.53l-78.21.44,25.27-39.65s8.97,8.86,14.81,10.24c4.57,1.08,13.94-1.96,13.94-1.96,0,0,8.45,6,13.29,5.88,4.06-.1,10.89-5.45,10.89-5.45" style="fill:#f55;"/><path id="uuid-340916ea-c874-45b5-ba8b-0f45bd263000" d="m132.5,390.25l39-60.5s-4.07.28-6-.25c-1.19-.33-3.25-1.75-3.25-1.75l-41.75,64.75,3.5,2,3.25-2.25,5.25-2Z"/><path id="uuid-32ce03c2-bcf4-4e24-883d-429f9260544c" d="m224.5,369.5h-78l-12.78,19.58,90.78.42v-20Z" style="fill:#ff5; stroke:#55a; stroke-linecap:round; stroke-linejoin:round; stroke-width:2px;"/><path id="uuid-f6e4733e-415b-4840-b36a-e0698c3f27f2" d="m141.12,250.25l-10.75-6.88-7.38-6.5-6.5-8.25-5-8.88-3.38-8.5-.62-6.88.5-6.62,8.75,10.75,5.5,6.75,5.25,7.62,4.38,7,4.75,8.12,3.5,7.5,1,4.75Z" style="fill:#55a;"/><path id="uuid-b2fb8731-fe9d-4957-8d13-fff493b569b1" d="m145.63,308.2c-7-1.33-11.44-2.58-16.88-4.7-9.24-3.6-18.26-7.99-26.5-13.5-6.83-4.56-13.12-10.01-18.75-16-6.93-7.37-13.32-15.42-18.25-24.25-3.81-6.82-6.53-14.28-8.56-21.83-2.1-7.79-3.17-15.87-3.69-23.92-.45-6.99-.23-14.04.5-21,.42-4.05,1.46-8.01,2.25-12,.79-4.01,1.67-8,2.5-12,0,0-9.3-4.01-14.12-5.53-4.79-1.51-14.63-3.54-14.63-3.54v158.22l82.51,51.97,33.62-51.93Z" style="fill:#55a; stroke:#55a; stroke-linecap:round; stroke-linejoin:round; stroke-width:2px;"/><path id="uuid-ec6d5ab8-3030-4757-be23-491fd17045be" d="m62.59,170.46c-1.3,6.38-2.78,12.79-3.09,19.29-.44,9.26.08,18.63,1.75,27.75,1.32,7.21,3.57,14.29,6.5,21,3.47,7.94,7.85,15.54,13,22.5,4.07,5.5,8.87,10.48,14,15,6.32,5.56,13.26,10.46,20.5,14.75,3.66,2.17,7.55,3.94,11.5,5.5,4.14,1.63,8.44,2.86,12.75,4,3.39.89,7.02,1.84,10.27,2.21l-2.06-18.66-11.45-3.6-17.81-7.42-19.29-17.38-11.87-16.96-6.78-17.38-3.18-20.78,1.27-13.78,2.76-13.99c-6.78-5.3-11.02-7.61-16.54-11.02,0,0-1.61,5.96-2.22,8.99h0Z" style="fill:#55a; stroke:#55a; stroke-linecap:round; stroke-linejoin:round; stroke-width:2px;"/><path id="uuid-261bd5cc-4ec5-4554-83df-31b9870cef3b" d="m239.5,509.5l-25-40s-6.47,3.79-10,5c-8.04,2.76-16.54,4.16-25,5-9.95.99-20.03.82-30,0-10.1-.84-30-5-30-5l-25,35h145Z" style="fill:#f55; stroke:#55a; stroke-linecap:round; stroke-linejoin:round; stroke-width:2px;"/><path id="uuid-6ca5c672-1c44-4d9e-b4ea-efb239a9b4fc" d="m120.02,474.47s-3.14-9.29-2.35-13.93c.45-2.65,3.22-4.47,3.89-7.07.26-1.03.28-2.16,0-3.18-1.77-6.58-8.08-11.22-10.25-17.68-.3-.9-.7-1.94-.35-2.83,1.41-3.58,7.21-3.94,8.84-7.42,1.05-2.24-.78-5.08,0-7.42.37-1.12,1.86-1.68,2.12-2.83.4-1.76-1.28-3.51-1.06-5.3.23-1.94,1.99-3.41,2.47-5.3.44-1.72-.54-3.78.35-5.3,1.42-2.42,4.45-3.58,7.07-4.6,3.34-1.3,7.02-1.76,10.61-1.77,5.13,0,10.36.76,15.2,2.47,4.48,1.59,8.45,4.39,12.37,7.07,2.48,1.7,4.96,3.48,7.01,5.68,3.01,3.22,7.58,10.83,7.58,10.83" style="fill:none; stroke:#55a; stroke-linecap:round; stroke-linejoin:round; stroke-width:2px;"/><path id="uuid-0206bc1a-b968-466b-8efa-b57b2c4f8a7e" d="m124.97,463.74s4.33,3.63,6.99,4.2c3.78.8,7.81-.26,11.5-1.4,3.12-.96,5.82-2.96,8.7-4.51,1.41-.76,4.2-2.33,4.2-2.33,0,0-5.2,2.87-7.93,4.04-2.57,1.1-5.16,2.32-7.93,2.8-2.66.45-5.43.48-8.08,0-2.61-.47-7.46-2.8-7.46-2.8h0Z" style="fill:none; stroke:#55a; stroke-linecap:round; stroke-linejoin:round; stroke-width:2px;"/><path id="uuid-65ff2314-dd4c-4e4d-acf1-f34e847cfbf4" d="m132.43,460.17s3.42.82,5.13.62c2.25-.26,4.38-1.26,6.37-2.33,1.93-1.03,3.65-2.44,5.28-3.89,1.76-1.56,4.82-5.13,4.82-5.13" style="fill:none; stroke:#55a; stroke-linecap:round; stroke-linejoin:round; stroke-width:2px;"/><path id="uuid-77db2946-1e3a-466c-858b-ae6b02218f4c" d="m129.01,458.3s2-1.22,3.11-1.55c2.05-.62,4.28-.34,6.37-.78,1.59-.33,3.16-.79,4.66-1.4,1.68-.68,3.24-1.61,4.82-2.49,1.16-.64,2.23-1.45,3.42-2.02.8-.38,2.49-.93,2.49-.93" style="fill:none; stroke:#55a; stroke-linecap:round; stroke-linejoin:round; stroke-width:2px;"/><path id="uuid-f5947f1f-3273-4698-bbe8-1d5103d0a3a8" d="m130.88,448.36s2.48-3.21,3.89-4.66c.92-.95,1.9-1.84,2.95-2.64.98-.75,3.11-2.02,3.11-2.02" style="fill:none; stroke:#55a; stroke-linecap:round; stroke-linejoin:round; stroke-width:2px;"/><path id="uuid-d6d5414b-b0b4-495a-9d1c-35ff710913b2" d="m131.03,433.75s1.97-2.92,1.71-4.51c-.24-1.45-1.47-2.79-2.8-3.42-1.31-.62-2.94-.32-4.35,0-.95.21-1.8.76-2.64,1.24-1.09.63-1.89,1.84-3.11,2.18-.65.18-1.85.5-2.02-.16-.24-.9,1.5-1.13,2.33-1.55,1.08-.55,2.25-.92,3.42-1.24,1.32-.37,2.67-.8,4.04-.78,1.38.03,3.05-.03,4.04.93.73.71.8,1.94.78,2.95-.04,1.52-1.4,4.35-1.4,4.35h0Z" style="fill:none; stroke:#55a; stroke-linecap:round; stroke-linejoin:round; stroke-width:2px;"/><path id="uuid-f78450de-9f3b-479a-b660-2306bb5fdd7f" d="m145.02,421.62s2.18,2.21,3.57,2.18c1.19-.03,2.25-1.05,2.95-2.02.76-1.05,1.23-2.44,1.09-3.73-.13-1.18-.79-2.36-1.71-3.11-1.64-1.33-3.96-2.06-6.06-1.87-2.1.2-3.77,1.89-5.6,2.95-1.65.97-3.16,2.16-4.82,3.11-1.41.8-2.75,1.93-4.35,2.18-1.66.26-3.69.31-4.97-.78-.38-.32-.78-1.02-.47-1.4.91-1.08,2.78.69,4.2.62,1.71-.08,3.39-.6,4.97-1.24,2.11-.85,3.84-2.46,5.91-3.42,2.1-.97,4.22-2.5,6.53-2.33,1.76.13,3.46,1.2,4.66,2.49.96,1.04,1.73,2.47,1.71,3.89-.02,1.32-.67,2.76-1.71,3.57-1,.78-2.5,1.09-3.73.78-.93-.24-2.18-1.87-2.18-1.87Z" style="fill:none; stroke:#55a; stroke-linecap:round; stroke-linejoin:round; stroke-width:2px;"/><path id="uuid-10935b06-d6ae-4405-8ca1-4f5f832413ba" d="m122.95,414.63c1.5-.28,3-.53,4.51-.78,2.23-.37,4.59-.24,6.68-1.09.76-.31,2.02-1.4,2.02-1.4,0,0-2.52,1.2-3.89,1.4-1.95.29-3.93-.32-5.91-.31-1.56.01-4.66.31-4.66.31l-1.87,2.49s2.07-.43,3.11-.62h0Z" style="fill:none; stroke:#55a; stroke-linecap:round; stroke-linejoin:round; stroke-width:2px;"/><path id="uuid-8e0e29e4-d85c-4db6-bfd9-e93640ebbf6c" d="m135.54,455.82c-1.16,0-2.4-.64-3.11-1.55-.94-1.22-1.51-3.08-.93-4.51.52-1.28,2.04-2.24,3.42-2.33,1.73-.12,3.69.89,4.66,2.33.73,1.08.95,2.75.31,3.89-.8,1.41-2.73,2.18-4.35,2.18Z" style="fill:none; stroke:#55a; stroke-linecap:round; stroke-linejoin:round; stroke-width:2px;"/><path id="uuid-1dfc32ad-3940-4a35-aced-6c511a69a3a9" d="m151.08,449.91s-3.66.22-5.44-.16c-1.48-.31-2.73-1.35-4.2-1.71-2.02-.5-6.22-.62-6.22-.62" style="fill:none; stroke:#55a; stroke-linecap:round; stroke-linejoin:round; stroke-width:2px;"/><path id="uuid-c527b4b9-2f95-4dc3-9048-b72767147656" d="m134.76,453.64c.95.03,1.84-1.22,1.87-2.18.02-.92-.79-2.19-1.71-2.18-.96.02-1.72,1.37-1.71,2.33,0,.85.7,2,1.55,2.02h0Z" style="fill:#55a; stroke:#55a; stroke-linecap:round; stroke-linejoin:round; stroke-width:2px;"/><path id="uuid-909c81cb-d1b5-4d80-85fd-813901126f2b" d="m225.05,509.5l-14.5-28.53c-6.49,2.25-12.08,3.34-20.36,4.27l3.9,24.27h5.73l-5.12-20.73c4.75-.33,9.19-1.29,13.29-2.93l10.48,23.66h6.58Z" style="fill:#55a; stroke:#55a; stroke-linecap:round; stroke-linejoin:round; stroke-width:2px;"/><path id="uuid-1064bb76-d925-4a25-a943-1cdbf32adccf" d="m185.2,509.5l-3.05-23.29c-10.08.94-18.15,1.49-28.23.49l-5.49,22.8h6.46l3.05-17.81c7.92.47,12.56,0,19.21-.49l2.23,18.29h5.82Z" style="fill:#55a; stroke:#55a; stroke-linecap:round; stroke-linejoin:round; stroke-width:2px;"/><path id="uuid-957ef225-a7a8-495e-9b4a-6f4a5bdcf5ad" d="m138.63,509.5l7.31-23.05c-7.36-.61-14.06-1.02-22.06-2.93l-15.72,25.97h6.34l12.07-21.34c4.47,1.22,8.33,1.58,12.8,2.19l-6.22,19.15h5.49Z" style="fill:#55a; stroke:#55a; stroke-linecap:round; stroke-linejoin:round; stroke-width:2px;"/><path id="uuid-32ce2668-b9f2-4ec2-9b0f-971ba1784f1f" d="m214.53,469.23s4.62-10.62,7.41-15.69c3.05-5.54,7.92-10.12,10.17-16.03,1.26-3.32,2.35-7.02,1.72-10.52-.51-2.86-2.06-5.74-4.31-7.58-1.82-1.5-4.36-2.23-6.72-2.24-2.6,0-5.61.54-7.41,2.41-1.92,2-2.42,5.24-2.24,8,.18,2.78,1.19,5.84,3.27,7.69,1.07.95,2.7,1.26,4.14,1.21,1.83-.06,3.89-.58,5.17-1.9,1.52-1.56,2.21-4.03,2.07-6.21-.12-1.85-.9-3.94-2.41-5-1.42-.99-3.6-1.24-5.17-.52-1.27.59-2.23,2.06-2.41,3.45-.16,1.24.44,2.61,1.31,3.52.58.6,2.31.97,2.31.97" style="fill:none; stroke:#55a; stroke-linecap:round; stroke-linejoin:round; stroke-width:2px;"/><path id="uuid-d1715ad9-d5d5-470f-bc00-5e06c5ba9e38" d="m195.49,476.47s4.43-14.14,7.41-20.9c2.22-5.02,6-9.33,7.76-14.53,1.5-4.43,3.18-9.28,2.24-13.86-.56-2.73-2.37-5.35-4.48-7.07-1.89-1.54-4.36-2.41-6.72-2.42-2.6-.01-5.54.78-7.41,2.61-2.19,2.13-3.44,5.52-3.28,8.57.17,3.13,1.91,6.34,4.31,8.36,1.11.93,2.7,1.35,4.14,1.3,1.83-.07,3.89-.62,5.17-2.05,1.52-1.69,2.21-4.35,2.07-6.7-.12-1.99-.92-4.11-2.41-5.4-1.36-1.16-3.45-1.91-5.17-1.42-1.55.44-2.92,1.98-3.28,3.55-.38,1.68.44,4.15,1.55,4.94,2.97,2.14,4.31-.79,4.31-.79" style="fill:none; stroke:#55a; stroke-linecap:round; stroke-linejoin:round; stroke-width:2px;"/><path id="uuid-b6b6a74d-e84a-47cb-9c66-9f9de4247f31" d="m175.87,479.4s1.65-12.01,6.38-22.79c2.26-5.15,5.44-9.96,6.9-15.4,1.32-4.93,2.51-10.22,1.55-15.24-.59-3.06-1.97-6.23-4.31-8.28-1.79-1.57-4.34-2.3-6.72-2.42-2.66-.14-5.78.13-7.76,1.92-2.43,2.2-3.55,6-3.28,9.26.27,3.18,2.18,6.34,4.65,8.36,1.12.91,2.69,1.35,4.14,1.3,1.85-.07,3.91-.69,5.17-2.05,1.59-1.72,2.21-4.37,2.07-6.7-.12-1.97-.92-4.11-2.41-5.4-1.36-1.16-3.45-1.91-5.17-1.42-1.55.44-2.92,1.98-3.28,3.55-.38,1.68.44,4.15,1.55,4.94,2.97,2.14,4.31-.79,4.31-.79" style="fill:none; stroke:#55a; stroke-linecap:round; stroke-linejoin:round; stroke-width:2px;"/><path id="uuid-46b52e48-72ea-4259-b268-284525e0edfe" d="m208.32,471.99c1.15-3.62,1.93-7.38,3.45-10.86,1.87-4.29,4.44-8.25,6.9-12.24,1.67-2.71,3.83-5.13,5.34-7.93,1.55-2.85,2.82-6.03,3.79-8.96" style="fill:none; stroke:#55a; stroke-linecap:round; stroke-linejoin:round; stroke-width:2px;"/><path id="uuid-c8577a3c-3e60-46a5-be62-bd88b891431b" d="m201.95,474.15c.97-3.39,1.63-6.9,2.9-10.16,1.57-4.02,3.7-7.73,5.81-11.45,1.6-2.83,3.8-5.32,5.2-8.26,1.17-2.45,1.82-4.97,2.64-7.71" style="fill:none; stroke:#55a; stroke-linecap:round; stroke-linejoin:round; stroke-width:2px;"/><path id="uuid-abfb8e6a-2764-45ec-bb60-6c9edee4e8cd" d="m189.53,478.02c.97-3.88,1.63-7.92,2.9-11.65,1.57-4.61,3.7-8.86,5.81-13.13,1.6-3.25,3.8-6.11,5.2-9.47,1.17-2.81,1.82-5.7,2.64-8.84" style="fill:none; stroke:#55a; stroke-linecap:round; stroke-linejoin:round; stroke-width:2px;"/><path id="uuid-e05e12aa-5459-42b2-bdbf-4715934ed1db" d="m182.12,478.54c.91-3.56,1.53-7.25,2.72-10.67,1.47-4.22,3.53-8.06,5.44-12.03,1.44-2.98,3.22-5.81,4.53-8.85,1.11-2.57,2.05-5.04,2.82-7.92" style="fill:none; stroke:#55a; stroke-linecap:round; stroke-linejoin:round; stroke-width:2px;"/><path id="uuid-ebffe706-704e-4658-ae01-bd41f5f7367a" d="m169.37,479.92c.88-4.46,1.34-9.02,2.63-13.38,1.43-4.83,3.8-9.33,5.61-14.04,1.51-3.95,3.15-7.86,4.37-11.91,1-3.33,1.65-6.54,2.39-10.15" style="fill:none; stroke:#55a; stroke-linecap:round; stroke-linejoin:round; stroke-width:2px;"/><path id="uuid-48afaa36-7a7b-4894-ba0f-04c59072fc26" d="m162.3,479.66c.83-3.84,1.39-7.82,2.48-11.51,1.34-4.55,3.16-8.76,4.96-12.97,1.37-3.21,3.24-6.03,4.44-9.36,1-2.78,1.55-5.63,2.26-8.73" style="fill:none; stroke:#55a; stroke-linecap:round; stroke-linejoin:round; stroke-width:2px;"/><path id="uuid-9836a07a-dd2a-4d04-aeb0-c0f83c761c3c" d="m215.23,419.68c2.33-5.25,4.04-10.78,7.31-15.44,2.64-3.75,5.72-7.48,9.71-9.74,2.69-1.53,5.95-2.76,9-2.25,2.55.43,4.93,2.19,6.5,4.25,1.65,2.16,2.51,5.04,2.5,7.75-.01,2.64-.81,5.48-2.5,7.5-1.46,1.74-3.8,2.69-6,3.25-1.86.47-4,.78-5.75,0-2.05-.91-3.54-2.97-4.5-5-.94-1.98-1.68-4.42-1-6.5.7-2.13,2.68-3.89,4.75-4.75,1.77-.73,4.04-.87,5.75,0,1.38.7,2.27,2.28,2.75,3.75.41,1.27.6,2.81,0,4-.61,1.21-1.91,2.28-3.25,2.41-1.1.11-2.4-.49-3-1.41-.54-.85-.27-2.39-.04-3.02" style="fill:none; stroke:#55a; stroke-linecap:round; stroke-linejoin:round; stroke-width:2px;"/><path id="uuid-6ab1339f-3563-478f-aa9c-b93bbe1c580c" d="m190.58,423.14c2.03-4.55,2.92-10.63,5.37-15.53,2.26-4.52,4.36-9.63,8.48-12.56,2.61-1.86,6.12-2.98,9.29-2.47,2.22.36,4.29,1.9,5.66,3.69,1.43,1.87,2.21,4.37,2.18,6.72-.03,2.16-.82,4.42-2.18,6.09-1.29,1.59-3.25,2.67-5.22,3.23-1.61.46-3.48.68-5.01,0-1.78-.79-3.09-2.58-3.92-4.34-.74-1.56-1.25-3.46-.77-5.12.57-1.97,2.17-3.79,4.03-4.64,1.52-.69,3.52-.75,5.01,0,1.2.61,2.05,1.95,2.39,3.25.32,1.19.24,2.63-.41,3.68-.51.81-1.47,1.4-2.42,1.53-1.08.14-2.48-.09-3.13-.97-.61-.83-.56-2.79-.01-3.1" style="fill:none; stroke:#55a; stroke-linecap:round; stroke-linejoin:round; stroke-width:2px;"/><path id="uuid-e7659afa-d7e9-40fc-a1db-02702aa98f97" d="m232.5,422.07c1.39-2.68,3.12-4.68,4.77-6.84" style="fill:none; stroke:#55a; stroke-linecap:round; stroke-linejoin:round; stroke-width:2px;"/><path id="uuid-2d4fce51-a2d1-43ae-a04c-4acfb8dcd533" d="m228.25,418.13c1.62-2.54,2.89-4.05,4.25-5.81" style="fill:none; stroke:#55a; stroke-linecap:round; stroke-linejoin:round; stroke-width:2px;"/><path id="uuid-054301d1-bbfe-4231-8142-0bd5a6005d05" d="m222.03,416.99c2.44-4.35,4.99-8.31,7.98-10.47" style="fill:none; stroke:#55a; stroke-linecap:round; stroke-linejoin:round; stroke-width:2px;"/><path id="uuid-c887f31a-22de-47e4-904b-30ec5f1e3633" d="m209.59,420.2c.15-2.37,1.46-4.68,2.18-7.36" style="fill:none; stroke:#55a; stroke-linecap:round; stroke-linejoin:round; stroke-width:2px;"/><path id="uuid-148137cb-70ff-4ce1-af8b-cd587b55f9b5" d="m203.94,417.66c.15-2.37,1.46-4.68,2.18-7.36" style="fill:none; stroke:#55a; stroke-linecap:round; stroke-linejoin:round; stroke-width:2px;"/><path id="uuid-542c949c-e260-495a-b6aa-98011c2d3825" d="m198.24,417.66c.25-3.41,3.75-10.87,5.7-14" style="fill:none; stroke:#55a; stroke-linecap:round; stroke-linejoin:round; stroke-width:2px;"/><path id="uuid-8b68f370-56e8-4696-8907-089ca292c176" d="m186.78,417.92c.69-3.97,2.15-7.63,3.63-11.3,1.32-3.28,2.9-6.15,4.67-9.54" style="fill:none; stroke:#55a; stroke-linecap:round; stroke-linejoin:round; stroke-width:2px;"/><path id="uuid-8813706c-c563-47c3-933f-9068ae0b3a78" d="m182.01,413.05c.76-2.94,1.73-5.92,2.8-8.81.95-2.57,2.04-4.84,3.21-7.57" style="fill:none; stroke:#55a; stroke-linecap:round; stroke-linejoin:round; stroke-width:2px;"/><path id="uuid-a07af367-4365-4003-91d5-81da78cb83e7" d="m48.73,456.64s-5.47,6.67-7.07,10.61c-1.45,3.55-2.85,7.55-2.12,11.31.58,3.02,2.47,5.96,4.95,7.78,2.95,2.16,6.99,3.39,10.61,2.83,3.04-.47,5.85-2.56,7.78-4.95,1.5-1.86,2.24-4.34,2.47-6.72.29-2.97-.37-6.04-1.41-8.84-.78-2.08-2.27-3.83-3.54-5.66-1.49-2.14-4.77-6.2-4.77-6.2l9.89-13.61-9.74-13.95s4.71-5.49,6.38-8.67c1.51-2.87,2.86-5.97,3.18-9.19.26-2.6.06-5.42-1.06-7.78-1.11-2.33-3.16-4.21-5.3-5.66-1.89-1.27-4.09-2.39-6.36-2.47-2.83-.11-5.87.77-8.13,2.47-1.91,1.44-3.12,3.75-3.89,6.01-.91,2.68-.97,5.65-.7,8.47.27,2.81,1.06,5.61,2.3,8.14,1.66,3.36,6.72,9.02,6.72,9.02l-9.73,13.26,9.55,13.79Z" style="fill:#ff5; stroke:#55a; stroke-linecap:round; stroke-linejoin:round; stroke-width:2px;"/><path id="uuid-9b3b1d46-fe42-476f-ab1d-47b576c2da3a" d="m52.03,461.66s4.78,5.68,6.25,9.03c.74,1.68,1.45,3.56,1.22,5.38-.22,1.75-1.18,3.45-2.43,4.69-1.29,1.27-3.05,2.4-4.86,2.43-1.79.03-3.63-.96-4.86-2.26-1.38-1.45-2.11-3.56-2.26-5.56-.15-1.96.58-3.94,1.39-5.73,1.33-2.96,3.15-5.36,5.56-7.99Z" style="fill:#f55; stroke:#55a; stroke-linecap:round; stroke-linejoin:round; stroke-width:2px;"/><path id="uuid-7475c678-dc55-40b2-b4ff-93b91f22db7d" d="m52.1,424.51s4.76-6.29,6.25-9.9c.7-1.7,1.45-3.56,1.22-5.38-.22-1.75-1.18-3.45-2.43-4.69-1.29-1.27-3.05-2.4-4.86-2.43-1.79-.03-3.63.96-4.86,2.26-1.38,1.45-2.11,3.56-2.26,5.56-.15,1.96.63,3.92,1.39,5.73,1.35,3.21,3.15,6.23,5.56,8.85Z" style="fill:#f55; stroke:#55a; stroke-linecap:round; stroke-linejoin:round; stroke-width:2px;"/><path id="uuid-c0cd851d-b772-4e4f-b67e-df04836fb089" d="m52.55,434.58l5.9,8.16-6.08,8.85-6.08-8.33,6.25-8.68Z" style="fill:#55a; stroke:#55a; stroke-linecap:round; stroke-linejoin:round; stroke-width:2px;"/><g id="uuid-443e8144-0a5a-4b6c-aee9-be7aff7f8d69"><path id="uuid-9a7bb6be-a400-4f1e-8fea-2d1c82be709e" d="m84.62,369.88c-2.21,4.83-3.85,10.19-7.45,14.11-3.4,3.7-7.95,6.45-12.68,8.12-3.81,1.35-8.01,1.34-12.06,1.36-1.72,0-4.02.77-5.12-.54-1.22-1.46-.57-4.07.43-5.69,1.62-2.62,5-3.78,7.93-4.74,2.49-.82,5.2-.66,7.82-.74-.62-4.24-.8-7.79-.06-11.57.47-2.41,2.16-4.88,2.81-6.8" style="fill:none; stroke:#55a; stroke-linecap:round; stroke-linejoin:round; stroke-width:2px;"/><path id="uuid-2364072b-11d6-4548-89e2-606707969eae" d="m57.38,392.62c0-1.29.68-2.78,0-3.88-.54-.87-1.76-1.11-2.75-1.38-1.29-.35-2.67-.33-4-.25-.89.06-1.75.33-2.62.5" style="fill:none; stroke:#55a; stroke-linecap:round; stroke-linejoin:round; stroke-width:2px;"/><path id="uuid-911115cd-a1f1-4149-8da2-897fa615a880" d="m46.5,387.12c-1.08-.29-2.43-.11-3.25-.88-1.03-.96-1.56-2.6-1.38-4,.13-1.04,1-1.88,1.75-2.62,1.24-1.23,2.79-2.15,4.38-2.88,1.77-.82,3.69-1.38,5.62-1.62,1.53-.2,3.13-.23,4.62.12.85.2,1.81.46,2.38,1.12.39.46.56,1.15.5,1.75-.07.74-.47,1.48-1,2-.76.74-1.82,1.25-2.88,1.38-.97.11-2.09-.04-2.88-.62-.69-.51-1.03-1.42-1.25-2.25-.16-.61-.12-1.26,0-1.88.08-.44.33-.83.5-1.25" style="fill:none; stroke:#55a; stroke-linecap:round; stroke-linejoin:round; stroke-width:2px;"/><path id="uuid-328c0617-4d8a-4d16-b014-f3ff39cbeb9d" d="m43.12,379.5c-.96-.79-2.32-1.26-2.88-2.38-.39-.78-.45-1.81-.12-2.62.51-1.29,1.86-2.09,3-2.88,1.37-.94,2.91-1.64,4.5-2.12,1.57-.48,3.24-.6,4.88-.75,1.62-.14,3.26-.34,4.88-.12.73.1,1.54.18,2.12.62.51.39.93.99,1,1.62.08.65-.25,1.34-.62,1.88-.58.83-1.4,1.61-2.38,1.88-.89.24-1.88-.07-2.75-.38-.78-.27-1.67-.57-2.12-1.25-.35-.53-.3-1.25-.25-1.88.06-.7.42-1.33.62-2" style="fill:none; stroke:#55a; stroke-linecap:round; stroke-linejoin:round; stroke-width:2px;"/><path id="uuid-368ba63c-725f-42eb-92a7-1d216eb274ff" d="m43,371.38c-.62-.96-1.62-1.76-1.88-2.88-.29-1.27-.22-2.79.5-3.88.83-1.24,2.46-1.76,3.88-2.25,1.75-.6,3.65-.62,5.5-.75,1.58-.11,3.21-.35,4.75,0,.95.21,1.92.59,2.62,1.25.56.52,1.09,1.24,1.12,2,.04.73-.36,1.49-.88,2-.68.67-1.69.97-2.62,1.12-.95.15-2.02.19-2.88-.25-.63-.33-1.1-.97-1.38-1.62-.31-.73-.41-1.6-.25-2.38.15-.75.75-1.33,1.12-2" style="fill:none; stroke:#55a; stroke-linecap:round; stroke-linejoin:round; stroke-width:2px;"/><path id="uuid-0fc5b94a-b915-49b4-bd22-9762444f8df8" d="m44.88,362.5c-.79-.38-2.16-.69-2.5-1.62-.34-.94.34-2.03.88-2.88.75-1.2,1.83-2.31,3.12-2.88,1.07-.46,2.33-.27,3.5-.25,1.63.03,3.3.08,4.88.5,1.19.32,2.63.52,3.38,1.5.33.44.39,1.09.25,1.62-.24.92-.94,1.76-1.75,2.25-1.05.63-2.5,1.1-3.62.62-1.02-.43-1.58-1.68-1.88-2.75-.18-.64-.14-1.39.12-2,.27-.62.92-1,1.38-1.5" style="fill:none; stroke:#55a; stroke-linecap:round; stroke-linejoin:round; stroke-width:2px;"/><path id="uuid-e0edab9a-65db-40ea-bb45-18631ca148c0" d="m51.88,354.12c.36-1.17,2.26-2.33,4.25-3.5" style="fill:none; stroke:#55a; stroke-linecap:round; stroke-linejoin:round; stroke-width:2px;"/></g><path id="uuid-df005ed1-aa96-4865-860f-a04f4bbf3d34" d="m224.5,389.5h-81.36s9.91.71,14.48,2.44c2.08.79,5.66,3.54,5.66,3.54l39.24,1.06s3.6-2.52,5.66-3.18c2.03-.65,4.28-1.15,6.36-.71,1.6.34,3.03,1.37,4.24,2.47.75.68,1.32,1.56,1.77,2.47.54,1.1.88,2.32,1.06,3.54.17,1.17,0,3.54,0,3.54l2.89-5.17v-10Z" style="fill:#55a; stroke:#55a; stroke-linecap:round; stroke-linejoin:round; stroke-width:2px;"/><path id="uuid-e777792d-0496-48b1-81b5-9e9da8f763b1" d="m224.5,384.5h-87" style="fill:none; stroke:#55a; stroke-linecap:round; stroke-linejoin:round; stroke-width:2px;"/><path id="uuid-c06bfc2b-ebdc-4af2-8286-b26f454398f5" d="m192.12,358.6c-1.41,1.41,1.41,4.56,0,5.96s-4.56,1.41-5.96,0,1.41-4.56,0-5.96c-1.41-1.41-4.56,1.41-5.96,0-1.41-1.41-1.41-4.56,0-5.96,1.41-1.41,4.56,1.41,5.96,0,1.41-1.41-1.41-4.56,0-5.96s4.56-1.41,5.96,0-1.41,4.56,0,5.96c1.41,1.41,4.56-1.41,5.96,0,1.41,1.41,1.41,4.56,0,5.96-1.41,1.41-4.56-1.41-5.96,0Z" style="fill:#fff;"/><path id="uuid-69673c5c-518a-40a1-9435-aff8f5544b52" d="m120.83,392.32l-6.83-4.82,42-65.25s1.31,2.18,2.25,3c1.15,1.01,4,2.25,4,2.25l-41.42,64.82Z" style="fill:#ff5;"/><path id="uuid-8faeea04-80e1-467c-a077-0cc127762c89" d="m114.2,387.63l-3.95-2.38,43-66.75,2.5,4-41.55,65.13Z" style="fill:#55a;"/><path id="uuid-b766f166-dbe9-4e45-8863-6676b490f107" d="m110.58,384.95l-4.83-3.45,45-69.5,2.32,7.1-42.49,65.84Z" style="fill:#ff5;"/><path id="uuid-11db8c24-2502-4d62-9027-c7031e38b667" d="m105.25,381.5l-74.75-47.25v-8l77.5,49.5-2.75,5.75Z" style="fill:#f55;"/><path id="uuid-548a5d85-faba-421c-b4e7-5990f6925fe7" d="m108.56,376.42l5.47-8.69-83.54-53.73v12.2l78.06,50.22Z"/><path id="uuid-9b42e754-a1cc-4b34-9596-680ad8346659" d="m113.95,368.23l2.84-4.79-86.29-55.2v6l83.45,53.98Z" style="fill:#f55;"/><path id="uuid-3bcd8808-69e3-4805-9ee5-6b6212524c26" d="m29.5,267.5s16.21,12.66,22.75,20.5c5.59,6.69,10.38,14.21,13.75,22.25,3.1,7.38,5.72,23.33,5.72,23.33l7.75,4.89s-3.66-21.71-7.97-31.72c-3.99-9.26-9.7-17.84-16.25-25.5-7.44-8.71-25.75-22.75-25.75-22.75v9Z" style="fill:#ff5; stroke:#55a; stroke-linecap:round; stroke-linejoin:round; stroke-width:2px;"/><path id="uuid-bb9129f3-db4d-4427-9c6a-a77c38af61e5" d="m96.25,348.5s-1.64-25.35-5-37.5c-2.47-8.92-6.12-17.63-11-25.5-6.73-10.86-15.18-20.79-24.75-29.25-7.76-6.86-26-17-26-17v-6.7s21.11,12.05,30.25,19.95c8.71,7.52,16.68,16.13,23,25.75,6.1,9.29,10.77,19.62,14,30.25,2.48,8.15,4,25.25,4,25.25l20.62-32.75,6.5,2.62-30.12,45.88-1.5-1Z" style="fill:#ff5; stroke:#55a; stroke-linecap:round; stroke-linejoin:round; stroke-width:2px;"/><path id="uuid-ae9dc17c-25ad-478b-a089-b47d296d48ff" d="m29.5,149.5c9.97,2.24,19.68,5.06,29,9,1.92.81,3.7,1.94,5.5,3,5.78,3.4,11.7,6.64,17,10.75,1.54,1.19,2.82,2.68,4.25,4,4.45,4.09,9.12,7.95,13.5,12.12,3.09,2.95,6.11,5.98,9,9.12,3.08,3.35,6.04,6.81,8.88,10.38,4.41,5.55,8.88,11.1,12.62,17.12,4.6,7.41,9.07,15.04,12,23.25,1.49,4.17,1.89,8.66,2.75,13,1.07,5.4,2.1,10.82,3,16.25.37,2.24.71,4.49,1,6.75.79,6.24,1.34,12.5,2,18.75.34,3.21.32,6.47,1,9.62.47,2.15,1.1,4.29,2.09,6.25.82,1.61,1.9,3.1,3.15,4.41,1.75,1.84,3.76,3.5,5.99,4.73,1.51.84,3.19,1.38,4.88,1.73,1.49.31,3.05.21,4.57.32,0,0,9.12,8.99,15.06,10.14,4.81.93,14.38-3.05,14.38-3.05,0,0,8.98,6.98,14.16,6.54,3.72-.32,9.23-6.34,9.23-6.34,0,0,7.44,5.22,11.47,4.46,4.36-.82,9.8-9.02,9.8-9.02" style="fill:none; stroke:#55a; stroke-linecap:round; stroke-linejoin:round; stroke-width:2px;"/><path id="uuid-16d8e98a-1544-4675-b0cc-13209dde15e5" d="m171.69,330.06l-28.19,44.44h81" style="fill:none; stroke:#55a; stroke-linecap:round; stroke-linejoin:round; stroke-width:2px;"/><path id="uuid-b01162dc-3f83-45d5-8ce9-fd65b583409f" d="m80.88,172.25c-1,6.83-2.84,13.43-3.12,20.25-.34,8.26-.12,16.69,1.75,24.75,1.95,8.41,5.49,16.49,9.75,24,4.37,7.71,9.6,15.12,16,21.25,5.84,5.6,12.79,10.08,20,13.75,7.17,3.64,15.67,5.33,22.75,8-2.17-13.09-4.33-23.22-6.5-33.75-5-3.33-11.53-7.18-16.5-11.75-3.22-2.96-6.09-6.35-8.5-10-2.88-4.35-5.21-9.1-7-14-1.09-2.98-1.97-6.09-2.25-9.25-.24-2.66.5-5.83.5-8l-13.25-13.5-13.62-11.75Z" style="fill:#ff5; stroke:#55a; stroke-linecap:round; stroke-linejoin:round; stroke-width:2px;"/><path id="uuid-4b1d8a01-dd42-4d11-a2f8-dd463a6f1cb9" d="m86,177.5c-.92,5.58-2.59,11.09-2.75,16.75-.22,7.79.59,15.69,2.5,23.25,1.78,7.07,4.7,13.88,8.25,20.25,4.06,7.3,8.8,14.4,14.75,20.25,5.37,5.28,11.81,9.54,18.5,13,5.74,2.97,12.17,4.33,18.25,6.5l-2.5-15.75c-2.83-1.17-5.8-2.06-8.5-3.5-3.71-1.98-7.2-4.4-10.5-7-2.99-2.35-5.82-4.93-8.38-7.75-2.74-3.02-5.21-6.3-7.38-9.75-2.24-3.57-4.22-7.33-5.75-11.25-1.47-3.79-2.62-7.74-3.25-11.75-.62-3.96-.51-8-.5-12,.01-3.42.5-7.17.5-10.25l-13.25-11Z" style="fill:#55a; stroke:#55a; stroke-linecap:round; stroke-linejoin:round; stroke-width:2px;"/><path id="uuid-b472ac36-400f-4fc9-937d-60afe22f6563" d="m142.25,255.25c-4.17-1.38-8.36-3.78-12.12-6.38-4.25-2.93-8.15-6.42-11.62-10.25-2.87-3.16-5.31-6.71-7.5-10.38-2.11-3.54-4.06-7.22-5.38-11.12-1.27-3.75-2-7.69-2.38-11.62-.37-3.9.12-8.08.12-11.75" style="fill:none; stroke:#55a; stroke-linecap:round; stroke-linejoin:round; stroke-width:2px;"/><g id="uuid-73a5e4a6-083b-4e6f-b969-8e02521fd1e4"><path id="uuid-39bab0e7-3ee2-49cf-b616-664b42621999" d="m136.53,281.78s6.19,2.88,7.88,5.62c1.45,2.37,1.25,8.25,1.25,8.25,0,0-4.94-2.94-6.5-5.25-1.68-2.49-2.62-8.62-2.62-8.62Z" style="fill:#f55;"/><path id="uuid-41a90188-2248-456a-bd0c-5cf019f4b5e0" d="m136.28,281.78s-4.66,5.23-7.88,5.88c-2.36.47-7-1.75-7-1.75,0,0,3.5-3.87,5.88-4.62,2.87-.9,9,.5,9,.5Z" style="fill:#f55;"/><path id="uuid-77f8e417-f330-435a-883a-a5e2c69f01f1" d="m134.16,287.65c1.81.29,3.72,2.43,3.5,4.25-.25,2.07-2.95,4.11-5,3.75-1.96-.35-3.68-3.06-3.25-5,.4-1.83,2.9-3.3,4.75-3Z" style="fill:#f55;"/></g><path id="uuid-18907e06-9a23-4de7-a3b0-18d0b0b41af5" d="m62.53,328.24s3.55-4.21,3.95-6.8c.24-1.52.12-3.45-1-4.5-1.17-1.1-3.16-.96-4.75-.75-3.61.47-10,4.4-10,4.4l3.75,2.2s3.14-2.89,5-2.6c1.05.16,2.01,1.22,2.25,2.25.3,1.28-1.25,3.75-1.25,3.75l2.05,2.05Z" style="fill:#ff5;"/><path id="uuid-4abfb45f-2ce0-4bde-86fc-4d7c579e6e52" d="m49.14,319.31s6.31-2.53,8.55-4.95c1.44-1.56,2.65-3.63,2.75-5.75.08-1.69-.53-3.58-1.75-4.75-1.48-1.41-3.8-1.87-5.85-1.85-2.17.02-4.24,1.07-6.15,2.1-2.51,1.35-4.51,3.48-6.75,5.25-1.02.81-3.05,2.45-3.05,2.45l3.45,2.2s4.99-4.69,8.1-5.9c1.41-.55,3.09-1.04,4.5-.5,1.05.4,2.32,1.38,2.25,2.5-.1,1.65-2.44,2.25-3.75,3.25-1.93,1.47-6.05,4.05-6.05,4.05l3.75,1.9Z" style="fill:#ff5;"/><path id="uuid-1e090de2-94a1-4afc-9089-79a4232b05ef" d="m35.2,310.4s7.64-5.29,10.8-8.65c1.68-1.78,4.04-3.56,4.25-6,.18-2.12-.95-4.62-2.75-5.75-1.13-.71-2.74-.44-4,0-2.41.84-4.02,3.14-6,4.75-2.7,2.21-8,6.75-8,6.75v3.9s4.23-3.45,6.4-5.1c2.16-1.65,3.98-4.07,6.6-4.8.97-.27,2.62-.68,3,.25.83,2.02-2.68,3.48-4.25,5-1.52,1.47-3.28,2.66-4.95,3.95-1.56,1.21-4.75,3.55-4.75,3.55l3.65,2.15Z" style="fill:#ff5;"/><path id="uuid-187c8f64-73d2-4727-85ac-5f2960c04a17" d="m29.5,298.05s9.49-5.66,12-10.3c.92-1.7,1.43-3.94.75-5.75-.66-1.77-2.38-3.45-4.25-3.75-1.88-.3-3.86.94-5.25,2.25-1.76,1.66-3.25,6.5-3.25,6.5,0,0,3.8-4.85,6.25-4.25,1.38.34,2.18,2.34,2,3.75-.17,1.35-1.74,2.1-2.75,3-1.69,1.5-5.5,3.95-5.5,3.95v4.6Z" style="fill:#ff5;"/><path id="uuid-f51e7989-f0f4-4857-b6c3-0fa6add3ade0" d="m80.25,334s6.76,3.16,9.75,1.75c1.38-.65,2.87-2.6,2.25-4-.45-1.02-2.14-.81-3.25-.75-3.08.16-8.75,3-8.75,3Z" style="fill:#fff;"/><g id="uuid-1ce6fe26-d34b-4bb6-b2dd-816a9724045d"><path id="uuid-7d776f9f-457a-48a6-bb4c-26cd5cfc3392" d="m129.65,270.92c1.72.65,3.84.56,5.5-.24,1.65-.79,3.05-2.38,3.61-4.12.52-1.62.29-3.58-.52-5.07-.82-1.51-2.37-2.72-4-3.23-1.56-.49-3.41-.35-4.88.35-1.53.74-2.88,2.15-3.46,3.75-.59,1.64-.45,3.64.28,5.23.67,1.46,1.97,2.77,3.48,3.34Z" style="fill:#ff5; stroke:#55a; stroke-linecap:round; stroke-linejoin:round; stroke-width:2px;"/><path id="uuid-3b6027da-ea70-48e1-97f0-823e19b92e59" d="m131.7,267.22c1.2.3,2.88-.67,3.21-1.87.34-1.2-.56-2.97-1.77-3.3-1.28-.35-3.09.78-3.39,2.07-.28,1.19.76,2.8,1.95,3.09Z" style="fill:none; stroke:#55a; stroke-linecap:round; stroke-linejoin:round; stroke-width:2px;"/></g><path id="uuid-210c27e8-dd65-44d0-bfaa-e4e17821bf5a" d="m131.38,243.13c1.53.37,3.68-1.02,4-2.66.27-1.37-.97-3.14-2.25-3.46-1.49-.37-3.63.81-4,2.39-.33,1.43.9,3.4,2.25,3.72Z" style="fill:#ff5; stroke:#55a; stroke-linecap:round; stroke-linejoin:round; stroke-width:2px;"/><path id="uuid-1253996f-58b0-4b1d-aa5a-3e16d2eee406" d="m126.34,236.86c1.84.48,4.41-1.35,4.79-3.51.32-1.81-1.16-4.15-2.69-4.57-1.78-.48-4.35,1.08-4.79,3.16-.4,1.89,1.07,4.49,2.69,4.92Z" style="fill:#ff5; stroke:#55a; stroke-linecap:round; stroke-linejoin:round; stroke-width:2px;"/><path id="uuid-09838a56-8f73-4025-9218-96128f9a7828" d="m120.76,229.73c2.2.51,5.28-1.43,5.73-3.72.38-1.92-1.38-4.4-3.23-4.84-2.14-.51-5.21,1.14-5.73,3.35-.48,2.01,1.29,4.76,3.23,5.21h0Z" style="fill:#ff5; stroke:#55a; stroke-linecap:round; stroke-linejoin:round; stroke-width:2px;"/><path id="uuid-8ab5e2bf-d8cb-4ebc-b38d-9c2424e2f423" d="m116.02,221.61c1.96.44,4.7-1.23,5.1-3.19.34-1.65-1.23-3.77-2.87-4.15-1.9-.44-4.63.98-5.1,2.87-.43,1.72,1.14,4.08,2.87,4.47Z" style="fill:#ff5; stroke:#55a; stroke-linecap:round; stroke-linejoin:round; stroke-width:2px;"/><path id="uuid-78e5cd26-ec10-4435-8a8c-203364b158bf" d="m112.13,213.5c1.53.34,3.68-.96,4-2.5.27-1.29-.97-2.95-2.25-3.25-1.49-.34-3.63.77-4,2.25-.33,1.35.9,3.2,2.25,3.5Z" style="fill:#ff5; stroke:#55a; stroke-linecap:round; stroke-linejoin:round; stroke-width:2px;"/><path id="uuid-70f080a4-e1c5-4e27-8d1a-e0ccc54644fe" d="m219.5,380.5v-2h-10v2h10Z" style="fill:none; stroke:#55a; stroke-linecap:round; stroke-linejoin:round; stroke-width:2px;"/><g id="uuid-fc4d9984-30ef-4967-9ccb-f17075abed20"><path id="uuid-8f45d405-4791-4825-b125-5618d58e9a35" d="m117.37,263.51c1.72.65,3.84.56,5.5-.24,1.65-.79,3.05-2.38,3.61-4.12.52-1.62.29-3.58-.52-5.07-.82-1.51-2.37-2.72-4-3.23-1.56-.49-3.41-.35-4.88.35-1.53.74-2.88,2.15-3.46,3.75-.59,1.64-.45,3.64.28,5.23.67,1.46,1.97,2.77,3.48,3.34Z" style="fill:#ff5; stroke:#55a; stroke-linecap:round; stroke-linejoin:round; stroke-width:2px;"/><path id="uuid-972ed7fd-6592-4d0b-ae9d-8dbecfd5c1d0" d="m119.42,259.82c1.2.3,2.88-.67,3.21-1.87.34-1.2-.56-2.97-1.77-3.3-1.28-.35-3.09.78-3.39,2.07-.28,1.19.76,2.8,1.95,3.09Z" style="fill:none; stroke:#55a; stroke-linecap:round; stroke-linejoin:round; stroke-width:2px;"/></g><g id="uuid-d9dd3721-3d27-4aa9-8d2c-dc86af8bdab3"><path id="uuid-651c26b3-7715-4ab8-b5f1-9ea8feb49d85" d="m107.37,254.51c1.72.65,3.84.56,5.5-.24,1.65-.79,3.05-2.38,3.61-4.12.52-1.62.29-3.58-.52-5.07-.82-1.51-2.37-2.72-4-3.23-1.56-.49-3.41-.35-4.88.35-1.53.74-2.88,2.15-3.46,3.75-.59,1.64-.45,3.64.28,5.23.67,1.46,1.97,2.77,3.48,3.34Z" style="fill:#ff5; stroke:#55a; stroke-linecap:round; stroke-linejoin:round; stroke-width:2px;"/><path id="uuid-a51a6825-52e0-4837-a162-10bfafdfd35b" d="m109.42,250.82c1.2.3,2.88-.67,3.21-1.87.34-1.2-.56-2.97-1.77-3.3-1.28-.35-3.09.78-3.39,2.07-.28,1.19.76,2.8,1.95,3.09Z" style="fill:none; stroke:#55a; stroke-linecap:round; stroke-linejoin:round; stroke-width:2px;"/></g><g id="uuid-7da237be-7075-4acc-94db-ca90b8b688a8"><path id="uuid-bdec8127-d30a-49fe-94de-584260b04556" d="m99.62,243.51c1.72.65,3.84.56,5.5-.24,1.65-.79,3.05-2.38,3.61-4.12.52-1.62.29-3.58-.52-5.07-.82-1.51-2.37-2.72-4-3.23-1.56-.49-3.41-.35-4.88.35-1.53.74-2.88,2.15-3.46,3.75-.59,1.64-.45,3.64.28,5.23.67,1.46,1.97,2.77,3.48,3.34Z" style="fill:#ff5; stroke:#55a; stroke-linecap:round; stroke-linejoin:round; stroke-width:2px;"/><path id="uuid-1807a876-112b-4643-82a9-045533ca43d8" d="m101.67,239.82c1.2.3,2.88-.67,3.21-1.87.34-1.2-.56-2.97-1.77-3.3-1.28-.35-3.09.78-3.39,2.07-.28,1.19.76,2.8,1.95,3.09Z" style="fill:none; stroke:#55a; stroke-linecap:round; stroke-linejoin:round; stroke-width:2px;"/></g><g id="uuid-fcac643e-45d8-428f-8dc8-14d87320e5ca"><path id="uuid-d55e758b-be9c-4942-83c6-9e6e22715cb3" d="m93.62,230.89c1.72.65,3.84.56,5.5-.24,1.65-.79,3.05-2.38,3.61-4.12.52-1.62.29-3.58-.52-5.07-.82-1.51-2.37-2.72-4-3.23-1.56-.49-3.41-.35-4.88.35-1.53.74-2.88,2.15-3.46,3.75-.59,1.64-.45,3.64.28,5.23.67,1.46,1.97,2.77,3.48,3.34Z" style="fill:#ff5; stroke:#55a; stroke-linecap:round; stroke-linejoin:round; stroke-width:2px;"/><path id="uuid-1ea0e62d-ece5-4d69-a387-d78c79c8ffc0" d="m95.67,227.2c1.2.3,2.88-.67,3.21-1.87.34-1.2-.56-2.97-1.77-3.3-1.28-.35-3.09.78-3.39,2.07-.28,1.19.76,2.8,1.95,3.09Z" style="fill:none; stroke:#55a; stroke-linecap:round; stroke-linejoin:round; stroke-width:2px;"/></g><g id="uuid-d60bf509-768f-4aac-b5f0-af24bb50745d"><path id="uuid-f632af3a-efc4-413d-839b-9891dc85a51a" d="m89.25,217.76c1.72.65,3.84.56,5.5-.24,1.65-.79,3.05-2.38,3.61-4.12.52-1.62.29-3.58-.52-5.07-.82-1.51-2.37-2.72-4-3.23-1.56-.49-3.41-.35-4.88.35-1.53.74-2.88,2.15-3.46,3.75-.59,1.64-.45,3.64.28,5.23.67,1.46,1.97,2.77,3.48,3.34Z" style="fill:#ff5; stroke:#55a; stroke-linecap:round; stroke-linejoin:round; stroke-width:2px;"/><path id="uuid-7facb53b-7f1f-4b5b-9172-9d374fb7cc4d" d="m91.29,214.07c1.2.3,2.88-.67,3.21-1.87.34-1.2-.56-2.97-1.77-3.3-1.28-.35-3.09.78-3.39,2.07-.28,1.19.76,2.8,1.95,3.09Z" style="fill:none; stroke:#55a; stroke-linecap:round; stroke-linejoin:round; stroke-width:2px;"/></g><g id="uuid-895574af-797e-4a55-918f-555a6a1c4ed0"><path id="uuid-8b6b825a-ae2a-424b-9964-28b5d3031fa1" d="m88.37,191.11c1.72-.65,3.84-.56,5.5.24,1.65.79,3.05,2.38,3.61,4.12.52,1.62.29,3.58-.52,5.07-.82,1.51-2.37,2.72-4,3.23-1.56.49-3.41.35-4.88-.35-1.53-.74-2.88-2.15-3.46-3.75-.59-1.64-.45-3.64.28-5.23.67-1.46,1.97-2.77,3.48-3.34Z" style="fill:#ff5; stroke:#55a; stroke-linecap:round; stroke-linejoin:round; stroke-width:2px;"/><path id="uuid-17da2440-e16f-49b4-8873-8e9552d93aa5" d="m90.42,194.8c1.2-.3,2.88.67,3.21,1.87.34,1.2-.56,2.97-1.77,3.3-1.28.35-3.09-.78-3.39-2.07-.28-1.19.76-2.8,1.95-3.09Z" style="fill:none; stroke:#55a; stroke-linecap:round; stroke-linejoin:round; stroke-width:2px;"/></g><g id="uuid-7b0fc9d3-8128-4379-80e2-7bb5ce4e3138"><path id="uuid-5eff3025-9837-41c7-99b3-c6f76c77fae5" d="m87.62,179.2c-1.72,1.64-2.15,4.75-1.35,6.98.62,1.71,2.43,3.13,4.23,3.46,2.2.41,5.59-.07,6.37-2.11" style="fill:#ff5; stroke:#55a; stroke-linecap:round; stroke-linejoin:round; stroke-width:2px;"/><path id="uuid-f7bc88e0-0f07-42fe-aac6-6607721938a7" d="m90.64,181.13c-1.05.62-1.13,3.12-.15,4.04.84.79,2.85.99,3.44-.34" style="fill:none; stroke:#55a; stroke-linecap:round; stroke-linejoin:round; stroke-width:2px;"/></g><g id="uuid-b99cdc38-c179-44d6-930d-ac50184a5fea"><path id="uuid-a36614a1-1071-4cb7-a59c-39ebd518317f" d="m143.49,262.94c-2.25.17-4.44,2.28-5.2,4.51-.58,1.71-.17,3.96.99,5.36,1.44,1.74,4.5,3.52,6.3,2.44" style="fill:#ff5; stroke:#55a; stroke-linecap:round; stroke-linejoin:round; stroke-width:2.05px;"/><path id="uuid-7b4dea93-d6a0-489a-a84e-8df793aa85c8" d="m144.52,266.36c-1.14-.2-2.71,1.68-2.55,3.02.13,1.14,1.48,2.58,2.72,1.94" style="fill:none; stroke:#55a; stroke-linecap:round; stroke-linejoin:round; stroke-width:2.05px;"/></g><g id="uuid-b342b9bb-7693-4974-90db-56c52b8b40f5"><path id="uuid-cd7b5efb-e6ab-4b5e-b389-70c12bb64088" d="m113.76,270.6s4.9,4.21,5.76,7.19c.74,2.57-.86,7.98-.86,7.98,0,0-3.76-3.96-4.6-6.5-.92-2.73-.29-8.67-.29-8.67Z" style="fill:#f55;"/><path id="uuid-8fd47064-ec08-43fe-9d94-c266074d99bf" d="m113.54,270.54s-5.48,3.7-8.54,3.5c-2.25-.15-5.9-3.37-5.9-3.37,0,0,4.1-2.73,6.43-2.84,2.81-.13,8.01,2.7,8.01,2.7Z" style="fill:#f55;"/><path id="uuid-7de66344-24bf-4305-b7c4-a9ef7f3231b4" d="m110.2,275.47c1.57.72,2.77,3.18,2.14,4.82-.72,1.86-3.66,3.09-5.42,2.24-1.68-.81-2.58-3.76-1.73-5.46.8-1.6,3.42-2.34,5.02-1.61Z" style="fill:#f55;"/></g><g id="uuid-f3b03188-62d1-4044-8421-0a916739b1a5"><path id="uuid-30cb7c21-9191-4c7c-8cb1-db9a32dd9ac3" d="m95.89,253.06s3.8,5.3,3.83,8.31c.02,2.6-3.2,7.21-3.2,7.21,0,0-2.71-4.75-2.84-7.35-.15-2.81,2.22-8.17,2.22-8.17Z" style="fill:#f55;"/><path id="uuid-917cfe94-60f3-4602-9375-290c15ad15cc" d="m95.67,252.94s-6.7,1.93-9.78.89c-2.26-.76-5.08-4.79-5.08-4.79,0,0,5-1.41,7.42-.86,2.92.66,7.44,4.76,7.44,4.76Z" style="fill:#f55;"/><path id="uuid-2801ea3f-d0af-4e06-9734-19c623735557" d="m90.82,256.61c1.4,1.11,1.92,3.74.79,5.09-1.28,1.53-4.65,1.86-6.22.58-1.49-1.23-1.56-4.23-.19-5.57,1.29-1.27,4.19-1.23,5.62-.1Z" style="fill:#f55;"/></g><g id="uuid-1a5946e6-7666-4d6a-a869-7f62f623110b"><path id="uuid-44187cf6-9e85-4e93-82e4-a56cc8dd3521" d="m82.54,230.59s2.34,5.9,1.58,8.79c-.65,2.49-4.95,6.18-4.95,6.18,0,0-1.41-5.13-.88-7.65.58-2.72,4.25-7.32,4.25-7.32Z" style="fill:#f55;"/><path id="uuid-92523872-2bd2-4059-b76d-3a68243f6304" d="m82.36,230.42s-7,.36-9.72-1.31c-2-1.23-3.71-5.7-3.71-5.7,0,0,5.21-.24,7.42.82,2.66,1.28,6.01,6.19,6.01,6.19Z" style="fill:#f55;"/><path id="uuid-f4b65479-9efb-4227-be7a-4157306808b5" d="m76.71,232.86c1.07,1.37.91,4-.53,5.04-1.64,1.18-4.99.76-6.19-.82-1.14-1.5-.43-4.38,1.24-5.37,1.58-.93,4.38-.26,5.48,1.14Z" style="fill:#f55;"/></g><g id="uuid-67f8c123-9863-49c4-9b26-9f4cb71833e8"><path id="uuid-1157419d-a975-4935-a2a7-d64ce00e9be5" d="m76.49,206.83s-.06,6.57-1.86,9.15c-1.56,2.22-6.99,4.38-6.99,4.38,0,0,.63-5.51,2.09-7.79,1.57-2.47,6.77-5.74,6.77-5.74Z" style="fill:#f55;"/><path id="uuid-63139575-dced-48e8-86eb-ae56ceb6cfb8" d="m76.39,206.61s-6.69-2-8.61-4.56c-1.41-1.88-1.3-6.84-1.3-6.84,0,0,4.98,1.52,6.64,3.31,2.01,2.15,3.27,8.09,3.27,8.09Z" style="fill:#f55;"/><path id="uuid-7de120a4-ff1e-4244-9f02-30ef77ae967e" d="m70.16,207.08c.48,1.7-.67,4.23-2.42,4.76-1.99.61-4.97-.95-5.48-2.89-.49-1.85,1.26-4.44,3.21-4.84,1.83-.38,4.2,1.23,4.7,2.97Z" style="fill:#f55;"/></g><g id="uuid-3275a566-59a0-47a7-bb59-eb647960f615"><path id="uuid-7c6624b2-cb3f-462c-b558-cb9b11b34c8b" d="m77.71,181.42s-1.99,6.28-4.48,8.26c-2.15,1.7-8,2.29-8,2.29,0,0,2.23-5.1,4.3-6.9,2.23-1.93,8.18-3.66,8.18-3.66Z" style="fill:#f55;"/><path id="uuid-0e864c43-22b7-4f7a-90d4-bc8b9dceda07" d="m77.67,181.19s-5.83-3.74-6.91-6.72c-.8-2.18.76-6.9.76-6.9,0,0,4.32,2.81,5.4,4.98,1.29,2.61.76,8.64.76,8.64Z" style="fill:#f55;"/><path id="uuid-7cb19f2a-95c4-43b2-89eb-8ef39722c06e" d="m71.56,179.95c-.04,1.77-1.89,3.87-3.72,3.9-2.08.04-4.48-2.26-4.41-4.26.07-1.91,2.52-3.91,4.5-3.77,1.87.14,3.67,2.32,3.63,4.12Z" style="fill:#f55;"/></g><path id="uuid-8782049e-dd3b-4807-b9f8-85c068d07996" d="m78.56,321.95s7.24,1.83,9.91-.11c1.24-.9,2.33-3.09,1.46-4.35-.63-.91-2.25-.39-3.33-.13-2.99.73-8.03,4.59-8.03,4.59h0Z" style="fill:#fff;"/><path id="uuid-03bb4d50-e10e-4c45-b762-c43e2bfe873e" d="m75.81,310.95s7.43.69,9.77-1.64c1.08-1.08,1.82-3.41.77-4.52-.77-.81-2.29-.04-3.31.39-2.85,1.19-7.23,5.77-7.23,5.77Z" style="fill:#fff;"/><path id="uuid-9ea34f10-7747-49cf-8a78-fa68ea2194d4" d="m71.74,300.49s7.42-.8,9.25-3.55c.85-1.27,1.11-3.71-.15-4.59-.91-.64-2.25.42-3.17,1.04-2.55,1.73-5.93,7.1-5.93,7.1Z" style="fill:#fff;"/><path id="uuid-5d660a70-e868-411e-a1a2-ebb57172f06e" d="m65.49,289.16s7.42-.8,9.25-3.55c.85-1.27,1.11-3.71-.15-4.59-.91-.64-2.25.42-3.17,1.04-2.55,1.73-5.93,7.1-5.93,7.1Z" style="fill:#fff;"/><path id="uuid-fd0df3f0-4972-4f41-baee-ec680d000a0a" d="m58.04,279.79s7.22-1.91,8.61-4.9c.64-1.39.54-3.83-.84-4.51-1-.49-2.16.75-2.98,1.51-2.26,2.1-4.8,7.91-4.8,7.91h0Z" style="fill:#fff;"/><path id="uuid-9ae87b1f-6e1f-45f5-8544-68d9261ee3a5" d="m48.83,270.31s7.22-1.91,8.61-4.9c.64-1.39.54-3.83-.84-4.51-1-.49-2.16.75-2.98,1.51-2.26,2.1-4.8,7.91-4.8,7.91h0Z" style="fill:#fff;"/><path id="uuid-73737f6a-714e-4b08-ac5f-29cf4f641bc3" d="m39.82,262.28s6.97-2.67,8.03-5.8c.49-1.45.12-3.87-1.31-4.4-1.04-.38-2.07.98-2.8,1.82-2.02,2.33-3.92,8.38-3.92,8.38Z" style="fill:#fff;"/><path id="uuid-e52fcab4-50cf-436e-a91d-256b7f142248" d="m30.64,256.15s6.56-3.56,7.21-6.8c.3-1.5-.38-3.85-1.88-4.19-1.08-.24-1.92,1.24-2.54,2.17-1.7,2.57-2.79,8.82-2.79,8.82Z" style="fill:#fff;"/><g id="uuid-a818516f-4209-4f70-82b2-56639d073da9"><path id="uuid-b5848f90-6d44-4ef8-85b6-af74347d9e98" d="m135.03,317.36s-2.92-5.74-5.7-6.47c-1.48-.39-3.87.06-4.33,1.52-.33,1.06,1.03,2.07,1.95,2.71,2.29,1.6,8.09,2.24,8.09,2.24Z" style="fill:#fff;"/><path id="uuid-de50c979-66f7-4d59-9a79-26d78f814248" d="m137.48,317.3c.78-4.85,1.17-6.08-.98-8.58-1-1.16-3.27-2.07-4.46-1.1-.86.7-.25,2.3.15,3.33.99,2.57,5.29,6.35,5.29,6.35h0Z" style="fill:#fff;"/><path id="uuid-62d9bd11-6aeb-4dba-b135-bbd120ef3b4a" d="m136.11,319.54s-6.22-2.46-8.85-1.07c-1.12.59-2.19,2.18-1.76,3.38.37,1.04,1.95,1.32,3.06,1.3,2.79-.06,7.55-3.61,7.55-3.61h0Z" style="fill:#fff;"/></g><g id="uuid-3a3e8d18-017a-4269-a29d-e07aff0b55eb"><path id="uuid-af04ed49-fc87-45a8-a564-fb206fc6e25d" d="m123.64,333.06s-2.21-5.83-4.83-6.65c-1.46-.46-3.87.06-4.33,1.52-.33,1.06,1.05,2.05,1.95,2.71,2.04,1.51,7.21,2.42,7.21,2.42Z" style="fill:#fff;"/><path id="uuid-27030f3a-79b6-4694-a1ad-4b0d073788d6" d="m126.8,333.29s1.17-6.75-.81-9.05c-1-1.16-3.27-2.07-4.46-1.1-.86.7-.23,2.29.15,3.33.96,2.67,5.12,6.81,5.12,6.81h0Z" style="fill:#fff;"/><path id="uuid-de42b07a-cc17-4000-b0b5-da6bf696ba32" d="m124.84,335.47s-5.65-2.72-8.09-1.48c-1.36.69-2.7,2.78-1.99,4.13.51.99,2.19.7,3.29.54,2.48-.35,6.79-3.2,6.79-3.2h0Z" style="fill:#fff;"/></g><g id="uuid-74d3f8f5-cb1c-4d86-9b33-4c002ba47cb0"><path id="uuid-96207124-0f6f-4ad7-adbf-9be8ca13d306" d="m114.01,350.09s-2.32-6.18-5.09-7.05c-1.46-.46-3.87.06-4.33,1.52-.33,1.06,1.06,2.03,1.95,2.71,2.11,1.62,7.47,2.83,7.47,2.83h0Z" style="fill:#fff;"/><path id="uuid-507cd12a-3a90-4653-bcaa-3d1bddae3db9" d="m116.87,349.82s1.17-6.68-.78-8.96c-.99-1.16-3.27-2.07-4.46-1.1-.86.7-.23,2.29.15,3.33.95,2.64,5.09,6.73,5.09,6.73h0Z" style="fill:#fff;"/><path id="uuid-98695033-d2ce-4893-8e56-7746c07e8760" d="m115.35,352.41s-5.9-3.08-8.5-1.8c-1.37.67-2.7,2.78-1.99,4.13.51.99,2.19.66,3.29.54,2.57-.28,7.2-2.88,7.2-2.88Z" style="fill:#fff;"/></g><path id="uuid-092face1-75d2-4613-b28a-cdc24957639d" d="m30.05,307.22l86.9,55.82" style="stroke:#55a; stroke-linecap:round; stroke-linejoin:round; stroke-width:2px;"/><path id="uuid-57d3aeb1-1541-4e94-b27e-a5eca876352b" d="m124.42,394.51l-94.92-60.66" style="stroke:#55a; stroke-linecap:round; stroke-linejoin:round; stroke-width:2px;"/><path id="uuid-ed5ec6ba-f226-44df-ad5a-377742274f30" d="m105.04,382.06l45.85-70.12" style="stroke:#55a; stroke-linecap:round; stroke-linejoin:round; stroke-width:2px;"/><path id="uuid-2de2552b-cc22-44c5-a974-0b8c29469923" d="m204.5,380.5v-2h-10v2h10Z" style="fill:none; stroke:#55a; stroke-linecap:round; stroke-linejoin:round; stroke-width:2px;"/><path id="uuid-78316c6a-e2b6-423c-a99e-6e843a0c4921" d="m189.5,380.5v-2h-10v2h10Z" style="fill:none; stroke:#55a; stroke-linecap:round; stroke-linejoin:round; stroke-width:2px;"/><path id="uuid-50f64f7a-f601-4e04-ac2b-096a22f0b218" d="m174.5,380.5v-2h-10v2h10Z" style="fill:none; stroke:#55a; stroke-linecap:round; stroke-linejoin:round; stroke-width:2px;"/><path id="uuid-1a5f08cf-0843-4470-a372-2ccfb5b7dafb" d="m159.5,380.5v-2h-10v2h10Z" style="fill:none; stroke:#55a; stroke-linecap:round; stroke-linejoin:round; stroke-width:2px;"/><path id="uuid-19df9b8f-ed1b-4080-ac2b-d205aa143af0" d="m144.5,380.5v-2h-3.3l-1.2,2h4.5Z" style="fill:none; stroke:#55a; stroke-linecap:round; stroke-linejoin:round; stroke-width:2px;"/><path id="uuid-a97b1ce0-ce5e-45ef-a159-16ccf154970d" d="m273.5,384.5v-22.38l17.38,11.88-17.38,10.5Z" style="fill:#f55;"/><path id="uuid-38129b39-767e-4b9e-85ca-0a0413e088f7" d="m264.75,388.38l-.25-34.62,9.62,8.25-.38,22.38-9,4Z"/><path id="uuid-f33ca7d7-48f5-455d-8725-4247563fd2e4" d="m260.38,390l-.12-40.12-13.25-14.25-1.38-1.38s-1.65,1.84-2.5,2.75c-1.23,1.32-3.75,3.91-3.75,3.91l.12,50.34,4.38,1.62,3.38,2.12,13.12-5Z" style="fill:#55a; stroke:#55a; stroke-linecap:round; stroke-linejoin:round; stroke-width:2px;"/><path id="uuid-823f1a59-8df0-4569-b6c5-450a89d8262b" d="m247.27,393.84c.31-2.87.22-6.88.81-9.06.52-1.9,1.44-3.78,2.53-5.62,1.27-2.14,3.71-4.13,5.41-7.19,1.58-2.86,3.44-6.11,3.75-9.94.26-3.27-.52-4.59-1.97-7.44-1.68-3.3-4.59-4.96-6.09-6.84-1.19-1.49-3.17-2.61-3.91-4.03-.58-1.13-1.93-6.29-2.53-8l-5.12,4.06c.48,1.37,1.55,4.85,2.47,6.62.99,1.93,2.55,3.26,3.72,4.72,2.14,2.68,4.31,3.87,5.28,5.78,1.14,2.23,1.6,3.27,1.41,5.69-.21,2.67-.92,4.59-2.5,7.44-1.19,2.15-3.58,4.08-5.34,7.06-1.19,2.01-2.31,4.21-2.97,6.62-.81,2.99-.67,5.85-.94,8.31l6,1.81Z" style="fill:#ff5; stroke:#55a; stroke-width:2px;"/><path id="uuid-390aa6b4-77d8-4f7d-a524-b1f89c1ef1f3" d="m251.62,392.41l6-1.44c-.27-3.19.34-7.04-.97-10.97-1.19-3.58-3.73-6.04-5.22-8.44-1.75-2.82-3.82-4.84-4.38-6.94-.47-1.76-.13-4.02.28-6.41.37-2.11,1.01-4.2,1.94-6.09.6-1.22,1.77-2.48,2.88-4.16.92-1.4,1.67-2.18,2.53-3.53l-4-4.88c-.89,1.39-2.97,4.9-3.84,6.22-.84,1.28-2.17,2.64-3.12,4.59-1.11,2.27-1.88,4.7-2.31,7.16-.41,2.37-.99,5.18-.22,8.09.95,3.58,3.52,5.89,4.88,8.06,1.83,2.95,3.99,5.18,4.78,7.56.91,2.74.46,7.34.78,11.16Z" style="fill:#ff5; stroke:#55a; stroke-linecap:round; stroke-linejoin:round; stroke-width:2px;"/><path id="uuid-8398e943-fd94-4dca-81fe-2249c3df6ef3" d="m247.12,395.38c5.33-1.71,10.66-3.62,15.88-5.75,4.28-1.75,8.55-3.57,12.62-5.75,5.79-3.1,11.17-6.92,16.75-10.38" style="fill:none; stroke:#55a; stroke-linecap:round; stroke-linejoin:round; stroke-width:2px;"/><path id="uuid-e8ce8873-84fe-4549-94ef-1522a0a8ae0c" d="m224.5,369.29v-31.72" style="fill:#fff; stroke:#55a; stroke-linecap:round; stroke-linejoin:round; stroke-width:2px;"/><path id="uuid-243ba0b0-7130-43bf-b6a3-4933ad9a4e3f" d="m246.28,332.92s4.6,6.65,7.16,9.78c1.99,2.43,4.18,4.68,6.37,6.93,1.88,1.94,3.79,3.87,5.8,5.68,2.78,2.51,5.65,4.92,8.64,7.16,5.45,4.09,16.94,11.48,16.94,11.48" style="fill:none; stroke:#55a; stroke-linecap:round; stroke-linejoin:round; stroke-width:2px;"/><path id="uuid-394e62a8-3ddb-461a-ab32-f4f2d9e3f27f" d="m173.88,300.46s4.6.92,4.42,5.44c-.09,2.39-2.8,5.06-5.3,5.08-2.63.02-4.7-2.9-5.66-5.25-.73-1.79-.31-3.94.35-5.75.74-2.02,2.94-3.3,3.89-5.25.59-1.22.79-2.58,1.06-3.89.25-1.23.53-3.72.53-3.72,0,0,1.36,3.9,1.59,5.92.18,1.57.06,3.18-.18,4.74-.14.92-.71,2.69-.71,2.69h0Z"/><path id="uuid-a3fc3fca-d764-451d-b4e2-422f3c3c909e" d="m192.81,306.49s5.3.43,5.13,5.38c-.09,2.62-2.8,5.55-5.3,5.57-2.63.02-4.7-3.18-5.66-5.75-.73-1.96-.31-4.32.35-6.31.74-2.22,2.94-3.62,3.89-5.75.59-1.33.81-2.82,1.06-4.27.3-1.7.53-5.14.53-5.14,0,0,1.37,4.99,1.59,7.55.15,1.73.18,3.5-.18,5.2-.26,1.25-1.41,3.53-1.41,3.53h0Z"/><path id="uuid-83673681-7727-4100-92c1-0b41353125a8" d="m213.85,311.52s5.3.43,5.13,5.38c-.09,2.62-2.8,5.55-5.3,5.57-2.63.02-4.7-3.18-5.66-5.75-.73-1.96-.31-4.32.35-6.31.74-2.22,2.94-3.62,3.89-5.75.59-1.33.86-2.82,1.06-4.27.29-2.17.18-6.56.18-6.56,0,0,1.67,5.92,1.94,8.97.16,1.73.18,3.5-.18,5.2-.26,1.25-1.41,3.53-1.41,3.53h0Z"/></g><path id="uuid-76acd235-959f-4ab9-ac62-4ea18de38ccc" d="m29.5,149.5v360h270" style="fill:none; stroke:#55a; stroke-width:2px;"/><path id="uuid-0ee3f850-3459-4796-92db-35431271255c" d="m59.5,29.5h270v360h0" style="fill:none; stroke:#55a; stroke-width:2px;"/><path id="uuid-d730518c-79ed-440c-a7b8-244ca5c12d69" d="m29.5,29.5v5h5v35c0,2.76-2.24,5-5,5s-5-2.24-5-5v-5h-5v5c0,5.52,4.48,10,10,10s10-4.48,10-10V29.5h-10Z"/><path id="uuid-039736e4-c6f8-4892-953e-625169b31597" d="m329.5,509.5v-5h-5v-35c0-2.76,2.24-5,5-5s5,2.24,5,5v5h5v-5c0-5.52-4.48-10-10-10s-10,4.48-10,10v40h10Z"/><path id="uuid-36666743-7eaf-45bf-a3f3-0debf015a6a2" d="m94.5,100.5c1,4,5,14,12,14,9,0,13-8,13-18,0-7-2.58-11.61-5-17-2.58-5.74-6.38-10.86-10-16-4.65-6.6-15-19-15-19,0,0-10.35,12.4-15,19-3.62,5.14-7.42,10.26-10,16-2.42,5.39-5,10-5,17,0,10,4,18,13,18,7,0,11-10,12-14,1-1,1,0,1,1-1,8-1,10-2,16s-4,17-4,17c5-2,15-2,20,0,0,0-3-11-4-17s-1-8-2-16c0-1,0-2,1-1Z"/><path id="uuid-d0996afa-f899-4e77-b613-2711dcdcb46a" d="m32,117.5c.5,2,2.5,7,6,7,4.5,0,6.5-4,6.5-9,0-3.5-1.29-5.81-2.5-8.5-1.29-2.87-3.19-5.43-5-8-2.32-3.3-7.5-9.5-7.5-9.5,0,0-5.18,6.2-7.5,9.5-1.81,2.57-3.71,5.13-5,8-1.21,2.69-2.5,5-2.5,8.5,0,5,2,9,6.5,9,3.5,0,5.5-5,6-7,.5-.5.5,0,.5.5-.5,4-.5,5-1,8s-2,8.5-2,8.5c2.5-1,7.5-1,10,0,0,0-1.5-5.5-2-8.5s-.5-4-1-8c0-.5,0-1,.5-.5Z"/><path id="uuid-1fd3958e-4283-4155-a20e-d3892e082c84" d="m264.5,438.5c-1-4-5-14-12-14-9,0-13,8-13,18,0,7,2.58,11.61,5,17,2.58,5.74,6.38,10.86,10,16,4.65,6.6,15,19,15,19,0,0,10.35-12.4,15-19,3.62-5.14,7.42-10.26,10-16,2.42-5.39,5-10,5-17,0-10-4-18-13-18-7,0-11,10-12,14-1,1-1,0-1-1,1-8,1-10,2-16s4-17,4-17c-5,2-15,2-20,0,0,0,3,11,4,17s1,8,2,16c0,1,0,2-1,1Z"/><path id="uuid-24106240-497d-4547-89f5-a51112d68aca" d="m327,421.5c-.5-2-2.5-7-6-7-4.5,0-6.5,4-6.5,9,0,3.5,1.29,5.81,2.5,8.5,1.29,2.87,3.19,5.43,5,8,2.32,3.3,7.5,9.5,7.5,9.5,0,0,5.18-6.2,7.5-9.5,1.81-2.57,3.71-5.13,5-8,1.21-2.69,2.5-5,2.5-8.5,0-5-2-9-6.5-9-3.5,0-5.5,5-6,7-.5.5-.5,0-.5-.5.5-4,.5-5,1-8s2-8.5,2-8.5c-2.5,1-7.5,1-10,0,0,0,1.5,5.5,2,8.5s.5,4,1,8c0,.5,0,1-.5.5Z"/></g></svg>