<?xml version="1.0" encoding="UTF-8"?><svg id="uuid-eb6ff6ea-af53-42c3-b0f9-3c57cdfe4d41" xmlns="http://www.w3.org/2000/svg" xmlns:xlink="http://www.w3.org/1999/xlink" viewBox="0 0 64 64"><defs><clipPath id="uuid-2200b4f5-0e4c-492c-b57d-a5818904a107"><rect x="84" width="64" height="64" style="fill:none;"/></clipPath></defs><g style="clip-path:url(#uuid-2200b4f5-0e4c-492c-b57d-a5818904a107);"><line x1="57.43" y1="17.32" x2="132.57" y2="-26.06" style="fill:none; stroke:#999; stroke-miterlimit:10;"/></g><path d="M7.51,56.05c5.33,5.33,12.98,5.42,18.21.19s5.52-16.76,1.94-20.34-15.11-3.29-20.34,1.94-5.13,12.88.19,18.21Z" style="fill:red;"/><path d="M7.58,55.93c-5.41-5.41-5.5-13.17-.2-18.48s17-5.6,20.64-1.97,3.34,15.33-1.97,20.64-13.07,5.21-18.48-.2Z" style="fill:red;"/><path d="M8.08,56.68c-5.41-5.41-5.5-13.17-.2-18.48s17-5.6,20.64-1.97,3.34,15.33-1.97,20.64-13.07,5.21-18.48-.2Z" style="fill:red;"/><path d="M8.58,57.44c-5.41-5.41-5.5-13.17-.2-18.48s17-5.6,20.64-1.97,3.34,15.33-1.97,20.64-13.07,5.21-18.48-.2Z" style="fill:red;"/><path d="M11.74,36.59c5.69-3.44,14.99-2.43,17.42,1.73,2.42,4.16-.19,12.65-5.89,16.09-5.69,3.44-12.53,2.13-15.84-2.91-3.31-5.04-1.38-11.46,4.31-14.9Z" style="fill:#f33;"/><path d="M15.09,34.23c-6.08,1.57-10.03,6.65-8.82,11.33,1.21,4.68,7.12,7.21,13.21,5.63,6.08-1.57,11.02-6.85,9.81-11.53-1.21-4.68-8.12-7-14.2-5.43Z" style="fill:#f66;"/><path d="M59.41,56.09c3.59-7.71-3.95-23.18-16.36-35.59C30.65,8.09,15.18.55,7.46,4.14-1.71,8.41,3.27,26.29,20.27,43.29c17,17,34.88,21.97,39.15,12.8ZM28.67,34.89c-8.43-8.43-12.72-16.94-9.77-18.88,2.75-1.82,10.9,2.84,18.36,10.3,7.46,7.46,12.12,15.61,10.3,18.36-1.95,2.94-10.46-1.35-18.88-9.77Z" style="fill:blue;"/><path d="M59.41,56.09c3.59-7.71-3.95-23.18-16.36-35.59C30.65,8.09,15.18.55,7.46,4.14-1.71,8.41,3.27,26.29,20.27,43.29c17,17,34.88,21.97,39.15,12.8ZM28.67,34.89c-8.43-8.43-12.72-16.94-9.77-18.88,2.75-1.82,10.9,2.84,18.36,10.3,7.46,7.46,12.12,15.61,10.3,18.36-1.95,2.94-10.46-1.35-18.88-9.77Z" style="fill:blue;"/><path d="M12.88,4.13c8.33,0,20.75,6.95,31.06,17.26,12.41,12.41,19.95,27.88,16.36,35.59-1.42,3.05-4.34,4.54-8.24,4.54-7.82,0-19.56-5.99-30.91-17.34C4.15,27.18-.82,9.29,8.35,5.03c1.31-.61,2.83-.9,4.53-.9M46.36,46.47c.95,0,1.66-.3,2.08-.93,1.82-2.75-2.84-10.9-10.3-18.36-6.37-6.37-13.23-10.69-16.82-10.69-.62,0-1.14.13-1.54.39-2.94,1.95,1.35,10.46,9.77,18.88,6.63,6.63,13.31,10.7,16.81,10.7M12.88,3.13c-1.88,0-3.54.33-4.95.99-2.66,1.24-4.35,3.55-4.91,6.7-1.52,8.59,5.32,21.96,17.42,34.07,10.87,10.87,22.99,17.63,31.62,17.63,4.43,0,7.59-1.77,9.15-5.11,3.71-7.97-3.25-23.41-16.56-36.72C34.15,10.18,21.39,3.13,12.88,3.13h0ZM46.36,45.47c-2.74,0-8.95-3.26-16.1-10.41-7.18-7.18-10.67-13.69-10.39-16.4.06-.61.29-.83.46-.94.23-.15.56-.23.99-.23,2.84,0,9.29,3.57,16.11,10.4,8.32,8.32,11.3,15.4,10.17,17.1-.08.12-.32.48-1.24.48h0Z" style="fill:red;"/><path d="M53.65,49.06c4.91-4.76.21-17.36-10.5-28.16-10.71-10.8-23.37-15.7-28.27-10.94-3.01,2.92-2.4,8.8,1,15.41,2.65,3.87,6.02,7.94,9.98,11.89,4.74,4.73,9.66,8.64,14.23,11.49,5.79,2.62,10.86,2.94,13.56.31Z" style="fill:none;"/><path d="M43.03,20.76C30,7.75,15.6.91,10.86,5.46c-3.3,3.17-1.04,11.03,5.02,19.9-3.4-6.61-4.01-12.49-1-15.41,4.91-4.76,17.57.14,28.27,10.94,10.71,10.8,15.41,23.41,10.5,28.16-2.71,2.62-7.77,2.3-13.56-.31,8,4.98,14.93,6.71,17.95,3.81,4.74-4.56-1.98-18.79-15.01-31.8Z" style="fill:#fff; opacity:.4;"/><path d="M57.07,6.49c-5.62-5.62-13.69-5.72-19.21-.2s-5.82,17.68-2.04,21.46c3.78,3.78,15.94,3.47,21.46-2.04,5.52-5.52,5.42-13.59-.2-19.21Z" style="fill:red;"/><path d="M56.92,6.49c-5.62-5.62-13.69-5.72-19.21-.2s-5.82,17.68-2.04,21.46,15.94,3.47,21.46-2.04c5.52-5.52,5.42-13.59-.2-19.21Z" style="fill:red;"/><path d="M40.73,4.48c5.91-3.63,13.1-2.09,16.66,3.43,3.56,5.52,1.67,12.46-4.23,16.1-5.91,3.63-15.15,2.29-17.79-2.31-2.64-4.6-.55-13.59,5.36-17.22Z" style="fill:#f33;"/><ellipse cx="46.47" cy="12.5" rx="11.82" ry="10.19" transform="translate(-1.65 12.87) rotate(-15.49)" style="fill:#f66;"/><path d="M20.91,34.39c3.45,0,6.58.84,8.16,2.42,3.64,3.64,3.34,15.33-1.97,20.64-2.62,2.62-5.83,3.92-9.07,3.92s-6.67-1.38-9.41-4.12c-5.41-5.4-5.5-13.17-.2-18.48,2.99-2.99,8.01-4.39,12.48-4.39M20.91,33.39h0c-4.11,0-9.73,1.23-13.18,4.68-5.71,5.71-5.62,14.07.2,19.89,2.84,2.84,6.44,4.41,10.12,4.41s7.06-1.5,9.77-4.21c5.68-5.68,6.02-17.99,1.97-22.05-1.73-1.73-4.96-2.72-8.87-2.72h0Z" style="fill:blue;"/><path d="M48.19,3.54c3.46,0,6.94,1.43,9.78,4.28,5.62,5.62,5.72,13.69.2,19.21-3.11,3.11-8.33,4.56-12.97,4.56-3.59,0-6.84-.87-8.49-2.52-3.78-3.78-3.47-15.94,2.04-21.46,2.72-2.72,6.06-4.08,9.43-4.08M48.19,2.54c-3.72,0-7.32,1.55-10.13,4.37-2.71,2.71-4.45,7.09-4.8,12.02-.33,4.67.73,8.83,2.76,10.85,1.79,1.79,5.14,2.81,9.19,2.81,4.26,0,10.1-1.28,13.68-4.86,2.86-2.86,4.41-6.51,4.37-10.28-.04-3.76-1.67-7.43-4.57-10.34-2.95-2.95-6.67-4.57-10.49-4.57h0Z" style="fill:blue;"/><path d="M5.53,40.76c.49,1.77,3.69,2.43,7.16,1.47.28-.08.54-.16.8-.25-1.43-1.5-3.07-3.64-4.37-5.51-2.46,1.11-3.99,2.85-3.59,4.29Z" style="fill:#fff; opacity:.9;"/><ellipse cx="45.45" cy="7.55" rx="6.17" ry="3.86" transform="translate(-.37 12.41) rotate(-15.49)" style="fill:#fff; opacity:.9;"/></svg>