<?xml version="1.0" encoding="UTF-8"?><svg xmlns="http://www.w3.org/2000/svg" viewBox="0 0 144 144"><defs><style>.cls-1{stroke:#fff;stroke-miterlimit:10;}.cls-2{fill:#fff;}.cls-3{fill:red;}</style></defs><g id="Layer_1"><rect width="1920" height="1080"/></g><g id="Layer_2"><g><path d="m61.02,46.87c-6.8,0-12.33-5.53-12.33-12.33,0-.75.08-1.52.23-2.3-.76.15-1.52.22-2.26.22-5.98,0-11.08-4.31-12.13-10.13-1.46.58-2.98.88-4.54.88-6.8,0-12.33-5.53-12.33-12.33,0-5.6,3.72-10.44,9.1-11.89v-.11h.5c.87-.22,1.82-.33,2.73-.33s1.82.11,2.75.32h68.29c.1-6.72,5.59-12.15,12.33-12.15s12.33,5.53,12.33,12.33-5.53,12.33-12.33,12.33c-.38,0-.78-.02-1.2-.07.13.74.2,1.46.2,2.18,0,6.77-5.48,12.28-12.24,12.33-1.4,5.37-6.35,9.23-11.93,9.23-3.93,0-7.59-1.86-9.92-5.01-1.42,1.39-3.14,2.41-5.03,2.99.07.54.11,1.04.11,1.52,0,6.8-5.53,12.33-12.33,12.33Z"/><path class="cls-3" d="m113.36-12.79c6.53,0,11.83,5.3,11.83,11.83s-5.3,11.83-11.83,11.83c-.63,0-1.24-.06-1.84-.16.21.89.34,1.81.34,2.77,0,6.53-5.3,11.83-11.83,11.83-.1,0-.2-.01-.29-.01-1.18,5.29-5.9,9.24-11.54,9.24-4.12,0-7.74-2.1-9.86-5.29-1.5,1.63-3.45,2.83-5.65,3.41.1.61.16,1.24.16,1.88,0,6.53-5.3,11.83-11.83,11.83s-11.83-5.3-11.83-11.83c0-1.02.14-2.01.39-2.96-.94.24-1.91.38-2.92.38-6.03,0-11-4.51-11.73-10.35-1.5.69-3.17,1.09-4.94,1.09-6.53,0-11.83-5.3-11.83-11.83,0-5.59,3.88-10.27,9.1-11.5h0s.04,0,.04,0c.87-.2,1.77-.32,2.7-.32s1.83.12,2.7.32h68.86c0-.11-.02-.21-.02-.32,0-6.53,5.3-11.83,11.83-11.83m0-1c-6.85,0-12.46,5.39-12.81,12.15H32.8c-.95-.21-1.89-.32-2.81-.32s-1.86.11-2.81.32h-.89v.24c-5.42,1.62-9.13,6.56-9.13,12.28,0,7.08,5.76,12.83,12.83,12.83,1.43,0,2.82-.24,4.17-.7,1.32,5.76,6.48,9.96,12.5,9.96.54,0,1.1-.04,1.65-.11-.08.57-.12,1.13-.12,1.69,0,7.08,5.76,12.83,12.83,12.83s12.83-5.76,12.83-12.83c0-.37-.02-.76-.06-1.17,1.64-.56,3.14-1.44,4.43-2.6,2.43,3.01,6.08,4.77,9.98,4.77,5.68,0,10.73-3.84,12.31-9.23,6.85-.25,12.35-5.91,12.35-12.82,0-.53-.04-1.08-.11-1.63.21.01.41.02.61.02,7.08,0,12.83-5.76,12.83-12.83s-5.76-12.83-12.83-12.83h0Z"/></g><path class="cls-3" d="m143,1v142H1V1h142m1-1H0v144h144V0h0Z"/><g><g><path class="cls-3" d="m84.22,57.52c-.63,0-1.23-.25-1.67-.69l-10.54-10.54-10.54,10.54c-.45.45-1.04.69-1.67.69s-1.23-.25-1.67-.69l-3.81-3.81c-.45-.45-.69-1.04-.69-1.67s.25-1.23.69-1.67l10.54-10.54-10.54-10.54c-.92-.92-.92-2.42,0-3.34l3.81-3.81c.45-.45,1.04-.69,1.67-.69s1.23.25,1.67.69l10.54,10.54,10.54-10.54c.45-.45,1.04-.69,1.67-.69s1.23.25,1.67.69l3.81,3.81c.92.92.92,2.42,0,3.34l-10.54,10.54,10.54,10.54c.45.45.69,1.04.69,1.67s-.25,1.23-.69,1.67l-3.81,3.81c-.45.45-1.04.69-1.67.69Z"/><path d="m84.22,21.24c.48,0,.95.18,1.32.55l3.81,3.81c.73.73.73,1.91,0,2.64l-10.9,10.9,10.9,10.9c.73.73.73,1.91,0,2.64l-3.81,3.81c-.36.36-.84.55-1.32.55s-.95-.18-1.32-.55l-10.9-10.9-10.9,10.9c-.36.36-.84.55-1.32.55s-.95-.18-1.32-.55l-3.81-3.81c-.73-.73-.73-1.91,0-2.64l10.9-10.9-10.9-10.9c-.73-.73-.73-1.91,0-2.64l3.81-3.81c.36-.36.84-.55,1.32-.55s.95.18,1.32.55l10.9,10.9,10.9-10.9c.36-.36.84-.55,1.32-.55m0-1c-.76,0-1.48.3-2.03.84l-10.19,10.19-10.19-10.19c-.54-.54-1.26-.84-2.03-.84s-1.48.3-2.03.84l-3.81,3.81c-.54.54-.84,1.26-.84,2.03s.3,1.48.84,2.03l10.19,10.19-10.19,10.19c-.54.54-.84,1.26-.84,2.03s.3,1.48.84,2.03l3.81,3.81c.54.54,1.26.84,2.03.84s1.48-.3,2.03-.84l10.19-10.19,10.19,10.19c.54.54,1.26.84,2.03.84s1.48-.3,2.03-.84l3.81-3.81c.54-.54.84-1.26.84-2.03s-.3-1.48-.84-2.03l-10.19-10.19,10.19-10.19c.54-.54.84-1.26.84-2.03s-.3-1.48-.84-2.03l-3.81-3.81c-.54-.54-1.26-.84-2.03-.84h0Z"/></g><g><rect class="cls-1" x="61.02" y="54.35" width="4.21" height="20.17" rx="1.15" ry="1.15"/><rect class="cls-1" x="78.77" y="54.35" width="4.21" height="20.17" rx="1.15" ry="1.15"/><g><path d="m62.17,10.38h1.92c.91,0,1.65.74,1.65,1.65v6.97c0,.91-.74,1.65-1.65,1.65h-1.92c-.91,0-1.65-.74-1.65-1.65v-6.97c0-.91.74-1.65,1.65-1.65Z"/><path class="cls-3" d="m64.09,10.88c.63,0,1.15.51,1.15,1.15v6.97c0,.63-.51,1.15-1.15,1.15h-1.92c-.63,0-1.15-.51-1.15-1.15v-6.97c0-.63.51-1.15,1.15-1.15h1.92m0-1h-1.92c-1.18,0-2.15.96-2.15,2.15v6.97c0,1.18.96,2.15,2.15,2.15h1.92c1.18,0,2.15-.96,2.15-2.15v-6.97c0-1.18-.96-2.15-2.15-2.15h0Z"/></g><g><path d="m79.91,10.38h1.92c.91,0,1.65.74,1.65,1.65v6.97c0,.91-.74,1.65-1.65,1.65h-1.92c-.91,0-1.65-.74-1.65-1.65v-6.97c0-.91.74-1.65,1.65-1.65Z"/><path class="cls-3" d="m81.83,10.88c.63,0,1.15.51,1.15,1.15v6.97c0,.63-.51,1.15-1.15,1.15h-1.92c-.63,0-1.15-.51-1.15-1.15v-6.97c0-.63.51-1.15,1.15-1.15h1.92m0-1h-1.92c-1.18,0-2.15.96-2.15,2.15v6.97c0,1.18.96,2.15,2.15,2.15h1.92c1.18,0,2.15-.96,2.15-2.15v-6.97c0-1.18-.96-2.15-2.15-2.15h0Z"/></g><g><rect class="cls-2" x="50.38" y="70.7" width="43.25" height="16.89" rx="4.82" ry="4.82"/><path class="cls-2" d="m88.8,71.2c2.39,0,4.32,1.93,4.32,4.32v7.25c0,2.39-1.93,4.32-4.32,4.32h-33.6c-2.39,0-4.32-1.93-4.32-4.32v-7.25c0-2.39,1.93-4.32,4.32-4.32h33.6m0-1h-33.6c-2.93,0-5.32,2.39-5.32,5.32v7.25c0,2.93,2.39,5.32,5.32,5.32h33.6c2.93,0,5.32-2.39,5.32-5.32v-7.25c0-2.93-2.39-5.32-5.32-5.32h0Z"/></g><g><rect x="50.38" y="75.88" width="43.25" height="16.89" rx="4.82" ry="4.82"/><path class="cls-2" d="m88.8,76.38c2.39,0,4.32,1.93,4.32,4.32v7.25c0,2.39-1.93,4.32-4.32,4.32h-33.6c-2.39,0-4.32-1.93-4.32-4.32v-7.25c0-2.39,1.93-4.32,4.32-4.32h33.6m0-1h-33.6c-2.93,0-5.32,2.39-5.32,5.32v7.25c0,2.93,2.39,5.32,5.32,5.32h33.6c2.93,0,5.32-2.39,5.32-5.32v-7.25c0-2.93-2.39-5.32-5.32-5.32h0Z"/></g><g><path class="cls-2" d="m62.69,105.82c-2.36,0-4.28-1.92-4.28-4.28l-3.1-15.79c0-2.45,1.91-4.37,4.27-4.37h24.84c2.36,0,4.28,1.92,4.28,4.28l-2.44,15.96c0,2.28-1.91,4.2-4.27,4.2h-19.3Z"/><path class="cls-2" d="m84.42,81.88c2.09,0,3.78,1.69,3.78,3.78l-2.43,15.89c0,2.09-1.69,3.78-3.78,3.78h-19.3c-2.09,0-3.78-1.69-3.78-3.78l-3.11-15.89c0-2.09,1.69-3.78,3.78-3.78h24.84m0-1h-24.84c-2.63,0-4.78,2.14-4.78,4.78v.1l.02.1,3.09,15.8c.05,2.59,2.18,4.67,4.78,4.67h19.3c2.61,0,4.73-2.1,4.78-4.7l2.42-15.82v-.08s.01-.08.01-.08c0-2.63-2.14-4.78-4.78-4.78h0Z"/></g></g></g><g><path class="cls-2" d="m19.26,130.03v-11.25l-.25-2.5c1.19-.03,3.43-.08,5.29-.08,3.47,0,5.25,1.5,5.25,7.91,0,7.04-1.99,8.41-5.61,8.41h-4.93l.25-2.5Zm4.64.83c2.4,0,3.28-1.99,3.28-6.23,0-4.8-.99-6.76-3.17-6.76-1.26,0-2.06.03-2.54.04v12.91c.53.01,1.49.04,2.43.04Z"/><path class="cls-2" d="m33.83,121.73v10.66h-2.1v-7.85l-.42-2.82h2.51Zm-2.35-5.33h2.47v2.92h-2.47v-2.92Z"/><path class="cls-2" d="m38.62,121.49h.96c1.21,0,2.92.24,2.62,2.97h-1.97c.1-1.22-.17-1.5-1.08-1.5-.72,0-1.26.18-1.26,1.14,0,1.11.75,1.57,1.62,1.94,1.61.71,3.01,1.06,3.01,3.5s-1.31,3.08-2.92,3.08h-.99c-1.14,0-2.96-.21-2.85-3l2.06-.6c-.1,1.57.5,2.08,1.35,2.08.68,0,1.4-.31,1.4-1.6,0-1.01-.51-1.29-1.67-1.78-1.78-.72-2.92-1.36-2.92-3.53s1.11-2.72,2.62-2.72Z"/><path class="cls-2" d="m51.23,124.28h-1.96c.07-1.01-.26-1.38-1.01-1.38-1.39,0-1.83,1.25-1.83,4.04,0,3.32.54,4.18,2.11,4.18.76,0,1.81-.21,2.55-.56l.18,1.49c-.79.39-1.78.67-3.18.67-2.64,0-3.9-1-3.9-5.29,0-4.78,1.54-6.01,3.82-6.01h.76c1.1,0,2.71.22,2.46,2.86Z"/><path class="cls-2" d="m60.98,127.06c0,4.65-1.69,5.62-3.85,5.62h-.56c-2.17,0-3.85-.97-3.85-5.62s1.68-5.62,3.85-5.62h.56c2.15,0,3.85.97,3.85,5.62Zm-4.12,4.14c1.31,0,1.89-.92,1.89-4.14s-.58-4.14-1.89-4.14-1.89.9-1.89,4.14.58,4.14,1.89,4.14Z"/><path class="cls-2" d="m65.02,121.73l.14.74h.04c.76-.68,1.81-.96,2.76-.96,2.32,0,2.39,1.61,2.39,4.54s-.01,5.07-.1,6.35h-2.14c.08-1.24.11-3.82.11-5.87,0-2.64-.06-3.46-1.14-3.46-.6,0-1.28.25-1.89.72v8.61h-2.11v-8.26l-.42-2.4h2.35Z"/><path class="cls-2" d="m74.64,121.73l.14.74h.04c.76-.68,1.81-.96,2.76-.96,2.32,0,2.39,1.61,2.39,4.54s-.01,5.07-.1,6.35h-2.14c.08-1.24.11-3.82.11-5.87,0-2.64-.06-3.46-1.14-3.46-.6,0-1.28.25-1.89.72v8.61h-2.11v-8.26l-.42-2.4h2.35Z"/><path class="cls-2" d="m86.25,121.43c1.83,0,3.03.69,3.03,2.8v3.54h-5.18c0,2.22.65,3.35,2.46,3.35.82,0,1.76-.22,2.5-.65l.17,1.51c-.81.46-2,.74-3.35.74-2.35,0-3.87-.88-3.87-5.29s1.51-6,4.25-6Zm1.12,4.9v-1.89c-.01-1.15-.43-1.6-1.26-1.6-1.65,0-2.01,1.83-2.01,3.42v.07h3.28Z"/><path class="cls-2" d="m98.17,124.28h-1.96c.07-1.01-.26-1.38-1.01-1.38-1.39,0-1.83,1.25-1.83,4.04,0,3.32.54,4.18,2.11,4.18.76,0,1.81-.21,2.55-.56l.18,1.49c-.79.39-1.78.67-3.18.67-2.64,0-3.9-1-3.9-5.29,0-4.78,1.54-6.01,3.82-6.01h.76c1.1,0,2.71.22,2.46,2.86Z"/><path class="cls-2" d="m103.96,130.9c.56,0,1.19-.21,1.64-.4l.17,1.55c-.49.22-1.33.47-2.44.47-1.4,0-2.43-.4-2.43-2.17v-7.12h-1.47v-1.51h1.47v-3.83h2.11v3.83h2.65l-.12,1.51h-2.53v6.39c0,1.1.4,1.28.96,1.28Z"/><path class="cls-2" d="m111.37,121.43c1.83,0,3.03.69,3.03,2.8v3.54h-5.18c0,2.22.65,3.35,2.46,3.35.82,0,1.76-.22,2.5-.65l.17,1.51c-.81.46-2,.74-3.35.74-2.35,0-3.87-.88-3.87-5.29s1.51-6,4.25-6Zm1.12,4.9v-1.89c-.01-1.15-.43-1.6-1.26-1.6-1.65,0-2.01,1.83-2.01,3.42v.07h3.28Z"/><path class="cls-2" d="m119.89,121.54h.36c.81,0,1.5.21,1.94.58v-4.96l-.43-2.56h2.35l.19,2.28v13l.33,2.53h-2.26l-.12-.86h-.04c-.5.74-1.44,1.14-2.58,1.14h-.28c-1.76,0-2.99-.93-2.99-4.1v-2.28c0-3.78,1.6-4.78,3.53-4.78Zm.37,9.62c.75,0,1.58-.32,1.93-.87v-5.36c0-1.31-.87-1.92-1.9-1.92-1.26.01-1.72.94-1.72,2.94v2.06c0,2.15.38,3.15,1.69,3.15Z"/></g><path class="cls-1" d="m76.57,114.4v-13.83c0-2.23-1.55-4.03-3.46-4.03h0c-1.91,0-3.46,1.81-3.46,4.03v13.83"/></g></svg>