<?xml version="1.0" encoding="UTF-8"?><svg id="uuid-ddfd9fd6-cc2e-4b19-a0a9-66d948edb221" xmlns="http://www.w3.org/2000/svg" viewBox="0 0 359 539"><g id="uuid-7765eddc-5258-49d7-b573-cee960432ff4"><g id="uuid-a4a147f0-856e-4bfa-b5ef-9753554eb257"><path id="uuid-2689adc5-227c-48dc-997f-be58b39f25d2" d="m14.5,29.5l-5,7v7l5-7v43h5V29.5h-5Z" style="fill:#f55;"/><path id="uuid-a1d51aa6-8e41-4d5f-bc5c-64430e13cbbc" d="m34.5,29.5c-5.54,0-10,4.46-10,10v30c0,5.54,4.46,10,10,10s10-4.46,10-10v-30c0-5.54-4.46-10-10-10Zm0,5c2.77,0,5,2.23,5,5v30c0,2.77-2.23,5-5,5s-5-2.23-5-5v-30c0-2.77,2.23-5,5-5Z" style="fill:#f55;"/></g><g id="uuid-576b644a-2d2f-45a6-8fa5-54683cb3446f"><path id="uuid-eb201e1e-6564-4f34-a99c-b8a98963eb45" d="m344.5,509.5l5-7v-7l-5,7v-43h-5v50h5Z" style="fill:#f55;"/><path id="uuid-18aa1cf8-14d0-471f-89f9-0464d4d2784b" d="m324.5,509.5c5.54,0,10-4.46,10-10v-30c0-5.54-4.46-10-10-10s-10,4.46-10,10v30c0,5.54,4.46,10,10,10Zm0-5c-2.77,0-5-2.23-5-5v-30c0-2.77,2.23-5,5-5s5,2.23,5,5v30c0,2.77-2.23,5-5,5Z" style="fill:#f55;"/></g><path id="uuid-c58b36ac-85c6-4719-bec2-2507ae6afee0" d="m89.5,44.5s6,15,13,25,17,20,17,20c0,0-10,10-17,20s-13,25-13,25c0,0-6-15-13-25s-17-20-17-20c0,0,10-10,17-20s13-25,13-25" style="fill:#f55;"/><path id="uuid-33ac4e7b-be93-40d0-b7c7-051d9735e7dd" d="m269.5,44.5s6,15,13,25,17,20,17,20c0,0-10,10-17,20s-13,25-13,25c0,0-6-15-13-25s-17-20-17-20c0,0,10-10,17-20s13-25,13-25" style="fill:#f55;"/><path id="uuid-5463bea2-13d4-499a-b2b0-d919084ae1f2" d="m179.5,104.5s6,15,13,25,17,20,17,20c0,0-10,10-17,20s-13,25-13,25c0,0-6-15-13-25s-17-20-17-20c0,0,10-10,17-20s13-25,13-25" style="fill:#f55;"/><path id="uuid-45ce50db-a9de-4cf2-ba92-2ff49b218bb8" d="m89.5,164.5s6,15,13,25,17,20,17,20c0,0-10,10-17,20s-13,25-13,25c0,0-6-15-13-25s-17-20-17-20c0,0,10-10,17-20s13-25,13-25" style="fill:#f55;"/><path id="uuid-16e6d4d1-62b5-4ff9-95d6-6768b8586d8e" d="m269.5,164.5s6,15,13,25,17,20,17,20c0,0-10,10-17,20s-13,25-13,25c0,0-6-15-13-25s-17-20-17-20c0,0,10-10,17-20s13-25,13-25" style="fill:#f55;"/><path id="uuid-5c939acc-647b-4a24-b81b-179641066414" d="m89.5,284.5s6,15,13,25,17,20,17,20c0,0-10,10-17,20s-13,25-13,25c0,0-6-15-13-25s-17-20-17-20c0,0,10-10,17-20s13-25,13-25" style="fill:#f55;"/><path id="uuid-ba407d3c-a827-4a99-bdd9-0af716fb6b51" d="m269.5,284.5s6,15,13,25,17,20,17,20c0,0-10,10-17,20s-13,25-13,25c0,0-6-15-13-25s-17-20-17-20c0,0,10-10,17-20s13-25,13-25" style="fill:#f55;"/><path id="uuid-61e99863-950a-4daa-90a0-d28edabac620" d="m179.5,344.5s6,15,13,25,17,20,17,20c0,0-10,10-17,20s-13,25-13,25c0,0-6-15-13-25s-17-20-17-20c0,0,10-10,17-20s13-25,13-25" style="fill:#f55;"/><path id="uuid-fc9e566f-16d4-4d88-b4a4-0b98e87674fb" d="m89.5,404.5s6,15,13,25,17,20,17,20c0,0-10,10-17,20s-13,25-13,25c0,0-6-15-13-25s-17-20-17-20c0,0,10-10,17-20s13-25,13-25" style="fill:#f55;"/><path id="uuid-202e812a-1822-4810-a67b-4f66eee3fb49" d="m269.5,404.5s6,15,13,25,17,20,17,20c0,0-10,10-17,20s-13,25-13,25c0,0-6-15-13-25s-17-20-17-20c0,0,10-10,17-20s13-25,13-25" style="fill:#f55;"/><path id="uuid-5a9da1a2-581a-47dd-be1e-d7dbe7de79b3" d="m29.5,89.5s3,7.5,6.5,12.5,8.5,10,8.5,10c0,0-5,5-8.5,10s-6.5,12.5-6.5,12.5c0,0-3-7.5-6.5-12.5s-8.5-10-8.5-10c0,0,5-5,8.5-10s6.5-12.5,6.5-12.5" style="fill:#f55;"/><path id="uuid-24fdf657-cee7-4ae2-8997-c8dd8ffaaf28" d="m329.5,404.5s3,7.5,6.5,12.5,8.5,10,8.5,10c0,0-5,5-8.5,10s-6.5,12.5-6.5,12.5c0,0-3-7.5-6.5-12.5s-8.5-10-8.5-10c0,0,5-5,8.5-10s6.5-12.5,6.5-12.5" style="fill:#f55;"/></g></svg>