<?xml version="1.0" encoding="UTF-8"?><svg id="uuid-2b6ac79c-1d96-4c73-81aa-dbbd7022cdc4" xmlns="http://www.w3.org/2000/svg" viewBox="0 0 359 539"><g id="uuid-7eab2e36-5d9c-46d3-a276-a050d1dc17e1"><g id="uuid-aa690a1a-0999-439f-9ec3-2f90cad58894"><path id="uuid-7525e26f-9a29-45c8-8d1b-b34e3c94dd7e" d="m14.5,29.5l-5,7v7l5-7v43h5V29.5h-5Z" style="fill:#f55;"/><path id="uuid-342c9131-a95c-4c44-aa77-4db18f5b5f55" d="m34.5,29.5c-5.54,0-10,4.46-10,10v30c0,5.54,4.46,10,10,10s10-4.46,10-10v-30c0-5.54-4.46-10-10-10Zm0,5c2.77,0,5,2.23,5,5v30c0,2.77-2.23,5-5,5s-5-2.23-5-5v-30c0-2.77,2.23-5,5-5Z" style="fill:#f55;"/></g><g id="uuid-ca05990f-a141-4b0a-8f69-19ab384dde77"><path id="uuid-abfae83d-9b6c-432d-ad41-0d505121f8cb" d="m344.5,509.5l5-7v-7l-5,7v-43h-5v50h5Z" style="fill:#f55;"/><path id="uuid-0bd80a8f-c6dd-4080-8526-9f7cda86b916" d="m324.5,509.5c5.54,0,10-4.46,10-10v-30c0-5.54-4.46-10-10-10s-10,4.46-10,10v30c0,5.54,4.46,10,10,10Zm0-5c-2.77,0-5-2.23-5-5v-30c0-2.77,2.23-5,5-5s5,2.23,5,5v30c0,2.77-2.23,5-5,5Z" style="fill:#f55;"/></g><path id="uuid-4c60e68b-a7f3-4dfc-adf1-4d86337d71f7" d="m89.5,44.5s6,15,13,25,17,20,17,20c0,0-10,10-17,20s-13,25-13,25c0,0-6-15-13-25s-17-20-17-20c0,0,10-10,17-20s13-25,13-25" style="fill:#f55;"/><path id="uuid-ee0627db-67e3-451a-80bc-8fe6211c1963" d="m269.5,44.5s6,15,13,25,17,20,17,20c0,0-10,10-17,20s-13,25-13,25c0,0-6-15-13-25s-17-20-17-20c0,0,10-10,17-20s13-25,13-25" style="fill:#f55;"/><path id="uuid-1c57a881-b81a-445d-a571-bda9ae0b8e07" d="m179.5,104.5s6,15,13,25,17,20,17,20c0,0-10,10-17,20s-13,25-13,25c0,0-6-15-13-25s-17-20-17-20c0,0,10-10,17-20s13-25,13-25" style="fill:#f55;"/><path id="uuid-69ef1e49-5b88-4dcf-bc43-813abf1e4319" d="m89.5,164.5s6,15,13,25,17,20,17,20c0,0-10,10-17,20s-13,25-13,25c0,0-6-15-13-25s-17-20-17-20c0,0,10-10,17-20s13-25,13-25" style="fill:#f55;"/><path id="uuid-43ec3a86-0147-49d8-bd18-4529e867eadc" d="m269.5,164.5s6,15,13,25,17,20,17,20c0,0-10,10-17,20s-13,25-13,25c0,0-6-15-13-25s-17-20-17-20c0,0,10-10,17-20s13-25,13-25" style="fill:#f55;"/><path id="uuid-3aada524-2b1f-4159-a545-d87c4cdcff59" d="m89.5,284.5s6,15,13,25,17,20,17,20c0,0-10,10-17,20s-13,25-13,25c0,0-6-15-13-25s-17-20-17-20c0,0,10-10,17-20s13-25,13-25" style="fill:#f55;"/><path id="uuid-fd41f271-d17f-43f1-ab18-182fd6997ab5" d="m269.5,284.5s6,15,13,25,17,20,17,20c0,0-10,10-17,20s-13,25-13,25c0,0-6-15-13-25s-17-20-17-20c0,0,10-10,17-20s13-25,13-25" style="fill:#f55;"/><path id="uuid-c1ccdc38-7921-400b-aa20-47211b3b006f" d="m179.5,344.5s6,15,13,25,17,20,17,20c0,0-10,10-17,20s-13,25-13,25c0,0-6-15-13-25s-17-20-17-20c0,0,10-10,17-20s13-25,13-25" style="fill:#f55;"/><path id="uuid-72effe73-935c-4a18-a425-9555702749cd" d="m89.5,404.5s6,15,13,25,17,20,17,20c0,0-10,10-17,20s-13,25-13,25c0,0-6-15-13-25s-17-20-17-20c0,0,10-10,17-20s13-25,13-25" style="fill:#f55;"/><path id="uuid-28913058-587f-4282-b41d-a368d87bc2fe" d="m269.5,404.5s6,15,13,25,17,20,17,20c0,0-10,10-17,20s-13,25-13,25c0,0-6-15-13-25s-17-20-17-20c0,0,10-10,17-20s13-25,13-25" style="fill:#f55;"/><path id="uuid-bda919e8-a3be-4a31-b3bd-0db3bacdd75e" d="m29.5,89.5s3,7.5,6.5,12.5,8.5,10,8.5,10c0,0-5,5-8.5,10s-6.5,12.5-6.5,12.5c0,0-3-7.5-6.5-12.5s-8.5-10-8.5-10c0,0,5-5,8.5-10s6.5-12.5,6.5-12.5" style="fill:#f55;"/><path id="uuid-0158bad9-8e71-45ff-8779-d72437844251" d="m329.5,404.5s3,7.5,6.5,12.5,8.5,10,8.5,10c0,0-5,5-8.5,10s-6.5,12.5-6.5,12.5c0,0-3-7.5-6.5-12.5s-8.5-10-8.5-10c0,0,5-5,8.5-10s6.5-12.5,6.5-12.5" style="fill:#f55;"/></g></svg>