<?xml version="1.0" encoding="UTF-8"?><svg id="uuid-f061b9c3-a288-4a68-bd6e-b8933fd11e73" xmlns="http://www.w3.org/2000/svg" viewBox="0 0 359 539"><g id="uuid-71e65c1e-1b32-4182-9c48-95da6f4533a2"><g id="uuid-22dca856-7e0c-45f7-910b-1f99d0d3351a"><path id="uuid-87a93468-ba1b-450f-bcbb-e9fa686c4fa7" d="m14.5,29.5l-5,7v7l5-7v43h5V29.5h-5Z" style="fill:#f55;"/><path id="uuid-d92cdd98-fd86-45bd-b9dd-388146685f0c" d="m34.5,29.5c-5.54,0-10,4.46-10,10v30c0,5.54,4.46,10,10,10s10-4.46,10-10v-30c0-5.54-4.46-10-10-10Zm0,5c2.77,0,5,2.23,5,5v30c0,2.77-2.23,5-5,5s-5-2.23-5-5v-30c0-2.77,2.23-5,5-5Z" style="fill:#f55;"/></g><g id="uuid-22198cb3-a2e9-4143-9358-80bab30a718c"><path id="uuid-c2976928-2cc8-43f2-a100-4e4e4dbb4ed7" d="m344.5,509.5l5-7v-7l-5,7v-43h-5v50h5Z" style="fill:#f55;"/><path id="uuid-b3559ea2-473f-4326-a166-0eec02573618" d="m324.5,509.5c5.54,0,10-4.46,10-10v-30c0-5.54-4.46-10-10-10s-10,4.46-10,10v30c0,5.54,4.46,10,10,10Zm0-5c-2.77,0-5-2.23-5-5v-30c0-2.77,2.23-5,5-5s5,2.23,5,5v30c0,2.77-2.23,5-5,5Z" style="fill:#f55;"/></g><path id="uuid-5edc5c3b-1011-4dd1-a14f-681492ca98da" d="m29,98.5c0-5.52-2.86-9-7-9s-7.5,4.48-7.5,10c.02.48,0,.95,0,1.41,0,3.65,1.34,7.19,2.5,10.5,1.19,3.41,2.92,6.39,4.53,9.44,2.5,4.72,7.97,13.66,7.97,13.66,0,0,5.47-8.94,7.97-13.66,1.61-3.05,3.34-6.03,4.53-9.44,1.16-3.31,2.5-6.85,2.5-10.5-.01-.49,0-.96,0-1.41,0-5.52-3.36-10-7.5-10s-7,3.48-7,9c0,1-1,1-1,0Z" style="fill:#f55;"/><path id="uuid-f6d34a57-4e5b-468a-b9f5-02cfc2bd1e97" d="m330,440.5c0,5.52,2.86,9,7,9s7.5-4.48,7.5-10c0-.45-.01-.92,0-1.41,0-3.65-1.34-7.19-2.5-10.5-1.19-3.41-2.92-6.39-4.53-9.44-2.5-4.72-7.97-13.66-7.97-13.66,0,0-5.47,8.94-7.97,13.66-1.61,3.05-3.34,6.03-4.53,9.44-1.16,3.31-2.5,6.85-2.5,10.5,0,.46.02.93,0,1.41,0,5.52,3.36,10,7.5,10s7-3.48,7-9c0-1,1-1,1,0Z" style="fill:#f55;"/><path id="uuid-79f15c31-263b-4b90-988f-88f519801d5d" d="m88.5,62.5c0-11.05-5.72-18-14-18s-15,8.95-15,20c.03.96.02,1.89,0,2.81,0,7.3,2.68,14.38,5,21,2.39,6.81,5.83,12.78,9.06,18.88,5,9.44,15.94,27.31,15.94,27.31,0,0,10.94-17.87,15.94-27.31,3.23-6.09,6.67-12.06,9.06-18.88,2.32-6.62,5-13.7,5-21-.03-.97-.02-1.91,0-2.81,0-11.05-6.72-20-15-20s-14,6.95-14,18c0,2-2,2-2,0Z" style="fill:#f55;"/><path id="uuid-b547d0e4-a939-4fea-ac0a-34e2eac244a7" d="m268.5,62.5c0-11.05-5.72-18-14-18s-15,8.95-15,20c.03.96.02,1.89,0,2.81,0,7.3,2.68,14.38,5,21,2.39,6.81,5.83,12.78,9.06,18.88,5,9.44,15.94,27.31,15.94,27.31,0,0,10.94-17.87,15.94-27.31,3.23-6.09,6.67-12.06,9.06-18.88,2.32-6.62,5-13.7,5-21-.03-.97-.02-1.91,0-2.81,0-11.05-6.72-20-15-20s-14,6.95-14,18c0,2-2,2-2,0Z" style="fill:#f55;"/><path id="uuid-99b10ee0-2eb6-4a5c-8726-9e155fb81793" d="m178.5,122.5c0-11.05-5.72-18-14-18s-15,8.95-15,20c.03.96.02,1.89,0,2.81,0,7.3,2.68,14.38,5,21,2.39,6.81,5.83,12.78,9.06,18.88,5,9.44,15.94,27.31,15.94,27.31,0,0,10.94-17.87,15.94-27.31,3.23-6.09,6.67-12.06,9.06-18.88,2.32-6.62,5-13.7,5-21-.03-.97-.02-1.91,0-2.81,0-11.05-6.72-20-15-20s-14,6.95-14,18c0,2-2,2-2,0Z" style="fill:#f55;"/><path id="uuid-a9178eb5-abbd-4249-819f-6b89ae41d220" d="m88.5,182.5c0-11.05-5.72-18-14-18s-15,8.95-15,20c.03.96.02,1.89,0,2.81,0,7.3,2.68,14.38,5,21,2.39,6.81,5.83,12.78,9.06,18.88,5,9.44,15.94,27.31,15.94,27.31,0,0,10.94-17.87,15.94-27.31,3.23-6.09,6.67-12.06,9.06-18.88,2.32-6.62,5-13.7,5-21-.03-.97-.02-1.91,0-2.81,0-11.05-6.72-20-15-20s-14,6.95-14,18c0,2-2,2-2,0Z" style="fill:#f55;"/><path id="uuid-b72c1522-4f97-44d9-a4c6-29952b8c4eed" d="m268.5,182.5c0-11.05-5.72-18-14-18s-15,8.95-15,20c.03.96.02,1.89,0,2.81,0,7.3,2.68,14.38,5,21,2.39,6.81,5.83,12.78,9.06,18.88,5,9.44,15.94,27.31,15.94,27.31,0,0,10.94-17.87,15.94-27.31,3.23-6.09,6.67-12.06,9.06-18.88,2.32-6.62,5-13.7,5-21-.03-.97-.02-1.91,0-2.81,0-11.05-6.72-20-15-20s-14,6.95-14,18c0,2-2,2-2,0Z" style="fill:#f55;"/><path id="uuid-808b520b-9063-4c66-9e4f-9271a438331f" d="m90.5,356.5c0,11.05,5.72,18,14,18s15-8.95,15-20c-.02-.9-.03-1.84,0-2.81,0-7.3-2.68-14.38-5-21-2.39-6.81-5.83-12.78-9.06-18.88-5-9.44-15.94-27.31-15.94-27.31,0,0-10.94,17.87-15.94,27.31-3.23,6.09-6.67,12.06-9.06,18.88-2.32,6.62-5,13.7-5,21,.02.92.03,1.86,0,2.81,0,11.05,6.72,20,15,20s14-6.95,14-18c0-2,2-2,2,0Z" style="fill:#f55;"/><path id="uuid-a2eda52d-f08b-440e-aaa7-ec95313e7b2e" d="m270.5,356.5c0,11.05,5.72,18,14,18s15-8.95,15-20c-.02-.9-.03-1.84,0-2.81,0-7.3-2.68-14.38-5-21-2.39-6.81-5.83-12.78-9.06-18.88-5-9.44-15.94-27.31-15.94-27.31,0,0-10.94,17.87-15.94,27.31-3.23,6.09-6.67,12.06-9.06,18.88-2.32,6.62-5,13.7-5,21,.02.92.03,1.86,0,2.81,0,11.05,6.72,20,15,20s14-6.95,14-18c0-2,2-2,2,0Z" style="fill:#f55;"/><path id="uuid-b77b2d2b-9a52-444a-b94c-8e123e6bb63a" d="m180.5,416.5c0,11.05,5.72,18,14,18s15-8.95,15-20c-.02-.9-.03-1.84,0-2.81,0-7.3-2.68-14.38-5-21-2.39-6.81-5.83-12.78-9.06-18.88-5-9.44-15.94-27.31-15.94-27.31,0,0-10.94,17.87-15.94,27.31-3.23,6.09-6.67,12.06-9.06,18.88-2.32,6.62-5,13.7-5,21,.02.92.03,1.86,0,2.81,0,11.05,6.72,20,15,20s14-6.95,14-18c0-2,2-2,2,0Z" style="fill:#f55;"/><path id="uuid-dc074fd7-e679-4d53-b865-eac4f810fb9b" d="m90.5,476.5c0,11.05,5.72,18,14,18s15-8.95,15-20c-.02-.9-.03-1.84,0-2.81,0-7.3-2.68-14.38-5-21-2.39-6.81-5.83-12.78-9.06-18.88-5-9.44-15.94-27.31-15.94-27.31,0,0-10.94,17.87-15.94,27.31-3.23,6.09-6.67,12.06-9.06,18.88-2.32,6.62-5,13.7-5,21,.02.92.03,1.86,0,2.81,0,11.05,6.72,20,15,20s14-6.95,14-18c0-2,2-2,2,0Z" style="fill:#f55;"/><path id="uuid-dc25b444-9cd3-4705-99b8-90db9df989c1" d="m270.5,476.5c0,11.05,5.72,18,14,18s15-8.95,15-20c-.02-.9-.03-1.84,0-2.81,0-7.3-2.68-14.38-5-21-2.39-6.81-5.83-12.78-9.06-18.88-5-9.44-15.94-27.31-15.94-27.31,0,0-10.94,17.87-15.94,27.31-3.23,6.09-6.67,12.06-9.06,18.88-2.32,6.62-5,13.7-5,21,.02.92.03,1.86,0,2.81,0,11.05,6.72,20,15,20s14-6.95,14-18c0-2,2-2,2,0Z" style="fill:#f55;"/></g></svg>