<?xml version="1.0" encoding="UTF-8"?><svg id="uuid-81b94e5a-23d0-41fe-9928-4d47af412da6" xmlns="http://www.w3.org/2000/svg" viewBox="0 0 359 539"><g id="uuid-05e2894b-b39a-477e-848d-39a72b91f5fc"><path id="uuid-a33d4b83-0b9d-4057-8591-b678323ce2a0" d="m29.5,29.5c-5.54,0-10,4.46-10,10v5h5v-5c0-2.77,2.23-5,5-5s5,2.23,5,5v5c0,1.13-.38,3.07-1,3.9-4.46,9.1-9.28,17.13-14,26.1v5h20v-10h-5v5h-9.5c4.49-7.92,8.22-15.57,12.5-23.6,1.25-1.67,2-4.14,2-6.4v-5c0-5.54-4.46-10-10-10Z" style="fill:#f55;"/><path id="uuid-d20d281f-5613-4787-ac7f-32e171c42e16" d="m329.5,509.5c5.54,0,10-4.46,10-10v-5h-5v5c0,2.77-2.23,5-5,5s-5-2.23-5-5v-5c0-1.13.38-3.07,1-3.9,4.46-9.1,9.28-17.13,14-26.1v-5h-20v10h5v-5h9.5c-4.49,7.92-8.22,15.57-12.5,23.6-1.25,1.67-2,4.14-2,6.4v5c0,5.54,4.46,10,10,10Z" style="fill:#f55;"/><path id="uuid-33f8f373-4cfb-4bec-a40d-b1d1378e13d6" d="m29,98.5c0-5.52-2.86-9-7-9s-7.5,4.48-7.5,10c.02.48,0,.95,0,1.41,0,3.65,1.34,7.19,2.5,10.5,1.19,3.41,2.92,6.39,4.53,9.44,2.5,4.72,7.97,13.66,7.97,13.66,0,0,5.47-8.94,7.97-13.66,1.61-3.05,3.34-6.03,4.53-9.44,1.16-3.31,2.5-6.85,2.5-10.5-.01-.49,0-.96,0-1.41,0-5.52-3.36-10-7.5-10s-7,3.48-7,9c0,1-1,1-1,0Z" style="fill:#f55;"/><path id="uuid-0b7ac77f-b03c-4a16-924f-d1693effb034" d="m330,440.5c0,5.52,2.86,9,7,9s7.5-4.48,7.5-10c0-.45-.01-.92,0-1.41,0-3.65-1.34-7.19-2.5-10.5-1.19-3.41-2.92-6.39-4.53-9.44-2.5-4.72-7.97-13.66-7.97-13.66,0,0-5.47,8.94-7.97,13.66-1.61,3.05-3.34,6.03-4.53,9.44-1.16,3.31-2.5,6.85-2.5,10.5,0,.46.02.93,0,1.41,0,5.52,3.36,10,7.5,10s7-3.48,7-9c0-1,1-1,1,0Z" style="fill:#f55;"/><path id="uuid-458035d3-0e5d-408b-bb77-5d77aea1d92e" d="m178.5,62.5c0-11.05-5.72-18-14-18s-15,8.95-15,20c.03.96.02,1.89,0,2.81,0,7.3,2.68,14.38,5,21,2.39,6.81,5.83,12.78,9.06,18.88,5,9.44,15.94,27.31,15.94,27.31,0,0,10.94-17.87,15.94-27.31,3.23-6.09,6.67-12.06,9.06-18.87,2.32-6.62,5-13.7,5-21-.03-.97-.02-1.91,0-2.81,0-11.05-6.72-20-15-20s-14,6.95-14,18c0,2-2,2-2,0Z" style="fill:#f55;"/><path id="uuid-8f608a8d-5c35-400b-9a8a-2f888d6964a1" d="m180.5,476.5c0,11.05,5.72,18,14,18s15-8.95,15-20c-.02-.9-.03-1.84,0-2.81,0-7.3-2.68-14.38-5-21-2.39-6.81-5.83-12.78-9.06-18.88-5-9.44-15.94-27.31-15.94-27.31,0,0-10.94,17.87-15.94,27.31-3.23,6.09-6.67,12.06-9.06,18.88-2.32,6.62-5,13.7-5,21,.02.92.03,1.86,0,2.81,0,11.05,6.72,20,15,20s14-6.95,14-18c0-2,2-2,2,0Z" style="fill:#f55;"/></g></svg>