<?xml version="1.0" encoding="UTF-8"?><svg id="uuid-944bc623-0d08-4dbd-9657-294e9ab7a39f" xmlns="http://www.w3.org/2000/svg" viewBox="0 0 359 539"><g id="uuid-83dba806-6d23-424a-80c6-8992cdadd7e8"><path id="uuid-20bac0e0-f825-4cfa-9086-6e6e38c5d7eb" d="m29.5,29.5c-5.54,0-10,4.46-10,10v5h5v-5c0-2.77,2.23-5,5-5s5,2.23,5,5v5c0,1.13-.38,3.07-1,3.9-4.46,9.1-9.28,17.13-14,26.1v5h20v-10h-5v5h-9.5c4.49-7.92,8.22-15.57,12.5-23.6,1.25-1.67,2-4.14,2-6.4v-5c0-5.54-4.46-10-10-10Z" style="fill:#f55;"/><path id="uuid-3f18004c-4768-4088-89ee-b5ee1ac95f87" d="m329.5,509.5c5.54,0,10-4.46,10-10v-5h-5v5c0,2.77-2.23,5-5,5s-5-2.23-5-5v-5c0-1.13.38-3.07,1-3.9,4.46-9.1,9.28-17.13,14-26.1v-5h-20v10h5v-5h9.5c-4.49,7.92-8.22,15.57-12.5,23.6-1.25,1.67-2,4.14-2,6.4v5c0,5.54,4.46,10,10,10Z" style="fill:#f55;"/><path id="uuid-0c460c85-8a3d-408c-8614-808667e6e842" d="m179.5,44.5s6,15,13,25,17,20,17,20c0,0-10,10-17,20s-13,25-13,25c0,0-6-15-13-25s-17-20-17-20c0,0,10-10,17-20s13-25,13-25" style="fill:#f55;"/><path id="uuid-2e178f00-6bd1-4be3-9f11-6dea5c73e591" d="m179.5,404.5s6,15,13,25,17,20,17,20c0,0-10,10-17,20s-13,25-13,25c0,0-6-15-13-25s-17-20-17-20c0,0,10-10,17-20s13-25,13-25" style="fill:#f55;"/><path id="uuid-e4049640-a32d-4f17-ae0b-cdc58bc971f1" d="m29.5,89.5s3,7.5,6.5,12.5,8.5,10,8.5,10c0,0-5,5-8.5,10s-6.5,12.5-6.5,12.5c0,0-3-7.5-6.5-12.5s-8.5-10-8.5-10c0,0,5-5,8.5-10s6.5-12.5,6.5-12.5" style="fill:#f55;"/><path id="uuid-8e764dbc-7bfb-4094-be76-41e1648912d3" d="m329.5,404.5s3,7.5,6.5,12.5,8.5,10,8.5,10c0,0-5,5-8.5,10s-6.5,12.5-6.5,12.5c0,0-3-7.5-6.5-12.5s-8.5-10-8.5-10c0,0,5-5,8.5-10s6.5-12.5,6.5-12.5" style="fill:#f55;"/></g></svg>