<?xml version="1.0" encoding="UTF-8"?><svg id="uuid-dd6f6e98-d96d-45fd-9f04-18630a181d53" xmlns="http://www.w3.org/2000/svg" viewBox="0 0 359 539"><g id="uuid-c20e1feb-6504-47ef-ba49-744ce1833da6"><path id="uuid-d836ffd6-53cb-4809-8d41-6a5afc5e235d" d="m29.5,29.5c-5.54,0-10,4.46-10,10v5h5v-5c0-2.77,2.23-5,5-5s5,2.23,5,5v5c0,1.13-.38,3.07-1,3.9-4.46,9.1-9.28,17.13-14,26.1v5h20v-10h-5v5h-9.5c4.49-7.92,8.22-15.57,12.5-23.6,1.25-1.67,2-4.14,2-6.4v-5c0-5.54-4.46-10-10-10Z" style="fill:#f55;"/><path id="uuid-f61ae84d-8e3c-4aa6-8936-7c777de4f688" d="m329.5,509.5c5.54,0,10-4.46,10-10v-5h-5v5c0,2.77-2.23,5-5,5s-5-2.23-5-5v-5c0-1.13.38-3.07,1-3.9,4.46-9.1,9.28-17.13,14-26.1v-5h-20v10h5v-5h9.5c-4.49,7.92-8.22,15.57-12.5,23.6-1.25,1.67-2,4.14-2,6.4v5c0,5.54,4.46,10,10,10Z" style="fill:#f55;"/><path id="uuid-0637ee2b-7961-4879-8a4a-71e155730a9c" d="m179.5,44.5s6,15,13,25,17,20,17,20c0,0-10,10-17,20s-13,25-13,25c0,0-6-15-13-25s-17-20-17-20c0,0,10-10,17-20s13-25,13-25" style="fill:#f55;"/><path id="uuid-65bccca9-2a21-42cf-84f7-b47840115363" d="m179.5,404.5s6,15,13,25,17,20,17,20c0,0-10,10-17,20s-13,25-13,25c0,0-6-15-13-25s-17-20-17-20c0,0,10-10,17-20s13-25,13-25" style="fill:#f55;"/><path id="uuid-ce513645-53af-481f-b150-073b418465a2" d="m29.5,89.5s3,7.5,6.5,12.5,8.5,10,8.5,10c0,0-5,5-8.5,10s-6.5,12.5-6.5,12.5c0,0-3-7.5-6.5-12.5s-8.5-10-8.5-10c0,0,5-5,8.5-10s6.5-12.5,6.5-12.5" style="fill:#f55;"/><path id="uuid-6bb5fc7d-59ab-4874-b76b-c536353384df" d="m329.5,404.5s3,7.5,6.5,12.5,8.5,10,8.5,10c0,0-5,5-8.5,10s-6.5,12.5-6.5,12.5c0,0-3-7.5-6.5-12.5s-8.5-10-8.5-10c0,0,5-5,8.5-10s6.5-12.5,6.5-12.5" style="fill:#f55;"/></g></svg>