<?xml version="1.0" encoding="UTF-8"?><svg id="Layer_1" xmlns="http://www.w3.org/2000/svg" viewBox="0 0 359 539"><defs><style>.cls-1{fill:#f55;}</style></defs><g id="g3042"><path id="rect3163-5-1-4-3-4-0-8" class="cls-1" d="m29.5,29.5c-5.54,0-10,4.46-10,10v5h5v-5c0-2.77,2.23-5,5-5s5,2.23,5,5v5c0,2.77-2.23,5-5,5h-5v5h5c2.77,0,5,2.23,5,5v10c0,2.77-2.23,5-5,5s-5-2.23-5-5v-5h-5v5c0,5.54,4.46,10,10,10s10-4.46,10-10v-10c0-3-1.32-5.67-3.41-7.5,2.08-1.83,3.41-4.5,3.41-7.5v-5c0-5.54-4.46-10-10-10Z"/><path id="rect3163-5-1-4-3-4-0-4-2" class="cls-1" d="m329.5,509.5c5.54,0,10-4.46,10-10v-5h-5v5c0,2.77-2.23,5-5,5s-5-2.23-5-5v-5c0-2.77,2.23-5,5-5h5v-5h-5c-2.77,0-5-2.23-5-5v-10c0-2.77,2.23-5,5-5s5,2.23,5,5v5h5v-5c0-5.54-4.46-10-10-10s-10,4.46-10,10v10c0,3,1.32,5.67,3.41,7.5-2.08,1.83-3.41,4.5-3.41,7.5v5c0,5.54,4.46,10,10,10h0Z"/><path id="path3204-24-1-52" class="cls-1" d="m29.5,89.5s3,7.5,6.5,12.5,8.5,10,8.5,10c0,0-5,5-8.5,10s-6.5,12.5-6.5,12.5c0,0-3-7.5-6.5-12.5s-8.5-10-8.5-10c0,0,5-5,8.5-10s6.5-12.5,6.5-12.5"/><path id="path3204-24-1-1-0" class="cls-1" d="m329.5,404.5s3,7.5,6.5,12.5,8.5,10,8.5,10c0,0-5,5-8.5,10s-6.5,12.5-6.5,12.5c0,0-3-7.5-6.5-12.5s-8.5-10-8.5-10c0,0,5-5,8.5-10s6.5-12.5,6.5-12.5"/><path id="path3204-24-4-3" class="cls-1" d="m179.5,44.5s6,15,13,25,17,20,17,20c0,0-10,10-17,20s-13,25-13,25c0,0-6-15-13-25s-17-20-17-20c0,0,10-10,17-20s13-25,13-25"/><path id="path3204-24-72" class="cls-1" d="m179.5,224.5s6,15,13,25,17,20,17,20c0,0-10,10-17,20s-13,25-13,25c0,0-6-15-13-25s-17-20-17-20c0,0,10-10,17-20s13-25,13-25"/><path id="path3204-24-0-97" class="cls-1" d="m179.5,404.5s6,15,13,25,17,20,17,20c0,0-10,10-17,20s-13,25-13,25c0,0-6-15-13-25s-17-20-17-20c0,0,10-10,17-20s13-25,13-25"/></g></svg>