<?xml version="1.0" encoding="UTF-8"?><svg id="uuid-35e34a97-75ea-4a75-8323-f11e72c62fdc" xmlns="http://www.w3.org/2000/svg" viewBox="0 0 359 539"><g id="uuid-3e9fab8d-f1e4-4260-85db-7e6ab03ca8e7"><path id="uuid-ebb25d15-b08c-4714-84bd-70d3ff8fd0f7" d="m29.5,29.5c-5.54,0-10,4.46-10,10v5h5v-5c0-2.77,2.23-5,5-5s5,2.23,5,5v5c0,2.77-2.23,5-5,5h-5v5h5c2.77,0,5,2.23,5,5v10c0,2.77-2.23,5-5,5s-5-2.23-5-5v-5h-5v5c0,5.54,4.46,10,10,10s10-4.46,10-10v-10c0-3-1.32-5.67-3.41-7.5,2.08-1.83,3.41-4.5,3.41-7.5v-5c0-5.54-4.46-10-10-10Z" style="fill:#f55;"/><path id="uuid-51d558ca-8e1f-4eff-8d2c-3cee0b5c9489" d="m329.5,509.5c5.54,0,10-4.46,10-10v-5h-5v5c0,2.77-2.23,5-5,5s-5-2.23-5-5v-5c0-2.77,2.23-5,5-5h5v-5h-5c-2.77,0-5-2.23-5-5v-10c0-2.77,2.23-5,5-5s5,2.23,5,5v5h5v-5c0-5.54-4.46-10-10-10s-10,4.46-10,10v10c0,3,1.32,5.67,3.41,7.5-2.08,1.83-3.41,4.5-3.41,7.5v5c0,5.54,4.46,10,10,10h0Z" style="fill:#f55;"/><path id="uuid-a23b1c9c-8bce-4137-8006-ab7490f56975" d="m29.5,89.5s3,7.5,6.5,12.5,8.5,10,8.5,10c0,0-5,5-8.5,10s-6.5,12.5-6.5,12.5c0,0-3-7.5-6.5-12.5s-8.5-10-8.5-10c0,0,5-5,8.5-10s6.5-12.5,6.5-12.5" style="fill:#f55;"/><path id="uuid-56666bc8-1f62-4e3f-a3be-6803b4880036" d="m329.5,404.5s3,7.5,6.5,12.5,8.5,10,8.5,10c0,0-5,5-8.5,10s-6.5,12.5-6.5,12.5c0,0-3-7.5-6.5-12.5s-8.5-10-8.5-10c0,0,5-5,8.5-10s6.5-12.5,6.5-12.5" style="fill:#f55;"/><path id="uuid-c2c08049-4b58-4418-bd02-c2e64108ca38" d="m179.5,44.5s6,15,13,25,17,20,17,20c0,0-10,10-17,20s-13,25-13,25c0,0-6-15-13-25s-17-20-17-20c0,0,10-10,17-20s13-25,13-25" style="fill:#f55;"/><path id="uuid-818ffe15-3546-44e9-bd11-c6c00ee5af57" d="m179.5,224.5s6,15,13,25,17,20,17,20c0,0-10,10-17,20s-13,25-13,25c0,0-6-15-13-25s-17-20-17-20c0,0,10-10,17-20s13-25,13-25" style="fill:#f55;"/><path id="uuid-f47f78c3-f19d-4b68-a98a-97bdee9bff2f" d="m179.5,404.5s6,15,13,25,17,20,17,20c0,0-10,10-17,20s-13,25-13,25c0,0-6-15-13-25s-17-20-17-20c0,0,10-10,17-20s13-25,13-25" style="fill:#f55;"/></g></svg>