<?xml version="1.0" encoding="UTF-8"?><svg id="Layer_1" xmlns="http://www.w3.org/2000/svg" viewBox="0 0 359 539"><g id="g3079"><path id="rect3980-7-6-2-9-9-2" d="m29.5,29.5l-10,35v5h12v10h5v-10h3v-5h-3v-15h-5v15h-6.8l10-35h-5.2Z"/><path id="rect3980-7-6-2-9-9-8-2" d="m329.5,509.5l10-35v-5h-12v-10h-5v10h-3v5h3v15h5v-15h6.8l-10,35h5.2Z"/><path id="path3037-7-4-7-6" d="m32,117.5c.5,2,2.5,7,6,7,4.5,0,6.5-4,6.5-9,0-3.5-1.29-5.81-2.5-8.5-1.29-2.87-3.19-5.43-5-8-2.32-3.3-7.5-9.5-7.5-9.5,0,0-5.18,6.2-7.5,9.5-1.81,2.57-3.71,5.13-5,8-1.21,2.69-2.5,5-2.5,8.5,0,5,2,9,6.5,9,3.5,0,5.5-5,6-7,.5-.5.5,0,.5.5-.5,4-.5,5-1,8s-2,8.5-2,8.5c2.5-1,7.5-1,10,0,0,0-1.5-5.5-2-8.5s-.5-4-1-8c0-.5,0-1,.5-.5Z"/><path id="path3037-7-4-4-4" d="m332,421.5c.5-2,2.5-7,6-7,4.5,0,6.5,4,6.5,9,0,3.5-1.29,5.81-2.5,8.5-1.29,2.87-3.19,5.43-5,8-2.32,3.3-7.5,9.5-7.5,9.5,0,0-5.18-6.2-7.5-9.5-1.81-2.57-3.71-5.13-5-8-1.21-2.69-2.5-5-2.5-8.5,0-5,2-9,6.5-9,3.5,0,5.5,5,6,7,.5.5.5,0,.5-.5-.5-4-.5-5-1-8s-2-8.5-2-8.5c2.5,1,7.5,1,10,0,0,0-1.5,5.5-2,8.5s-.5,4-1,8c0,.5,0,1,.5.5Z"/><g id="g3027"><path id="path3029" d="m94.51,100.48c.99,4,5,14.03,11.98,14.03,9,0,13-8.01,13-18,0-7.02-2.55-11.62-5-17.01-2.59-5.74-6.38-10.88-9.99-16.02-4.64-6.59-14.99-18.99-14.99-18.99,0,0-10.38,12.4-15.02,18.99-3.61,5.14-7.41,10.28-9.99,16.02-2.41,5.39-5,9.99-5,17.01,0,9.99,4,18,13,18,6.98,0,10.98-10.03,12.01-14.03.99-.99.99,0,.99,1.03-.99,7.97-.99,9.99-2.02,15.98-.99,6.02-4,17.01-4,17.01,5.03-1.98,15.02-1.98,20.02,0,0,0-3.01-10.98-4-17.01-.99-5.99-.99-8.01-1.98-15.98,0-1.03,0-2.02.99-1.03Z"/></g><g id="g3041"><path id="path3043" d="m274.51,100.48c.99,4,5,14.03,11.98,14.03,9,0,13-8.01,13-18,0-7.02-2.55-11.62-5-17.01-2.59-5.74-6.38-10.88-9.99-16.02-4.64-6.59-14.99-18.99-14.99-18.99,0,0-10.38,12.4-15.02,18.99-3.61,5.14-7.41,10.28-9.99,16.02-2.41,5.39-5,9.99-5,17.01,0,9.99,4,18,13,18,6.98,0,10.98-10.03,12.01-14.03.99-.99.99,0,.99,1.03-.99,7.97-.99,9.99-2.02,15.98-.99,6.02-4,17.01-4,17.01,5.03-1.98,15.02-1.98,20.02,0,0,0-3.01-10.98-4-17.01-.99-5.99-.99-8.01-1.98-15.98,0-1.03,0-2.02.99-1.03Z"/></g><g id="g3055"><path id="path3057" d="m94.51,438.52c.99-4,5-14.03,11.98-14.03,9,0,13,8.01,13,18,0,7.02-2.55,11.62-5,17.01-2.59,5.74-6.38,10.88-9.99,16.02-4.64,6.59-14.99,18.99-14.99,18.99,0,0-10.38-12.4-15.02-18.99-3.61-5.14-7.41-10.28-9.99-16.02-2.41-5.39-5-9.99-5-17.01,0-9.99,4-18,13-18,6.98,0,10.98,10.03,12.01,14.03.99.99.99,0,.99-1.03-.99-7.97-.99-9.99-2.02-15.98-.99-6.02-4-17.01-4-17.01,5.03,1.98,15.02,1.98,20.02,0,0,0-3.01,10.98-4,17.01-.99,5.99-.99,8.01-1.98,15.98,0,1.03,0,2.02.99,1.03Z"/></g><g id="g3069"><path id="path3071" d="m274.51,438.52c.99-4,5-14.03,11.98-14.03,9,0,13,8.01,13,18,0,7.02-2.55,11.62-5,17.01-2.59,5.74-6.38,10.88-9.99,16.02-4.64,6.59-14.99,18.99-14.99,18.99,0,0-10.38-12.4-15.02-18.99-3.61-5.14-7.41-10.28-9.99-16.02-2.41-5.39-5-9.99-5-17.01,0-9.99,4-18,13-18,6.98,0,10.98,10.03,12.01,14.03.99.99.99,0,.99-1.03-.99-7.97-.99-9.99-2.02-15.98-.99-6.02-4-17.01-4-17.01,5.03,1.98,15.02,1.98,20.02,0,0,0-3.01,10.98-4,17.01-.99,5.99-.99,8.01-1.98,15.98,0,1.03,0,2.02.99,1.03Z"/></g></g></svg>