<?xml version="1.0" encoding="UTF-8"?><svg id="uuid-c4b48478-e0ed-45e4-8fcc-3e9ed65fb7d4" xmlns="http://www.w3.org/2000/svg" viewBox="0 0 359 539"><g id="uuid-a233546d-452f-48ae-ac40-defe147ede14"><path id="uuid-07c34ae2-b0c7-4888-8ef3-8ea329b1652e" d="m29.5,29.5l-10,35v5h12v10h5v-10h3v-5h-3v-15h-5v15h-6.8l10-35h-5.2Z"/><path id="uuid-eff0717a-cf5f-405a-ad49-1216b4d7483e" d="m329.5,509.5l10-35v-5h-12v-10h-5v10h-3v5h3v15h5v-15h6.8l-10,35h5.2Z"/><path id="uuid-e0936161-0960-4957-845b-733bb892d386" d="m32,117.5c.5,2,2.5,7,6,7,4.5,0,6.5-4,6.5-9,0-3.5-1.29-5.81-2.5-8.5-1.29-2.87-3.19-5.43-5-8-2.32-3.3-7.5-9.5-7.5-9.5,0,0-5.18,6.2-7.5,9.5-1.81,2.57-3.71,5.13-5,8-1.21,2.69-2.5,5-2.5,8.5,0,5,2,9,6.5,9,3.5,0,5.5-5,6-7,.5-.5.5,0,.5.5-.5,4-.5,5-1,8s-2,8.5-2,8.5c2.5-1,7.5-1,10,0,0,0-1.5-5.5-2-8.5s-.5-4-1-8c0-.5,0-1,.5-.5Z"/><path id="uuid-15412173-5cf4-4bda-86a2-6bb26961f32f" d="m332,421.5c.5-2,2.5-7,6-7,4.5,0,6.5,4,6.5,9,0,3.5-1.29,5.81-2.5,8.5-1.29,2.87-3.19,5.43-5,8-2.32,3.3-7.5,9.5-7.5,9.5,0,0-5.18-6.2-7.5-9.5-1.81-2.57-3.71-5.13-5-8-1.21-2.69-2.5-5-2.5-8.5,0-5,2-9,6.5-9,3.5,0,5.5,5,6,7,.5.5.5,0,.5-.5-.5-4-.5-5-1-8s-2-8.5-2-8.5c2.5,1,7.5,1,10,0,0,0-1.5,5.5-2,8.5s-.5,4-1,8c0,.5,0,1,.5.5Z"/><g id="uuid-857c7b18-bd19-4cf5-86e8-9419fa25944c"><path id="uuid-e0f666f7-ed72-41ec-a839-5b0853bf2e00" d="m94.51,100.48c.99,4,5,14.03,11.98,14.03,9,0,13-8.01,13-18,0-7.02-2.55-11.62-5-17.01-2.59-5.74-6.38-10.88-9.99-16.02-4.64-6.59-14.99-18.99-14.99-18.99,0,0-10.38,12.4-15.02,18.99-3.61,5.14-7.41,10.28-9.99,16.02-2.41,5.39-5,9.99-5,17.01,0,9.99,4,18,13,18,6.98,0,10.98-10.03,12.01-14.03.99-.99.99,0,.99,1.03-.99,7.97-.99,9.99-2.02,15.98-.99,6.02-4,17.01-4,17.01,5.03-1.98,15.02-1.98,20.02,0,0,0-3.01-10.98-4-17.01-.99-5.99-.99-8.01-1.98-15.98,0-1.03,0-2.02.99-1.03Z"/></g><g id="uuid-a7dc4dd8-bc53-4fe9-a310-1ca8ded68a9d"><path id="uuid-05dac2b1-142c-4b12-a7af-197f5f0e5ae5" d="m274.51,100.48c.99,4,5,14.03,11.98,14.03,9,0,13-8.01,13-18,0-7.02-2.55-11.62-5-17.01-2.59-5.74-6.38-10.88-9.99-16.02-4.64-6.59-14.99-18.99-14.99-18.99,0,0-10.38,12.4-15.02,18.99-3.61,5.14-7.41,10.28-9.99,16.02-2.41,5.39-5,9.99-5,17.01,0,9.99,4,18,13,18,6.98,0,10.98-10.03,12.01-14.03.99-.99.99,0,.99,1.03-.99,7.97-.99,9.99-2.02,15.98-.99,6.02-4,17.01-4,17.01,5.03-1.98,15.02-1.98,20.02,0,0,0-3.01-10.98-4-17.01-.99-5.99-.99-8.01-1.98-15.98,0-1.03,0-2.02.99-1.03Z"/></g><g id="uuid-6ebc3cd6-c8c1-4385-aa74-54c7d4a43aa0"><path id="uuid-07c5aa55-9b0e-45de-90a9-24c518a9a5ad" d="m94.51,438.52c.99-4,5-14.03,11.98-14.03,9,0,13,8.01,13,18,0,7.02-2.55,11.62-5,17.01-2.59,5.74-6.38,10.88-9.99,16.02-4.64,6.59-14.99,18.99-14.99,18.99,0,0-10.38-12.4-15.02-18.99-3.61-5.14-7.41-10.28-9.99-16.02-2.41-5.39-5-9.99-5-17.01,0-9.99,4-18,13-18,6.98,0,10.98,10.03,12.01,14.03.99.99.99,0,.99-1.03-.99-7.97-.99-9.99-2.02-15.98-.99-6.02-4-17.01-4-17.01,5.03,1.98,15.02,1.98,20.02,0,0,0-3.01,10.98-4,17.01-.99,5.99-.99,8.01-1.98,15.98,0,1.03,0,2.02.99,1.03Z"/></g><g id="uuid-a34b218e-a8ca-47be-a93c-780ff6fcbb40"><path id="uuid-bcd34715-b66b-481f-8dd6-3e2e54897bcf" d="m274.51,438.52c.99-4,5-14.03,11.98-14.03,9,0,13,8.01,13,18,0,7.02-2.55,11.62-5,17.01-2.59,5.74-6.38,10.88-9.99,16.02-4.64,6.59-14.99,18.99-14.99,18.99,0,0-10.38-12.4-15.02-18.99-3.61-5.14-7.41-10.28-9.99-16.02-2.41-5.39-5-9.99-5-17.01,0-9.99,4-18,13-18,6.98,0,10.98,10.03,12.01,14.03.99.99.99,0,.99-1.03-.99-7.97-.99-9.99-2.02-15.98-.99-6.02-4-17.01-4-17.01,5.03,1.98,15.02,1.98,20.02,0,0,0-3.01,10.98-4,17.01-.99,5.99-.99,8.01-1.98,15.98,0,1.03,0,2.02.99,1.03Z"/></g></g></svg>