<?xml version="1.0" encoding="UTF-8"?><svg id="uuid-0ae6ced1-34e8-4f04-9afe-a1d8237caa54" xmlns="http://www.w3.org/2000/svg" viewBox="0 0 359 539"><g id="uuid-4c1794af-89f1-4429-bf5d-5ab40b46852a"><path id="uuid-35e4acf6-88bb-4eee-a8c5-755d3009688c" d="m29.5,29.5l-10,35v5h12v10h5v-10h3v-5h-3v-15h-5v15h-6.8l10-35h-5.2Z" style="fill:#f55;"/><path id="uuid-ca524b3d-7671-41d6-849e-cb64e1775f52" d="m329.5,509.5l10-35v-5h-12v-10h-5v10h-3v5h3v15h5v-15h6.8l-10,35h5.2Z" style="fill:#f55;"/><path id="uuid-95566e84-d02e-4101-bfe9-9d09a7c392d3" d="m29,98.5c0-5.52-2.86-9-7-9s-7.5,4.48-7.5,10c.02.48,0,.95,0,1.41,0,3.65,1.34,7.19,2.5,10.5,1.19,3.41,2.92,6.39,4.53,9.44,2.5,4.72,7.97,13.66,7.97,13.66,0,0,5.47-8.94,7.97-13.66,1.61-3.05,3.34-6.03,4.53-9.44,1.16-3.31,2.5-6.85,2.5-10.5-.01-.49,0-.96,0-1.41,0-5.52-3.36-10-7.5-10s-7,3.48-7,9c0,1-1,1-1,0Z" style="fill:#f55;"/><path id="uuid-884f7409-4a8a-47c7-b7b3-e6257c663a64" d="m330,440.5c0,5.52,2.86,9,7,9s7.5-4.48,7.5-10c0-.45-.01-.92,0-1.41,0-3.65-1.34-7.19-2.5-10.5-1.19-3.41-2.92-6.39-4.53-9.44-2.5-4.72-7.97-13.66-7.97-13.66,0,0-5.47,8.94-7.97,13.66-1.61,3.05-3.34,6.03-4.53,9.44-1.16,3.31-2.5,6.85-2.5,10.5,0,.46.02.93,0,1.41,0,5.52,3.36,10,7.5,10s7-3.48,7-9c0-1,1-1,1,0Z" style="fill:#f55;"/><path id="uuid-baa7ed08-ce0d-430b-85b0-ee9629804117" d="m88.5,62.5c0-11.05-5.72-18-14-18s-15,8.95-15,20c.03.96.02,1.89,0,2.81,0,7.3,2.68,14.38,5,21,2.39,6.81,5.83,12.78,9.06,18.88,5,9.44,15.94,27.31,15.94,27.31,0,0,10.94-17.87,15.94-27.31,3.23-6.09,6.67-12.06,9.06-18.88,2.32-6.62,5-13.7,5-21-.03-.97-.02-1.91,0-2.81,0-11.05-6.72-20-15-20s-14,6.95-14,18c0,2-2,2-2,0Z" style="fill:#f55;"/><path id="uuid-2d9af11c-4cdf-4e7d-a178-f5b357203590" d="m268.5,62.5c0-11.05-5.72-18-14-18s-15,8.95-15,20c.03.96.02,1.89,0,2.81,0,7.3,2.68,14.38,5,21,2.39,6.81,5.83,12.78,9.06,18.87,5,9.44,15.94,27.31,15.94,27.31,0,0,10.94-17.87,15.94-27.31,3.23-6.09,6.67-12.06,9.06-18.88,2.32-6.62,5-13.7,5-21-.03-.97-.02-1.91,0-2.81,0-11.05-6.72-20-15-20s-14,6.95-14,18c0,2-2,2-2,0Z" style="fill:#f55;"/><path id="uuid-f274384c-cf4c-4e47-9a52-3e6ea8f494db" d="m90.5,476.5c0,11.05,5.72,18,14,18s15-8.95,15-20c-.02-.9-.03-1.84,0-2.81,0-7.3-2.68-14.38-5-21-2.39-6.81-5.83-12.78-9.06-18.88-5-9.44-15.94-27.31-15.94-27.31,0,0-10.94,17.87-15.94,27.31-3.23,6.09-6.67,12.06-9.06,18.88-2.32,6.62-5,13.7-5,21,.02.92.03,1.86,0,2.81,0,11.05,6.72,20,15,20s14-6.95,14-18c0-2,2-2,2,0Z" style="fill:#f55;"/><path id="uuid-ee60cd33-e417-42b7-8aaf-33b9f69e167f" d="m270.5,476.5c0,11.05,5.72,18,14,18s15-8.95,15-20c-.02-.9-.03-1.84,0-2.81,0-7.3-2.68-14.38-5-21-2.39-6.81-5.83-12.78-9.06-18.88-5-9.44-15.94-27.31-15.94-27.31,0,0-10.94,17.87-15.94,27.31-3.23,6.09-6.67,12.06-9.06,18.88-2.32,6.62-5,13.7-5,21,.02.92.03,1.86,0,2.81,0,11.05,6.72,20,15,20s14-6.95,14-18c0-2,2-2,2,0Z" style="fill:#f55;"/></g></svg>