<?xml version="1.0" encoding="UTF-8"?><svg id="Layer_1" xmlns="http://www.w3.org/2000/svg" viewBox="0 0 359 539"><defs><style>.cls-1{fill:#f55;}</style></defs><g id="g3044"><path id="rect3980-7-6-2-9-9" class="cls-1" d="m29.5,29.5l-10,35v5h12v10h5v-10h3v-5h-3v-15h-5v15h-6.8l10-35h-5.2Z"/><path id="rect3980-7-6-2-9-9-8" class="cls-1" d="m329.5,509.5l10-35v-5h-12v-10h-5v10h-3v5h3v15h5v-15h6.8l-10,35h5.2Z"/><path id="path3204-24-55" class="cls-1" d="m89.5,44.5s6,15,13,25,17,20,17,20c0,0-10,10-17,20s-13,25-13,25c0,0-6-15-13-25s-17-20-17-20c0,0,10-10,17-20s13-25,13-25"/><path id="path3204-24-1-32" class="cls-1" d="m269.5,44.5s6,15,13,25,17,20,17,20c0,0-10,10-17,20s-13,25-13,25c0,0-6-15-13-25s-17-20-17-20c0,0,10-10,17-20s13-25,13-25"/><path id="path3204-24-7-8" class="cls-1" d="m89.5,404.5s6,15,13,25,17,20,17,20c0,0-10,10-17,20s-13,25-13,25c0,0-6-15-13-25s-17-20-17-20c0,0,10-10,17-20s13-25,13-25"/><path id="path3204-24-4-25" class="cls-1" d="m269.5,404.5s6,15,13,25,17,20,17,20c0,0-10,10-17,20s-13,25-13,25c0,0-6-15-13-25s-17-20-17-20c0,0,10-10,17-20s13-25,13-25"/><path id="path3204-24-1-0-3" class="cls-1" d="m29.5,89.5s3,7.5,6.5,12.5,8.5,10,8.5,10c0,0-5,5-8.5,10s-6.5,12.5-6.5,12.5c0,0-3-7.5-6.5-12.5s-8.5-10-8.5-10c0,0,5-5,8.5-10s6.5-12.5,6.5-12.5"/><path id="path3204-24-1-9-6" class="cls-1" d="m329.5,404.5s3,7.5,6.5,12.5,8.5,10,8.5,10c0,0-5,5-8.5,10s-6.5,12.5-6.5,12.5c0,0-3-7.5-6.5-12.5s-8.5-10-8.5-10c0,0,5-5,8.5-10s6.5-12.5,6.5-12.5"/></g></svg>