<?xml version="1.0" encoding="UTF-8"?><svg id="uuid-fc1407fa-a9f9-4836-a542-80626b33e6dd" xmlns="http://www.w3.org/2000/svg" viewBox="0 0 359 539"><g id="uuid-1c7a312c-71c7-4a09-ac1d-ab7f6079c1d3"><path id="uuid-55f6df03-497b-4b9e-8038-30eec393ec88" d="m29.5,29.5l-10,35v5h12v10h5v-10h3v-5h-3v-15h-5v15h-6.8l10-35h-5.2Z" style="fill:#f55;"/><path id="uuid-8b307c30-e66f-401c-8a61-20542bae993c" d="m329.5,509.5l10-35v-5h-12v-10h-5v10h-3v5h3v15h5v-15h6.8l-10,35h5.2Z" style="fill:#f55;"/><path id="uuid-af4aa75d-f50d-4330-b9d0-59ad957e94f3" d="m89.5,44.5s6,15,13,25,17,20,17,20c0,0-10,10-17,20s-13,25-13,25c0,0-6-15-13-25s-17-20-17-20c0,0,10-10,17-20s13-25,13-25" style="fill:#f55;"/><path id="uuid-6d024a2d-537a-43db-aa2d-7f942e31b473" d="m269.5,44.5s6,15,13,25,17,20,17,20c0,0-10,10-17,20s-13,25-13,25c0,0-6-15-13-25s-17-20-17-20c0,0,10-10,17-20s13-25,13-25" style="fill:#f55;"/><path id="uuid-aed5465f-ed0c-4063-b4be-e1c0e83e6d89" d="m89.5,404.5s6,15,13,25,17,20,17,20c0,0-10,10-17,20s-13,25-13,25c0,0-6-15-13-25s-17-20-17-20c0,0,10-10,17-20s13-25,13-25" style="fill:#f55;"/><path id="uuid-26a9798a-1752-4ffa-8339-56cc06573d92" d="m269.5,404.5s6,15,13,25,17,20,17,20c0,0-10,10-17,20s-13,25-13,25c0,0-6-15-13-25s-17-20-17-20c0,0,10-10,17-20s13-25,13-25" style="fill:#f55;"/><path id="uuid-e8c00545-c096-4a13-b4dd-1980d1424f8f" d="m29.5,89.5s3,7.5,6.5,12.5,8.5,10,8.5,10c0,0-5,5-8.5,10s-6.5,12.5-6.5,12.5c0,0-3-7.5-6.5-12.5s-8.5-10-8.5-10c0,0,5-5,8.5-10s6.5-12.5,6.5-12.5" style="fill:#f55;"/><path id="uuid-6fa17305-f6da-4695-a4b5-7b3aeff5f9f7" d="m329.5,404.5s3,7.5,6.5,12.5,8.5,10,8.5,10c0,0-5,5-8.5,10s-6.5,12.5-6.5,12.5c0,0-3-7.5-6.5-12.5s-8.5-10-8.5-10c0,0,5-5,8.5-10s6.5-12.5,6.5-12.5" style="fill:#f55;"/></g></svg>