<?xml version="1.0" encoding="UTF-8"?><svg id="uuid-62c7a76e-454a-42b6-821c-e0a13bab4ebb" xmlns="http://www.w3.org/2000/svg" viewBox="0 0 359 539"><g id="uuid-d3765061-4d4a-442f-b4df-b9c24a8c4a5a"><path id="uuid-d0e8cced-f889-418b-9c77-3258e877f839" d="m29.5,29.5l-10,35v5h12v10h5v-10h3v-5h-3v-15h-5v15h-6.8l10-35h-5.2Z" style="fill:#f55;"/><path id="uuid-da653fd0-d4bb-4784-a465-3c9e7ee5e134" d="m329.5,509.5l10-35v-5h-12v-10h-5v10h-3v5h3v15h5v-15h6.8l-10,35h5.2Z" style="fill:#f55;"/><path id="uuid-bf8cc9b5-6a6f-4b76-a526-ab2726af8a4a" d="m89.5,44.5s6,15,13,25,17,20,17,20c0,0-10,10-17,20s-13,25-13,25c0,0-6-15-13-25s-17-20-17-20c0,0,10-10,17-20s13-25,13-25" style="fill:#f55;"/><path id="uuid-a2a5b9b7-69e6-40cf-94d6-da74b42fdce6" d="m269.5,44.5s6,15,13,25,17,20,17,20c0,0-10,10-17,20s-13,25-13,25c0,0-6-15-13-25s-17-20-17-20c0,0,10-10,17-20s13-25,13-25" style="fill:#f55;"/><path id="uuid-7cc9d787-173e-4238-ba4f-4cee5ed3f796" d="m89.5,404.5s6,15,13,25,17,20,17,20c0,0-10,10-17,20s-13,25-13,25c0,0-6-15-13-25s-17-20-17-20c0,0,10-10,17-20s13-25,13-25" style="fill:#f55;"/><path id="uuid-119fb9c5-facd-4a4f-8fd3-5ba1e1ece321" d="m269.5,404.5s6,15,13,25,17,20,17,20c0,0-10,10-17,20s-13,25-13,25c0,0-6-15-13-25s-17-20-17-20c0,0,10-10,17-20s13-25,13-25" style="fill:#f55;"/><path id="uuid-4dbc74bc-b7a0-4763-80ae-376929aa8e17" d="m29.5,89.5s3,7.5,6.5,12.5,8.5,10,8.5,10c0,0-5,5-8.5,10s-6.5,12.5-6.5,12.5c0,0-3-7.5-6.5-12.5s-8.5-10-8.5-10c0,0,5-5,8.5-10s6.5-12.5,6.5-12.5" style="fill:#f55;"/><path id="uuid-013fceef-570c-4841-85ec-099f89be8a1f" d="m329.5,404.5s3,7.5,6.5,12.5,8.5,10,8.5,10c0,0-5,5-8.5,10s-6.5,12.5-6.5,12.5c0,0-3-7.5-6.5-12.5s-8.5-10-8.5-10c0,0,5-5,8.5-10s6.5-12.5,6.5-12.5" style="fill:#f55;"/></g></svg>