<?xml version="1.0" encoding="UTF-8"?><svg id="uuid-1e989be4-3240-4b98-98f0-fa7d392f70be" xmlns="http://www.w3.org/2000/svg" viewBox="0 0 359 539"><g id="uuid-c32ef6be-b089-4d02-aaa2-f1a9a6f43f44"><path id="uuid-db9ecf4f-238b-4a34-ae38-8b602e0981ce" d="m19.5,29.5v20h10c2.77,0,5,2.23,5,5v15c0,2.77-2.23,5-5,5s-5-2.23-5-5v-5h-5v5c0,5.54,4.46,10,10,10s10-4.46,10-10v-15c0-5.54-4.46-10-10-10h-5v-10h15v-5h-20Z"/><path id="uuid-a20e6877-02c5-4a85-b80c-e44c15086233" d="m339.5,509.5v-20h-10c-2.77,0-5-2.23-5-5v-15c0-2.77,2.23-5,5-5s5,2.23,5,5v5h5v-5c0-5.54-4.46-10-10-10s-10,4.46-10,10v15c0,5.54,4.46,10,10,10h5v10h-15v5h20Z"/><g id="uuid-a19126fe-0360-402d-b708-f80c18afa440"><path id="uuid-e6472e70-cf65-4fb7-bc5b-2769707b0481" d="m94.51,100.48c.99,4,5,14.03,11.98,14.03,9,0,13-8.01,13-18,0-7.02-2.55-11.62-5-17.01-2.59-5.74-6.38-10.88-9.99-16.02-4.64-6.59-14.99-18.99-14.99-18.99,0,0-10.38,12.4-15.02,18.99-3.61,5.14-7.41,10.28-9.99,16.02-2.41,5.39-5,9.99-5,17.01,0,9.99,4,18,13,18,6.98,0,10.98-10.03,12.01-14.03.99-.99.99,0,.99,1.03-.99,7.97-.99,9.99-2.02,15.98-.99,6.02-4,17.01-4,17.01,5.03-1.98,15.02-1.98,20.02,0,0,0-3.01-10.98-4-17.01-.99-5.99-.99-8.01-1.98-15.98,0-1.03,0-2.02.99-1.03Z"/></g><g id="uuid-098b1beb-3511-475e-9664-29e589b59bb4"><path id="uuid-27c15915-2c54-4c5a-9f48-ef85ef21e2e8" d="m274.51,100.48c.99,4,5,14.03,11.98,14.03,9,0,13-8.01,13-18,0-7.02-2.55-11.62-5-17.01-2.59-5.74-6.38-10.88-9.99-16.02-4.64-6.59-14.99-18.99-14.99-18.99,0,0-10.38,12.4-15.02,18.99-3.61,5.14-7.41,10.28-9.99,16.02-2.41,5.39-5,9.99-5,17.01,0,9.99,4,18,13,18,6.98,0,10.98-10.03,12.01-14.03.99-.99.99,0,.99,1.03-.99,7.97-.99,9.99-2.02,15.98-.99,6.02-4,17.01-4,17.01,5.03-1.98,15.02-1.98,20.02,0,0,0-3.01-10.98-4-17.01-.99-5.99-.99-8.01-1.98-15.98,0-1.03,0-2.02.99-1.03Z"/></g><g id="uuid-9a8da450-f6e7-4c31-b99b-951446c533f9"><path id="uuid-194607a9-8c79-485d-a015-f8f0ae9ba9b1" d="m184.51,280.48c.99,4,5,14.03,11.98,14.03,9,0,13-8.01,13-18,0-7.02-2.55-11.62-5-17.01-2.59-5.74-6.38-10.88-9.99-16.02-4.64-6.59-14.99-18.99-14.99-18.99,0,0-10.38,12.4-15.02,18.99-3.61,5.14-7.41,10.28-9.99,16.02-2.41,5.39-5,9.99-5,17.01,0,9.99,4,18,13,18,6.98,0,10.98-10.03,12.01-14.03.99-.99.99,0,.99,1.03-.99,7.97-.99,9.99-2.02,15.98-.99,6.02-4,17.01-4,17.01,5.03-1.98,15.02-1.98,20.02,0,0,0-3.01-10.98-4-17.01-.99-5.99-.99-8.01-1.98-15.98,0-1.03,0-2.02.99-1.03Z"/></g><g id="uuid-259557da-efe0-4d49-82ac-c50ab49c738b"><path id="uuid-31d63335-3630-4523-bc89-1b4154ae8a71" d="m94.51,438.52c.99-4,5-14.03,11.98-14.03,9,0,13,8.01,13,18,0,7.02-2.55,11.62-5,17.01-2.59,5.74-6.38,10.88-9.99,16.02-4.64,6.59-14.99,18.99-14.99,18.99,0,0-10.38-12.4-15.02-18.99-3.61-5.14-7.41-10.28-9.99-16.02-2.41-5.39-5-9.99-5-17.01,0-9.99,4-18,13-18,6.98,0,10.98,10.03,12.01,14.03.99.99.99,0,.99-1.03-.99-7.97-.99-9.99-2.02-15.98-.99-6.02-4-17.01-4-17.01,5.03,1.98,15.02,1.98,20.02,0,0,0-3.01,10.98-4,17.01-.99,5.99-.99,8.01-1.98,15.98,0,1.03,0,2.02.99,1.03Z"/></g><g id="uuid-038764f1-b969-4d91-aae2-c6dbe4f5c442"><path id="uuid-16d5b334-35d0-4f9f-a26c-70acb9d94dfb" d="m274.51,438.52c.99-4,5-14.03,11.98-14.03,9,0,13,8.01,13,18,0,7.02-2.55,11.62-5,17.01-2.59,5.74-6.38,10.88-9.99,16.02-4.64,6.59-14.99,18.99-14.99,18.99,0,0-10.38-12.4-15.02-18.99-3.61-5.14-7.41-10.28-9.99-16.02-2.41-5.39-5-9.99-5-17.01,0-9.99,4-18,13-18,6.98,0,10.98,10.03,12.01,14.03.99.99.99,0,.99-1.03-.99-7.97-.99-9.99-2.02-15.98-.99-6.02-4-17.01-4-17.01,5.03,1.98,15.02,1.98,20.02,0,0,0-3.01,10.98-4,17.01-.99,5.99-.99,8.01-1.98,15.98,0,1.03,0,2.02.99,1.03Z"/></g><path id="uuid-17b70aa6-2b7d-4ce6-b0c0-24ace5da2b50" d="m32,117.5c.5,2,2.5,7,6,7,4.5,0,6.5-4,6.5-9,0-3.5-1.29-5.81-2.5-8.5-1.29-2.87-3.19-5.43-5-8-2.32-3.3-7.5-9.5-7.5-9.5,0,0-5.18,6.2-7.5,9.5-1.81,2.57-3.71,5.13-5,8-1.21,2.69-2.5,5-2.5,8.5,0,5,2,9,6.5,9,3.5,0,5.5-5,6-7,.5-.5.5,0,.5.5-.5,4-.5,5-1,8s-2,8.5-2,8.5c2.5-1,7.5-1,10,0,0,0-1.5-5.5-2-8.5s-.5-4-1-8c0-.5,0-1,.5-.5Z"/><path id="uuid-1a85fdcc-f0a1-42a3-b131-fe4c4ccc9bb5" d="m332,421.5c.5-2,2.5-7,6-7,4.5,0,6.5,4,6.5,9,0,3.5-1.29,5.81-2.5,8.5-1.29,2.87-3.19,5.43-5,8-2.32,3.3-7.5,9.5-7.5,9.5,0,0-5.18-6.2-7.5-9.5-1.81-2.57-3.71-5.13-5-8-1.21-2.69-2.5-5-2.5-8.5,0-5,2-9,6.5-9,3.5,0,5.5,5,6,7,.5.5.5,0,.5-.5-.5-4-.5-5-1-8s-2-8.5-2-8.5c2.5,1,7.5,1,10,0,0,0-1.5,5.5-2,8.5s-.5,4-1,8c0,.5,0,1,.5.5Z"/></g></svg>