<?xml version="1.0" encoding="UTF-8"?><svg id="uuid-1df6f651-336a-4eb9-a24d-61f86b9c03ec" xmlns="http://www.w3.org/2000/svg" viewBox="0 0 359 539"><g id="uuid-b8a44da3-a6f3-40f4-b4d3-3ef8e6a7d878"><path id="uuid-8ebfd992-c5e1-4705-9dbe-516974ccb040" d="m19.5,29.5v20h10c2.77,0,5,2.23,5,5v15c0,2.77-2.23,5-5,5s-5-2.23-5-5v-5h-5v5c0,5.54,4.46,10,10,10s10-4.46,10-10v-15c0-5.54-4.46-10-10-10h-5v-10h15v-5h-20Z"/><path id="uuid-d8f12c34-9658-46b0-b2c5-9956cdaf803b" d="m339.5,509.5v-20h-10c-2.77,0-5-2.23-5-5v-15c0-2.77,2.23-5,5-5s5,2.23,5,5v5h5v-5c0-5.54-4.46-10-10-10s-10,4.46-10,10v15c0,5.54,4.46,10,10,10h5v10h-15v5h20Z"/><g id="uuid-0f8c71b3-a57c-4718-b70f-e1eed6d7cb80"><path id="uuid-e919f65d-ff5a-43ea-b5df-c4e408abf53b" d="m94.51,100.48c.99,4,5,14.03,11.98,14.03,9,0,13-8.01,13-18,0-7.02-2.55-11.62-5-17.01-2.59-5.74-6.38-10.88-9.99-16.02-4.64-6.59-14.99-18.99-14.99-18.99,0,0-10.38,12.4-15.02,18.99-3.61,5.14-7.41,10.28-9.99,16.02-2.41,5.39-5,9.99-5,17.01,0,9.99,4,18,13,18,6.98,0,10.98-10.03,12.01-14.03.99-.99.99,0,.99,1.03-.99,7.97-.99,9.99-2.02,15.98-.99,6.02-4,17.01-4,17.01,5.03-1.98,15.02-1.98,20.02,0,0,0-3.01-10.98-4-17.01-.99-5.99-.99-8.01-1.98-15.98,0-1.03,0-2.02.99-1.03Z"/></g><g id="uuid-637be839-673a-41dc-aabd-085cf30f3719"><path id="uuid-618a8071-1555-4f3c-bd24-dac3bc295a3f" d="m274.51,100.48c.99,4,5,14.03,11.98,14.03,9,0,13-8.01,13-18,0-7.02-2.55-11.62-5-17.01-2.59-5.74-6.38-10.88-9.99-16.02-4.64-6.59-14.99-18.99-14.99-18.99,0,0-10.38,12.4-15.02,18.99-3.61,5.14-7.41,10.28-9.99,16.02-2.41,5.39-5,9.99-5,17.01,0,9.99,4,18,13,18,6.98,0,10.98-10.03,12.01-14.03.99-.99.99,0,.99,1.03-.99,7.97-.99,9.99-2.02,15.98-.99,6.02-4,17.01-4,17.01,5.03-1.98,15.02-1.98,20.02,0,0,0-3.01-10.98-4-17.01-.99-5.99-.99-8.01-1.98-15.98,0-1.03,0-2.02.99-1.03Z"/></g><g id="uuid-1edc1712-2cc2-4957-ba75-8dc53482c1c8"><path id="uuid-e7563e70-de0b-414e-b866-129253cb2183" d="m184.51,280.48c.99,4,5,14.03,11.98,14.03,9,0,13-8.01,13-18,0-7.02-2.55-11.62-5-17.01-2.59-5.74-6.38-10.88-9.99-16.02-4.64-6.59-14.99-18.99-14.99-18.99,0,0-10.38,12.4-15.02,18.99-3.61,5.14-7.41,10.28-9.99,16.02-2.41,5.39-5,9.99-5,17.01,0,9.99,4,18,13,18,6.98,0,10.98-10.03,12.01-14.03.99-.99.99,0,.99,1.03-.99,7.97-.99,9.99-2.02,15.98-.99,6.02-4,17.01-4,17.01,5.03-1.98,15.02-1.98,20.02,0,0,0-3.01-10.98-4-17.01-.99-5.99-.99-8.01-1.98-15.98,0-1.03,0-2.02.99-1.03Z"/></g><g id="uuid-6da0fb3a-7b57-47bb-8146-aa624a0da6c8"><path id="uuid-e6266099-f03b-4866-ab31-6a5cc6b8742c" d="m94.51,438.52c.99-4,5-14.03,11.98-14.03,9,0,13,8.01,13,18,0,7.02-2.55,11.62-5,17.01-2.59,5.74-6.38,10.88-9.99,16.02-4.64,6.59-14.99,18.99-14.99,18.99,0,0-10.38-12.4-15.02-18.99-3.61-5.14-7.41-10.28-9.99-16.02-2.41-5.39-5-9.99-5-17.01,0-9.99,4-18,13-18,6.98,0,10.98,10.03,12.01,14.03.99.99.99,0,.99-1.03-.99-7.97-.99-9.99-2.02-15.98-.99-6.02-4-17.01-4-17.01,5.03,1.98,15.02,1.98,20.02,0,0,0-3.01,10.98-4,17.01-.99,5.99-.99,8.01-1.98,15.98,0,1.03,0,2.02.99,1.03Z"/></g><g id="uuid-580b7af6-d77e-4190-911d-32de7848ea28"><path id="uuid-72c91c77-21a6-4de8-acb0-951d4d85793b" d="m274.51,438.52c.99-4,5-14.03,11.98-14.03,9,0,13,8.01,13,18,0,7.02-2.55,11.62-5,17.01-2.59,5.74-6.38,10.88-9.99,16.02-4.64,6.59-14.99,18.99-14.99,18.99,0,0-10.38-12.4-15.02-18.99-3.61-5.14-7.41-10.28-9.99-16.02-2.41-5.39-5-9.99-5-17.01,0-9.99,4-18,13-18,6.98,0,10.98,10.03,12.01,14.03.99.99.99,0,.99-1.03-.99-7.97-.99-9.99-2.02-15.98-.99-6.02-4-17.01-4-17.01,5.03,1.98,15.02,1.98,20.02,0,0,0-3.01,10.98-4,17.01-.99,5.99-.99,8.01-1.98,15.98,0,1.03,0,2.02.99,1.03Z"/></g><path id="uuid-9d742880-5c78-4fc1-b8e4-08f8c200b590" d="m32,117.5c.5,2,2.5,7,6,7,4.5,0,6.5-4,6.5-9,0-3.5-1.29-5.81-2.5-8.5-1.29-2.87-3.19-5.43-5-8-2.32-3.3-7.5-9.5-7.5-9.5,0,0-5.18,6.2-7.5,9.5-1.81,2.57-3.71,5.13-5,8-1.21,2.69-2.5,5-2.5,8.5,0,5,2,9,6.5,9,3.5,0,5.5-5,6-7,.5-.5.5,0,.5.5-.5,4-.5,5-1,8s-2,8.5-2,8.5c2.5-1,7.5-1,10,0,0,0-1.5-5.5-2-8.5s-.5-4-1-8c0-.5,0-1,.5-.5Z"/><path id="uuid-f161c602-af2e-404c-bef8-d021286827fa" d="m332,421.5c.5-2,2.5-7,6-7,4.5,0,6.5,4,6.5,9,0,3.5-1.29,5.81-2.5,8.5-1.29,2.87-3.19,5.43-5,8-2.32,3.3-7.5,9.5-7.5,9.5,0,0-5.18-6.2-7.5-9.5-1.81-2.57-3.71-5.13-5-8-1.21-2.69-2.5-5-2.5-8.5,0-5,2-9,6.5-9,3.5,0,5.5,5,6,7,.5.5.5,0,.5-.5-.5-4-.5-5-1-8s-2-8.5-2-8.5c2.5,1,7.5,1,10,0,0,0-1.5,5.5-2,8.5s-.5,4-1,8c0,.5,0,1,.5.5Z"/></g></svg>