<?xml version="1.0" encoding="UTF-8"?><svg id="uuid-a6de3879-4847-4fb7-8a7d-9478c9f18212" xmlns="http://www.w3.org/2000/svg" viewBox="0 0 359 539"><g id="uuid-6ddc3874-f3ab-41f6-b756-224a004341d7"><path id="uuid-2d882fc5-300c-4d25-81f3-85dc2c4e7862" d="m178.5,244.5c0-11.05-5.72-20-14-20s-15,8.95-15,20c.03.96.02,1.89,0,2.81,0,7.3,2.68,14.38,5,21,2.39,6.81,5.83,12.78,9.06,18.88,5,9.44,15.94,27.31,15.94,27.31,0,0,10.94-17.87,15.94-27.31,3.23-6.09,6.67-12.06,9.06-18.88,2.32-6.62,5-13.7,5-21-.03-.97-.02-1.91,0-2.81,0-11.05-6.72-20-15-20s-14,8.95-14,20h-2Z" style="fill:#f55;"/><path id="uuid-41647d51-1393-4205-8f9c-95620716711b" d="m19.5,29.5v20h10c2.77,0,5,2.23,5,5v15c0,2.77-2.23,5-5,5s-5-2.23-5-5v-5h-5v5c0,5.54,4.46,10,10,10s10-4.46,10-10v-15c0-5.54-4.46-10-10-10h-5v-10h15v-5h-20Z" style="fill:#f55;"/><path id="uuid-2c52f50c-6e43-4ecc-b782-9bacf49e9d48" d="m339.5,509.5v-20h-10c-2.77,0-5-2.23-5-5v-15c0-2.77,2.23-5,5-5s5,2.23,5,5v5h5v-5c0-5.54-4.46-10-10-10s-10,4.46-10,10v15c0,5.54,4.46,10,10,10h5v10h-15v5h20Z" style="fill:#f55;"/><path id="uuid-ec66d43c-e3da-4af3-ade2-8ffdbefe30d6" d="m88.5,62.5c0-11.05-5.72-18-14-18s-15,8.95-15,20c.03.96.02,1.89,0,2.81,0,7.3,2.68,14.38,5,21,2.39,6.81,5.83,12.78,9.06,18.87,5,9.44,15.94,27.31,15.94,27.31,0,0,10.94-17.87,15.94-27.31,3.23-6.09,6.67-12.06,9.06-18.87,2.32-6.62,5-13.7,5-21-.03-.97-.02-1.91,0-2.81,0-11.05-6.72-20-15-20s-14,6.95-14,18c0,2-2,2-2,0Z" style="fill:#f55;"/><path id="uuid-1a56e727-7791-43fc-a52e-0dcaa7c05075" d="m268.5,62.5c0-11.05-5.72-18-14-18s-15,8.95-15,20c.03.96.02,1.89,0,2.81,0,7.3,2.68,14.38,5,21,2.39,6.81,5.83,12.78,9.06,18.87,5,9.44,15.94,27.31,15.94,27.31,0,0,10.94-17.87,15.94-27.31,3.23-6.09,6.67-12.06,9.06-18.88,2.32-6.62,5-13.7,5-21-.03-.97-.02-1.91,0-2.81,0-11.05-6.72-20-15-20s-14,6.95-14,18c0,2-2,2-2,0Z" style="fill:#f55;"/><path id="uuid-80a8e1e1-e13d-45b3-b14d-edbdf7efcbd1" d="m178.5,242.5c0-11.05-5.72-18-14-18s-15,8.95-15,20c.03.96.02,1.89,0,2.81,0,7.3,2.68,14.38,5,21,2.39,6.81,5.83,12.78,9.06,18.88,5,9.44,15.94,27.31,15.94,27.31,0,0,10.94-17.87,15.94-27.31,3.23-6.09,6.67-12.06,9.06-18.87,2.32-6.62,5-13.7,5-21-.03-.97-.02-1.91,0-2.81,0-11.05-6.72-20-15-20s-14,6.95-14,18c0,2-2,2-2,0Z" style="fill:#f55;"/><path id="uuid-98884995-db5f-4c34-b869-faf56e5fa16f" d="m90.5,476.5c0,11.05,5.72,18,14,18s15-8.95,15-20c-.02-.9-.03-1.84,0-2.81,0-7.3-2.68-14.38-5-21-2.39-6.81-5.83-12.78-9.06-18.88-5-9.44-15.94-27.31-15.94-27.31,0,0-10.94,17.87-15.94,27.31-3.23,6.09-6.67,12.06-9.06,18.88-2.32,6.62-5,13.7-5,21,.02.92.03,1.86,0,2.81,0,11.05,6.72,20,15,20s14-6.95,14-18c0-2,2-2,2,0Z" style="fill:#f55;"/><path id="uuid-9d49e193-909d-43e7-b7a8-cbb2b9f68781" d="m270.5,476.5c0,11.05,5.72,18,14,18s15-8.95,15-20c-.02-.9-.03-1.84,0-2.81,0-7.3-2.68-14.38-5-21-2.39-6.81-5.83-12.78-9.06-18.88-5-9.44-15.94-27.31-15.94-27.31,0,0-10.94,17.87-15.94,27.31-3.23,6.09-6.67,12.06-9.06,18.88-2.32,6.62-5,13.7-5,21,.02.92.03,1.86,0,2.81,0,11.05,6.72,20,15,20s14-6.95,14-18c0-2,2-2,2,0Z" style="fill:#f55;"/><path id="uuid-06c1e123-9291-4e83-afdc-278c1af913a8" d="m29,98.5c0-5.52-2.86-9-7-9s-7.5,4.48-7.5,10c.02.48,0,.95,0,1.41,0,3.65,1.34,7.19,2.5,10.5,1.19,3.41,2.92,6.39,4.53,9.44,2.5,4.72,7.97,13.66,7.97,13.66,0,0,5.47-8.94,7.97-13.66,1.61-3.05,3.34-6.03,4.53-9.44,1.16-3.31,2.5-6.85,2.5-10.5-.01-.49,0-.96,0-1.41,0-5.52-3.36-10-7.5-10s-7,3.48-7,9c0,1-1,1-1,0Z" style="fill:#f55;"/><path id="uuid-0f392ef1-c84c-487a-b258-dda6eee76328" d="m330,440.5c0,5.52,2.86,9,7,9s7.5-4.48,7.5-10c0-.45-.01-.92,0-1.41,0-3.65-1.34-7.19-2.5-10.5-1.19-3.41-2.92-6.39-4.53-9.44-2.5-4.72-7.97-13.66-7.97-13.66,0,0-5.47,8.94-7.97,13.66-1.61,3.05-3.34,6.03-4.53,9.44-1.16,3.31-2.5,6.85-2.5,10.5,0,.46.02.93,0,1.41,0,5.52,3.36,10,7.5,10s7-3.48,7-9c0-1,1-1,1,0Z" style="fill:#f55;"/></g></svg>