<?xml version="1.0" encoding="UTF-8"?><svg id="uuid-16276f57-057b-4260-a0f7-950fd15b18ad" xmlns="http://www.w3.org/2000/svg" viewBox="0 0 359 539"><g id="uuid-3f2f6156-9183-4cc8-a288-ed068374f79a"><path id="uuid-541d5cbd-18f0-4707-b7df-17ae1e60f6e1" d="m19.5,29.5v20h10c2.77,0,5,2.23,5,5v15c0,2.77-2.23,5-5,5s-5-2.23-5-5v-5h-5v5c0,5.54,4.46,10,10,10s10-4.46,10-10v-15c0-5.54-4.46-10-10-10h-5v-10h15v-5h-20Z" style="fill:#f55;"/><path id="uuid-4d9d7661-f6ff-4262-a877-089892ba2b8f" d="m339.5,509.5v-20h-10c-2.77,0-5-2.23-5-5v-15c0-2.77,2.23-5,5-5s5,2.23,5,5v5h5v-5c0-5.54-4.46-10-10-10s-10,4.46-10,10v15c0,5.54,4.46,10,10,10h5v10h-15v5h20Z" style="fill:#f55;"/><path id="uuid-3d4fe24f-109a-4b52-adef-46e678e005d8" d="m29.5,89.5s3,7.5,6.5,12.5,8.5,10,8.5,10c0,0-5,5-8.5,10s-6.5,12.5-6.5,12.5c0,0-3-7.5-6.5-12.5s-8.5-10-8.5-10c0,0,5-5,8.5-10s6.5-12.5,6.5-12.5" style="fill:#f55;"/><path id="uuid-8f4915d5-dd1a-4df5-996d-db95d8e6a0b1" d="m329.5,404.5s3,7.5,6.5,12.5,8.5,10,8.5,10c0,0-5,5-8.5,10s-6.5,12.5-6.5,12.5c0,0-3-7.5-6.5-12.5s-8.5-10-8.5-10c0,0,5-5,8.5-10s6.5-12.5,6.5-12.5" style="fill:#f55;"/><path id="uuid-5df565a3-e7f2-4424-a03c-3633318bf734" d="m89.5,44.5s6,15,13,25,17,20,17,20c0,0-10,10-17,20s-13,25-13,25c0,0-6-15-13-25s-17-20-17-20c0,0,10-10,17-20s13-25,13-25" style="fill:#f55;"/><path id="uuid-11726d00-fcfe-497d-8c3b-239af0864ec3" d="m269.5,44.5s6,15,13,25,17,20,17,20c0,0-10,10-17,20s-13,25-13,25c0,0-6-15-13-25s-17-20-17-20c0,0,10-10,17-20s13-25,13-25" style="fill:#f55;"/><path id="uuid-86aed6a6-f0dc-4e11-896a-e72f070eb28d" d="m179.5,224.5s6,15,13,25,17,20,17,20c0,0-10,10-17,20s-13,25-13,25c0,0-6-15-13-25s-17-20-17-20c0,0,10-10,17-20s13-25,13-25" style="fill:#f55;"/><path id="uuid-ce057469-7cfb-4b49-aa09-2971d6174e50" d="m89.5,404.5s6,15,13,25,17,20,17,20c0,0-10,10-17,20s-13,25-13,25c0,0-6-15-13-25s-17-20-17-20c0,0,10-10,17-20s13-25,13-25" style="fill:#f55;"/><path id="uuid-b450e02c-8e6b-489b-b137-5d19a21eb04c" d="m269.5,404.5s6,15,13,25,17,20,17,20c0,0-10,10-17,20s-13,25-13,25c0,0-6-15-13-25s-17-20-17-20c0,0,10-10,17-20s13-25,13-25" style="fill:#f55;"/></g></svg>