<?xml version="1.0" encoding="UTF-8"?><svg id="uuid-98411451-1b40-4eba-8616-ca8167adc203" xmlns="http://www.w3.org/2000/svg" viewBox="0 0 359 539"><g id="uuid-517a5a97-3d6c-494b-b001-4133b00e5702"><path id="uuid-916aaf20-ae62-4642-a842-5c1bdff98dc9" d="m19.5,29.5v20h10c2.77,0,5,2.23,5,5v15c0,2.77-2.23,5-5,5s-5-2.23-5-5v-5h-5v5c0,5.54,4.46,10,10,10s10-4.46,10-10v-15c0-5.54-4.46-10-10-10h-5v-10h15v-5h-20Z" style="fill:#f55;"/><path id="uuid-756b5c70-d84d-44be-a8b9-cec24ed73d67" d="m339.5,509.5v-20h-10c-2.77,0-5-2.23-5-5v-15c0-2.77,2.23-5,5-5s5,2.23,5,5v5h5v-5c0-5.54-4.46-10-10-10s-10,4.46-10,10v15c0,5.54,4.46,10,10,10h5v10h-15v5h20Z" style="fill:#f55;"/><path id="uuid-b79c85a9-1705-4864-9dd3-6d541b1e697f" d="m29.5,89.5s3,7.5,6.5,12.5,8.5,10,8.5,10c0,0-5,5-8.5,10s-6.5,12.5-6.5,12.5c0,0-3-7.5-6.5-12.5s-8.5-10-8.5-10c0,0,5-5,8.5-10s6.5-12.5,6.5-12.5" style="fill:#f55;"/><path id="uuid-6eba96b4-63d9-4e67-822d-c43dd0bef0a9" d="m329.5,404.5s3,7.5,6.5,12.5,8.5,10,8.5,10c0,0-5,5-8.5,10s-6.5,12.5-6.5,12.5c0,0-3-7.5-6.5-12.5s-8.5-10-8.5-10c0,0,5-5,8.5-10s6.5-12.5,6.5-12.5" style="fill:#f55;"/><path id="uuid-755622a6-f114-41e9-af1c-624c64f2db9d" d="m89.5,44.5s6,15,13,25,17,20,17,20c0,0-10,10-17,20s-13,25-13,25c0,0-6-15-13-25s-17-20-17-20c0,0,10-10,17-20s13-25,13-25" style="fill:#f55;"/><path id="uuid-9a2ad94f-7605-4fe4-a83b-a217ed8b6852" d="m269.5,44.5s6,15,13,25,17,20,17,20c0,0-10,10-17,20s-13,25-13,25c0,0-6-15-13-25s-17-20-17-20c0,0,10-10,17-20s13-25,13-25" style="fill:#f55;"/><path id="uuid-13580712-9e57-42ec-b33c-221a1453d36f" d="m179.5,224.5s6,15,13,25,17,20,17,20c0,0-10,10-17,20s-13,25-13,25c0,0-6-15-13-25s-17-20-17-20c0,0,10-10,17-20s13-25,13-25" style="fill:#f55;"/><path id="uuid-bdb827f7-a47b-452a-8ffc-a8efa67ea54c" d="m89.5,404.5s6,15,13,25,17,20,17,20c0,0-10,10-17,20s-13,25-13,25c0,0-6-15-13-25s-17-20-17-20c0,0,10-10,17-20s13-25,13-25" style="fill:#f55;"/><path id="uuid-11d371ba-fce2-4ab8-aca8-e52e0acec30c" d="m269.5,404.5s6,15,13,25,17,20,17,20c0,0-10,10-17,20s-13,25-13,25c0,0-6-15-13-25s-17-20-17-20c0,0,10-10,17-20s13-25,13-25" style="fill:#f55;"/></g></svg>