<?xml version="1.0" encoding="UTF-8"?><svg id="uuid-74498cad-843b-4fb8-882e-d0f5b587929d" xmlns="http://www.w3.org/2000/svg" viewBox="0 0 359 539"><g id="uuid-ca9d4c8f-b1bd-47fd-aaa1-a6565ffc7585"><path id="uuid-42e4f446-b586-4f9a-b621-5134aa037529" d="m29.5,29.5c-5.54,0-10,4.46-10,10v30c0,5.54,4.46,10,10,10s10-4.46,10-10v-10c0-5.54-4.46-10-10-10-1.82,0-3.53.5-5,1.34v-11.34c0-2.77,2.23-5,5-5s5,2.23,5,5v1h5v-1c0-5.54-4.46-10-10-10Zm0,25c2.77,0,5,2.23,5,5v10c0,2.77-2.23,5-5,5s-5-2.23-5-5v-10c0-2.77,2.23-5,5-5Z"/><path id="uuid-c4f05d60-e280-417a-a3d3-007acc39bbd0" d="m329.5,509.5c5.54,0,10-4.46,10-10v-30c0-5.54-4.46-10-10-10s-10,4.46-10,10v10c0,5.54,4.46,10,10,10,1.82,0,3.53-.5,5-1.34v11.34c0,2.77-2.23,5-5,5s-5-2.23-5-5v-1h-5v1c0,5.54,4.46,10,10,10Zm0-25c-2.77,0-5-2.23-5-5v-10c0-2.77,2.23-5,5-5s5,2.23,5,5v10c0,2.77-2.23,5-5,5Z"/><path id="uuid-d094c69c-5241-49eb-bd37-7da3ecdda99b" d="m94.5,100.5c1,4,5,14,12,14,9,0,13-8,13-18,0-7-2.58-11.61-5-17-2.58-5.74-6.38-10.86-10-16-4.65-6.6-15-19-15-19,0,0-10.35,12.4-15,19-3.62,5.14-7.42,10.26-10,16-2.42,5.39-5,10-5,17,0,10,4,18,13,18,7,0,11-10,12-14,1-1,1,0,1,1-1,8-1,10-2,16s-4,17-4,17c5-2,15-2,20,0,0,0-3-11-4-17s-1-8-2-16c0-1,0-2,1-1Z"/><path id="uuid-46d22a83-abde-4b36-b53f-bd184a7130ec" d="m274.5,100.5c1,4,5,14,12,14,9,0,13-8,13-18,0-7-2.58-11.61-5-17-2.58-5.74-6.38-10.86-10-16-4.65-6.6-15-19-15-19,0,0-10.35,12.4-15,19-3.62,5.14-7.42,10.26-10,16-2.42,5.39-5,10-5,17,0,10,4,18,13,18,7,0,11-10,12-14,1-1,1,0,1,1-1,8-1,10-2,16s-4,17-4,17c5-2,15-2,20,0,0,0-3-11-4-17s-1-8-2-16c0-1,0-2,1-1Z"/><path id="uuid-d048b72b-4fa3-43af-bf2d-cfa94766b893" d="m94.5,280.5c1,4,5,14,12,14,9,0,13-8,13-18,0-7-2.58-11.61-5-17-2.58-5.74-6.38-10.86-10-16-4.65-6.6-15-19-15-19,0,0-10.35,12.4-15,19-3.62,5.14-7.42,10.26-10,16-2.42,5.39-5,10-5,17,0,10,4,18,13,18,7,0,11-10,12-14,1-1,1,0,1,1-1,8-1,10-2,16s-4,17-4,17c5-2,15-2,20,0,0,0-3-11-4-17s-1-8-2-16c0-1,0-2,1-1Z"/><path id="uuid-cd35c423-b3eb-45d0-8946-2b78f45cdc32" d="m274.5,280.5c1,4,5,14,12,14,9,0,13-8,13-18,0-7-2.58-11.61-5-17-2.58-5.74-6.38-10.86-10-16-4.65-6.6-15-19-15-19,0,0-10.35,12.4-15,19-3.62,5.14-7.42,10.26-10,16-2.42,5.39-5,10-5,17,0,10,4,18,13,18,7,0,11-10,12-14,1-1,1,0,1,1-1,8-1,10-2,16s-4,17-4,17c5-2,15-2,20,0,0,0-3-11-4-17s-1-8-2-16c0-1,0-2,1-1Z"/><path id="uuid-2ceba651-e954-4d28-89c4-589984d5798c" d="m94.5,438.5c1-4,5-14,12-14,9,0,13,8,13,18,0,7-2.58,11.61-5,17-2.58,5.74-6.38,10.86-10,16-4.65,6.6-15,19-15,19,0,0-10.35-12.4-15-19-3.62-5.14-7.42-10.26-10-16-2.42-5.39-5-10-5-17,0-10,4-18,13-18,7,0,11,10,12,14,1,1,1,0,1-1-1-8-1-10-2-16s-4-17-4-17c5,2,15,2,20,0,0,0-3,11-4,17s-1,8-2,16c0,1,0,2,1,1Z"/><path id="uuid-11ad1007-ac7f-4bd8-9c1c-99d46378f0c3" d="m274.5,438.5c1-4,5-14,12-14,9,0,13,8,13,18,0,7-2.58,11.61-5,17-2.58,5.74-6.38,10.86-10,16-4.65,6.6-15,19-15,19,0,0-10.35-12.4-15-19-3.62-5.14-7.42-10.26-10-16-2.42-5.39-5-10-5-17,0-10,4-18,13-18,7,0,11,10,12,14,1,1,1,0,1-1-1-8-1-10-2-16s-4-17-4-17c5,2,15,2,20,0,0,0-3,11-4,17s-1,8-2,16c0,1,0,2,1,1Z"/><path id="uuid-258702b5-c402-41ea-83f4-5847471154b7" d="m32,117.5c.5,2,2.5,7,6,7,4.5,0,6.5-4,6.5-9,0-3.5-1.29-5.81-2.5-8.5-1.29-2.87-3.19-5.43-5-8-2.32-3.3-7.5-9.5-7.5-9.5,0,0-5.18,6.2-7.5,9.5-1.81,2.57-3.71,5.13-5,8-1.21,2.69-2.5,5-2.5,8.5,0,5,2,9,6.5,9,3.5,0,5.5-5,6-7,.5-.5.5,0,.5.5-.5,4-.5,5-1,8s-2,8.5-2,8.5c2.5-1,7.5-1,10,0,0,0-1.5-5.5-2-8.5s-.5-4-1-8c0-.5,0-1,.5-.5Z"/><path id="uuid-9b952239-0275-406a-9f7a-7ed5766b72a8" d="m332,421.5c.5-2,2.5-7,6-7,4.5,0,6.5,4,6.5,9,0,3.5-1.29,5.81-2.5,8.5-1.29,2.87-3.19,5.43-5,8-2.32,3.3-7.5,9.5-7.5,9.5,0,0-5.18-6.2-7.5-9.5-1.81-2.57-3.71-5.13-5-8-1.21-2.69-2.5-5-2.5-8.5,0-5,2-9,6.5-9,3.5,0,5.5,5,6,7,.5.5.5,0,.5-.5-.5-4-.5-5-1-8s-2-8.5-2-8.5c2.5,1,7.5,1,10,0,0,0-1.5,5.5-2,8.5s-.5,4-1,8c0,.5,0,1,.5.5Z"/></g></svg>