<?xml version="1.0" encoding="UTF-8"?><svg id="uuid-75562d62-e599-4f26-bce5-e170b12bfad0" xmlns="http://www.w3.org/2000/svg" viewBox="0 0 359 539"><g id="uuid-541a38bf-f00d-48f0-a858-a3cc0541ed50"><path id="uuid-2efb422f-8544-4ee2-9c89-4cfbd5270343" d="m29.5,29.5c-5.54,0-10,4.46-10,10v30c0,5.54,4.46,10,10,10s10-4.46,10-10v-10c0-5.54-4.46-10-10-10-1.82,0-3.53.5-5,1.34v-11.34c0-2.77,2.23-5,5-5s5,2.23,5,5v1h5v-1c0-5.54-4.46-10-10-10Zm0,25c2.77,0,5,2.23,5,5v10c0,2.77-2.23,5-5,5s-5-2.23-5-5v-10c0-2.77,2.23-5,5-5Z"/><path id="uuid-6641fcb8-e970-4372-9fba-252adca6243f" d="m329.5,509.5c5.54,0,10-4.46,10-10v-30c0-5.54-4.46-10-10-10s-10,4.46-10,10v10c0,5.54,4.46,10,10,10,1.82,0,3.53-.5,5-1.34v11.34c0,2.77-2.23,5-5,5s-5-2.23-5-5v-1h-5v1c0,5.54,4.46,10,10,10Zm0-25c-2.77,0-5-2.23-5-5v-10c0-2.77,2.23-5,5-5s5,2.23,5,5v10c0,2.77-2.23,5-5,5Z"/><path id="uuid-e0ae35b0-024b-4324-957c-bee8ff15499e" d="m94.5,100.5c2,4,7,10,12,10,9,0,13-8,13-18s-4-19-13-19c-5,0-8,5-11,8-1,1-2,0-1-1,3-3,8-11,8-18,0-8-5-18-13-18s-13,10-13,18c0,7,5,15,8,18,1,1,0,2-1,1-3-3-6-8-11-8-9,0-13,9-13,19s4,18,13,18c5,0,10-6,12-10,1-1,1,0,1,1-1,8-1,10-2,16s-4,17-4,17c5-2,15-2,20,0,0,0-3-11-4-17s-1-8-2-16c0-1,0-2,1-1Z"/><path id="uuid-b5d42675-348c-40f5-889f-a6ca7f7c98d1" d="m274.5,100.5c2,4,7,10,12,10,9,0,13-8,13-18s-4-19-13-19c-5,0-8,5-11,8-1,1-2,0-1-1,3-3,8-11,8-18,0-8-5-18-13-18s-13,10-13,18c0,7,5,15,8,18,1,1,0,2-1,1-3-3-6-8-11-8-9,0-13,9-13,19s4,18,13,18c5,0,10-6,12-10,1-1,1,0,1,1-1,8-1,10-2,16s-4,17-4,17c5-2,15-2,20,0,0,0-3-11-4-17s-1-8-2-16c0-1,0-2,1-1Z"/><path id="uuid-25e9552c-efd7-4f41-ac50-9796efa33808" d="m94.5,280.5c2,4,7,10,12,10,9,0,13-8,13-18s-4-19-13-19c-5,0-8,5-11,8-1,1-2,0-1-1,3-3,8-11,8-18,0-8-5-18-13-18s-13,10-13,18c0,7,5,15,8,18,1,1,0,2-1,1-3-3-6-8-11-8-9,0-13,9-13,19s4,18,13,18c5,0,10-6,12-10,1-1,1,0,1,1-1,8-1,10-2,16s-4,17-4,17c5-2,15-2,20,0,0,0-3-11-4-17s-1-8-2-16c0-1,0-2,1-1Z"/><path id="uuid-e61fe3b1-0478-474f-9e00-d329aca5254d" d="m274.5,280.5c2,4,7,10,12,10,9,0,13-8,13-18s-4-19-13-19c-5,0-8,5-11,8-1,1-2,0-1-1,3-3,8-11,8-18,0-8-5-18-13-18s-13,10-13,18c0,7,5,15,8,18,1,1,0,2-1,1-3-3-6-8-11-8-9,0-13,9-13,19s4,18,13,18c5,0,10-6,12-10,1-1,1,0,1,1-1,8-1,10-2,16s-4,17-4,17c5-2,15-2,20,0,0,0-3-11-4-17s-1-8-2-16c0-1,0-2,1-1Z"/><path id="uuid-24f1bb3f-6a0b-44db-b269-6db20bd5ecec" d="m94.5,438.5c2-4,7-10,12-10,9,0,13,8,13,18s-4,19-13,19c-5,0-8-5-11-8-1-1-2,0-1,1,3,3,8,11,8,18,0,8-5,18-13,18s-13-10-13-18c0-7,5-15,8-18,1-1,0-2-1-1-3,3-6,8-11,8-9,0-13-9-13-19s4-18,13-18c5,0,10,6,12,10,1,1,1,0,1-1-1-8-1-10-2-16s-4-17-4-17c5,2,15,2,20,0,0,0-3,11-4,17s-1,8-2,16c0,1,0,2,1,1Z"/><path id="uuid-124eb3b8-9226-4981-bbc7-be073d823d9e" d="m274.5,438.5c2-4,7-10,12-10,9,0,13,8,13,18s-4,19-13,19c-5,0-8-5-11-8-1-1-2,0-1,1,3,3,8,11,8,18,0,8-5,18-13,18s-13-10-13-18c0-7,5-15,8-18,1-1,0-2-1-1-3,3-6,8-11,8-9,0-13-9-13-19s4-18,13-18c5,0,10,6,12,10,1,1,1,0,1-1-1-8-1-10-2-16s-4-17-4-17c5,2,15,2,20,0,0,0-3,11-4,17s-1,8-2,16c0,1,0,2,1,1Z"/><path id="uuid-bc854b99-d844-4ac0-a6e3-047cfd5ec30a" d="m32,117.5c1,2,3.5,5,6,5,4.5,0,6.5-4,6.5-9s-2-9.5-6.5-9.5c-2.5,0-4,2.5-5.5,4-.5.5-1,0-.5-.5,1.5-1.5,4-5.5,4-9,0-4-2.5-9-6.5-9s-6.5,5-6.5,9c0,3.5,2.5,7.5,4,9,.5.5,0,1-.5.5-1.5-1.5-3-4-5.5-4-4.5,0-6.5,4.5-6.5,9.5s2,9,6.5,9c2.5,0,5-3,6-5,.5-.5.5,0,.5.5-.5,4-.5,5-1,8s-2,8.5-2,8.5c2.5-1,7.5-1,10,0,0,0-1.5-5.5-2-8.5s-.5-4-1-8c0-.5,0-1,.5-.5Z"/><path id="uuid-8c814cbc-1335-4970-9afe-be9e3aee87e9" d="m332,421.5c1-2,3.5-5,6-5,4.5,0,6.5,4,6.5,9s-2,9.5-6.5,9.5c-2.5,0-4-2.5-5.5-4-.5-.5-1,0-.5.5,1.5,1.5,4,5.5,4,9,0,4-2.5,9-6.5,9s-6.5-5-6.5-9c0-3.5,2.5-7.5,4-9,.5-.5,0-1-.5-.5-1.5,1.5-3,4-5.5,4-4.5,0-6.5-4.5-6.5-9.5s2-9,6.5-9c2.5,0,5,3,6,5,.5.5.5,0,.5-.5-.5-4-.5-5-1-8s-2-8.5-2-8.5c2.5,1,7.5,1,10,0,0,0-1.5,5.5-2,8.5s-.5,4-1,8c0,.5,0,1,.5.5Z"/></g></svg>