<?xml version="1.0" encoding="UTF-8"?><svg id="uuid-2226bac7-95e2-4ceb-a31b-9396b2302b96" xmlns="http://www.w3.org/2000/svg" viewBox="0 0 359 539"><g id="uuid-8147608e-0f72-4470-8dab-119413203a3f"><path id="uuid-748492f3-f484-4570-abe2-f96c4eb37e1e" d="m29.5,29.5c-5.54,0-10,4.46-10,10v30c0,5.54,4.46,10,10,10s10-4.46,10-10v-10c0-5.54-4.46-10-10-10-1.82,0-3.53.5-5,1.34v-11.34c0-2.77,2.23-5,5-5s5,2.23,5,5v1h5v-1c0-5.54-4.46-10-10-10Zm0,25c2.77,0,5,2.23,5,5v10c0,2.77-2.23,5-5,5s-5-2.23-5-5v-10c0-2.77,2.23-5,5-5Z"/><path id="uuid-1e6b901f-f2a8-4bc7-b568-06f6f40dec55" d="m329.5,509.5c5.54,0,10-4.46,10-10v-30c0-5.54-4.46-10-10-10s-10,4.46-10,10v10c0,5.54,4.46,10,10,10,1.82,0,3.53-.5,5-1.34v11.34c0,2.77-2.23,5-5,5s-5-2.23-5-5v-1h-5v1c0,5.54,4.46,10,10,10Zm0-25c-2.77,0-5-2.23-5-5v-10c0-2.77,2.23-5,5-5s5,2.23,5,5v10c0,2.77-2.23,5-5,5Z"/><path id="uuid-92923439-743e-45d0-84bb-5825cc05bd17" d="m94.5,100.5c2,4,7,10,12,10,9,0,13-8,13-18s-4-19-13-19c-5,0-8,5-11,8-1,1-2,0-1-1,3-3,8-11,8-18,0-8-5-18-13-18s-13,10-13,18c0,7,5,15,8,18,1,1,0,2-1,1-3-3-6-8-11-8-9,0-13,9-13,19s4,18,13,18c5,0,10-6,12-10,1-1,1,0,1,1-1,8-1,10-2,16s-4,17-4,17c5-2,15-2,20,0,0,0-3-11-4-17s-1-8-2-16c0-1,0-2,1-1Z"/><path id="uuid-27b89a36-9c33-4a5a-b9f9-7a5ce8773c46" d="m274.5,100.5c2,4,7,10,12,10,9,0,13-8,13-18s-4-19-13-19c-5,0-8,5-11,8-1,1-2,0-1-1,3-3,8-11,8-18,0-8-5-18-13-18s-13,10-13,18c0,7,5,15,8,18,1,1,0,2-1,1-3-3-6-8-11-8-9,0-13,9-13,19s4,18,13,18c5,0,10-6,12-10,1-1,1,0,1,1-1,8-1,10-2,16s-4,17-4,17c5-2,15-2,20,0,0,0-3-11-4-17s-1-8-2-16c0-1,0-2,1-1Z"/><path id="uuid-8431c52e-279b-4549-871a-0e23cacb1d5a" d="m94.5,280.5c2,4,7,10,12,10,9,0,13-8,13-18s-4-19-13-19c-5,0-8,5-11,8-1,1-2,0-1-1,3-3,8-11,8-18,0-8-5-18-13-18s-13,10-13,18c0,7,5,15,8,18,1,1,0,2-1,1-3-3-6-8-11-8-9,0-13,9-13,19s4,18,13,18c5,0,10-6,12-10,1-1,1,0,1,1-1,8-1,10-2,16s-4,17-4,17c5-2,15-2,20,0,0,0-3-11-4-17s-1-8-2-16c0-1,0-2,1-1Z"/><path id="uuid-c24c1de9-8bec-4116-be9e-3d1e71abd1a8" d="m274.5,280.5c2,4,7,10,12,10,9,0,13-8,13-18s-4-19-13-19c-5,0-8,5-11,8-1,1-2,0-1-1,3-3,8-11,8-18,0-8-5-18-13-18s-13,10-13,18c0,7,5,15,8,18,1,1,0,2-1,1-3-3-6-8-11-8-9,0-13,9-13,19s4,18,13,18c5,0,10-6,12-10,1-1,1,0,1,1-1,8-1,10-2,16s-4,17-4,17c5-2,15-2,20,0,0,0-3-11-4-17s-1-8-2-16c0-1,0-2,1-1Z"/><path id="uuid-7482bc46-055a-4d3d-8068-fb1297ea857b" d="m94.5,438.5c2-4,7-10,12-10,9,0,13,8,13,18s-4,19-13,19c-5,0-8-5-11-8-1-1-2,0-1,1,3,3,8,11,8,18,0,8-5,18-13,18s-13-10-13-18c0-7,5-15,8-18,1-1,0-2-1-1-3,3-6,8-11,8-9,0-13-9-13-19s4-18,13-18c5,0,10,6,12,10,1,1,1,0,1-1-1-8-1-10-2-16s-4-17-4-17c5,2,15,2,20,0,0,0-3,11-4,17s-1,8-2,16c0,1,0,2,1,1Z"/><path id="uuid-04a56f93-a7a3-4412-815c-a8ad8383d44c" d="m274.5,438.5c2-4,7-10,12-10,9,0,13,8,13,18s-4,19-13,19c-5,0-8-5-11-8-1-1-2,0-1,1,3,3,8,11,8,18,0,8-5,18-13,18s-13-10-13-18c0-7,5-15,8-18,1-1,0-2-1-1-3,3-6,8-11,8-9,0-13-9-13-19s4-18,13-18c5,0,10,6,12,10,1,1,1,0,1-1-1-8-1-10-2-16s-4-17-4-17c5,2,15,2,20,0,0,0-3,11-4,17s-1,8-2,16c0,1,0,2,1,1Z"/><path id="uuid-b25d9fa4-1b62-4dda-9693-6f2e98c475ce" d="m32,117.5c1,2,3.5,5,6,5,4.5,0,6.5-4,6.5-9s-2-9.5-6.5-9.5c-2.5,0-4,2.5-5.5,4-.5.5-1,0-.5-.5,1.5-1.5,4-5.5,4-9,0-4-2.5-9-6.5-9s-6.5,5-6.5,9c0,3.5,2.5,7.5,4,9,.5.5,0,1-.5.5-1.5-1.5-3-4-5.5-4-4.5,0-6.5,4.5-6.5,9.5s2,9,6.5,9c2.5,0,5-3,6-5,.5-.5.5,0,.5.5-.5,4-.5,5-1,8s-2,8.5-2,8.5c2.5-1,7.5-1,10,0,0,0-1.5-5.5-2-8.5s-.5-4-1-8c0-.5,0-1,.5-.5Z"/><path id="uuid-766524a0-1fe2-4b1e-93d2-4c7341e7e8b2" d="m332,421.5c1-2,3.5-5,6-5,4.5,0,6.5,4,6.5,9s-2,9.5-6.5,9.5c-2.5,0-4-2.5-5.5-4-.5-.5-1,0-.5.5,1.5,1.5,4,5.5,4,9,0,4-2.5,9-6.5,9s-6.5-5-6.5-9c0-3.5,2.5-7.5,4-9,.5-.5,0-1-.5-.5-1.5,1.5-3,4-5.5,4-4.5,0-6.5-4.5-6.5-9.5s2-9,6.5-9c2.5,0,5,3,6,5,.5.5.5,0,.5-.5-.5-4-.5-5-1-8s-2-8.5-2-8.5c2.5,1,7.5,1,10,0,0,0-1.5,5.5-2,8.5s-.5,4-1,8c0,.5,0,1,.5.5Z"/></g></svg>