<?xml version="1.0" encoding="UTF-8"?><svg id="uuid-ec3de035-1173-4ea5-a456-cd18990af79b" xmlns="http://www.w3.org/2000/svg" viewBox="0 0 359 539"><g id="uuid-c9acecc6-ef53-4cd9-8c1e-74d31a9328f0"><path id="uuid-c2c73b10-bfd4-4cb1-9f03-2bcd3b1ff9f7" d="m29.5,29.5c-5.54,0-10,4.46-10,10v30c0,5.54,4.46,10,10,10s10-4.46,10-10v-10c0-5.54-4.46-10-10-10-1.82,0-3.53.5-5,1.34v-11.34c0-2.77,2.23-5,5-5s5,2.23,5,5v1h5v-1c0-5.54-4.46-10-10-10Zm0,25c2.77,0,5,2.23,5,5v10c0,2.77-2.23,5-5,5s-5-2.23-5-5v-10c0-2.77,2.23-5,5-5Z" style="fill:#f55;"/><path id="uuid-9c24f717-8fe9-41a6-a4f8-6bcf7cbfc4ba" d="m329.5,509.5c5.54,0,10-4.46,10-10v-30c0-5.54-4.46-10-10-10s-10,4.46-10,10v10c0,5.54,4.46,10,10,10,1.82,0,3.53-.5,5-1.34v11.34c0,2.77-2.23,5-5,5s-5-2.23-5-5v-1h-5v1c0,5.54,4.46,10,10,10Zm0-25c-2.77,0-5-2.23-5-5v-10c0-2.77,2.23-5,5-5s5,2.23,5,5v10c0,2.77-2.23,5-5,5Z" style="fill:#f55;"/><path id="uuid-7b12bd94-7803-4de5-b854-1bc267a56fc1" d="m89.5,44.5s6,15,13,25,17,20,17,20c0,0-10,10-17,20s-13,25-13,25c0,0-6-15-13-25s-17-20-17-20c0,0,10-10,17-20s13-25,13-25" style="fill:#f55;"/><path id="uuid-77aa02df-ae9b-4753-b50f-e2a258b4d946" d="m269.5,44.5s6,15,13,25,17,20,17,20c0,0-10,10-17,20s-13,25-13,25c0,0-6-15-13-25s-17-20-17-20c0,0,10-10,17-20s13-25,13-25" style="fill:#f55;"/><path id="uuid-7d79c55d-fe42-4ae5-a11c-1d848efc34e2" d="m89.5,224.5s6,15,13,25,17,20,17,20c0,0-10,10-17,20s-13,25-13,25c0,0-6-15-13-25s-17-20-17-20c0,0,10-10,17-20s13-25,13-25" style="fill:#f55;"/><path id="uuid-91e22a40-2711-4c97-88e6-8dbdf9235d87" d="m269.5,224.5s6,15,13,25,17,20,17,20c0,0-10,10-17,20s-13,25-13,25c0,0-6-15-13-25s-17-20-17-20c0,0,10-10,17-20s13-25,13-25" style="fill:#f55;"/><path id="uuid-761fbab4-e53d-45d0-ae9c-40666f80f06d" d="m89.5,404.5s6,15,13,25,17,20,17,20c0,0-10,10-17,20s-13,25-13,25c0,0-6-15-13-25s-17-20-17-20c0,0,10-10,17-20s13-25,13-25" style="fill:#f55;"/><path id="uuid-186f1e1d-44c0-4fc9-ad4e-58543c157452" d="m269.5,404.5s6,15,13,25,17,20,17,20c0,0-10,10-17,20s-13,25-13,25c0,0-6-15-13-25s-17-20-17-20c0,0,10-10,17-20s13-25,13-25" style="fill:#f55;"/><path id="uuid-d055c61f-5253-49e8-8710-0e0bc3d082ac" d="m29.5,89.5s3,7.5,6.5,12.5,8.5,10,8.5,10c0,0-5,5-8.5,10s-6.5,12.5-6.5,12.5c0,0-3-7.5-6.5-12.5s-8.5-10-8.5-10c0,0,5-5,8.5-10s6.5-12.5,6.5-12.5" style="fill:#f55;"/><path id="uuid-7da58217-adb9-404a-b121-bd7244c202ba" d="m329.5,404.5s3,7.5,6.5,12.5,8.5,10,8.5,10c0,0-5,5-8.5,10s-6.5,12.5-6.5,12.5c0,0-3-7.5-6.5-12.5s-8.5-10-8.5-10c0,0,5-5,8.5-10s6.5-12.5,6.5-12.5" style="fill:#f55;"/></g></svg>