<?xml version="1.0" encoding="UTF-8"?><svg id="Layer_1" xmlns="http://www.w3.org/2000/svg" viewBox="0 0 359 539"><g id="g3071"><path id="rect3980-2-1-93" d="m19.5,29.5v10h5v-5h10l-10,45h5l10-45v-5h-20Z"/><path id="rect3980-2-1-93-0" d="m339.5,509.5v-10h-5v5h-10l10-45h-5l-10,45v5h20Z"/><path id="path3037-7-59" d="m94.5,100.5c1,4,5,14,12,14,9,0,13-8,13-18,0-7-2.58-11.61-5-17-2.58-5.74-6.38-10.86-10-16-4.65-6.6-15-19-15-19,0,0-10.35,12.4-15,19-3.62,5.14-7.42,10.26-10,16-2.42,5.39-5,10-5,17,0,10,4,18,13,18,7,0,11-10,12-14,1-1,1,0,1,1-1,8-1,10-2,16s-4,17-4,17c5-2,15-2,20,0,0,0-3-11-4-17s-1-8-2-16c0-1,0-2,1-1Z"/><path id="path3037-7-17" d="m274.5,100.5c1,4,5,14,12,14,9,0,13-8,13-18,0-7-2.58-11.61-5-17-2.58-5.74-6.38-10.86-10-16-4.65-6.6-15-19-15-19,0,0-10.35,12.4-15,19-3.62,5.14-7.42,10.26-10,16-2.42,5.39-5,10-5,17,0,10,4,18,13,18,7,0,11-10,12-14,1-1,1,0,1,1-1,8-1,10-2,16s-4,17-4,17c5-2,15-2,20,0,0,0-3-11-4-17s-1-8-2-16c0-1,0-2,1-1Z"/><path id="path3037-7-4-9" d="m184.5,190.5c1,4,5,14,12,14,9,0,13-8,13-18,0-7-2.58-11.61-5-17-2.58-5.74-6.38-10.86-10-16-4.65-6.6-15-19-15-19,0,0-10.35,12.4-15,19-3.62,5.14-7.42,10.26-10,16-2.42,5.39-5,10-5,17,0,10,4,18,13,18,7,0,11-10,12-14,1-1,1,0,1,1-1,8-1,10-2,16s-4,17-4,17c5-2,15-2,20,0,0,0-3-11-4-17s-1-8-2-16c0-1,0-2,1-1Z"/><path id="path3037-7-0" d="m94.5,280.5c1,4,5,14,12,14,9,0,13-8,13-18,0-7-2.58-11.61-5-17-2.58-5.74-6.38-10.86-10-16-4.65-6.6-15-19-15-19,0,0-10.35,12.4-15,19-3.62,5.14-7.42,10.26-10,16-2.42,5.39-5,10-5,17,0,10,4,18,13,18,7,0,11-10,12-14,1-1,1,0,1,1-1,8-1,10-2,16s-4,17-4,17c5-2,15-2,20,0,0,0-3-11-4-17s-1-8-2-16c0-1,0-2,1-1Z"/><path id="path3037-7-94" d="m274.5,280.5c1,4,5,14,12,14,9,0,13-8,13-18,0-7-2.58-11.61-5-17-2.58-5.74-6.38-10.86-10-16-4.65-6.6-15-19-15-19,0,0-10.35,12.4-15,19-3.62,5.14-7.42,10.26-10,16-2.42,5.39-5,10-5,17,0,10,4,18,13,18,7,0,11-10,12-14,1-1,1,0,1,1-1,8-1,10-2,16s-4,17-4,17c5-2,15-2,20,0,0,0-3-11-4-17s-1-8-2-16c0-1,0-2,1-1Z"/><path id="path3037-7-8-8" d="m94.5,438.5c1-4,5-14,12-14,9,0,13,8,13,18,0,7-2.58,11.61-5,17-2.58,5.74-6.38,10.86-10,16-4.65,6.6-15,19-15,19,0,0-10.35-12.4-15-19-3.62-5.14-7.42-10.26-10-16-2.42-5.39-5-10-5-17,0-10,4-18,13-18,7,0,11,10,12,14,1,1,1,0,1-1-1-8-1-10-2-16s-4-17-4-17c5,2,15,2,20,0,0,0-3,11-4,17s-1,8-2,16c0,1,0,2,1,1Z"/><path id="path3037-7-82-1" d="m274.5,438.5c1-4,5-14,12-14,9,0,13,8,13,18,0,7-2.58,11.61-5,17-2.58,5.74-6.38,10.86-10,16-4.65,6.6-15,19-15,19,0,0-10.35-12.4-15-19-3.62-5.14-7.42-10.26-10-16-2.42-5.39-5-10-5-17,0-10,4-18,13-18,7,0,11,10,12,14,1,1,1,0,1-1-1-8-1-10-2-16s-4-17-4-17c5,2,15,2,20,0,0,0-3,11-4,17s-1,8-2,16c0,1,0,2,1,1Z"/><path id="path3037-7-4-4-82" d="m32,117.5c.5,2,2.5,7,6,7,4.5,0,6.5-4,6.5-9,0-3.5-1.29-5.81-2.5-8.5-1.29-2.87-3.19-5.43-5-8-2.32-3.3-7.5-9.5-7.5-9.5,0,0-5.18,6.2-7.5,9.5-1.81,2.57-3.71,5.13-5,8-1.21,2.69-2.5,5-2.5,8.5,0,5,2,9,6.5,9,3.5,0,5.5-5,6-7,.5-.5.5,0,.5.5-.5,4-.5,5-1,8s-2,8.5-2,8.5c2.5-1,7.5-1,10,0,0,0-1.5-5.5-2-8.5s-.5-4-1-8c0-.5,0-1,.5-.5Z"/><path id="path3037-7-4-5" d="m332,421.5c.5-2,2.5-7,6-7,4.5,0,6.5,4,6.5,9,0,3.5-1.29,5.81-2.5,8.5-1.29,2.87-3.19,5.43-5,8-2.32,3.3-7.5,9.5-7.5,9.5,0,0-5.18-6.2-7.5-9.5-1.81-2.57-3.71-5.13-5-8-1.21-2.69-2.5-5-2.5-8.5,0-5,2-9,6.5-9,3.5,0,5.5,5,6,7,.5.5.5,0,.5-.5-.5-4-.5-5-1-8s-2-8.5-2-8.5c2.5,1,7.5,1,10,0,0,0-1.5,5.5-2,8.5s-.5,4-1,8c0,.5,0,1,.5.5Z"/></g></svg>