<?xml version="1.0" encoding="UTF-8"?><svg id="uuid-b183aacd-3983-478e-9463-c2803b6ddca1" xmlns="http://www.w3.org/2000/svg" viewBox="0 0 359 539"><g id="uuid-0f58bab4-2f6c-4d86-ae40-cff3e17edb80"><path id="uuid-9ff70007-5f8c-4ab1-9737-515c9be38bfa" d="m19.5,29.5v10h5v-5h10l-10,45h5l10-45v-5h-20Z" style="fill:#f55;"/><path id="uuid-af1075e6-2da3-4225-9a2c-a2db87f4f4ad" d="m339.5,509.5v-10h-5v5h-10l10-45h-5l-10,45v5h20Z" style="fill:#f55;"/><path id="uuid-12680b86-bf90-448c-b1a2-2e835d47f563" d="m29.5,89.5s3,7.5,6.5,12.5,8.5,10,8.5,10c0,0-5,5-8.5,10s-6.5,12.5-6.5,12.5c0,0-3-7.5-6.5-12.5s-8.5-10-8.5-10c0,0,5-5,8.5-10s6.5-12.5,6.5-12.5" style="fill:#f55;"/><path id="uuid-268c1d3f-a5da-422c-a6c7-c5729d7e6ebe" d="m329.5,404.5s3,7.5,6.5,12.5,8.5,10,8.5,10c0,0-5,5-8.5,10s-6.5,12.5-6.5,12.5c0,0-3-7.5-6.5-12.5s-8.5-10-8.5-10c0,0,5-5,8.5-10s6.5-12.5,6.5-12.5" style="fill:#f55;"/><path id="uuid-1f3d5450-faf8-42e5-a01c-38f4ed24d376" d="m89.5,44.5s6,15,13,25,17,20,17,20c0,0-10,10-17,20s-13,25-13,25c0,0-6-15-13-25s-17-20-17-20c0,0,10-10,17-20s13-25,13-25" style="fill:#f55;"/><path id="uuid-f59a2b25-6150-4247-beba-c0e9c71b61db" d="m269.5,44.5s6,15,13,25,17,20,17,20c0,0-10,10-17,20s-13,25-13,25c0,0-6-15-13-25s-17-20-17-20c0,0,10-10,17-20s13-25,13-25" style="fill:#f55;"/><path id="uuid-44911b91-d039-4f21-a06e-f19e540fa284" d="m179.5,134.5s6,15,13,25,17,20,17,20c0,0-10,10-17,20s-13,25-13,25c0,0-6-15-13-25s-17-20-17-20c0,0,10-10,17-20s13-25,13-25" style="fill:#f55;"/><path id="uuid-a5679c6b-695e-4afd-ba39-58d536624400" d="m89.5,224.5s6,15,13,25,17,20,17,20c0,0-10,10-17,20s-13,25-13,25c0,0-6-15-13-25s-17-20-17-20c0,0,10-10,17-20s13-25,13-25" style="fill:#f55;"/><path id="uuid-872657c3-3200-4775-933f-6a2db8cf57a0" d="m269.5,224.5s6,15,13,25,17,20,17,20c0,0-10,10-17,20s-13,25-13,25c0,0-6-15-13-25s-17-20-17-20c0,0,10-10,17-20s13-25,13-25" style="fill:#f55;"/><path id="uuid-db3bc16d-87b8-4196-9639-a0390ca45c4e" d="m89.5,404.5s6,15,13,25,17,20,17,20c0,0-10,10-17,20s-13,25-13,25c0,0-6-15-13-25s-17-20-17-20c0,0,10-10,17-20s13-25,13-25" style="fill:#f55;"/><path id="uuid-a3726cff-1e83-4486-96db-efd035b1ab3f" d="m269.5,404.5s6,15,13,25,17,20,17,20c0,0-10,10-17,20s-13,25-13,25c0,0-6-15-13-25s-17-20-17-20c0,0,10-10,17-20s13-25,13-25" style="fill:#f55;"/></g></svg>