<?xml version="1.0" encoding="UTF-8"?><svg id="uuid-f5c39bd7-d057-4731-ad89-7e2497919d25" xmlns="http://www.w3.org/2000/svg" viewBox="0 0 359 539"><g id="uuid-db99e7fd-dcac-4562-8cb4-3cac687a1688"><path id="uuid-b406f132-17b8-46af-8dd1-de6eb9ad1630" d="m29.5,29.5c-5.54,0-10,4.46-10,10v5c0,3,1.32,5.67,3.41,7.5-2.08,1.83-3.41,4.5-3.41,7.5v10c0,5.54,4.46,10,10,10s10-4.46,10-10v-10c0-3-1.32-5.67-3.41-7.5,2.08-1.83,3.41-4.5,3.41-7.5v-5c0-5.54-4.46-10-10-10Zm0,5c2.77,0,5,2.23,5,5v5c0,2.77-2.23,5-5,5s-5-2.23-5-5v-5c0-2.77,2.23-5,5-5Zm0,20c2.77,0,5,2.23,5,5v10c0,2.77-2.23,5-5,5s-5-2.23-5-5v-10c0-2.77,2.23-5,5-5Z"/><path id="uuid-d441eb93-0d82-43b2-b9e6-ee6f8e0d23ee" d="m329.5,509.5c-5.54,0-10-4.46-10-10v-5c0-3,1.32-5.67,3.41-7.5-2.08-1.83-3.41-4.5-3.41-7.5v-10c0-5.54,4.46-10,10-10s10,4.46,10,10v10c0,3-1.32,5.67-3.41,7.5,2.08,1.83,3.41,4.5,3.41,7.5v5c0,5.54-4.46,10-10,10h0Zm0-5c2.77,0,5-2.23,5-5v-5c0-2.77-2.23-5-5-5s-5,2.23-5,5v5c0,2.77,2.23,5,5,5Zm0-20c2.77,0,5-2.23,5-5v-10c0-2.77-2.23-5-5-5s-5,2.23-5,5v10c0,2.77,2.23,5,5,5Z"/><path id="uuid-ddc47340-f4d4-4d74-aba9-f03f46291230" d="m32,117.5c1,2,3.5,5,6,5,4.5,0,6.5-4,6.5-9s-2-9.5-6.5-9.5c-2.5,0-4,2.5-5.5,4-.5.5-1,0-.5-.5,1.5-1.5,4-5.5,4-9,0-4-2.5-9-6.5-9s-6.5,5-6.5,9c0,3.5,2.5,7.5,4,9,.5.5,0,1-.5.5-1.5-1.5-3-4-5.5-4-4.5,0-6.5,4.5-6.5,9.5s2,9,6.5,9c2.5,0,5-3,6-5,.5-.5.5,0,.5.5-.5,4-.5,5-1,8s-2,8.5-2,8.5c2.5-1,7.5-1,10,0,0,0-1.5-5.5-2-8.5s-.5-4-1-8c0-.5,0-1,.5-.5Z"/><path id="uuid-d3bf1d19-9677-4ea8-b6f7-3d7b2881a7e8" d="m332,421.5c1-2,3.5-5,6-5,4.5,0,6.5,4,6.5,9s-2,9.5-6.5,9.5c-2.5,0-4-2.5-5.5-4-.5-.5-1,0-.5.5,1.5,1.5,4,5.5,4,9,0,4-2.5,9-6.5,9s-6.5-5-6.5-9c0-3.5,2.5-7.5,4-9,.5-.5,0-1-.5-.5-1.5,1.5-3,4-5.5,4-4.5,0-6.5-4.5-6.5-9.5s2-9,6.5-9c2.5,0,5,3,6,5,.5.5.5,0,.5-.5-.5-4-.5-5-1-8s-2-8.5-2-8.5c2.5,1,7.5,1,10,0,0,0-1.5,5.5-2,8.5s-.5,4-1,8c0,.5,0,1,.5.5Z"/><path id="uuid-211ff69f-9a5b-4187-b4b9-d4ccb71b9a00" d="m94.5,100.5c2,4,7,10,12,10,9,0,13-8,13-18s-4-19-13-19c-5,0-8,5-11,8-1,1-2,0-1-1,3-3,8-11,8-18,0-8-5-18-13-18s-13,10-13,18c0,7,5,15,8,18,1,1,0,2-1,1-3-3-6-8-11-8-9,0-13,9-13,19s4,18,13,18c5,0,10-6,12-10,1-1,1,0,1,1-1,8-1,10-2,16s-4,17-4,17c5-2,15-2,20,0,0,0-3-11-4-17s-1-8-2-16c0-1,0-2,1-1Z"/><path id="uuid-515ec807-0a2d-4672-a4d0-f011d86f513f" d="m274.5,100.5c2,4,7,10,12,10,9,0,13-8,13-18s-4-19-13-19c-5,0-8,5-11,8-1,1-2,0-1-1,3-3,8-11,8-18,0-8-5-18-13-18s-13,10-13,18c0,7,5,15,8,18,1,1,0,2-1,1-3-3-6-8-11-8-9,0-13,9-13,19s4,18,13,18c5,0,10-6,12-10,1-1,1,0,1,1-1,8-1,10-2,16s-4,17-4,17c5-2,15-2,20,0,0,0-3-11-4-17s-1-8-2-16c0-1,0-2,1-1Z"/><path id="uuid-0ba827f0-7849-4002-a48c-3bb05ed95692" d="m184.5,190.5c2,4,7,10,12,10,9,0,13-8,13-18s-4-19-13-19c-5,0-8,5-11,8-1,1-2,0-1-1,3-3,8-11,8-18,0-8-5-18-13-18s-13,10-13,18c0,7,5,15,8,18,1,1,0,2-1,1-3-3-6-8-11-8-9,0-13,9-13,19s4,18,13,18c5,0,10-6,12-10,1-1,1,0,1,1-1,8-1,10-2,16s-4,17-4,17c5-2,15-2,20,0,0,0-3-11-4-17s-1-8-2-16c0-1,0-2,1-1Z"/><path id="uuid-af79417a-7e40-4bcf-8d8d-e2aa7146f633" d="m94.5,280.5c2,4,7,10,12,10,9,0,13-8,13-18s-4-19-13-19c-5,0-8,5-11,8-1,1-2,0-1-1,3-3,8-11,8-18,0-8-5-18-13-18s-13,10-13,18c0,7,5,15,8,18,1,1,0,2-1,1-3-3-6-8-11-8-9,0-13,9-13,19s4,18,13,18c5,0,10-6,12-10,1-1,1,0,1,1-1,8-1,10-2,16s-4,17-4,17c5-2,15-2,20,0,0,0-3-11-4-17s-1-8-2-16c0-1,0-2,1-1Z"/><path id="uuid-87eb20e1-b83b-48c2-acd7-d14a33f4e126" d="m274.5,280.5c2,4,7,10,12,10,9,0,13-8,13-18s-4-19-13-19c-5,0-8,5-11,8-1,1-2,0-1-1,3-3,8-11,8-18,0-8-5-18-13-18s-13,10-13,18c0,7,5,15,8,18,1,1,0,2-1,1-3-3-6-8-11-8-9,0-13,9-13,19s4,18,13,18c5,0,10-6,12-10,1-1,1,0,1,1-1,8-1,10-2,16s-4,17-4,17c5-2,15-2,20,0,0,0-3-11-4-17s-1-8-2-16c0-1,0-2,1-1Z"/><path id="uuid-33eb8461-9ca0-4a5e-836a-958292850084" d="m184.5,348.5c2-4,7-10,12-10,9,0,13,8,13,18s-4,19-13,19c-5,0-8-5-11-8-1-1-2,0-1,1,3,3,8,11,8,18,0,8-5,18-13,18s-13-10-13-18c0-7,5-15,8-18,1-1,0-2-1-1-3,3-6,8-11,8-9,0-13-9-13-19s4-18,13-18c5,0,10,6,12,10,1,1,1,0,1-1-1-8-1-10-2-16s-4-17-4-17c5,2,15,2,20,0,0,0-3,11-4,17s-1,8-2,16c0,1,0,2,1,1Z"/><path id="uuid-618cadf0-986d-4cf3-9898-0468efab82ca" d="m94.5,438.5c2-4,7-10,12-10,9,0,13,8,13,18s-4,19-13,19c-5,0-8-5-11-8-1-1-2,0-1,1,3,3,8,11,8,18,0,8-5,18-13,18s-13-10-13-18c0-7,5-15,8-18,1-1,0-2-1-1-3,3-6,8-11,8-9,0-13-9-13-19s4-18,13-18c5,0,10,6,12,10,1,1,1,0,1-1-1-8-1-10-2-16s-4-17-4-17c5,2,15,2,20,0,0,0-3,11-4,17s-1,8-2,16c0,1,0,2,1,1Z"/><path id="uuid-55629c7f-017b-4c3f-8324-d3ed21264d4e" d="m274.5,438.5c2-4,7-10,12-10,9,0,13,8,13,18s-4,19-13,19c-5,0-8-5-11-8-1-1-2,0-1,1,3,3,8,11,8,18,0,8-5,18-13,18s-13-10-13-18c0-7,5-15,8-18,1-1,0-2-1-1-3,3-6,8-11,8-9,0-13-9-13-19s4-18,13-18c5,0,10,6,12,10,1,1,1,0,1-1-1-8-1-10-2-16s-4-17-4-17c5,2,15,2,20,0,0,0-3,11-4,17s-1,8-2,16c0,1,0,2,1,1Z"/></g></svg>