<?xml version="1.0" encoding="UTF-8"?><svg id="uuid-9ec1d64e-a14b-4c97-81ff-09e64e063421" xmlns="http://www.w3.org/2000/svg" viewBox="0 0 359 539"><g id="uuid-373dfb74-8b7a-4ef2-8cca-ee8e3ff9e044"><path id="uuid-a6015465-c152-43dc-ba1a-92f40a8bfeb7" d="m29.5,29.5c-5.54,0-10,4.46-10,10v5c0,3,1.32,5.67,3.41,7.5-2.08,1.83-3.41,4.5-3.41,7.5v10c0,5.54,4.46,10,10,10s10-4.46,10-10v-10c0-3-1.32-5.67-3.41-7.5,2.08-1.83,3.41-4.5,3.41-7.5v-5c0-5.54-4.46-10-10-10Zm0,5c2.77,0,5,2.23,5,5v5c0,2.77-2.23,5-5,5s-5-2.23-5-5v-5c0-2.77,2.23-5,5-5Zm0,20c2.77,0,5,2.23,5,5v10c0,2.77-2.23,5-5,5s-5-2.23-5-5v-10c0-2.77,2.23-5,5-5Z"/><path id="uuid-675888dc-a5f8-4c66-84d8-c4cfb3c3580d" d="m329.5,509.5c-5.54,0-10-4.46-10-10v-5c0-3,1.32-5.67,3.41-7.5-2.08-1.83-3.41-4.5-3.41-7.5v-10c0-5.54,4.46-10,10-10s10,4.46,10,10v10c0,3-1.32,5.67-3.41,7.5,2.08,1.83,3.41,4.5,3.41,7.5v5c0,5.54-4.46,10-10,10h0Zm0-5c2.77,0,5-2.23,5-5v-5c0-2.77-2.23-5-5-5s-5,2.23-5,5v5c0,2.77,2.23,5,5,5Zm0-20c2.77,0,5-2.23,5-5v-10c0-2.77-2.23-5-5-5s-5,2.23-5,5v10c0,2.77,2.23,5,5,5Z"/><path id="uuid-4d6d3de1-ea9b-459d-8ebb-34d91e199691" d="m32,117.5c1,2,3.5,5,6,5,4.5,0,6.5-4,6.5-9s-2-9.5-6.5-9.5c-2.5,0-4,2.5-5.5,4-.5.5-1,0-.5-.5,1.5-1.5,4-5.5,4-9,0-4-2.5-9-6.5-9s-6.5,5-6.5,9c0,3.5,2.5,7.5,4,9,.5.5,0,1-.5.5-1.5-1.5-3-4-5.5-4-4.5,0-6.5,4.5-6.5,9.5s2,9,6.5,9c2.5,0,5-3,6-5,.5-.5.5,0,.5.5-.5,4-.5,5-1,8s-2,8.5-2,8.5c2.5-1,7.5-1,10,0,0,0-1.5-5.5-2-8.5s-.5-4-1-8c0-.5,0-1,.5-.5Z"/><path id="uuid-5010bcc5-5c24-43a4-8521-2293a1747a3d" d="m332,421.5c1-2,3.5-5,6-5,4.5,0,6.5,4,6.5,9s-2,9.5-6.5,9.5c-2.5,0-4-2.5-5.5-4-.5-.5-1,0-.5.5,1.5,1.5,4,5.5,4,9,0,4-2.5,9-6.5,9s-6.5-5-6.5-9c0-3.5,2.5-7.5,4-9,.5-.5,0-1-.5-.5-1.5,1.5-3,4-5.5,4-4.5,0-6.5-4.5-6.5-9.5s2-9,6.5-9c2.5,0,5,3,6,5,.5.5.5,0,.5-.5-.5-4-.5-5-1-8s-2-8.5-2-8.5c2.5,1,7.5,1,10,0,0,0-1.5,5.5-2,8.5s-.5,4-1,8c0,.5,0,1,.5.5Z"/><path id="uuid-302b5b15-dcec-4ee3-bbbc-fb70b93842a3" d="m94.5,100.5c2,4,7,10,12,10,9,0,13-8,13-18s-4-19-13-19c-5,0-8,5-11,8-1,1-2,0-1-1,3-3,8-11,8-18,0-8-5-18-13-18s-13,10-13,18c0,7,5,15,8,18,1,1,0,2-1,1-3-3-6-8-11-8-9,0-13,9-13,19s4,18,13,18c5,0,10-6,12-10,1-1,1,0,1,1-1,8-1,10-2,16s-4,17-4,17c5-2,15-2,20,0,0,0-3-11-4-17s-1-8-2-16c0-1,0-2,1-1Z"/><path id="uuid-1007da26-47a1-457d-90d6-2d198c682006" d="m274.5,100.5c2,4,7,10,12,10,9,0,13-8,13-18s-4-19-13-19c-5,0-8,5-11,8-1,1-2,0-1-1,3-3,8-11,8-18,0-8-5-18-13-18s-13,10-13,18c0,7,5,15,8,18,1,1,0,2-1,1-3-3-6-8-11-8-9,0-13,9-13,19s4,18,13,18c5,0,10-6,12-10,1-1,1,0,1,1-1,8-1,10-2,16s-4,17-4,17c5-2,15-2,20,0,0,0-3-11-4-17s-1-8-2-16c0-1,0-2,1-1Z"/><path id="uuid-3473a93d-5978-48a7-a6e8-1e1054c37d3a" d="m184.5,190.5c2,4,7,10,12,10,9,0,13-8,13-18s-4-19-13-19c-5,0-8,5-11,8-1,1-2,0-1-1,3-3,8-11,8-18,0-8-5-18-13-18s-13,10-13,18c0,7,5,15,8,18,1,1,0,2-1,1-3-3-6-8-11-8-9,0-13,9-13,19s4,18,13,18c5,0,10-6,12-10,1-1,1,0,1,1-1,8-1,10-2,16s-4,17-4,17c5-2,15-2,20,0,0,0-3-11-4-17s-1-8-2-16c0-1,0-2,1-1Z"/><path id="uuid-9463aa9b-af59-419d-8b19-4b1329dffb4f" d="m94.5,280.5c2,4,7,10,12,10,9,0,13-8,13-18s-4-19-13-19c-5,0-8,5-11,8-1,1-2,0-1-1,3-3,8-11,8-18,0-8-5-18-13-18s-13,10-13,18c0,7,5,15,8,18,1,1,0,2-1,1-3-3-6-8-11-8-9,0-13,9-13,19s4,18,13,18c5,0,10-6,12-10,1-1,1,0,1,1-1,8-1,10-2,16s-4,17-4,17c5-2,15-2,20,0,0,0-3-11-4-17s-1-8-2-16c0-1,0-2,1-1Z"/><path id="uuid-0460e7d0-6353-4b43-ae58-8bc4e66d01d3" d="m274.5,280.5c2,4,7,10,12,10,9,0,13-8,13-18s-4-19-13-19c-5,0-8,5-11,8-1,1-2,0-1-1,3-3,8-11,8-18,0-8-5-18-13-18s-13,10-13,18c0,7,5,15,8,18,1,1,0,2-1,1-3-3-6-8-11-8-9,0-13,9-13,19s4,18,13,18c5,0,10-6,12-10,1-1,1,0,1,1-1,8-1,10-2,16s-4,17-4,17c5-2,15-2,20,0,0,0-3-11-4-17s-1-8-2-16c0-1,0-2,1-1Z"/><path id="uuid-c482ec18-6665-4aec-9782-b09e9f7c5836" d="m184.5,348.5c2-4,7-10,12-10,9,0,13,8,13,18s-4,19-13,19c-5,0-8-5-11-8-1-1-2,0-1,1,3,3,8,11,8,18,0,8-5,18-13,18s-13-10-13-18c0-7,5-15,8-18,1-1,0-2-1-1-3,3-6,8-11,8-9,0-13-9-13-19s4-18,13-18c5,0,10,6,12,10,1,1,1,0,1-1-1-8-1-10-2-16s-4-17-4-17c5,2,15,2,20,0,0,0-3,11-4,17s-1,8-2,16c0,1,0,2,1,1Z"/><path id="uuid-191fc003-e2a0-4f38-a735-83c17414cc7f" d="m94.5,438.5c2-4,7-10,12-10,9,0,13,8,13,18s-4,19-13,19c-5,0-8-5-11-8-1-1-2,0-1,1,3,3,8,11,8,18,0,8-5,18-13,18s-13-10-13-18c0-7,5-15,8-18,1-1,0-2-1-1-3,3-6,8-11,8-9,0-13-9-13-19s4-18,13-18c5,0,10,6,12,10,1,1,1,0,1-1-1-8-1-10-2-16s-4-17-4-17c5,2,15,2,20,0,0,0-3,11-4,17s-1,8-2,16c0,1,0,2,1,1Z"/><path id="uuid-83c1b19c-10da-4e2a-a027-98b40688b183" d="m274.5,438.5c2-4,7-10,12-10,9,0,13,8,13,18s-4,19-13,19c-5,0-8-5-11-8-1-1-2,0-1,1,3,3,8,11,8,18,0,8-5,18-13,18s-13-10-13-18c0-7,5-15,8-18,1-1,0-2-1-1-3,3-6,8-11,8-9,0-13-9-13-19s4-18,13-18c5,0,10,6,12,10,1,1,1,0,1-1-1-8-1-10-2-16s-4-17-4-17c5,2,15,2,20,0,0,0-3,11-4,17s-1,8-2,16c0,1,0,2,1,1Z"/></g></svg>