<?xml version="1.0" encoding="UTF-8"?><svg id="uuid-0da891de-c7de-441d-bd6a-22ed6590f6f2" xmlns="http://www.w3.org/2000/svg" viewBox="0 0 359 539"><g id="uuid-edb8ccfb-6ebb-4c18-9c36-31d2d59f8a52"><path id="uuid-b3f78f97-eef6-4da0-adcb-79f98668f24e" d="m29.5,29.5c-5.54,0-10,4.46-10,10v5c0,3,1.32,5.67,3.41,7.5-2.08,1.83-3.41,4.5-3.41,7.5v10c0,5.54,4.46,10,10,10s10-4.46,10-10v-10c0-3-1.32-5.67-3.41-7.5,2.08-1.83,3.41-4.5,3.41-7.5v-5c0-5.54-4.46-10-10-10Zm0,5c2.77,0,5,2.23,5,5v5c0,2.77-2.23,5-5,5s-5-2.23-5-5v-5c0-2.77,2.23-5,5-5Zm0,20c2.77,0,5,2.23,5,5v10c0,2.77-2.23,5-5,5s-5-2.23-5-5v-10c0-2.77,2.23-5,5-5Z" style="fill:#f55;"/><path id="uuid-cd55083d-f338-4118-899f-65ab2dfdfc83" d="m329.5,509.5c-5.54,0-10-4.46-10-10v-5c0-3,1.32-5.67,3.41-7.5-2.08-1.83-3.41-4.5-3.41-7.5v-10c0-5.54,4.46-10,10-10s10,4.46,10,10v10c0,3-1.32,5.67-3.41,7.5,2.08,1.83,3.41,4.5,3.41,7.5v5c0,5.54-4.46,10-10,10h0Zm0-5c2.77,0,5-2.23,5-5v-5c0-2.77-2.23-5-5-5s-5,2.23-5,5v5c0,2.77,2.23,5,5,5Zm0-20c2.77,0,5-2.23,5-5v-10c0-2.77-2.23-5-5-5s-5,2.23-5,5v10c0,2.77,2.23,5,5,5Z" style="fill:#f55;"/><path id="uuid-f8b1dd6e-1228-4b64-b125-561d6f34063f" d="m89.5,44.5s6,15,13,25,17,20,17,20c0,0-10,10-17,20s-13,25-13,25c0,0-6-15-13-25s-17-20-17-20c0,0,10-10,17-20s13-25,13-25" style="fill:#f55;"/><path id="uuid-0fd02e2d-3a80-4556-b3c2-0a6386531967" d="m269.5,44.5s6,15,13,25,17,20,17,20c0,0-10,10-17,20s-13,25-13,25c0,0-6-15-13-25s-17-20-17-20c0,0,10-10,17-20s13-25,13-25" style="fill:#f55;"/><path id="uuid-a46a4ee2-d31d-49a0-91fd-48c9444bc290" d="m179.5,134.5s6,15,13,25,17,20,17,20c0,0-10,10-17,20s-13,25-13,25c0,0-6-15-13-25s-17-20-17-20c0,0,10-10,17-20s13-25,13-25" style="fill:#f55;"/><path id="uuid-6129c617-8548-4c9d-a6f9-0112161684a5" d="m89.5,224.5s6,15,13,25,17,20,17,20c0,0-10,10-17,20s-13,25-13,25c0,0-6-15-13-25s-17-20-17-20c0,0,10-10,17-20s13-25,13-25" style="fill:#f55;"/><path id="uuid-c5f3f2c0-dd39-46bd-bef8-e6ff72cff79e" d="m269.5,224.5s6,15,13,25,17,20,17,20c0,0-10,10-17,20s-13,25-13,25c0,0-6-15-13-25s-17-20-17-20c0,0,10-10,17-20s13-25,13-25" style="fill:#f55;"/><path id="uuid-10c8a81a-7f48-40c8-bd67-b662817d36d6" d="m179.5,314.5s6,15,13,25,17,20,17,20c0,0-10,10-17,20s-13,25-13,25c0,0-6-15-13-25s-17-20-17-20c0,0,10-10,17-20s13-25,13-25" style="fill:#f55;"/><path id="uuid-dcd60042-2e19-43a5-9efd-90f749fa3fc1" d="m89.5,404.5s6,15,13,25,17,20,17,20c0,0-10,10-17,20s-13,25-13,25c0,0-6-15-13-25s-17-20-17-20c0,0,10-10,17-20s13-25,13-25" style="fill:#f55;"/><path id="uuid-8a03cb26-66a7-472c-bdb4-c00d24e51866" d="m269.5,404.5s6,15,13,25,17,20,17,20c0,0-10,10-17,20s-13,25-13,25c0,0-6-15-13-25s-17-20-17-20c0,0,10-10,17-20s13-25,13-25" style="fill:#f55;"/><path id="uuid-cf997428-6631-4799-9af7-144fad9f7ba3" d="m29.5,89.5s3,7.5,6.5,12.5,8.5,10,8.5,10c0,0-5,5-8.5,10s-6.5,12.5-6.5,12.5c0,0-3-7.5-6.5-12.5s-8.5-10-8.5-10c0,0,5-5,8.5-10s6.5-12.5,6.5-12.5" style="fill:#f55;"/><path id="uuid-2e29f774-be9c-44d4-a412-e2a12574e3f2" d="m329.5,404.5s3,7.5,6.5,12.5,8.5,10,8.5,10c0,0-5,5-8.5,10s-6.5,12.5-6.5,12.5c0,0-3-7.5-6.5-12.5s-8.5-10-8.5-10c0,0,5-5,8.5-10s6.5-12.5,6.5-12.5" style="fill:#f55;"/></g></svg>