<?xml version="1.0" encoding="UTF-8"?><svg id="uuid-0a41f8d9-8894-41ff-8edf-063f22e1915c" xmlns="http://www.w3.org/2000/svg" viewBox="0 0 359 539"><g id="uuid-994005bd-fd95-4300-a83b-d001800cb51d"><path id="uuid-7352f8ae-8f42-4836-bfa6-d979070493a2" d="m27,29.5l-9,50h5l2.34-13h8.31l2.34,13h5l-9-50h-5Zm2.5,13.91l3.25,18.09h-6.5l3.25-18.09Z"/><path id="uuid-7232b57d-ca2d-4ef0-9037-fa1364d01fb5" d="m327,509.5l-9-50h5l2.34,13h8.31l2.34-13h5l-9,50h-5Zm2.5-13.91l3.25-18.09h-6.5l3.25,18.09h0Z"/><path id="uuid-38a2f61e-7488-407f-b64f-bc2ba770021d" d="m184.5,280.5c2,4,7,10,12,10,9,0,13-8,13-18s-4-19-13-19c-5,0-8,5-11,8-1,1-2,0-1-1,3-3,8-11,8-18,0-8-5-18-13-18s-13,10-13,18c0,7,5,15,8,18,1,1,0,2-1,1-3-3-6-8-11-8-9,0-13,9-13,19s4,18,13,18c5,0,10-6,12-10,1-1,1,0,1,1-1,8-1,10-2,16s-4,17-4,17c5-2,15-2,20,0,0,0-3-11-4-17s-1-8-2-16c0-1,0-2,1-1Z"/><path id="uuid-a5a817ef-b3d2-4d6e-a24f-0917a2cb054c" d="m32,117.5c1,2,3.5,5,6,5,4.5,0,6.5-4,6.5-9s-2-9.5-6.5-9.5c-2.5,0-4,2.5-5.5,4-.5.5-1,0-.5-.5,1.5-1.5,4-5.5,4-9,0-4-2.5-9-6.5-9s-6.5,5-6.5,9c0,3.5,2.5,7.5,4,9,.5.5,0,1-.5.5-1.5-1.5-3-4-5.5-4-4.5,0-6.5,4.5-6.5,9.5s2,9,6.5,9c2.5,0,5-3,6-5,.5-.5.5,0,.5.5-.5,4-.5,5-1,8s-2,8.5-2,8.5c2.5-1,7.5-1,10,0,0,0-1.5-5.5-2-8.5s-.5-4-1-8c0-.5,0-1,.5-.5Z"/><path id="uuid-0b2f3c3c-327d-45f4-969e-85deb0ef5a07" d="m332,421.5c1-2,3.5-5,6-5,4.5,0,6.5,4,6.5,9s-2,9.5-6.5,9.5c-2.5,0-4-2.5-5.5-4-.5-.5-1,0-.5.5,1.5,1.5,4,5.5,4,9,0,4-2.5,9-6.5,9s-6.5-5-6.5-9c0-3.5,2.5-7.5,4-9,.5-.5,0-1-.5-.5-1.5,1.5-3,4-5.5,4-4.5,0-6.5-4.5-6.5-9.5s2-9,6.5-9c2.5,0,5,3,6,5,.5.5.5,0,.5-.5-.5-4-.5-5-1-8s-2-8.5-2-8.5c2.5,1,7.5,1,10,0,0,0-1.5,5.5-2,8.5s-.5,4-1,8c0,.5,0,1,.5.5Z"/></g></svg>