<?xml version="1.0" encoding="UTF-8"?><svg id="uuid-9c8e3edc-b2a1-4e5a-8a13-76bf91d16ba1" xmlns="http://www.w3.org/2000/svg" viewBox="0 0 359 539"><g id="uuid-f4894904-ac14-48a9-9c81-eb8de75d048c"><path id="uuid-ae721b65-5849-43cc-8858-229ad6dffdba" d="m27,29.5l-9,50h5l2.34-13h8.31l2.34,13h5l-9-50h-5Zm2.5,13.91l3.25,18.09h-6.5l3.25-18.09Z" style="fill:#f55;"/><path id="uuid-8159a464-bff6-4b62-84b8-f939a5fa69d2" d="m327,509.5l-9-50h5l2.34,13h8.31l2.34-13h5l-9,50h-5Zm2.5-13.91l3.25-18.09h-6.5l3.25,18.09h0Z" style="fill:#f55;"/><path id="uuid-bc74bdb3-8707-40d2-865e-dda9946c5c72" d="m178.5,242.5c0-11.05-5.72-18-14-18s-15,8.95-15,20c.03.96.02,1.89,0,2.81,0,7.3,2.68,14.38,5,21,2.39,6.81,5.83,12.78,9.06,18.88,5,9.44,15.94,27.31,15.94,27.31,0,0,10.94-17.87,15.94-27.31,3.23-6.09,6.67-12.06,9.06-18.88,2.32-6.62,5-13.7,5-21-.03-.97-.02-1.91,0-2.81,0-11.05-6.72-20-15-20s-14,6.95-14,18c0,2-2,2-2,0Z" style="fill:#f55;"/><path id="uuid-f164ec48-ec90-49cc-a713-e70895a9e627" d="m29,98.5c0-5.52-2.86-9-7-9s-7.5,4.48-7.5,10c.02.48,0,.95,0,1.41,0,3.65,1.34,7.19,2.5,10.5,1.19,3.41,2.92,6.39,4.53,9.44,2.5,4.72,7.97,13.66,7.97,13.66,0,0,5.47-8.94,7.97-13.66,1.61-3.05,3.34-6.03,4.53-9.44,1.16-3.31,2.5-6.85,2.5-10.5-.01-.49,0-.96,0-1.41,0-5.52-3.36-10-7.5-10s-7,3.48-7,9c0,1-1,1-1,0Z" style="fill:#f55;"/><path id="uuid-03fa9924-912e-4073-a65d-cb745dab2179" d="m330,440.5c0,5.52,2.86,9,7,9s7.5-4.48,7.5-10c0-.45-.01-.92,0-1.41,0-3.65-1.34-7.19-2.5-10.5-1.19-3.41-2.92-6.39-4.53-9.44-2.5-4.72-7.97-13.66-7.97-13.66,0,0-5.47,8.94-7.97,13.66-1.61,3.05-3.34,6.03-4.53,9.44-1.16,3.31-2.5,6.85-2.5,10.5,0,.46.02.93,0,1.41,0,5.52,3.36,10,7.5,10s7-3.48,7-9c0-1,1-1,1,0Z" style="fill:#f55;"/></g></svg>