<?xml version="1.0" encoding="UTF-8"?><svg id="uuid-7accc2e2-7cc6-4d8c-942c-df2f61195e28" xmlns="http://www.w3.org/2000/svg" viewBox="0 0 359 539"><g id="uuid-ff3122c1-50c0-4aaa-a8c7-cc0ed80a056f"><path id="uuid-b35c04dc-458c-4f2a-981a-4b0e0bbcaac4" d="m179.5,224.5s6,15,13,25,17,20,17,20c0,0-10,10-17,20s-13,25-13,25c0,0-6-15-13-25s-17-20-17-20c0,0,10-10,17-20s13-25,13-25" style="fill:#f55;"/><path id="uuid-2b33c65f-5a7a-4efb-8543-8d259c11c1fc" d="m27,29.5l-9,50h5l2.34-13h8.31l2.34,13h5l-9-50h-5Zm2.5,13.91l3.25,18.09h-6.5l3.25-18.09Z" style="fill:#f55;"/><path id="uuid-48a68d85-09bf-4688-84c0-d6ca42203792" d="m327,509.5l-9-50h5l2.34,13h8.31l2.34-13h5l-9,50h-5Zm2.5-13.91l3.25-18.09h-6.5l3.25,18.09h0Z" style="fill:#f55;"/><path id="uuid-0b982786-16b8-46c4-be62-663b49b22fd1" d="m29.5,89.5s3,7.5,6.5,12.5,8.5,10,8.5,10c0,0-5,5-8.5,10s-6.5,12.5-6.5,12.5c0,0-3-7.5-6.5-12.5s-8.5-10-8.5-10c0,0,5-5,8.5-10s6.5-12.5,6.5-12.5" style="fill:#f55;"/><path id="uuid-14ca7222-950a-4d27-abcd-1581b5a2a13b" d="m329.5,404.5s3,7.5,6.5,12.5,8.5,10,8.5,10c0,0-5,5-8.5,10s-6.5,12.5-6.5,12.5c0,0-3-7.5-6.5-12.5s-8.5-10-8.5-10c0,0,5-5,8.5-10s6.5-12.5,6.5-12.5" style="fill:#f55;"/></g></svg>