<?xml version="1.0" encoding="UTF-8"?><svg id="uuid-58766acf-7c78-44df-9a24-a2bc9af0899e" xmlns="http://www.w3.org/2000/svg" viewBox="0 0 359 539"><g id="uuid-398451ae-1d13-48ee-b969-5b2f69bf23cf"><g id="uuid-edc8db73-5d90-4fb6-ab89-5d0dcba8e921"><path id="uuid-61b64f79-afa4-436e-a079-a42f9729fa27" d="m143.94,194.97l-5.84,3-3.38,3.72-5.47-3.38-6-1.06-5.5,3.38-4.41,6.19,5.84,6.72,6.72,9.19,5.81,10.25,5.5,11.12,4.59,13.09,3,14.31,1.06.03,2.19,14.53s1.25,15.55,1.25,14.84,1.78,13.09,1.78,13.09l4.41,8.66,7.44,6.34,8.66,1.06,6.53,5.84,7.44,4.59,7.94-.72,7.44-3,6.19,4.59,7.94,2.66,5.84-3,3.38-3.72,5.47,3.38,6,1.06,5.5-3.38,4.41-6.19-5.84-6.72-6.72-9.19-5.81-10.25-5.5-11.12-4.59-13.09-3-14.31-1.06-.03-2.19-14.53s-1.25-15.55-1.25-14.84-1.78-13.09-1.78-13.09l-4.41-8.66-7.44-6.34-8.66-1.06-6.53-5.84-7.44-4.59-7.94.72-7.44,3-6.19-4.59-7.94-2.66Z"/><path id="uuid-f38bbc9e-ed81-4c39-935f-3bf2423eeadd" d="m144.28,69.63c-2.3,5.13-4.12,10.49-6.89,15.38-1.77,3.13-4.32,5.76-6.19,8.84-1.72,2.84-3.46,5.72-4.6,8.84-.84,2.33-1.64,4.77-1.59,7.25.05,2.31,1.18,4.48,1.77,6.72-1.65,2.47-3.3,4.95-4.95,7.42-2.53.29-5.33-.28-7.6.88-2.34,1.2-4.36,3.38-5.3,5.83-.96,2.47-.86,5.45,0,7.95.87,2.54,2.72,4.86,4.95,6.36,2.13,1.44,4.86,2.38,7.42,2.12,2.91-.3,5.44-2.31,7.78-4.07,2.73-2.06,4.71-4.95,7.07-7.42.71,2,.92,4.26,2.12,6.01,1.18,1.72,2.84,3.28,4.77,4.07,1.7.69,3.67.61,5.48.35,2.05-.29,4.04-1.08,5.83-2.12.87-.5,1.35-1.62,2.3-1.94,4.51-1.56,9.55.35,14.32.53,2.12-5.42,4.24-10.84,6.36-16.26-.59-1.18-1.18-2.36-1.77-3.54,2.3.35,4.59,1.39,6.89,1.06,2.06-.3,4.22-1.14,5.66-2.65,1.4-1.48,2.03-3.64,2.3-5.66.26-1.94.01-4.01-.71-5.83-.81-2.04-2.11-4.02-3.89-5.3-1.1-.79-2.59-.82-3.89-1.24.65-2.47,1.12-5,1.94-7.42.93-2.73,2.15-5.34,3.36-7.95.94-2.03,2.09-3.97,3.01-6.01,1.3-2.89,2.59-5.81,3.54-8.84.79-2.54,1.21-5.18,1.77-7.78.5-2.29.94-4.6,1.41-6.89-3.89.12-7.79.01-11.67.35-3.26.29-6.48.93-9.72,1.41-3.42.51-6.86.91-10.25,1.59-3.1.63-6.2,1.28-9.19,2.3-2.37.81-4.64,1.91-6.89,3.01-1.68.82-3.3,1.77-4.95,2.65Z" style="fill:#ff5;"/><path id="uuid-abb43d7d-8299-4ff1-942b-a416584c8dd6" d="m124.54,145.86s3.66-1.46,5.23-2.61c1.69-1.25,4.36-4.57,4.36-4.57l.22,61.87s-3.79-2.35-5.88-3.05c-1.26-.42-3.92-.65-3.92-.65v-50.98Z"/><path id="uuid-b7273a56-9557-49cc-8b6f-fa2b05c84776" d="m133.69,170.47l78.21-.44-25.27,39.65s-8.97-8.86-14.81-10.24c-4.57-1.08-13.94,1.96-13.94,1.96,0,0-8.45-6-13.29-5.88-4.06.1-10.89,5.45-10.89,5.45" style="fill:#f55;"/><path id="uuid-8f260160-f45d-40de-afd2-053fabd07b54" d="m226.5,148.75l-39,60.5s4.07-.28,6,.25c1.19.33,3.25,1.75,3.25,1.75l41.75-64.75-3.5-2-3.25,2.25-5.25,2Z"/><path id="uuid-29020653-d9c9-492b-a8c5-f3a88b55232a" d="m134.5,169.5h78l12.78-19.58-90.78-.42v20Z" style="fill:#ff5; stroke:#55a; stroke-linecap:round; stroke-linejoin:round; stroke-width:2px;"/><path id="uuid-6212df07-1fd9-4f43-97c8-a69f217c9699" d="m217.88,288.75l10.75,6.88,7.38,6.5,6.5,8.25,5,8.88,3.38,8.5.62,6.88-.5,6.62-8.75-10.75-5.5-6.75-5.25-7.62-4.38-7-4.75-8.12-3.5-7.5-1-4.75Z" style="fill:#55a;"/><path id="uuid-9c867207-00d4-44ca-8be0-ba2ce61c93b7" d="m213.37,230.8c7,1.33,11.44,2.58,16.88,4.7,9.24,3.6,18.26,7.99,26.5,13.5,6.83,4.56,13.12,10.01,18.75,16,6.93,7.37,13.32,15.42,18.25,24.25,3.81,6.82,6.53,14.28,8.56,21.83,2.1,7.79,3.17,15.87,3.69,23.92.45,6.99.23,14.04-.5,21-.42,4.05-1.46,8.01-2.25,12-.79,4.01-1.67,8-2.5,12,0,0,9.3,4.01,14.12,5.53,4.79,1.51,14.63,3.54,14.63,3.54v-158.22l-82.51-51.97-33.62,51.93Z" style="fill:#55a; stroke:#55a; stroke-linecap:round; stroke-linejoin:round; stroke-width:2px;"/><path id="uuid-cbaea0de-d223-416f-a48b-9a363a690f39" d="m296.41,368.54c1.3-6.38,2.78-12.79,3.09-19.29.44-9.26-.08-18.63-1.75-27.75-1.32-7.21-3.57-14.29-6.5-21-3.47-7.94-7.85-15.54-13-22.5-4.07-5.5-8.87-10.48-14-15-6.32-5.56-13.26-10.46-20.5-14.75-3.66-2.17-7.55-3.94-11.5-5.5-4.14-1.63-8.44-2.86-12.75-4-3.39-.89-7.02-1.84-10.27-2.21l2.06,18.66,11.45,3.6,17.81,7.42,19.29,17.38,11.87,16.96,6.78,17.38,3.18,20.78-1.27,13.78-2.76,13.99c6.78,5.3,11.02,7.61,16.54,11.02,0,0,1.61-5.96,2.22-8.99h0Z" style="fill:#55a; stroke:#55a; stroke-linecap:round; stroke-linejoin:round; stroke-width:2px;"/><path id="uuid-be6af19c-746e-4333-91a0-31f40b606acc" d="m119.5,29.5l25,40s6.47-3.79,10-5c8.04-2.76,16.54-4.16,25-5,9.95-.99,20.03-.82,30,0,10.1.84,30,5,30,5l25-35H119.5Z" style="fill:#f55; stroke:#55a; stroke-linecap:round; stroke-linejoin:round; stroke-width:2px;"/><path id="uuid-46509714-c6a7-4d90-8dfc-681a5c757e25" d="m238.98,64.53s3.14,9.29,2.35,13.93c-.45,2.65-3.22,4.47-3.89,7.07-.26,1.03-.28,2.16,0,3.18,1.77,6.58,8.08,11.22,10.25,17.68.3.9.7,1.94.35,2.83-1.41,3.58-7.21,3.94-8.84,7.42-1.05,2.24.78,5.08,0,7.42-.37,1.12-1.86,1.68-2.12,2.83-.4,1.76,1.28,3.51,1.06,5.3-.23,1.94-1.99,3.41-2.47,5.3-.44,1.72.54,3.78-.35,5.3-1.42,2.42-4.45,3.58-7.07,4.6-3.34,1.3-7.02,1.76-10.61,1.77-5.13,0-10.36-.76-15.2-2.47-4.48-1.59-8.45-4.39-12.37-7.07-2.48-1.7-4.96-3.48-7.01-5.68-3.01-3.22-7.58-10.83-7.58-10.83" style="fill:none; stroke:#55a; stroke-linecap:round; stroke-linejoin:round; stroke-width:2px;"/><path id="uuid-21623716-c2a2-474b-96fc-fd71020d6e9b" d="m234.03,75.26s-4.33-3.63-6.99-4.2c-3.78-.8-7.81.26-11.5,1.4-3.12.96-5.82,2.96-8.7,4.51-1.41.76-4.2,2.33-4.2,2.33,0,0,5.2-2.87,7.93-4.04,2.57-1.1,5.16-2.32,7.93-2.8,2.66-.45,5.43-.48,8.08,0,2.61.47,7.46,2.8,7.46,2.8h0Z" style="fill:none; stroke:#55a; stroke-linecap:round; stroke-linejoin:round; stroke-width:2px;"/><path id="uuid-0ffa4084-f240-4282-92e2-fb94fcaa00b7" d="m226.57,78.83s-3.42-.82-5.13-.62c-2.25.26-4.38,1.26-6.37,2.33-1.93,1.03-3.65,2.44-5.28,3.89-1.76,1.56-4.82,5.13-4.82,5.13" style="fill:none; stroke:#55a; stroke-linecap:round; stroke-linejoin:round; stroke-width:2px;"/><path id="uuid-644ecf6d-a6df-4772-a632-def1d364844c" d="m229.99,80.7s-2,1.22-3.11,1.55c-2.05.62-4.28.34-6.37.78-1.59.33-3.16.79-4.66,1.4-1.68.68-3.24,1.61-4.82,2.49-1.16.64-2.23,1.45-3.42,2.02-.8.38-2.49.93-2.49.93" style="fill:none; stroke:#55a; stroke-linecap:round; stroke-linejoin:round; stroke-width:2px;"/><path id="uuid-befe65c1-5f6d-466e-9f48-def219ff1469" d="m228.12,90.64s-2.48,3.21-3.89,4.66c-.92.95-1.9,1.84-2.95,2.64-.98.75-3.11,2.02-3.11,2.02" style="fill:none; stroke:#55a; stroke-linecap:round; stroke-linejoin:round; stroke-width:2px;"/><path id="uuid-6946d075-e2f2-4f11-a816-9a2679bd3bae" d="m227.97,105.25s-1.97,2.92-1.71,4.51c.24,1.45,1.47,2.79,2.8,3.42,1.31.62,2.94.32,4.35,0,.95-.21,1.8-.76,2.64-1.24,1.09-.63,1.89-1.84,3.11-2.18.65-.18,1.85-.5,2.02.16.24.9-1.5,1.13-2.33,1.55-1.08.55-2.25.92-3.42,1.24-1.32.37-2.67.8-4.04.78-1.38-.03-3.05.03-4.04-.93-.73-.71-.8-1.94-.78-2.95.04-1.52,1.4-4.35,1.4-4.35h0Z" style="fill:none; stroke:#55a; stroke-linecap:round; stroke-linejoin:round; stroke-width:2px;"/><path id="uuid-1cb25878-4d6d-4fcb-96c9-731de0d97f40" d="m213.98,117.38s-2.18-2.21-3.57-2.18c-1.19.03-2.25,1.05-2.95,2.02-.76,1.05-1.23,2.44-1.09,3.73.13,1.18.79,2.36,1.71,3.11,1.64,1.33,3.96,2.06,6.06,1.87,2.1-.2,3.77-1.89,5.6-2.95,1.65-.97,3.16-2.16,4.82-3.11,1.41-.8,2.75-1.93,4.35-2.18,1.66-.26,3.69-.31,4.97.78.38.32.78,1.02.47,1.4-.91,1.08-2.78-.69-4.2-.62-1.71.08-3.39.6-4.97,1.24-2.11.85-3.84,2.46-5.91,3.42-2.1.97-4.22,2.5-6.53,2.33-1.76-.13-3.46-1.2-4.66-2.49-.96-1.04-1.73-2.47-1.71-3.89.02-1.32.67-2.76,1.71-3.57,1-.78,2.5-1.09,3.73-.78.93.24,2.18,1.87,2.18,1.87Z" style="fill:none; stroke:#55a; stroke-linecap:round; stroke-linejoin:round; stroke-width:2px;"/><path id="uuid-b70c7450-7f21-4edd-86be-be834532cc4b" d="m236.05,124.37c-1.5.28-3,.53-4.51.78-2.23.37-4.59.24-6.68,1.09-.76.31-2.02,1.4-2.02,1.4,0,0,2.52-1.2,3.89-1.4,1.95-.29,3.93.32,5.91.31,1.56-.01,4.66-.31,4.66-.31l1.87-2.49s-2.07.43-3.11.62h0Z" style="fill:none; stroke:#55a; stroke-linecap:round; stroke-linejoin:round; stroke-width:2px;"/><path id="uuid-0fd51e53-6703-4b7f-807b-5100722ecee6" d="m223.46,83.18c1.16,0,2.4.64,3.11,1.55.94,1.22,1.51,3.08.93,4.51-.52,1.28-2.04,2.24-3.42,2.33-1.73.12-3.69-.89-4.66-2.33-.73-1.08-.95-2.75-.31-3.89.8-1.41,2.73-2.18,4.35-2.18Z" style="fill:none; stroke:#55a; stroke-linecap:round; stroke-linejoin:round; stroke-width:2px;"/><path id="uuid-2d049796-41f2-46b1-92d8-fe719cb6aa36" d="m207.92,89.09s3.66-.22,5.44.16c1.48.31,2.73,1.35,4.2,1.71,2.02.5,6.22.62,6.22.62" style="fill:none; stroke:#55a; stroke-linecap:round; stroke-linejoin:round; stroke-width:2px;"/><path id="uuid-74e8f135-ba25-4e0a-8c92-97f8bb6b424d" d="m224.24,85.36c-.95-.03-1.84,1.22-1.87,2.18-.02.92.79,2.19,1.71,2.18.96-.02,1.72-1.37,1.71-2.33,0-.85-.7-2-1.55-2.02h0Z" style="fill:#55a; stroke:#55a; stroke-linecap:round; stroke-linejoin:round; stroke-width:2px;"/><path id="uuid-8e18af16-07e1-47bc-8604-4ceff8f23c2a" d="m133.95,29.5l14.5,28.53c6.49-2.25,12.08-3.34,20.36-4.27l-3.9-24.27h-5.73l5.12,20.73c-4.75.33-9.19,1.29-13.29,2.93l-10.48-23.66h-6.58Z" style="fill:#55a; stroke:#55a; stroke-linecap:round; stroke-linejoin:round; stroke-width:2px;"/><path id="uuid-cf1d0b39-d598-44e3-b7ad-12f9034bb830" d="m173.8,29.5l3.05,23.29c10.08-.94,18.15-1.49,28.23-.49l5.49-22.8h-6.46l-3.05,17.81c-7.92-.47-12.56,0-19.21.49l-2.23-18.29h-5.82Z" style="fill:#55a; stroke:#55a; stroke-linecap:round; stroke-linejoin:round; stroke-width:2px;"/><path id="uuid-119ee5e2-0267-45d2-bf0a-07452b87a37b" d="m220.37,29.5l-7.31,23.05c7.36.61,14.06,1.02,22.06,2.93l15.72-25.97h-6.34l-12.07,21.34c-4.47-1.22-8.33-1.58-12.8-2.19l6.22-19.15h-5.49Z" style="fill:#55a; stroke:#55a; stroke-linecap:round; stroke-linejoin:round; stroke-width:2px;"/><path id="uuid-8ec1b07a-fcb3-45d1-9ed6-63345aa7f761" d="m144.47,69.77s-4.62,10.62-7.41,15.69c-3.05,5.54-7.92,10.12-10.17,16.03-1.26,3.32-2.35,7.02-1.72,10.52.51,2.86,2.06,5.74,4.31,7.58,1.82,1.5,4.36,2.23,6.72,2.24,2.6,0,5.61-.54,7.41-2.41,1.92-2,2.42-5.24,2.24-8-.18-2.78-1.19-5.84-3.27-7.69-1.07-.95-2.7-1.26-4.14-1.21-1.83.06-3.89.58-5.17,1.9-1.52,1.56-2.21,4.03-2.07,6.21.12,1.85.9,3.94,2.41,5,1.42.99,3.6,1.24,5.17.52,1.27-.59,2.23-2.06,2.41-3.45.16-1.24-.44-2.61-1.31-3.52-.58-.6-2.31-.97-2.31-.97" style="fill:none; stroke:#55a; stroke-linecap:round; stroke-linejoin:round; stroke-width:2px;"/><path id="uuid-c963f950-24fb-4dbf-bca2-b12538e8e189" d="m163.51,62.53s-4.43,14.14-7.41,20.9c-2.22,5.02-6,9.33-7.76,14.53-1.5,4.43-3.18,9.28-2.24,13.86.56,2.73,2.37,5.35,4.48,7.07,1.89,1.54,4.36,2.41,6.72,2.42,2.6.01,5.54-.78,7.41-2.61,2.19-2.13,3.44-5.52,3.28-8.57-.17-3.13-1.91-6.34-4.31-8.36-1.11-.93-2.7-1.35-4.14-1.3-1.83.07-3.89.62-5.17,2.05-1.52,1.69-2.21,4.35-2.07,6.7.12,1.99.92,4.11,2.41,5.4,1.36,1.16,3.45,1.91,5.17,1.42,1.55-.44,2.92-1.98,3.28-3.55.38-1.68-.44-4.15-1.55-4.94-2.97-2.14-4.31.79-4.31.79" style="fill:none; stroke:#55a; stroke-linecap:round; stroke-linejoin:round; stroke-width:2px;"/><path id="uuid-04dbfc8f-a331-4c64-a812-037a58b4a39e" d="m183.13,59.6s-1.65,12.01-6.38,22.79c-2.26,5.15-5.44,9.96-6.9,15.4-1.32,4.93-2.51,10.22-1.55,15.24.59,3.06,1.97,6.23,4.31,8.28,1.79,1.57,4.34,2.3,6.72,2.42,2.66.14,5.78-.13,7.76-1.92,2.43-2.2,3.55-6,3.28-9.26-.27-3.18-2.18-6.34-4.65-8.36-1.12-.91-2.69-1.35-4.14-1.3-1.85.07-3.91.69-5.17,2.05-1.59,1.72-2.21,4.37-2.07,6.7.12,1.97.92,4.11,2.41,5.4,1.36,1.16,3.45,1.91,5.17,1.42,1.55-.44,2.92-1.98,3.28-3.55.38-1.68-.44-4.15-1.55-4.94-2.97-2.14-4.31.79-4.31.79" style="fill:none; stroke:#55a; stroke-linecap:round; stroke-linejoin:round; stroke-width:2px;"/><path id="uuid-9f1bc3d1-6e7f-4068-bd41-2b1247078f01" d="m150.68,67.01c-1.15,3.62-1.93,7.38-3.45,10.86-1.87,4.29-4.44,8.25-6.9,12.24-1.67,2.71-3.83,5.13-5.34,7.93-1.55,2.85-2.82,6.03-3.79,8.96" style="fill:none; stroke:#55a; stroke-linecap:round; stroke-linejoin:round; stroke-width:2px;"/><path id="uuid-9fd8a717-df9b-4fcc-abfa-0483060fb1a2" d="m157.05,64.85c-.97,3.39-1.63,6.9-2.9,10.16-1.57,4.02-3.7,7.73-5.81,11.45-1.6,2.83-3.8,5.32-5.2,8.26-1.17,2.45-1.82,4.97-2.64,7.71" style="fill:none; stroke:#55a; stroke-linecap:round; stroke-linejoin:round; stroke-width:2px;"/><path id="uuid-fec38082-0328-4b48-a61b-ec245397e48b" d="m169.47,60.98c-.97,3.88-1.63,7.92-2.9,11.65-1.57,4.61-3.7,8.86-5.81,13.13-1.6,3.25-3.8,6.11-5.2,9.47-1.17,2.81-1.82,5.7-2.64,8.84" style="fill:none; stroke:#55a; stroke-linecap:round; stroke-linejoin:round; stroke-width:2px;"/><path id="uuid-0c61fd6e-490a-4e44-9bb9-cad650ca8c7b" d="m176.88,60.46c-.91,3.56-1.53,7.25-2.72,10.67-1.47,4.22-3.53,8.06-5.44,12.03-1.44,2.98-3.22,5.81-4.53,8.85-1.11,2.57-2.05,5.04-2.82,7.92" style="fill:none; stroke:#55a; stroke-linecap:round; stroke-linejoin:round; stroke-width:2px;"/><path id="uuid-7ef25f6f-fe5e-4d0a-93c2-3175dbc05087" d="m189.63,59.08c-.88,4.46-1.34,9.02-2.63,13.38-1.43,4.83-3.8,9.33-5.61,14.04-1.51,3.95-3.15,7.86-4.37,11.91-1,3.33-1.65,6.54-2.39,10.15" style="fill:none; stroke:#55a; stroke-linecap:round; stroke-linejoin:round; stroke-width:2px;"/><path id="uuid-efdb9c10-1e47-4efd-9262-57b22a7f6560" d="m196.7,59.34c-.83,3.84-1.39,7.82-2.48,11.51-1.34,4.55-3.16,8.76-4.96,12.97-1.37,3.21-3.24,6.03-4.44,9.36-1,2.78-1.55,5.63-2.26,8.73" style="fill:none; stroke:#55a; stroke-linecap:round; stroke-linejoin:round; stroke-width:2px;"/><path id="uuid-b27fe271-0978-40b8-ae02-4aeb396bbce0" d="m143.77,119.32c-2.33,5.25-4.04,10.78-7.31,15.44-2.64,3.75-5.72,7.48-9.71,9.74-2.69,1.53-5.95,2.76-9,2.25-2.55-.43-4.93-2.19-6.5-4.25-1.65-2.16-2.51-5.04-2.5-7.75.01-2.64.81-5.48,2.5-7.5,1.46-1.74,3.8-2.69,6-3.25,1.86-.47,4-.78,5.75,0,2.05.91,3.54,2.97,4.5,5,.94,1.98,1.68,4.42,1,6.5-.7,2.13-2.68,3.89-4.75,4.75-1.77.73-4.04.87-5.75,0-1.38-.7-2.27-2.28-2.75-3.75-.41-1.27-.6-2.81,0-4,.61-1.21,1.91-2.28,3.25-2.41,1.1-.11,2.4.49,3,1.41.54.85.27,2.39.04,3.02" style="fill:none; stroke:#55a; stroke-linecap:round; stroke-linejoin:round; stroke-width:2px;"/><path id="uuid-39ab9eb5-d562-454c-a159-c864b4e5e648" d="m168.42,115.86c-2.03,4.55-2.92,10.63-5.37,15.53-2.26,4.52-4.36,9.63-8.48,12.56-2.61,1.86-6.12,2.98-9.29,2.47-2.22-.36-4.29-1.9-5.66-3.69-1.43-1.87-2.21-4.37-2.18-6.72.03-2.16.82-4.42,2.18-6.09,1.29-1.59,3.25-2.67,5.22-3.23,1.61-.46,3.48-.68,5.01,0,1.78.79,3.09,2.58,3.92,4.34.74,1.56,1.25,3.46.77,5.12-.57,1.97-2.17,3.79-4.03,4.64-1.52.69-3.52.75-5.01,0-1.2-.61-2.05-1.95-2.39-3.25-.32-1.19-.24-2.63.41-3.68.51-.81,1.47-1.4,2.42-1.53,1.08-.14,2.48.09,3.13.97.61.83.56,2.79.01,3.1" style="fill:none; stroke:#55a; stroke-linecap:round; stroke-linejoin:round; stroke-width:2px;"/><path id="uuid-75a74ce2-326c-48a4-8c25-49a12f4814e8" d="m126.5,116.93c-1.39,2.68-3.12,4.68-4.77,6.84" style="fill:none; stroke:#55a; stroke-linecap:round; stroke-linejoin:round; stroke-width:2px;"/><path id="uuid-ec06150e-1152-40ac-a1dc-26c43399cdb3" d="m130.75,120.87c-1.62,2.54-2.89,4.05-4.25,5.81" style="fill:none; stroke:#55a; stroke-linecap:round; stroke-linejoin:round; stroke-width:2px;"/><path id="uuid-5dd0733c-1dcd-44fd-b022-77d21c0bd2cd" d="m136.97,122.01c-2.44,4.35-4.99,8.31-7.98,10.47" style="fill:none; stroke:#55a; stroke-linecap:round; stroke-linejoin:round; stroke-width:2px;"/><path id="uuid-6dd58a43-0a5d-4bd3-914a-c761cd9c53ae" d="m149.41,118.8c-.15,2.37-1.46,4.68-2.18,7.36" style="fill:none; stroke:#55a; stroke-linecap:round; stroke-linejoin:round; stroke-width:2px;"/><path id="uuid-619127eb-e92c-4554-b54d-1363d1249a38" d="m155.06,121.34c-.15,2.37-1.46,4.68-2.18,7.36" style="fill:none; stroke:#55a; stroke-linecap:round; stroke-linejoin:round; stroke-width:2px;"/><path id="uuid-0a5fb311-d6c9-4efd-a9f4-4dccafc213b5" d="m160.76,121.34c-.25,3.41-3.75,10.87-5.7,14" style="fill:none; stroke:#55a; stroke-linecap:round; stroke-linejoin:round; stroke-width:2px;"/><path id="uuid-18e2f54a-7b39-4a49-b8f4-3e568422cbeb" d="m172.22,121.08c-.69,3.97-2.15,7.63-3.63,11.3-1.32,3.28-2.9,6.15-4.67,9.54" style="fill:none; stroke:#55a; stroke-linecap:round; stroke-linejoin:round; stroke-width:2px;"/><path id="uuid-dcbf95ea-6ce3-43e1-a996-025b64c61833" d="m176.99,125.95c-.76,2.94-1.73,5.92-2.8,8.81-.95,2.57-2.04,4.84-3.21,7.57" style="fill:none; stroke:#55a; stroke-linecap:round; stroke-linejoin:round; stroke-width:2px;"/><path id="uuid-c1683f60-10af-49a0-ab8d-585c554eb76c" d="m310.27,82.36s5.47-6.67,7.07-10.61c1.45-3.55,2.85-7.55,2.12-11.31-.58-3.02-2.47-5.96-4.95-7.78-2.95-2.16-6.99-3.39-10.61-2.83-3.04.47-5.85,2.56-7.78,4.95-1.5,1.86-2.24,4.34-2.47,6.72-.29,2.97.37,6.04,1.41,8.84.78,2.08,2.27,3.83,3.54,5.66,1.49,2.14,4.77,6.2,4.77,6.2l-9.89,13.61,9.74,13.95s-4.71,5.49-6.38,8.67c-1.51,2.87-2.86,5.97-3.18,9.19-.26,2.6-.06,5.42,1.06,7.78,1.11,2.33,3.16,4.21,5.3,5.66,1.89,1.27,4.09,2.39,6.36,2.47,2.83.11,5.87-.77,8.13-2.47,1.91-1.44,3.12-3.75,3.89-6.01.91-2.68.97-5.65.7-8.47-.27-2.81-1.06-5.61-2.3-8.14-1.66-3.36-6.72-9.02-6.72-9.02l9.73-13.26-9.55-13.79Z" style="fill:#ff5; stroke:#55a; stroke-linecap:round; stroke-linejoin:round; stroke-width:2px;"/><path id="uuid-b14c7185-6a61-48cc-bbe9-f0d166a68bb1" d="m306.97,77.34s-4.78-5.68-6.25-9.03c-.74-1.68-1.45-3.56-1.22-5.38.22-1.75,1.18-3.45,2.43-4.69,1.29-1.27,3.05-2.4,4.86-2.43,1.79-.03,3.63.96,4.86,2.26,1.38,1.45,2.11,3.56,2.26,5.56.15,1.96-.58,3.94-1.39,5.73-1.33,2.96-3.15,5.36-5.56,7.99Z" style="fill:#f55; stroke:#55a; stroke-linecap:round; stroke-linejoin:round; stroke-width:2px;"/><path id="uuid-21753532-b3d9-427c-a9a8-40b253beff2c" d="m306.9,114.49s-4.76,6.29-6.25,9.9c-.7,1.7-1.45,3.56-1.22,5.38.22,1.75,1.18,3.45,2.43,4.69,1.29,1.27,3.05,2.4,4.86,2.43,1.79.03,3.63-.96,4.86-2.26,1.38-1.45,2.11-3.56,2.26-5.56.15-1.96-.63-3.92-1.39-5.73-1.35-3.21-3.15-6.23-5.56-8.85Z" style="fill:#f55; stroke:#55a; stroke-linecap:round; stroke-linejoin:round; stroke-width:2px;"/><path id="uuid-56a8b1f6-7ecf-472a-aa00-a55fa8f5a2c4" d="m306.45,104.42l-5.9-8.16,6.08-8.85,6.08,8.33-6.25,8.68Z" style="fill:#55a; stroke:#55a; stroke-linecap:round; stroke-linejoin:round; stroke-width:2px;"/><g id="uuid-da64d334-baba-4338-bfd5-555c31723e64"><path id="uuid-35435f0d-0b62-49ab-a74b-d88c13e8ff3e" d="m274.38,169.12c2.21-4.83,3.85-10.19,7.45-14.11,3.4-3.7,7.95-6.45,12.68-8.12,3.81-1.35,8.01-1.34,12.06-1.36,1.72,0,4.02-.77,5.12.54,1.22,1.46.57,4.07-.43,5.69-1.62,2.62-5,3.78-7.93,4.74-2.49.82-5.2.66-7.82.74.62,4.24.8,7.79.06,11.57-.47,2.41-2.16,4.88-2.81,6.8" style="fill:none; stroke:#55a; stroke-linecap:round; stroke-linejoin:round; stroke-width:2px;"/><path id="uuid-428fc8df-7cf2-48b2-b1bc-644030e1edb3" d="m301.62,146.38c0,1.29-.68,2.78,0,3.88.54.87,1.76,1.11,2.75,1.38,1.29.35,2.67.33,4,.25.89-.06,1.75-.33,2.62-.5" style="fill:none; stroke:#55a; stroke-linecap:round; stroke-linejoin:round; stroke-width:2px;"/><path id="uuid-9ef95b4d-da09-454e-9bd9-2ab7f3139538" d="m312.5,151.88c1.08.29,2.43.11,3.25.88,1.03.96,1.56,2.6,1.38,4-.13,1.04-1,1.88-1.75,2.62-1.24,1.23-2.79,2.15-4.38,2.88-1.77.82-3.69,1.38-5.62,1.62-1.53.2-3.13.23-4.62-.12-.85-.2-1.81-.46-2.38-1.12-.39-.46-.56-1.15-.5-1.75.07-.74.47-1.48,1-2,.76-.74,1.82-1.25,2.88-1.38.97-.11,2.09.04,2.88.62.69.51,1.03,1.42,1.25,2.25.16.61.12,1.26,0,1.88-.08.44-.33.83-.5,1.25" style="fill:none; stroke:#55a; stroke-linecap:round; stroke-linejoin:round; stroke-width:2px;"/><path id="uuid-88ce17a0-1c29-4499-b1a4-2afca4845401" d="m315.88,159.5c.96.79,2.32,1.26,2.88,2.38.39.78.45,1.81.12,2.62-.51,1.29-1.86,2.09-3,2.88-1.37.94-2.91,1.64-4.5,2.12-1.57.48-3.24.6-4.88.75-1.62.14-3.26.34-4.88.12-.73-.1-1.54-.18-2.12-.62-.51-.39-.93-.99-1-1.62-.08-.65.25-1.34.62-1.88.58-.83,1.4-1.61,2.38-1.88.89-.24,1.88.07,2.75.38.78.27,1.67.57,2.12,1.25.35.53.3,1.25.25,1.88-.06.7-.42,1.33-.62,2" style="fill:none; stroke:#55a; stroke-linecap:round; stroke-linejoin:round; stroke-width:2px;"/><path id="uuid-abfb0d48-bc86-406a-abc9-32f4840388db" d="m316,167.62c.62.96,1.62,1.76,1.88,2.88.29,1.27.22,2.79-.5,3.88-.83,1.24-2.46,1.76-3.88,2.25-1.75.6-3.65.62-5.5.75-1.58.11-3.21.35-4.75,0-.95-.21-1.92-.59-2.62-1.25-.56-.52-1.09-1.24-1.12-2-.04-.73.36-1.49.88-2,.68-.67,1.69-.97,2.62-1.12.95-.15,2.02-.19,2.88.25.63.33,1.1.97,1.38,1.62.31.73.41,1.6.25,2.38-.15.75-.75,1.33-1.12,2" style="fill:none; stroke:#55a; stroke-linecap:round; stroke-linejoin:round; stroke-width:2px;"/><path id="uuid-57c28d39-08ae-40ff-a200-8f7f057efdc8" d="m314.12,176.5c.79.38,2.16.69,2.5,1.62.34.94-.34,2.03-.88,2.88-.75,1.2-1.83,2.31-3.12,2.88-1.07.46-2.33.27-3.5.25-1.63-.03-3.3-.08-4.88-.5-1.19-.32-2.63-.52-3.38-1.5-.33-.44-.39-1.09-.25-1.62.24-.92.94-1.76,1.75-2.25,1.05-.63,2.5-1.1,3.62-.62,1.02.43,1.58,1.68,1.88,2.75.18.64.14,1.39-.12,2-.27.62-.92,1-1.38,1.5" style="fill:none; stroke:#55a; stroke-linecap:round; stroke-linejoin:round; stroke-width:2px;"/><path id="uuid-725f1f69-62d7-42be-b96d-0178da764291" d="m307.12,184.88c-.36,1.17-2.26,2.33-4.25,3.5" style="fill:none; stroke:#55a; stroke-linecap:round; stroke-linejoin:round; stroke-width:2px;"/></g><path id="uuid-9a54586f-da69-4b8c-bb83-9ff2cbdca4f1" d="m134.5,149.5h81.36s-9.91-.71-14.48-2.44c-2.08-.79-5.66-3.54-5.66-3.54l-39.24-1.06s-3.6,2.52-5.66,3.18c-2.03.65-4.28,1.15-6.36.71-1.6-.34-3.03-1.37-4.24-2.47-.75-.68-1.32-1.56-1.77-2.47-.54-1.1-.88-2.32-1.06-3.54-.17-1.17,0-3.54,0-3.54l-2.89,5.17v10Z" style="fill:#55a; stroke:#55a; stroke-linecap:round; stroke-linejoin:round; stroke-width:2px;"/><path id="uuid-2352e656-12b2-4a20-94e1-10198185ca4f" d="m134.5,154.5h87" style="fill:none; stroke:#55a; stroke-linecap:round; stroke-linejoin:round; stroke-width:2px;"/><path id="uuid-12855c29-fa05-4ac0-9f2f-dab82c352046" d="m166.88,180.4c1.41-1.41-1.41-4.56,0-5.96s4.56-1.41,5.96,0-1.41,4.56,0,5.96c1.41,1.41,4.56-1.41,5.96,0,1.41,1.41,1.41,4.56,0,5.96-1.41,1.41-4.56-1.41-5.96,0-1.41,1.41,1.41,4.56,0,5.96s-4.56,1.41-5.96,0,1.41-4.56,0-5.96c-1.41-1.41-4.56,1.41-5.96,0-1.41-1.41-1.41-4.56,0-5.96,1.41-1.41,4.56,1.41,5.96,0Z" style="fill:#fff;"/><path id="uuid-2d71c5a0-ecf1-4164-83af-c25dea498a10" d="m238.17,146.68l6.83,4.82-42,65.25s-1.31-2.18-2.25-3c-1.15-1.01-4-2.25-4-2.25l41.42-64.82Z" style="fill:#ff5;"/><path id="uuid-489e653c-b934-44e0-a53c-a954fc8c6d8e" d="m244.8,151.37l3.95,2.38-43,66.75-2.5-4,41.55-65.13Z" style="fill:#55a;"/><path id="uuid-a0f8b0e9-6947-4b4a-9f41-01c46e30e7ff" d="m248.42,154.05l4.83,3.45-45,69.5-2.32-7.1,42.49-65.84Z" style="fill:#ff5;"/><path id="uuid-b0a75601-eea1-48d7-abc8-2317b7e118e0" d="m253.75,157.5l74.75,47.25v8l-77.5-49.5,2.75-5.75Z" style="fill:#f55;"/><path id="uuid-3acca9d0-7945-43cf-a22e-e604cd4b3f9c" d="m250.44,162.58l-5.47,8.69,83.54,53.73v-12.2l-78.06-50.22Z"/><path id="uuid-c5ce26e4-71de-4d4b-94cd-8ff405bc5942" d="m245.05,170.77l-2.84,4.79,86.29,55.2v-6l-83.45-53.98Z" style="fill:#f55;"/><path id="uuid-a0d0b18f-a85e-4aae-a53e-107c42fea257" d="m329.5,271.5s-16.21-12.66-22.75-20.5c-5.59-6.69-10.38-14.21-13.75-22.25-3.1-7.38-5.72-23.33-5.72-23.33l-7.75-4.89s3.66,21.71,7.97,31.72c3.99,9.26,9.7,17.84,16.25,25.5,7.44,8.71,25.75,22.75,25.75,22.75v-9Z" style="fill:#ff5; stroke:#55a; stroke-linecap:round; stroke-linejoin:round; stroke-width:2px;"/><path id="uuid-1ba782b7-bb97-48f1-b5a1-01c9ebef450c" d="m262.75,190.5s1.64,25.35,5,37.5c2.47,8.92,6.12,17.63,11,25.5,6.73,10.86,15.18,20.79,24.75,29.25,7.76,6.86,26,17,26,17v6.7s-21.11-12.05-30.25-19.95c-8.71-7.52-16.68-16.13-23-25.75-6.1-9.29-10.77-19.62-14-30.25-2.48-8.15-4-25.25-4-25.25l-20.62,32.75-6.5-2.62,30.12-45.88,1.5,1Z" style="fill:#ff5; stroke:#55a; stroke-linecap:round; stroke-linejoin:round; stroke-width:2px;"/><path id="uuid-4a062883-60f1-461e-8938-24311b55ea07" d="m329.5,389.5c-9.97-2.24-19.68-5.06-29-9-1.92-.81-3.7-1.94-5.5-3-5.78-3.4-11.7-6.64-17-10.75-1.54-1.19-2.82-2.68-4.25-4-4.45-4.09-9.12-7.95-13.5-12.12-3.09-2.95-6.11-5.98-9-9.12-3.08-3.35-6.04-6.81-8.88-10.38-4.41-5.55-8.88-11.1-12.62-17.12-4.6-7.41-9.07-15.04-12-23.25-1.49-4.17-1.89-8.66-2.75-13-1.07-5.4-2.1-10.82-3-16.25-.37-2.24-.71-4.49-1-6.75-.79-6.24-1.34-12.5-2-18.75-.34-3.21-.32-6.47-1-9.62-.47-2.15-1.1-4.29-2.09-6.25-.82-1.61-1.9-3.1-3.15-4.41-1.75-1.84-3.76-3.5-5.99-4.73-1.51-.84-3.19-1.38-4.88-1.73-1.49-.31-3.05-.21-4.57-.32,0,0-9.12-8.99-15.06-10.14-4.81-.93-14.38,3.05-14.38,3.05,0,0-8.98-6.98-14.16-6.54-3.72.32-9.23,6.34-9.23,6.34,0,0-7.44-5.22-11.47-4.46-4.36.82-9.8,9.02-9.8,9.02" style="fill:none; stroke:#55a; stroke-linecap:round; stroke-linejoin:round; stroke-width:2px;"/><path id="uuid-c6dc011e-ee56-4f63-8a46-4cb60f797530" d="m187.31,208.94l28.19-44.44h-81" style="fill:none; stroke:#55a; stroke-linecap:round; stroke-linejoin:round; stroke-width:2px;"/><path id="uuid-ac269ab5-2079-4890-89f6-1b5d3510f8d3" d="m278.12,366.75c1-6.83,2.84-13.43,3.12-20.25.34-8.26.12-16.69-1.75-24.75-1.95-8.41-5.49-16.49-9.75-24-4.37-7.71-9.6-15.12-16-21.25-5.84-5.6-12.79-10.08-20-13.75-7.17-3.64-15.67-5.33-22.75-8,2.17,13.09,4.33,23.22,6.5,33.75,5,3.33,11.53,7.18,16.5,11.75,3.22,2.96,6.09,6.35,8.5,10,2.88,4.35,5.21,9.1,7,14,1.09,2.98,1.97,6.09,2.25,9.25.24,2.66-.5,5.83-.5,8l13.25,13.5,13.62,11.75Z" style="fill:#ff5; stroke:#55a; stroke-linecap:round; stroke-linejoin:round; stroke-width:2px;"/><path id="uuid-9082ca88-cbd3-4c7c-83c9-6b8c85e66f08" d="m273,361.5c.92-5.58,2.59-11.09,2.75-16.75.22-7.79-.59-15.69-2.5-23.25-1.78-7.07-4.7-13.88-8.25-20.25-4.06-7.3-8.8-14.4-14.75-20.25-5.37-5.28-11.81-9.54-18.5-13-5.74-2.97-12.17-4.33-18.25-6.5l2.5,15.75c2.83,1.17,5.8,2.06,8.5,3.5,3.71,1.98,7.2,4.4,10.5,7,2.99,2.35,5.82,4.93,8.38,7.75,2.74,3.02,5.21,6.3,7.38,9.75,2.24,3.57,4.22,7.33,5.75,11.25,1.47,3.79,2.62,7.74,3.25,11.75.62,3.96.51,8,.5,12-.01,3.42-.5,7.17-.5,10.25l13.25,11Z" style="fill:#55a; stroke:#55a; stroke-linecap:round; stroke-linejoin:round; stroke-width:2px;"/><path id="uuid-1774e913-926f-4ecf-b46f-27facbc26f55" d="m216.75,283.75c4.17,1.38,8.36,3.78,12.12,6.38,4.25,2.93,8.15,6.42,11.62,10.25,2.87,3.16,5.31,6.71,7.5,10.38,2.11,3.54,4.06,7.22,5.38,11.12,1.27,3.75,2,7.69,2.38,11.62.37,3.9-.12,8.08-.12,11.75" style="fill:none; stroke:#55a; stroke-linecap:round; stroke-linejoin:round; stroke-width:2px;"/><g id="uuid-153d1d4c-c45a-4028-a675-f1ca9ed803d9"><path id="uuid-917630ed-f4c2-46cd-924d-15e476594919" d="m222.47,257.22s-6.19-2.88-7.88-5.62c-1.45-2.37-1.25-8.25-1.25-8.25,0,0,4.94,2.94,6.5,5.25,1.68,2.49,2.62,8.62,2.62,8.62Z" style="fill:#f55;"/><path id="uuid-399106bc-9c5a-4198-8519-f77aac1e5304" d="m222.72,257.22s4.66-5.23,7.88-5.88c2.36-.47,7,1.75,7,1.75,0,0-3.5,3.87-5.88,4.62-2.87.9-9-.5-9-.5Z" style="fill:#f55;"/><path id="uuid-de2bfa3d-23ab-4e7a-b4c3-5f08d8c78b80" d="m224.84,251.35c-1.81-.29-3.72-2.43-3.5-4.25.25-2.07,2.95-4.11,5-3.75,1.96.35,3.68,3.06,3.25,5-.4,1.83-2.9,3.3-4.75,3Z" style="fill:#f55;"/></g><path id="uuid-71b03d9b-f900-4042-9f24-79d40f9bb280" d="m296.47,210.76s-3.55,4.21-3.95,6.8c-.24,1.52-.12,3.45,1,4.5,1.17,1.1,3.16.96,4.75.75,3.61-.47,10-4.4,10-4.4l-3.75-2.2s-3.14,2.89-5,2.6c-1.05-.16-2.01-1.22-2.25-2.25-.3-1.28,1.25-3.75,1.25-3.75l-2.05-2.05Z" style="fill:#ff5;"/><path id="uuid-6e31706d-94bf-4a15-9283-b81d20d28514" d="m309.86,219.69s-6.31,2.53-8.55,4.95c-1.44,1.56-2.65,3.63-2.75,5.75-.08,1.69.53,3.58,1.75,4.75,1.48,1.41,3.8,1.87,5.85,1.85,2.17-.02,4.24-1.07,6.15-2.1,2.51-1.35,4.51-3.48,6.75-5.25,1.02-.81,3.05-2.45,3.05-2.45l-3.45-2.2s-4.99,4.69-8.1,5.9c-1.41.55-3.09,1.04-4.5.5-1.05-.4-2.32-1.38-2.25-2.5.1-1.65,2.44-2.25,3.75-3.25,1.93-1.47,6.05-4.05,6.05-4.05l-3.75-1.9Z" style="fill:#ff5;"/><path id="uuid-3a4c4830-2093-4fa6-892e-bff11a929e30" d="m323.8,228.6s-7.64,5.29-10.8,8.65c-1.68,1.78-4.04,3.56-4.25,6-.18,2.12.95,4.62,2.75,5.75,1.13.71,2.74.44,4,0,2.41-.84,4.02-3.14,6-4.75,2.7-2.21,8-6.75,8-6.75v-3.9s-4.23,3.45-6.4,5.1c-2.16,1.65-3.98,4.07-6.6,4.8-.97.27-2.62.68-3-.25-.83-2.02,2.68-3.48,4.25-5,1.52-1.47,3.28-2.66,4.95-3.95,1.56-1.21,4.75-3.55,4.75-3.55l-3.65-2.15Z" style="fill:#ff5;"/><path id="uuid-25502998-ac41-403e-b2ee-e07c001c2e88" d="m329.5,240.95s-9.49,5.66-12,10.3c-.92,1.7-1.43,3.94-.75,5.75.66,1.77,2.38,3.45,4.25,3.75,1.88.3,3.86-.94,5.25-2.25,1.76-1.66,3.25-6.5,3.25-6.5,0,0-3.8,4.85-6.25,4.25-1.38-.34-2.18-2.34-2-3.75.17-1.35,1.74-2.1,2.75-3,1.69-1.5,5.5-3.95,5.5-3.95v-4.6Z" style="fill:#ff5;"/><path id="uuid-6cb3d358-6b46-4737-b420-b5c59048b9b9" d="m278.75,205s-6.76-3.16-9.75-1.75c-1.38.65-2.87,2.6-2.25,4,.45,1.02,2.14.81,3.25.75,3.08-.16,8.75-3,8.75-3Z" style="fill:#fff;"/><g id="uuid-2be798b7-bd07-48df-add7-d61b138d1bbe"><path id="uuid-9c2bbb11-820d-44c6-8bab-1c4fe77d86fe" d="m229.35,268.08c-1.72-.65-3.84-.56-5.5.24-1.65.79-3.05,2.38-3.61,4.12-.52,1.62-.29,3.58.52,5.07.82,1.51,2.37,2.72,4,3.23,1.56.49,3.41.35,4.88-.35,1.53-.74,2.88-2.15,3.46-3.75.59-1.64.45-3.64-.28-5.23-.67-1.46-1.97-2.77-3.48-3.34Z" style="fill:#ff5; stroke:#55a; stroke-linecap:round; stroke-linejoin:round; stroke-width:2px;"/><path id="uuid-cb4e78ff-ab24-4fde-bfc1-8b0e2ead2d92" d="m227.3,271.78c-1.2-.3-2.88.67-3.21,1.87-.34,1.2.56,2.97,1.77,3.3,1.28.35,3.09-.78,3.39-2.07.28-1.19-.76-2.8-1.95-3.09Z" style="fill:none; stroke:#55a; stroke-linecap:round; stroke-linejoin:round; stroke-width:2px;"/></g><path id="uuid-27e4d79d-9b63-44cf-842c-7f8a16fdf800" d="m227.62,295.87c-1.53-.37-3.68,1.02-4,2.66-.27,1.37.97,3.14,2.25,3.46,1.49.37,3.63-.81,4-2.39.33-1.43-.9-3.4-2.25-3.72Z" style="fill:#ff5; stroke:#55a; stroke-linecap:round; stroke-linejoin:round; stroke-width:2px;"/><path id="uuid-b71dda04-c85b-4288-9f37-6eae39250b2e" d="m232.66,302.14c-1.84-.48-4.41,1.35-4.79,3.51-.32,1.81,1.16,4.15,2.69,4.57,1.78.48,4.35-1.08,4.79-3.16.4-1.89-1.07-4.49-2.69-4.92Z" style="fill:#ff5; stroke:#55a; stroke-linecap:round; stroke-linejoin:round; stroke-width:2px;"/><path id="uuid-bb9cf5f5-22a1-4f80-b584-8095481ce321" d="m238.24,309.27c-2.2-.51-5.28,1.43-5.73,3.72-.38,1.92,1.38,4.4,3.23,4.84,2.14.51,5.21-1.14,5.73-3.35.48-2.01-1.29-4.76-3.23-5.21h0Z" style="fill:#ff5; stroke:#55a; stroke-linecap:round; stroke-linejoin:round; stroke-width:2px;"/><path id="uuid-9f94bd2f-2c40-47b5-bb88-06ef3ec1339b" d="m242.98,317.39c-1.96-.44-4.7,1.23-5.1,3.19-.34,1.65,1.23,3.77,2.87,4.15,1.9.44,4.63-.98,5.1-2.87.43-1.72-1.14-4.08-2.87-4.47Z" style="fill:#ff5; stroke:#55a; stroke-linecap:round; stroke-linejoin:round; stroke-width:2px;"/><path id="uuid-3c0bbc9f-8bbc-4141-8f88-b2cd25298598" d="m246.87,325.5c-1.53-.34-3.68.96-4,2.5-.27,1.29.97,2.95,2.25,3.25,1.49.34,3.63-.77,4-2.25.33-1.35-.9-3.2-2.25-3.5Z" style="fill:#ff5; stroke:#55a; stroke-linecap:round; stroke-linejoin:round; stroke-width:2px;"/><path id="uuid-fd4eec95-2714-4727-9dc5-161cb3d8e033" d="m139.5,158.5v2h10v-2h-10Z" style="fill:none; stroke:#55a; stroke-linecap:round; stroke-linejoin:round; stroke-width:2px;"/><g id="uuid-917e7ff1-20ce-4394-a949-1548b2a04e93"><path id="uuid-6dfb4026-019f-4a08-a7f1-f94624ec4640" d="m241.63,275.49c-1.72-.65-3.84-.56-5.5.24-1.65.79-3.05,2.38-3.61,4.12-.52,1.62-.29,3.58.52,5.07.82,1.51,2.37,2.72,4,3.23,1.56.49,3.41.35,4.88-.35,1.53-.74,2.88-2.15,3.46-3.75.59-1.64.45-3.64-.28-5.23-.67-1.46-1.97-2.77-3.48-3.34Z" style="fill:#ff5; stroke:#55a; stroke-linecap:round; stroke-linejoin:round; stroke-width:2px;"/><path id="uuid-592fb983-bf7c-482c-9007-ffea6ffdde54" d="m239.58,279.18c-1.2-.3-2.88.67-3.21,1.87-.34,1.2.56,2.97,1.77,3.3,1.28.35,3.09-.78,3.39-2.07.28-1.19-.76-2.8-1.95-3.09Z" style="fill:none; stroke:#55a; stroke-linecap:round; stroke-linejoin:round; stroke-width:2px;"/></g><g id="uuid-33c98aea-452b-4727-8d0b-6694663f75bc"><path id="uuid-e1e27934-0296-458f-a1f2-dbbfd5d5bb35" d="m251.63,284.49c-1.72-.65-3.84-.56-5.5.24-1.65.79-3.05,2.38-3.61,4.12-.52,1.62-.29,3.58.52,5.07.82,1.51,2.37,2.72,4,3.23,1.56.49,3.41.35,4.88-.35,1.53-.74,2.88-2.15,3.46-3.75.59-1.64.45-3.64-.28-5.23-.67-1.46-1.97-2.77-3.48-3.34Z" style="fill:#ff5; stroke:#55a; stroke-linecap:round; stroke-linejoin:round; stroke-width:2px;"/><path id="uuid-c24354fd-6d73-4e78-8e1a-250198b25532" d="m249.58,288.18c-1.2-.3-2.88.67-3.21,1.87-.34,1.2.56,2.97,1.77,3.3,1.28.35,3.09-.78,3.39-2.07.28-1.19-.76-2.8-1.95-3.09Z" style="fill:none; stroke:#55a; stroke-linecap:round; stroke-linejoin:round; stroke-width:2px;"/></g><g id="uuid-4ba8535c-c6df-49cb-a749-e6687c81f775"><path id="uuid-fadb3763-305e-480c-ae27-cfa57f3999f4" d="m259.38,295.49c-1.72-.65-3.84-.56-5.5.24-1.65.79-3.05,2.38-3.61,4.12-.52,1.62-.29,3.58.52,5.07.82,1.51,2.37,2.72,4,3.23,1.56.49,3.41.35,4.88-.35,1.53-.74,2.88-2.15,3.46-3.75.59-1.64.45-3.64-.28-5.23-.67-1.46-1.97-2.77-3.48-3.34Z" style="fill:#ff5; stroke:#55a; stroke-linecap:round; stroke-linejoin:round; stroke-width:2px;"/><path id="uuid-3b2452aa-d1f6-42cd-b8b9-9689b7091254" d="m257.33,299.18c-1.2-.3-2.88.67-3.21,1.87-.34,1.2.56,2.97,1.77,3.3,1.28.35,3.09-.78,3.39-2.07.28-1.19-.76-2.8-1.95-3.09Z" style="fill:none; stroke:#55a; stroke-linecap:round; stroke-linejoin:round; stroke-width:2px;"/></g><g id="uuid-753df4b1-6bfc-48f8-868a-b1f71e7a6cab"><path id="uuid-0126b48c-f794-4e4f-adff-25eeb292c26a" d="m265.38,308.11c-1.72-.65-3.84-.56-5.5.24-1.65.79-3.05,2.38-3.61,4.12-.52,1.62-.29,3.58.52,5.07.82,1.51,2.37,2.72,4,3.23,1.56.49,3.41.35,4.88-.35,1.53-.74,2.88-2.15,3.46-3.75.59-1.64.45-3.64-.28-5.23-.67-1.46-1.97-2.77-3.48-3.34Z" style="fill:#ff5; stroke:#55a; stroke-linecap:round; stroke-linejoin:round; stroke-width:2px;"/><path id="uuid-082dca5f-0871-48ae-b423-4dabc7a0e893" d="m263.33,311.8c-1.2-.3-2.88.67-3.21,1.87-.34,1.2.56,2.97,1.77,3.3,1.28.35,3.09-.78,3.39-2.07.28-1.19-.76-2.8-1.95-3.09Z" style="fill:none; stroke:#55a; stroke-linecap:round; stroke-linejoin:round; stroke-width:2px;"/></g><g id="uuid-858e5fbb-7cf9-4984-b6fa-7892a31184de"><path id="uuid-e4125c73-2e16-406d-a703-6a23c54e8e8d" d="m269.75,321.24c-1.72-.65-3.84-.56-5.5.24-1.65.79-3.05,2.38-3.61,4.12-.52,1.62-.29,3.58.52,5.07.82,1.51,2.37,2.72,4,3.23,1.56.49,3.41.35,4.88-.35,1.53-.74,2.88-2.15,3.46-3.75.59-1.64.45-3.64-.28-5.23-.67-1.46-1.97-2.77-3.48-3.34Z" style="fill:#ff5; stroke:#55a; stroke-linecap:round; stroke-linejoin:round; stroke-width:2px;"/><path id="uuid-dc11fab4-240d-4914-8264-3773c372b109" d="m267.71,324.93c-1.2-.3-2.88.67-3.21,1.87-.34,1.2.56,2.97,1.77,3.3,1.28.35,3.09-.78,3.39-2.07.28-1.19-.76-2.8-1.95-3.09Z" style="fill:none; stroke:#55a; stroke-linecap:round; stroke-linejoin:round; stroke-width:2px;"/></g><g id="uuid-9490d9ec-c17f-473b-843f-5532800ec9bd"><path id="uuid-b0df6892-fd88-4ae5-8087-4e3aec16f214" d="m270.63,347.89c-1.72.65-3.84.56-5.5-.24-1.65-.79-3.05-2.38-3.61-4.12-.52-1.62-.29-3.58.52-5.07.82-1.51,2.37-2.72,4-3.23,1.56-.49,3.41-.35,4.88.35,1.53.74,2.88,2.15,3.46,3.75.59,1.64.45,3.64-.28,5.23-.67,1.46-1.97,2.77-3.48,3.34Z" style="fill:#ff5; stroke:#55a; stroke-linecap:round; stroke-linejoin:round; stroke-width:2px;"/><path id="uuid-6ab7e6c9-4a45-49c3-b4b5-f6915ce22149" d="m268.58,344.2c-1.2.3-2.88-.67-3.21-1.87-.34-1.2.56-2.97,1.77-3.3,1.28-.35,3.09.78,3.39,2.07.28,1.19-.76,2.8-1.95,3.09Z" style="fill:none; stroke:#55a; stroke-linecap:round; stroke-linejoin:round; stroke-width:2px;"/></g><g id="uuid-8332cb0c-1fe0-4660-bc02-e4c9c14688c0"><path id="uuid-d6d4030b-7e10-4c89-a6f1-3b0dcc140c19" d="m271.38,359.8c1.72-1.64,2.15-4.75,1.35-6.98-.62-1.71-2.43-3.13-4.23-3.46-2.2-.41-5.59.07-6.37,2.11" style="fill:#ff5; stroke:#55a; stroke-linecap:round; stroke-linejoin:round; stroke-width:2px;"/><path id="uuid-316b3350-4c7e-4970-b1bc-c68ad8379d3b" d="m268.36,357.87c1.05-.62,1.13-3.12.15-4.04-.84-.79-2.85-.99-3.44.34" style="fill:none; stroke:#55a; stroke-linecap:round; stroke-linejoin:round; stroke-width:2px;"/></g><g id="uuid-a5dc8150-dc4e-47fd-9bb5-ab00eb04d057"><path id="uuid-50f6aa88-3467-4853-b700-314c0e004557" d="m215.51,276.06c2.25-.17,4.44-2.28,5.2-4.51.58-1.71.17-3.96-.99-5.36-1.44-1.74-4.5-3.52-6.3-2.44" style="fill:#ff5; stroke:#55a; stroke-linecap:round; stroke-linejoin:round; stroke-width:2.05px;"/><path id="uuid-2b49726b-6cab-4137-af21-1b2892748f3a" d="m214.48,272.64c1.14.2,2.71-1.68,2.55-3.02-.13-1.14-1.48-2.58-2.72-1.94" style="fill:none; stroke:#55a; stroke-linecap:round; stroke-linejoin:round; stroke-width:2.05px;"/></g><g id="uuid-14cb1b8e-ed3c-430b-8b63-f1c9c7e31199"><path id="uuid-03ed75e5-2727-4879-aa1d-64cc087c74ea" d="m245.24,268.4s-4.9-4.21-5.76-7.19c-.74-2.57.86-7.98.86-7.98,0,0,3.76,3.96,4.6,6.5.92,2.73.29,8.67.29,8.67Z" style="fill:#f55;"/><path id="uuid-62d690d5-dceb-4246-a2ad-8999b61fdb38" d="m245.46,268.46s5.48-3.7,8.54-3.5c2.25.15,5.9,3.37,5.9,3.37,0,0-4.1,2.73-6.43,2.84-2.81.13-8.01-2.7-8.01-2.7Z" style="fill:#f55;"/><path id="uuid-87fb2c29-38fe-4030-9a56-f5351b6a9aaa" d="m248.8,263.53c-1.57-.72-2.77-3.18-2.14-4.82.72-1.86,3.66-3.09,5.42-2.24,1.68.81,2.58,3.76,1.73,5.46-.8,1.6-3.42,2.34-5.02,1.61Z" style="fill:#f55;"/></g><g id="uuid-1408ab33-56b3-4c4c-8189-50ec8aa672e1"><path id="uuid-eb663507-8e55-4808-9654-c0abea6f931e" d="m263.11,285.94s-3.8-5.3-3.83-8.31c-.02-2.6,3.2-7.21,3.2-7.21,0,0,2.71,4.75,2.84,7.35.15,2.81-2.22,8.17-2.22,8.17Z" style="fill:#f55;"/><path id="uuid-f8e67fe9-b5cb-423b-a704-f5e7aee5ffe2" d="m263.33,286.06s6.7-1.93,9.78-.89c2.26.76,5.08,4.79,5.08,4.79,0,0-5,1.41-7.42.86-2.92-.66-7.44-4.76-7.44-4.76Z" style="fill:#f55;"/><path id="uuid-c399722c-2bdc-44ff-b1a8-721730f190bc" d="m268.18,282.39c-1.4-1.11-1.92-3.74-.79-5.09,1.28-1.53,4.65-1.86,6.22-.58,1.49,1.23,1.56,4.23.19,5.57-1.29,1.27-4.19,1.23-5.62.1Z" style="fill:#f55;"/></g><g id="uuid-4006891b-9a50-477b-8a72-c149b5a14523"><path id="uuid-65760b66-4ad3-4145-9edc-d7ab0631a50b" d="m276.46,308.41s-2.34-5.9-1.58-8.79c.65-2.49,4.95-6.18,4.95-6.18,0,0,1.41,5.13.88,7.65-.58,2.72-4.25,7.32-4.25,7.32Z" style="fill:#f55;"/><path id="uuid-2cbc5e7e-ec95-4f9a-a62a-0d64ef55e93c" d="m276.64,308.58s7-.36,9.72,1.31c2,1.23,3.71,5.7,3.71,5.7,0,0-5.21.24-7.42-.82-2.66-1.28-6.01-6.19-6.01-6.19Z" style="fill:#f55;"/><path id="uuid-9888663c-3156-4bcd-b4e7-60b25729c711" d="m282.29,306.14c-1.07-1.37-.91-4,.53-5.04,1.64-1.18,4.99-.76,6.19.82,1.14,1.5.43,4.38-1.24,5.37-1.58.93-4.38.26-5.48-1.14Z" style="fill:#f55;"/></g><g id="uuid-872d5e60-b86d-4df2-916b-32e179ba7e42"><path id="uuid-fed30a70-1d27-46c6-9d8f-0c19e6f65140" d="m282.51,332.17s.06-6.57,1.86-9.15c1.56-2.22,6.99-4.38,6.99-4.38,0,0-.63,5.51-2.09,7.79-1.57,2.47-6.77,5.74-6.77,5.74Z" style="fill:#f55;"/><path id="uuid-7a2db171-e7f0-4dfa-85f0-6c1c3dc77ccd" d="m282.61,332.39s6.69,2,8.61,4.56c1.41,1.88,1.3,6.84,1.3,6.84,0,0-4.98-1.52-6.64-3.31-2.01-2.15-3.27-8.09-3.27-8.09Z" style="fill:#f55;"/><path id="uuid-a9eaa395-1b6b-4a28-a927-c9c5d9f46da4" d="m288.84,331.92c-.48-1.7.67-4.23,2.42-4.76,1.99-.61,4.97.95,5.48,2.89.49,1.85-1.26,4.44-3.21,4.84-1.83.38-4.2-1.23-4.7-2.97Z" style="fill:#f55;"/></g><g id="uuid-9acb6cdf-a821-442e-84c6-0601310293f0"><path id="uuid-159a8f42-838c-4801-8687-f20a04e33195" d="m281.29,357.58s1.99-6.28,4.48-8.26c2.15-1.7,8-2.29,8-2.29,0,0-2.23,5.1-4.3,6.9-2.23,1.93-8.18,3.66-8.18,3.66Z" style="fill:#f55;"/><path id="uuid-afe51b6c-9147-4ba9-98d0-348f89463151" d="m281.33,357.81s5.83,3.74,6.91,6.72c.8,2.18-.76,6.9-.76,6.9,0,0-4.32-2.81-5.4-4.98-1.29-2.61-.76-8.64-.76-8.64Z" style="fill:#f55;"/><path id="uuid-36303245-b757-4f1b-99f6-a08d1de5786f" d="m287.44,359.05c.04-1.77,1.89-3.87,3.72-3.9,2.08-.04,4.48,2.26,4.41,4.26-.07,1.91-2.52,3.91-4.5,3.77-1.87-.14-3.67-2.32-3.63-4.12Z" style="fill:#f55;"/></g><path id="uuid-b5b0ef89-4338-4e38-b052-14e6c376270d" d="m280.44,217.05s-7.24-1.83-9.91.11c-1.24.9-2.33,3.09-1.46,4.35.63.91,2.25.39,3.33.13,2.99-.73,8.03-4.59,8.03-4.59h0Z" style="fill:#fff;"/><path id="uuid-52f907e7-a02b-47d6-b014-0a00a888e1a1" d="m283.19,228.05s-7.43-.69-9.77,1.64c-1.08,1.08-1.82,3.41-.77,4.52.77.81,2.29.04,3.31-.39,2.85-1.19,7.23-5.77,7.23-5.77Z" style="fill:#fff;"/><path id="uuid-1625f73a-ff82-4b3e-b90a-6dc97283bfaa" d="m287.26,238.51s-7.42.8-9.25,3.55c-.85,1.27-1.11,3.71.15,4.59.91.64,2.25-.42,3.17-1.04,2.55-1.73,5.93-7.1,5.93-7.1Z" style="fill:#fff;"/><path id="uuid-44167d21-380e-4c7a-b37f-f564aa92d2dc" d="m293.51,249.84s-7.42.8-9.25,3.55c-.85,1.27-1.11,3.71.15,4.59.91.64,2.25-.42,3.17-1.04,2.55-1.73,5.93-7.1,5.93-7.1Z" style="fill:#fff;"/><path id="uuid-36a1eccd-8259-4e07-a7ec-d21d953dbde8" d="m300.96,259.21s-7.22,1.91-8.61,4.9c-.64,1.39-.54,3.83.84,4.51,1,.49,2.16-.75,2.98-1.51,2.26-2.1,4.8-7.91,4.8-7.91h0Z" style="fill:#fff;"/><path id="uuid-446be0e5-1d2d-488a-a927-4a25aadec902" d="m310.17,268.69s-7.22,1.91-8.61,4.9c-.64,1.39-.54,3.83.84,4.51,1,.49,2.16-.75,2.98-1.51,2.26-2.1,4.8-7.91,4.8-7.91h0Z" style="fill:#fff;"/><path id="uuid-dbc4f53c-6cfd-4127-a83a-aeb60604e4c0" d="m319.18,276.72s-6.97,2.67-8.03,5.8c-.49,1.45-.12,3.87,1.31,4.4,1.04.38,2.07-.98,2.8-1.82,2.02-2.33,3.92-8.38,3.92-8.38Z" style="fill:#fff;"/><path id="uuid-ba39eba0-d41c-49b5-8bf5-ed97d1f40797" d="m328.36,282.85s-6.56,3.56-7.21,6.8c-.3,1.5.38,3.85,1.88,4.19,1.08.24,1.92-1.24,2.54-2.17,1.7-2.57,2.79-8.82,2.79-8.82Z" style="fill:#fff;"/><g id="uuid-60489f71-435d-4ab9-b3c6-8ea1257472fd"><path id="uuid-06308996-cc8c-4c35-a2c4-3b6e76ddf3ab" d="m223.97,221.64s2.92,5.74,5.7,6.47c1.48.39,3.87-.06,4.33-1.52.33-1.06-1.03-2.07-1.95-2.71-2.29-1.6-8.09-2.24-8.09-2.24Z" style="fill:#fff;"/><path id="uuid-a3a5ff03-760f-4ac9-82e3-adfa7aba73cc" d="m221.52,221.7c-.78,4.85-1.17,6.08.98,8.58,1,1.16,3.27,2.07,4.46,1.1.86-.7.25-2.3-.15-3.33-.99-2.57-5.29-6.35-5.29-6.35h0Z" style="fill:#fff;"/><path id="uuid-70305c9a-acce-42fa-bc4f-eb3f5a82d5c9" d="m222.89,219.46s6.22,2.46,8.85,1.07c1.12-.59,2.19-2.18,1.76-3.38-.37-1.04-1.95-1.32-3.06-1.3-2.79.06-7.55,3.61-7.55,3.61h0Z" style="fill:#fff;"/></g><g id="uuid-b9214536-1f80-49a0-bf15-c5830de6f1ed"><path id="uuid-ca4eb8ff-539c-4ea4-9f3e-e6d7bdf06a36" d="m235.36,205.94s2.21,5.83,4.83,6.65c1.46.46,3.87-.06,4.33-1.52.33-1.06-1.05-2.05-1.95-2.71-2.04-1.51-7.21-2.42-7.21-2.42Z" style="fill:#fff;"/><path id="uuid-63d8d652-555a-46a2-acf1-7447f62f7386" d="m232.2,205.71s-1.17,6.75.81,9.05c1,1.16,3.27,2.07,4.46,1.1.86-.7.23-2.29-.15-3.33-.96-2.67-5.12-6.81-5.12-6.81h0Z" style="fill:#fff;"/><path id="uuid-868fa3e7-0bf7-4824-b6d2-37fa87261887" d="m234.16,203.53s5.65,2.72,8.09,1.48c1.36-.69,2.7-2.78,1.99-4.13-.51-.99-2.19-.7-3.29-.54-2.48.35-6.79,3.2-6.79,3.2h0Z" style="fill:#fff;"/></g><g id="uuid-dc3aa492-b390-4beb-bf28-9a2243b059a2"><path id="uuid-8db0b771-51ed-417a-af22-eae43f1428c7" d="m244.99,188.91s2.32,6.18,5.09,7.05c1.46.46,3.87-.06,4.33-1.52.33-1.06-1.06-2.03-1.95-2.71-2.11-1.62-7.47-2.83-7.47-2.83h0Z" style="fill:#fff;"/><path id="uuid-f4ce852d-2dbc-41de-a49b-10b601f90f69" d="m242.13,189.18s-1.17,6.68.78,8.96c.99,1.16,3.27,2.07,4.46,1.1.86-.7.23-2.29-.15-3.33-.95-2.64-5.09-6.73-5.09-6.73h0Z" style="fill:#fff;"/><path id="uuid-d5eb0fc4-8c2b-43df-9c84-311f465783da" d="m243.65,186.59s5.9,3.08,8.5,1.8c1.37-.67,2.7-2.78,1.99-4.13-.51-.99-2.19-.66-3.29-.54-2.57.28-7.2,2.88-7.2,2.88Z" style="fill:#fff;"/></g><path id="uuid-47bce07b-f4a7-48f7-b13a-d2094fafb8aa" d="m328.95,231.78l-86.9-55.82" style="stroke:#55a; stroke-linecap:round; stroke-linejoin:round; stroke-width:2px;"/><path id="uuid-e0d77b3d-3b4d-4d8e-88bb-82a682a309f9" d="m234.58,144.49l94.92,60.66" style="stroke:#55a; stroke-linecap:round; stroke-linejoin:round; stroke-width:2px;"/><path id="uuid-7abfcc35-7b3b-44fa-8672-0a539fcbad6c" d="m253.96,156.94l-45.85,70.12" style="stroke:#55a; stroke-linecap:round; stroke-linejoin:round; stroke-width:2px;"/><path id="uuid-c4cbb5a6-9f83-4249-acc9-280dbf1cf62c" d="m154.5,158.5v2h10v-2h-10Z" style="fill:none; stroke:#55a; stroke-linecap:round; stroke-linejoin:round; stroke-width:2px;"/><path id="uuid-a257a9c2-2805-4e4b-b8e4-bc930dca1add" d="m169.5,158.5v2h10v-2h-10Z" style="fill:none; stroke:#55a; stroke-linecap:round; stroke-linejoin:round; stroke-width:2px;"/><path id="uuid-13b9b780-becd-4000-8e6f-66d612a3e9c5" d="m184.5,158.5v2h10v-2h-10Z" style="fill:none; stroke:#55a; stroke-linecap:round; stroke-linejoin:round; stroke-width:2px;"/><path id="uuid-192d614d-41aa-4d08-bb20-ca3755d197f5" d="m199.5,158.5v2h10v-2h-10Z" style="fill:none; stroke:#55a; stroke-linecap:round; stroke-linejoin:round; stroke-width:2px;"/><path id="uuid-08cb8ba1-382d-40f8-b2f4-c33a80020258" d="m214.5,158.5v2h3.3l1.2-2h-4.5Z" style="fill:none; stroke:#55a; stroke-linecap:round; stroke-linejoin:round; stroke-width:2px;"/><path id="uuid-e676fb35-0f15-4254-808a-536d03024d81" d="m85.5,154.5v22.38l-17.38-11.88,17.38-10.5Z" style="fill:#f55;"/><path id="uuid-7944a541-5a3b-4b46-90c4-b240375a5470" d="m94.25,150.62l.25,34.62-9.62-8.25.38-22.38,9-4Z"/><path id="uuid-325aee3d-edfc-4751-8290-f07fa8cff99d" d="m98.62,149l.12,40.12,13.25,14.25,1.38,1.38s1.65-1.84,2.5-2.75c1.23-1.32,3.75-3.91,3.75-3.91l-.12-50.34-4.38-1.62-3.38-2.12-13.12,5Z" style="fill:#55a; stroke:#55a; stroke-linecap:round; stroke-linejoin:round; stroke-width:2px;"/><path id="uuid-adaa7da1-c403-490c-8138-dd7a0d570730" d="m111.73,145.16c-.31,2.87-.22,6.88-.81,9.06-.52,1.9-1.44,3.78-2.53,5.62-1.27,2.14-3.71,4.13-5.41,7.19-1.58,2.86-3.44,6.11-3.75,9.94-.26,3.27.52,4.59,1.97,7.44,1.68,3.3,4.59,4.96,6.09,6.84,1.19,1.49,3.17,2.61,3.91,4.03.58,1.13,1.93,6.29,2.53,8l5.12-4.06c-.48-1.37-1.55-4.85-2.47-6.62-.99-1.93-2.55-3.26-3.72-4.72-2.14-2.68-4.31-3.87-5.28-5.78-1.14-2.23-1.6-3.27-1.41-5.69.21-2.67.92-4.59,2.5-7.44,1.19-2.15,3.58-4.08,5.34-7.06,1.19-2.01,2.31-4.21,2.97-6.62.81-2.99.67-5.85.94-8.31l-6-1.81Z" style="fill:#ff5; stroke:#55a; stroke-width:2px;"/><path id="uuid-0e529b1e-23aa-4b55-ae7f-3da021df40bf" d="m107.38,146.59l-6,1.44c.27,3.19-.34,7.04.97,10.97,1.19,3.58,3.73,6.04,5.22,8.44,1.75,2.82,3.82,4.84,4.38,6.94.47,1.76.13,4.02-.28,6.41-.37,2.11-1.01,4.2-1.94,6.09-.6,1.22-1.77,2.48-2.88,4.16-.92,1.4-1.67,2.18-2.53,3.53l4,4.88c.89-1.39,2.97-4.9,3.84-6.22.84-1.28,2.17-2.64,3.12-4.59,1.11-2.27,1.88-4.7,2.31-7.16.41-2.37.99-5.18.22-8.09-.95-3.58-3.52-5.89-4.88-8.06-1.83-2.95-3.99-5.18-4.78-7.56-.91-2.74-.46-7.34-.78-11.16Z" style="fill:#ff5; stroke:#55a; stroke-linecap:round; stroke-linejoin:round; stroke-width:2px;"/><path id="uuid-23f8d082-73b0-4f24-b834-7a98657b8f8a" d="m111.88,143.62c-5.33,1.71-10.66,3.62-15.88,5.75-4.28,1.75-8.55,3.57-12.62,5.75-5.79,3.1-11.17,6.92-16.75,10.38" style="fill:none; stroke:#55a; stroke-linecap:round; stroke-linejoin:round; stroke-width:2px;"/><path id="uuid-bb580d1a-e12a-4a0f-8a3f-e5950927dffa" d="m134.5,169.71v31.72" style="fill:#fff; stroke:#55a; stroke-linecap:round; stroke-linejoin:round; stroke-width:2px;"/><path id="uuid-3e2cbd4a-9220-4595-9593-ad6c1613b38a" d="m112.72,206.08s-4.6-6.65-7.16-9.78c-1.99-2.43-4.18-4.68-6.37-6.93-1.88-1.94-3.79-3.87-5.8-5.68-2.78-2.51-5.65-4.92-8.64-7.16-5.45-4.09-16.94-11.48-16.94-11.48" style="fill:none; stroke:#55a; stroke-linecap:round; stroke-linejoin:round; stroke-width:2px;"/><path id="uuid-a2738ff2-b2dc-4254-b4f0-cf4e5c1f4834" d="m164.78,262.5l-.09,4.03c-3.84.48-5.93-1.06-9.09-2.97-.63,3.57-1.13,6.12-1.34,10.81,3.12-2.21,5.47-2.91,9.09-2.81l-.25,4.94h31.12l.09-4.03c3.84-.48,5.93,1.06,9.09,2.97.63-3.57,1.13-6.12,1.34-10.81-3.12,2.21-5.47,2.91-9.09,2.81l.25-4.94h-31.12Z" style="fill:#ff5;"/><path id="uuid-396473ac-dbb6-4e9a-a490-67042319d76f" d="m177.51,254.36s-.22-14.75,0-22.98c.06-2.38,1.36-4.84,3.18-6.36,1.6-1.34,3.93-1.92,6.01-1.77,2.39.17,4.85,1.3,6.54,3.01,1.32,1.33,2.26,3.26,2.3,5.13.18,8.08-.35,22.45-.35,22.45l-17.68.53Z" style="fill:#f55;"/><path id="uuid-8ecf520e-c73d-4047-abe4-acd78df6a868" d="m185.12,238.54s-4.6-.92-4.42-5.44c.09-2.39,2.8-5.06,5.3-5.08,2.63-.02,4.7,2.9,5.66,5.25.73,1.79.31,3.94-.35,5.75-.74,2.02-2.94,3.3-3.89,5.25-.59,1.22-.79,2.58-1.06,3.89-.25,1.23-.53,3.72-.53,3.72,0,0-1.36-3.9-1.59-5.92-.18-1.57-.06-3.18.18-4.74.14-.92.71-2.69.71-2.69h0Z"/><path id="uuid-33d3527f-8f12-429d-b4ab-df7e590416ae" d="m156.9,254.28s-.22-23.41,0-31.64c.06-2.38,1.81-4.72,3.71-6.19,1.65-1.28,3.93-1.92,6.01-1.77,2.39.17,4.79,1.36,6.54,3.01,1.27,1.19,2.43,2.73,2.47,4.6.18,8.08.18,31.82.18,31.82l-18.92.18Z" style="fill:#f55;"/><path id="uuid-1addec69-a4b4-442d-81ab-72cea553ffd9" d="m166.19,232.51s-5.3-.43-5.13-5.38c.09-2.62,2.8-5.55,5.3-5.57,2.63-.02,4.7,3.18,5.66,5.75.73,1.96.31,4.32-.35,6.31-.74,2.22-2.94,3.62-3.89,5.75-.59,1.33-.81,2.82-1.06,4.27-.3,1.7-.53,5.14-.53,5.14,0,0-1.37-4.99-1.59-7.55-.15-1.73-.18-3.5.18-5.2.26-1.25,1.41-3.53,1.41-3.53h0Z"/><path id="uuid-2b03d5f1-ab61-47e2-9171-17c174906aa7" d="m137.17,240.93s-1.46-13.86-1.24-22.1c.06-2.38,1.81-4.72,3.71-6.19,1.65-1.28,3.93-1.92,6.01-1.77,2.39.17,4.79,1.36,6.54,3.01,1.27,1.19,2.43,2.73,2.47,4.6.18,8.08.18,35.71.18,35.71l-13.08.18c-1.19-4.3-2.48-9.13-4.6-13.44h0Z" style="fill:#f55;"/><path id="uuid-97ae0218-b19d-4faa-b53f-fd78dc1301b1" d="m145.15,227.48s-5.3-.43-5.13-5.38c.09-2.62,2.8-5.55,5.3-5.57,2.63-.02,4.7,3.18,5.66,5.75.73,1.96.31,4.32-.35,6.31-.74,2.22-2.94,3.62-3.89,5.75-.59,1.33-.86,2.82-1.06,4.27-.29,2.17-.18,6.56-.18,6.56,0,0-1.67-5.92-1.94-8.97-.16-1.73-.18-3.5.18-5.2.26-1.25,1.41-3.53,1.41-3.53h0Z"/><path id="uuid-3f51b4a8-16ad-4667-9f0d-a27932245386" d="m134.56,235.27s-2.44-3.84-3.54-5.83c-.76-1.38-2.12-4.24-2.12-4.24,0,0,.27-4.03,0-6.01-.24-1.76-.38-3.69-1.41-5.13-.75-1.03-1.94-1.85-3.18-2.12-1.11-.24-2.44-.14-3.36.53-.32.23-.53,1.06-.53,1.06l-1.77-2.3s1.39-2.11,2.47-2.65c1.48-.74,3.35-.96,4.95-.53,2.32.62,4.36,2.35,5.83,4.24,1.17,1.5,2.07,3.4,2.12,5.3.17,6.5.53,17.68.53,17.68h0Z" style="fill:#f55;"/></g><g id="uuid-b4dcb037-37ad-4cf1-9e2d-58127651524c"><path id="uuid-7c08ee28-be4c-42bf-b3f3-20803fde0768" d="m179.49,284.64s.22,14.75,0,22.98c-.06,2.38-1.36,4.84-3.18,6.36-1.6,1.34-3.93,1.92-6.01,1.77-2.39-.17-4.85-1.3-6.54-3.01-1.32-1.33-2.26-3.26-2.3-5.13-.18-8.08.35-22.45.35-22.45l17.68-.53Z" style="fill:#f55;"/><path id="uuid-6890e008-5053-4781-ac2e-19257c955fe9" d="m200.1,284.72s.22,23.41,0,31.64c-.06,2.38-1.81,4.72-3.71,6.19-1.65,1.28-3.93,1.92-6.01,1.77-2.39-.17-4.79-1.36-6.54-3.01-1.27-1.19-2.43-2.73-2.47-4.6-.18-8.08-.18-31.82-.18-31.82l18.92-.18Z" style="fill:#f55;"/><path id="uuid-1c892ee1-9717-46b6-89e9-468ed6f67325" d="m219.83,298.07s1.46,13.86,1.24,22.1c-.06,2.38-1.81,4.72-3.71,6.19-1.65,1.28-3.93,1.92-6.01,1.77-2.39-.17-4.79-1.36-6.54-3.01-1.27-1.19-2.43-2.73-2.47-4.6-.18-8.08-.18-35.71-.18-35.71l13.08-.18c1.19,4.3,2.48,9.13,4.6,13.44h0Z" style="fill:#f55;"/><path id="uuid-0f81df1f-d643-49dd-9f38-2acea197be32" d="m222.44,303.73s2.44,3.84,3.54,5.83c.76,1.38,2.12,4.24,2.12,4.24,0,0-.27,4.03,0,6.01.24,1.76.38,3.69,1.41,5.13.75,1.03,1.94,1.85,3.18,2.12,1.11.24,2.44.14,3.36-.53.32-.23.53-1.06.53-1.06l1.77,2.3s-1.39,2.11-2.47,2.65c-1.48.74-3.35.96-4.95.53-2.32-.62-4.36-2.35-5.83-4.24-1.17-1.5-2.07-3.4-2.12-5.3-.17-6.5-.53-17.68-.53-17.68h0Z" style="fill:#f55;"/><path id="uuid-8c5433a0-82de-45f0-8a49-e1e204b4b15c" d="m214.72,469.37c2.3-5.13,4.12-10.49,6.89-15.38,1.77-3.13,4.32-5.76,6.19-8.84,1.72-2.84,3.46-5.72,4.6-8.84.84-2.33,1.64-4.77,1.59-7.25-.05-2.31-1.18-4.48-1.77-6.72,1.65-2.47,3.3-4.95,4.95-7.42,2.53-.29,5.33.28,7.6-.88,2.34-1.2,4.36-3.38,5.3-5.83.96-2.47.86-5.45,0-7.95-.87-2.54-2.72-4.86-4.95-6.36-2.13-1.44-4.86-2.38-7.42-2.12-2.91.3-5.44,2.31-7.78,4.07-2.73,2.06-4.71,4.95-7.07,7.42-.71-2-.92-4.26-2.12-6.01-1.18-1.72-2.84-3.28-4.77-4.07-1.7-.69-3.67-.61-5.48-.35-2.05.29-4.04,1.08-5.83,2.12-.87.5-1.35,1.62-2.3,1.94-4.51,1.56-9.55-.35-14.32-.53-2.12,5.42-4.24,10.84-6.36,16.26.59,1.18,1.18,2.36,1.77,3.54-2.3-.35-4.59-1.39-6.89-1.06-2.06.3-4.22,1.14-5.66,2.65-1.4,1.48-2.03,3.64-2.3,5.66-.26,1.94-.01,4.01.71,5.83.81,2.04,2.11,4.02,3.89,5.3,1.1.79,2.59.82,3.89,1.24-.65,2.47-1.12,5-1.94,7.42-.93,2.73-2.15,5.34-3.36,7.95-.94,2.03-2.09,3.97-3.01,6.01-1.3,2.89-2.59,5.81-3.54,8.84-.79,2.54-1.21,5.18-1.77,7.78-.5,2.29-.94,4.6-1.41,6.89,3.89-.12,7.79-.01,11.67-.35,3.26-.29,6.48-.93,9.72-1.41,3.42-.51,6.86-.91,10.25-1.59,3.1-.63,6.2-1.28,9.19-2.3,2.37-.81,4.64-1.91,6.89-3.01,1.68-.82,3.3-1.77,4.95-2.65Z" style="fill:#ff5;"/><path id="uuid-4c9f7b2a-df06-4455-84cd-ce947064829c" d="m234.46,393.14s-3.66,1.46-5.23,2.61c-1.69,1.25-4.36,4.57-4.36,4.57l-.22-61.87s3.79,2.35,5.88,3.05c1.26.42,3.92.65,3.92.65v50.98Z"/><path id="uuid-c3296bb1-109c-4fe9-80ac-36c4013c9ce8" d="m225.31,368.53l-78.21.44,25.27-39.65s8.97,8.86,14.81,10.24c4.57,1.08,13.94-1.96,13.94-1.96,0,0,8.45,6,13.29,5.88,4.06-.1,10.89-5.45,10.89-5.45" style="fill:#f55;"/><path id="uuid-2677d1f7-a706-4e6d-86d8-9d1ab14241dc" d="m132.5,390.25l39-60.5s-4.07.28-6-.25c-1.19-.33-3.25-1.75-3.25-1.75l-41.75,64.75,3.5,2,3.25-2.25,5.25-2Z"/><path id="uuid-26b2c329-4a35-43bc-a0a2-9e688ba30a04" d="m224.5,369.5h-78l-12.78,19.58,90.78.42v-20Z" style="fill:#ff5; stroke:#55a; stroke-linecap:round; stroke-linejoin:round; stroke-width:2px;"/><path id="uuid-2cd895e0-0ce6-4d5e-a92c-181da547f363" d="m141.12,250.25l-10.75-6.88-7.38-6.5-6.5-8.25-5-8.88-3.38-8.5-.62-6.88.5-6.62,8.75,10.75,5.5,6.75,5.25,7.62,4.38,7,4.75,8.12,3.5,7.5,1,4.75Z" style="fill:#55a;"/><path id="uuid-dc8c9471-11ab-470d-9c72-8e8e937f3dbc" d="m145.63,308.2c-7-1.33-11.44-2.58-16.88-4.7-9.24-3.6-18.26-7.99-26.5-13.5-6.83-4.56-13.12-10.01-18.75-16-6.93-7.37-13.32-15.42-18.25-24.25-3.81-6.82-6.53-14.28-8.56-21.83-2.1-7.79-3.17-15.87-3.69-23.92-.45-6.99-.23-14.04.5-21,.42-4.05,1.46-8.01,2.25-12,.79-4.01,1.67-8,2.5-12,0,0-9.3-4.01-14.12-5.53-4.79-1.51-14.63-3.54-14.63-3.54v158.22l82.51,51.97,33.62-51.93Z" style="fill:#55a; stroke:#55a; stroke-linecap:round; stroke-linejoin:round; stroke-width:2px;"/><path id="uuid-a8f1333d-3f68-4d8e-8a9d-cbe8884e2609" d="m62.59,170.46c-1.3,6.38-2.78,12.79-3.09,19.29-.44,9.26.08,18.63,1.75,27.75,1.32,7.21,3.57,14.29,6.5,21,3.47,7.94,7.85,15.54,13,22.5,4.07,5.5,8.87,10.48,14,15,6.32,5.56,13.26,10.46,20.5,14.75,3.66,2.17,7.55,3.94,11.5,5.5,4.14,1.63,8.44,2.86,12.75,4,3.39.89,7.02,1.84,10.27,2.21l-2.06-18.66-11.45-3.6-17.81-7.42-19.29-17.38-11.87-16.96-6.78-17.38-3.18-20.78,1.27-13.78,2.76-13.99c-6.78-5.3-11.02-7.61-16.54-11.02,0,0-1.61,5.96-2.22,8.99h0Z" style="fill:#55a; stroke:#55a; stroke-linecap:round; stroke-linejoin:round; stroke-width:2px;"/><path id="uuid-419a2778-9b4c-4bed-897b-98ce979457ee" d="m239.5,509.5l-25-40s-6.47,3.79-10,5c-8.04,2.76-16.54,4.16-25,5-9.95.99-20.03.82-30,0-10.1-.84-30-5-30-5l-25,35h145Z" style="fill:#f55; stroke:#55a; stroke-linecap:round; stroke-linejoin:round; stroke-width:2px;"/><path id="uuid-0918f00b-c92b-47be-8c49-6df9859b201f" d="m120.02,474.47s-3.14-9.29-2.35-13.93c.45-2.65,3.22-4.47,3.89-7.07.26-1.03.28-2.16,0-3.18-1.77-6.58-8.08-11.22-10.25-17.68-.3-.9-.7-1.94-.35-2.83,1.41-3.58,7.21-3.94,8.84-7.42,1.05-2.24-.78-5.08,0-7.42.37-1.12,1.86-1.68,2.12-2.83.4-1.76-1.28-3.51-1.06-5.3.23-1.94,1.99-3.41,2.47-5.3.44-1.72-.54-3.78.35-5.3,1.42-2.42,4.45-3.58,7.07-4.6,3.34-1.3,7.02-1.76,10.61-1.77,5.13,0,10.36.76,15.2,2.47,4.48,1.59,8.45,4.39,12.37,7.07,2.48,1.7,4.96,3.48,7.01,5.68,3.01,3.22,7.58,10.83,7.58,10.83" style="fill:none; stroke:#55a; stroke-linecap:round; stroke-linejoin:round; stroke-width:2px;"/><path id="uuid-8b799774-5d4f-45d2-820f-6fab9e0a5e40" d="m124.97,463.74s4.33,3.63,6.99,4.2c3.78.8,7.81-.26,11.5-1.4,3.12-.96,5.82-2.96,8.7-4.51,1.41-.76,4.2-2.33,4.2-2.33,0,0-5.2,2.87-7.93,4.04-2.57,1.1-5.16,2.32-7.93,2.8-2.66.45-5.43.48-8.08,0-2.61-.47-7.46-2.8-7.46-2.8h0Z" style="fill:none; stroke:#55a; stroke-linecap:round; stroke-linejoin:round; stroke-width:2px;"/><path id="uuid-2af233e3-6d39-4aac-829e-0f231b8b75fd" d="m132.43,460.17s3.42.82,5.13.62c2.25-.26,4.38-1.26,6.37-2.33,1.93-1.03,3.65-2.44,5.28-3.89,1.76-1.56,4.82-5.13,4.82-5.13" style="fill:none; stroke:#55a; stroke-linecap:round; stroke-linejoin:round; stroke-width:2px;"/><path id="uuid-4c86d432-c218-4537-808c-08048fc1967f" d="m129.01,458.3s2-1.22,3.11-1.55c2.05-.62,4.28-.34,6.37-.78,1.59-.33,3.16-.79,4.66-1.4,1.68-.68,3.24-1.61,4.82-2.49,1.16-.64,2.23-1.45,3.42-2.02.8-.38,2.49-.93,2.49-.93" style="fill:none; stroke:#55a; stroke-linecap:round; stroke-linejoin:round; stroke-width:2px;"/><path id="uuid-092c77ef-796f-4e0f-88c3-6f540f1c9996" d="m130.88,448.36s2.48-3.21,3.89-4.66c.92-.95,1.9-1.84,2.95-2.64.98-.75,3.11-2.02,3.11-2.02" style="fill:none; stroke:#55a; stroke-linecap:round; stroke-linejoin:round; stroke-width:2px;"/><path id="uuid-b25854f7-db61-4192-b32c-262c47e350bb" d="m131.03,433.75s1.97-2.92,1.71-4.51c-.24-1.45-1.47-2.79-2.8-3.42-1.31-.62-2.94-.32-4.35,0-.95.21-1.8.76-2.64,1.24-1.09.63-1.89,1.84-3.11,2.18-.65.18-1.85.5-2.02-.16-.24-.9,1.5-1.13,2.33-1.55,1.08-.55,2.25-.92,3.42-1.24,1.32-.37,2.67-.8,4.04-.78,1.38.03,3.05-.03,4.04.93.73.71.8,1.94.78,2.95-.04,1.52-1.4,4.35-1.4,4.35h0Z" style="fill:none; stroke:#55a; stroke-linecap:round; stroke-linejoin:round; stroke-width:2px;"/><path id="uuid-80ef2881-f751-41ab-949f-1e71658c43ee" d="m145.02,421.62s2.18,2.21,3.57,2.18c1.19-.03,2.25-1.05,2.95-2.02.76-1.05,1.23-2.44,1.09-3.73-.13-1.18-.79-2.36-1.71-3.11-1.64-1.33-3.96-2.06-6.06-1.87-2.1.2-3.77,1.89-5.6,2.95-1.65.97-3.16,2.16-4.82,3.11-1.41.8-2.75,1.93-4.35,2.18-1.66.26-3.69.31-4.97-.78-.38-.32-.78-1.02-.47-1.4.91-1.08,2.78.69,4.2.62,1.71-.08,3.39-.6,4.97-1.24,2.11-.85,3.84-2.46,5.91-3.42,2.1-.97,4.22-2.5,6.53-2.33,1.76.13,3.46,1.2,4.66,2.49.96,1.04,1.73,2.47,1.71,3.89-.02,1.32-.67,2.76-1.71,3.57-1,.78-2.5,1.09-3.73.78-.93-.24-2.18-1.87-2.18-1.87Z" style="fill:none; stroke:#55a; stroke-linecap:round; stroke-linejoin:round; stroke-width:2px;"/><path id="uuid-6077d437-9c70-4e30-addf-5f4a30fe0044" d="m122.95,414.63c1.5-.28,3-.53,4.51-.78,2.23-.37,4.59-.24,6.68-1.09.76-.31,2.02-1.4,2.02-1.4,0,0-2.52,1.2-3.89,1.4-1.95.29-3.93-.32-5.91-.31-1.56.01-4.66.31-4.66.31l-1.87,2.49s2.07-.43,3.11-.62h0Z" style="fill:none; stroke:#55a; stroke-linecap:round; stroke-linejoin:round; stroke-width:2px;"/><path id="uuid-6007a18f-3a80-42a7-9c22-3646d1f555e6" d="m135.54,455.82c-1.16,0-2.4-.64-3.11-1.55-.94-1.22-1.51-3.08-.93-4.51.52-1.28,2.04-2.24,3.42-2.33,1.73-.12,3.69.89,4.66,2.33.73,1.08.95,2.75.31,3.89-.8,1.41-2.73,2.18-4.35,2.18Z" style="fill:none; stroke:#55a; stroke-linecap:round; stroke-linejoin:round; stroke-width:2px;"/><path id="uuid-5b061553-a870-4701-b22c-182e6b4991d8" d="m151.08,449.91s-3.66.22-5.44-.16c-1.48-.31-2.73-1.35-4.2-1.71-2.02-.5-6.22-.62-6.22-.62" style="fill:none; stroke:#55a; stroke-linecap:round; stroke-linejoin:round; stroke-width:2px;"/><path id="uuid-68db0aa8-1102-4539-b89e-e7267b817b46" d="m134.76,453.64c.95.03,1.84-1.22,1.87-2.18.02-.92-.79-2.19-1.71-2.18-.96.02-1.72,1.37-1.71,2.33,0,.85.7,2,1.55,2.02h0Z" style="fill:#55a; stroke:#55a; stroke-linecap:round; stroke-linejoin:round; stroke-width:2px;"/><path id="uuid-be755bfb-200f-4067-a7a1-1356114978dc" d="m225.05,509.5l-14.5-28.53c-6.49,2.25-12.08,3.34-20.36,4.27l3.9,24.27h5.73l-5.12-20.73c4.75-.33,9.19-1.29,13.29-2.93l10.48,23.66h6.58Z" style="fill:#55a; stroke:#55a; stroke-linecap:round; stroke-linejoin:round; stroke-width:2px;"/><path id="uuid-0e51d4de-ceaa-40f0-a3a7-56496cc80e09" d="m185.2,509.5l-3.05-23.29c-10.08.94-18.15,1.49-28.23.49l-5.49,22.8h6.46l3.05-17.81c7.92.47,12.56,0,19.21-.49l2.23,18.29h5.82Z" style="fill:#55a; stroke:#55a; stroke-linecap:round; stroke-linejoin:round; stroke-width:2px;"/><path id="uuid-742399b9-54c7-4f9f-b96c-937dab8645c4" d="m138.63,509.5l7.31-23.05c-7.36-.61-14.06-1.02-22.06-2.93l-15.72,25.97h6.34l12.07-21.34c4.47,1.22,8.33,1.58,12.8,2.19l-6.22,19.15h5.49Z" style="fill:#55a; stroke:#55a; stroke-linecap:round; stroke-linejoin:round; stroke-width:2px;"/><path id="uuid-be2f886b-0d33-45d0-a0ac-9e8370797ca1" d="m214.53,469.23s4.62-10.62,7.41-15.69c3.05-5.54,7.92-10.12,10.17-16.03,1.26-3.32,2.35-7.02,1.72-10.52-.51-2.86-2.06-5.74-4.31-7.58-1.82-1.5-4.36-2.23-6.72-2.24-2.6,0-5.61.54-7.41,2.41-1.92,2-2.42,5.24-2.24,8,.18,2.78,1.19,5.84,3.27,7.69,1.07.95,2.7,1.26,4.14,1.21,1.83-.06,3.89-.58,5.17-1.9,1.52-1.56,2.21-4.03,2.07-6.21-.12-1.85-.9-3.94-2.41-5-1.42-.99-3.6-1.24-5.17-.52-1.27.59-2.23,2.06-2.41,3.45-.16,1.24.44,2.61,1.31,3.52.58.6,2.31.97,2.31.97" style="fill:none; stroke:#55a; stroke-linecap:round; stroke-linejoin:round; stroke-width:2px;"/><path id="uuid-48734b93-dab8-442c-942f-b2f6c30392f6" d="m195.49,476.47s4.43-14.14,7.41-20.9c2.22-5.02,6-9.33,7.76-14.53,1.5-4.43,3.18-9.28,2.24-13.86-.56-2.73-2.37-5.35-4.48-7.07-1.89-1.54-4.36-2.41-6.72-2.42-2.6-.01-5.54.78-7.41,2.61-2.19,2.13-3.44,5.52-3.28,8.57.17,3.13,1.91,6.34,4.31,8.36,1.11.93,2.7,1.35,4.14,1.3,1.83-.07,3.89-.62,5.17-2.05,1.52-1.69,2.21-4.35,2.07-6.7-.12-1.99-.92-4.11-2.41-5.4-1.36-1.16-3.45-1.91-5.17-1.42-1.55.44-2.92,1.98-3.28,3.55-.38,1.68.44,4.15,1.55,4.94,2.97,2.14,4.31-.79,4.31-.79" style="fill:none; stroke:#55a; stroke-linecap:round; stroke-linejoin:round; stroke-width:2px;"/><path id="uuid-99cdef61-6629-45e1-951a-ae1e7034e31e" d="m175.87,479.4s1.65-12.01,6.38-22.79c2.26-5.15,5.44-9.96,6.9-15.4,1.32-4.93,2.51-10.22,1.55-15.24-.59-3.06-1.97-6.23-4.31-8.28-1.79-1.57-4.34-2.3-6.72-2.42-2.66-.14-5.78.13-7.76,1.92-2.43,2.2-3.55,6-3.28,9.26.27,3.18,2.18,6.34,4.65,8.36,1.12.91,2.69,1.35,4.14,1.3,1.85-.07,3.91-.69,5.17-2.05,1.59-1.72,2.21-4.37,2.07-6.7-.12-1.97-.92-4.11-2.41-5.4-1.36-1.16-3.45-1.91-5.17-1.42-1.55.44-2.92,1.98-3.28,3.55-.38,1.68.44,4.15,1.55,4.94,2.97,2.14,4.31-.79,4.31-.79" style="fill:none; stroke:#55a; stroke-linecap:round; stroke-linejoin:round; stroke-width:2px;"/><path id="uuid-9a85e5cd-3aed-485d-9900-71afff640337" d="m208.32,471.99c1.15-3.62,1.93-7.38,3.45-10.86,1.87-4.29,4.44-8.25,6.9-12.24,1.67-2.71,3.83-5.13,5.34-7.93,1.55-2.85,2.82-6.03,3.79-8.96" style="fill:none; stroke:#55a; stroke-linecap:round; stroke-linejoin:round; stroke-width:2px;"/><path id="uuid-948424d3-9dd2-4d10-a4cd-861c179988a6" d="m201.95,474.15c.97-3.39,1.63-6.9,2.9-10.16,1.57-4.02,3.7-7.73,5.81-11.45,1.6-2.83,3.8-5.32,5.2-8.26,1.17-2.45,1.82-4.97,2.64-7.71" style="fill:none; stroke:#55a; stroke-linecap:round; stroke-linejoin:round; stroke-width:2px;"/><path id="uuid-040cacff-a2aa-4e26-b1b0-f3a79ff46c56" d="m189.53,478.02c.97-3.88,1.63-7.92,2.9-11.65,1.57-4.61,3.7-8.86,5.81-13.13,1.6-3.25,3.8-6.11,5.2-9.47,1.17-2.81,1.82-5.7,2.64-8.84" style="fill:none; stroke:#55a; stroke-linecap:round; stroke-linejoin:round; stroke-width:2px;"/><path id="uuid-4b2552e0-0b63-4966-b53e-6dc96f09e8a6" d="m182.12,478.54c.91-3.56,1.53-7.25,2.72-10.67,1.47-4.22,3.53-8.06,5.44-12.03,1.44-2.98,3.22-5.81,4.53-8.85,1.11-2.57,2.05-5.04,2.82-7.92" style="fill:none; stroke:#55a; stroke-linecap:round; stroke-linejoin:round; stroke-width:2px;"/><path id="uuid-e1f0cb13-c57c-4a22-96db-a9750693d0a4" d="m169.37,479.92c.88-4.46,1.34-9.02,2.63-13.38,1.43-4.83,3.8-9.33,5.61-14.04,1.51-3.95,3.15-7.86,4.37-11.91,1-3.33,1.65-6.54,2.39-10.15" style="fill:none; stroke:#55a; stroke-linecap:round; stroke-linejoin:round; stroke-width:2px;"/><path id="uuid-2f2b4e77-1a6f-4624-8c73-836ac25ed2f1" d="m162.3,479.66c.83-3.84,1.39-7.82,2.48-11.51,1.34-4.55,3.16-8.76,4.96-12.97,1.37-3.21,3.24-6.03,4.44-9.36,1-2.78,1.55-5.63,2.26-8.73" style="fill:none; stroke:#55a; stroke-linecap:round; stroke-linejoin:round; stroke-width:2px;"/><path id="uuid-e8b60357-47ea-468a-9590-9a8d125c9719" d="m215.23,419.68c2.33-5.25,4.04-10.78,7.31-15.44,2.64-3.75,5.72-7.48,9.71-9.74,2.69-1.53,5.95-2.76,9-2.25,2.55.43,4.93,2.19,6.5,4.25,1.65,2.16,2.51,5.04,2.5,7.75-.01,2.64-.81,5.48-2.5,7.5-1.46,1.74-3.8,2.69-6,3.25-1.86.47-4,.78-5.75,0-2.05-.91-3.54-2.97-4.5-5-.94-1.98-1.68-4.42-1-6.5.7-2.13,2.68-3.89,4.75-4.75,1.77-.73,4.04-.87,5.75,0,1.38.7,2.27,2.28,2.75,3.75.41,1.27.6,2.81,0,4-.61,1.21-1.91,2.28-3.25,2.41-1.1.11-2.4-.49-3-1.41-.54-.85-.27-2.39-.04-3.02" style="fill:none; stroke:#55a; stroke-linecap:round; stroke-linejoin:round; stroke-width:2px;"/><path id="uuid-192168eb-aa5b-4b1f-a933-bbadf156bb3d" d="m190.58,423.14c2.03-4.55,2.92-10.63,5.37-15.53,2.26-4.52,4.36-9.63,8.48-12.56,2.61-1.86,6.12-2.98,9.29-2.47,2.22.36,4.29,1.9,5.66,3.69,1.43,1.87,2.21,4.37,2.18,6.72-.03,2.16-.82,4.42-2.18,6.09-1.29,1.59-3.25,2.67-5.22,3.23-1.61.46-3.48.68-5.01,0-1.78-.79-3.09-2.58-3.92-4.34-.74-1.56-1.25-3.46-.77-5.12.57-1.97,2.17-3.79,4.03-4.64,1.52-.69,3.52-.75,5.01,0,1.2.61,2.05,1.95,2.39,3.25.32,1.19.24,2.63-.41,3.68-.51.81-1.47,1.4-2.42,1.53-1.08.14-2.48-.09-3.13-.97-.61-.83-.56-2.79-.01-3.1" style="fill:none; stroke:#55a; stroke-linecap:round; stroke-linejoin:round; stroke-width:2px;"/><path id="uuid-afc18d7f-8732-4ae7-81f2-0b6ea9a3b725" d="m232.5,422.07c1.39-2.68,3.12-4.68,4.77-6.84" style="fill:none; stroke:#55a; stroke-linecap:round; stroke-linejoin:round; stroke-width:2px;"/><path id="uuid-136e9407-4b7b-42f4-875c-99477613c437" d="m228.25,418.13c1.62-2.54,2.89-4.05,4.25-5.81" style="fill:none; stroke:#55a; stroke-linecap:round; stroke-linejoin:round; stroke-width:2px;"/><path id="uuid-a94abecc-bbd6-417d-b664-d03a422f59f1" d="m222.03,416.99c2.44-4.35,4.99-8.31,7.98-10.47" style="fill:none; stroke:#55a; stroke-linecap:round; stroke-linejoin:round; stroke-width:2px;"/><path id="uuid-a84c7433-facf-46cc-ad76-21a727c4b332" d="m209.59,420.2c.15-2.37,1.46-4.68,2.18-7.36" style="fill:none; stroke:#55a; stroke-linecap:round; stroke-linejoin:round; stroke-width:2px;"/><path id="uuid-e5e8e87e-96c9-4e34-a325-6aaefa8b0927" d="m203.94,417.66c.15-2.37,1.46-4.68,2.18-7.36" style="fill:none; stroke:#55a; stroke-linecap:round; stroke-linejoin:round; stroke-width:2px;"/><path id="uuid-6ecbff7e-6ff7-490e-b6d4-60a8852126c9" d="m198.24,417.66c.25-3.41,3.75-10.87,5.7-14" style="fill:none; stroke:#55a; stroke-linecap:round; stroke-linejoin:round; stroke-width:2px;"/><path id="uuid-47ff57bc-01b5-4924-86c7-097411fbab92" d="m186.78,417.92c.69-3.97,2.15-7.63,3.63-11.3,1.32-3.28,2.9-6.15,4.67-9.54" style="fill:none; stroke:#55a; stroke-linecap:round; stroke-linejoin:round; stroke-width:2px;"/><path id="uuid-2319c3a3-435d-4637-82a1-a681d09c2d6f" d="m182.01,413.05c.76-2.94,1.73-5.92,2.8-8.81.95-2.57,2.04-4.84,3.21-7.57" style="fill:none; stroke:#55a; stroke-linecap:round; stroke-linejoin:round; stroke-width:2px;"/><path id="uuid-1b510bea-c45a-4bbb-9e82-30feb3835718" d="m48.73,456.64s-5.47,6.67-7.07,10.61c-1.45,3.55-2.85,7.55-2.12,11.31.58,3.02,2.47,5.96,4.95,7.78,2.95,2.16,6.99,3.39,10.61,2.83,3.04-.47,5.85-2.56,7.78-4.95,1.5-1.86,2.24-4.34,2.47-6.72.29-2.97-.37-6.04-1.41-8.84-.78-2.08-2.27-3.83-3.54-5.66-1.49-2.14-4.77-6.2-4.77-6.2l9.89-13.61-9.74-13.95s4.71-5.49,6.38-8.67c1.51-2.87,2.86-5.97,3.18-9.19.26-2.6.06-5.42-1.06-7.78-1.11-2.33-3.16-4.21-5.3-5.66-1.89-1.27-4.09-2.39-6.36-2.47-2.83-.11-5.87.77-8.13,2.47-1.91,1.44-3.12,3.75-3.89,6.01-.91,2.68-.97,5.65-.7,8.47.27,2.81,1.06,5.61,2.3,8.14,1.66,3.36,6.72,9.02,6.72,9.02l-9.73,13.26,9.55,13.79Z" style="fill:#ff5; stroke:#55a; stroke-linecap:round; stroke-linejoin:round; stroke-width:2px;"/><path id="uuid-ff967dd2-8090-463c-9054-8b0c2690bb43" d="m52.03,461.66s4.78,5.68,6.25,9.03c.74,1.68,1.45,3.56,1.22,5.38-.22,1.75-1.18,3.45-2.43,4.69-1.29,1.27-3.05,2.4-4.86,2.43-1.79.03-3.63-.96-4.86-2.26-1.38-1.45-2.11-3.56-2.26-5.56-.15-1.96.58-3.94,1.39-5.73,1.33-2.96,3.15-5.36,5.56-7.99Z" style="fill:#f55; stroke:#55a; stroke-linecap:round; stroke-linejoin:round; stroke-width:2px;"/><path id="uuid-c712cb92-b334-4fc3-849e-9499bb44284c" d="m52.1,424.51s4.76-6.29,6.25-9.9c.7-1.7,1.45-3.56,1.22-5.38-.22-1.75-1.18-3.45-2.43-4.69-1.29-1.27-3.05-2.4-4.86-2.43-1.79-.03-3.63.96-4.86,2.26-1.38,1.45-2.11,3.56-2.26,5.56-.15,1.96.63,3.92,1.39,5.73,1.35,3.21,3.15,6.23,5.56,8.85Z" style="fill:#f55; stroke:#55a; stroke-linecap:round; stroke-linejoin:round; stroke-width:2px;"/><path id="uuid-a813b461-36d3-4779-b519-827c933c11d4" d="m52.55,434.58l5.9,8.16-6.08,8.85-6.08-8.33,6.25-8.68Z" style="fill:#55a; stroke:#55a; stroke-linecap:round; stroke-linejoin:round; stroke-width:2px;"/><g id="uuid-db9fb05a-ac31-4ce4-ab95-41b987ea8cda"><path id="uuid-45ad9308-8b03-44c9-9948-12fba05f9822" d="m84.62,369.88c-2.21,4.83-3.85,10.19-7.45,14.11-3.4,3.7-7.95,6.45-12.68,8.12-3.81,1.35-8.01,1.34-12.06,1.36-1.72,0-4.02.77-5.12-.54-1.22-1.46-.57-4.07.43-5.69,1.62-2.62,5-3.78,7.93-4.74,2.49-.82,5.2-.66,7.82-.74-.62-4.24-.8-7.79-.06-11.57.47-2.41,2.16-4.88,2.81-6.8" style="fill:none; stroke:#55a; stroke-linecap:round; stroke-linejoin:round; stroke-width:2px;"/><path id="uuid-e9afa44f-c0a8-4eb1-bc72-0e95b09f4f24" d="m57.38,392.62c0-1.29.68-2.78,0-3.88-.54-.87-1.76-1.11-2.75-1.38-1.29-.35-2.67-.33-4-.25-.89.06-1.75.33-2.62.5" style="fill:none; stroke:#55a; stroke-linecap:round; stroke-linejoin:round; stroke-width:2px;"/><path id="uuid-936c9f11-33fc-450a-940f-1343c6d07554" d="m46.5,387.12c-1.08-.29-2.43-.11-3.25-.88-1.03-.96-1.56-2.6-1.38-4,.13-1.04,1-1.88,1.75-2.62,1.24-1.23,2.79-2.15,4.38-2.88,1.77-.82,3.69-1.38,5.62-1.62,1.53-.2,3.13-.23,4.62.12.85.2,1.81.46,2.38,1.12.39.46.56,1.15.5,1.75-.07.74-.47,1.48-1,2-.76.74-1.82,1.25-2.88,1.38-.97.11-2.09-.04-2.88-.62-.69-.51-1.03-1.42-1.25-2.25-.16-.61-.12-1.26,0-1.88.08-.44.33-.83.5-1.25" style="fill:none; stroke:#55a; stroke-linecap:round; stroke-linejoin:round; stroke-width:2px;"/><path id="uuid-aa115e76-d9af-48a5-9dba-f922cbb72544" d="m43.12,379.5c-.96-.79-2.32-1.26-2.88-2.38-.39-.78-.45-1.81-.12-2.62.51-1.29,1.86-2.09,3-2.88,1.37-.94,2.91-1.64,4.5-2.12,1.57-.48,3.24-.6,4.88-.75,1.62-.14,3.26-.34,4.88-.12.73.1,1.54.18,2.12.62.51.39.93.99,1,1.62.08.65-.25,1.34-.62,1.88-.58.83-1.4,1.61-2.38,1.88-.89.24-1.88-.07-2.75-.38-.78-.27-1.67-.57-2.12-1.25-.35-.53-.3-1.25-.25-1.88.06-.7.42-1.33.62-2" style="fill:none; stroke:#55a; stroke-linecap:round; stroke-linejoin:round; stroke-width:2px;"/><path id="uuid-259ed0fe-d404-434f-a9b4-2251103e6e70" d="m43,371.38c-.62-.96-1.62-1.76-1.88-2.88-.29-1.27-.22-2.79.5-3.88.83-1.24,2.46-1.76,3.88-2.25,1.75-.6,3.65-.62,5.5-.75,1.58-.11,3.21-.35,4.75,0,.95.21,1.92.59,2.62,1.25.56.52,1.09,1.24,1.12,2,.04.73-.36,1.49-.88,2-.68.67-1.69.97-2.62,1.12-.95.15-2.02.19-2.88-.25-.63-.33-1.1-.97-1.38-1.62-.31-.73-.41-1.6-.25-2.38.15-.75.75-1.33,1.12-2" style="fill:none; stroke:#55a; stroke-linecap:round; stroke-linejoin:round; stroke-width:2px;"/><path id="uuid-62d1944c-46a0-492b-aa84-c9dc554ff5e4" d="m44.88,362.5c-.79-.38-2.16-.69-2.5-1.62-.34-.94.34-2.03.88-2.88.75-1.2,1.83-2.31,3.12-2.88,1.07-.46,2.33-.27,3.5-.25,1.63.03,3.3.08,4.88.5,1.19.32,2.63.52,3.38,1.5.33.44.39,1.09.25,1.62-.24.92-.94,1.76-1.75,2.25-1.05.63-2.5,1.1-3.62.62-1.02-.43-1.58-1.68-1.88-2.75-.18-.64-.14-1.39.12-2,.27-.62.92-1,1.38-1.5" style="fill:none; stroke:#55a; stroke-linecap:round; stroke-linejoin:round; stroke-width:2px;"/><path id="uuid-ca137229-20ae-485f-8d3e-81b8d72aba53" d="m51.88,354.12c.36-1.17,2.26-2.33,4.25-3.5" style="fill:none; stroke:#55a; stroke-linecap:round; stroke-linejoin:round; stroke-width:2px;"/></g><path id="uuid-0c9ba229-47ec-435f-8230-92abac935bdf" d="m224.5,389.5h-81.36s9.91.71,14.48,2.44c2.08.79,5.66,3.54,5.66,3.54l39.24,1.06s3.6-2.52,5.66-3.18c2.03-.65,4.28-1.15,6.36-.71,1.6.34,3.03,1.37,4.24,2.47.75.68,1.32,1.56,1.77,2.47.54,1.1.88,2.32,1.06,3.54.17,1.17,0,3.54,0,3.54l2.89-5.17v-10Z" style="fill:#55a; stroke:#55a; stroke-linecap:round; stroke-linejoin:round; stroke-width:2px;"/><path id="uuid-1267f781-9705-44c3-93aa-231671de04ff" d="m224.5,384.5h-87" style="fill:none; stroke:#55a; stroke-linecap:round; stroke-linejoin:round; stroke-width:2px;"/><path id="uuid-bde556d3-8636-4802-ba53-82d79f7f9df3" d="m192.12,358.6c-1.41,1.41,1.41,4.56,0,5.96s-4.56,1.41-5.96,0,1.41-4.56,0-5.96c-1.41-1.41-4.56,1.41-5.96,0-1.41-1.41-1.41-4.56,0-5.96,1.41-1.41,4.56,1.41,5.96,0,1.41-1.41-1.41-4.56,0-5.96s4.56-1.41,5.96,0-1.41,4.56,0,5.96c1.41,1.41,4.56-1.41,5.96,0,1.41,1.41,1.41,4.56,0,5.96-1.41,1.41-4.56-1.41-5.96,0Z" style="fill:#fff;"/><path id="uuid-3efe7723-23ba-4f9f-a2ea-2349af2cf1c5" d="m120.83,392.32l-6.83-4.82,42-65.25s1.31,2.18,2.25,3c1.15,1.01,4,2.25,4,2.25l-41.42,64.82Z" style="fill:#ff5;"/><path id="uuid-bea0fd49-181f-4d35-8401-a9e2cc4aad29" d="m114.2,387.63l-3.95-2.38,43-66.75,2.5,4-41.55,65.13Z" style="fill:#55a;"/><path id="uuid-0a8a06b5-db2b-4ec5-b01d-e2202adb3717" d="m110.58,384.95l-4.83-3.45,45-69.5,2.32,7.1-42.49,65.84Z" style="fill:#ff5;"/><path id="uuid-c21a26e3-fab2-45b3-8b8f-ffb8ed60a38a" d="m105.25,381.5l-74.75-47.25v-8l77.5,49.5-2.75,5.75Z" style="fill:#f55;"/><path id="uuid-0b7c8ace-4f71-427f-b592-ed795fe605a2" d="m108.56,376.42l5.47-8.69-83.54-53.73v12.2l78.06,50.22Z"/><path id="uuid-1560429c-a084-4ae8-a124-b9646d0b1ef3" d="m113.95,368.23l2.84-4.79-86.29-55.2v6l83.45,53.98Z" style="fill:#f55;"/><path id="uuid-e34af679-2ed3-4da9-8cff-2ed647d090f3" d="m29.5,267.5s16.21,12.66,22.75,20.5c5.59,6.69,10.38,14.21,13.75,22.25,3.1,7.38,5.72,23.33,5.72,23.33l7.75,4.89s-3.66-21.71-7.97-31.72c-3.99-9.26-9.7-17.84-16.25-25.5-7.44-8.71-25.75-22.75-25.75-22.75v9Z" style="fill:#ff5; stroke:#55a; stroke-linecap:round; stroke-linejoin:round; stroke-width:2px;"/><path id="uuid-1a057311-3930-418d-af09-00630fcf26d9" d="m96.25,348.5s-1.64-25.35-5-37.5c-2.47-8.92-6.12-17.63-11-25.5-6.73-10.86-15.18-20.79-24.75-29.25-7.76-6.86-26-17-26-17v-6.7s21.11,12.05,30.25,19.95c8.71,7.52,16.68,16.13,23,25.75,6.1,9.29,10.77,19.62,14,30.25,2.48,8.15,4,25.25,4,25.25l20.62-32.75,6.5,2.62-30.12,45.88-1.5-1Z" style="fill:#ff5; stroke:#55a; stroke-linecap:round; stroke-linejoin:round; stroke-width:2px;"/><path id="uuid-ba244b65-5c1e-497f-b869-90825626f66c" d="m29.5,149.5c9.97,2.24,19.68,5.06,29,9,1.92.81,3.7,1.94,5.5,3,5.78,3.4,11.7,6.64,17,10.75,1.54,1.19,2.82,2.68,4.25,4,4.45,4.09,9.12,7.95,13.5,12.12,3.09,2.95,6.11,5.98,9,9.12,3.08,3.35,6.04,6.81,8.88,10.38,4.41,5.55,8.88,11.1,12.62,17.12,4.6,7.41,9.07,15.04,12,23.25,1.49,4.17,1.89,8.66,2.75,13,1.07,5.4,2.1,10.82,3,16.25.37,2.24.71,4.49,1,6.75.79,6.24,1.34,12.5,2,18.75.34,3.21.32,6.47,1,9.62.47,2.15,1.1,4.29,2.09,6.25.82,1.61,1.9,3.1,3.15,4.41,1.75,1.84,3.76,3.5,5.99,4.73,1.51.84,3.19,1.38,4.88,1.73,1.49.31,3.05.21,4.57.32,0,0,9.12,8.99,15.06,10.14,4.81.93,14.38-3.05,14.38-3.05,0,0,8.98,6.98,14.16,6.54,3.72-.32,9.23-6.34,9.23-6.34,0,0,7.44,5.22,11.47,4.46,4.36-.82,9.8-9.02,9.8-9.02" style="fill:none; stroke:#55a; stroke-linecap:round; stroke-linejoin:round; stroke-width:2px;"/><path id="uuid-9e2a61bc-d171-4d99-bd09-b74980966ab3" d="m171.69,330.06l-28.19,44.44h81" style="fill:none; stroke:#55a; stroke-linecap:round; stroke-linejoin:round; stroke-width:2px;"/><path id="uuid-9500bb08-ca3b-4b99-aa59-3e217e8b4f1e" d="m80.88,172.25c-1,6.83-2.84,13.43-3.12,20.25-.34,8.26-.12,16.69,1.75,24.75,1.95,8.41,5.49,16.49,9.75,24,4.37,7.71,9.6,15.12,16,21.25,5.84,5.6,12.79,10.08,20,13.75,7.17,3.64,15.67,5.33,22.75,8-2.17-13.09-4.33-23.22-6.5-33.75-5-3.33-11.53-7.18-16.5-11.75-3.22-2.96-6.09-6.35-8.5-10-2.88-4.35-5.21-9.1-7-14-1.09-2.98-1.97-6.09-2.25-9.25-.24-2.66.5-5.83.5-8l-13.25-13.5-13.62-11.75Z" style="fill:#ff5; stroke:#55a; stroke-linecap:round; stroke-linejoin:round; stroke-width:2px;"/><path id="uuid-ecb4e7ed-eea3-4211-8d27-e431a2dcba37" d="m86,177.5c-.92,5.58-2.59,11.09-2.75,16.75-.22,7.79.59,15.69,2.5,23.25,1.78,7.07,4.7,13.88,8.25,20.25,4.06,7.3,8.8,14.4,14.75,20.25,5.37,5.28,11.81,9.54,18.5,13,5.74,2.97,12.17,4.33,18.25,6.5l-2.5-15.75c-2.83-1.17-5.8-2.06-8.5-3.5-3.71-1.98-7.2-4.4-10.5-7-2.99-2.35-5.82-4.93-8.38-7.75-2.74-3.02-5.21-6.3-7.38-9.75-2.24-3.57-4.22-7.33-5.75-11.25-1.47-3.79-2.62-7.74-3.25-11.75-.62-3.96-.51-8-.5-12,.01-3.42.5-7.17.5-10.25l-13.25-11Z" style="fill:#55a; stroke:#55a; stroke-linecap:round; stroke-linejoin:round; stroke-width:2px;"/><path id="uuid-1f4eac72-68e6-4ef5-840f-9a8f3013ed9e" d="m142.25,255.25c-4.17-1.38-8.36-3.78-12.12-6.38-4.25-2.93-8.15-6.42-11.62-10.25-2.87-3.16-5.31-6.71-7.5-10.38-2.11-3.54-4.06-7.22-5.38-11.12-1.27-3.75-2-7.69-2.38-11.62-.37-3.9.12-8.08.12-11.75" style="fill:none; stroke:#55a; stroke-linecap:round; stroke-linejoin:round; stroke-width:2px;"/><g id="uuid-abb1661a-98d9-4599-b35d-6796f0633542"><path id="uuid-a03f937b-e5dc-4e60-8c8c-74165792a364" d="m136.53,281.78s6.19,2.88,7.88,5.62c1.45,2.37,1.25,8.25,1.25,8.25,0,0-4.94-2.94-6.5-5.25-1.68-2.49-2.62-8.62-2.62-8.62Z" style="fill:#f55;"/><path id="uuid-f7293294-3d62-4053-a454-eb317b5740c2" d="m136.28,281.78s-4.66,5.23-7.88,5.88c-2.36.47-7-1.75-7-1.75,0,0,3.5-3.87,5.88-4.62,2.87-.9,9,.5,9,.5Z" style="fill:#f55;"/><path id="uuid-8c6139d1-edba-4f22-ad8e-e1f53058de57" d="m134.16,287.65c1.81.29,3.72,2.43,3.5,4.25-.25,2.07-2.95,4.11-5,3.75-1.96-.35-3.68-3.06-3.25-5,.4-1.83,2.9-3.3,4.75-3Z" style="fill:#f55;"/></g><path id="uuid-1cf4b5f6-b6d0-4a49-bb09-a84ce3354863" d="m62.53,328.24s3.55-4.21,3.95-6.8c.24-1.52.12-3.45-1-4.5-1.17-1.1-3.16-.96-4.75-.75-3.61.47-10,4.4-10,4.4l3.75,2.2s3.14-2.89,5-2.6c1.05.16,2.01,1.22,2.25,2.25.3,1.28-1.25,3.75-1.25,3.75l2.05,2.05Z" style="fill:#ff5;"/><path id="uuid-e618dbe0-57b6-4f9a-b3de-cf001a41d9f1" d="m49.14,319.31s6.31-2.53,8.55-4.95c1.44-1.56,2.65-3.63,2.75-5.75.08-1.69-.53-3.58-1.75-4.75-1.48-1.41-3.8-1.87-5.85-1.85-2.17.02-4.24,1.07-6.15,2.1-2.51,1.35-4.51,3.48-6.75,5.25-1.02.81-3.05,2.45-3.05,2.45l3.45,2.2s4.99-4.69,8.1-5.9c1.41-.55,3.09-1.04,4.5-.5,1.05.4,2.32,1.38,2.25,2.5-.1,1.65-2.44,2.25-3.75,3.25-1.93,1.47-6.05,4.05-6.05,4.05l3.75,1.9Z" style="fill:#ff5;"/><path id="uuid-b0989eb5-2d77-424c-8e34-4f9c272e14c6" d="m35.2,310.4s7.64-5.29,10.8-8.65c1.68-1.78,4.04-3.56,4.25-6,.18-2.12-.95-4.62-2.75-5.75-1.13-.71-2.74-.44-4,0-2.41.84-4.02,3.14-6,4.75-2.7,2.21-8,6.75-8,6.75v3.9s4.23-3.45,6.4-5.1c2.16-1.65,3.98-4.07,6.6-4.8.97-.27,2.62-.68,3,.25.83,2.02-2.68,3.48-4.25,5-1.52,1.47-3.28,2.66-4.95,3.95-1.56,1.21-4.75,3.55-4.75,3.55l3.65,2.15Z" style="fill:#ff5;"/><path id="uuid-dbde3054-1e27-4b50-b3f2-f3abbed08c91" d="m29.5,298.05s9.49-5.66,12-10.3c.92-1.7,1.43-3.94.75-5.75-.66-1.77-2.38-3.45-4.25-3.75-1.88-.3-3.86.94-5.25,2.25-1.76,1.66-3.25,6.5-3.25,6.5,0,0,3.8-4.85,6.25-4.25,1.38.34,2.18,2.34,2,3.75-.17,1.35-1.74,2.1-2.75,3-1.69,1.5-5.5,3.95-5.5,3.95v4.6Z" style="fill:#ff5;"/><path id="uuid-e352ef49-6f64-493c-ba42-d78cc929baf3" d="m80.25,334s6.76,3.16,9.75,1.75c1.38-.65,2.87-2.6,2.25-4-.45-1.02-2.14-.81-3.25-.75-3.08.16-8.75,3-8.75,3Z" style="fill:#fff;"/><g id="uuid-8a0e3b73-beab-4e90-a948-211ac4a1ad7b"><path id="uuid-6732b1d3-d4c4-4c23-a659-8afa10afb06a" d="m129.65,270.92c1.72.65,3.84.56,5.5-.24,1.65-.79,3.05-2.38,3.61-4.12.52-1.62.29-3.58-.52-5.07-.82-1.51-2.37-2.72-4-3.23-1.56-.49-3.41-.35-4.88.35-1.53.74-2.88,2.15-3.46,3.75-.59,1.64-.45,3.64.28,5.23.67,1.46,1.97,2.77,3.48,3.34Z" style="fill:#ff5; stroke:#55a; stroke-linecap:round; stroke-linejoin:round; stroke-width:2px;"/><path id="uuid-c2b61253-6582-4e67-94a7-ad276d847bab" d="m131.7,267.22c1.2.3,2.88-.67,3.21-1.87.34-1.2-.56-2.97-1.77-3.3-1.28-.35-3.09.78-3.39,2.07-.28,1.19.76,2.8,1.95,3.09Z" style="fill:none; stroke:#55a; stroke-linecap:round; stroke-linejoin:round; stroke-width:2px;"/></g><path id="uuid-8065ac8e-4a9f-46cf-940d-71518886704c" d="m131.38,243.13c1.53.37,3.68-1.02,4-2.66.27-1.37-.97-3.14-2.25-3.46-1.49-.37-3.63.81-4,2.39-.33,1.43.9,3.4,2.25,3.72Z" style="fill:#ff5; stroke:#55a; stroke-linecap:round; stroke-linejoin:round; stroke-width:2px;"/><path id="uuid-b12197f2-3f70-4255-a577-85c93281c795" d="m126.34,236.86c1.84.48,4.41-1.35,4.79-3.51.32-1.81-1.16-4.15-2.69-4.57-1.78-.48-4.35,1.08-4.79,3.16-.4,1.89,1.07,4.49,2.69,4.92Z" style="fill:#ff5; stroke:#55a; stroke-linecap:round; stroke-linejoin:round; stroke-width:2px;"/><path id="uuid-6c840e34-af17-4fa4-bf12-5da9bd37bbb8" d="m120.76,229.73c2.2.51,5.28-1.43,5.73-3.72.38-1.92-1.38-4.4-3.23-4.84-2.14-.51-5.21,1.14-5.73,3.35-.48,2.01,1.29,4.76,3.23,5.21h0Z" style="fill:#ff5; stroke:#55a; stroke-linecap:round; stroke-linejoin:round; stroke-width:2px;"/><path id="uuid-e4b9dbb3-2d6c-48b1-90ee-f5ffed058b96" d="m116.02,221.61c1.96.44,4.7-1.23,5.1-3.19.34-1.65-1.23-3.77-2.87-4.15-1.9-.44-4.63.98-5.1,2.87-.43,1.72,1.14,4.08,2.87,4.47Z" style="fill:#ff5; stroke:#55a; stroke-linecap:round; stroke-linejoin:round; stroke-width:2px;"/><path id="uuid-4640cac0-44a8-4074-8acb-72c7f06baef3" d="m112.13,213.5c1.53.34,3.68-.96,4-2.5.27-1.29-.97-2.95-2.25-3.25-1.49-.34-3.63.77-4,2.25-.33,1.35.9,3.2,2.25,3.5Z" style="fill:#ff5; stroke:#55a; stroke-linecap:round; stroke-linejoin:round; stroke-width:2px;"/><path id="uuid-4aafe967-03c2-4e88-8f15-9e26ebd8c8d2" d="m219.5,380.5v-2h-10v2h10Z" style="fill:none; stroke:#55a; stroke-linecap:round; stroke-linejoin:round; stroke-width:2px;"/><g id="uuid-eef6b9bc-9020-4723-bbde-a8b97edfbf83"><path id="uuid-584db78a-cd09-4507-b7f8-2a664d4ed952" d="m117.37,263.51c1.72.65,3.84.56,5.5-.24,1.65-.79,3.05-2.38,3.61-4.12.52-1.62.29-3.58-.52-5.07-.82-1.51-2.37-2.72-4-3.23-1.56-.49-3.41-.35-4.88.35-1.53.74-2.88,2.15-3.46,3.75-.59,1.64-.45,3.64.28,5.23.67,1.46,1.97,2.77,3.48,3.34Z" style="fill:#ff5; stroke:#55a; stroke-linecap:round; stroke-linejoin:round; stroke-width:2px;"/><path id="uuid-3c90e03b-95e8-4749-8445-4321ef795fb2" d="m119.42,259.82c1.2.3,2.88-.67,3.21-1.87.34-1.2-.56-2.97-1.77-3.3-1.28-.35-3.09.78-3.39,2.07-.28,1.19.76,2.8,1.95,3.09Z" style="fill:none; stroke:#55a; stroke-linecap:round; stroke-linejoin:round; stroke-width:2px;"/></g><g id="uuid-8efc1e6c-9f65-481a-895a-8f35b2b94dcb"><path id="uuid-c67abb04-c763-43d7-b8ab-58bf5dff7646" d="m107.37,254.51c1.72.65,3.84.56,5.5-.24,1.65-.79,3.05-2.38,3.61-4.12.52-1.62.29-3.58-.52-5.07-.82-1.51-2.37-2.72-4-3.23-1.56-.49-3.41-.35-4.88.35-1.53.74-2.88,2.15-3.46,3.75-.59,1.64-.45,3.64.28,5.23.67,1.46,1.97,2.77,3.48,3.34Z" style="fill:#ff5; stroke:#55a; stroke-linecap:round; stroke-linejoin:round; stroke-width:2px;"/><path id="uuid-e5d0183e-7485-45ef-8bbe-0611b5a297ca" d="m109.42,250.82c1.2.3,2.88-.67,3.21-1.87.34-1.2-.56-2.97-1.77-3.3-1.28-.35-3.09.78-3.39,2.07-.28,1.19.76,2.8,1.95,3.09Z" style="fill:none; stroke:#55a; stroke-linecap:round; stroke-linejoin:round; stroke-width:2px;"/></g><g id="uuid-aca8a51a-2a4d-4da5-bc7c-d32635a00a63"><path id="uuid-437cdeba-bf73-4ce9-8edd-32cb2b97e2fc" d="m99.62,243.51c1.72.65,3.84.56,5.5-.24,1.65-.79,3.05-2.38,3.61-4.12.52-1.62.29-3.58-.52-5.07-.82-1.51-2.37-2.72-4-3.23-1.56-.49-3.41-.35-4.88.35-1.53.74-2.88,2.15-3.46,3.75-.59,1.64-.45,3.64.28,5.23.67,1.46,1.97,2.77,3.48,3.34Z" style="fill:#ff5; stroke:#55a; stroke-linecap:round; stroke-linejoin:round; stroke-width:2px;"/><path id="uuid-e0657b12-4629-4fc6-b240-e4b781700cbc" d="m101.67,239.82c1.2.3,2.88-.67,3.21-1.87.34-1.2-.56-2.97-1.77-3.3-1.28-.35-3.09.78-3.39,2.07-.28,1.19.76,2.8,1.95,3.09Z" style="fill:none; stroke:#55a; stroke-linecap:round; stroke-linejoin:round; stroke-width:2px;"/></g><g id="uuid-423f1439-5203-48f8-b359-373236f3a834"><path id="uuid-ae8d0f54-16bd-4771-ad54-c7b06c6387a1" d="m93.62,230.89c1.72.65,3.84.56,5.5-.24,1.65-.79,3.05-2.38,3.61-4.12.52-1.62.29-3.58-.52-5.07-.82-1.51-2.37-2.72-4-3.23-1.56-.49-3.41-.35-4.88.35-1.53.74-2.88,2.15-3.46,3.75-.59,1.64-.45,3.64.28,5.23.67,1.46,1.97,2.77,3.48,3.34Z" style="fill:#ff5; stroke:#55a; stroke-linecap:round; stroke-linejoin:round; stroke-width:2px;"/><path id="uuid-27deaaaa-6a52-4788-bf17-9e1ecb2504c4" d="m95.67,227.2c1.2.3,2.88-.67,3.21-1.87.34-1.2-.56-2.97-1.77-3.3-1.28-.35-3.09.78-3.39,2.07-.28,1.19.76,2.8,1.95,3.09Z" style="fill:none; stroke:#55a; stroke-linecap:round; stroke-linejoin:round; stroke-width:2px;"/></g><g id="uuid-229bdee2-93df-490d-a209-c06ef742a011"><path id="uuid-669f83ed-fa44-4068-9272-85057da04547" d="m89.25,217.76c1.72.65,3.84.56,5.5-.24,1.65-.79,3.05-2.38,3.61-4.12.52-1.62.29-3.58-.52-5.07-.82-1.51-2.37-2.72-4-3.23-1.56-.49-3.41-.35-4.88.35-1.53.74-2.88,2.15-3.46,3.75-.59,1.64-.45,3.64.28,5.23.67,1.46,1.97,2.77,3.48,3.34Z" style="fill:#ff5; stroke:#55a; stroke-linecap:round; stroke-linejoin:round; stroke-width:2px;"/><path id="uuid-6697e9f4-e87c-4a73-835c-f09680142f33" d="m91.29,214.07c1.2.3,2.88-.67,3.21-1.87.34-1.2-.56-2.97-1.77-3.3-1.28-.35-3.09.78-3.39,2.07-.28,1.19.76,2.8,1.95,3.09Z" style="fill:none; stroke:#55a; stroke-linecap:round; stroke-linejoin:round; stroke-width:2px;"/></g><g id="uuid-a28e83d3-92c3-4028-b37c-e52cfaa301da"><path id="uuid-78ec6159-428d-4dd3-8f89-b036a2b465df" d="m88.37,191.11c1.72-.65,3.84-.56,5.5.24,1.65.79,3.05,2.38,3.61,4.12.52,1.62.29,3.58-.52,5.07-.82,1.51-2.37,2.72-4,3.23-1.56.49-3.41.35-4.88-.35-1.53-.74-2.88-2.15-3.46-3.75-.59-1.64-.45-3.64.28-5.23.67-1.46,1.97-2.77,3.48-3.34Z" style="fill:#ff5; stroke:#55a; stroke-linecap:round; stroke-linejoin:round; stroke-width:2px;"/><path id="uuid-f33aa9e3-afd4-4b31-ab31-5986d757a922" d="m90.42,194.8c1.2-.3,2.88.67,3.21,1.87.34,1.2-.56,2.97-1.77,3.3-1.28.35-3.09-.78-3.39-2.07-.28-1.19.76-2.8,1.95-3.09Z" style="fill:none; stroke:#55a; stroke-linecap:round; stroke-linejoin:round; stroke-width:2px;"/></g><g id="uuid-7b848da5-0edb-4584-8d22-9f3607b217cc"><path id="uuid-497f26fa-06fe-4ea2-a3de-59c8a92ef119" d="m87.62,179.2c-1.72,1.64-2.15,4.75-1.35,6.98.62,1.71,2.43,3.13,4.23,3.46,2.2.41,5.59-.07,6.37-2.11" style="fill:#ff5; stroke:#55a; stroke-linecap:round; stroke-linejoin:round; stroke-width:2px;"/><path id="uuid-f6a67664-fa07-4c73-b449-2222bdb48b58" d="m90.64,181.13c-1.05.62-1.13,3.12-.15,4.04.84.79,2.85.99,3.44-.34" style="fill:none; stroke:#55a; stroke-linecap:round; stroke-linejoin:round; stroke-width:2px;"/></g><g id="uuid-5aa7c41d-ec04-4342-ad2b-8987a54df8f3"><path id="uuid-3de4f043-b721-48b3-8416-d6c99041fe95" d="m143.49,262.94c-2.25.17-4.44,2.28-5.2,4.51-.58,1.71-.17,3.96.99,5.36,1.44,1.74,4.5,3.52,6.3,2.44" style="fill:#ff5; stroke:#55a; stroke-linecap:round; stroke-linejoin:round; stroke-width:2.05px;"/><path id="uuid-159e019f-7eaa-4cd0-8865-620da302201f" d="m144.52,266.36c-1.14-.2-2.71,1.68-2.55,3.02.13,1.14,1.48,2.58,2.72,1.94" style="fill:none; stroke:#55a; stroke-linecap:round; stroke-linejoin:round; stroke-width:2.05px;"/></g><g id="uuid-7813ee48-6647-4db6-9e6f-3cb039ca8b64"><path id="uuid-f81e378f-2299-445a-b706-c220e8b1611f" d="m113.76,270.6s4.9,4.21,5.76,7.19c.74,2.57-.86,7.98-.86,7.98,0,0-3.76-3.96-4.6-6.5-.92-2.73-.29-8.67-.29-8.67Z" style="fill:#f55;"/><path id="uuid-6bc8c864-b7e9-4c79-8100-0f3d2d902e1e" d="m113.54,270.54s-5.48,3.7-8.54,3.5c-2.25-.15-5.9-3.37-5.9-3.37,0,0,4.1-2.73,6.43-2.84,2.81-.13,8.01,2.7,8.01,2.7Z" style="fill:#f55;"/><path id="uuid-f92a2e08-6e3b-4e69-ad49-b382101b0031" d="m110.2,275.47c1.57.72,2.77,3.18,2.14,4.82-.72,1.86-3.66,3.09-5.42,2.24-1.68-.81-2.58-3.76-1.73-5.46.8-1.6,3.42-2.34,5.02-1.61Z" style="fill:#f55;"/></g><g id="uuid-da4ef68d-1433-4230-bbe9-30f961e400fd"><path id="uuid-79e47de9-43bc-4928-90ed-d5f149a3dabe" d="m95.89,253.06s3.8,5.3,3.83,8.31c.02,2.6-3.2,7.21-3.2,7.21,0,0-2.71-4.75-2.84-7.35-.15-2.81,2.22-8.17,2.22-8.17Z" style="fill:#f55;"/><path id="uuid-000af1ec-84bc-4cca-ac57-56a5fed215ae" d="m95.67,252.94s-6.7,1.93-9.78.89c-2.26-.76-5.08-4.79-5.08-4.79,0,0,5-1.41,7.42-.86,2.92.66,7.44,4.76,7.44,4.76Z" style="fill:#f55;"/><path id="uuid-af350cd6-cb37-4f35-b4f8-82174cf739e0" d="m90.82,256.61c1.4,1.11,1.92,3.74.79,5.09-1.28,1.53-4.65,1.86-6.22.58-1.49-1.23-1.56-4.23-.19-5.57,1.29-1.27,4.19-1.23,5.62-.1Z" style="fill:#f55;"/></g><g id="uuid-dfd5f73d-e07f-4288-9c96-925d0120bd42"><path id="uuid-c85c11dd-3a44-4836-90dc-346d00e91a63" d="m82.54,230.59s2.34,5.9,1.58,8.79c-.65,2.49-4.95,6.18-4.95,6.18,0,0-1.41-5.13-.88-7.65.58-2.72,4.25-7.32,4.25-7.32Z" style="fill:#f55;"/><path id="uuid-7322cbc4-3590-415b-948c-41ae4dad380f" d="m82.36,230.42s-7,.36-9.72-1.31c-2-1.23-3.71-5.7-3.71-5.7,0,0,5.21-.24,7.42.82,2.66,1.28,6.01,6.19,6.01,6.19Z" style="fill:#f55;"/><path id="uuid-29207643-5367-44ce-88bd-39cc02457bf6" d="m76.71,232.86c1.07,1.37.91,4-.53,5.04-1.64,1.18-4.99.76-6.19-.82-1.14-1.5-.43-4.38,1.24-5.37,1.58-.93,4.38-.26,5.48,1.14Z" style="fill:#f55;"/></g><g id="uuid-a10197eb-eb07-4675-960d-01d7d6ecc394"><path id="uuid-77396501-3f62-4d6b-91df-548d587435d9" d="m76.49,206.83s-.06,6.57-1.86,9.15c-1.56,2.22-6.99,4.38-6.99,4.38,0,0,.63-5.51,2.09-7.79,1.57-2.47,6.77-5.74,6.77-5.74Z" style="fill:#f55;"/><path id="uuid-37be3e96-9fd0-4371-9d6d-8380baf147a5" d="m76.39,206.61s-6.69-2-8.61-4.56c-1.41-1.88-1.3-6.84-1.3-6.84,0,0,4.98,1.52,6.64,3.31,2.01,2.15,3.27,8.09,3.27,8.09Z" style="fill:#f55;"/><path id="uuid-8e643556-f49b-4348-b8bb-e06f46bf42e0" d="m70.16,207.08c.48,1.7-.67,4.23-2.42,4.76-1.99.61-4.97-.95-5.48-2.89-.49-1.85,1.26-4.44,3.21-4.84,1.83-.38,4.2,1.23,4.7,2.97Z" style="fill:#f55;"/></g><g id="uuid-388b5465-e8b4-4d0e-8780-c50e0605e0e3"><path id="uuid-91d3b9d9-f5b6-4b6c-81fd-fde3f4ec17f5" d="m77.71,181.42s-1.99,6.28-4.48,8.26c-2.15,1.7-8,2.29-8,2.29,0,0,2.23-5.1,4.3-6.9,2.23-1.93,8.18-3.66,8.18-3.66Z" style="fill:#f55;"/><path id="uuid-bd6c1808-55be-45f2-911b-7e6ebab3f4f5" d="m77.67,181.19s-5.83-3.74-6.91-6.72c-.8-2.18.76-6.9.76-6.9,0,0,4.32,2.81,5.4,4.98,1.29,2.61.76,8.64.76,8.64Z" style="fill:#f55;"/><path id="uuid-affc2005-0ae2-48e8-846c-15fc36e6439d" d="m71.56,179.95c-.04,1.77-1.89,3.87-3.72,3.9-2.08.04-4.48-2.26-4.41-4.26.07-1.91,2.52-3.91,4.5-3.77,1.87.14,3.67,2.32,3.63,4.12Z" style="fill:#f55;"/></g><path id="uuid-30e17e03-5504-43fe-87cc-847fec57d1cc" d="m78.56,321.95s7.24,1.83,9.91-.11c1.24-.9,2.33-3.09,1.46-4.35-.63-.91-2.25-.39-3.33-.13-2.99.73-8.03,4.59-8.03,4.59h0Z" style="fill:#fff;"/><path id="uuid-8e16b8ff-9f05-4d9c-85b8-dc77d874c7db" d="m75.81,310.95s7.43.69,9.77-1.64c1.08-1.08,1.82-3.41.77-4.52-.77-.81-2.29-.04-3.31.39-2.85,1.19-7.23,5.77-7.23,5.77Z" style="fill:#fff;"/><path id="uuid-c20f9e7c-0ead-46d9-aa50-bdf3a18f1b2f" d="m71.74,300.49s7.42-.8,9.25-3.55c.85-1.27,1.11-3.71-.15-4.59-.91-.64-2.25.42-3.17,1.04-2.55,1.73-5.93,7.1-5.93,7.1Z" style="fill:#fff;"/><path id="uuid-b5646c17-c0c4-4a1c-a453-8bf9488b5427" d="m65.49,289.16s7.42-.8,9.25-3.55c.85-1.27,1.11-3.71-.15-4.59-.91-.64-2.25.42-3.17,1.04-2.55,1.73-5.93,7.1-5.93,7.1Z" style="fill:#fff;"/><path id="uuid-4b197227-2330-4447-ba65-9947ed585d25" d="m58.04,279.79s7.22-1.91,8.61-4.9c.64-1.39.54-3.83-.84-4.51-1-.49-2.16.75-2.98,1.51-2.26,2.1-4.8,7.91-4.8,7.91h0Z" style="fill:#fff;"/><path id="uuid-49aa6abb-ee4b-46ea-a8ed-4fa0fa6f20ad" d="m48.83,270.31s7.22-1.91,8.61-4.9c.64-1.39.54-3.83-.84-4.51-1-.49-2.16.75-2.98,1.51-2.26,2.1-4.8,7.91-4.8,7.91h0Z" style="fill:#fff;"/><path id="uuid-15ebd8e2-d6cc-45fe-adc6-f3d3a595d064" d="m39.82,262.28s6.97-2.67,8.03-5.8c.49-1.45.12-3.87-1.31-4.4-1.04-.38-2.07.98-2.8,1.82-2.02,2.33-3.92,8.38-3.92,8.38Z" style="fill:#fff;"/><path id="uuid-a9a3584b-b75c-4e0d-9271-57fab1174fe3" d="m30.64,256.15s6.56-3.56,7.21-6.8c.3-1.5-.38-3.85-1.88-4.19-1.08-.24-1.92,1.24-2.54,2.17-1.7,2.57-2.79,8.82-2.79,8.82Z" style="fill:#fff;"/><g id="uuid-fa9884dd-62a1-46f4-9fca-9bbd3bd75c8a"><path id="uuid-8c5d8294-c5c9-4d32-98bc-cb05c04685ad" d="m135.03,317.36s-2.92-5.74-5.7-6.47c-1.48-.39-3.87.06-4.33,1.52-.33,1.06,1.03,2.07,1.95,2.71,2.29,1.6,8.09,2.24,8.09,2.24Z" style="fill:#fff;"/><path id="uuid-c90ccacd-68f2-47c5-872f-67335d672d44" d="m137.48,317.3c.78-4.85,1.17-6.08-.98-8.58-1-1.16-3.27-2.07-4.46-1.1-.86.7-.25,2.3.15,3.33.99,2.57,5.29,6.35,5.29,6.35h0Z" style="fill:#fff;"/><path id="uuid-e76d2628-13e7-4d07-9f6e-d39f97d80f1f" d="m136.11,319.54s-6.22-2.46-8.85-1.07c-1.12.59-2.19,2.18-1.76,3.38.37,1.04,1.95,1.32,3.06,1.3,2.79-.06,7.55-3.61,7.55-3.61h0Z" style="fill:#fff;"/></g><g id="uuid-a559dbeb-46d8-4ca1-8fa6-a8499bb2edf7"><path id="uuid-75129885-a292-4ed1-8655-29a6c6425def" d="m123.64,333.06s-2.21-5.83-4.83-6.65c-1.46-.46-3.87.06-4.33,1.52-.33,1.06,1.05,2.05,1.95,2.71,2.04,1.51,7.21,2.42,7.21,2.42Z" style="fill:#fff;"/><path id="uuid-8a83f0cd-9d33-409d-a7c2-bbe400a9308f" d="m126.8,333.29s1.17-6.75-.81-9.05c-1-1.16-3.27-2.07-4.46-1.1-.86.7-.23,2.29.15,3.33.96,2.67,5.12,6.81,5.12,6.81h0Z" style="fill:#fff;"/><path id="uuid-a526df83-d624-4b93-8c24-5ca671498bb2" d="m124.84,335.47s-5.65-2.72-8.09-1.48c-1.36.69-2.7,2.78-1.99,4.13.51.99,2.19.7,3.29.54,2.48-.35,6.79-3.2,6.79-3.2h0Z" style="fill:#fff;"/></g><g id="uuid-f644fe2a-9e34-4147-bc14-e36316e81009"><path id="uuid-d6f4eaa3-1603-4124-9104-38e48b7c035e" d="m114.01,350.09s-2.32-6.18-5.09-7.05c-1.46-.46-3.87.06-4.33,1.52-.33,1.06,1.06,2.03,1.95,2.71,2.11,1.62,7.47,2.83,7.47,2.83h0Z" style="fill:#fff;"/><path id="uuid-8f4b2811-7bd0-498f-a7c2-714b73f9b48f" d="m116.87,349.82s1.17-6.68-.78-8.96c-.99-1.16-3.27-2.07-4.46-1.1-.86.7-.23,2.29.15,3.33.95,2.64,5.09,6.73,5.09,6.73h0Z" style="fill:#fff;"/><path id="uuid-53aadc8b-117b-4dff-a0de-ae5cb4fc1629" d="m115.35,352.41s-5.9-3.08-8.5-1.8c-1.37.67-2.7,2.78-1.99,4.13.51.99,2.19.66,3.29.54,2.57-.28,7.2-2.88,7.2-2.88Z" style="fill:#fff;"/></g><path id="uuid-1ee9296d-30fc-47f8-882a-0a4872000f3e" d="m30.05,307.22l86.9,55.82" style="stroke:#55a; stroke-linecap:round; stroke-linejoin:round; stroke-width:2px;"/><path id="uuid-36d738ae-07bf-4d97-86e2-bf5393d83459" d="m124.42,394.51l-94.92-60.66" style="stroke:#55a; stroke-linecap:round; stroke-linejoin:round; stroke-width:2px;"/><path id="uuid-d81fc17e-f1c5-411a-9915-3a264de5774a" d="m105.04,382.06l45.85-70.12" style="stroke:#55a; stroke-linecap:round; stroke-linejoin:round; stroke-width:2px;"/><path id="uuid-e170c2c0-d581-47f4-a80d-c45df05158eb" d="m204.5,380.5v-2h-10v2h10Z" style="fill:none; stroke:#55a; stroke-linecap:round; stroke-linejoin:round; stroke-width:2px;"/><path id="uuid-f6178783-cbde-4e9b-91da-99fac49dcb78" d="m189.5,380.5v-2h-10v2h10Z" style="fill:none; stroke:#55a; stroke-linecap:round; stroke-linejoin:round; stroke-width:2px;"/><path id="uuid-d424ff9d-caa1-43e2-aeb6-1b8041721a22" d="m174.5,380.5v-2h-10v2h10Z" style="fill:none; stroke:#55a; stroke-linecap:round; stroke-linejoin:round; stroke-width:2px;"/><path id="uuid-d75a64fa-422c-4c24-a79a-cf1b909b4ac8" d="m159.5,380.5v-2h-10v2h10Z" style="fill:none; stroke:#55a; stroke-linecap:round; stroke-linejoin:round; stroke-width:2px;"/><path id="uuid-9035036f-31b7-4cc1-a758-f3f40ca88170" d="m144.5,380.5v-2h-3.3l-1.2,2h4.5Z" style="fill:none; stroke:#55a; stroke-linecap:round; stroke-linejoin:round; stroke-width:2px;"/><path id="uuid-fb65480f-63eb-443a-a97b-daa16145dbe8" d="m273.5,384.5v-22.38l17.38,11.88-17.38,10.5Z" style="fill:#f55;"/><path id="uuid-9af1cd52-409c-403e-98e4-0dabb29838bf" d="m264.75,388.38l-.25-34.62,9.62,8.25-.38,22.38-9,4Z"/><path id="uuid-d9478db4-34f0-4b7d-bdf0-58169cc73759" d="m260.38,390l-.12-40.12-13.25-14.25-1.38-1.38s-1.65,1.84-2.5,2.75c-1.23,1.32-3.75,3.91-3.75,3.91l.12,50.34,4.38,1.62,3.38,2.12,13.12-5Z" style="fill:#55a; stroke:#55a; stroke-linecap:round; stroke-linejoin:round; stroke-width:2px;"/><path id="uuid-258c0af1-e59f-4925-b884-86f9b43a6422" d="m247.27,393.84c.31-2.87.22-6.88.81-9.06.52-1.9,1.44-3.78,2.53-5.62,1.27-2.14,3.71-4.13,5.41-7.19,1.58-2.86,3.44-6.11,3.75-9.94.26-3.27-.52-4.59-1.97-7.44-1.68-3.3-4.59-4.96-6.09-6.84-1.19-1.49-3.17-2.61-3.91-4.03-.58-1.13-1.93-6.29-2.53-8l-5.12,4.06c.48,1.37,1.55,4.85,2.47,6.62.99,1.93,2.55,3.26,3.72,4.72,2.14,2.68,4.31,3.87,5.28,5.78,1.14,2.23,1.6,3.27,1.41,5.69-.21,2.67-.92,4.59-2.5,7.44-1.19,2.15-3.58,4.08-5.34,7.06-1.19,2.01-2.31,4.21-2.97,6.62-.81,2.99-.67,5.85-.94,8.31l6,1.81Z" style="fill:#ff5; stroke:#55a; stroke-width:2px;"/><path id="uuid-21dc5985-14bc-493a-a45b-4aa466cacbce" d="m251.62,392.41l6-1.44c-.27-3.19.34-7.04-.97-10.97-1.19-3.58-3.73-6.04-5.22-8.44-1.75-2.82-3.82-4.84-4.38-6.94-.47-1.76-.13-4.02.28-6.41.37-2.11,1.01-4.2,1.94-6.09.6-1.22,1.77-2.48,2.88-4.16.92-1.4,1.67-2.18,2.53-3.53l-4-4.88c-.89,1.39-2.97,4.9-3.84,6.22-.84,1.28-2.17,2.64-3.12,4.59-1.11,2.27-1.88,4.7-2.31,7.16-.41,2.37-.99,5.18-.22,8.09.95,3.58,3.52,5.89,4.88,8.06,1.83,2.95,3.99,5.18,4.78,7.56.91,2.74.46,7.34.78,11.16Z" style="fill:#ff5; stroke:#55a; stroke-linecap:round; stroke-linejoin:round; stroke-width:2px;"/><path id="uuid-54e38e4f-3ceb-43a5-a18e-fa18c597d1f3" d="m247.12,395.38c5.33-1.71,10.66-3.62,15.88-5.75,4.28-1.75,8.55-3.57,12.62-5.75,5.79-3.1,11.17-6.92,16.75-10.38" style="fill:none; stroke:#55a; stroke-linecap:round; stroke-linejoin:round; stroke-width:2px;"/><path id="uuid-84a07442-4092-4cb6-9011-ee86ea9f2c86" d="m224.5,369.29v-31.72" style="fill:#fff; stroke:#55a; stroke-linecap:round; stroke-linejoin:round; stroke-width:2px;"/><path id="uuid-323c174b-83e0-4efb-bec7-f9e13402f2a7" d="m246.28,332.92s4.6,6.65,7.16,9.78c1.99,2.43,4.18,4.68,6.37,6.93,1.88,1.94,3.79,3.87,5.8,5.68,2.78,2.51,5.65,4.92,8.64,7.16,5.45,4.09,16.94,11.48,16.94,11.48" style="fill:none; stroke:#55a; stroke-linecap:round; stroke-linejoin:round; stroke-width:2px;"/><path id="uuid-dd056a6f-7904-4a84-8e9b-292583b5b2a2" d="m173.88,300.46s4.6.92,4.42,5.44c-.09,2.39-2.8,5.06-5.3,5.08-2.63.02-4.7-2.9-5.66-5.25-.73-1.79-.31-3.94.35-5.75.74-2.02,2.94-3.3,3.89-5.25.59-1.22.79-2.58,1.06-3.89.25-1.23.53-3.72.53-3.72,0,0,1.36,3.9,1.59,5.92.18,1.57.06,3.18-.18,4.74-.14.92-.71,2.69-.71,2.69h0Z"/><path id="uuid-c4198884-9599-4c5a-b397-c4d7fd32d41e" d="m192.81,306.49s5.3.43,5.13,5.38c-.09,2.62-2.8,5.55-5.3,5.57-2.63.02-4.7-3.18-5.66-5.75-.73-1.96-.31-4.32.35-6.31.74-2.22,2.94-3.62,3.89-5.75.59-1.33.81-2.82,1.06-4.27.3-1.7.53-5.14.53-5.14,0,0,1.37,4.99,1.59,7.55.15,1.73.18,3.5-.18,5.2-.26,1.25-1.41,3.53-1.41,3.53h0Z"/><path id="uuid-bb3c4d28-8f09-4799-95cd-17be91cf5af0" d="m213.85,311.52s5.3.43,5.13,5.38c-.09,2.62-2.8,5.55-5.3,5.57-2.63.02-4.7-3.18-5.66-5.75-.73-1.96-.31-4.32.35-6.31.74-2.22,2.94-3.62,3.89-5.75.59-1.33.86-2.82,1.06-4.27.29-2.17.18-6.56.18-6.56,0,0,1.67,5.92,1.94,8.97.16,1.73.18,3.5-.18,5.2-.26,1.25-1.41,3.53-1.41,3.53h0Z"/></g><path id="uuid-75c40daa-4e18-4111-9519-707efd12a7b9" d="m29.5,149.5v360h270" style="fill:none; stroke:#55a; stroke-width:2px;"/><path id="uuid-eaa4fa86-9f09-42b3-98b7-018c45ce8929" d="m59.5,29.5h270v360h0" style="fill:none; stroke:#55a; stroke-width:2px;"/><path id="uuid-25b8e91c-6bf9-4189-999a-7a9e7dd19f89" d="m29.5,29.5v5h5v35c0,2.76-2.24,5-5,5s-5-2.24-5-5v-5h-5v5c0,5.52,4.48,10,10,10s10-4.48,10-10V29.5h-10Z"/><path id="uuid-e1a2f457-bfb6-4f07-b777-5a5f89cb53a8" d="m329.5,509.5v-5h-5v-35c0-2.76,2.24-5,5-5s5,2.24,5,5v5h5v-5c0-5.52-4.48-10-10-10s-10,4.48-10,10v40h10Z"/><path id="uuid-f57a7f4c-4d2b-412a-8fc2-7b5b80e014ca" d="m94.5,100.5c1,4,5,14,12,14,9,0,13-8,13-18,0-7-2.58-11.61-5-17-2.58-5.74-6.38-10.86-10-16-4.65-6.6-15-19-15-19,0,0-10.35,12.4-15,19-3.62,5.14-7.42,10.26-10,16-2.42,5.39-5,10-5,17,0,10,4,18,13,18,7,0,11-10,12-14,1-1,1,0,1,1-1,8-1,10-2,16s-4,17-4,17c5-2,15-2,20,0,0,0-3-11-4-17s-1-8-2-16c0-1,0-2,1-1Z"/><path id="uuid-d3749e97-9b64-48c9-ae94-eac6747e602f" d="m32,117.5c.5,2,2.5,7,6,7,4.5,0,6.5-4,6.5-9,0-3.5-1.29-5.81-2.5-8.5-1.29-2.87-3.19-5.43-5-8-2.32-3.3-7.5-9.5-7.5-9.5,0,0-5.18,6.2-7.5,9.5-1.81,2.57-3.71,5.13-5,8-1.21,2.69-2.5,5-2.5,8.5,0,5,2,9,6.5,9,3.5,0,5.5-5,6-7,.5-.5.5,0,.5.5-.5,4-.5,5-1,8s-2,8.5-2,8.5c2.5-1,7.5-1,10,0,0,0-1.5-5.5-2-8.5s-.5-4-1-8c0-.5,0-1,.5-.5Z"/><path id="uuid-e83dea3b-5507-49ed-b098-42a8c50b75af" d="m264.5,438.5c-1-4-5-14-12-14-9,0-13,8-13,18,0,7,2.58,11.61,5,17,2.58,5.74,6.38,10.86,10,16,4.65,6.6,15,19,15,19,0,0,10.35-12.4,15-19,3.62-5.14,7.42-10.26,10-16,2.42-5.39,5-10,5-17,0-10-4-18-13-18-7,0-11,10-12,14-1,1-1,0-1-1,1-8,1-10,2-16s4-17,4-17c-5,2-15,2-20,0,0,0,3,11,4,17s1,8,2,16c0,1,0,2-1,1Z"/><path id="uuid-5a72a7de-8052-496d-a0c3-fc7cc46a720a" d="m327,421.5c-.5-2-2.5-7-6-7-4.5,0-6.5,4-6.5,9,0,3.5,1.29,5.81,2.5,8.5,1.29,2.87,3.19,5.43,5,8,2.32,3.3,7.5,9.5,7.5,9.5,0,0,5.18-6.2,7.5-9.5,1.81-2.57,3.71-5.13,5-8,1.21-2.69,2.5-5,2.5-8.5,0-5-2-9-6.5-9-3.5,0-5.5,5-6,7-.5.5-.5,0-.5-.5.5-4,.5-5,1-8s2-8.5,2-8.5c-2.5,1-7.5,1-10,0,0,0,1.5,5.5,2,8.5s.5,4,1,8c0,.5,0,1-.5.5Z"/></g></svg>