<?xml version="1.0" encoding="UTF-8"?><svg id="Layer_1" xmlns="http://www.w3.org/2000/svg" viewBox="0 0 359 539"><defs><style>.cls-1,.cls-2{fill:#f55;}.cls-3,.cls-4{fill:#ff5;}.cls-5,.cls-6{fill:#55a;}.cls-6,.cls-7,.cls-8,.cls-4,.cls-2,.cls-9,.cls-10,.cls-11{stroke-width:1.98px;}.cls-6,.cls-7,.cls-8,.cls-4,.cls-2,.cls-12,.cls-11{stroke:#55a;}.cls-6,.cls-8,.cls-4,.cls-2,.cls-9,.cls-10,.cls-12,.cls-11{stroke-linecap:round;stroke-linejoin:round;}.cls-7,.cls-10,.cls-12,.cls-11{fill:none;}.cls-8{fill:#fff;}.cls-9,.cls-10{stroke:#000;}.cls-12{stroke-width:2.06px;}</style></defs><g id="g9009"><path id="path9013" class="cls-3" d="m259.72,301.81l-9.53.67-12.22-2.37-13.46-5.28-11.73-6.63-9.04-7.51-16.65-20.76-8.86-12.4-8.33-7.33-16.19-11.91-13.96-7.48-17.19-5.1-13.43-1.38-9.71-.18-11.06,3.26,11.2,19.67,9.53-.67,12.26,2.41,13.43,5.24,11.76,6.66,9,7.48,16.69,20.76,8.86,12.44,8.33,7.3,16.16,11.91,13.96,7.51,17.19,5.1,13.43,1.35,9.71.18,11.06-3.22-11.2-19.7Z"/><path id="path9015" class="cls-7" d="m59.49,29.51h270v360h0"/><path id="path9017" d="m29.52,29.51v5h5v35.01c0,2.73-2.23,5-5,5s-5-2.27-5-5v-5.03h-5.03v5.03c0,5.49,4.5,9.99,10.03,9.99s9.99-4.5,9.99-9.99V29.51h-9.99Z"/><path id="path9019" d="m329.49,509.49v-5h-5v-35.01c0-2.73,2.23-5,5-5s5,2.27,5,5v5.03h5.03v-5.03c0-5.49-4.5-9.99-10.03-9.99s-9.99,4.5-9.99,9.99v40h9.99Z"/><path id="path9021" class="cls-3" d="m169.58,183.93l37.88,30.76-.28,62.72-3.86,2.66-6.8-6.8-10.35-13.89-8.57-12.12-3.86-4.15-4.71-3.86.57-55.31Z"/><path id="path9023" class="cls-3" d="m221.67,292.78l24.84-18.04,2.37,4.75-21.3,16.87-5.92-3.58Z"/><path id="path9025" class="cls-3" d="m203.31,279.49l36.11-23.67,2.06,4.71-33.73,22.22-4.43-3.26Z"/><path id="path9027" class="cls-1" d="m216.64,207.88l-.32,63.04,23.99-15.7-3.86-17.75-2.66-17.15-.6-15.98.32-8.57-16.87,12.12Z"/><path id="path9029" d="m207.18,282.75l34.3-22.78s2.41,6.09,3.54,9.18c.71,1.84,2.09,5.6,2.09,5.6l-25.44,18.35s-6.48-2.13-9.18-4.15c-2.2-1.63-5.31-6.2-5.31-6.2h0Z"/><path id="path9031" d="m147.51,167.24l59.24,47.27,26.75-17.01-.25-14,.74-13.25.5-10.49-27.25,18.5-35.01-28.77-4.5-2.23-2.48-2.27-4-.5-2.27-3.26-2.98.78-3.01-3.76h-3.01l-2.48-2.27v31.25Z"/><path id="path9033" d="m137.52,130.99l-.25,89.01,5.99,2.23,5,2.76-.25-89.26-3.26-.5-3.22-3.26-2.02.78-1.98-1.77Z"/><path id="path9035" class="cls-2" d="m259.51,207.74l20.23-9.99s3.9,11.06,6.02,16.51,4.04,11.02,6.73,16.23c1.81,3.51,3.83,6.91,6.24,10.03,2.37,3.01,8.01,8.22,8.01,8.22l-.25,78.52s-9.89-11.98-14-18.5c-3.58-5.7-6.31-11.94-9.25-18-3.83-7.94-7.9-15.77-10.98-24.02-2.09-5.53-3.54-11.27-5.03-16.97-1.52-5.95-2.87-11.98-3.97-18-.81-4.39-1.31-8.86-2.02-13.25-.57-3.61-1.74-10.77-1.74-10.77h0Z"/><path id="path9037" class="cls-3" d="m263.27,148.99l27.25,14.74-2.76,10.28.99,9.99,3.01,6.73-8.01,6.02-13.75,5.99-10.24,4.25-.99-9.99v-12.01l.74-14,2.23-15.73,1.52-6.27Z"/><path id="path9039" class="cls-5" d="m225.99,296.25l22.75-17.01s3.97,8.68,6.02,13c1.63,3.44,5,10.24,5,10.24,0,0-11.09.71-16.51-.25-5.99-1.06-17.26-5.99-17.26-5.99h0Z"/><path id="path9041" d="m329.49,382.25l-16.87-14.63.25-279.74,16.62-.11v294.48Z"/><path id="path9043" class="cls-5" d="m95.49,148.11l.18,66.83-6.91,2.13s-11.2-15.63-16.94-23.35c-4.18-5.56-8.68-10.91-12.76-16.62-.99-1.38-2.83-4.22-2.83-4.22,0,0,11.09-8.08,16.8-11.87,4.07-2.66,8.19-5.17,12.4-7.58,3.3-1.88,10.06-5.31,10.06-5.31Z"/><path id="path9045" d="m111.76,139.99l-.35,74.23s-5.53-.28-8.29-.18c-2.87.14-8.5.89-8.5.89l.18-66.83s6.31-3.4,9.53-4.93c2.44-1.17,7.44-3.19,7.44-3.19Z"/><path id="path9047" class="cls-3" d="m204.73,63.63c-7.05.11-14.14-.11-21.19.35-5.88.35-11.73,1.03-17.5,1.91-3.83.6-7.55,1.56-11.34,2.3-.57,4.15-1.2,8.26-1.77,12.37-.6,4.68-1.1,9.32-1.74,14-.5,3.47-.78,6.98-1.59,10.42-.5,2.06-1.31,4-1.95,6.02l-2.66.35c-.89-.89-1.45-2.3-2.66-2.66-1.59-.5-3.47.07-4.96.89-2.13,1.13-3.65,3.22-4.93,5.28-1.24,1.98-2.23,4.22-2.48,6.56-.14,1.49.11,3.05.71,4.43.46,1.03,1.1,2.16,2.13,2.66.99.46,2.23,0,3.37,0,.57.81.96,1.81,1.74,2.44,1.2.99,2.83,1.31,4.25,1.95.78.89,1.24,2.16,2.3,2.66.92.43,2.02,0,3.01,0,.89.81,1.52,2.02,2.66,2.48.92.35,1.98,0,2.98,0,1.03,1.17,1.59,2.91,3.01,3.54,1.03.43,2.23-.14,3.37-.18.89,1.06,1.42,2.59,2.66,3.19,1.03.46,2.23,0,3.37,0,1.1.92,2.09,2.06,3.33,2.8,1.45.89,3.01,1.56,4.61,1.95,1.67.39,3.44.67,5.14.35,1.84-.32,3.61-1.2,5.14-2.3,1.67-1.2,3.08-2.83,4.22-4.57,1.59-2.37,2.66-5.07,3.54-7.8,1.59-4.93,2.09-10.1,3.01-15.2,1.17-6.63,2.02-13.32,3.19-19.98,1.13-6.59,2.41-13.22,3.69-19.77,1.1-5.49,2.27-10.98,3.37-16.44h0Z"/><path id="path9049" class="cls-2" d="m131.49,29.51l20.02,40s10.17-2.69,15.38-3.54c8.15-1.31,16.37-2.2,24.63-2.48,9.99-.32,20.02.14,29.98.99,11.76,1.06,35.01,5.03,35.01,5.03l23-40h-148Z"/><path id="path9051" class="cls-6" d="m146.34,30.96l15.17,29.55c6.48-2.27,11.41-2.34,19.7-3.26l-3.9-26.29h-5.74l5.1,22.75c-4.75.32-8.5.28-12.61,1.91l-11.13-24.66h-6.59Z"/><path id="path9053" class="cls-6" d="m186.2,30.96l3.05,25.3c10.06-.92,18.14-1.49,28.2-.46l5.49-24.84h-6.45l-3.05,19.81c-7.9-.46-12.58.04-19.2.5l-2.23-20.3h-5.81Z"/><path id="path9055" class="cls-6" d="m232.76,30.96l-7.33,25.05c7.37.64,18.07,1.59,26.08,3.47l13.71-28.52h-6.34l-10.38,23.53c-4.46-1.2-12.01-1.74-16.48-2.37l6.24-21.15h-5.49Z"/><path id="path9057" class="cls-11" d="m204.52,64.48s-3.47,16.65-5.03,25.02c-1.81,9.96-2.91,20.09-5,30.01-1.38,6.73-1.59,14-5,19.98-2.3,4.11-5.42,8.79-9.99,9.99-4.43,1.17-10.2-.18-13.25-3.58-2.55-2.87-3.08-7.8-1.74-11.41,1.42-3.93,5.28-8.33,9.46-8.19,4.36.14,9.18,4.89,9.25,9.21.04,3.9-4.18,8.26-8.08,8.5-2.41.18-5.31-2.13-5.63-4.54-.39-2.8,2.16-6.84,5-6.8,1.7,0,4,1.98,2.94,4.15"/><path id="path9059" class="cls-11" d="m198.67,63.67c-2.94,8.96-3.69,18.07-5.24,27.18-1.59,9.04-2.02,18.25-4.15,27.18-1.7,7.09-3.61,14.63-6.8,20.76"/><path id="path9061" class="cls-11" d="m191.98,63.67c-2.23,7.8-2.91,16.05-4.15,24.09-1.2,7.87-1.63,15.87-3.15,23.67-1.1,5.67-1.91,11.34-4.32,16.69"/><path id="path9063" class="cls-11" d="m186.02,64.06c-1.98,7.44-2.59,15.34-3.69,23.03-1.06,7.51-1.45,15.2-2.8,22.64-.99,5.39-1.7,10.84-3.86,15.94"/><path id="path9065" class="cls-11" d="m180.21,64.7c-1.81,7.09-2.34,14.56-3.33,21.9-.96,7.12-1.31,14.39-2.52,21.47-.89,5.14-1.52,10.31-3.47,15.13"/><path id="path9067" class="cls-11" d="m174.51,65.23c-1.77,6.73-2.34,13.85-3.3,20.8-.99,6.8-1.31,13.71-2.55,20.44-.89,4.89-1.52,9.78-3.47,14.39"/><path id="path9069" class="cls-11" d="m168.13,66.11c-1.74,6.31-2.13,12.58-3.05,18.85-.92,6.34-1.28,12.76-2.48,19.03-.85,4.54-1.45,9.11-3.37,13.39"/><path id="path9071" class="cls-11" d="m161.96,67.04c-1.67,5.74-2.16,11.8-3.05,17.72-.89,5.78-1.2,11.66-2.3,17.4-.81,4.15-1.42,8.33-3.19,12.26"/><path id="path9073" class="cls-11" d="m154.98,68.98c-1.42,5.14-1.84,10.2-2.59,15.34-.78,5.17-1.03,10.45-1.98,15.59-.67,3.72-1.17,7.48-2.69,10.98"/><path id="path9075" class="cls-11" d="m174.93,126.7c-1.63-1.1-3.08-3.08-5.03-3.15-3.22-.11-6.41,2.06-8.5,4.46-2.23,2.59-3.58,6.27-3.33,9.67.14,2.44,1.35,5.07,3.3,6.56.96.71,2.02.53,3.58.67"/><path id="path9077" class="cls-11" d="m168.45,123.48c-1.35-1.49-2.37-2.66-3.97-2.76-3.22-.18-6.41,2.06-8.5,4.5-2.23,2.55-3.58,6.24-3.33,9.64.14,2.44,1.2,5.28,3.3,6.56.99.6,1.88.71,3.47-.07"/><path id="path9079" class="cls-11" d="m163.56,120.5c-1.63-1.1-3.08-3.08-5.03-3.15-3.22-.11-6.41,2.06-8.5,4.5-2.23,2.55-3.58,6.24-3.33,9.64.14,2.44,1.2,5.24,3.3,6.56.89.57,1.63.6,3.19.07"/><path id="path9081" class="cls-11" d="m156.83,117.14c-1.24-1.77-2.48-2.66-4.15-2.76-3.19-.14-6.41,2.06-8.5,4.5-2.2,2.55-3.54,6.24-3.33,9.64.18,2.44,1.31,5.14,3.3,6.56.92.64,1.63.85,3.37.46"/><path id="path9083" class="cls-11" d="m151.12,113.77c-.6-1.49-2.23-2.52-3.76-2.62-3.19-.21-6.41,2.06-8.47,4.46-2.23,2.59-3.58,6.27-3.37,9.67.18,2.44,1.31,5.1,3.33,6.52.74.57,1.17.25,2.73.39"/><path id="path9085" class="cls-11" d="m145.17,111.19c-.6-1.77-1.77-2.37-3.08-2.48-3.19-.32-6.41,2.02-8.5,4.46-2.23,2.59-3.44,6.24-3.33,9.64.04,1.81.64,3.83,1.98,5,1.06.96,2.55.99,4.11,1.1"/><path id="path9087" class="cls-11" d="m256.29,69.98c-.85,10.17-1.45,20.3-2.52,30.44-.57,5.53-1.06,11.09-2.02,16.58-1.31,7.26-1.63,14.99-5,21.54-2.06,3.97-5.35,7.3-8.86,9.99-3.22,2.48-6.94,4.5-10.91,5.46-4.11,1.03-8.54,1.1-12.72.25-4.15-.89-7.83-3.22-11.55-5.24-4.68-2.52-8.93-5.74-13.39-8.61"/><path id="path9089" class="cls-11" d="m202.46,83.37c3.93-1.13,7.76-2.76,11.8-3.4,2.62-.39,5.42-.92,7.97-.21,1.28.35,3.58,1.38,3.4,2.16-.11.39-.74.32-1.13.32-1.49.04-2.83-.92-4.32-1.13-2.16-.28-4.39-.21-6.59,0-3.76.39-7.41,1.52-11.13,2.27Z"/><path id="path9091" class="cls-11" d="m224.5,91.66c.46-.5,1.74-.92,1.35-1.45-.46-.74-3.3-2.55-5.21-3.3-1.81-.71-3.79-.99-5.78-1.03-2.06-.07-4.15.25-6.17.78-1.38.39-2.48.99-4.04,1.67"/><path id="path9093" class="cls-11" d="m200.3,92.94c3.33-.85,6.59-2.13,9.99-2.52,2.41-.28,4.89-.35,7.26.11,1.95.39,3.86,1.13,5.49,2.2,1.06.74,1.88,1.77,2.69,2.8-1.63.71-3.15,1.74-4.89,2.16-2.73.71-5.6.99-8.4.67-2.37-.25-4.64-1.17-6.8-2.16-1.91-.85-3.54-2.2-5.35-3.26Z"/><path id="path9095" class="cls-11" d="m208.7,91.45c.11,1.17-.32,2.48.25,3.51.67,1.24,2.06,2.06,3.4,2.52,1.03.32,2.27.35,3.3,0,.99-.39,1.84-1.17,2.37-2.06.74-1.24.6-2.8.92-4.22"/><path id="path9097" class="cls-6" d="m212.49,92.26c-.32.35-.18,1.03.07,1.42.28.46.81.81,1.31.81.53.04,1.06-.32,1.31-.74.32-.46.5-1.24.11-1.63-.67-.64-2.2-.5-2.8.14h0Z"/><path id="path9099" class="cls-6" d="m208.38,103.35c2.37-.46,5.7-.99,8.4-2.02,2.37-.92,4.64-2.69,6.7-3.65"/><path id="path9101" class="cls-11" d="m236.66,85.99c-.6,1.49-1.52,2.87-1.84,4.43-.57,3.19-.14,6.52.25,9.78.46,3.97,1.91,7.83,2.59,11.8.43,2.27,1.45,4.64.92,6.91-.25,1.13-1.1,2.06-1.91,2.83-1.03.96-2.44,1.45-3.65,2.16"/><path id="path9103" class="cls-11" d="m223.37,110.76c-1.56,1.7-3.83,2.94-4.68,5.1-.39,1.03-.46,2.27,0,3.3.57,1.17,1.7,2.2,2.98,2.48,1.03.25,2.13-.32,3.05-.78,1.2-.64,1.88-2.06,3.08-2.62.85-.43,1.91-.92,2.83-.57.28.11.64.5.57.78-.32,1.03-1.98.78-2.94,1.13-1.31.5-2.59.92-3.86,1.38"/><path id="path9105" class="cls-6" d="m215.82,131.95c1.59-.81,3.86-.64,5.78-.6,1.98.04,3.9.96,5.85.89,2.23-.11,4.29-1.59,6.56-1.59,1.63-.04,3.51.71,4.78,1.06-.07.57-.25,1.31,0,1.74-1.63-.6-3.97-1.49-5.99-1.24-1.91.25-3.3,2.44-5.24,2.48-2.23.07-3.97-2.48-6.24-2.59-2.16-.07-4.43,1.63-6.13,2.02.46-.64.67-1.7.64-2.16h0Z"/><path id="path9107" class="cls-11" d="m219.76,138.89c1.59.67,3.08,1.7,4.78,2.02,1.24.25,2.59.21,3.86-.04.85-.14,1.63-.57,2.44-.89.74-.32,1.45-.71,2.2-1.03"/><path id="path9109" class="cls-11" d="m231.27,143.89c-1.17-.5-2.27-.92-3.44-.92-.99,0-1.91.39-2.83.81"/><path id="path9111" class="cls-6" d="m237.79,83.05c1.56-1.84,5-2.3,7.69-2.52,1.98-.14,3.93.39,5.85.96,1.35.39,2.66,1.13,3.93,1.74-2.16-.43-4.39-1.2-6.63-1.28-1.95-.04-3.9.35-5.81.78-1.35.32-2.59.96-3.79,1.59-.5.28-1.63-.81-1.24-1.28Z"/><path id="path9113" class="cls-11" d="m237.22,89.85c1.56-.78,2.98-1.84,4.64-2.27,2.34-.67,4.89-.99,7.26-.57,1.59.28,2.94,1.35,4.43,1.98"/><path id="path9115" class="cls-11" d="m236.2,93.15c1.7-.67,3.79-1.2,5.7-1.45,2.23-.28,4.54-.35,6.77-.07,1.31.18,2.69.43,3.86,1.1.71.43,1.17,1.2,1.77,1.81l-.35,2.73c-1.17.43-2.34,1.03-3.58,1.24-1.67.32-3.44.32-5.14.21-1.84-.11-3.72-.21-5.46-.89-1.31-.53-2.48-1.42-3.58-2.34-.35-.32-.64-.67-.96-1.03.32-.43.46-1.1.96-1.31h0Z"/><path id="path9117" class="cls-11" d="m240.59,92.41c.07,1.17-.32,2.48.25,3.51.67,1.24,2.06,2.09,3.4,2.52,1.03.35,2.27.39,3.3,0,.96-.35,1.84-1.13,2.37-2.06.74-1.2.6-2.8.92-4.18"/><path id="path9119" class="cls-6" d="m244.06,93.26c-.32.35-.18.99.07,1.42.28.43.81.78,1.31.81.53,0,1.06-.32,1.31-.74.32-.46.5-1.28.11-1.67-.67-.6-2.16-.5-2.8.18h0Z"/><path id="path9121" class="cls-11" d="m237.01,98.57c1.28,1.38,2.3,3.01,3.79,4.18,1.2.92,2.66,1.42,4,2.13"/><path id="path9123" class="cls-4" d="m253.06,108.1c.67,2.91,1.38,4.85,2.62,7.02,1.28,2.13,2.73,4.25,4.78,5.63,1.63,1.06,3.61,1.91,5.56,1.74,1.77-.14,3.65-.99,4.75-2.41s1.28-3.47,1.17-5.28c-.11-1.63-.57-3.4-1.67-4.64-.96-1.13-2.41-1.91-3.86-2.06-1.03-.11-2.2.07-2.94.78-.57.53-.78,1.45-.78,2.23.04.85-.07,1.74.99,2.34-.78-.32-1.31-1.31-1.88-2.06-.74-1.06-1.38-2.27-1.91-3.51-.64-1.38-1.06-2.87-1.49-4.36-.53-2.02-.92-4.11-1.35-6.13-.71-3.22-1.52-7.09-2.06-9.64-.57,5.53-1.35,14.78-1.95,20.34h0Z"/><path id="path9125" class="cls-4" d="m250.33,128.09c.64,2.91,2.59,8.57,4.85,12.37,1.28,2.13,2.8,4.18,4.78,5.63,1.59,1.17,3.47,2.48,5.46,2.34,1.88-.14,3.76-1.45,4.85-3.01,1.03-1.45,1.28-3.47,1.17-5.24-.11-1.67-.57-3.44-1.67-4.68-.96-1.1-2.41-1.88-3.9-2.06-.99-.11-2.16.11-2.91.78-.57.53-.81,1.45-.78,2.23.07.81.04,1.56,1.06,2.16-.78-.32-1.38-1.13-1.95-1.84-.81-1.06-1.38-2.3-1.95-3.51-.6-1.42-.99-2.94-1.45-4.39-.53-1.74-1.03-3.51-1.56-5.24-1.17-4.11-2.98-9.71-3.51-12.26-.57,5.53-1.95,11.16-2.52,16.72h0Z"/><path id="path9127" class="cls-4" d="m248.1,135.92s.92,2.87,1.56,4.22c.74,1.52,2.62,4.36,2.62,4.36,0,0,3.22,1.45,4.89,2.06,1.56.57,4.75,1.45,4.75,1.45,0,0-3.69-2.87-5.14-4.68-1.28-1.56-2.16-3.4-3.05-5.24-.81-1.77-1.38-3.69-2.02-5.56-.57-1.67-1.56-5.07-1.56-5.07,0,0-.57,3.33-.99,5-.28,1.17-1.06,3.47-1.06,3.47h0Z"/><path id="path9129" class="cls-4" d="m252.28,144.49l-6.8-3.9,2.62-4.75,4.18,8.65Z"/><path id="path9131" class="cls-4" d="m181.91,148.71l24.91,20.69,28.06-18.46-.67,8.96-27.04,18.6-35.11-28.98c2.83.96,6.59.81,9.85-.81Z"/><path id="path9133" class="cls-11" d="m111.76,158.03l9.35,10.59-9.18,9.71"/><path id="path9135" class="cls-11" d="m112.11,164.44l3.37,3.9-3.37,3.51"/><path id="path9137" class="cls-6" d="m125.01,146.02l-9.35,9.71,9,9.89,9.11-9.89-8.75-9.71Zm-.18,4.18l5.35,5-5.35,5.88-5.17-5.17,5.17-5.7Z"/><path id="path9139" class="cls-4" d="m329.49,51.52l-37.98,36h37.98v-36Z"/><path id="path9141" class="cls-2" d="m329.49,59.49l-23,22h23v-22Z"/><path id="path9143" class="cls-11" d="m111.19,183.61l9.35,10.63-9.18,9.71"/><path id="path9145" class="cls-11" d="m111.54,190.06l3.37,3.86-3.37,3.54"/><path id="path9147" class="cls-11" d="m136.67,159.13l-9.18,9.85,9.18,9.71"/><path id="path9149" class="cls-11" d="m136.49,164.8l-3.37,3.9,3.37,3.51"/><path id="path9151" class="cls-11" d="m135.96,203.17l-8.61-9.28,9.18-9.71"/><path id="path9153" class="cls-11" d="m136.35,198.07l-3.33-3.86,3.33-3.54"/><path id="path9155" class="cls-6" d="m124.02,171.78l-9.35,9.71,9,9.89,9.5-10.06-9.14-9.53Zm-.18,4.18l5.35,5-5.35,5.88-5.17-5.17,5.17-5.7Z"/><path id="path9157" class="cls-6" d="m124.41,197.15l-9.32,9.71,9,9.43,9.67-9.21-9.35-9.92Zm-.14,4.18l5.35,5-5.35,5.88-5.21-5.14,5.21-5.74Z"/><path id="path9159" class="cls-11" d="m136.88,151.79l-8.4-9.07,7.83-8.4"/><path id="path9161" class="cls-11" d="m136.74,146.51l-3.37-3.51,2.76-3.33"/><path id="path9163" class="cls-11" d="m112.15,153.7l9.96-10.42-5.74-6.06"/><path id="path9165" class="cls-11" d="m112.5,147.29l3.37-3.9-3.37-3.54"/><path id="path9167" class="cls-2" d="m111.26,209.8l3.86,4.61"/><path id="path9169" class="cls-2" d="m136.98,209.58l-7.09,7.3"/><path id="path9171" class="cls-2" d="m111.65,140.28l-.57,73.88"/><path id="path9173" class="cls-2" d="m137.2,131.24l-.21,88.41"/><path id="path9175" class="cls-6" d="m120.69,135.67l4.39,4.39,8.47-8.43-1.35-2.3-11.52,6.34Z"/><path id="path9177" class="cls-4" d="m306.5,87.52v70.97l6.02,2.02v-72.99h-6.02Z"/><path id="path9179" class="cls-4" d="m312.52,367.51v-202h-6.02v203.99l23,20.02v-7.02l-16.97-14.99Z"/><path id="path9181" class="cls-3" d="m320.99,89.5c-1.17,0-2.48,1.31-2.48,2.52s1.31,2.48,2.48,2.48,2.52-1.31,2.52-2.48-1.31-2.52-2.52-2.52Z"/><path id="path9183" class="cls-3" d="m320.99,103.5c-1.17,0-2.48,1.31-2.48,2.52s1.31,2.48,2.48,2.48,2.52-1.31,2.52-2.48-1.31-2.52-2.52-2.52Z"/><path id="path9185" class="cls-3" d="m324,96.52c-1.17,0-2.48,1.31-2.48,2.48s1.31,2.52,2.48,2.52,2.52-1.35,2.52-2.52-1.35-2.48-2.52-2.48Z"/><path id="path9187" class="cls-3" d="m318.01,96.52c-1.17,0-2.52,1.31-2.52,2.48s1.35,2.52,2.52,2.52,2.48-1.35,2.48-2.52-1.31-2.48-2.48-2.48Z"/><path id="path9189" class="cls-3" d="m321.17,138.26c-1.2,0-2.52,1.31-2.52,2.52s1.31,2.48,2.52,2.48,2.48-1.31,2.48-2.48-1.31-2.52-2.48-2.52Z"/><path id="path9191" class="cls-3" d="m321.17,152.25c-1.2,0-2.52,1.35-2.52,2.52s1.31,2.48,2.52,2.48,2.48-1.31,2.48-2.48-1.31-2.52-2.48-2.52Z"/><path id="path9193" class="cls-3" d="m324.14,145.27c-1.17,0-2.48,1.31-2.48,2.48s1.31,2.52,2.48,2.52,2.52-1.31,2.52-2.52-1.31-2.48-2.52-2.48Z"/><path id="path9195" class="cls-3" d="m318.15,145.27c-1.17,0-2.52,1.31-2.52,2.48s1.35,2.52,2.52,2.52,2.52-1.31,2.52-2.52-1.35-2.48-2.52-2.48Z"/><path id="path9197" class="cls-3" d="m320.95,187.05c-1.17,0-2.48,1.31-2.48,2.48s1.31,2.52,2.48,2.52,2.52-1.31,2.52-2.52-1.35-2.48-2.52-2.48Z"/><path id="path9199" class="cls-3" d="m320.95,201.04c-1.17,0-2.48,1.31-2.48,2.48s1.31,2.52,2.48,2.52,2.52-1.31,2.52-2.52-1.35-2.48-2.52-2.48Z"/><path id="path9201" class="cls-3" d="m323.96,194.03c-1.17,0-2.52,1.35-2.52,2.52s1.35,2.48,2.52,2.48,2.48-1.31,2.48-2.48-1.31-2.52-2.48-2.52Z"/><path id="path9203" class="cls-3" d="m317.98,194.03c-1.2,0-2.52,1.35-2.52,2.52s1.31,2.48,2.52,2.48,2.48-1.31,2.48-2.48-1.31-2.52-2.48-2.52Z"/><path id="path9205" class="cls-3" d="m320.78,236.58c-1.17,0-2.52,1.31-2.52,2.48s1.35,2.52,2.52,2.52,2.48-1.31,2.48-2.52-1.31-2.48-2.48-2.48Z"/><path id="path9207" class="cls-3" d="m320.78,250.58c-1.17,0-2.52,1.31-2.52,2.52s1.35,2.48,2.52,2.48,2.48-1.31,2.48-2.48-1.31-2.52-2.48-2.52Z"/><path id="path9209" class="cls-3" d="m323.75,243.56c-1.17,0-2.48,1.35-2.48,2.52s1.31,2.52,2.48,2.52,2.52-1.35,2.52-2.52-1.31-2.52-2.52-2.52Z"/><path id="path9211" class="cls-3" d="m317.76,243.56c-1.17,0-2.48,1.35-2.48,2.52s1.31,2.52,2.48,2.52,2.52-1.35,2.52-2.52-1.35-2.52-2.52-2.52Z"/><path id="path9213" class="cls-3" d="m320.78,284.98c-1.17,0-2.52,1.31-2.52,2.48s1.35,2.52,2.52,2.52,2.48-1.35,2.48-2.52-1.31-2.48-2.48-2.48Z"/><path id="path9215" class="cls-3" d="m320.78,298.98c-1.17,0-2.52,1.31-2.52,2.48s1.35,2.52,2.52,2.52,2.48-1.31,2.48-2.52-1.31-2.48-2.48-2.48Z"/><path id="path9217" class="cls-3" d="m323.75,291.96c-1.17,0-2.48,1.31-2.48,2.52s1.31,2.48,2.48,2.48,2.52-1.31,2.52-2.48-1.31-2.52-2.52-2.52Z"/><path id="path9219" class="cls-3" d="m317.76,291.96c-1.17,0-2.48,1.31-2.48,2.52s1.31,2.48,2.48,2.48,2.52-1.31,2.52-2.48-1.35-2.52-2.52-2.52Z"/><path id="path9221" class="cls-3" d="m320.21,333.56c-1.2,0-2.52,1.31-2.52,2.48s1.31,2.52,2.52,2.52,2.48-1.31,2.48-2.52-1.31-2.48-2.48-2.48Z"/><path id="path9223" class="cls-3" d="m320.21,347.56c-1.2,0-2.52,1.31-2.52,2.48s1.31,2.52,2.52,2.52,2.48-1.31,2.48-2.52-1.31-2.48-2.48-2.48Z"/><path id="path9225" class="cls-3" d="m323.19,340.54c-1.17,0-2.48,1.35-2.48,2.52s1.31,2.48,2.48,2.48,2.52-1.31,2.52-2.48-1.35-2.52-2.52-2.52Z"/><path id="path9227" class="cls-3" d="m317.2,340.54c-1.17,0-2.52,1.35-2.52,2.52s1.35,2.48,2.52,2.48,2.48-1.31,2.48-2.48-1.31-2.52-2.48-2.52Z"/><path id="path9229" class="cls-3" d="m314.5,126.49v-5l13-12.01v5.03l-13,11.98Z"/><path id="path9231" class="cls-3" d="m314.5,134.5v-5l13-12.01v5l-13,12.01Z"/><path id="path9233" class="cls-3" d="m314.5,176.49v-5l13-11.98v5l-13,11.98Z"/><path id="path9235" class="cls-3" d="m314.5,184.5v-5l13-12.01v5l-13,12.01Z"/><path id="path9237" class="cls-3" d="m314.5,226.48v-5l13-11.98v5l-13,11.98Z"/><path id="path9239" class="cls-3" d="m314.5,234.49v-5l13-12.01v5.03l-13,11.98Z"/><path id="path9241" class="cls-3" d="m314.5,274.5v-5l13-12.01v5l-13,12.01Z"/><path id="path9243" class="cls-3" d="m314.5,282.5v-5l13-12.01v5l-13,12.01Z"/><path id="path9245" class="cls-3" d="m314.5,321.52v-5.03l13-11.98v5l-13,12.01Z"/><path id="path9247" class="cls-3" d="m314.5,329.49v-5l13-11.98v5l-13,11.98Z"/><path id="path9249" class="cls-3" d="m314.65,367.76l-.14-1.24,13-12.01v5l-9.99,9.89-2.87-1.63Z"/><path id="path9251" class="cls-3" d="m321.24,373l-2.37-1.98,8.65-8.5v5l-6.27,5.49Z"/><path id="path9253" class="cls-6" d="m247,170.46l-9.35,9.74,9,9.89,9.67-9.71-9.32-9.92Zm-.18,4.22l5.35,5-5.35,5.85-5.17-5.14,5.17-5.7Z"/><path id="path9255" class="cls-6" d="m250.72,142.97l-10.52,8.47,7.69,10.95,10.81-8.4-7.97-11.02Zm-.67,4.15l4.64,5.63-6.06,5.14-4.46-5.78,5.88-5Z"/><path id="path9257" class="cls-6" d="m246.65,196.33l-8.26,9.92,10.03,8.22,8.36-9.92-10.13-8.22Zm.28,3.9l5.85,4.07-4.68,5.95-5.7-4.25,4.54-5.78Z"/><path id="path9259" class="cls-6" d="m249.09,219.72l-7.83,10.98,10.35,8.5,8.19-11.02-10.7-8.47Zm.46,4.18l6.02,4.15-4.43,6.59-5.88-4.32,4.29-6.41Z"/><path id="path9261" class="cls-6" d="m253.28,245.51l-6.02,12.05,11.52,6.8,6.38-12.15-11.87-6.7Zm1.1,4.04l6.59,3.19-3.37,7.19-6.48-3.37,3.26-7.02Z"/><path id="path9263" class="cls-6" d="m260.54,270.92l-4.89,12.58,12.12,5.67,5.21-12.69-12.44-5.56Zm1.49,3.93l6.84,2.55-2.66,7.48-6.77-2.73,2.59-7.3Z"/><path id="path9265" class="cls-6" d="m271.28,296.57l-2.41,13.25,12.97,3.3,2.69-13.43-13.25-3.12Zm2.2,3.58l7.23,1.2-1.24,7.83-7.16-1.42,1.17-7.62Z"/><path id="path9267" class="cls-6" d="m284.74,320.28l-1.28,13.43,13.22,2.16,1.52-13.64-13.46-1.95Zm2.48,3.4l7.3.57-.53,7.94-7.26-.81.5-7.69Z"/><path id="path9269" class="cls-11" d="m260.75,158.28l-10.2,8.19,8.08,9.99"/><path id="path9271" class="cls-11" d="m259.97,163.48l-3.76,3.3,2.94,3.61"/><path id="path9273" class="cls-11" d="m261.99,148.99s-1.45,12.33-1.98,18.5c-.74,8.57-1.84,17.15-1.77,25.76.11,7.55,1.06,15.02,2.02,22.5,1.03,7.97,2.2,15.91,4,23.74,1.98,8.72,4.5,17.33,7.48,25.76,2.73,7.58,5.95,15.02,9.53,22.25,3.83,7.8,8.08,15.41,12.72,22.75,3.54,5.6,11.52,16.26,11.52,16.26"/><path id="path9275" class="cls-11" d="m234.53,175.64l10.63-11.34-9.5-11.41"/><path id="path9277" class="cls-11" d="m234.96,169.12l4.54-4.75-4.18-5.17"/><path id="path9279" class="cls-11" d="m258.02,184.07l-8.54,8.22,7.9,8.68"/><path id="path9281" class="cls-11" d="m257.7,188.93l-3.15,3.26,2.91,3.15"/><path id="path9283" class="cls-11" d="m233.57,205.54l10.24-11.69-9.85-11.09"/><path id="path9285" class="cls-11" d="m233.79,199.02l4.36-4.93-4.36-5"/><path id="path9287" class="cls-11" d="m236.34,230.84l8.96-12.69-10.91-10.03"/><path id="path9289" class="cls-11" d="m235.88,224.32l3.83-5.31-4.85-4.57"/><path id="path9291" class="cls-11" d="m241.09,256.18l7.44-13.64-12.05-8.68"/><path id="path9293" class="cls-11" d="m239.88,249.76l3.19-5.74-5.35-3.97"/><path id="path9295" class="cls-11" d="m251.5,282.26l5.31-14.63-13.18-6.77"/><path id="path9297" class="cls-11" d="m249.34,276.09l2.3-6.17-5.88-3.12"/><path id="path9299" class="cls-11" d="m264.05,308.72l3.54-15.17-13.93-5.14"/><path id="path9301" class="cls-11" d="m261.18,302.84l1.52-6.38-6.2-2.37"/><path id="path9303" class="cls-12" d="m278.82,332.85l2.02-15.41-13.22-3.9"/><path id="path9305" class="cls-12" d="m275.67,327.26l.92-6.48-5.92-1.84"/><path id="path9307" class="cls-12" d="m296.72,356.2l-.74-16.05-13.68-1.49"/><path id="path9309" class="cls-12" d="m292.64,350.57l-.25-6.48-6.13-.74"/><path id="path9311" class="cls-11" d="m260.26,303.23c4,6.7,7.8,13.46,12.01,20.02,5.39,8.43,10.88,16.8,16.97,24.73,5.17,6.73,11.02,12.86,16.51,19.28"/><path id="path9313" class="cls-11" d="m300.26,359.75l5.74.74"/><path id="path9315" class="cls-6" d="m305.75,356.49l-5.49-1.24.5-14.49,5,1.24v14.49Z"/><path id="path9317" class="cls-11" d="m301.75,322.76l-.99,13,5,1.24"/><path id="path9319" class="cls-11" d="m259.19,207.31l-7.48,9.28,8.96,7.58"/><path id="path9321" class="cls-11" d="m259.48,212.2l-2.73,3.65,3.26,2.76"/><path id="path9323" class="cls-11" d="m261.5,231.94l-5.74,10.38,10.1,5.95"/><path id="path9325" class="cls-11" d="m262.63,236.69l-2.06,4.04,3.69,2.16"/><path id="path9327" class="cls-11" d="m268.02,256.28l-4.85,10.84,10.56,5.1"/><path id="path9329" class="cls-11" d="m269.54,260.96l-1.7,4.18,3.86,1.84"/><path id="path9331" class="cls-11" d="m276.2,280.73l-2.91,11.52,11.3,3.19"/><path id="path9333" class="cls-11" d="m278.5,285.06l-.96,4.43,4.15,1.13"/><path id="path9335" class="cls-11" d="m288.18,303.76l-1.56,11.8,11.59,1.84"/><path id="path9337" class="cls-11" d="m290.98,307.8l-.43,4.5,4.22.67"/><path id="path9339" class="cls-6" d="m280.49,198c3.19,8.75,5.81,17.72,9.53,26.26,2.34,5.39,4.61,10.91,7.97,15.73,2.23,3.19,5.35,5.67,8.01,8.5l-.25-14-4.5.99,2.52-6.24-5.78-.25,3.51-4.25-5.24-.5,3.26-4.5-5.78-.25,4-5-6.48-.5,3.76-5-5.78-.53,3.51-4.75-5-.74,3.26-5.49-7.02-.25-3.51.74Z"/><path id="path9341" class="cls-8" d="m291.51,163.73c2.34-2.52,6.2-3.15,9.5-4.18,1.77-.53,3.65-1.1,5.49-.99,2.09.11,4.29.53,6.02,1.74.92.67,1.91,1.63,1.98,2.76.07.85-.6,1.7-1.24,2.23-.6.5-1.49.57-2.27.74-1.24.35-2.62.14-3.76.74-1.03.57-1.98,1.45-2.41,2.55-.53,1.24-.35,2.76-.11,4.11.28,1.52,1.1,3.12,1.77,4.29l-.25,14.28c-2.83.32-5.81,1.24-8.75.99-1.74-.14-3.69-.35-5-1.49-2.37-2.13-3.01-5.67-3.76-8.75-.71-3.19-.96-6.56-.5-9.74.46-3.26,1.03-6.87,3.26-9.28h0Z"/><path id="path9343" class="cls-8" d="m260.26,207c4.5-1.84,8.08-3.37,12.01-5.24,3.37-1.63,6.7-3.44,9.99-5.24,3.12-1.7,6.73-3.58,9.25-5.24"/><path id="path9345" class="cls-8" d="m261.74,148.74c5.42,2.59,10.91,5.07,16.26,7.76,4.29,2.16,8.5,4.5,12.76,6.73"/><path id="path9347" class="cls-8" d="m286.02,161s-2.3,7.23-2.76,10.98c-.46,3.83-.6,7.72,0,11.52.57,3.37,3.26,9.74,3.26,9.74l-12.76,7.26,5.49-9-5.99-6.02,6.48-7.23-5.99-8.26,5.24-4.25-3.26-9.99,10.28,5.24Z"/><path id="path9349" class="cls-11" d="m263.52,150.76l7.48,12.22-6.48,6.27,6.24,8.5-6.48,7.97,5.74,5.78-6.98,13.5"/><path id="path9351" class="cls-11" d="m261.99,157.25l2.52,4-3.76,3.01"/><path id="path9353" class="cls-11" d="m260.01,174.26l3.01,3.76-3.26,4.25"/><path id="path9355" class="cls-11" d="m259.26,188.75l3.22,4.5-3.22,5"/><path id="path9357" class="cls-4" d="m266.24,213.23l11.27-5.49s3.4,11.44,5.49,17.01c1.77,4.75,3.47,9.6,5.99,14,2.94,5.07,10.52,14,10.52,14v52.26s-9.89-15.7-14-23.99c-4.25-8.57-8.04-17.43-11.02-26.5-2.48-7.58-4.25-15.41-5.74-23.28-1.13-5.92-2.52-18-2.52-18Z"/><path id="path9359" class="cls-4" d="m264.19,56.02s.67,7.3,2.3,10.49c1.59,3.08,4.18,5.74,7.02,7.76,2.44,1.74,5.31,2.91,8.26,3.47,2.44.5,5,.25,7.48,0,1.7-.14,5-.99,5-.99,0,0-3.19-1.03-4.22-2.23-2.23-2.55-2.55-6.27-3.51-9.5s-1.17-6.63-2.27-9.78c-1.1-3.19-2.09-6.63-4.25-9.25-1.17-1.42-2.76-2.55-4.5-3.22-1.03-.43-3.3-.53-3.3-.53l-8.01,13.78Z"/><path id="path9361" class="cls-11" d="m269.01,48.96c1.2,3.97,2.23,7.8,4.25,11.27,1.7,3.01,4.11,5.53,6.48,8.01,1.56,1.63,3.33,3.01,5,4.5"/><path id="path9363" class="cls-11" d="m277.62,52.12c-1.77.96-5.7.11-7.65-.28-1.35,2.66-2.44,4.71-2.34,7.19"/><path id="path9365" class="cls-11" d="m279.21,56.65c-1.77.96-5.1.67-7.05.28-1.35,2.66-2.44,5.24-2.34,7.72"/><path id="path9367" class="cls-11" d="m281.48,62.82c-1.81.96-4.36.25-6.31-.14-1.35,2.66-1.06,5.07-.96,7.55"/><path id="path9369" class="cls-11" d="m284.07,67.32c-1.77.99-2.91.07-4.85-.32-1.35,2.66-.64,3.69-.53,6.17"/><path id="path9371" class="cls-11" d="m269.5,47.87c1.77.28,3.54.43,5.31-.35"/><path id="path9373" class="cls-3" d="m149.42,141.09c-.85.32-1.95.89-2.06,1.81-.11.89.89,1.67,1.63,2.16.43.28,1.03.25,1.52.43.53.18,1.24.25,1.59.74s.11,1.24.25,1.84c.43,1.49.6,3.26,1.74,4.29.99.96,2.52,1.13,3.86,1.28,1.17.11,2.34-.28,3.47-.43.92-.11,1.81-.39,2.73-.32.46.07.96.11,1.31.39.32.28.43.74.5,1.13.21.85.07,1.74.11,2.62.04,1.13-.18,2.3.11,3.37.35,1.28.89,2.66,1.91,3.47,1.1.89,2.62,1.1,4,1.17,1.17.04,2.3-.43,3.47-.64.89-.18,1.74-.53,2.66-.5.39,0,.85,0,1.13.28.18.14.18.46.21.67.07.74-.14,1.45-.21,2.2-.07.99-.43,2.02-.25,3.01.18,1.2.53,2.55,1.38,3.44.96.96,2.44,1.38,3.79,1.63,1.17.18,2.37-.25,3.54-.28,1.45,0,3.22-.74,4.36.18.89.71.57,2.16.78,3.26.21,1.03.11,2.09.5,3.01.5,1.13,1.13,2.34,2.16,2.98.85.53,1.98.6,2.98.53.74-.04,1.45-.46,2.2-.67.6-.18,1.28-.78,1.88-.53.18.07.21.32.25.5.28.6.39,1.24.6,1.88.28.78.39,1.74.96,2.37.78.92,1.88,1.81,3.08,1.81,1.17-.04,2.27-.92,3.01-1.81.53-.67.57-1.59.81-2.37.21-.6.32-1.2.53-1.81.07-.11.07-.28.18-.32.14-.11.35-.04.53,0,.6.14,1.13.5,1.7.71.81.28,1.56.78,2.41.85,1.13.07,2.41.04,3.3-.64,1.03-.74,1.52-2.13,1.81-3.37.25-1.03-.07-2.06-.11-3.12-.04-.71-.21-1.45-.11-2.2.04-.18,0-.39.14-.5.28-.25.74-.14,1.1-.14.81.04,1.59.28,2.37.5,1.06.35,2.02,1.2,3.12,1.28.96.04,2.34,0,2.76-.85.46-.85-.28-2.02-.92-2.73-.96-.96-2.48-1.1-3.76-1.49-1.1-.32-2.2-.71-3.33-.71-1.24.04-2.62.11-3.61.85-1.03.78-1.56,2.13-1.84,3.37-.25.99.07,2.06.07,3.08.04.78.64,1.81.07,2.34-.46.43-1.24-.04-1.84-.18-.81-.21-1.52-.78-2.34-.92-1.06-.14-2.23-.25-3.22.21-.96.5-1.59,1.49-2.16,2.41-.39.67-.04,2.16-.81,2.16s-.43-1.59-.81-2.3c-.57-.96-1.17-2.06-2.2-2.44-1.56-.64-3.37.43-5.07.39-.64,0-1.45.25-1.95-.18-.57-.53-.21-1.52-.43-2.27-.6-2.09-.6-4.71-2.3-6.06-1.95-1.56-4.89-.96-7.37-1.03-.92,0-1.81.35-2.69.25-.46-.07-.99-.14-1.28-.5-.18-.18-.21-.46-.25-.74-.07-.74.18-1.49.25-2.23.07-1.03.39-2.06.25-3.05-.21-1.2-.6-2.55-1.56-3.4-1.03-.92-2.55-1.2-3.93-1.31-1.17-.07-2.34.43-3.47.64-.92.14-1.81.5-2.73.5-.43,0-.92,0-1.24-.25s-.43-.71-.53-1.1c-.18-.85-.04-1.7-.07-2.55-.04-1.13.14-2.3-.14-3.4-.32-1.28-.81-2.66-1.84-3.51-1.03-.89-2.48-1.17-3.83-1.31-1.17-.14-2.34.21-3.51.35-.92.11-1.84.39-2.76.35-.46-.04-1.06,0-1.35-.35-.35-.35-.14-.99-.25-1.45-.32-1.45-.35-3.12-1.31-4.29-.78-.99-2.16-1.42-3.33-1.88-.64-.25-1.28-.35-1.95-.5-.11-.04-.25-.07-.35-.07h0Z"/><path id="path9375" class="cls-3" d="m149.53,152.64c-.81.04-1.59.6-1.88,1.38-.25.78.04,1.74.71,2.23l58.15,45.89c.67.5,1.67.53,2.37.04l22.75-15.94c.92-.6,1.2-1.95.57-2.83-.6-.89-1.98-1.1-2.83-.46l-21.58,15.13-56.98-44.96c-.35-.28-.81-.46-1.28-.46h0Z"/><path id="path9377" d="m206.57,213.23v63.89l9.74-6.8.32-63.32-10.06,6.24Z"/><path id="path9379" class="cls-1" d="m148,167.38l21.01,16.87.28,54.43-21.3-14.49v-56.8Z"/><path id="path9381" class="cls-10" d="m169.3,183.33l.6,56.23"/><path id="path9383" class="cls-10" d="m175.22,187.54l.28,57.33"/><path id="path9385" class="cls-10" d="m202.15,210.26l.28,68.35"/><path id="path9387" class="cls-11" d="m239.99,254.94l-36.39,24.24"/><path id="path9389" class="cls-10" d="m202.11,269.25l-26.33-26.86,26.5-25.65-26.79-27.5"/><path id="path9391" class="cls-10" d="m191.37,200.69l-16.05,16.41,26.79,27.92-15.17,14.17"/><path id="path9393" class="cls-10" d="m188.54,210.93l-4.93,5.28,4.93,5.81,5.1-5.28-5.1-5.81Z"/><path id="path9395" class="cls-10" d="m188.4,238.6l-4.29,4.71,4.85,4.93,4.32-4.61-4.89-5.03Z"/><path id="path9397" class="cls-9" d="m176.39,197.18l4.89,5.35-5.14,5.42.25-10.77Z"/><path id="path9399" class="cls-9" d="m201.58,225.21l-5.24,5.46,5.31,5.17-.07-10.63Z"/><path id="path9401" class="cls-9" d="m176.1,225.17l4.82,5.24-4.93,4.54.11-9.78Z"/><path id="path9403" class="cls-9" d="m201.72,252.7l-4.61,4.75,4.85,4.75-.25-9.5Z"/><path id="path9405" class="cls-11" d="m132.45,129.01c-7.09,3.54-14.17,7.05-21.22,10.63-5.07,2.55-10.2,5.03-15.2,7.76-7.19,3.93-14.35,7.94-21.22,12.4-6.45,4.18-12.47,8.93-18.74,13.43,4.15,5.53,8.19,11.13,12.4,16.62,3.58,4.64,7.48,9.07,10.95,13.78,3.22,4.36,6.13,8.96,9.18,13.43,2.48-.71,4.89-1.74,7.44-2.13,5-.74,10.13-.67,15.2-.35,4.04.25,8.04.99,12.01,1.77,4.29.85,8.61,1.74,12.76,3.19,4.25,1.49,8.4,3.47,12.37,5.67,4.54,2.48,8.86,5.42,13.07,8.47,4.54,3.3,9.11,6.63,13.07,10.59,3.86,3.86,6.94,8.43,10.28,12.76,3.61,4.75,6.84,9.81,10.59,14.49,2.55,3.19,5.17,6.34,8.11,9.18,4.07,3.9,8.33,7.62,13.11,10.59,4.39,2.8,9.25,4.89,14.14,6.73,4.68,1.81,9.5,3.54,14.49,4.25,4.89.71,9.89,0,14.85,0-2.73-5.56-5.63-10.98-8.15-16.62-3.12-7.09-6.06-14.24-8.47-21.58-2.27-6.84-4.18-13.82-5.67-20.87-1.49-7.23-2.41-14.56-3.19-21.9-.57-5.53-.89-11.09-1.06-16.62-.18-6.13-.04-12.26,0-18.39.07-5.78.14-11.55.35-17.33.25-6.02.71-12.01,1.06-18.04"/><path id="path9407" class="cls-3" d="m189.43,355.07l-37.88-30.76.28-62.72,3.86-2.66,6.8,6.8,10.35,13.89,8.57,12.12,3.86,4.15,4.71,3.86-.57,55.31Z"/><path id="path9409" class="cls-3" d="m137.34,246.22l-24.84,18.04-2.37-4.75,21.3-16.87,5.92,3.58Z"/><path id="path9411" class="cls-3" d="m155.69,259.51l-36.11,23.67-2.06-4.71,33.73-22.22,4.43,3.26Z"/><path id="path9413" class="cls-1" d="m142.37,331.12l.32-63.04-23.99,15.7,3.86,17.75,2.66,17.15.6,15.98-.32,8.57,16.87-12.12Z"/><path id="path9415" d="m151.83,256.25l-34.3,22.78s-2.41-6.09-3.54-9.18c-.71-1.84-2.09-5.6-2.09-5.6l25.44-18.35s6.48,2.13,9.18,4.15c2.2,1.63,5.31,6.2,5.31,6.2h0Z"/><path id="path9417" d="m211.5,371.76l-59.24-47.27-26.75,17.01.25,14-.74,13.25-.5,10.49,27.25-18.5,35.01,28.77,4.5,2.23,2.48,2.27,4,.5,2.27,3.26,2.98-.78,3.01,3.76h3.01l2.48,2.27v-31.25Z"/><path id="path9419" d="m221.49,408.01l.25-89.01-5.99-2.23-5-2.76.25,89.26,3.26.5,3.22,3.26,2.02-.78,1.98,1.77Z"/><path id="path9421" class="cls-2" d="m99.5,331.26l-20.23,9.99s-3.9-11.06-6.02-16.51-4.04-11.02-6.73-16.23c-1.81-3.51-3.83-6.91-6.27-10.03-2.34-3.01-7.97-8.22-7.97-8.22l.25-78.52s9.89,11.98,14,18.5c3.58,5.7,6.31,11.94,9.25,18,3.83,7.94,7.9,15.77,10.98,24.02,2.09,5.53,3.54,11.27,5,16.97,1.56,5.95,2.91,11.98,4,18,.81,4.39,1.31,8.86,2.02,13.25.57,3.61,1.74,10.77,1.74,10.77Z"/><path id="path9423" class="cls-3" d="m95.74,390.01l-27.25-14.74,2.76-10.28-.99-9.99-3.01-6.73,8.01-6.02,13.75-5.99,10.24-4.25.99,9.99v12.01l-.74,14-2.23,15.73-1.52,6.27Z"/><path id="path9425" class="cls-5" d="m133.02,242.75l-22.75,17.01s-3.97-8.68-6.02-13c-1.63-3.44-5-10.24-5-10.24,0,0,11.09-.71,16.51.25,5.99,1.06,17.26,5.99,17.26,5.99h0Z"/><path id="path9427" d="m29.52,156.75l16.87,14.63-.25,279.74-16.62.11V156.75Z"/><path id="path9429" class="cls-5" d="m263.52,390.89l-.18-66.83,6.91-2.13s11.2,15.63,16.94,23.35c4.18,5.56,8.68,10.91,12.76,16.62.99,1.38,2.83,4.22,2.83,4.22,0,0-11.09,8.08-16.8,11.87-4.07,2.66-8.19,5.17-12.4,7.58-3.3,1.88-10.06,5.31-10.06,5.31h0Z"/><path id="path9431" d="m247.25,399.01l.35-74.23s5.53.28,8.29.18c2.87-.14,8.5-.89,8.5-.89l-.18,66.83s-6.31,3.4-9.53,4.93c-2.44,1.17-7.44,3.19-7.44,3.19h0Z"/><path id="path9433" class="cls-3" d="m154.28,475.37c7.05-.11,14.14.11,21.19-.35,5.88-.35,11.73-1.03,17.5-1.91,3.83-.6,7.55-1.56,11.34-2.3.57-4.15,1.2-8.26,1.77-12.37.6-4.68,1.1-9.32,1.74-14,.5-3.47.78-6.98,1.59-10.42.5-2.06,1.31-4,1.95-6.02l2.66-.35c.89.89,1.45,2.3,2.66,2.66,1.59.5,3.47-.07,4.96-.89,2.13-1.13,3.65-3.22,4.93-5.28,1.24-1.98,2.23-4.22,2.48-6.56.14-1.49-.11-3.05-.71-4.43-.46-1.03-1.1-2.16-2.13-2.66-.99-.46-2.23,0-3.37,0-.57-.81-.96-1.81-1.74-2.44-1.2-.99-2.83-1.31-4.25-1.95-.78-.89-1.24-2.16-2.3-2.66-.92-.43-2.02,0-3.01,0-.89-.81-1.52-2.02-2.66-2.48-.92-.35-1.98,0-2.98,0-1.03-1.17-1.59-2.91-3.01-3.54-1.03-.43-2.23.14-3.37.18-.89-1.06-1.42-2.59-2.66-3.19-1.03-.46-2.23,0-3.37,0-1.1-.92-2.09-2.06-3.33-2.8-1.45-.89-3.01-1.56-4.61-1.95-1.67-.39-3.44-.67-5.14-.35-1.84.32-3.61,1.2-5.14,2.3-1.67,1.2-3.08,2.83-4.22,4.57-1.59,2.37-2.66,5.07-3.54,7.8-1.59,4.93-2.09,10.1-3.01,15.2-1.17,6.63-2.02,13.32-3.19,19.98-1.13,6.59-2.41,13.22-3.69,19.77-1.1,5.49-2.27,10.98-3.37,16.44h0Z"/><path id="path9435" class="cls-2" d="m227.52,509.49l-20.02-40s-10.17,2.69-15.38,3.54c-8.15,1.31-16.37,2.2-24.63,2.48-9.99.32-20.02-.14-29.98-.99-11.76-1.06-35.01-5.03-35.01-5.03l-23,40h148Z"/><path id="path9437" class="cls-6" d="m212.67,508.04l-15.17-29.55c-6.48,2.27-11.41,2.34-19.7,3.26l3.9,26.29h5.74l-5.1-22.75c4.75-.32,8.5-.28,12.61-1.91l11.13,24.66h6.59Z"/><path id="path9439" class="cls-6" d="m172.81,508.04l-3.05-25.3c-10.06.92-18.14,1.49-28.2.46l-5.49,24.84h6.45l3.05-19.81c7.9.46,12.58-.04,19.2-.5l2.23,20.3h5.81Z"/><path id="path9441" class="cls-6" d="m126.25,508.04l7.33-25.05c-7.37-.64-18.07-1.56-26.08-3.47l-13.71,28.52h6.34l10.38-23.53c4.46,1.2,12.01,1.74,16.48,2.37l-6.24,21.15h5.49Z"/><path id="path9443" class="cls-11" d="m154.49,474.52s3.47-16.65,5.03-25.02c1.81-9.96,2.91-20.09,5-30.01,1.38-6.73,1.59-14,5-19.98,2.3-4.11,5.42-8.79,9.99-9.99,4.43-1.17,10.2.18,13.25,3.58,2.55,2.87,3.08,7.8,1.74,11.41-1.42,3.93-5.28,8.33-9.46,8.19-4.36-.14-9.18-4.89-9.25-9.21-.04-3.9,4.18-8.26,8.08-8.5,2.41-.18,5.31,2.13,5.63,4.54.39,2.8-2.16,6.84-5,6.8-1.7,0-4-1.98-2.94-4.15"/><path id="path9445" class="cls-11" d="m160.33,475.33c2.94-8.96,3.69-18.07,5.24-27.18,1.59-9.04,2.02-18.25,4.15-27.18,1.7-7.09,3.61-14.63,6.8-20.76"/><path id="path9447" class="cls-11" d="m167.03,475.33c2.23-7.8,2.91-16.05,4.15-24.09,1.2-7.87,1.63-15.87,3.15-23.67,1.1-5.67,1.91-11.34,4.32-16.69"/><path id="path9449" class="cls-11" d="m172.98,474.94c1.98-7.44,2.59-15.34,3.69-23.03,1.06-7.51,1.45-15.2,2.8-22.64.99-5.39,1.7-10.84,3.86-15.94"/><path id="path9451" class="cls-11" d="m178.8,474.3c1.81-7.09,2.34-14.56,3.33-21.9.96-7.12,1.31-14.39,2.52-21.47.89-5.14,1.52-10.31,3.47-15.13"/><path id="path9453" class="cls-11" d="m184.5,473.77c1.77-6.73,2.34-13.85,3.3-20.8.99-6.8,1.31-13.71,2.55-20.44.89-4.89,1.52-9.78,3.47-14.39"/><path id="path9455" class="cls-11" d="m190.88,472.89c1.74-6.31,2.13-12.58,3.05-18.85.92-6.34,1.28-12.76,2.48-19.03.85-4.54,1.45-9.11,3.37-13.39"/><path id="path9457" class="cls-11" d="m197.04,471.96c1.67-5.74,2.16-11.8,3.05-17.72.89-5.78,1.2-11.66,2.3-17.4.81-4.15,1.42-8.33,3.19-12.26"/><path id="path9459" class="cls-11" d="m204.02,470.02c1.42-5.14,1.84-10.2,2.59-15.34.78-5.17,1.03-10.45,1.98-15.59.67-3.72,1.17-7.48,2.69-10.98"/><path id="path9461" class="cls-11" d="m184.07,412.3c1.63,1.13,3.08,3.08,5.03,3.15,3.22.11,6.41-2.06,8.5-4.46,2.23-2.59,3.58-6.27,3.33-9.67-.14-2.44-1.35-5.07-3.3-6.56-.96-.71-2.02-.53-3.58-.67"/><path id="path9463" class="cls-11" d="m190.56,415.52c1.35,1.49,2.37,2.66,3.97,2.76,3.22.18,6.41-2.06,8.5-4.5,2.23-2.55,3.58-6.24,3.33-9.64-.14-2.44-1.2-5.28-3.3-6.56-.99-.6-1.88-.71-3.47.07"/><path id="path9465" class="cls-11" d="m195.45,418.5c1.63,1.1,3.08,3.08,5.03,3.15,3.22.11,6.41-2.06,8.5-4.5,2.23-2.55,3.58-6.24,3.33-9.64-.14-2.44-1.2-5.24-3.3-6.56-.89-.57-1.63-.6-3.19-.07"/><path id="path9467" class="cls-11" d="m202.18,421.86c1.24,1.77,2.48,2.66,4.15,2.76,3.19.14,6.41-2.06,8.5-4.5,2.2-2.55,3.54-6.24,3.33-9.64-.18-2.44-1.31-5.14-3.3-6.56-.92-.64-1.63-.85-3.37-.46"/><path id="path9469" class="cls-11" d="m207.89,425.23c.6,1.49,2.23,2.52,3.76,2.62,3.19.21,6.41-2.06,8.47-4.46,2.23-2.59,3.58-6.27,3.37-9.67-.18-2.44-1.31-5.1-3.33-6.52-.74-.57-1.17-.25-2.73-.39"/><path id="path9471" class="cls-11" d="m213.84,427.81c.6,1.77,1.77,2.37,3.08,2.48,3.19.32,6.41-2.02,8.5-4.46,2.23-2.59,3.44-6.24,3.33-9.64-.04-1.81-.64-3.83-1.98-5-1.06-.96-2.55-.99-4.11-1.1"/><path id="path9473" class="cls-11" d="m102.72,469.02c.85-10.17,1.45-20.3,2.52-30.44.57-5.53,1.06-11.09,2.02-16.58,1.31-7.26,1.63-14.99,5-21.54,2.06-3.97,5.35-7.3,8.86-9.99,3.22-2.48,6.94-4.5,10.91-5.46,4.11-1.03,8.54-1.1,12.72-.25,4.15.89,7.83,3.22,11.55,5.24,4.68,2.52,8.93,5.74,13.39,8.61"/><path id="path9475" class="cls-11" d="m156.54,455.63c-3.93,1.13-7.76,2.76-11.8,3.4-2.62.39-5.42.92-7.97.21-1.28-.35-3.58-1.38-3.4-2.16.11-.39.74-.32,1.13-.32,1.49-.04,2.83.92,4.32,1.13,2.16.28,4.39.21,6.59,0,3.76-.39,7.41-1.52,11.13-2.27h0Z"/><path id="path9477" class="cls-11" d="m134.5,447.34c-.46.5-1.74.92-1.35,1.45.46.74,3.3,2.55,5.21,3.3,1.81.71,3.79.99,5.78,1.03,2.06.07,4.15-.25,6.17-.78,1.38-.39,2.48-.99,4.04-1.67"/><path id="path9479" class="cls-11" d="m158.7,446.06c-3.33.85-6.59,2.13-9.99,2.52-2.41.28-4.89.35-7.26-.11-1.95-.39-3.86-1.13-5.49-2.2-1.06-.74-1.88-1.77-2.69-2.8,1.63-.71,3.15-1.74,4.89-2.16,2.73-.71,5.6-.99,8.4-.67,2.37.25,4.64,1.17,6.8,2.16,1.91.85,3.54,2.2,5.35,3.26Z"/><path id="path9481" class="cls-11" d="m150.31,447.55c-.11-1.17.32-2.48-.25-3.51-.67-1.24-2.06-2.06-3.4-2.52-1.03-.32-2.27-.35-3.3,0-.99.39-1.84,1.17-2.37,2.06-.74,1.24-.6,2.8-.92,4.22"/><path id="path9483" class="cls-6" d="m146.52,446.74c.32-.35.18-1.03-.07-1.42-.28-.46-.81-.81-1.31-.81-.53-.04-1.06.32-1.31.74-.32.46-.5,1.24-.11,1.63.67.64,2.2.5,2.8-.14h0Z"/><path id="path9485" class="cls-6" d="m150.63,435.65c-2.37.46-5.7.99-8.4,2.02-2.37.92-4.64,2.69-6.7,3.65"/><path id="path9487" class="cls-11" d="m122.35,453.01c.6-1.49,1.52-2.87,1.84-4.43.57-3.19.14-6.52-.25-9.78-.46-3.97-1.91-7.83-2.59-11.8-.43-2.27-1.45-4.64-.92-6.91.25-1.13,1.1-2.06,1.91-2.83,1.03-.96,2.44-1.45,3.65-2.16"/><path id="path9489" class="cls-11" d="m135.64,428.24c1.56-1.7,3.83-2.94,4.68-5.1.39-1.03.46-2.27,0-3.3-.57-1.17-1.7-2.2-2.98-2.48-1.03-.25-2.13.32-3.05.78-1.2.64-1.88,2.06-3.08,2.62-.85.43-1.91.92-2.83.57-.28-.11-.64-.5-.57-.78.32-1.03,1.98-.78,2.94-1.13,1.31-.5,2.59-.92,3.86-1.38"/><path id="path9491" class="cls-6" d="m143.19,407.05c-1.59.81-3.86.64-5.78.6-1.98-.04-3.9-.96-5.85-.89-2.23.11-4.29,1.59-6.56,1.59-1.63.04-3.51-.71-4.78-1.06.07-.57.25-1.31,0-1.74,1.63.6,3.97,1.49,5.99,1.24,1.91-.25,3.3-2.44,5.24-2.48,2.23-.07,3.97,2.48,6.24,2.59,2.16.07,4.43-1.63,6.13-2.02-.46.64-.67,1.7-.64,2.16h0Z"/><path id="path9493" class="cls-11" d="m139.25,400.11c-1.59-.67-3.08-1.7-4.78-2.02-1.24-.25-2.59-.21-3.86.04-.85.14-1.63.57-2.44.89-.74.32-1.45.71-2.2,1.03"/><path id="path9495" class="cls-11" d="m127.74,395.11c1.17.5,2.27.92,3.44.92.99,0,1.91-.39,2.83-.81"/><path id="path9497" class="cls-6" d="m121.22,455.95c-1.56,1.84-5,2.3-7.69,2.52-1.98.14-3.93-.39-5.85-.96-1.35-.39-2.66-1.13-3.93-1.74,2.16.43,4.39,1.2,6.63,1.28,1.95.04,3.9-.35,5.81-.78,1.35-.32,2.59-.96,3.79-1.59.5-.28,1.63.81,1.24,1.28h0Z"/><path id="path9499" class="cls-11" d="m121.78,449.15c-1.56.78-2.98,1.84-4.64,2.27-2.34.67-4.89.99-7.26.57-1.59-.28-2.94-1.35-4.43-1.98"/><path id="path9501" class="cls-11" d="m122.81,445.85c-1.7.67-3.79,1.2-5.7,1.45-2.23.28-4.54.35-6.77.07-1.31-.18-2.69-.43-3.86-1.1-.71-.43-1.17-1.2-1.77-1.81l.35-2.73c1.17-.43,2.34-1.03,3.58-1.24,1.67-.32,3.44-.32,5.14-.21,1.84.11,3.72.21,5.46.89,1.31.53,2.48,1.42,3.58,2.34.35.32.64.67.96,1.03-.32.43-.46,1.1-.96,1.31h0Z"/><path id="path9503" class="cls-11" d="m118.42,446.59c-.07-1.17.32-2.48-.25-3.51-.67-1.24-2.06-2.09-3.4-2.52-1.03-.35-2.27-.39-3.3,0-.96.35-1.84,1.13-2.37,2.06-.74,1.2-.6,2.8-.92,4.18"/><path id="path9505" class="cls-6" d="m114.94,445.74c.32-.35.18-.99-.07-1.42-.28-.43-.81-.78-1.31-.81-.53,0-1.06.32-1.31.74-.32.46-.5,1.28-.11,1.67.67.6,2.16.5,2.8-.18h0Z"/><path id="path9507" class="cls-11" d="m122,440.43c-1.28-1.38-2.3-3.01-3.79-4.18-1.2-.92-2.66-1.42-4-2.13"/><path id="path9509" class="cls-4" d="m105.94,430.9c-.67-2.91-1.38-4.85-2.62-7.02-1.28-2.13-2.73-4.25-4.78-5.63-1.63-1.06-3.61-1.91-5.56-1.74-1.77.14-3.65.99-4.75,2.41s-1.28,3.47-1.17,5.28c.11,1.63.57,3.4,1.67,4.64.96,1.13,2.41,1.91,3.86,2.06,1.03.11,2.2-.07,2.94-.78.57-.53.78-1.45.78-2.23-.04-.85.07-1.74-.99-2.34.78.32,1.31,1.31,1.88,2.06.74,1.06,1.38,2.27,1.91,3.51.64,1.38,1.06,2.87,1.49,4.36.53,2.02.92,4.11,1.35,6.13.71,3.22,1.52,7.09,2.06,9.64.57-5.53,1.35-14.78,1.95-20.34Z"/><path id="path9511" class="cls-4" d="m108.67,410.91c-.64-2.91-2.59-8.57-4.85-12.37-1.28-2.13-2.8-4.18-4.78-5.63-1.59-1.17-3.47-2.48-5.46-2.34-1.88.14-3.76,1.45-4.85,3.01-1.03,1.45-1.28,3.47-1.17,5.24.11,1.67.57,3.44,1.67,4.68.96,1.1,2.41,1.88,3.9,2.06.99.11,2.16-.11,2.91-.78.57-.53.81-1.45.78-2.23-.07-.81-.04-1.56-1.06-2.16.78.32,1.38,1.13,1.95,1.84.81,1.06,1.38,2.3,1.95,3.51.6,1.42.99,2.94,1.45,4.39.53,1.74,1.03,3.51,1.56,5.24,1.17,4.11,2.98,9.71,3.51,12.26.57-5.53,1.95-11.16,2.52-16.72h0Z"/><path id="path9513" class="cls-4" d="m110.91,403.08s-.92-2.87-1.56-4.22c-.74-1.52-2.62-4.36-2.62-4.36,0,0-3.22-1.45-4.89-2.06-1.56-.57-4.75-1.45-4.75-1.45,0,0,3.69,2.87,5.14,4.68,1.28,1.56,2.16,3.4,3.05,5.24.81,1.77,1.38,3.69,2.02,5.56.57,1.67,1.56,5.07,1.56,5.07,0,0,.57-3.33.99-5,.28-1.17,1.06-3.47,1.06-3.47h0Z"/><path id="path9515" class="cls-4" d="m106.72,394.51l6.8,3.9-2.62,4.75-4.18-8.65Z"/><path id="path9517" class="cls-4" d="m177.09,390.29l-24.91-20.69-28.06,18.46.67-8.96,27.04-18.6,35.11,28.98c-2.83-.96-6.59-.81-9.85.81h0Z"/><path id="path9519" class="cls-11" d="m247.25,380.97l-9.35-10.59,9.18-9.71"/><path id="path9521" class="cls-11" d="m246.9,374.56l-3.37-3.9,3.37-3.51"/><path id="path9523" class="cls-6" d="m234,392.98l9.35-9.71-9-9.89-9.11,9.89,8.75,9.71Zm.18-4.18l-5.35-5,5.35-5.88,5.17,5.17-5.17,5.7Z"/><path id="path9525" class="cls-4" d="m29.52,487.48l37.98-36H29.52v36Z"/><path id="path9527" class="cls-2" d="m29.52,479.51l23-22h-23v22Z"/><path id="path9529" class="cls-11" d="m247.82,355.39l-9.35-10.63,9.18-9.71"/><path id="path9531" class="cls-11" d="m247.46,348.94l-3.37-3.86,3.37-3.54"/><path id="path9533" class="cls-11" d="m222.34,379.87l9.18-9.85-9.18-9.71"/><path id="path9535" class="cls-11" d="m222.52,374.2l3.37-3.9-3.37-3.51"/><path id="path9537" class="cls-11" d="m223.05,335.83l8.61,9.28-9.18,9.71"/><path id="path9539" class="cls-11" d="m222.66,340.93l3.33,3.86-3.33,3.54"/><path id="path9541" class="cls-6" d="m234.99,367.22l9.35-9.71-9-9.89-9.5,10.06,9.14,9.53Zm.18-4.18l-5.35-5,5.35-5.88,5.17,5.17-5.17,5.7Z"/><path id="path9543" class="cls-6" d="m234.6,341.85l9.32-9.71-9-9.57-9.67,9.35,9.35,9.92Zm.14-4.18l-5.35-5,5.35-5.88,5.21,5.14-5.21,5.74Z"/><path id="path9545" class="cls-11" d="m222.13,387.21l8.4,9.07-7.83,8.4"/><path id="path9547" class="cls-11" d="m222.27,392.49l3.37,3.51-2.76,3.33"/><path id="path9549" class="cls-11" d="m246.86,385.3l-9.96,10.42,5.74,6.06"/><path id="path9551" class="cls-11" d="m246.51,391.71l-3.37,3.9,3.37,3.54"/><path id="path9553" class="cls-2" d="m247.75,329.2l-3.86-4.61"/><path id="path9555" class="cls-2" d="m222.02,329.42l7.09-7.3"/><path id="path9557" class="cls-2" d="m247.36,398.72l.67-74.13"/><path id="path9559" class="cls-2" d="m221.81,407.76l.21-88.9"/><path id="path9561" class="cls-6" d="m238.32,403.33l-4.39-4.39-8.47,8.43,1.35,2.3,11.52-6.34Z"/><path id="path9563" class="cls-4" d="m52.51,451.48v-70.97l-6.02-2.02v72.99h6.02Z"/><path id="path9565" class="cls-4" d="m46.49,171.49v202h6.02v-203.99l-23-20.02v7.02l16.97,14.99Z"/><path id="path9567" class="cls-3" d="m38.02,449.5c1.17,0,2.48-1.31,2.48-2.52s-1.31-2.48-2.48-2.48-2.52,1.31-2.52,2.48,1.31,2.52,2.52,2.52Z"/><path id="path9569" class="cls-3" d="m38.02,435.5c1.17,0,2.48-1.31,2.48-2.52s-1.31-2.48-2.48-2.48-2.52,1.31-2.52,2.48,1.31,2.52,2.52,2.52Z"/><path id="path9571" class="cls-3" d="m35.01,442.48c1.17,0,2.48-1.31,2.48-2.48s-1.31-2.52-2.48-2.52-2.52,1.35-2.52,2.52,1.35,2.48,2.52,2.48Z"/><path id="path9573" class="cls-3" d="m41,442.48c1.17,0,2.52-1.31,2.52-2.48s-1.35-2.52-2.52-2.52-2.48,1.35-2.48,2.52,1.31,2.48,2.48,2.48Z"/><path id="path9575" class="cls-3" d="m37.84,400.74c1.2,0,2.52-1.31,2.52-2.52s-1.31-2.48-2.52-2.48-2.48,1.31-2.48,2.48,1.31,2.52,2.48,2.52Z"/><path id="path9577" class="cls-3" d="m37.84,386.75c1.2,0,2.52-1.35,2.52-2.52s-1.31-2.48-2.52-2.48-2.48,1.31-2.48,2.48,1.31,2.52,2.48,2.52Z"/><path id="path9579" class="cls-3" d="m34.87,393.73c1.17,0,2.48-1.31,2.48-2.48s-1.31-2.52-2.48-2.52-2.52,1.31-2.52,2.52,1.31,2.48,2.52,2.48Z"/><path id="path9581" class="cls-3" d="m40.85,393.73c1.17,0,2.52-1.31,2.52-2.48s-1.35-2.52-2.52-2.52-2.52,1.31-2.52,2.52,1.35,2.48,2.52,2.48Z"/><path id="path9583" class="cls-3" d="m38.06,351.95c1.17,0,2.48-1.31,2.48-2.48s-1.31-2.52-2.48-2.52-2.52,1.31-2.52,2.52,1.35,2.48,2.52,2.48Z"/><path id="path9585" class="cls-3" d="m38.06,337.96c1.17,0,2.48-1.31,2.48-2.48s-1.31-2.52-2.48-2.52-2.52,1.31-2.52,2.52,1.35,2.48,2.52,2.48Z"/><path id="path9587" class="cls-3" d="m35.04,344.97c1.17,0,2.52-1.35,2.52-2.52s-1.35-2.48-2.52-2.48-2.48,1.31-2.48,2.48,1.31,2.52,2.48,2.52Z"/><path id="path9589" class="cls-3" d="m41.03,344.97c1.2,0,2.52-1.35,2.52-2.52s-1.31-2.48-2.52-2.48-2.48,1.31-2.48,2.48,1.31,2.52,2.48,2.52Z"/><path id="path9591" class="cls-3" d="m38.23,302.42c1.17,0,2.52-1.31,2.52-2.48s-1.35-2.52-2.52-2.52-2.48,1.31-2.48,2.52,1.31,2.48,2.48,2.48Z"/><path id="path9593" class="cls-3" d="m38.23,288.42c1.17,0,2.52-1.31,2.52-2.52s-1.35-2.48-2.52-2.48-2.48,1.31-2.48,2.48,1.31,2.52,2.48,2.52Z"/><path id="path9595" class="cls-3" d="m35.26,295.44c1.17,0,2.48-1.35,2.48-2.52s-1.31-2.52-2.48-2.52-2.52,1.35-2.52,2.52,1.31,2.52,2.52,2.52Z"/><path id="path9597" class="cls-3" d="m41.24,295.44c1.17,0,2.48-1.35,2.48-2.52s-1.31-2.52-2.48-2.52-2.52,1.35-2.52,2.52,1.35,2.52,2.52,2.52Z"/><path id="path9599" class="cls-3" d="m38.23,254.02c1.17,0,2.52-1.31,2.52-2.48s-1.35-2.52-2.52-2.52-2.48,1.35-2.48,2.52,1.31,2.48,2.48,2.48Z"/><path id="path9601" class="cls-3" d="m38.23,240.02c1.17,0,2.52-1.31,2.52-2.48s-1.35-2.52-2.52-2.52-2.48,1.31-2.48,2.52,1.31,2.48,2.48,2.48Z"/><path id="path9603" class="cls-3" d="m35.26,247.04c1.17,0,2.48-1.31,2.48-2.52s-1.31-2.48-2.48-2.48-2.52,1.31-2.52,2.48,1.31,2.52,2.52,2.52Z"/><path id="path9605" class="cls-3" d="m41.24,247.04c1.17,0,2.48-1.31,2.48-2.52s-1.31-2.48-2.48-2.48-2.52,1.31-2.52,2.48,1.35,2.52,2.52,2.52Z"/><path id="path9607" class="cls-3" d="m38.8,205.44c1.2,0,2.52-1.31,2.52-2.48s-1.31-2.52-2.52-2.52-2.48,1.31-2.48,2.52,1.31,2.48,2.48,2.48Z"/><path id="path9609" class="cls-3" d="m38.8,191.44c1.2,0,2.52-1.31,2.52-2.48s-1.31-2.52-2.52-2.52-2.48,1.31-2.48,2.52,1.31,2.48,2.48,2.48Z"/><path id="path9611" class="cls-3" d="m35.82,198.46c1.17,0,2.48-1.35,2.48-2.52s-1.31-2.48-2.48-2.48-2.52,1.31-2.52,2.48,1.35,2.52,2.52,2.52Z"/><path id="path9613" class="cls-3" d="m41.81,198.46c1.17,0,2.52-1.35,2.52-2.52s-1.35-2.48-2.52-2.48-2.48,1.31-2.48,2.48,1.31,2.52,2.48,2.52Z"/><path id="path9615" class="cls-3" d="m44.5,412.51v5l-13,12.01v-5.03l13-11.98Z"/><path id="path9617" class="cls-3" d="m44.5,404.5v5l-13,12.01v-5l13-12.01Z"/><path id="path9619" class="cls-3" d="m44.5,362.51v5l-13,11.98v-5l13-11.98Z"/><path id="path9621" class="cls-3" d="m44.5,354.5v5l-13,12.01v-5l13-12.01Z"/><path id="path9623" class="cls-3" d="m44.5,312.52v5l-13,11.98v-5l13-11.98Z"/><path id="path9625" class="cls-3" d="m44.5,304.51v5l-13,12.01v-5.03l13-11.98Z"/><path id="path9627" class="cls-3" d="m44.5,264.5v5l-13,12.01v-5l13-12.01Z"/><path id="path9629" class="cls-3" d="m44.5,256.5v5l-13,12.01v-5l13-12.01Z"/><path id="path9631" class="cls-3" d="m44.5,217.48v5.03l-13,11.98v-5l13-12.01Z"/><path id="path9633" class="cls-3" d="m44.5,209.51v5l-13,11.98v-5l13-11.98Z"/><path id="path9635" class="cls-3" d="m44.36,171.24l.14,1.24-13,12.01v-5l9.99-9.89,2.87,1.63Z"/><path id="path9637" class="cls-3" d="m37.74,166l2.41,1.98-8.65,8.5v-5l6.24-5.49Z"/><path id="path9639" class="cls-6" d="m112,368.54l9.35-9.74-9-9.89-9.67,9.71,9.32,9.92Zm.18-4.22l-5.35-5,5.35-5.85,5.17,5.14-5.17,5.7Z"/><path id="path9641" class="cls-6" d="m108.28,396.03l10.52-8.47-7.69-10.95-10.81,8.4,7.97,11.02Zm.67-4.15l-4.64-5.63,6.06-5.14,4.46,5.78-5.88,5Z"/><path id="path9643" class="cls-6" d="m112.36,342.67l8.26-9.92-10.03-8.22-8.36,9.92,10.13,8.22Zm-.28-3.9l-5.85-4.07,4.68-5.95,5.7,4.25-4.54,5.78Z"/><path id="path9645" class="cls-6" d="m109.91,319.28l7.83-10.98-10.35-8.5-8.19,11.02,10.7,8.47Zm-.46-4.18l-6.02-4.15,4.43-6.59,5.88,4.32-4.29,6.41Z"/><path id="path9647" class="cls-6" d="m105.73,293.49l6.02-12.05-11.52-6.8-6.38,12.15,11.87,6.7Zm-1.1-4.04l-6.59-3.19,3.37-7.19,6.48,3.37-3.26,7.02Z"/><path id="path9649" class="cls-6" d="m98.47,268.08l4.89-12.58-12.12-5.67-5.21,12.69,12.44,5.56Zm-1.49-3.93l-6.84-2.55,2.66-7.48,6.77,2.73-2.59,7.3Z"/><path id="path9651" class="cls-6" d="m87.73,242.43l2.41-13.25-12.97-3.3-2.69,13.43,13.25,3.12Zm-2.2-3.58l-7.23-1.2,1.24-7.83,7.16,1.42-1.17,7.62Z"/><path id="path9653" class="cls-6" d="m74.27,218.72l1.28-13.43-13.22-2.16-1.52,13.64,13.46,1.95Zm-2.48-3.4l-7.3-.57.53-7.94,7.26.81-.5,7.69Z"/><path id="path9655" class="cls-11" d="m98.26,380.72l10.2-8.19-8.08-9.99"/><path id="path9657" class="cls-11" d="m99.04,375.52l3.76-3.3-2.94-3.61"/><path id="path9659" class="cls-11" d="m97.02,390.01s1.45-12.33,1.98-18.5c.74-8.57,1.84-17.15,1.74-25.76-.07-7.55-1.03-15.02-1.98-22.5-1.03-7.97-2.2-15.91-4-23.74-1.98-8.72-4.5-17.33-7.51-25.76-2.69-7.58-5.92-15.02-9.5-22.25-3.83-7.8-8.08-15.41-12.72-22.75-3.54-5.6-11.52-16.26-11.52-16.26"/><path id="path9661" class="cls-11" d="m124.48,363.36l-10.63,11.34,9.5,11.41"/><path id="path9663" class="cls-11" d="m124.05,369.88l-4.54,4.75,4.18,5.17"/><path id="path9665" class="cls-11" d="m100.98,354.93l8.54-8.22-7.9-8.68"/><path id="path9667" class="cls-11" d="m101.3,350.07l3.15-3.26-2.91-3.15"/><path id="path9669" class="cls-11" d="m125.43,333.46l-10.24,11.69,9.85,11.09"/><path id="path9671" class="cls-11" d="m125.22,339.98l-4.36,4.93,4.36,5"/><path id="path9673" class="cls-11" d="m122.67,308.16l-8.96,12.69,10.91,10.03"/><path id="path9675" class="cls-11" d="m123.13,314.68l-3.83,5.31,4.85,4.57"/><path id="path9677" class="cls-11" d="m117.92,282.82l-7.44,13.64,12.05,8.68"/><path id="path9679" class="cls-11" d="m119.13,289.24l-3.19,5.74,5.35,3.97"/><path id="path9681" class="cls-11" d="m107.5,256.74l-5.31,14.63,13.18,6.77"/><path id="path9683" class="cls-11" d="m109.67,262.91l-2.3,6.17,5.88,3.12"/><path id="path9685" class="cls-11" d="m94.96,230.28l-3.54,15.17,13.93,5.14"/><path id="path9687" class="cls-11" d="m97.83,236.16l-1.52,6.38,6.2,2.37"/><path id="path9689" class="cls-12" d="m80.19,206.15l-2.02,15.41,13.22,3.9"/><path id="path9691" class="cls-12" d="m83.34,211.74l-.92,6.48,5.92,1.84"/><path id="path9693" class="cls-12" d="m62.29,182.8l.74,16.05,13.68,1.49"/><path id="path9695" class="cls-12" d="m66.37,188.43l.25,6.48,6.13.74"/><path id="path9697" class="cls-11" d="m98.75,235.77c-4-6.7-7.8-13.46-12.01-20.02-5.39-8.43-10.88-16.8-16.97-24.73-5.17-6.73-11.02-12.86-16.51-19.28"/><path id="path9699" class="cls-11" d="m58.75,179.25l-5.74-.74"/><path id="path9701" class="cls-6" d="m53.26,182.51l5.49,1.24-.5,14.49-5-1.24v-14.49Z"/><path id="path9703" class="cls-11" d="m57.26,216.24l.99-13-5-1.24"/><path id="path9705" class="cls-11" d="m99.81,331.69l7.48-9.28-8.96-7.58"/><path id="path9707" class="cls-11" d="m99.53,326.8l2.73-3.65-3.26-2.76"/><path id="path9709" class="cls-11" d="m97.51,307.06l5.74-10.38-10.1-5.95"/><path id="path9711" class="cls-11" d="m96.38,302.31l2.06-4.04-3.69-2.16"/><path id="path9713" class="cls-11" d="m90.99,282.72l4.85-10.84-10.56-5.1"/><path id="path9715" class="cls-11" d="m89.47,278.04l1.7-4.18-3.86-1.84"/><path id="path9717" class="cls-11" d="m82.81,258.27l2.91-11.52-11.3-3.19"/><path id="path9719" class="cls-11" d="m80.5,253.94l.96-4.43-4.15-1.13"/><path id="path9721" class="cls-11" d="m70.83,235.24l1.56-11.8-11.59-1.84"/><path id="path9723" class="cls-11" d="m68.03,231.2l.43-4.5-4.22-.67"/><path id="path9725" class="cls-6" d="m78.52,341c-3.19-8.75-5.81-17.72-9.53-26.26-2.34-5.39-4.61-10.91-7.97-15.73-2.23-3.19-5.35-5.67-8.01-8.5l.25,14,4.5-.99-2.52,6.24,5.78.25-3.51,4.25,5.24.5-3.26,4.5,5.78.25-4,5,6.48.5-3.76,5,5.78.53-3.51,4.75,5,.74-3.26,5.49,7.02.25,3.51-.74Z"/><path id="path9727" class="cls-8" d="m67.5,375.27c-2.34,2.52-6.2,3.15-9.5,4.18-1.77.53-3.65,1.1-5.49.99-2.09-.11-4.29-.53-6.02-1.74-.92-.67-1.91-1.63-1.98-2.76-.07-.85.6-1.7,1.24-2.23.6-.5,1.49-.57,2.27-.74,1.24-.35,2.62-.14,3.76-.74,1.03-.57,1.98-1.45,2.41-2.55.53-1.24.35-2.76.11-4.11-.28-1.52-1.1-3.12-1.77-4.29l.25-14.28c2.83-.32,5.81-1.24,8.75-.99,1.74.14,3.69.35,5,1.49,2.37,2.13,3.01,5.67,3.76,8.75.71,3.19.96,6.56.5,9.74-.46,3.26-1.03,6.87-3.26,9.28h0Z"/><path id="path9729" class="cls-8" d="m98.75,332c-4.5,1.84-8.08,3.37-12.01,5.24-3.37,1.63-6.7,3.44-9.99,5.24-3.12,1.7-6.73,3.58-9.25,5.24"/><path id="path9731" class="cls-8" d="m97.26,390.26c-5.42-2.59-10.91-5.07-16.26-7.76-4.29-2.16-8.5-4.5-12.76-6.73"/><path id="path9733" class="cls-8" d="m72.99,378s2.3-7.23,2.76-10.98c.46-3.83.6-7.72,0-11.52-.57-3.37-3.26-9.74-3.26-9.74l12.76-7.26-5.49,9,5.99,6.02-6.48,7.23,5.99,8.26-5.24,4.25,3.26,9.99-10.28-5.24Z"/><path id="path9735" class="cls-11" d="m95.49,388.24l-7.48-12.22,6.48-6.27-6.24-8.5,6.48-7.97-5.74-5.78,6.98-13.5"/><path id="path9737" class="cls-11" d="m97.02,381.75l-2.52-4,3.76-3.01"/><path id="path9739" class="cls-11" d="m99,364.74l-3.01-3.76,3.26-4.25"/><path id="path9741" class="cls-11" d="m99.74,350.25l-3.22-4.5,3.22-5"/><path id="path9743" class="cls-4" d="m92.76,325.77l-11.27,5.49s-3.4-11.44-5.49-17.01c-1.77-4.75-3.47-9.6-5.99-14-2.94-5.07-10.52-14-10.52-14v-52.26s9.89,15.7,14,23.99c4.25,8.57,8.04,17.43,11.02,26.5,2.48,7.58,4.25,15.41,5.74,23.28,1.13,5.92,2.52,18,2.52,18Z"/><path id="path9745" class="cls-4" d="m94.82,482.98s-.67-7.3-2.3-10.49c-1.59-3.08-4.18-5.74-7.02-7.76-2.44-1.74-5.31-2.91-8.26-3.47-2.44-.5-5-.25-7.48,0-1.7.14-5.03.99-5.03.99,0,0,3.22,1.03,4.25,2.23,2.23,2.55,2.55,6.27,3.51,9.5.96,3.22,1.17,6.63,2.27,9.78,1.1,3.19,2.09,6.63,4.25,9.25,1.17,1.42,2.76,2.55,4.5,3.22,1.03.43,3.3.53,3.3.53l8.01-13.78Z"/><path id="path9747" class="cls-11" d="m90,490.04c-1.2-3.97-2.23-7.8-4.25-11.27-1.7-3.01-4.11-5.53-6.48-8.01-1.56-1.63-3.33-3.01-5-4.5"/><path id="path9749" class="cls-11" d="m81.39,486.88c1.77-.96,5.7-.11,7.65.28,1.35-2.66,2.44-4.71,2.34-7.19"/><path id="path9751" class="cls-11" d="m79.8,482.35c1.77-.96,5.1-.67,7.05-.28,1.35-2.66,2.44-5.24,2.34-7.72"/><path id="path9753" class="cls-11" d="m77.53,476.18c1.81-.96,4.36-.25,6.31.14,1.35-2.66,1.06-5.07.96-7.55"/><path id="path9755" class="cls-11" d="m74.94,471.68c1.77-.99,2.91-.07,4.85.32,1.35-2.66.64-3.69.53-6.17"/><path id="path9757" class="cls-11" d="m89.5,491.13c-1.77-.28-3.54-.43-5.31.35"/><path id="path9759" class="cls-3" d="m209.59,397.91c.85-.32,1.95-.89,2.06-1.81.11-.89-.89-1.67-1.63-2.16-.43-.28-1.03-.25-1.52-.43-.53-.18-1.24-.25-1.59-.74-.35-.5-.11-1.24-.25-1.84-.43-1.49-.6-3.26-1.74-4.29-.99-.96-2.52-1.13-3.86-1.28-1.17-.11-2.34.28-3.47.43-.92.11-1.81.39-2.73.32-.46-.07-.96-.11-1.31-.39-.32-.28-.43-.74-.5-1.13-.21-.85-.07-1.74-.11-2.62-.04-1.13.18-2.3-.11-3.37-.35-1.28-.89-2.66-1.91-3.47-1.1-.85-2.62-1.1-4-1.17-1.17-.04-2.3.43-3.47.64-.89.18-1.74.53-2.66.5-.39,0-.85,0-1.13-.28-.18-.14-.18-.46-.21-.67-.07-.74.14-1.45.21-2.2.07-.99.43-2.02.25-3.01-.18-1.2-.53-2.55-1.38-3.44-.96-.96-2.44-1.38-3.79-1.63-1.17-.18-2.37.25-3.54.28-1.45,0-3.22.74-4.36-.18-.89-.71-.57-2.16-.78-3.26-.21-1.03-.11-2.09-.5-3.01-.5-1.13-1.13-2.34-2.16-2.98-.85-.53-1.98-.6-2.98-.53-.74.04-1.45.46-2.2.67-.6.18-1.28.78-1.88.53-.18-.07-.21-.32-.25-.5-.28-.6-.39-1.24-.6-1.88-.28-.78-.39-1.74-.96-2.37-.78-.92-1.88-1.81-3.08-1.81-1.17.04-2.27.92-3.01,1.81-.53.67-.57,1.59-.81,2.37-.21.6-.32,1.2-.53,1.81-.07.11-.07.28-.18.32-.14.11-.35.04-.53,0-.6-.14-1.13-.5-1.7-.71-.81-.28-1.56-.78-2.41-.85-1.13-.07-2.41-.04-3.3.64-1.03.74-1.52,2.13-1.81,3.37-.25,1.03.07,2.06.11,3.12.04.71.21,1.45.11,2.2-.04.18,0,.39-.14.5-.28.25-.74.14-1.1.14-.81-.04-1.59-.28-2.37-.5-1.06-.35-2.02-1.2-3.12-1.28-.96-.04-2.34,0-2.76.85-.46.85.28,2.02.92,2.73.96.96,2.48,1.1,3.76,1.49,1.1.32,2.2.71,3.33.71,1.24-.04,2.62-.11,3.61-.85,1.03-.78,1.56-2.13,1.84-3.37.25-.99-.07-2.06-.07-3.08-.04-.78-.64-1.81-.07-2.34.46-.43,1.24.04,1.84.18.81.21,1.52.78,2.34.92,1.06.14,2.23.25,3.22-.21.96-.5,1.59-1.49,2.16-2.41.39-.67.04-2.16.81-2.16s.43,1.59.81,2.3c.57.96,1.17,2.06,2.2,2.44,1.56.64,3.37-.43,5.07-.39.64,0,1.45-.25,1.95.18.57.53.21,1.52.43,2.27.6,2.09.6,4.71,2.3,6.06,1.95,1.56,4.89.96,7.37,1.03.92,0,1.81-.35,2.69-.25.46.07.99.14,1.28.5.18.18.21.46.25.74.07.74-.18,1.49-.25,2.23-.07,1.03-.39,2.06-.25,3.05.21,1.2.6,2.55,1.56,3.4,1.03.92,2.55,1.2,3.93,1.31,1.17.07,2.34-.43,3.47-.64.92-.14,1.81-.5,2.73-.5.43,0,.92,0,1.24.25s.43.71.53,1.1c.18.85.04,1.7.07,2.55.04,1.13-.14,2.3.14,3.4.32,1.28.81,2.66,1.84,3.51,1.03.89,2.48,1.17,3.83,1.31,1.17.14,2.34-.21,3.51-.35.92-.11,1.84-.39,2.76-.35.46.04,1.06,0,1.35.35.35.35.14.99.25,1.45.32,1.45.35,3.12,1.31,4.29.78.99,2.16,1.42,3.33,1.88.64.25,1.28.35,1.95.5.11.04.25.07.35.07h0Z"/><path id="path9761" class="cls-3" d="m209.48,386.36c.81-.04,1.59-.6,1.88-1.38.25-.78-.04-1.74-.71-2.23l-58.15-45.89c-.67-.5-1.67-.53-2.37-.04l-22.75,15.94c-.92.6-1.2,1.95-.57,2.83.6.89,1.98,1.1,2.83.46l21.58-15.13,56.98,44.96c.35.28.81.46,1.28.46h0Z"/><path id="path9763" d="m152.43,325.77v-63.89l-9.74,6.8-.32,63.32,10.06-6.24Z"/><path id="path9765" class="cls-1" d="m211,371.62l-21.01-16.87-.28-54.43,21.3,14.49v56.8Z"/><path id="path9767" class="cls-10" d="m189.71,355.67l-.6-56.23"/><path id="path9769" class="cls-10" d="m183.79,351.46l-.28-57.33"/><path id="path9771" class="cls-10" d="m156.86,328.74l-.28-68.35"/><path id="path9773" class="cls-11" d="m119.02,284.06l36.39-24.24"/><path id="path9775" class="cls-10" d="m156.9,269.75l26.33,26.86-26.5,25.65,26.79,27.5"/><path id="path9777" class="cls-10" d="m167.63,338.31l16.05-16.41-26.79-27.92,15.17-14.17"/><path id="path9779" class="cls-10" d="m170.47,328.07l4.93-5.28-4.93-5.81-5.1,5.28,5.1,5.81Z"/><path id="path9781" class="cls-10" d="m170.61,300.4l4.29-4.71-4.85-4.93-4.32,4.61,4.89,5.03Z"/><path id="path9783" class="cls-9" d="m182.62,341.82l-4.89-5.35,5.14-5.42-.25,10.77Z"/><path id="path9785" class="cls-9" d="m157.43,313.79l5.24-5.46-5.31-5.17.07,10.63Z"/><path id="path9787" class="cls-9" d="m182.91,313.83l-4.82-5.24,4.93-4.54-.11,9.78Z"/><path id="path9789" class="cls-9" d="m157.29,286.3l4.61-4.75-4.85-4.75.25,9.5Z"/><path id="path9791" class="cls-11" d="m226.56,409.99c7.09-3.54,14.17-7.05,21.22-10.63,5.07-2.55,10.2-5.03,15.2-7.76,7.19-3.93,14.35-7.94,21.22-12.4,6.45-4.18,12.47-8.93,18.74-13.43-4.15-5.53-8.19-11.13-12.4-16.62-3.58-4.64-7.48-9.07-10.95-13.78-3.22-4.36-6.13-8.96-9.18-13.43-2.48.71-4.89,1.74-7.44,2.13-5,.74-10.13.67-15.2.35-4.04-.25-8.04-.99-12.01-1.77-4.29-.85-8.61-1.74-12.76-3.19-4.25-1.49-8.4-3.47-12.37-5.67-4.54-2.48-8.86-5.42-13.07-8.47-4.54-3.3-9.11-6.63-13.07-10.59-3.86-3.86-6.94-8.43-10.28-12.76-3.61-4.75-6.84-9.81-10.59-14.49-2.55-3.19-5.17-6.34-8.11-9.18-4.07-3.9-8.33-7.62-13.11-10.59-4.39-2.8-9.25-4.89-14.14-6.73-4.68-1.81-9.5-3.54-14.49-4.25-4.89-.71-9.89,0-14.85,0,2.73,5.56,5.63,10.98,8.15,16.62,3.12,7.09,6.06,14.24,8.47,21.58,2.27,6.84,4.18,13.82,5.67,20.87,1.49,7.23,2.41,14.56,3.19,21.9.57,5.53.89,11.09,1.06,16.62.18,6.13.04,12.26,0,18.39-.07,5.78-.14,11.55-.35,17.33-.25,6.02-.71,12.01-1.06,18.04"/><path id="path9793" class="cls-7" d="m29.52,149.49v360h270"/><path id="path9795" d="m187.44,268.97c-.67.07-1.42.67-2.83,1.7l-3.12,2.2-3.08,2.23c-3.86,2.3-2.8,2.59-.18,5.74l2.94,3.54,2.91,3.51c2.69,3.61,2.55,3.86,5.7.96l2.83-2.59,2.83-2.59c3.33-2.59,2.66-2.76.14-5.78l-2.62-3.15-2.66-3.15c-1.38-1.91-2.02-2.69-2.87-2.62h0Zm-.53,5.53c.67,0,1.45.25,1.95.74.32.35.43.89.43,1.35,0,.21-.28.5-.11.67.14.14.39-.18.6-.18.5.04,1.03.14,1.38.5.5.46.74,1.24.74,1.91,0,.71-.25,1.45-.74,1.95-.35.32-.89.39-1.38.43-.21.04-.46-.28-.6-.11-.18.14.11.39.11.6,0,.5-.11,1.03-.43,1.38-.5.5-1.28.74-1.95.74s-1.45-.25-1.95-.74c-.32-.35-.43-.89-.46-1.38,0-.21.32-.46.18-.6-.18-.18-.46.14-.67.11-.5-.04-.99-.11-1.35-.43-.5-.5-.74-1.24-.74-1.95s.25-1.45.74-1.91c.35-.35.85-.46,1.35-.5.21,0,.5.32.67.18.14-.18-.18-.46-.18-.67.04-.46.14-.99.46-1.35.5-.5,1.28-.74,1.95-.74Z"/><path id="path9797" d="m200.94,284.74c-.64.14-1.31.89-2.52,2.13l-2.69,2.69-2.66,2.69c-3.47,2.94-2.34,3.05.74,5.7l3.51,3.01,3.44,2.98c3.26,3.12,3.15,3.4,5.81,0l2.34-3.05,2.37-2.98c2.87-3.12,2.2-3.19-.81-5.74l-3.12-2.69-3.12-2.66c-1.7-1.67-2.48-2.34-3.3-2.09h0Zm.39,5.53c.71-.11,1.49,0,2.06.43.39.28.57.78.64,1.24.07.21-.18.53,0,.67.18.14.35-.25.6-.25.46-.07,1.03-.04,1.42.21.57.39.96,1.1,1.06,1.81.11.67,0,1.45-.43,2.02-.28.39-.81.57-1.28.67-.21.04-.5-.21-.64-.04-.11.18.21.39.25.6.04.46.04,1.03-.21,1.42-.39.57-1.1.96-1.81,1.06-.67.11-1.45,0-2.02-.43-.39-.28-.6-.78-.71-1.28-.04-.21.25-.5.07-.64-.18-.14-.39.21-.64.25-.46.04-.99.07-1.38-.21-.57-.39-.96-1.1-1.06-1.77-.11-.71,0-1.49.43-2.06.28-.39.78-.57,1.24-.67.21-.07.53.21.67.04.11-.18-.25-.39-.28-.6-.04-.5-.04-1.03.25-1.42.39-.57,1.1-.96,1.77-1.06h0Z"/><path id="path9799" d="m216.81,297.07c-.57.35-.96,1.28-1.74,2.83l-1.7,3.4-1.67,3.4c-2.37,3.86-1.24,3.61,2.52,5.17l4.25,1.74,4.22,1.74c4.07,1.91,4.07,2.23,5.49-1.84l1.28-3.61,1.31-3.58c1.74-3.9,1.06-3.72-2.59-5.21l-3.79-1.52-3.83-1.56c-2.13-1.03-3.05-1.45-3.76-.96h0Zm2.13,5.14c.6-.32,1.38-.46,2.06-.25.46.14.78.57,1.03.96.11.21-.04.57.18.64.21.11.28-.32.5-.43.43-.18.96-.35,1.42-.21.67.18,1.24.74,1.56,1.35.35.6.46,1.42.25,2.06-.14.46-.57.78-.99,1.03-.18.14-.57-.04-.6.21-.07.21.28.28.39.46.21.46.39.96.25,1.45-.18.64-.74,1.24-1.35,1.56-.6.32-1.42.46-2.06.25-.46-.14-.81-.57-1.06-.99-.11-.18.04-.57-.14-.64-.21-.07-.32.32-.53.43-.43.21-.92.39-1.38.25-.67-.18-1.28-.74-1.59-1.35-.32-.64-.46-1.42-.25-2.09.14-.46.57-.78.99-1.03.18-.11.57.04.64-.18.07-.21-.35-.32-.46-.5-.21-.43-.32-.96-.21-1.42.21-.67.74-1.24,1.38-1.56h0Z"/><path id="path9801" d="m235.52,304.9c-.43.53-.57,1.52-.81,3.22l-.64,3.76-.6,3.76c-1.13,4.36-.14,3.79,3.93,4.18l4.57.43,4.57.43c4.43.64,4.5.92,4.68-3.37l.18-3.83.18-3.83c.53-4.22-.07-3.83-3.97-4.18l-4.11-.39-4.11-.35c-2.34-.35-3.33-.46-3.86.18h0Zm3.51,4.29c.5-.46,1.24-.85,1.91-.81.5,0,.92.28,1.28.64.14.14.14.53.35.53.25,0,.18-.39.35-.53.35-.32.81-.64,1.28-.64.71-.04,1.42.32,1.91.81s.85,1.2.85,1.91c0,.46-.35.92-.67,1.28-.14.18-.53.14-.53.35s.39.18.53.35c.32.35.67.81.67,1.28,0,.71-.35,1.42-.85,1.91-.5.5-1.2.85-1.88.85-.5-.04-.96-.32-1.31-.67-.18-.14-.11-.53-.35-.53-.21,0-.18.39-.35.53-.35.32-.78.64-1.28.67-.67,0-1.42-.35-1.88-.85-.5-.5-.85-1.2-.85-1.91,0-.46.28-.92.6-1.28.18-.18.6-.11.57-.35,0-.21-.43-.18-.57-.35-.32-.35-.6-.78-.6-1.28-.04-.67.35-1.42.81-1.91Z"/><path id="path9803" d="m173.2,272.19c.64-.07,1.42-.67,2.83-1.67l3.08-2.23,3.12-2.2c3.86-2.3,2.76-2.62.18-5.78l-2.94-3.51-2.91-3.54c-2.69-3.58-2.55-3.86-5.7-.96l-2.83,2.62-2.83,2.55c-3.37,2.59-2.69,2.76-.14,5.78l2.62,3.15,2.66,3.15c1.38,1.91,2.02,2.73,2.87,2.62h0Zm.53-5.53c-.71,0-1.45-.25-1.95-.74-.32-.35-.43-.85-.43-1.35-.04-.21.25-.5.11-.64-.14-.18-.39.18-.6.14-.5-.04-1.03-.14-1.38-.46-.5-.5-.74-1.24-.74-1.95s.25-1.45.74-1.95c.35-.32.89-.39,1.38-.43.21,0,.46.28.6.14.14-.18-.14-.43-.11-.64,0-.5.11-1.03.43-1.38.5-.5,1.24-.74,1.95-.74s1.45.25,1.91.74c.35.35.46.89.5,1.38,0,.21-.32.46-.18.64.18.14.43-.14.67-.14.46.04.99.11,1.35.43.5.5.74,1.28.74,1.95,0,.71-.25,1.45-.74,1.95-.35.32-.89.43-1.35.46-.25.04-.5-.32-.67-.14-.14.14.18.43.18.64-.04.5-.14.99-.5,1.35-.46.5-1.24.74-1.91.74Z"/><path id="path9805" d="m159.98,256.14c.64-.18,1.31-.92,2.55-2.13l2.66-2.73,2.69-2.69c3.44-2.91,2.3-3.01-.78-5.7l-3.47-2.98-3.47-3.01c-3.22-3.08-3.12-3.37-5.78.04l-2.34,3.01-2.37,3.01c-2.87,3.12-2.2,3.15.78,5.7l3.12,2.69,3.15,2.66c1.7,1.67,2.44,2.34,3.26,2.13h0Zm-.39-5.53c-.67.11-1.49-.04-2.02-.43-.39-.28-.57-.78-.67-1.28-.04-.21.21-.53.04-.64-.18-.14-.39.21-.6.25-.46.04-1.03.04-1.42-.25-.57-.39-.96-1.1-1.06-1.77-.14-.67,0-1.49.39-2.06.28-.39.81-.53,1.31-.64.21-.07.5.21.64,0,.11-.18-.21-.35-.25-.57-.07-.5-.07-1.06.21-1.45.39-.57,1.1-.96,1.77-1.06s1.49,0,2.06.43c.39.28.57.81.67,1.28.04.21-.21.5-.04.64.18.14.39-.21.6-.21.5-.07,1.03-.07,1.42.18.57.39.96,1.13,1.06,1.81s0,1.49-.43,2.02c-.28.39-.78.6-1.24.71-.21.04-.57-.25-.67-.07-.11.21.25.43.25.64.07.46.04.99-.21,1.42-.39.57-1.13.92-1.81,1.06h0Z"/><path id="path9807" d="m142.87,242.54c.57-.39.96-1.28,1.74-2.83l1.7-3.4,1.67-3.44c2.34-3.83,1.24-3.58-2.52-5.14l-4.25-1.74-4.25-1.77c-4.04-1.91-4.04-2.2-5.46,1.88l-1.28,3.61-1.31,3.58c-1.74,3.86-1.06,3.69,2.59,5.17l3.79,1.56,3.83,1.52c2.13,1.06,3.05,1.45,3.76.99Zm-2.13-5.14c-.6.32-1.38.46-2.06.25-.46-.14-.78-.57-1.03-.99-.11-.18.04-.57-.18-.64-.21-.07-.28.35-.5.43-.43.21-.96.39-1.42.25-.67-.18-1.24-.74-1.59-1.35-.32-.64-.46-1.42-.25-2.09.18-.46.6-.78,1.03-1.03.18-.11.53.04.6-.18.07-.21-.32-.28-.39-.5-.21-.43-.39-.96-.28-1.42.21-.67.78-1.24,1.38-1.56.6-.32,1.38-.46,2.06-.25.46.14.81.57,1.06.99.11.18-.07.53.14.6.21.07.32-.32.53-.39.43-.21.92-.39,1.38-.25.67.18,1.24.74,1.59,1.35.32.6.46,1.42.25,2.06-.18.46-.57.81-.99,1.06-.18.11-.57-.07-.64.18-.07.18.35.28.43.5.21.43.35.92.25,1.42-.21.64-.78,1.24-1.38,1.56h0Z"/><path id="path9809" d="m124.19,234.56c.43-.5.53-1.49.81-3.19l.6-3.76.6-3.76c1.13-4.39.14-3.83-3.93-4.22l-4.57-.43-4.54-.43c-4.43-.64-4.54-.92-4.71,3.4l-.14,3.83-.21,3.79c-.53,4.22.07,3.86,4,4.22l4.07.35,4.11.35c2.34.39,3.37.5,3.9-.18Zm-3.54-4.29c-.5.5-1.2.85-1.91.85-.46,0-.89-.32-1.24-.64-.18-.14-.18-.57-.39-.57s-.14.43-.32.57c-.35.32-.81.64-1.31.64-.67,0-1.42-.35-1.91-.85-.46-.46-.85-1.2-.81-1.88,0-.5.32-.92.64-1.28.14-.18.53-.14.53-.35,0-.25-.39-.21-.53-.35-.32-.35-.64-.81-.67-1.31,0-.67.35-1.38.85-1.88.5-.5,1.2-.85,1.91-.85.46,0,.96.32,1.31.64.14.14.11.57.32.57s.21-.43.39-.57c.35-.32.74-.64,1.24-.64.71,0,1.42.35,1.91.85.46.46.85,1.2.81,1.88,0,.5-.28.92-.6,1.28-.14.18-.57.14-.57.35,0,.25.43.21.57.35.32.35.6.81.64,1.31,0,.67-.35,1.38-.85,1.88Z"/><path id="path9811" d="m260.79,305.64l-1.56.32c-2.13.25-3.01.43-3.33,1.2-.21.6-.11,1.52.07,3.26l.35,3.79.35,3.83c.07,4.5.78,3.72,4.39,3.05l4-.78,3.9-.71-1.91-3.3c-.25.18-.53.32-.78.39-.43.11-.89-.07-1.28-.28-.18-.11-.21-.5-.39-.43-.21.04-.11.43-.21.64-.25.39-.53.78-.96.89-.57.21-1.28.07-1.81-.28-.53-.35-1.03-.99-1.17-1.67-.11-.46.04-.96.21-1.38.07-.18.5-.25.43-.46-.07-.21-.43-.11-.6-.21-.35-.25-.71-.64-.81-1.1-.18-.67-.04-1.45.28-2.06.32-.57.85-1.13,1.42-1.28.43-.14.89.07,1.24.28.18.11.25.5.46.46l.11-.11-2.41-4.07h0Z"/><path id="path9813" d="m98.86,233.85l1.56-.32c2.13-.25,3.01-.43,3.33-1.2.25-.6.11-1.56-.04-3.26l-.39-3.83-.35-3.79c-.04-4.5-.78-3.72-4.36-3.05l-4.04.78-3.9.71,1.95,3.3c.21-.18.5-.32.74-.39.43-.11.89.07,1.28.28.18.11.21.46.43.43.18-.04.07-.43.18-.64.25-.39.53-.78.96-.92.57-.18,1.28-.04,1.81.32.53.35,1.03.99,1.2,1.63.11.5-.04.96-.25,1.42-.07.18-.5.25-.43.46s.43.11.6.21c.35.25.71.64.81,1.1.18.64.04,1.45-.28,2.02-.28.6-.81,1.17-1.42,1.31-.43.11-.85-.07-1.24-.28-.18-.11-.25-.5-.46-.46-.04,0-.07.07-.11.11l2.41,4.07h0Z"/><path id="path9815" d="m94.5,100.48c2.02,4,7.02,10.03,12.01,10.03,9,0,13-8.01,13-18s-4-19.03-13-19.03c-5,0-8.01,5.03-11.02,8.01-.99.99-1.98,0-.99-.99,3.01-3.01,8.01-10.98,8.01-18,0-8.01-5-18-13-18s-13,9.99-13,18c0,7.02,5,14.99,8.01,18,.99.99,0,1.98-.99.99-3.01-2.98-6.02-8.01-11.02-8.01-9,0-13,9-13,19.03s4,18,13,18c5,0,9.99-6.02,12.01-10.03.99-.99.99,0,.99,1.03-.99,7.97-.99,9.99-1.98,15.98-1.03,6.02-4,17.01-4,17.01,5-1.98,14.99-1.98,19.98,0,0,0-2.98-10.98-4-17.01-.99-5.99-.99-8.01-1.98-15.98,0-1.03,0-2.02.99-1.03Z"/><path id="path9817" d="m32,117.49c.99,2.02,3.51,5,6.02,5,4.5,0,6.48-4,6.48-9s-1.98-9.5-6.48-9.5c-2.52,0-4,2.52-5.53,4-.5.5-.99,0-.5-.5,1.52-1.49,4-5.49,4-9,0-4-2.48-9-6.48-9s-6.52,5-6.52,9c0,3.51,2.52,7.51,4,9,.5.5,0,.99-.5.5-1.49-1.49-3.01-4-5.49-4-4.5,0-6.52,4.5-6.52,9.5s2.02,9,6.52,9c2.48,0,5-2.98,5.99-5,.5-.5.5,0,.5.5-.5,4-.5,5-.99,8.01s-1.98,8.5-1.98,8.5c2.48-.99,7.48-.99,9.99,0,0,0-1.52-5.49-2.02-8.5s-.5-4-.99-8.01c0-.5,0-.99.5-.5Z"/><path id="path9819" d="m264.51,438.52c-2.02-4-7.02-10.03-12.01-10.03-9,0-13,8.01-13,18s4,19.03,13,19.03c5,0,8.01-5.03,11.02-8.01.99-.99,1.98,0,.99.99-3.01,3.01-8.01,10.98-8.01,18,0,8.01,5,18,13,18s13-9.99,13-18c0-7.02-5-14.99-8.01-18-.99-.99,0-1.98.99-.99,3.01,2.98,6.02,8.01,11.02,8.01,9,0,13-9,13-19.03s-4-18-13-18c-5,0-9.99,6.02-12.01,10.03-.99.99-.99,0-.99-1.03.99-7.97.99-9.99,1.98-15.98,1.03-6.02,4-17.01,4-17.01-5,1.98-14.99,1.98-19.98,0,0,0,2.98,10.98,4,17.01.99,5.99.99,8.01,1.98,15.98,0,1.03,0,2.02-.99,1.03Z"/><path id="path9821" d="m327.01,421.51c-.99-2.02-3.51-5-6.02-5-4.5,0-6.48,4-6.48,9s1.98,9.5,6.48,9.5c2.52,0,4-2.52,5.53-4,.5-.5.99,0,.5.5-1.52,1.49-4,5.49-4,9,0,4,2.48,9,6.48,9s6.52-5,6.52-9c0-3.51-2.52-7.51-4-9-.5-.5,0-.99.5-.5,1.49,1.49,3.01,4,5.49,4,4.5,0,6.52-4.5,6.52-9.5s-2.02-9-6.52-9c-2.48,0-5,2.98-5.99,5-.5.5-.5,0-.5-.5.5-4,.5-5,.99-8.01s1.98-8.5,1.98-8.5c-2.48.99-7.48.99-9.99,0,0,0,1.52,5.49,2.02,8.5s.5,4,.99,8.01c0,.5,0,.99-.5.5Z"/></g></svg>