<?xml version="1.0" encoding="UTF-8"?><svg id="uuid-1390627b-f7ef-4c56-b64d-4f49fe1e16ff" xmlns="http://www.w3.org/2000/svg" viewBox="0 0 359 539"><g id="uuid-727b569a-9c4f-41c3-b8e3-5dbbbab60317"><path id="uuid-de25d340-dd7e-49f6-b15a-53f221298039" d="m29.5,29.5v5h5v35c0,2.76-2.24,5-5,5s-5-2.24-5-5v-5h-5v5c0,5.52,4.48,10,10,10s10-4.48,10-10V29.5h-10Z" style="fill:#f55;"/><path id="uuid-2c724d22-c34e-40c2-ba8a-038d75fda5ae" d="m329.5,509.5v-5h-5v-35c0-2.76,2.24-5,5-5s5,2.24,5,5v5h5v-5c0-5.52-4.48-10-10-10s-10,4.48-10,10v40h10Z" style="fill:#f55;"/><path id="uuid-19b42dbc-394f-4d4c-bb13-461c3c2b0350" d="m59.5,29.5h270v360h0" style="fill:none; stroke:#55a; stroke-width:2px;"/><path id="uuid-db157312-cb4c-4609-a810-1ca29dc58a25" d="m29.5,149.5v360h270" style="fill:none; stroke:#55a; stroke-width:2px;"/><g id="uuid-9d67d4b0-3eb2-4433-b672-db1c467f785d"><g id="uuid-16afb664-c0d7-48a0-a5cd-08831f231d1f"><path id="uuid-60702ca5-3c80-428c-acf2-b5348545b773" d="m29.5,345.54l48.98,30.98" style="fill:none; stroke:#55a; stroke-linecap:round; stroke-linejoin:round; stroke-width:2px;"/><path id="uuid-d6003ca3-4c06-40bc-81df-615d1fec63bf" d="m29.5,338.16l52.69,33.82" style="fill:none; stroke:#55a; stroke-linecap:round; stroke-linejoin:round; stroke-width:2px;"/><path id="uuid-8243f84d-56e4-4d43-8e4b-e07488ed623d" d="m29.5,330.77l52.04,33.38" style="fill:none; stroke:#55a; stroke-linecap:round; stroke-linejoin:round; stroke-width:2px;"/><path id="uuid-8eb311c3-d63f-4ea8-961b-dd6d86ff70b1" d="m29.5,323.39l36.76,23.78" style="fill:none; stroke:#55a; stroke-linecap:round; stroke-linejoin:round; stroke-width:2px;"/><path id="uuid-546eefa4-03f7-4135-b7ef-ab2ad8915c85" d="m29.5,316.01l28.25,18.33" style="fill:none; stroke:#55a; stroke-linecap:round; stroke-linejoin:round; stroke-width:2px;"/><path id="uuid-874acde8-4212-44bf-adfa-491b7c6d78a8" d="m29.5,308.63l23.45,15.49" style="fill:none; stroke:#55a; stroke-linecap:round; stroke-linejoin:round; stroke-width:2px;"/><path id="uuid-bce860c8-f0cd-4da2-b708-c2efac8a76d8" d="m29.5,301.25l19.31,12" style="fill:none; stroke:#55a; stroke-linecap:round; stroke-linejoin:round; stroke-width:2px;"/><path id="uuid-bf69efc8-5b53-4422-94cf-d90d687455e1" d="m32.23,295.36l13.53,9.16" style="fill:none; stroke:#55a; stroke-linecap:round; stroke-linejoin:round; stroke-width:2px;"/><path id="uuid-a3f443a2-7799-4ea5-84d4-b47ba7986319" d="m37.46,291.65l7.85,5.45" style="fill:none; stroke:#55a; stroke-linecap:round; stroke-linejoin:round; stroke-width:2px;"/></g><path id="uuid-3c0492b7-f6fe-4826-b3df-a3ab6e15c389" d="m129.68,146.51c-5.81,3.46-11.67,6.82-17.42,10.38-9.19,5.7-18.36,11.45-27.27,17.59-6.83,4.72-13.61,9.54-20.05,14.78-6.94,5.63-13.44,11.79-20,17.86-5.24,4.85-10.29,9.89-15.44,14.83v74.97c4.72-2.93,8.71-5.29,13.43-8.22,1.35,6.68,2.22,13.61,4.19,20.2,2.23,7.43,5.08,14.72,8.59,21.64,2.88,5.68,6.4,11.05,10.17,16.18,2.78,3.78,6.03,7.19,9.12,10.73,3.53,4.05,6.87,8.2,10.74,12.01l52.91-70.08,7.56-.18,9.85-20.58,16.49.15-.47-18.43-16.29-.11-.26-20.83,18.97.11c-1.94-8.33-3.92-17.34-6.65-25.79-2.57-7.97-5.44-15.89-9.15-23.4-4.36-8.85-9.81-17.14-15.3-25.33-4.27-6.37-9.15-12.31-13.72-18.47h0Z"/><path id="uuid-181addf0-c662-462b-af6f-9dd52c7f935d" d="m193.18,60.03s10.71,1.18,16.05,1.93c4.72.66,9.43,1.38,14.12,2.25,6.88,1.27,20.54,4.33,20.54,4.33,0,0,1.11,9.1,1.77,13.64.73,5.04,1.54,10.07,2.41,15.08.7,4.07,1.02,8.25,2.25,12.2,1.2,3.86,2.44,7.92,4.97,11.07,1.63,2.03,6.26,4.65,6.26,4.65,0,0,1.7-2.31,2.89-3.05,1.57-.97,3.45-1.58,5.3-1.6,2.05-.03,4.09.72,5.94,1.6,1.79.86,3.61,1.95,4.81,3.53,1.28,1.68,2.02,3.83,2.25,5.94.24,2.2-.23,4.49-.96,6.58-.77,2.22-1.87,4.43-3.53,6.1-1.57,1.58-3.67,2.65-5.78,3.37-2.3.79-4.79,1-7.22.96-2.33-.03-4.68-.41-6.9-1.12-2.96-.96-5.81-2.38-8.34-4.17-1.82-1.29-3.33-2.98-4.81-4.65-1.47-1.66-4.01-5.3-4.01-5.3l-64.03.32s7.85-5.61,11.07-9.15c3.27-3.59,6.12-7.65,8.18-12.03,2.21-4.69,3.54-9.8,4.33-14.92.65-4.18.7-8.47.32-12.68-.35-3.97-1.24-7.9-2.41-11.71-1.39-4.54-5.46-13.16-5.46-13.16h0Z" style="fill:#ff5;"/><path id="uuid-d521df5e-45b3-40af-a4cf-798a8136c273" d="m139.95,141.7l6.77-2.76,98.58,1.66,4.17,3.45-10.16,12.52h-96.32l-3.63-5.99-4.7-6.27,5.29-2.61Z"/><path id="uuid-61ca77df-849a-4548-8a18-8fe179d96b17" d="m329.5,54.5l-.5,122.5-18.5-12-1-97.82,20-12.68Z" style="fill:#f55;"/><path id="uuid-06d97db9-95af-48c6-b3ee-99e1b490608e" d="m108.97,29.5l28.53,36s10.76-2.85,16.24-3.78c6.72-1.15,13.52-2.07,20.34-2.22,10.7-.24,21.42.74,32.05,2.06,12.62,1.57,37.51,6.94,37.51,6.94l27.94-39H108.97Z" style="fill:#f55; stroke:#55a; stroke-linecap:round; stroke-linejoin:round; stroke-width:2px;"/><path id="uuid-47667296-3154-4ce5-a59d-5aaadb0783f3" d="m125.07,30.98l17.58,26.32c7.04-2.25,11.53-2.98,20.51-3.9l-4.49-22.42h-6.22l5.56,18.88c-5.57.74-7.46.84-12.68,2.3l-13.12-21.18h-7.14Z" style="fill:#fff; stroke:#fff; stroke-linecap:round; stroke-linejoin:round; stroke-width:2px;"/><path id="uuid-a91e129c-d842-46b0-b7a6-82f8a1ebd608" d="m168.32,30.98l4.33,21.71c10.94-.94,19.4-.6,30.33.61l5.24-22.31h-7.01l-3.72,17.64c-8.59-1.09-12.71-.88-19.93-.4l-2.92-17.24h-6.32Z" style="fill:#fff; stroke:#fff; stroke-linecap:round; stroke-linejoin:round; stroke-width:2px;"/><path id="uuid-fcbec869-47a5-47e7-ae17-9c88189669e1" d="m218.85,30.98l-7.32,23.61c7.98.61,18.22,3.97,26.9,5.88l15.66-29.49h-6.88l-11.78,24.57c-4.85-1.22-12.53-3.63-17.38-4.25l6.75-20.33h-5.95Z" style="fill:#fff; stroke:#fff; stroke-linecap:round; stroke-linejoin:round; stroke-width:2px;"/><path id="uuid-666d08bd-1187-4a9d-a1c9-9f38162b1514" d="m193.84,61.02c2.05,5.88,5.04,11.51,6.15,17.63,1.12,6.19,1.19,12.62.41,18.86-.63,5.07-2.06,10.08-4.1,14.76-1.67,3.82-3.83,7.5-6.56,10.66-3.61,4.19-7.99,7.78-12.71,10.66-2.83,1.73-5.99,2.9-9.16,3.85-3.17.95-6.45,1.67-9.75,1.81-3.87.17-8.42,1.14-11.56-1.12-1.02-.74-1.33-2.21-1.53-3.45-.18-1.2.39-2.4.4-3.61,0-.89.02-1.8-.24-2.65-.28-.9-.7-1.81-1.36-2.49-.6-.62-1.9-.49-2.25-1.28-.33-.76-.05-1.86.56-2.41.98-.88,2.62-.35,3.93-.48,1.34-.14,2.68-.5,4.01-.32,1.69.23,3.15,1.21,4.82,1.77.12-.72-1.33-2.19-1.93-2.97-.68.55-2.02.5-3.05.64-1.22.17-2.46.14-3.69.24-1.07.09-2.14.33-3.21.32-.97,0-2.09.23-2.89-.32-.49-.34-.79-1.01-.8-1.61-.01-.53.41-.97.64-1.44.4-.82,1.11-1.52,1.28-2.41.31-1.58.26-3.39-.48-4.82-.68-1.31-2.07-2.19-3.37-2.89-1.57-.84-3.48-.8-5.14-1.44-1.12-.43-2.71-.52-3.21-1.61-.86-1.85.73-4.03,1.44-5.94,1.43-3.79,3.91-7.09,5.62-10.76,1.25-2.68,2.7-5.31,3.37-8.19.34-1.46.58-3.02.32-4.5-.34-1.96-1.94-3.53-2.41-5.46-.4-1.61-.21-3.32-.32-4.98" style="fill:none; stroke:#55a; stroke-linecap:round; stroke-linejoin:round; stroke-width:2px;"/><path id="uuid-b456c672-6f6b-41e1-bfc5-ffe973a67eef" d="m173.89,81.1c-4.52-3.52-8.61-6.17-13.4-8.36-3.1-1.41-6.34-2.97-9.77-3-2.15-.02-6.19.95-6.2,1.77,0,.41.81.62,1.3.73,2.27.51,4.68-.69,7.01-.45,2.82.3,5.54,1.24,8.15,2.3,4.54,1.84,9.29,4.23,12.92,7h0Z" style="fill:#55a; stroke:#55a; stroke-linecap:round; stroke-linejoin:round; stroke-width:2px;"/><path id="uuid-c29ae562-a57c-4adf-99f8-7d8a7382dcde" d="m145,78.75c1,.42,1.99.55,3,.52,1.46-.05,2.8-.91,4.25-1.02,2.75-.2,5.57.07,8.25.75,2.46.62,4.78,1.77,7,3,1.42.78,2.67,1.83,4,2.75" style="fill:none; stroke:#55a; stroke-linecap:round; stroke-linejoin:round; stroke-width:2px;"/><path id="uuid-e3b909d3-6225-4f4b-af0d-79c693cc5185" d="m147.23,81.56c1.31.29,2.6.77,3.94.88,1.75.14,3.51-.45,5.26-.29,2.24.21,4.53.66,6.57,1.61,2.84,1.32,5.06,3.7,7.59,5.55" style="fill:none; stroke:#55a; stroke-linecap:round; stroke-linejoin:round; stroke-width:2px;"/><path id="uuid-2e090dfb-a490-4426-938e-605ee8b2cd80" d="m148.4,83.16c.1,1.17-.23,2.45.29,3.5.67,1.36,2,2.39,3.36,3.07,1.46.72,3.19.94,4.82.88,1.71-.07,3.38-.66,4.96-1.31.99-.41,1.77-1.25,2.77-1.61.88-.31,1.85-.29,2.77-.44" style="fill:none; stroke:#55a; stroke-linecap:round; stroke-linejoin:round; stroke-width:2px;"/><path id="uuid-2e069eae-9f1b-4949-bb22-517d5b7fe1ad" d="m156.14,83.16c.29,1.07.92,2.1.88,3.21-.03.72-.29,1.47-.73,2.04-.5.67-1.36.97-2.04,1.46" style="fill:none; stroke:#55a; stroke-linecap:round; stroke-linejoin:round; stroke-width:2px;"/><path id="uuid-67d2742a-b108-4fa3-b827-59a42a419e36" d="m151.9,87.39c.79.04,1.53-.96,1.61-1.75.07-.74-.43-1.83-1.17-1.9-.86-.08-1.71,1.04-1.75,1.9-.04.73.58,1.72,1.31,1.75Z" style="fill:#55a; stroke:#55a; stroke-linecap:round; stroke-linejoin:round; stroke-width:2px;"/><path id="uuid-5cb56a3c-e445-4383-bf0e-11f4ba08e122" d="m148.69,89.58c1.31,1.22,2.52,2.56,3.94,3.65,1.09.84,2.25,1.61,3.5,2.19,1.16.54,2.43.78,3.65,1.17" style="fill:none; stroke:#55a; stroke-linecap:round; stroke-linejoin:round; stroke-width:2px;"/><path id="uuid-099a3f8c-2253-4dc8-a236-7151d679ac38" d="m150.3,99.8c.58.88,1.54,1.6,1.75,2.63.2,1.02-.09,2.16-.6,3.07-.46.83-1.18,1.63-2.08,1.93-.93.31-2,.03-2.92-.29-1.13-.39-1.95-1.39-3.01-1.93-.84-.43-1.69-.92-2.63-1.02-.59-.06-1.16.29-1.75.28-.53,0-1.16.05-1.58-.29-.36-.3-.72-.89-.51-1.31.32-.64,1.35-.61,2.07-.57,1.31.07,2.51.82,3.67,1.45,1.1.6,1.94,1.64,3.07,2.19.86.42,1.82,1.01,2.76.82,1.11-.22,2.07-1.16,2.64-2.14.38-.65.49-1.49.39-2.24-.14-.95-.97-1.66-1.26-2.58h0Z" style="fill:#55a; stroke:#55a; stroke-linecap:round; stroke-linejoin:round; stroke-width:2px;"/><path id="uuid-add9fa72-b04b-43b2-8ce8-7980a2a9179a" d="m162.56,107.1c1.8.68,3.83,1.22,5.21,2.27,1.08.82,1.39,2.42,1.22,3.72-.21,1.56-1.34,3.03-2.63,3.94-1.15.81-2.68.97-4.09,1.02-1.68.06-3.34-.45-4.96-.88-1.4-.37-2.69-1.08-4.09-1.46-1-.27-2.03-.62-3.07-.58-1.16.04-2.24,1.18-3.36.88-.73-.2-1.57-.85-1.61-1.61-.03-.83.87-1.51,1.61-1.9,1.25-.66,2.83-.66,4.23-.44,1.42.23,2.63,1.16,3.94,1.75,1.47.67,2.83,1.62,4.38,2.04,1.41.39,2.94.7,4.38.44,1.3-.23,2.76-.68,3.55-1.74.75-1.01.98-2.51.63-3.71-.28-.97-1.2-1.66-2.01-2.25-.98-.72-2.37-.91-3.34-1.49h0Z" style="fill:#55a; stroke:#55a; stroke-linecap:round; stroke-linejoin:round; stroke-width:2px;"/><path id="uuid-34cdb99a-8a90-4a56-9ac3-837200d925ca" d="m287,151l42.5,27.5v9.5l-47.5-31.5,5-5.5Z" style="fill:#ff5; stroke:#55a; stroke-linecap:round; stroke-linejoin:round; stroke-width:2px;"/><path id="uuid-232c7009-90d2-4d8c-945d-b8096f57d54d" d="m284,49.5c-3.83,6.33-8.34,11.5-10.62,18.12-1.96,5.69-2.65,11.88-2.38,17.88.3,6.83,1.71,13.76,4.5,20,2.34,5.23,6.67,9.33,10,14,1.5-4.83,2.17-10.01,4.5-14.5,2.14-4.11,5.18-7.77,8.5-11,1.63-1.58,3.67-2.67,5.5-4l-1-14.5c-3-1.83-6.39-3.15-9-5.5-2.65-2.39-4.89-5.32-6.5-8.5-1.88-3.72-2.33-8-3.5-12Z" style="fill:#ff5; stroke:#55a; stroke-linecap:round; stroke-linejoin:round; stroke-width:2px;"/><path id="uuid-1fb6b052-638a-4aa8-ac9e-bb62f130d6ed" d="m284.24,49.73s-4.13,11.68-4.24,17.77c-.06,3.4,2,10,2,10l-10.5,7,10.5,8s-1.86,7.65-1.5,11.5c.52,5.56,5.24,15.91,5.24,15.91,0,0,1.67-10.39,3.97-15.03,1.72-3.47,4.53-6.32,7.15-9.18,2.05-2.24,6.65-6.21,6.65-6.21v-15.5s-7.58-2.84-10.5-5.5c-2.49-2.27-4.06-5.45-5.5-8.5-1.53-3.25-3.26-10.27-3.26-10.27Z" style="fill:#ff5; stroke:#55a; stroke-linecap:round; stroke-linejoin:round; stroke-width:2px;"/><path id="uuid-35f35ca0-09c9-4123-8f02-64c5cf8536a5" d="m273.25,84.59l30.25-.22" style="fill:#ff5; stroke:#55a; stroke-linecap:round; stroke-linejoin:round; stroke-width:2px;"/><path id="uuid-5d8937bd-6e17-459a-b066-566be5564d90" d="m282,77.88l20.5-.38" style="fill:#ff5; stroke:#55a; stroke-linecap:round; stroke-linejoin:round; stroke-width:2px;"/><path id="uuid-5045e7a3-c4bf-49b5-8acc-8bff6328cc97" d="m280.64,70.25h15" style="fill:#ff5; stroke:#55a; stroke-linecap:round; stroke-linejoin:round; stroke-width:2px;"/><path id="uuid-2af72ced-fd7d-4522-9823-49d0dbbf66fb" d="m281.07,62.71l7.62-.12" style="fill:#ff5; stroke:#55a; stroke-linecap:round; stroke-linejoin:round; stroke-width:2px;"/><path id="uuid-f027641c-8afd-4e45-b104-1c30d1118cb7" d="m281.62,92l19.13-.3" style="fill:#ff5; stroke:#55a; stroke-linecap:round; stroke-linejoin:round; stroke-width:2px;"/><path id="uuid-e182e8ab-6604-4ab9-8d2d-3ea06d9b28ca" d="m281.5,99.62l11.36-.3" style="fill:#ff5; stroke:#55a; stroke-linecap:round; stroke-linejoin:round; stroke-width:2px;"/><path id="uuid-f5f910c1-f2e3-41cd-91dc-5fc9ffaa4097" d="m282.12,106.12l6.66-.02" style="fill:#ff5; stroke:#55a; stroke-linecap:round; stroke-linejoin:round; stroke-width:2px;"/><path id="uuid-d5bf3079-1412-40b2-9dc1-a8232b5f439e" d="m329.5,45.5l-26,17.5v98.5l6,3.7v-97.7l20-13v-9Z" style="fill:#ff5; stroke:#55a; stroke-linecap:round; stroke-linejoin:round; stroke-width:2px;"/><path id="uuid-85e35d22-43a7-4cc7-9fb7-3c7d49bd334a" d="m242.31,136.72l3.21,3.86-88.51-.13s4.3-.47,6.41-.9c1.82-.36,3.62-.86,5.39-1.41,1.3-.41,3.85-1.41,3.85-1.41l69.65-.02Z" style="fill:#ff5;"/><path id="uuid-7ca85711-7bf7-4107-93e3-d5f7310ca9ed" d="m142.8,156.57l96.87-.36-3.81,4.72-89.61.36-3.45-4.72Z" style="fill:#ff5;"/><path id="uuid-8bc09a36-8c5d-475c-8020-634ffc1f83b4" d="m166.75,142.6v11.61l12.7.18-.18-11.79h-12.52Z" style="fill:#ff5;"/><path id="uuid-1cd05213-ba1c-46c9-81b2-1bf43d05ea3f" d="m195.77,142.96l-.18,11.43h13.06l-.18-11.61-12.7.18Z" style="fill:#ff5;"/><path id="uuid-3611fd44-bc27-493c-8f94-0788f90cf4ec" d="m223.89,142.96v11.25h11.79l-.18-11.61-11.61.36Z" style="fill:#ff5;"/><path id="uuid-e1de6b1e-d293-4fba-9fa4-293a96bb1d67" d="m138.19,142.6h13.5l-.18,11.79-9.8.36s-1.76-2.94-2.72-4.35c-1.39-2.05-4.39-6-4.39-6l3.58-1.8Z" style="fill:#ff5;"/><path id="uuid-82e1af0c-d89c-4c59-b2f2-21cfe37d5fc7" d="m148.44,148.49c0,1.66-1.34,3-3,3s-3-1.34-3-3,1.34-3,3-3,3,1.34,3,3Z" style="fill:#ff5; stroke:#000; stroke-width:2px;"/><path id="uuid-5bf49ea6-fbb8-4086-b0a0-666095270c1c" d="m176.2,148.4c0,1.66-1.34,3-3,3s-3-1.34-3-3,1.34-3,3-3,3,1.34,3,3Z" style="fill:#ff5; stroke:#000; stroke-width:2px;"/><path id="uuid-fb0f9b9c-688d-4e77-afaf-62dcb0c900fd" d="m204.86,148.58c0,1.66-1.34,3-3,3s-3-1.34-3-3,1.34-3,3-3,3,1.34,3,3Z" style="fill:#ff5; stroke:#000; stroke-width:2px;"/><path id="uuid-eb4bb0b7-e68a-4e1d-9fc3-531e59d25f9c" d="m232.98,148.03c0,1.66-1.34,3-3,3s-3-1.34-3-3,1.34-3,3-3,3,1.34,3,3Z" style="fill:#ff5; stroke:#000; stroke-width:2px;"/><path id="uuid-774497a6-25f3-4e30-b62c-2e903a473ce0" d="m163.05,148.89c0,1.93-1.57,3.5-3.5,3.5s-3.5-1.57-3.5-3.5,1.57-3.5,3.5-3.5,3.5,1.57,3.5,3.5Z" style="fill:#ff5;"/><path id="uuid-840fc85f-d879-4374-ab64-e668f0039db1" d="m191.11,148.58c0,1.93-1.57,3.5-3.5,3.5s-3.5-1.57-3.5-3.5,1.57-3.5,3.5-3.5,3.5,1.57,3.5,3.5Z" style="fill:#ff5;"/><path id="uuid-e2d84a65-df9e-4044-a9d8-1f09dde8b642" d="m220.14,148.76c0,1.93-1.57,3.5-3.5,3.5s-3.5-1.57-3.5-3.5,1.57-3.5,3.5-3.5,3.5,1.57,3.5,3.5Z" style="fill:#ff5;"/><path id="uuid-737783c3-d44b-4c97-9963-e5a72ced1f9c" d="m246.26,148.04l-3.68,4.23c-1.27,1.46-2.77-1.39-2.77-3.32s1.57-3.5,3.5-3.5,4.23,1.14,2.96,2.59Z" style="fill:#ff5;"/><path id="uuid-9d0820db-db85-4a44-a285-98c14df9abe6" d="m146.99,161.35l89.11-.38-55.74,78.49s-3.38-15.7-5.88-23.32c-2.87-8.75-6.47-17.28-10.43-25.59-2.88-6.05-6.25-11.87-9.67-17.63-2.33-3.94-7.39-11.56-7.39-11.56h0Z" style="fill:#55a;"/><path id="uuid-daed9d1f-5ba2-486c-8645-7950318502ef" d="m166.23,171.68l46.75-.17-28.75,38.87s-2.27-8.02-3.72-11.92c-1.41-3.81-3.03-7.56-4.83-11.21-1.62-3.27-3.46-6.43-5.37-9.54-1.28-2.07-4.07-6.04-4.07-6.04h0Z" style="fill:#fff;"/><path id="uuid-e269c438-8cc8-49ab-91f0-8642566b3ef0" d="m129.56,146.68c4.04,5.25,9.74,11.98,14.03,18.39,5.3,7.91,10.12,16.15,14.41,24.65,3.68,7.31,7.05,14.81,9.67,22.56,2.9,8.58,4.36,17.32,6.64,26.35,1.52.13,4.17.06,5.69.19-.76-3.6-1.6-6.84-2.46-10.24-1.62-6.34-2.97-12.78-5.12-18.96-2.37-6.82-5.42-13.39-8.53-19.91-3.15-6.58-6.46-13.1-10.24-19.34-3.06-5.05-6.59-9.81-10.05-14.6-2.95-4.09-6.64-8.65-9.1-12.06-1.2.76-3.73,2.21-4.93,2.96h0Z" style="fill:#ff5; stroke:#000; stroke-linecap:round; stroke-linejoin:round; stroke-width:2px;"/><path id="uuid-c9243e00-04b5-492a-8212-230c9c4ab1db" d="m173.34,175.11l31.68-.11-19.48,25.91s-1.54-5.34-2.52-7.95c-.96-2.54-2.05-5.04-3.27-7.47-1.1-2.18-2.34-4.29-3.64-6.36-.86-1.38-2.76-4.02-2.76-4.02h0Z" style="fill:#55a;"/><path id="uuid-8b9edba2-d7db-4c8a-b233-67526a2d5bc7" d="m254.41,146.53l5.66,1.41,7.95.18,6.01-1.59,4.07-2.65,9.9,6.13-67.3,89.69-33.64-.53,67.35-92.63Z"/><path id="uuid-969bf079-e92f-49a2-a721-bf3a2d3e663d" d="m270.53,149.62c-.85-.03-1.45,1-1.84,1.75-1.51,2.93.8,7.34-1.41,9.78-4.46,4.94-13.71,1.32-19.38,4.81-.65.4-1.2,1.04-1.5,1.75-3.21,7.49,3,18.3-2.5,24.31-4.04,4.42-12.41.51-17.62,3.44-.7.39-1.3,1.05-1.62,1.78-3.12,7.04,2.81,17.11-2.16,23-3.52,4.17-10.99,1.7-15.81,4.25-.51.27-.97.66-1.31,1.12-1.94,2.64-3.76,5.76-3.88,9.03-.03.98.07,2.38.97,2.77.9.39,2-.49,2.69-1.18,2.09-2.09,1.3-6.19,3.53-8.12,4.23-3.65,11.46-1.39,16.19-4.38.64-.4,1.17-1.02,1.47-1.72,2.99-7.06-2.99-17.22,2.16-22.91,4.02-4.44,12.39-.53,17.62-3.44.7-.39,1.3-1.02,1.62-1.75,3.38-7.46-2.87-18.25,2.5-24.44,4.35-5.01,13.62-1.38,19.31-4.78.64-.38,1.18-.98,1.5-1.66,1.59-3.39,2.7-7.55,1.59-11.12-.31-1-1.08-2.28-2.12-2.31Z" style="fill:#ff5;"/><path id="uuid-52bf5112-a565-45d5-ae46-fb261e573fdd" d="m261.98,156.07c0,1.93-1.57,3.5-3.5,3.5s-3.5-1.57-3.5-3.5,1.57-3.5,3.5-3.5,3.5,1.57,3.5,3.5Z" style="fill:#ff5;"/><path id="uuid-266169d3-1ccc-4190-9430-dc3cd1ea04a4" d="m260.03,176.05c0,1.93-1.57,3.5-3.5,3.5s-3.5-1.57-3.5-3.5,1.57-3.5,3.5-3.5,3.5,1.57,3.5,3.5Z" style="fill:#ff5;"/><path id="uuid-69a3fe02-1ba7-45f6-8317-97871ede41e5" d="m239.53,184.89c0,1.93-1.57,3.5-3.5,3.5s-3.5-1.57-3.5-3.5,1.57-3.5,3.5-3.5,3.5,1.57,3.5,3.5Z" style="fill:#ff5;"/><path id="uuid-c9b0439f-00d8-48b9-a037-78837b6014f5" d="m238.64,206.1c0,1.93-1.57,3.5-3.5,3.5s-3.5-1.57-3.5-3.5,1.57-3.5,3.5-3.5,3.5,1.57,3.5,3.5Z" style="fill:#ff5;"/><path id="uuid-fe3792f2-6e73-4e7e-9a3d-46eba10b5e30" d="m217.96,214.41c0,1.93-1.57,3.5-3.5,3.5s-3.5-1.57-3.5-3.5,1.57-3.5,3.5-3.5,3.5,1.57,3.5,3.5Z" style="fill:#ff5;"/><path id="uuid-c89633f9-6ba9-42d6-8112-7d1b3372e664" d="m218.84,234.03c0,1.93-1.57,3.5-3.5,3.5s-3.5-1.57-3.5-3.5,1.57-3.5,3.5-3.5,3.5,1.57,3.5,3.5Z" style="fill:#ff5;"/><path id="uuid-94fd3ebf-ca9b-465a-a4f4-ec739ab976d5" d="m249,143.07l-69.2,95.93h7.58l66.92-92.71-5.31-3.22Z" style="fill:#f55; stroke:#000; stroke-linecap:round; stroke-linejoin:round; stroke-width:2px;"/><g id="uuid-9a544451-418d-446a-8103-fae5eb803029"><path id="uuid-0a354aa9-1c7a-45bd-9898-f526764cbfb2" d="m243.66,68.81c1.49,7.57,2.49,15.22,3.78,22.82,1.07,6.3,1.28,12.82,3.31,18.87,1.26,3.76,2.94,7.49,5.42,10.59,1.33,1.67,3.23,2.78,4.92,4.09" style="fill:none; stroke:#55a; stroke-linecap:round; stroke-linejoin:round; stroke-width:2px;"/><path id="uuid-8ff28f9d-9842-4fee-beed-22649cb52937" d="m236.89,67.99c1.59,9.43,2.95,18.17,4.63,27.22,1.09,5.88,1.53,11.95,3.55,17.57,2.16,6.01,4.53,12.38,9.03,16.91,3.14,3.16,7.29,6.31,11.75,6.37,1.79.02,4.53-.67,4.79-2.45.22-1.47-2.11-2.78-3.22-3.1" style="fill:none; stroke:#55a; stroke-linecap:round; stroke-linejoin:round; stroke-width:2px;"/><path id="uuid-677208b4-8ab7-45a4-8e9f-b5e2e22c8087" d="m229.72,66.15c2.2,7.16,3.21,14.58,4.51,21.94,1.39,7.83,1.18,15.99,3.5,23.6,2.27,7.44,4.81,15.3,10.04,21.07,4.08,4.5,9.54,8.94,15.59,9.43,4.3.35,9.91-1.06,12.01-4.83,1.82-3.28,1.44-9.47-1.95-11.09-2.27-1.08-7.96-1.57-6.6,3.65" style="fill:none; stroke:#55a; stroke-linecap:round; stroke-linejoin:round; stroke-width:2px;"/><path id="uuid-6a5b98bf-ab10-4001-855d-8b323ab7e7b0" d="m223.16,65.33c2.04,5.83,2.69,12.01,3.97,18.03,2.68,12.64,3.15,25.91,7.76,37.98,2.31,6.05,5.44,11.99,9.81,16.77,3.63,3.97,7.91,8.2,13.16,9.35,6.78,1.48,15.66,1.13,20.45-3.89,4.09-4.29,5.91-12.75,2.51-17.6-3.36-4.81-12.43-7.01-17.22-3.63-3.09,2.18-2.84,7.72-1.51,11.26.42,1.1,1.78,1.71,2.67,2.33" style="fill:none; stroke:#55a; stroke-linecap:round; stroke-linejoin:round; stroke-width:2px;"/><path id="uuid-a6653e89-ac85-4150-a7e5-17f40d020748" d="m216.39,63.89c1.82,5.6,3.17,11.35,4.33,17.12,2.19,10.94,1.93,22.36,4.94,33.1,1.84,6.57,5.03,13.23,7.95,18.87" style="fill:none; stroke:#55a; stroke-linecap:round; stroke-linejoin:round; stroke-width:2px;"/><path id="uuid-87c537b0-a60d-4c50-bbd8-ab88056ce265" d="m208.81,62.46c1.82,5.25,3.21,10.65,4.33,16.09,1.91,9.23,2.7,18.53,4.07,27.99,1.35,9.29,5.42,18.33,9.84,26.4" style="fill:none; stroke:#55a; stroke-linecap:round; stroke-linejoin:round; stroke-width:2px;"/><path id="uuid-61203eea-b5d2-43d1-9e50-becea6b3865b" d="m200.81,61.64c2.2,4.83,3.93,9.87,5.23,15,2.98,11.7,3.15,23.98,5.86,35.75,1.06,4.58,2.27,9.16,4.04,13.52,1.09,2.67,2.79,5.41,4.01,7.67" style="fill:none; stroke:#55a; stroke-linecap:round; stroke-linejoin:round; stroke-width:2px;"/><path id="uuid-2af29642-39ac-40fe-954a-eef9ac3604ff" d="m200.54,81.93c1.06,7,1.84,14.09,3.17,21.07,1.25,6.54,2.56,13.09,4.51,19.46,1.11,3.6,2.86,6.96,4.08,10.52" style="fill:none; stroke:#55a; stroke-linecap:round; stroke-linejoin:round; stroke-width:2px;"/><path id="uuid-f04de7df-95e2-486b-8c9f-1fa3ad28ade6" d="m198.15,108.17c.96,5.37,1.88,10.77,3.41,16.01.9,3.07,2.19,6.02,3.36,9" style="fill:none; stroke:#55a; stroke-linecap:round; stroke-linejoin:round; stroke-width:2px;"/><path id="uuid-c5d5c014-5f0c-46c2-be2c-f72bb5d8c62e" d="m193.23,119.04c.68,4.96,2,9.88,4.31,14.35" style="fill:none; stroke:#55a; stroke-linecap:round; stroke-linejoin:round; stroke-width:2px;"/><path id="uuid-2fad2cba-af36-4991-8492-886b2e4ee7f8" d="m188.51,125.19c.57,2.75,1.2,5.56,2.67,8" style="fill:none; stroke:#55a; stroke-linecap:round; stroke-linejoin:round; stroke-width:2px;"/><path id="uuid-edae7e22-5889-44c0-9e27-dcd7e3484bf2" d="m183.13,130c.42,1.25.52,2.63,1.51,3.71" style="fill:none; stroke:#55a; stroke-linecap:round; stroke-linejoin:round; stroke-width:2px;"/></g><path id="uuid-00f60d94-a458-4ece-b644-40611e17625e" d="m179.24,133.42l60.56-.15,2.57,3.54h-69.75s6.63-3.38,6.63-3.38Z"/><g id="uuid-0751ed36-223d-4337-8194-d1b07f14d560"><path id="uuid-fdfbeb29-51b8-4cef-8d96-bda9b2dac214" d="m309.5,75.95l20-13" style="fill:none; stroke:#55a; stroke-linecap:round; stroke-linejoin:round; stroke-width:2px;"/><path id="uuid-cc69184a-4824-417d-8601-89ca648bdee7" d="m309.5,83.99l20-13" style="fill:none; stroke:#55a; stroke-linecap:round; stroke-linejoin:round; stroke-width:2px;"/><path id="uuid-056bc8e2-3f54-47b6-bafc-0832b7590470" d="m309.5,92.03l20-13" style="fill:none; stroke:#55a; stroke-linecap:round; stroke-linejoin:round; stroke-width:2px;"/><path id="uuid-e08d5457-b4d1-42ae-8183-1b7c6e9277c1" d="m309.5,100.07l20-13" style="fill:none; stroke:#55a; stroke-linecap:round; stroke-linejoin:round; stroke-width:2px;"/><path id="uuid-b5bb9722-7465-43c4-80a8-7c2068f9c5a6" d="m309.5,108.12l20-13" style="fill:none; stroke:#55a; stroke-linecap:round; stroke-linejoin:round; stroke-width:2px;"/><path id="uuid-a99dc4bc-0137-4f38-855e-d582049396a4" d="m309.5,116.16l20-13" style="fill:none; stroke:#55a; stroke-linecap:round; stroke-linejoin:round; stroke-width:2px;"/><path id="uuid-14db06f0-3c93-4184-8fd2-1a4f335fe383" d="m309.5,124.2l20-13" style="fill:none; stroke:#55a; stroke-linecap:round; stroke-linejoin:round; stroke-width:2px;"/><path id="uuid-570bf967-6bf8-45b4-af07-f6e78c1750dc" d="m309.5,132.24l20-13" style="fill:none; stroke:#55a; stroke-linecap:round; stroke-linejoin:round; stroke-width:2px;"/><path id="uuid-da92feee-7f76-4e5c-97c7-cdd64ec5a507" d="m309.5,140.29l20-13" style="fill:none; stroke:#55a; stroke-linecap:round; stroke-linejoin:round; stroke-width:2px;"/><path id="uuid-0b6eee00-3f8d-41de-be7e-edbd63dd045e" d="m309.5,148.33l20-13" style="fill:none; stroke:#55a; stroke-linecap:round; stroke-linejoin:round; stroke-width:2px;"/><path id="uuid-c75c6dd1-f2c6-4d73-98b9-3594d8f04539" d="m309.5,156.37l20-13" style="fill:none; stroke:#55a; stroke-linecap:round; stroke-linejoin:round; stroke-width:2px;"/><path id="uuid-d84e0f1f-4237-44e6-8ca4-1aa3dca988d8" d="m309.5,164.41l20-13" style="fill:none; stroke:#55a; stroke-linecap:round; stroke-linejoin:round; stroke-width:2px;"/><path id="uuid-8df6f2b7-b025-4393-ae47-db73d7f3f986" d="m315.5,168.46l14-9" style="fill:none; stroke:#55a; stroke-linecap:round; stroke-linejoin:round; stroke-width:2px;"/><path id="uuid-956cc534-f65f-4aa3-b341-6dc39f87f5e3" d="m321.5,172.5l8-5" style="fill:none; stroke:#55a; stroke-linecap:round; stroke-linejoin:round; stroke-width:2px;"/></g><path id="uuid-d6ec394e-f039-4f78-a996-f35a3c676cdd" d="m123.72,152.91c-.94.03-1.57,1.19-1.91,2.06-1.13,2.97-.76,6.49.16,9.53.2.66.61,1.29,1.12,1.75,5.27,4.73,15.18,3.54,19,9.5,4.05,6.32-1.21,15.26.75,22.5.15.57.45,1.12.84,1.56,3.96,4.51,12.35,4.95,14.62,10.5,2.21,5.4-2.91,11.42-2.97,17.25,0,.42.06.85.19,1.25.87,2.72,1.75,5.75,3.91,7.62.73.63,1.87,1.39,2.73.95s.92-1.8.84-2.76c-.23-2.62-3.2-4.43-3.59-7.03-.9-5.96,3.75-11.82,3.09-17.81-.08-.71-.37-1.41-.81-1.97-3.79-4.79-12-5.3-14.88-10.69-3.56-6.67,1.53-15.47-.75-22.69-.21-.65-.61-1.26-1.12-1.72-5.29-4.71-15.23-3.5-19-9.5-1.47-2.35.98-5.77-.12-8.31-.39-.88-1.13-2.03-2.09-2Z" style="fill:#ff5;"/><path id="uuid-5f1351a7-ad84-42d1-ba2e-0793bef40fac" d="m135.46,159.58c0,1.93-1.57,3.5-3.5,3.5s-3.5-1.57-3.5-3.5,1.57-3.5,3.5-3.5,3.5,1.57,3.5,3.5Z" style="fill:#ff5;"/><path id="uuid-bec55aa5-631c-4f10-906f-606d8684b8c2" d="m139.88,179.93c0,1.93-1.57,3.5-3.5,3.5s-3.5-1.57-3.5-3.5,1.57-3.5,3.5-3.5,3.5,1.57,3.5,3.5Z" style="fill:#ff5;"/><path id="uuid-49ae0119-df03-4c0f-839f-2eb9a1389943" d="m156.47,192.53c0,1.93-1.57,3.5-3.5,3.5s-3.5-1.57-3.5-3.5,1.57-3.5,3.5-3.5,3.5,1.57,3.5,3.5Z" style="fill:#ff5;"/><path id="uuid-04cab4f1-a90d-40bf-b008-321ffe71a4b5" d="m155.81,213.76c0,1.93-1.57,3.5-3.5,3.5s-3.5-1.57-3.5-3.5,1.57-3.5,3.5-3.5,3.5,1.57,3.5,3.5Z" style="fill:#ff5;"/><path id="uuid-6c0e551a-ce0a-43e0-9549-d4eef3aeaad6" d="m169.96,227.69c0,1.93-1.57,3.5-3.5,3.5s-3.5-1.57-3.5-3.5,1.57-3.5,3.5-3.5,3.5,1.57,3.5,3.5Z" style="fill:#ff5;"/><path id="uuid-8dbfd396-aaa6-4e12-9814-3c9b0659b3d7" d="m112.88,156.97l-3.33,2.03s9.28,11.85,12.79,16.97c3.11,4.52,5.91,9.3,8.53,14.19,3.57,6.65,6.71,13.59,9.81,20.56,2.39,5.37,6.81,16.5,6.81,16.5l3.72-1.47s-4.43-11.09-6.91-16.66c-3.11-6.99-6.28-14-9.94-20.81-2.67-4.96-5.5-9.87-8.72-14.56-3.8-5.53-12.78-16.75-12.78-16.75h0Z" style="fill:#ff5;"/><path id="uuid-6b2bf8d5-e18c-4b50-9159-9717aacba576" d="m108.38,163.51c-3.12,2.25-6.09,4.08-9.59,6.91-1.51,1.22-1.87,3.09-1.81,4.75.05,1.66.51,3.3.91,4.59.71,2.32,2.2,4.56,4.47,5.81,1.11.61,2.43,1.15,3.84,1.34s2.97.09,4.28-.81c3.24-2.22,6.31-4.24,9.53-6.22l-1.56-2.56c-3.27,2.01-6.39,4.07-9.66,6.31-.45.31-1.21.45-2.16.31s-2.03-.55-2.84-1c-1.37-.76-2.56-2.41-3.06-4.06-.36-1.18-.71-2.63-.75-3.81-.04-1.18.22-1.94.72-2.34,3.35-2.7,6.22-4.46,9.44-6.78l-1.75-2.44Z" style="fill:#ff5;"/><path id="uuid-49bcb6d8-44b6-48dd-b8f2-ef016a78385a" d="m122.22,183.42c-3.1,1.73-6.46,3.08-9.75,5.44-1.3.94-1.96,2.36-2.28,3.75s-.32,2.82-.19,4.06c.28,2.6,1.61,5.13,3.69,6.78,1.09.86,2.48,1.73,4,2.25s3.3.77,4.84-.19c2.93-1.82,5.72-3.06,9.12-5.03l-1.5-2.59c-3.27,1.89-6.1,3.15-9.22,5.09-.38.24-1.2.25-2.28-.12s-2.28-1.08-3.12-1.75c-1.35-1.07-2.38-3.03-2.56-4.78-.1-.97-.09-2.09.12-3.03.22-.94.61-1.6,1.12-1.97,2.94-2.11,6.17-3.43,9.47-5.28l-1.47-2.62Z" style="fill:#ff5;"/><path id="uuid-810b15a9-04a8-42b1-9e19-9e046f1a1f83" d="m133.97,203.73c-3.72,1.78-5.71,2.91-10.31,6.09-1.29.89-1.92,2.3-2.25,3.66s-.36,2.72-.22,3.94c.33,2.92,1.78,6.04,4.44,7.75,1.12.72,2.43,1.42,3.97,1.69,1.51.26,3.24,0,4.84-1l.03.03,8.41-4.81-1.5-2.59-8.38,4.78s-.04.02-.06.03c-1.02.65-1.88.76-2.81.59s-1.94-.65-2.88-1.25c-1.62-1.04-2.82-3.4-3.06-5.53-.1-.92-.09-2.03.12-2.94s.6-1.56,1.06-1.88c4.54-3.15,6.25-4.09,9.91-5.84l-1.31-2.72h0Z" style="fill:#ff5;"/><path id="uuid-bbca1171-eb89-4059-b26a-ea5731492adc" d="m148.81,222.44s-10.76,6.23-16,10.19c-4.86,3.66-9.41,7.93-13.52,12.7-4.23,4.92-7.99,10.4-10.69,16.41-2.63,5.85-4.44,11.76-5.36,17.96-.79,5.33-.82,10.74-.47,16.03.34,5.06,1.65,9.38,3.21,14.39,2.17,6.92,9.67,19.96,9.67,19.96l2.61-3.4s-6.64-11.9-8.47-17.75c-1.42-4.54-2.73-8.56-3.06-13.48-.34-5.09-.3-10.2.44-15.16.89-5.97,2.66-11.55,5.08-16.92,2.5-5.56,6.02-10.75,10.06-15.44,3.78-4.39,8.1-8.49,12.89-12.11,4.73-3.57,15.62-9.91,15.62-9.91l-2.03-3.47Z" style="fill:#ff5;"/><path id="uuid-4391ed3e-40c3-495b-be8c-f45d6bf0453b" d="m88.18,172.9l-3.15,2.24s8.22,9.42,11.5,13.73c2.66,3.5,5.19,7.12,7.41,10.88,4.33,7.32,8.12,14.97,11.59,22.78,1.52,3.42,3.69,9.61,4.16,10.91-1.33,1.38-7.89,8.21-11.25,13.03-3.66,5.25-7.05,10.88-9.31,17.03-2.56,6.94-4.28,14.35-4.53,21.84-.3,8.81,1.08,17.69,3.59,26.06,2.69,8.95,12.36,25.52,12.36,25.52l2.58-3.43s-8.76-15.43-11.09-23.22c-2.41-8.02-3.72-16.52-3.44-24.81.23-6.96,1.84-13.97,4.28-20.59,2.09-5.68,5.3-11.03,8.84-16.12,3.22-4.62,11.72-13.47,11.72-13.47.52-.53.71-1.36.47-2.06,0,0-2.87-8.15-4.72-12.31-3.52-7.92-7.38-15.7-11.81-23.19-2.32-3.92-4.93-7.66-7.66-11.25-3.53-4.65-11.54-13.57-11.54-13.57Z" style="fill:#ff5;"/><path id="uuid-f25b39b0-b3ba-4b3f-b5da-067185bd736b" d="m99.91,192.91s-2.51,18.33-5.41,26.56c-3.36,9.55-8.27,18.62-13.97,27.06-5.31,7.87-12.1,14.8-18.81,21.78-4.9,5.09-9.89,10.07-15.38,14.38-4.59,3.6-16.84,10.81-16.84,10.81v4s13.69-8.55,18.69-12.47c5.67-4.45,10.76-9.5,15.69-14.62,6.7-6.97,13.61-14.02,19.12-22.19,5.81-8.61,10.87-17.93,14.34-27.78,3.17-9.01,5.53-27.16,5.53-27.16l-2.97-.38Z" style="fill:#ff5;"/><path id="uuid-f42e56f1-3a01-4a06-8864-c951b52bb06d" d="m66.65,188.46s-.48,13.45-1.87,18.82c-1.71,6.61-3.95,13.12-7.12,19.03-3.47,6.47-7.98,12.43-12.97,17.94-3.74,4.12-15.19,12.44-15.19,12.44v5.04s13.83-10.01,18.16-14.79c5.15-5.68,9.86-11.91,13.53-18.75,3.38-6.3,5.7-13.1,7.47-19.91,1.6-6.18,2-22.77,2-22.77l-4,2.95Z" style="fill:#ff5;"/><path id="uuid-9c700a43-a891-4678-a63f-0307151259ee" d="m89.62,183.19c-5.53,1.74-12.27,3.31-15.38,8.22-.47.74-.54,1.85-.12,2.62,2.18,4.06,8.63,3.8,11.88,7.06,2.45,2.47,6.25,5.66,5.28,9-.85,2.94-5.21,3.4-8.16,4.22-4.1,1.14-9.36-1.73-12.75.84-.72.55-1.12,1.68-.91,2.56.85,3.52,6.01,4.35,7.91,7.44,2.03,3.31,5.28,7.86,3.28,11.19-1.7,2.83-6.41,2.01-9.72,2-3.81-.01-7.61-3.69-11.19-2.38-.85.31-1.58,1.25-1.66,2.16-.35,4.03,4.57,6.85,5.62,10.75.85,3.17,2.73,7.49.44,9.84-2.42,2.47-7,.52-10.38-.22-3.54-.77-6.4-4.92-9.97-4.31-.89.15-1.76.97-2,1.84-1.26,4.62,3.98,8.96,4.19,13.75.11,2.64.42,6.12-1.66,7.75-1.76,1.37-4.51.28-6.69-.22-1.17-.27-2.16-1.9-3.28-1.47-.93.36-1.55,1.82-1.19,2.75.51,1.29,2.46,1.35,3.81,1.66,2.76.62,5.79,1.14,8.47.25.61-.2,1.16-.65,1.5-1.19,1.73-2.8,2.13-6.37,2.03-9.66-.11-3.83-5.89-8.54-3.03-11.09,1.93-1.72,4.66,2.36,7.19,2.88,4.06.83,8.59,1.8,12.44.25.67-.27,1.27-.86,1.53-1.53,1.46-3.75.49-8.16-.5-12.06-.75-2.97-5.88-5.81-4.03-8.25,1.7-2.25,5.52,1.54,8.34,1.5,4.02-.05,8.54-.1,11.81-2.44.6-.43,1.03-1.17,1.12-1.91.57-4.62-1.6-9.38-3.94-13.41-1.29-2.22-6.23-3.13-5.34-5.53,1.09-2.93,6.34,0,9.34-.88,3.61-1.06,7.65-2.27,10.03-5.19.46-.56.69-1.37.59-2.09-.54-4.19-3.49-7.88-6.44-10.91-2.74-2.82-10.14-2.35-10-6.28.17-4.84,11.32-2.24,12.81-6.84.31-.95-.36-2.99-1.31-2.69Z" style="fill:#ff5;"/><path id="uuid-25678008-d11a-459a-8bb8-c5d5bc24c9d2" d="m73.94,198.66c-.94.35-1.48,1.85-1.12,2.78.71,1.89,3.77,1.54,5.41,2.72,1,.72,2.95,1.41,2.62,2.59-.33,1.2-2.39.77-3.62.88-1.95.16-4.32-1.66-5.84-.44-.78.62-1.06,2.19-.44,2.97,1.37,1.7,4.36.65,6.53.47,2.31-.19,5.08-.02,6.75-1.62.6-.58.9-1.6.69-2.41-.58-2.23-3.04-3.53-4.91-4.88-1.84-1.32-3.94-3.86-6.06-3.06Z" style="fill:#ff5;"/><path id="uuid-e562cd8c-0258-4099-91d5-de9197a66c6c" d="m93.34,189.22c-2.39,1.38-3.79,1.71-6.62,3.53-.64.41-.33,1.65.09,2.28.41.62,1.38.58,2.03.94.99.55,2.07,1.02,2.84,1.84.6.64.9,1.52,1.28,2.31.25.54.12,1.41.66,1.66.76.35,2.02-.05,2.38-.81.28-.6-.43-1.25-.72-1.84-.51-1.05-.98-2.18-1.78-3.03-.94-1-3.48-.94-3.41-2.31.09-1.66,3.91-.75,4.41-2.34.25-.8-.43-2.64-1.16-2.22Z" style="fill:#ff5;"/><path id="uuid-e32905d7-3c75-4319-9260-c0074105c343" d="m89.84,216.31c-.82-.11-1.3,1.02-2,1.47-1.08.69-2.15,1.48-3.38,1.88-.42.14-.87.13-1.31.16-.3.02-.65-.16-.91,0-.65.39-1.09,1.25-1.06,2,.05,1.3,1.57,2.09,2.09,3.28.65,1.46-.11,3.79,1.25,4.62.71.44,2,.21,2.44-.5.93-1.51-.7-3.5-1.41-5.12-.3-.7-1.51-1.25-1.19-1.94.13-.27.6-.03.88-.12,1.44-.48,2.72-1.37,4-2.19.74-.47,2-.69,2.12-1.56.11-.82-.71-1.85-1.53-1.97Z" style="fill:#ff5;"/><path id="uuid-1edb93a2-f0d3-49d8-ad6f-3ce9d68c89f7" d="m82.91,178.92c-1.55-.02-2.14,1.87-3.39,2.63-1.23.74-3.44.66-3.98,1.84-.36.78.03,2.06.97,2.36,1.72.55,3.35-1.32,4.84-2.22,1.36-.82,3.67-1.47,3.69-2.87.01-.83-1.13-1.73-2.12-1.74Z" style="fill:#ff5;"/><path id="uuid-43ad9522-3bdb-4b25-bbf8-668fdc1c6323" d="m68.03,221.81c-.3.96-1.88,1.48-1.72,2.47.11.65,1.08.77,1.59,1.19.79.65,1.64,1.26,2.28,2.06.74.92,1.23,2.01,1.75,3.06.04.07.13.15.09.22-.04.06-.15.03-.22.03-1.17.08-2.37.17-3.53,0-.9-.13-1.76-.48-2.62-.78-.56-.19-1.11-.88-1.66-.66-.92.38-1.57,1.83-1.19,2.75.24.59,1.18.51,1.78.72,1.07.37,2.13.78,3.25.94,1.38.2,2.79.1,4.19.03.81-.04,1.73.19,2.41-.25.66-.42,1.14-1.25,1.19-2.03.05-.82-.6-1.52-.97-2.25-.63-1.26-1.24-2.56-2.12-3.66-.79-.98-1.81-1.76-2.78-2.56-.55-.46-1.08-1.6-1.72-1.28,0,0,0,0,0,0Z" style="fill:#ff5;"/><path id="uuid-a1587bd4-e59f-4741-9dfd-95afee50d6c8" d="m55.81,242.56c-.98-.23-2.28.71-2.5,1.69-.34,1.47,1.71,2.51,2.28,3.91.58,1.42,2.2,3.37,1.12,4.47-.71.73-2.01-.34-2.97-.69-1.47-.53-2.69-2.54-4.19-2.09-.96.29-1.79,1.64-1.5,2.59.5,1.66,3.03,1.72,4.66,2.31,1.86.68,3.87,1.94,5.78,1.41.79-.22,1.53-.95,1.75-1.75.67-2.45-.92-5.02-1.88-7.38-.64-1.59-.89-4.08-2.56-4.47Z" style="fill:#ff5;"/><path id="uuid-6ea35e5a-30db-472b-8785-20bd399d9963" d="m38.72,258.81c-.88-.46-2.36.12-2.81,1-.94,1.83,1.37,3.91,1.69,5.94.18,1.15,1.04,2.78.12,3.5-.96.76-2.47-1.57-3.53-.97-.87.49-1.3,2.01-.81,2.88.94,1.67,3.65,1.88,5.53,1.53.78-.14,1.57-.69,1.91-1.41.86-1.81.07-4.02-.25-6-.36-2.21.15-5.44-1.84-6.47Z" style="fill:#ff5;"/><path id="uuid-5319dea0-782d-4bfc-a16c-822c8c7d353f" d="m76.69,242.53c-1-.29-1.76,1.19-2.78,1.41-1.05.22-2.22-.59-3.22-.19-.71.29-1.72.94-1.56,1.69.5,2.28,2.15,5.43,1.44,6.97-.35.76,1.94.75,2.5.12,1.34-1.5-2.21-4.38-.97-5.97.51-.65,1.67,0,2.47-.22,1.22-.34,3.04-.45,3.41-1.66.24-.8-.48-1.92-1.28-2.16Z" style="fill:#ff5;"/><path id="uuid-c1acc9e5-2ac0-4710-9eb1-f2fe8ab7259a" d="m52.22,264c-.61-.2-.95.95-1.12,1.56-.64,2.24-1.05,5.21.47,6.97.54.63,1.79,1.06,2.44.53,1.58-1.29-1.58-4.72-.09-6.12,1.52-1.44,4.94,2.05,6.28.44.53-.64,0-1.86-.62-2.41-1.73-1.52-4.57-.52-6.84-.88-.17-.03-.39.04-.5-.09,0,0,0,0,0,0Z" style="fill:#ff5;"/><path id="uuid-d064b582-1571-41c9-a486-e41a45ec253b" d="m33.66,282.44c-.27.79-1.77,1.17-1.53,1.97.31,1.06,2.04.9,3.12,1.09.77.14,1.75.54,2.34.03.63-.54.85-1.84.31-2.47-.55-.64-1.7.08-2.53-.06-.59-.1-1.23-.92-1.72-.56,0,0,0,0,0,0Z" style="fill:#ff5;"/><path id="uuid-cbfe15ce-dedb-4f3c-aa55-674c7a7c7e76" d="m112.03,168.36c-2.45,1.82-5.1,3.01-7.88,5.91-1.31,1.36-1.2,3.29-.44,4.5.52.83,1.29,1.31,2.12,1.62s1.76.47,2.72-.03c3.48-1.83,5.06-3.21,7.81-5.09l-1.41-2.06c-2.85,1.95-4.27,3.24-7.56,4.97.09-.05-.28.03-.69-.12s-.82-.48-.91-.62c-.29-.47-.42-.87.12-1.44,2.45-2.55,4.88-3.61,7.59-5.62-.54-.64-1.03-1.31-1.5-2Z" style="fill:#ff5;"/><path id="uuid-667efae1-2ab8-49bd-ac35-c2454a042814" d="m124.75,188.92c-2.03,1.13-4.36,1.48-7,3.25-1.04.7-1.58,1.81-1.78,2.94s-.08,2.33.62,3.34c.64.92,1.62,1.29,2.56,1.44s1.94.11,2.81-.47c2.41-1.59,3.84-1.98,6.34-3.81l-1.47-2.03c-2.27,1.66-3.63,2.03-6.25,3.75-.09.06-.6.17-1.06.09-.46-.07-.84-.31-.91-.41-.17-.25-.3-.86-.19-1.47s.43-1.14.69-1.31c2.17-1.45,4.36-1.74,6.84-3.12l-1.22-2.19h0Z" style="fill:#ff5;"/><path id="uuid-53b18845-1681-4a68-8000-bca88f2f0562" d="m136.25,208.98s-5.26,2.5-8.44,4.66c-1.07.73-1.31,1.87-1.34,2.94-.04,1.07.18,2.2,1,3.09,1.54,1.68,4.07,1.56,5.97.44,2.08-1.22,6.62-4.09,6.62-4.09l-1.34-2.09s-4.59,2.87-6.56,4.03c-1.07.63-2.39.53-2.84.03-.11-.12-.36-.73-.34-1.31.02-.58.35-1.03.25-.97,2.85-1.94,8.09-4.47,8.09-4.47l-1.06-2.25h0Z" style="fill:#ff5;"/><path id="uuid-ab2d0311-bbe7-4c36-9365-dfffb9ca4f95" d="m46.34,284.8c1.47,8.19,2.27,15.86,4.56,23.42,2.44,8.04,5.7,15.87,9.64,23.29,2.85,5.38,6.31,10.45,10.04,15.26,5.29,6.83,11.91,13.17,17.4,19.2" style="fill:none; stroke:#ff5; stroke-linejoin:round; stroke-width:4px;"/><path id="uuid-f69d9dbb-33cd-45bc-bc45-0116564c8963" d="m155.08,251.71c-4.55,3.2-9.16,8.26-11.98,11.88-2.36,3.03-4.69,6.31-6.28,10.06-1.74,4.11-2.73,8.5-3.19,12.84-.48,4.56-.57,10.92,1.66,16.81l2.75-4.09c-.45-2.94-.81-8.46-.41-12.31.43-4.03,1.33-8.04,2.88-11.69,1.36-3.21,3.46-6.25,5.75-9.19,2.51-3.22,4.89-6.92,8.91-9.25l-.08-5.07Z" style="fill:#ff5;"/><g id="uuid-ffd6ec41-fdaa-47ed-b29e-981c1a0e3090"><path id="uuid-477fdceb-f4a7-4852-bdf8-329c795008c4" d="m141.37,241.3c0,1.93-1.57,3.5-3.5,3.5s-3.5-1.57-3.5-3.5,1.57-3.5,3.5-3.5,3.5,1.57,3.5,3.5Z" style="fill:#ff5;"/><path id="uuid-650f343d-a20b-489e-bed1-94c5d9c59c59" d="m149.1,242.21c0,1.93-1.57,3.5-3.5,3.5s-3.5-1.57-3.5-3.5,1.57-3.5,3.5-3.5,3.5,1.57,3.5,3.5Z" style="fill:#ff5;"/><path id="uuid-b1299b4f-ada3-45f2-8c33-ea064adab6d6" d="m141.37,249.14c0,1.93-1.57,3.5-3.5,3.5s-3.5-1.57-3.5-3.5,1.57-3.5,3.5-3.5,3.5,1.57,3.5,3.5Z" style="fill:#ff5;"/></g><g id="uuid-e2387833-d04f-4d38-900a-a7743a97ed84"><path id="uuid-5607c021-54af-46f4-9a80-d04dde4ccd93" d="m126.88,256.04c.55,1.85-.51,3.8-2.37,4.35s-3.8-.51-4.35-2.37.51-3.8,2.37-4.35,3.8.51,4.35,2.37Z" style="fill:#ff5;"/><path id="uuid-a626494b-6b7f-41ba-979d-671a2a56f280" d="m134.55,254.73c.55,1.85-.51,3.8-2.37,4.35s-3.8-.51-4.35-2.37.51-3.8,2.37-4.35,3.8.51,4.35,2.37Z" style="fill:#ff5;"/><path id="uuid-d55f3c3f-c0d2-4a97-9063-d16962aa8377" d="m129.1,263.57c.55,1.85-.51,3.8-2.37,4.35s-3.8-.51-4.35-2.37.51-3.8,2.37-4.35,3.8.51,4.35,2.37Z" style="fill:#ff5;"/></g><g id="uuid-8d2766b9-a768-4562-93c6-32c156689ace"><path id="uuid-2b618577-af3f-48b1-92d7-d76397002edf" d="m119.29,276.59c.9,1.71.25,3.83-1.46,4.73s-3.83.25-4.73-1.46-.25-3.83,1.46-4.73,3.83-.25,4.73,1.46Z" style="fill:#ff5;"/><path id="uuid-241f5c81-dcc3-4441-8e4d-e8cd3a859b04" d="m126.54,273.79c.9,1.71.25,3.83-1.46,4.73s-3.83.25-4.73-1.46-.25-3.83,1.46-4.73,3.83-.25,4.73,1.46Z" style="fill:#ff5;"/><path id="uuid-d353da81-f1fd-455e-b6eb-02ff724b41af" d="m122.95,283.53c.9,1.71.25,3.83-1.46,4.73s-3.83.25-4.73-1.46-.25-3.83,1.46-4.73,3.83-.25,4.73,1.46Z" style="fill:#ff5;"/></g><g id="uuid-cba26ccf-4001-42ce-a2e7-8e2edc6666a1"><path id="uuid-8ca4fac0-342d-4082-98bf-cc658a86c1c2" d="m117.68,301.53c1.66.99,2.21,3.13,1.22,4.8s-3.13,2.21-4.8,1.22-2.21-3.13-1.22-4.8,3.13-2.21,4.8-1.22Z" style="fill:#ff5;"/><path id="uuid-76c272e3-8111-4978-89ed-2e031e44de7c" d="m122.41,295.36c1.66.99,2.21,3.13,1.22,4.8s-3.13,2.21-4.8,1.22-2.21-3.13-1.22-4.8,3.13-2.21,4.8-1.22Z" style="fill:#ff5;"/><path id="uuid-408996b8-2810-4f85-b4e9-88da8f81f542" d="m124.43,305.54c1.66.99,2.21,3.13,1.22,4.8s-3.13,2.21-4.8,1.22-2.21-3.13-1.22-4.8,3.13-2.21,4.8-1.22Z" style="fill:#ff5;"/></g><path id="uuid-1352359e-541b-4cf8-b5f9-bf5d56c70f52" d="m155.63,241.44l12.68.2-4.87,10.96h4.87l5.68-10.75h13.19l-4.67,10.55h5.48l4.87-10.75h14.2l-4.87,10.96h4.46l-2.64,4.87-8.72-.61,5.07-10.35h-4.67l-5.28,10.75-14.61-.41,4.67-9.94h-4.46l-5.28,10.55-14.2-.41,5.68-10.55-4.26-.2-2.33,3.65v-8.52Z" style="fill:#55a;"/><path id="uuid-4e655d46-f694-4065-9082-36c414ac8085" d="m151.07,251.38l-8.32-4.46,3.86,8.72,4.46-4.26Z" style="fill:#ff5;"/><path id="uuid-5a6c023d-07bc-47bd-83bc-ab9ad09469ca" d="m138.98,263.84l-8.93-3.06,5.21,7.99,3.72-4.93Z" style="fill:#ff5;"/><path id="uuid-9801c90e-0f7c-4361-b9f4-070d7ac7fc63" d="m131.6,280.13l-9.41.74,7.96,5.26,1.46-6Z" style="fill:#ff5;"/><path id="uuid-c2c6e650-eea5-481e-8721-c889890c5486" d="m130.4,297.33l-7.19,6.11,9.53-.4-2.34-5.71Z" style="fill:#ff5;"/><path id="uuid-82baf03a-918a-46c2-889d-5321c04c04be" d="m107.37,230.19l8.34,4.42-3.9-8.7-4.44,4.29Z" style="fill:#ff5;"/><path id="uuid-319d7a39-26ba-4345-9984-4ca75b4a9361" d="m97.6,242.02l9.06,2.65-5.57-7.74-3.49,5.09Z" style="fill:#ff5;"/><path id="uuid-49e898b2-c106-4b8d-8a30-a814cbd74821" d="m89.85,256.96l9.42.62-7.12-6.35-2.3,5.73Z" style="fill:#ff5;"/><path id="uuid-08485b3c-8e4f-4daa-8338-78b86e90b7cf" d="m84.91,273.43l9.33-1.42-8.32-4.66-1.01,6.09Z" style="fill:#ff5;"/><path id="uuid-bbd18222-84fa-44cc-a322-5d369819ca5e" d="m83.14,288.43l8.96-2.96-8.98-3.21.02,6.17Z" style="fill:#ff5;"/><path id="uuid-0f62a464-ff5c-48a2-9a6d-4fe069b602d3" d="m84.35,303.51l8.41-4.29-9.37-1.8.96,6.1Z" style="fill:#ff5;"/><path id="uuid-04c911f0-bc9a-4b32-a4b7-f1fdb090b155" d="m88.66,318.55l7.03-6.3-9.52.65,2.49,5.65Z" style="fill:#ff5;"/><path id="uuid-9925d61d-2928-4f7d-a8a0-bce00ceead77" d="m94.39,332.27l7.03-6.3-9.52.65,2.49,5.65Z" style="fill:#ff5;"/><path id="uuid-366c6841-029a-4efa-b1b2-59533dadf212" d="m101.38,344.38l6.03-7.26-9.32,2.04,3.28,5.22Z" style="fill:#ff5;"/><path id="uuid-48906a85-30f3-4a93-9fba-0a670e216197" d="m36.07,220.81c4.75-4.24,8.94-8.71,13.71-12.73,4-3.38,8.32-6.37,12.48-9.55-.24,1.7-.36,3.41-.71,5.09-.45,2.15-1.19,4.24-1.78,6.37-3.45,2.02-6.75,4.24-10.34,6.05-2.41,1.21-4.92,2.3-7.49,3.18-1.91.66-3.73,1.06-5.86,1.59Z" style="fill:#f55; stroke:#f55; stroke-linecap:round; stroke-linejoin:round; stroke-width:2px;"/><path id="uuid-1f4e7c9d-1795-4381-9328-9919708291c2" d="m34.63,225.79c3.23-1.08,6.51-2.04,9.69-3.23,2.23-.84,4.47-1.68,6.59-2.75,2.35-1.19,4.48-2.71,6.72-4.07-.39,1.63-.47,3.36-1.16,4.9-.58,1.31-1.64,2.39-2.45,3.59-2.32.68-4.59,1.59-6.97,2.03-2.25.42-4.56.72-6.85.6-1.89-.1-3.7-.72-5.55-1.08h0Z" style="fill:#f55; stroke:#f55; stroke-linecap:round; stroke-linejoin:round; stroke-width:2px;"/><path id="uuid-d0058ef1-b812-4192-83ad-f325868aad19" d="m34.49,229.9c2.35.12,4.69.35,7.04.36,1.65.01,3.3.02,4.94-.19,1.82-.23,3.6-.79,5.39-1.19-.7,1.17-1.24,2.5-2.11,3.51-.74.86-1.71,1.39-2.56,2.09-1.66-.16-3.35-.13-4.99-.49-1.54-.34-3.09-.8-4.5-1.58-1.17-.64-2.14-1.67-3.21-2.51h0Z" style="fill:#f55; stroke:#f55; stroke-linecap:round; stroke-linejoin:round; stroke-width:2px;"/><path id="uuid-44ea4eac-0d72-4145-91d4-0792bd319b59" d="m33.99,234.31c1.63.81,3.21,1.7,4.88,2.42,1.17.51,2.34,1.02,3.58,1.36,1.37.37,2.83.49,4.25.73-.91.69-1.75,1.55-2.72,2.06-.82.44-1.7.55-2.55.83-1.12-.63-2.34-1.12-3.37-1.9-.98-.73-1.92-1.56-2.65-2.59-.61-.85-.94-1.94-1.41-2.91Z" style="fill:#f55; stroke:#f55; stroke-linecap:round; stroke-linejoin:round; stroke-width:2px;"/><path id="uuid-9bf61232-0154-4197-94d7-f13e0196e536" d="m32.79,240.46c.96.83,1.88,1.72,2.87,2.48.69.53,1.39,1.07,2.14,1.45.84.43,1.75.63,2.62.95-.64.54-1.25,1.23-1.91,1.61-.56.32-1.12.36-1.69.54-.66-.64-1.38-1.15-1.97-1.91-.55-.71-1.07-1.5-1.45-2.46-.31-.79-.42-1.77-.63-2.65h0Z" style="fill:#f55; stroke:#f55; stroke-linecap:round; stroke-linejoin:round; stroke-width:2px;"/><path id="uuid-2b665204-3678-4cb0-bb16-4e3da12c38a3" d="m103.69,202.7c1.26,2.6,2.88,5.36,4.2,8.1,1.57,3.24,2.96,6.55,4.44,9.83-2.96,3.01-6.17,5.79-8.89,9.02-3.83,4.56-7.4,9.38-10.37,14.54-3.04,5.29-5.62,10.9-7.54,16.7-1.79,5.41-2.92,11.05-3.64,16.7-.62,4.95-.75,9.97-.54,14.95.24,5.51.87,11.03,2.02,16.43,1.02,4.82,2.55,9.53,4.31,14.14,1.83,4.8,3.91,9.54,6.46,14,2.11,3.7,4.85,7,7.27,10.5l-11.04,14.95c-4.8-5.48-9.92-10.69-14.41-16.43-4.41-5.64-8.75-11.4-12.25-17.64-2.79-4.96-4.94-10.27-6.91-15.61-1.61-4.35-2.9-8.82-4-13.33-1.1-4.51-1.62-9.85-2.57-13.69,2.98-2.82,8.57-8.05,12.71-12.23,4.36-4.41,8.83-8.74,12.75-13.54,5.49-6.72,10.57-13.82,15.01-21.28,3.15-5.29,6.08-10.78,8.19-16.57,2.3-6.3,3.77-12.83,4.79-19.53Z" style="fill:#f55;"/><path id="uuid-d73a378e-2aa2-4150-83d2-1293b25f66d4" d="m146.43,138.93c-4.47,1.43-8.54,3.09-12.6,5.09-7.91,3.9-15.28,8.8-22.79,13.41-8.5,5.21-17.01,10.41-25.2,16.09-6.61,4.58-13.05,9.42-19.3,14.48-7.28,5.9-14.3,12.13-21.18,18.5-5.43,5.03-10.93,10.37-15.85,15.55" style="fill:none; stroke:#55a; stroke-linecap:round; stroke-linejoin:round; stroke-width:2px;"/><path id="uuid-fa075e66-6047-4f83-8592-e6af1b664da4" d="m162.88,267.02s.27-1.67.8-2.2c.53-.53,1.45-.8,2.2-.8s1.67.27,2.2.8c.53.53.8,1.45.8,2.2s-.4,1.8-.8,2.2c-.4.4-.8.6-1.2,1s-.6.4-1,.8c-.4.4-.6.6-1,1s-1,1.2-1.4,2-.6,2-.6,2c0,0-.2-1.2-.6-2-.4-.8-1-1.6-1.4-2s-.6-.6-1-1-.6-.4-1-.8c-.4-.4-.8-.6-1.2-1s-.8-1.45-.8-2.2.27-1.67.8-2.2c.53-.53,1.45-.8,2.2-.8s1.67.27,2.2.8c.53.53.8,2.2.8,2.2Z" style="fill:#f55;"/><path id="uuid-5cff564e-7ece-4f22-a4b2-e9c7e99c1c71" d="m71.27,183.83c-.77-3.24-.72-6.79-2.3-9.72-1.47-2.71-3.75-5.07-6.36-6.72-1.62-1.02-3.56-1.72-5.48-1.77-2.02-.05-4.01.73-5.83,1.59-1.76.83-3.28,2.11-4.77,3.36-1.15.97-2.61,1.8-3.18,3.18-.34.82-.37,1.85,0,2.65.52,1.14,1.68,1.98,2.83,2.47,1.09.47,2.4.69,3.54.35,1.09-.32,1.81-1.37,2.65-2.12.99-.89,1.89-1.89,2.83-2.83.18.65.12,1.42.53,1.94.75.95,2.12,1.18,3.18,1.77-.94.88-2.14,1.56-2.83,2.65-.73,1.15-1.1,2.54-1.24,3.89-.18,1.71-.15,3.55.53,5.13.71,1.65,2.36,2.71,3.54,4.07" style="fill:none; stroke:#55a; stroke-linecap:round; stroke-linejoin:round; stroke-width:2px;"/><path id="uuid-1054b307-8344-4265-8690-481753135517" d="m47.53,170.17c.98-.55,2.72.96,3.06,2.16.33,1.17-.58,2.48-1.41,3.36-.95.99-2.47,1.18-3.71,1.77" style="fill:none; stroke:#55a; stroke-linecap:round; stroke-linejoin:round; stroke-width:2px;"/><path id="uuid-46171897-f8d0-49ab-b71e-19177689dd36" d="m53.59,165.44c-1.83-1.94-3.08-4.67-5.48-5.83-1.22-.59-2.76-.73-4.07-.35-1.42.4-2.74,1.41-3.54,2.65-.59.91-.92,2.12-.71,3.18.24,1.2,1.27,2.12,2.12,3.01,1.08,1.12,2.47,1.89,3.71,2.83" style="fill:none; stroke:#55a; stroke-linecap:round; stroke-linejoin:round; stroke-width:2px;"/><path id="uuid-43251e87-b606-4ef7-8c1e-c5beafd216f9" d="m40.34,167.03c-1.18.12-2.47-.17-3.54.35-1.01.5-2.01,1.39-2.3,2.47-.34,1.28.2,2.75.88,3.89,1.36,2.25,3.88,3.58,6.01,5.13,1.9,1.39,3.9,2.67,6.01,3.71,1.19.59,2.42,1.72,3.71,1.41,1.1-.26,1.98-1.39,2.3-2.47.18-.63-.08-1.34-.35-1.94-.27-.61-.82-1.06-1.24-1.59" style="fill:none; stroke:#55a; stroke-linecap:round; stroke-linejoin:round; stroke-width:2px;"/><path id="uuid-33cf1076-7263-476c-80d4-5a09e947f59c" d="m47.02,179.06c-.62.32-.93,1.26-1.26,2.14" style="fill:none; stroke:#55a; stroke-linecap:round; stroke-linejoin:round; stroke-width:2px;"/><path id="uuid-ac5fbd88-04e5-4258-ade5-b20cdf3d325e" d="m36.45,176.4c-1,.82-2.36,1.35-3.01,2.47-.54.93-.86,2.16-.53,3.18.28.87,1.32,1.28,1.94,1.94.86.91,1.48,2.07,2.47,2.83,1.2.91,2.63,1.51,4.07,1.94,1.54.47,3.18.9,4.77.71,1.08-.13,2.4-.34,3.01-1.24.52-.78.36-1.96,0-2.83-.38-.92-1.26-1.62-2.12-2.12-.95-.55-2.11-1.14-3.18-.88-.93.22-1.67,1.1-2.12,1.94-.37.68-.46,1.53-.35,2.3.1.71.59,1.3.88,1.94" style="fill:none; stroke:#55a; stroke-linecap:round; stroke-linejoin:round; stroke-width:2px;"/><path id="uuid-1249e90d-3a66-4a57-8331-b07e7d28205c" d="m34.5,185.77c-.65.53-1.59.83-1.94,1.59-.35.75-.3,1.7,0,2.47.57,1.48,1.86,2.66,3.18,3.54,1.51,1,3.37,1.33,5.13,1.77,1.1.27,2.31.96,3.36.53.74-.31,1.27-1.16,1.41-1.94.15-.84-.18-1.8-.71-2.47-.67-.85-1.75-1.51-2.83-1.59-.82-.06-1.7.32-2.3.88-.52.49-.76,1.24-.88,1.94-.12.7.12,1.41.18,2.12" style="fill:none; stroke:#55a; stroke-linecap:round; stroke-linejoin:round; stroke-width:2px;"/><path id="uuid-f788fde7-085b-4c3e-b8f1-bf9a55aa57e4" d="m40.87,199.56l2.12,3.18,3.36,2.3" style="fill:none; stroke:#55a; stroke-linecap:round; stroke-linejoin:round; stroke-width:2px;"/><path id="uuid-333baddf-8017-4f1d-b6be-fbf6d093cbb7" d="m36.62,194.79c-.47,1.89-1.15,3.73-1.41,5.66-.28,2.04-.12,4.12-.18,6.19,1.53-.06,3.06-.12,4.6-.18-.06-2.18-.37-4.37-.18-6.54.13-1.44.59-2.83.88-4.24-1.24-.29-2.47-.59-3.71-.88h0Z" style="fill:#ff5; stroke:#55a; stroke-linecap:round; stroke-linejoin:round; stroke-width:2px;"/><path id="uuid-519da4ce-408d-429c-a880-82f9cf81d544" d="m49.17,159.25c1.59-2.59,2.6-5.65,4.77-7.78,2.59-2.53,5.9-4.47,9.37-5.48,2.89-.84,6.01-.29,9.02-.35,3.59-.07,7.22.5,10.78,0,2.73-.39,5.43-1.19,7.95-2.3,1.77-.78,3.61-1.62,4.95-3.01.75-.78,1.06-1.89,1.59-2.83-.24,2.47.01,5.04-.71,7.42-.83,2.75-2.24,5.38-4.07,7.6-2.08,2.52-4.67,4.74-7.6,6.19-2.55,1.26-5.49,1.58-8.31,2-4.03.6-8.13.57-12.2.71-2.3.08-4.66-.47-6.89.06-1.85.44-3.42,1.36-5.13,2.54-1.18-1.59-2.36-3.18-3.54-4.77h0Z" style="fill:#ff5; stroke:#55a; stroke-linecap:round; stroke-linejoin:round; stroke-width:2px;"/><path id="uuid-3963b2b2-6801-481d-a774-2b021807f239" d="m88.55,147.32l-5.18,3.56-.05-1.09-6.88,1.93,1.07-1.68-10.34,2.4c-.06,0,1.41-1.59,1.35-1.57l-10.08,3.04c-.23.04.24-1.32.06-1.18l-7.9,8.09.59.66,8.89-4.57-1.52-.44,8.97-.72-.82-.72,10.85.4-1.4-.86c.11-.01,10.31-1.97,10.41-2l-1.78-.53c1.27-.7,4.04-1.35,5.03-1.95.99-.6-1-.47-.94-.51l3.71-3.11-3.98,1.85-.05-.99Z" style="fill:#55a; stroke:#55a; stroke-linecap:round; stroke-linejoin:round;"/></g><g id="uuid-fbe47de2-4f0b-40e6-ab92-6332fa839e51"><g id="uuid-c509641e-3a65-4867-9314-befc83401e8f"><path id="uuid-80ea0af4-4f02-4ff5-8451-81eedde9b60d" d="m329.5,200.84l-53.44-35.3" style="fill:none; stroke:#55a; stroke-linejoin:round; stroke-width:2px;"/><path id="uuid-0fb5119d-f8fe-4866-83b6-55576dc08d5d" d="m329.5,193.46l-50.17-32.39" style="fill:none; stroke:#55a; stroke-linejoin:round; stroke-width:2px;"/><path id="uuid-2dbde21d-5aa2-4954-abb8-48455835cc60" d="m329.5,208.23l-52.04-33.38" style="fill:none; stroke:#55a; stroke-linecap:round; stroke-linejoin:round; stroke-width:2px;"/><path id="uuid-c7789a4c-40bf-46a7-a206-ff2c64da929e" d="m329.5,215.61l-36.76-23.78" style="fill:none; stroke:#55a; stroke-linecap:round; stroke-linejoin:round; stroke-width:2px;"/><path id="uuid-21b9719a-1417-4dfe-b755-64c7cef4b27a" d="m329.5,222.99l-28.25-18.33" style="fill:none; stroke:#55a; stroke-linecap:round; stroke-linejoin:round; stroke-width:2px;"/><path id="uuid-804eb2bf-0821-4911-9899-e23f4679a70b" d="m329.5,230.37l-23.45-15.49" style="fill:none; stroke:#55a; stroke-linecap:round; stroke-linejoin:round; stroke-width:2px;"/><path id="uuid-eaf19861-ea57-492e-b82d-ebd409fd0ee3" d="m329.5,237.75l-19.31-12" style="fill:none; stroke:#55a; stroke-linecap:round; stroke-linejoin:round; stroke-width:2px;"/><path id="uuid-d71cbf20-4e35-47d2-a3ba-65b6f4a59052" d="m326.77,243.64l-13.53-9.16" style="fill:none; stroke:#55a; stroke-linecap:round; stroke-linejoin:round; stroke-width:2px;"/><path id="uuid-40d1569f-5011-44a4-ad88-14d7e7e96f86" d="m321.54,247.35l-7.85-5.45" style="fill:none; stroke:#55a; stroke-linecap:round; stroke-linejoin:round; stroke-width:2px;"/></g><path id="uuid-5144e8df-df50-4f8e-9fee-5c034b18b0fa" d="m229.32,392.49c5.81-3.46,11.67-6.82,17.42-10.38,9.19-5.7,18.36-11.45,27.27-17.59,6.83-4.72,13.61-9.54,20.05-14.78,6.94-5.63,13.44-11.79,20-17.86,5.24-4.85,10.29-9.89,15.44-14.83v-74.97c-4.72,2.93-8.71,5.29-13.43,8.22-1.35-6.68-2.22-13.61-4.19-20.2-2.23-7.43-5.08-14.72-8.59-21.64-2.88-5.68-6.4-11.05-10.17-16.18-2.78-3.78-6.03-7.19-9.12-10.73-3.53-4.05-6.87-8.2-10.74-12.01l-52.91,70.08-7.56.18-9.85,20.58-16.49-.15.47,18.43,16.29.11.26,20.63-18.12.7c1.94,8.33,3.26,16.95,5.81,25.18,2.47,8,5.44,15.89,9.15,23.4,4.36,8.85,9.81,17.14,15.3,25.33,4.27,6.37,9.15,12.31,13.72,18.47h0Z"/><path id="uuid-5eb112e3-43d8-4ee7-a590-2ea1f741af92" d="m165.82,478.97s-10.71-1.18-16.05-1.93c-4.72-.66-9.43-1.38-14.12-2.25-6.88-1.27-20.54-4.33-20.54-4.33,0,0-1.11-9.1-1.77-13.64-.73-5.04-1.54-10.07-2.41-15.08-.7-4.07-1.02-8.25-2.25-12.2-1.2-3.86-2.44-7.92-4.97-11.07-1.63-2.03-6.26-4.65-6.26-4.65,0,0-1.7,2.31-2.89,3.05-1.57.97-3.45,1.58-5.3,1.6-2.05.03-4.09-.72-5.94-1.6-1.79-.86-3.61-1.95-4.81-3.53-1.28-1.68-2.02-3.83-2.25-5.94-.24-2.2.23-4.49.96-6.58.77-2.22,1.87-4.43,3.53-6.1,1.57-1.58,3.67-2.65,5.78-3.37,2.3-.79,4.79-1,7.22-.96,2.33.03,4.68.41,6.9,1.12,2.96.96,5.81,2.38,8.34,4.17,1.82,1.29,3.33,2.98,4.81,4.65,1.47,1.66,4.01,5.3,4.01,5.3l64.03-.32s-7.85,5.61-11.07,9.15c-3.27,3.59-6.12,7.65-8.18,12.03-2.21,4.69-3.54,9.8-4.33,14.92-.65,4.18-.7,8.47-.32,12.68.35,3.97,1.24,7.9,2.41,11.71,1.39,4.54,5.46,13.16,5.46,13.16h0Z" style="fill:#ff5;"/><path id="uuid-adb0653c-7aa3-4bc7-90f5-a9348557c0f0" d="m219.05,397.3l-6.77,2.76-98.58-1.66-4.17-3.45,10.16-12.52h96.32l3.63,5.99,4.7,6.27-5.29,2.61Z"/><path id="uuid-b6c9ecc1-6a22-453a-81c7-b19ff25bcfed" d="m29.5,484.5l.5-122.5,18.5,12,1,97.82-20,12.68Z" style="fill:#f55;"/><path id="uuid-5a0a156b-c0a1-4737-ad1b-21fbfd48060d" d="m250.03,509.5l-28.53-36s-10.76,2.85-16.24,3.78c-6.72,1.15-13.52,2.07-20.34,2.22-10.7.24-21.42-.74-32.05-2.06-12.62-1.57-37.51-6.94-37.51-6.94l-27.94,39h162.62Z" style="fill:#f55; stroke:#55a; stroke-linecap:round; stroke-linejoin:round; stroke-width:2px;"/><path id="uuid-d09c1ca8-939e-41a0-8dc6-54a5b9c9ce16" d="m233.93,508.02l-17.58-26.32c-7.04,2.25-11.53,2.98-20.51,3.9l4.49,22.42h6.22l-5.56-18.88c5.57-.74,7.46-.84,12.68-2.3l13.12,21.18h7.14Z" style="fill:#fff; stroke:#fff; stroke-linecap:round; stroke-linejoin:round; stroke-width:2px;"/><path id="uuid-65e6443b-d0b3-4f83-a3db-e457dc255509" d="m190.68,508.02l-4.33-21.71c-10.94.94-19.4.6-30.33-.61l-5.24,22.31h7.01l3.72-17.64c8.59,1.09,12.71.88,19.93.4l2.92,17.24h6.32Z" style="fill:#fff; stroke:#fff; stroke-linecap:round; stroke-linejoin:round; stroke-width:2px;"/><path id="uuid-c4edc193-dee3-493c-be96-5c0c68d0c56f" d="m140.15,508.02l7.32-23.61c-7.98-.61-18.22-3.97-26.9-5.88l-15.66,29.49h6.88l11.78-24.57c4.85,1.22,12.53,3.63,17.38,4.25l-6.75,20.33h5.95Z" style="fill:#fff; stroke:#fff; stroke-linecap:round; stroke-linejoin:round; stroke-width:2px;"/><path id="uuid-d175cd14-3aed-4777-8cfd-f83d50a736d1" d="m165.16,477.98c-2.05-5.88-5.04-11.51-6.15-17.63-1.12-6.19-1.19-12.62-.41-18.86.63-5.07,2.06-10.08,4.1-14.76,1.67-3.82,3.83-7.5,6.56-10.66,3.61-4.19,7.99-7.78,12.71-10.66,2.83-1.73,5.99-2.9,9.16-3.85,3.17-.95,6.45-1.67,9.75-1.81,3.87-.17,8.42-1.14,11.56,1.12,1.02.74,1.33,2.21,1.53,3.45.18,1.2-.39,2.4-.4,3.61,0,.89-.02,1.8.24,2.65.28.9.7,1.81,1.36,2.49.6.62,1.9.49,2.25,1.28.33.76.05,1.86-.56,2.41-.98.88-2.62.35-3.93.48-1.34.14-2.68.5-4.01.32-1.69-.23-3.15-1.21-4.82-1.77-.12.72,1.33,2.19,1.93,2.97.68-.55,2.02-.5,3.05-.64,1.22-.17,2.46-.14,3.69-.24,1.07-.09,2.14-.33,3.21-.32.97,0,2.09-.23,2.89.32.49.34.79,1.01.8,1.61.01.53-.41.97-.64,1.44-.4.82-1.11,1.52-1.28,2.41-.31,1.58-.26,3.39.48,4.82.68,1.31,2.07,2.19,3.37,2.89,1.57.84,3.48.8,5.14,1.44,1.12.43,2.71.52,3.21,1.61.86,1.85-.73,4.03-1.44,5.94-1.43,3.79-3.91,7.09-5.62,10.76-1.25,2.68-2.7,5.31-3.37,8.19-.34,1.46-.58,3.02-.32,4.5.34,1.96,1.94,3.53,2.41,5.46.4,1.61.21,3.32.32,4.98" style="fill:none; stroke:#55a; stroke-linecap:round; stroke-linejoin:round; stroke-width:2px;"/><path id="uuid-1512419d-e3b9-43e2-a3dd-9ee888fd98dc" d="m185.11,457.9c4.52,3.52,8.61,6.17,13.4,8.36,3.1,1.41,6.34,2.97,9.77,3,2.15.02,6.19-.95,6.2-1.77,0-.41-.81-.62-1.3-.73-2.27-.51-4.68.69-7.01.45-2.82-.3-5.54-1.24-8.15-2.3-4.54-1.84-9.29-4.23-12.92-7h0Z" style="fill:#55a; stroke:#55a; stroke-linecap:round; stroke-linejoin:round; stroke-width:2px;"/><path id="uuid-0a5dd60d-3677-44ab-895d-99551d96edde" d="m214,460.25c-1-.42-1.99-.55-3-.52-1.46.05-2.8.91-4.25,1.02-2.75.2-5.57-.07-8.25-.75-2.46-.62-4.78-1.77-7-3-1.42-.78-2.67-1.83-4-2.75" style="fill:none; stroke:#55a; stroke-linecap:round; stroke-linejoin:round; stroke-width:2px;"/><path id="uuid-927853c3-0345-4549-9ff1-d8d5834a17d1" d="m211.77,457.44c-1.31-.29-2.6-.77-3.94-.88-1.75-.14-3.51.45-5.26.29-2.24-.21-4.53-.66-6.57-1.61-2.84-1.32-5.06-3.7-7.59-5.55" style="fill:none; stroke:#55a; stroke-linecap:round; stroke-linejoin:round; stroke-width:2px;"/><path id="uuid-7a090564-c560-4ea0-b5ee-51a9b29b8c04" d="m210.6,455.84c-.1-1.17.23-2.45-.29-3.5-.67-1.36-2-2.39-3.36-3.07-1.46-.72-3.19-.94-4.82-.88-1.71.07-3.38.66-4.96,1.31-.99.41-1.77,1.25-2.77,1.61-.88.31-1.85.29-2.77.44" style="fill:none; stroke:#55a; stroke-linecap:round; stroke-linejoin:round; stroke-width:2px;"/><path id="uuid-04b14d40-805f-41a7-9cbe-096ac758e870" d="m202.86,455.84c-.29-1.07-.92-2.1-.88-3.21.03-.72.29-1.47.73-2.04.5-.67,1.36-.97,2.04-1.46" style="fill:none; stroke:#55a; stroke-linecap:round; stroke-linejoin:round; stroke-width:2px;"/><path id="uuid-9bd1a7d5-ef55-4544-a42e-a3318032d705" d="m207.1,451.61c-.79-.04-1.53.96-1.61,1.75-.07.74.43,1.83,1.17,1.9.86.08,1.71-1.04,1.75-1.9.04-.73-.58-1.72-1.31-1.75Z" style="fill:#55a; stroke:#55a; stroke-linecap:round; stroke-linejoin:round; stroke-width:2px;"/><path id="uuid-49f6a730-1ace-4a7a-bd93-b259a92e9205" d="m210.31,449.42c-1.31-1.22-2.52-2.56-3.94-3.65-1.09-.84-2.25-1.61-3.5-2.19-1.16-.54-2.43-.78-3.65-1.17" style="fill:none; stroke:#55a; stroke-linecap:round; stroke-linejoin:round; stroke-width:2px;"/><path id="uuid-58127d76-1af2-4720-a17b-d78819bc56d2" d="m208.7,439.2c-.58-.88-1.54-1.6-1.75-2.63-.2-1.02.09-2.16.6-3.07.46-.83,1.18-1.63,2.08-1.93.93-.31,2-.03,2.92.29,1.13.39,1.95,1.39,3.01,1.93.84.43,1.69.92,2.63,1.02.59.06,1.16-.29,1.75-.28.53,0,1.16-.05,1.58.29.36.3.72.89.51,1.31-.32.64-1.35.61-2.07.57-1.31-.07-2.51-.82-3.67-1.45-1.1-.6-1.94-1.64-3.07-2.19-.86-.42-1.82-1.01-2.76-.82-1.11.22-2.07,1.16-2.64,2.14-.38.65-.49,1.49-.39,2.24.14.95.97,1.66,1.26,2.58h0Z" style="fill:#55a; stroke:#55a; stroke-linecap:round; stroke-linejoin:round; stroke-width:2px;"/><path id="uuid-e2a93b1b-0d6b-43bc-8256-f46f284743fc" d="m196.44,431.9c-1.8-.68-3.83-1.22-5.21-2.27-1.08-.82-1.39-2.42-1.22-3.72.21-1.56,1.34-3.03,2.63-3.94,1.15-.81,2.68-.97,4.09-1.02,1.68-.06,3.34.45,4.96.88,1.4.37,2.69,1.08,4.09,1.46,1,.27,2.03.62,3.07.58,1.16-.04,2.24-1.18,3.36-.88.73.2,1.57.85,1.61,1.61.03.83-.87,1.51-1.61,1.9-1.25.66-2.83.66-4.23.44-1.42-.23-2.63-1.16-3.94-1.75-1.47-.67-2.83-1.62-4.38-2.04-1.41-.39-2.94-.7-4.38-.44-1.3.23-2.76.68-3.55,1.74-.75,1.01-.98,2.51-.63,3.71.28.97,1.2,1.66,2.01,2.25.98.72,2.37.91,3.34,1.49h0Z" style="fill:#55a; stroke:#55a; stroke-linecap:round; stroke-linejoin:round; stroke-width:2px;"/><path id="uuid-8303b57b-c437-4709-b828-2452ae99a914" d="m72,388l-42.5-27.5v-9.5l47.5,31.5-5,5.5Z" style="fill:#ff5; stroke:#55a; stroke-linecap:round; stroke-linejoin:round; stroke-width:2px;"/><path id="uuid-00b5e519-a38b-452d-a96c-acbc06616302" d="m75,489.5c3.83-6.33,8.34-11.5,10.62-18.12,1.96-5.69,2.65-11.88,2.38-17.88-.3-6.83-1.71-13.76-4.5-20-2.34-5.23-6.67-9.33-10-14-1.5,4.83-2.17,10.01-4.5,14.5-2.14,4.11-5.18,7.77-8.5,11-1.63,1.58-3.67,2.67-5.5,4l1,14.5c3,1.83,6.39,3.15,9,5.5,2.65,2.39,4.89,5.32,6.5,8.5,1.88,3.72,2.33,8,3.5,12Z" style="fill:#ff5; stroke:#55a; stroke-linecap:round; stroke-linejoin:round; stroke-width:2px;"/><path id="uuid-bbd1bb24-548d-4be7-8ab0-1cb5fd967c7f" d="m74.76,489.27s4.13-11.68,4.24-17.77c.06-3.4-2-10-2-10l10.5-7-10.5-8s1.86-7.65,1.5-11.5c-.52-5.56-5.24-15.91-5.24-15.91,0,0-1.67,10.39-3.97,15.03-1.72,3.47-4.53,6.32-7.15,9.18-2.05,2.24-6.65,6.21-6.65,6.21v15.5s7.58,2.84,10.5,5.5c2.49,2.27,4.06,5.45,5.5,8.5,1.53,3.25,3.26,10.27,3.26,10.27Z" style="fill:#ff5; stroke:#55a; stroke-linecap:round; stroke-linejoin:round; stroke-width:2px;"/><path id="uuid-be89e0e8-9f02-4091-8d99-fee17d0c7381" d="m85.75,454.41l-30.25.22" style="fill:#ff5; stroke:#55a; stroke-linecap:round; stroke-linejoin:round; stroke-width:2px;"/><path id="uuid-2f4ff3f6-debb-4f70-8a51-776d96b7952b" d="m77,461.12l-20.5.38" style="fill:#ff5; stroke:#55a; stroke-linecap:round; stroke-linejoin:round; stroke-width:2px;"/><path id="uuid-1951a25e-603c-44f9-b4e4-aeca8dad1846" d="m78.36,468.75h-15" style="fill:#ff5; stroke:#55a; stroke-linecap:round; stroke-linejoin:round; stroke-width:2px;"/><path id="uuid-33d06923-7636-4933-b2cb-2d8c80d4d4eb" d="m77.93,476.29l-7.62.12" style="fill:#ff5; stroke:#55a; stroke-linecap:round; stroke-linejoin:round; stroke-width:2px;"/><path id="uuid-b7bd8503-79eb-4bf0-9bea-ba9083557072" d="m77.38,447l-19.13.3" style="fill:#ff5; stroke:#55a; stroke-linecap:round; stroke-linejoin:round; stroke-width:2px;"/><path id="uuid-e6066939-ae71-40b1-913b-61e702782494" d="m77.5,439.38l-11.36.3" style="fill:#ff5; stroke:#55a; stroke-linecap:round; stroke-linejoin:round; stroke-width:2px;"/><path id="uuid-bc1c61e9-41ce-4deb-9709-4f55dc4749dd" d="m76.88,432.88l-6.66.02" style="fill:#ff5; stroke:#55a; stroke-linecap:round; stroke-linejoin:round; stroke-width:2px;"/><path id="uuid-f9b8aee9-d7a4-468f-827f-227560d427f2" d="m29.5,493.5l26-17.5v-98.5l-6-3.7v97.7l-20,13v9Z" style="fill:#ff5; stroke:#55a; stroke-linecap:round; stroke-linejoin:round; stroke-width:2px;"/><path id="uuid-dec08650-bfda-4cff-a5fa-1314fb3adeb9" d="m116.69,402.28l-3.21-3.86,88.51.13s-4.3.47-6.41.9c-1.82.36-3.62.86-5.39,1.41-1.3.41-3.85,1.41-3.85,1.41l-69.65.02Z" style="fill:#ff5;"/><path id="uuid-1b1ccfab-0fb3-4bde-81c0-962d78690679" d="m216.2,382.43l-96.87.36,3.81-4.72,89.61-.36,3.45,4.72Z" style="fill:#ff5;"/><path id="uuid-0688a2f0-0e21-419e-9774-bafd0085cee4" d="m192.25,396.4v-11.61l-12.7-.18.18,11.79h12.52Z" style="fill:#ff5;"/><path id="uuid-6b3d2253-9ad1-4bfb-acf3-352aedac8535" d="m163.23,396.04l.18-11.43h-13.06l.18,11.61,12.7-.18Z" style="fill:#ff5;"/><path id="uuid-1b5508cb-9e8a-485d-bfc2-ee0e70a677af" d="m135.11,396.04v-11.25h-11.79l.18,11.61,11.61-.36Z" style="fill:#ff5;"/><path id="uuid-4cd7a45f-f418-4681-b898-f5ef2a490233" d="m220.81,396.4h-13.5l.18-11.79,9.8-.36s1.76,2.94,2.72,4.35c1.39,2.05,4.39,6,4.39,6l-3.58,1.8Z" style="fill:#ff5;"/><path id="uuid-368f5052-eabf-429f-9886-da4d0ac75b08" d="m210.56,390.51c0-1.66,1.34-3,3-3s3,1.34,3,3-1.34,3-3,3-3-1.34-3-3Z" style="fill:#ff5; stroke:#000; stroke-width:2px;"/><path id="uuid-5ef8117b-a659-4c9b-8512-57071b24cbf4" d="m182.8,390.6c0-1.66,1.34-3,3-3s3,1.34,3,3-1.34,3-3,3-3-1.34-3-3Z" style="fill:#ff5; stroke:#000; stroke-width:2px;"/><path id="uuid-b46b31c4-c224-4d24-912b-96b69f075157" d="m154.14,390.42c0-1.66,1.34-3,3-3s3,1.34,3,3-1.34,3-3,3-3-1.34-3-3Z" style="fill:#ff5; stroke:#000; stroke-width:2px;"/><path id="uuid-c3f00c93-fa32-4132-9b34-c75231c4c3fc" d="m126.02,390.97c0-1.66,1.34-3,3-3s3,1.34,3,3-1.34,3-3,3-3-1.34-3-3Z" style="fill:#ff5; stroke:#000; stroke-width:2px;"/><path id="uuid-f873f654-eb2c-4c1d-8495-6d45c9df221c" d="m195.95,390.11c0-1.93,1.57-3.5,3.5-3.5s3.5,1.57,3.5,3.5-1.57,3.5-3.5,3.5-3.5-1.57-3.5-3.5Z" style="fill:#ff5;"/><path id="uuid-8c90c501-0342-4a8d-8675-76b8b6885476" d="m167.89,390.42c0-1.93,1.57-3.5,3.5-3.5s3.5,1.57,3.5,3.5-1.57,3.5-3.5,3.5-3.5-1.57-3.5-3.5Z" style="fill:#ff5;"/><path id="uuid-5e1243fa-6a6e-4647-b8f7-2aa7858ddcaf" d="m138.86,390.24c0-1.93,1.57-3.5,3.5-3.5s3.5,1.57,3.5,3.5-1.57,3.5-3.5,3.5-3.5-1.57-3.5-3.5Z" style="fill:#ff5;"/><path id="uuid-70b34adc-d8ad-42bf-87e4-70ef3b9f97cc" d="m112.74,390.96l3.68-4.23c1.27-1.46,2.77,1.39,2.77,3.32s-1.57,3.5-3.5,3.5-4.23-1.14-2.96-2.59Z" style="fill:#ff5;"/><path id="uuid-e86a44e6-9321-4985-8790-2e15ffa2b8e9" d="m212.01,377.65l-89.11.38,55.74-78.49s3.38,15.7,5.88,23.32c2.87,8.75,6.47,17.28,10.43,25.59,2.88,6.05,6.25,11.87,9.67,17.63,2.33,3.94,7.39,11.56,7.39,11.56h0Z" style="fill:#55a;"/><path id="uuid-c789bd33-909c-4b8b-bfc2-2090e6cb9561" d="m192.77,367.32l-46.75.17,28.75-38.87s2.27,8.02,3.72,11.92c1.41,3.81,3.03,7.56,4.83,11.21,1.62,3.27,3.46,6.43,5.37,9.54,1.28,2.07,4.07,6.04,4.07,6.04h0Z" style="fill:#fff;"/><path id="uuid-a42781fe-2f59-4638-b40f-05b846db3661" d="m229.44,392.32c-4.04-5.25-9.74-11.98-14.03-18.39-5.3-7.91-10.12-16.15-14.41-24.65-3.68-7.31-7.05-14.81-9.67-22.56-2.9-8.58-4.36-17.32-6.64-26.35-1.52-.13-4.17-.06-5.69-.19.76,3.6,1.6,6.84,2.46,10.24,1.62,6.34,2.97,12.78,5.12,18.96,2.37,6.82,5.42,13.39,8.53,19.91,3.15,6.58,6.46,13.1,10.24,19.34,3.06,5.05,6.59,9.81,10.05,14.6,2.95,4.09,6.64,8.65,9.1,12.06,1.2-.76,3.73-2.21,4.93-2.96h0Z" style="fill:#ff5; stroke:#000; stroke-linecap:round; stroke-linejoin:round; stroke-width:2px;"/><path id="uuid-70d7d384-8d83-4a61-9ba6-c50d85484bb2" d="m185.66,363.89l-31.68.11,19.48-25.91s1.54,5.34,2.52,7.95c.96,2.54,2.05,5.04,3.27,7.47,1.1,2.18,2.34,4.29,3.64,6.36.86,1.38,2.76,4.02,2.76,4.02h0Z" style="fill:#55a;"/><path id="uuid-6f6cef97-1ed9-4592-9eda-70dcbcbc4e1e" d="m104.59,392.47l-5.66-1.41-7.95-.18-6.01,1.59-4.07,2.65-10.66-6.36,68.06-89.95,33.64.53-67.35,93.13Z"/><path id="uuid-1eb6a8b7-5fa0-42a3-ae74-ec3b69d4327a" d="m88.47,389.38c.85.03,1.45-1,1.84-1.75,1.51-2.93-.8-7.34,1.41-9.78,4.46-4.94,13.71-1.32,19.38-4.81.65-.4,1.2-1.04,1.5-1.75,3.21-7.49-3-18.3,2.5-24.31,4.04-4.42,12.41-.51,17.62-3.44.7-.39,1.3-1.05,1.62-1.78,3.12-7.04-2.81-17.11,2.16-23,3.52-4.17,10.99-1.7,15.81-4.25.51-.27.97-.66,1.31-1.12,1.94-2.64,3.76-5.76,3.88-9.03.03-.98-.07-2.38-.97-2.77-.9-.39-2,.49-2.69,1.18-2.09,2.09-1.3,6.19-3.53,8.12-4.23,3.65-11.46,1.39-16.19,4.38-.64.4-1.17,1.02-1.47,1.72-2.99,7.06,2.99,17.22-2.16,22.91-4.02,4.44-12.39.53-17.62,3.44-.7.39-1.3,1.02-1.62,1.75-3.38,7.46,2.87,18.25-2.5,24.44-4.35,5.01-13.62,1.38-19.31,4.78-.64.38-1.18.98-1.5,1.66-1.59,3.39-2.7,7.55-1.59,11.12.31,1,1.08,2.28,2.12,2.31Z" style="fill:#ff5;"/><path id="uuid-6905d9bc-898d-4b57-8080-106f43973fdb" d="m97.02,382.93c0-1.93,1.57-3.5,3.5-3.5s3.5,1.57,3.5,3.5-1.57,3.5-3.5,3.5-3.5-1.57-3.5-3.5Z" style="fill:#ff5;"/><path id="uuid-f6c13cbe-861d-428a-b4ca-f9ec6726152a" d="m98.97,362.95c0-1.93,1.57-3.5,3.5-3.5s3.5,1.57,3.5,3.5-1.57,3.5-3.5,3.5-3.5-1.57-3.5-3.5Z" style="fill:#ff5;"/><path id="uuid-848087e9-a743-4019-8a45-651a5935e894" d="m119.47,354.11c0-1.93,1.57-3.5,3.5-3.5s3.5,1.57,3.5,3.5-1.57,3.5-3.5,3.5-3.5-1.57-3.5-3.5Z" style="fill:#ff5;"/><path id="uuid-353b41a5-4b1f-4525-80fb-c75e550d57af" d="m120.36,332.9c0-1.93,1.57-3.5,3.5-3.5s3.5,1.57,3.5,3.5-1.57,3.5-3.5,3.5-3.5-1.57-3.5-3.5Z" style="fill:#ff5;"/><path id="uuid-9089e0b7-11fc-4862-a3e6-a225572bca3e" d="m141.04,324.59c0-1.93,1.57-3.5,3.5-3.5s3.5,1.57,3.5,3.5-1.57,3.5-3.5,3.5-3.5-1.57-3.5-3.5Z" style="fill:#ff5;"/><path id="uuid-46746955-3dc2-41ad-a337-1902b383f4d4" d="m140.16,304.97c0-1.93,1.57-3.5,3.5-3.5s3.5,1.57,3.5,3.5-1.57,3.5-3.5,3.5-3.5-1.57-3.5-3.5Z" style="fill:#ff5;"/><path id="uuid-9c8aee29-8071-432d-bd94-b44635249443" d="m110,395.93l69.2-95.93h-7.58l-66.92,92.71,5.31,3.22Z" style="fill:#f55; stroke:#000; stroke-linecap:round; stroke-linejoin:round; stroke-width:2px;"/><g id="uuid-11ccb57a-9537-46a0-80c6-a85f3d353b3e"><path id="uuid-39be43f4-9127-4835-a873-5b6e62ce6ca9" d="m115.34,470.19c-1.49-7.57-2.49-15.22-3.78-22.82-1.07-6.3-1.28-12.82-3.31-18.87-1.26-3.76-2.94-7.49-5.42-10.59-1.33-1.67-3.23-2.78-4.92-4.09" style="fill:none; stroke:#55a; stroke-linecap:round; stroke-linejoin:round; stroke-width:2px;"/><path id="uuid-2d94bd34-ddd1-4fed-81ce-61b2bc1d9206" d="m122.11,471.01c-1.59-9.43-2.95-18.17-4.63-27.22-1.09-5.88-1.53-11.95-3.55-17.57-2.16-6.01-4.53-12.38-9.03-16.91-3.14-3.16-7.29-6.31-11.75-6.37-1.79-.02-4.53.67-4.79,2.45-.22,1.47,2.11,2.78,3.22,3.1" style="fill:none; stroke:#55a; stroke-linecap:round; stroke-linejoin:round; stroke-width:2px;"/><path id="uuid-bc6f23f5-e477-485a-a95f-e232b4f29d03" d="m129.28,472.85c-2.2-7.16-3.21-14.58-4.51-21.94-1.39-7.83-1.18-15.99-3.5-23.6-2.27-7.44-4.81-15.3-10.04-21.07-4.08-4.5-9.54-8.94-15.59-9.43-4.3-.35-9.91,1.06-12.01,4.83-1.82,3.28-1.44,9.47,1.95,11.09,2.27,1.08,7.96,1.57,6.6-3.65" style="fill:none; stroke:#55a; stroke-linecap:round; stroke-linejoin:round; stroke-width:2px;"/><path id="uuid-ff3d4f77-69a1-4381-a265-086c389ed9de" d="m135.84,473.67c-2.04-5.83-2.69-12.01-3.97-18.03-2.68-12.64-3.15-25.91-7.76-37.98-2.31-6.05-5.44-11.99-9.81-16.77-3.63-3.97-7.91-8.2-13.16-9.35-6.78-1.48-15.66-1.13-20.45,3.89-4.09,4.29-5.91,12.75-2.51,17.6,3.36,4.81,12.43,7.01,17.22,3.63,3.09-2.18,2.84-7.72,1.51-11.26-.42-1.1-1.78-1.71-2.67-2.33" style="fill:none; stroke:#55a; stroke-linecap:round; stroke-linejoin:round; stroke-width:2px;"/><path id="uuid-f3691ad6-d835-40cd-ad6d-8c2fbf106e83" d="m142.61,475.11c-1.82-5.6-3.17-11.35-4.33-17.12-2.19-10.94-1.93-22.36-4.94-33.1-1.84-6.57-5.03-13.23-7.95-18.87" style="fill:none; stroke:#55a; stroke-linecap:round; stroke-linejoin:round; stroke-width:2px;"/><path id="uuid-d8dec252-c430-44d9-8df7-1bbb02baef06" d="m150.19,476.54c-1.82-5.25-3.21-10.65-4.33-16.09-1.91-9.23-2.7-18.53-4.07-27.99-1.35-9.29-5.42-18.33-9.84-26.4" style="fill:none; stroke:#55a; stroke-linecap:round; stroke-linejoin:round; stroke-width:2px;"/><path id="uuid-83dab698-dd59-4db2-99ed-82c9f6cbeb32" d="m158.19,477.36c-2.2-4.83-3.93-9.87-5.23-15-2.98-11.7-3.15-23.98-5.86-35.75-1.06-4.58-2.27-9.16-4.04-13.52-1.09-2.67-2.79-5.41-4.01-7.67" style="fill:none; stroke:#55a; stroke-linecap:round; stroke-linejoin:round; stroke-width:2px;"/><path id="uuid-4edc7deb-a8fc-40e5-a7af-33bacb8997e1" d="m158.46,457.07c-1.06-7-1.84-14.09-3.17-21.07-1.25-6.54-2.56-13.09-4.51-19.46-1.11-3.6-2.86-6.96-4.08-10.52" style="fill:none; stroke:#55a; stroke-linecap:round; stroke-linejoin:round; stroke-width:2px;"/><path id="uuid-d0c090c6-be6b-48de-a80b-7cf00b104f5e" d="m160.85,430.83c-.96-5.37-1.88-10.77-3.41-16.01-.9-3.07-2.19-6.02-3.36-9" style="fill:none; stroke:#55a; stroke-linecap:round; stroke-linejoin:round; stroke-width:2px;"/><path id="uuid-ab239f33-bc48-4aed-bc11-e235e84402a8" d="m165.77,419.96c-.68-4.96-2-9.88-4.31-14.35" style="fill:none; stroke:#55a; stroke-linecap:round; stroke-linejoin:round; stroke-width:2px;"/><path id="uuid-9e25e992-e5da-4699-b60a-966d7b946d50" d="m170.49,413.81c-.57-2.75-1.2-5.56-2.67-8" style="fill:none; stroke:#55a; stroke-linecap:round; stroke-linejoin:round; stroke-width:2px;"/><path id="uuid-e23eb159-c3c1-4f89-9de4-a92525839ead" d="m175.87,409c-.42-1.25-.52-2.63-1.51-3.71" style="fill:none; stroke:#55a; stroke-linecap:round; stroke-linejoin:round; stroke-width:2px;"/></g><path id="uuid-fb2aabbe-0ea9-4f89-9996-598f3bafc2b4" d="m179.76,405.58l-60.56.15-2.57-3.54h69.75s-6.63,3.38-6.63,3.38Z"/><g id="uuid-8ab740b0-3d25-42fc-a110-ea5a88233fd8"><path id="uuid-961768da-1021-4f57-b49d-13dcbb679081" d="m49.5,463.05l-20,13" style="fill:none; stroke:#55a; stroke-linecap:round; stroke-linejoin:round; stroke-width:2px;"/><path id="uuid-4ca89cdb-420c-4651-96ad-7286f1ca955b" d="m49.5,455.01l-20,13" style="fill:none; stroke:#55a; stroke-linecap:round; stroke-linejoin:round; stroke-width:2px;"/><path id="uuid-2d9cca70-74b6-4451-a38e-2c3cb574bdb9" d="m49.5,446.97l-20,13" style="fill:none; stroke:#55a; stroke-linecap:round; stroke-linejoin:round; stroke-width:2px;"/><path id="uuid-85593c29-a761-4b19-a6a8-80aece5b6970" d="m49.5,438.93l-20,13" style="fill:none; stroke:#55a; stroke-linecap:round; stroke-linejoin:round; stroke-width:2px;"/><path id="uuid-f39fe650-7d82-4bc0-820a-cfe97e52d787" d="m49.5,430.88l-20,13" style="fill:none; stroke:#55a; stroke-linecap:round; stroke-linejoin:round; stroke-width:2px;"/><path id="uuid-62955706-a712-46a5-9866-b7fdc4e91c41" d="m49.5,422.84l-20,13" style="fill:none; stroke:#55a; stroke-linecap:round; stroke-linejoin:round; stroke-width:2px;"/><path id="uuid-b60091f7-ec05-4248-ac65-87f16c89b07f" d="m49.5,414.8l-20,13" style="fill:none; stroke:#55a; stroke-linecap:round; stroke-linejoin:round; stroke-width:2px;"/><path id="uuid-9368613d-3448-4e20-83c6-a64b4cf1239f" d="m49.5,406.76l-20,13" style="fill:none; stroke:#55a; stroke-linecap:round; stroke-linejoin:round; stroke-width:2px;"/><path id="uuid-b72f36b3-7fb0-4ecc-9cbb-3cc17a728644" d="m49.5,398.71l-20,13" style="fill:none; stroke:#55a; stroke-linecap:round; stroke-linejoin:round; stroke-width:2px;"/><path id="uuid-7dd070c7-92d6-46f2-b610-a22b56200334" d="m49.5,390.67l-20,13" style="fill:none; stroke:#55a; stroke-linecap:round; stroke-linejoin:round; stroke-width:2px;"/><path id="uuid-e636d61f-5ff0-4151-b4ca-a1f6ab659ec9" d="m49.5,382.63l-20,13" style="fill:none; stroke:#55a; stroke-linecap:round; stroke-linejoin:round; stroke-width:2px;"/><path id="uuid-02713032-2ceb-4a0d-ac5d-daa8e0805d3d" d="m49.5,374.59l-20,13" style="fill:none; stroke:#55a; stroke-linecap:round; stroke-linejoin:round; stroke-width:2px;"/><path id="uuid-20ffc768-00ff-4b29-a75f-33c3853b0e45" d="m43.5,370.54l-14,9" style="fill:none; stroke:#55a; stroke-linecap:round; stroke-linejoin:round; stroke-width:2px;"/><path id="uuid-e14220b7-eea9-49c6-8b7e-0451b7beaeed" d="m37.5,366.5l-8,5" style="fill:none; stroke:#55a; stroke-linecap:round; stroke-linejoin:round; stroke-width:2px;"/></g><path id="uuid-a9d7d18d-3586-4e1e-b22c-7d1fb95697f8" d="m235.28,386.09c.94-.03,1.57-1.19,1.91-2.06,1.13-2.97.76-6.49-.16-9.53-.2-.66-.61-1.29-1.12-1.75-5.27-4.73-15.18-3.54-19-9.5-4.05-6.32,1.21-15.26-.75-22.5-.15-.57-.45-1.12-.84-1.56-3.96-4.51-12.35-4.95-14.62-10.5-2.21-5.4,2.91-11.42,2.97-17.25,0-.42-.06-.85-.19-1.25-.87-2.72-1.75-5.75-3.91-7.62-.73-.63-1.87-1.39-2.73-.95s-.92,1.8-.84,2.76c.23,2.62,3.2,4.43,3.59,7.03.9,5.96-3.75,11.82-3.09,17.81.08.71.37,1.41.81,1.97,3.79,4.79,12,5.3,14.88,10.69,3.56,6.67-1.53,15.47.75,22.69.21.65.61,1.26,1.12,1.72,5.29,4.71,15.23,3.5,19,9.5,1.47,2.35-.98,5.77.12,8.31.39.88,1.13,2.03,2.09,2Z" style="fill:#ff5;"/><path id="uuid-a07d8a53-505e-4156-9fb7-9023dfda150c" d="m223.54,379.42c0-1.93,1.57-3.5,3.5-3.5s3.5,1.57,3.5,3.5-1.57,3.5-3.5,3.5-3.5-1.57-3.5-3.5Z" style="fill:#ff5;"/><path id="uuid-206914cb-44cb-4c04-930e-d901b2189566" d="m219.12,359.07c0-1.93,1.57-3.5,3.5-3.5s3.5,1.57,3.5,3.5-1.57,3.5-3.5,3.5-3.5-1.57-3.5-3.5Z" style="fill:#ff5;"/><path id="uuid-58048f93-b71d-4f7e-9915-ebcd9def81cc" d="m202.53,346.47c0-1.93,1.57-3.5,3.5-3.5s3.5,1.57,3.5,3.5-1.57,3.5-3.5,3.5-3.5-1.57-3.5-3.5Z" style="fill:#ff5;"/><path id="uuid-90fd08c3-36d3-420e-8ca8-ec6e476a287d" d="m203.19,325.24c0-1.93,1.57-3.5,3.5-3.5s3.5,1.57,3.5,3.5-1.57,3.5-3.5,3.5-3.5-1.57-3.5-3.5Z" style="fill:#ff5;"/><path id="uuid-8da4fb06-3eac-41b2-b711-5916f1bf1878" d="m189.04,311.31c0-1.93,1.57-3.5,3.5-3.5s3.5,1.57,3.5,3.5-1.57,3.5-3.5,3.5-3.5-1.57-3.5-3.5Z" style="fill:#ff5;"/><path id="uuid-fa070f7f-f3e3-424a-8e16-4c86042e7c94" d="m246.12,382.03l3.33-2.03s-9.28-11.85-12.79-16.97c-3.11-4.52-5.91-9.3-8.53-14.19-3.57-6.65-6.71-13.59-9.81-20.56-2.39-5.37-6.81-16.5-6.81-16.5l-3.72,1.47s4.43,11.09,6.91,16.66c3.11,6.99,6.28,14,9.94,20.81,2.67,4.96,5.5,9.87,8.72,14.56,3.8,5.53,12.78,16.75,12.78,16.75h0Z" style="fill:#ff5;"/><path id="uuid-65a51998-29e5-4205-ab8b-99e28fe4a01b" d="m250.62,375.49c3.12-2.25,6.09-4.08,9.59-6.91,1.51-1.22,1.87-3.09,1.81-4.75-.05-1.66-.51-3.3-.91-4.59-.71-2.32-2.2-4.56-4.47-5.81-1.11-.61-2.43-1.15-3.84-1.34s-2.97-.09-4.28.81c-3.24,2.22-6.31,4.24-9.53,6.22l1.56,2.56c3.27-2.01,6.39-4.07,9.66-6.31.45-.31,1.21-.45,2.16-.31s2.03.55,2.84,1c1.37.76,2.56,2.41,3.06,4.06.36,1.18.71,2.63.75,3.81.04,1.18-.22,1.94-.72,2.34-3.35,2.7-6.22,4.46-9.44,6.78l1.75,2.44Z" style="fill:#ff5;"/><path id="uuid-a0fff643-ef47-4507-bcff-4620fde0199c" d="m236.78,355.58c3.1-1.73,6.46-3.08,9.75-5.44,1.3-.94,1.96-2.36,2.28-3.75s.32-2.82.19-4.06c-.28-2.6-1.61-5.13-3.69-6.78-1.09-.86-2.48-1.73-4-2.25s-3.3-.77-4.84.19c-2.93,1.82-5.72,3.06-9.12,5.03l1.5,2.59c3.27-1.89,6.1-3.15,9.22-5.09.38-.24,1.2-.25,2.28.12s2.28,1.08,3.12,1.75c1.35,1.07,2.38,3.03,2.56,4.78.1.97.09,2.09-.12,3.03-.22.94-.61,1.6-1.12,1.97-2.94,2.11-6.17,3.43-9.47,5.28l1.47,2.62Z" style="fill:#ff5;"/><path id="uuid-db765fbd-7d03-4e3e-b0f4-64e82401f387" d="m225.03,335.27c3.72-1.78,5.71-2.91,10.31-6.09,1.29-.89,1.92-2.3,2.25-3.66s.36-2.72.22-3.94c-.33-2.92-1.78-6.04-4.44-7.75-1.12-.72-2.43-1.42-3.97-1.69-1.51-.26-3.24,0-4.84,1l-.03-.03-8.41,4.81,1.5,2.59,8.38-4.78s.04-.02.06-.03c1.02-.65,1.88-.76,2.81-.59s1.94.65,2.88,1.25c1.62,1.04,2.82,3.4,3.06,5.53.1.92.09,2.03-.12,2.94s-.6,1.56-1.06,1.88c-4.54,3.15-6.25,4.09-9.91,5.84l1.31,2.72h0Z" style="fill:#ff5;"/><path id="uuid-d14c3b9b-9841-43f8-8ee1-5d257e41c0c0" d="m210.19,316.56s10.76-6.23,16-10.19c4.86-3.66,9.41-7.93,13.52-12.7,4.23-4.92,7.99-10.4,10.69-16.41,2.63-5.85,4.44-11.76,5.36-17.96.79-5.33.82-10.74.47-16.03-.34-5.06-1.65-9.38-3.21-14.39-2.17-6.92-9.67-19.96-9.67-19.96l-2.61,3.4s6.64,11.9,8.47,17.75c1.42,4.54,2.73,8.56,3.06,13.48.34,5.09.3,10.2-.44,15.16-.89,5.97-2.66,11.55-5.08,16.92-2.5,5.56-6.02,10.75-10.06,15.44-3.78,4.39-8.1,8.49-12.89,12.11-4.73,3.57-15.62,9.91-15.62,9.91l2.03,3.47Z" style="fill:#ff5;"/><path id="uuid-29bf1285-f727-45f1-80ab-e8c0b8a8dd0c" d="m270.82,366.1l3.15-2.24s-8.22-9.42-11.5-13.73c-2.66-3.5-5.19-7.12-7.41-10.88-4.33-7.32-8.12-14.97-11.59-22.78-1.52-3.42-3.69-9.61-4.16-10.91,1.33-1.38,7.89-8.21,11.25-13.03,3.66-5.25,7.05-10.88,9.31-17.03,2.56-6.94,4.28-14.35,4.53-21.84.3-8.81-1.08-17.69-3.59-26.06-2.69-8.95-12.36-25.52-12.36-25.52l-2.58,3.43s8.76,15.43,11.09,23.22c2.41,8.02,3.72,16.52,3.44,24.81-.23,6.96-1.84,13.97-4.28,20.59-2.09,5.68-5.3,11.03-8.84,16.12-3.22,4.62-11.72,13.47-11.72,13.47-.52.53-.71,1.36-.47,2.06,0,0,2.87,8.15,4.72,12.31,3.52,7.92,7.38,15.7,11.81,23.19,2.32,3.92,4.93,7.66,7.66,11.25,3.53,4.65,11.54,13.57,11.54,13.57Z" style="fill:#ff5;"/><path id="uuid-c7f58f7b-98e5-43bb-8d03-66a0c301d884" d="m259.09,346.09s2.51-18.33,5.41-26.56c3.36-9.55,8.27-18.62,13.97-27.06,5.31-7.87,12.1-14.8,18.81-21.78,4.9-5.09,9.89-10.07,15.38-14.38,4.59-3.6,16.84-10.81,16.84-10.81v-4s-13.69,8.55-18.69,12.47c-5.67,4.45-10.76,9.5-15.69,14.62-6.7,6.97-13.61,14.02-19.12,22.19-5.81,8.61-10.87,17.93-14.34,27.78-3.17,9.01-5.53,27.16-5.53,27.16l2.97.38Z" style="fill:#ff5;"/><path id="uuid-762a7430-71ad-4a4d-a568-37b19dbf34da" d="m292.35,350.54s.48-13.45,1.87-18.82c1.71-6.61,3.95-13.12,7.12-19.03,3.47-6.47,7.98-12.43,12.97-17.94,3.74-4.12,15.19-12.44,15.19-12.44v-5.04s-13.83,10.01-18.16,14.79c-5.15,5.68-9.86,11.91-13.53,18.75-3.38,6.3-5.7,13.1-7.47,19.91-1.6,6.18-2,22.77-2,22.77l4-2.95Z" style="fill:#ff5;"/><path id="uuid-6b3564e5-d360-4296-8e2c-c6912e09b51f" d="m269.38,355.81c5.53-1.74,12.27-3.31,15.38-8.22.47-.74.54-1.85.12-2.62-2.18-4.06-8.63-3.8-11.88-7.06-2.45-2.47-6.25-5.66-5.28-9,.85-2.94,5.21-3.4,8.16-4.22,4.1-1.14,9.36,1.73,12.75-.84.72-.55,1.12-1.68.91-2.56-.85-3.52-6.01-4.35-7.91-7.44-2.03-3.31-5.28-7.86-3.28-11.19,1.7-2.83,6.41-2.01,9.72-2,3.81.01,7.61,3.69,11.19,2.38.85-.31,1.58-1.25,1.66-2.16.35-4.03-4.57-6.85-5.62-10.75-.85-3.17-2.73-7.49-.44-9.84,2.42-2.47,7-.52,10.38.22,3.54.77,6.4,4.92,9.97,4.31.89-.15,1.76-.97,2-1.84,1.26-4.62-3.98-8.96-4.19-13.75-.11-2.64-.42-6.12,1.66-7.75,1.76-1.37,4.51-.28,6.69.22,1.17.27,2.16,1.9,3.28,1.47.93-.36,1.55-1.82,1.19-2.75-.51-1.29-2.46-1.35-3.81-1.66-2.76-.62-5.79-1.14-8.47-.25-.61.2-1.16.65-1.5,1.19-1.73,2.8-2.13,6.37-2.03,9.66.11,3.83,5.89,8.54,3.03,11.09-1.93,1.72-4.66-2.36-7.19-2.88-4.06-.83-8.59-1.8-12.44-.25-.67.27-1.27.86-1.53,1.53-1.46,3.75-.49,8.16.5,12.06.75,2.97,5.88,5.81,4.03,8.25-1.7,2.25-5.52-1.54-8.34-1.5-4.02.05-8.54.1-11.81,2.44-.6.43-1.03,1.17-1.12,1.91-.57,4.62,1.6,9.38,3.94,13.41,1.29,2.22,6.23,3.13,5.34,5.53-1.09,2.93-6.34,0-9.34.88-3.61,1.06-7.65,2.27-10.03,5.19-.46.56-.69,1.37-.59,2.09.54,4.19,3.49,7.88,6.44,10.91,2.74,2.82,10.14,2.35,10,6.28-.17,4.84-11.32,2.24-12.81,6.84-.31.95.36,2.99,1.31,2.69Z" style="fill:#ff5;"/><path id="uuid-de43e7bf-9e06-46e7-b07d-c800f487761b" d="m285.06,340.34c.94-.35,1.48-1.85,1.12-2.78-.71-1.89-3.77-1.54-5.41-2.72-1-.72-2.95-1.41-2.62-2.59.33-1.2,2.39-.77,3.62-.88,1.95-.16,4.32,1.66,5.84.44.78-.62,1.06-2.19.44-2.97-1.37-1.7-4.36-.65-6.53-.47-2.31.19-5.08.02-6.75,1.62-.6.58-.9,1.6-.69,2.41.58,2.23,3.04,3.53,4.91,4.88,1.84,1.32,3.94,3.86,6.06,3.06Z" style="fill:#ff5;"/><path id="uuid-063d1fce-6884-4e52-856a-23fe2533ed33" d="m265.66,349.78c2.39-1.38,3.79-1.71,6.62-3.53.64-.41.33-1.65-.09-2.28-.41-.62-1.38-.58-2.03-.94-.99-.55-2.07-1.02-2.84-1.84-.6-.64-.9-1.52-1.28-2.31-.25-.54-.12-1.41-.66-1.66-.76-.35-2.02.05-2.38.81-.28.6.43,1.25.72,1.84.51,1.05.98,2.18,1.78,3.03.94,1,3.48.94,3.41,2.31-.09,1.66-3.91.75-4.41,2.34-.25.8.43,2.64,1.16,2.22Z" style="fill:#ff5;"/><path id="uuid-77657700-e9e7-4b42-9fd3-c5dce73eb9f3" d="m269.16,322.69c.82.11,1.3-1.02,2-1.47,1.08-.69,2.15-1.48,3.38-1.88.42-.14.87-.13,1.31-.16.3-.02.65.16.91,0,.65-.39,1.09-1.25,1.06-2-.05-1.3-1.57-2.09-2.09-3.28-.65-1.46.11-3.79-1.25-4.62-.71-.44-2-.21-2.44.5-.93,1.51.7,3.5,1.41,5.12.3.7,1.51,1.25,1.19,1.94-.13.27-.6.03-.88.12-1.44.48-2.72,1.37-4,2.19-.74.47-2,.69-2.12,1.56-.11.82.71,1.85,1.53,1.97Z" style="fill:#ff5;"/><path id="uuid-01395e2c-0051-4053-bb7d-2ff730f1b39d" d="m276.09,360.08c1.55.02,2.14-1.87,3.39-2.63,1.23-.74,3.44-.66,3.98-1.84.36-.78-.03-2.06-.97-2.36-1.72-.55-3.35,1.32-4.84,2.22-1.36.82-3.67,1.47-3.69,2.87-.01.83,1.13,1.73,2.12,1.74Z" style="fill:#ff5;"/><path id="uuid-c3ce33cd-c551-470b-82be-0f177ab48a93" d="m290.97,317.19c.3-.96,1.88-1.48,1.72-2.47-.11-.65-1.08-.77-1.59-1.19-.79-.65-1.64-1.26-2.28-2.06-.74-.92-1.23-2.01-1.75-3.06-.04-.07-.13-.15-.09-.22.04-.06.15-.03.22-.03,1.17-.08,2.37-.17,3.53,0,.9.13,1.76.48,2.62.78.56.19,1.11.88,1.66.66.92-.38,1.57-1.83,1.19-2.75-.24-.59-1.18-.51-1.78-.72-1.07-.37-2.13-.78-3.25-.94-1.38-.2-2.79-.1-4.19-.03-.81.04-1.73-.19-2.41.25-.66.42-1.14,1.25-1.19,2.03-.05.82.6,1.52.97,2.25.63,1.26,1.24,2.56,2.12,3.66.79.98,1.81,1.76,2.78,2.56.55.46,1.08,1.6,1.72,1.28,0,0,0,0,0,0Z" style="fill:#ff5;"/><path id="uuid-5d00034a-dc33-47e0-b378-2d60bf6d8397" d="m303.19,296.44c.98.23,2.28-.71,2.5-1.69.34-1.47-1.71-2.51-2.28-3.91-.58-1.42-2.2-3.37-1.12-4.47.71-.73,2.01.34,2.97.69,1.47.53,2.69,2.54,4.19,2.09.96-.29,1.79-1.64,1.5-2.59-.5-1.66-3.03-1.72-4.66-2.31-1.86-.68-3.87-1.94-5.78-1.41-.79.22-1.53.95-1.75,1.75-.67,2.45.92,5.02,1.88,7.38.64,1.59.89,4.08,2.56,4.47Z" style="fill:#ff5;"/><path id="uuid-da22c474-af0c-46c9-aec9-4653e03e7ead" d="m320.28,280.19c.88.46,2.36-.12,2.81-1,.94-1.83-1.37-3.91-1.69-5.94-.18-1.15-1.04-2.78-.12-3.5.96-.76,2.47,1.57,3.53.97.87-.49,1.3-2.01.81-2.88-.94-1.67-3.65-1.88-5.53-1.53-.78.14-1.57.69-1.91,1.41-.86,1.81-.07,4.02.25,6,.36,2.21-.15,5.44,1.84,6.47Z" style="fill:#ff5;"/><path id="uuid-8004a949-33df-4cf0-88f2-30daf46617bf" d="m282.31,296.47c1,.29,1.76-1.19,2.78-1.41,1.05-.22,2.22.59,3.22.19.71-.29,1.72-.94,1.56-1.69-.5-2.28-2.15-5.43-1.44-6.97.35-.76-1.94-.75-2.5-.12-1.34,1.5,2.21,4.38.97,5.97-.51.65-1.67,0-2.47.22-1.22.34-3.04.45-3.41,1.66-.24.8.48,1.92,1.28,2.16Z" style="fill:#ff5;"/><path id="uuid-04bdf4cc-b511-4459-8a67-237621ad968d" d="m306.78,275c.61.2.95-.95,1.12-1.56.64-2.24,1.05-5.21-.47-6.97-.54-.63-1.79-1.06-2.44-.53-1.58,1.29,1.58,4.72.09,6.12-1.52,1.44-4.94-2.05-6.28-.44-.53.64,0,1.86.62,2.41,1.73,1.52,4.57.52,6.84.88.17.03.39-.04.5.09,0,0,0,0,0,0Z" style="fill:#ff5;"/><path id="uuid-762c0b52-e240-4456-9254-8461488376ff" d="m325.34,256.56c.27-.79,1.77-1.17,1.53-1.97-.31-1.06-2.04-.9-3.12-1.09-.77-.14-1.75-.54-2.34-.03-.63.54-.85,1.84-.31,2.47.55.64,1.7-.08,2.53.06.59.1,1.23.92,1.72.56,0,0,0,0,0,0Z" style="fill:#ff5;"/><path id="uuid-8c7d3895-9f05-4358-bee5-97e1ec558bb5" d="m246.97,370.64c2.45-1.82,5.1-3.01,7.88-5.91,1.31-1.36,1.2-3.29.44-4.5-.52-.83-1.29-1.31-2.12-1.62s-1.76-.47-2.72.03c-3.48,1.83-5.06,3.21-7.81,5.09l1.41,2.06c2.85-1.95,4.27-3.24,7.56-4.97-.09.05.28-.03.69.12s.82.48.91.62c.29.47.42.87-.12,1.44-2.45,2.55-4.88,3.61-7.59,5.62.54.64,1.03,1.31,1.5,2Z" style="fill:#ff5;"/><path id="uuid-a35a774f-5230-4d36-afff-25653f98d685" d="m234.25,350.08c2.03-1.13,4.36-1.48,7-3.25,1.04-.7,1.58-1.81,1.78-2.94s.08-2.33-.62-3.34c-.64-.92-1.62-1.29-2.56-1.44s-1.94-.11-2.81.47c-2.41,1.59-3.84,1.98-6.34,3.81l1.47,2.03c2.27-1.66,3.63-2.03,6.25-3.75.09-.06.6-.17,1.06-.09.46.07.84.31.91.41.17.25.3.86.19,1.47s-.43,1.14-.69,1.31c-2.17,1.45-4.36,1.74-6.84,3.12l1.22,2.19h0Z" style="fill:#ff5;"/><path id="uuid-4e582c67-5bf5-45f5-aa35-2629fea749b0" d="m222.75,330.02s5.26-2.5,8.44-4.66c1.07-.73,1.31-1.87,1.34-2.94.04-1.07-.18-2.2-1-3.09-1.54-1.68-4.07-1.56-5.97-.44-2.08,1.22-6.62,4.09-6.62,4.09l1.34,2.09s4.59-2.87,6.56-4.03c1.07-.63,2.39-.53,2.84-.03.11.12.36.73.34,1.31-.02.58-.35,1.03-.25.97-2.85,1.94-8.09,4.47-8.09,4.47l1.06,2.25h0Z" style="fill:#ff5;"/><path id="uuid-84ef685a-e965-437c-8276-4c75f86f7e99" d="m312.66,254.2c-1.47-8.19-2.27-15.86-4.56-23.42-2.44-8.04-5.7-15.87-9.64-23.29-2.85-5.38-6.31-10.45-10.04-15.26-5.29-6.83-11.91-13.17-17.4-19.2" style="fill:none; stroke:#ff5; stroke-linejoin:round; stroke-width:4px;"/><path id="uuid-b9a72b49-6113-4fa1-aebb-4bd2a676edec" d="m203.92,287.29c4.55-3.2,9.16-8.26,11.98-11.88,2.36-3.03,4.69-6.31,6.28-10.06,1.74-4.11,2.73-8.5,3.19-12.84.48-4.56.57-10.92-1.66-16.81l-2.75,4.09c.45,2.94.81,8.46.41,12.31-.43,4.03-1.33,8.04-2.88,11.69-1.36,3.21-3.46,6.25-5.75,9.19-2.51,3.22-4.89,6.92-8.91,9.25l.08,5.07Z" style="fill:#ff5;"/><g id="uuid-91c1dc0c-a4cf-412f-9ed0-da4ba5a1dc0d"><path id="uuid-bd6a18a1-7011-4d96-9d04-617e95790f4e" d="m217.63,297.7c0-1.93,1.57-3.5,3.5-3.5s3.5,1.57,3.5,3.5-1.57,3.5-3.5,3.5-3.5-1.57-3.5-3.5Z" style="fill:#ff5;"/><path id="uuid-d1bd8d02-db39-429a-9495-0b815ec9c3d7" d="m209.9,296.79c0-1.93,1.57-3.5,3.5-3.5s3.5,1.57,3.5,3.5-1.57,3.5-3.5,3.5-3.5-1.57-3.5-3.5Z" style="fill:#ff5;"/><path id="uuid-cf500a4d-105e-42b0-bcd1-250828ba60ab" d="m217.63,289.86c0-1.93,1.57-3.5,3.5-3.5s3.5,1.57,3.5,3.5-1.57,3.5-3.5,3.5-3.5-1.57-3.5-3.5Z" style="fill:#ff5;"/></g><g id="uuid-a313b05f-842d-495a-bb3d-0e1772c7a2cf"><path id="uuid-a699fa50-0d63-4c4d-ac35-d285b5625412" d="m232.12,282.96c-.55-1.85.51-3.8,2.37-4.35s3.8.51,4.35,2.37-.51,3.8-2.37,4.35-3.8-.51-4.35-2.37Z" style="fill:#ff5;"/><path id="uuid-f0fe9e69-1524-44b2-9166-2776a8dd3719" d="m224.45,284.27c-.55-1.85.51-3.8,2.37-4.35s3.8.51,4.35,2.37-.51,3.8-2.37,4.35-3.8-.51-4.35-2.37Z" style="fill:#ff5;"/><path id="uuid-f39ada8b-a35c-486a-859e-ddc8da9ed994" d="m229.9,275.43c-.55-1.85.51-3.8,2.37-4.35s3.8.51,4.35,2.37-.51,3.8-2.37,4.35-3.8-.51-4.35-2.37Z" style="fill:#ff5;"/></g><g id="uuid-41a4fe59-781d-4471-bb53-26f4ff5884ff"><path id="uuid-81dec928-65b3-4d74-aff3-a8f19f121bf8" d="m239.71,262.41c-.9-1.71-.25-3.83,1.46-4.73s3.83-.25,4.73,1.46.25,3.83-1.46,4.73-3.83.25-4.73-1.46Z" style="fill:#ff5;"/><path id="uuid-b481a47b-e3c6-4918-8b15-7a43236ec04b" d="m232.46,265.21c-.9-1.71-.25-3.83,1.46-4.73s3.83-.25,4.73,1.46.25,3.83-1.46,4.73-3.83.25-4.73-1.46Z" style="fill:#ff5;"/><path id="uuid-8e2b2bc8-4bfd-4cc4-8bea-37e418f14f23" d="m236.05,255.47c-.9-1.71-.25-3.83,1.46-4.73s3.83-.25,4.73,1.46.25,3.83-1.46,4.73-3.83.25-4.73-1.46Z" style="fill:#ff5;"/></g><g id="uuid-4de9d5c8-bddf-468a-b56d-fd58d19daa32"><path id="uuid-533e0702-3096-4c3c-94e7-22d526d691a5" d="m241.32,237.47c-1.66-.99-2.21-3.13-1.22-4.8s3.13-2.21,4.8-1.22,2.21,3.13,1.22,4.8-3.13,2.21-4.8,1.22Z" style="fill:#ff5;"/><path id="uuid-9e83cb35-c5d8-4a5d-ab74-ab3172250a00" d="m236.59,243.64c-1.66-.99-2.21-3.13-1.22-4.8s3.13-2.21,4.8-1.22,2.21,3.13,1.22,4.8-3.13,2.21-4.8,1.22Z" style="fill:#ff5;"/><path id="uuid-8a7130ee-18be-44cd-92e3-a38e1fe9a17a" d="m234.57,233.46c-1.66-.99-2.21-3.13-1.22-4.8s3.13-2.21,4.8-1.22,2.21,3.13,1.22,4.8-3.13,2.21-4.8,1.22Z" style="fill:#ff5;"/></g><path id="uuid-73e7e53a-e7e5-4e33-bd27-0edc605f66d1" d="m203.37,297.56l-12.68-.2,4.87-10.96h-4.87l-5.68,10.75h-13.19l4.67-10.55h-5.48l-4.87,10.75h-14.2l4.87-10.96h-4.46l2.64-4.87,8.72.61-5.07,10.35h4.67l5.28-10.75,14.61.41-4.67,9.94h4.46l5.28-10.55,14.2.41-5.68,10.55,4.26.2,2.23-3.65.1,8.52Z" style="fill:#55a;"/><path id="uuid-f7fd626d-bf5c-4810-8b50-0d0ed8649000" d="m207.93,287.62l8.32,4.46-3.86-8.72-4.46,4.26Z" style="fill:#ff5;"/><path id="uuid-020ccc90-2ebc-46b7-8808-8ca3a2471176" d="m220.02,275.16l8.93,3.06-5.21-7.99-3.72,4.93Z" style="fill:#ff5;"/><path id="uuid-310c07de-dda3-4914-8f7b-eb2e89db72c5" d="m227.4,258.87l9.41-.74-7.96-5.26-1.46,6Z" style="fill:#ff5;"/><path id="uuid-a52c2a8a-7c12-40e9-b475-19a172720f87" d="m228.6,241.67l7.19-6.11-9.53.4,2.34,5.71Z" style="fill:#ff5;"/><path id="uuid-c24aaeca-263c-4812-ae50-97e7f2be7bf5" d="m251.63,308.81l-8.34-4.42,3.9,8.7,4.44-4.29Z" style="fill:#ff5;"/><path id="uuid-d7f2b63a-cade-4678-974d-fcd56227f3dc" d="m261.4,296.98l-9.06-2.65,5.57,7.74,3.49-5.09Z" style="fill:#ff5;"/><path id="uuid-f581164e-a4ca-4767-bf2d-6164afbcd9e7" d="m269.15,282.04l-9.42-.62,7.12,6.35,2.3-5.73Z" style="fill:#ff5;"/><path id="uuid-486072cf-8511-42fd-97c0-cf163ad9b8e8" d="m274.09,265.57l-9.33,1.42,8.32,4.66,1.01-6.09Z" style="fill:#ff5;"/><path id="uuid-16049eaf-f01d-4a8d-b807-0ac9b1c9b483" d="m275.86,250.57l-8.96,2.96,8.98,3.21-.02-6.17Z" style="fill:#ff5;"/><path id="uuid-adc9e23c-0ce5-4648-b247-1714f8261d89" d="m274.65,235.49l-8.41,4.29,9.37,1.8-.96-6.1Z" style="fill:#ff5;"/><path id="uuid-063b627c-5447-4c17-bb11-a9ef0f9e6661" d="m270.34,220.45l-7.03,6.3,9.52-.65-2.49-5.65Z" style="fill:#ff5;"/><path id="uuid-efcf3b31-7ed9-4572-bb08-3531d7c06b7b" d="m264.61,206.73l-7.03,6.3,9.52-.65-2.49-5.65Z" style="fill:#ff5;"/><path id="uuid-06e12867-1640-4904-a0e5-1ba752d88af2" d="m257.62,194.62l-6.03,7.26,9.32-2.04-3.28-5.22Z" style="fill:#ff5;"/><path id="uuid-4fde081a-2ad1-433d-989e-bc0b400e7543" d="m322.93,318.19c-4.75,4.24-8.94,8.71-13.71,12.73-4,3.38-8.32,6.37-12.48,9.55.24-1.7.36-3.41.71-5.09.45-2.15,1.19-4.24,1.78-6.37,3.45-2.02,6.75-4.24,10.34-6.05,2.41-1.21,4.92-2.3,7.49-3.18,1.91-.66,3.73-1.06,5.86-1.59Z" style="fill:#f55; stroke:#f55; stroke-linecap:round; stroke-linejoin:round; stroke-width:2px;"/><path id="uuid-fd314c1e-4bef-4824-8c93-811ee3891e97" d="m324.37,313.21c-3.23,1.08-6.51,2.04-9.69,3.23-2.23.84-4.47,1.68-6.59,2.75-2.35,1.19-4.48,2.71-6.72,4.07.39-1.63.47-3.36,1.16-4.9.58-1.31,1.64-2.39,2.45-3.59,2.32-.68,4.59-1.59,6.97-2.03,2.25-.42,4.56-.72,6.85-.6,1.89.1,3.7.72,5.55,1.08h0Z" style="fill:#f55; stroke:#f55; stroke-linecap:round; stroke-linejoin:round; stroke-width:2px;"/><path id="uuid-081312e7-0576-4b3e-abc7-bdebd9efba1d" d="m324.51,309.1c-2.35-.12-4.69-.35-7.04-.36-1.65-.01-3.3-.02-4.94.19-1.82.23-3.6.79-5.39,1.19.7-1.17,1.24-2.5,2.11-3.51.74-.86,1.71-1.39,2.56-2.09,1.66.16,3.35.13,4.99.49,1.54.34,3.09.8,4.5,1.58,1.17.64,2.14,1.67,3.21,2.51h0Z" style="fill:#f55; stroke:#f55; stroke-linecap:round; stroke-linejoin:round; stroke-width:2px;"/><path id="uuid-696b5e2c-d25d-4d77-9efa-d3c557053227" d="m325.01,304.69c-1.63-.81-3.21-1.7-4.88-2.42-1.17-.51-2.34-1.02-3.58-1.36-1.37-.37-2.83-.49-4.25-.73.91-.69,1.75-1.55,2.72-2.06.82-.44,1.7-.55,2.55-.83,1.12.63,2.34,1.12,3.37,1.9.98.73,1.92,1.56,2.65,2.59.61.85.94,1.94,1.41,2.91Z" style="fill:#f55; stroke:#f55; stroke-linecap:round; stroke-linejoin:round; stroke-width:2px;"/><path id="uuid-12ddb15f-d392-46df-8d24-da1839f5c6bd" d="m326.21,298.54c-.96-.83-1.88-1.72-2.87-2.48-.69-.53-1.39-1.07-2.14-1.45-.84-.43-1.75-.63-2.62-.95.64-.54,1.25-1.23,1.91-1.61.56-.32,1.12-.36,1.69-.54.66.64,1.38,1.15,1.97,1.91.55.71,1.07,1.5,1.45,2.46.31.79.42,1.77.63,2.65h0Z" style="fill:#f55; stroke:#f55; stroke-linecap:round; stroke-linejoin:round; stroke-width:2px;"/><path id="uuid-0475f7bb-33d7-489e-8b44-425db518338b" d="m255.31,336.3c-1.26-2.6-2.88-5.36-4.2-8.1-1.57-3.24-2.96-6.55-4.44-9.83,2.96-3.01,6.17-5.79,8.89-9.02,3.83-4.56,7.4-9.38,10.37-14.54,3.04-5.29,5.62-10.9,7.54-16.7,1.79-5.41,2.92-11.05,3.64-16.7.62-4.95.75-9.97.54-14.95-.24-5.51-.87-11.03-2.02-16.43-1.02-4.82-2.55-9.53-4.31-14.14-1.83-4.8-3.91-9.54-6.46-14-2.11-3.7-4.85-7-7.27-10.5l11.04-14.95c4.8,5.48,9.92,10.69,14.41,16.43,4.41,5.64,8.75,11.4,12.25,17.64,2.79,4.96,4.94,10.27,6.91,15.61,1.61,4.35,2.9,8.82,4,13.33,1.1,4.51,1.62,9.85,2.57,13.69-2.98,2.82-8.57,8.05-12.71,12.23-4.36,4.41-8.83,8.74-12.75,13.54-5.49,6.72-10.57,13.82-15.01,21.28-3.15,5.29-6.08,10.78-8.19,16.57-2.3,6.3-3.77,12.83-4.79,19.53Z" style="fill:#f55;"/><path id="uuid-889e3d8c-fea5-4512-9671-0138d53c7bea" d="m212.57,400.07c4.47-1.43,8.54-3.09,12.6-5.09,7.91-3.9,15.28-8.8,22.79-13.41,8.5-5.21,17.01-10.41,25.2-16.09,6.61-4.58,13.05-9.42,19.3-14.48,7.28-5.9,14.3-12.13,21.18-18.5,5.43-5.03,10.93-10.37,15.85-15.55" style="fill:none; stroke:#55a; stroke-linecap:round; stroke-linejoin:round; stroke-width:2px;"/><path id="uuid-8b7f1697-0b89-4cf4-9c31-094e64b38a59" d="m196.12,271.98s-.27,1.67-.8,2.2c-.53.53-1.45.8-2.2.8s-1.67-.27-2.2-.8c-.53-.53-.8-1.45-.8-2.2s.4-1.8.8-2.2c.4-.4.8-.6,1.2-1s.6-.4,1-.8c.4-.4.6-.6,1-1s1-1.2,1.4-2,.6-2,.6-2c0,0,.2,1.2.6,2,.4.8,1,1.6,1.4,2s.6.6,1,1,.6.4,1,.8c.4.4.8.6,1.2,1s.8,1.45.8,2.2-.27,1.67-.8,2.2c-.53.53-1.45.8-2.2.8s-1.67-.27-2.2-.8c-.53-.53-.8-2.2-.8-2.2Z" style="fill:#f55;"/><path id="uuid-bbab9738-8a22-4343-a5ef-56b6ef251599" d="m287.73,355.17c.77,3.24.72,6.79,2.3,9.72,1.47,2.71,3.75,5.07,6.36,6.72,1.62,1.02,3.56,1.72,5.48,1.77,2.02.05,4.01-.73,5.83-1.59,1.76-.83,3.28-2.11,4.77-3.36,1.15-.97,2.61-1.8,3.18-3.18.34-.82.37-1.85,0-2.65-.52-1.14-1.68-1.98-2.83-2.47-1.09-.47-2.4-.69-3.54-.35-1.09.32-1.81,1.37-2.65,2.12-.99.89-1.89,1.89-2.83,2.83-.18-.65-.12-1.42-.53-1.94-.75-.95-2.12-1.18-3.18-1.77.94-.88,2.14-1.56,2.83-2.65.73-1.15,1.1-2.54,1.24-3.89.18-1.71.15-3.55-.53-5.13-.71-1.65-2.36-2.71-3.54-4.07" style="fill:none; stroke:#55a; stroke-linecap:round; stroke-linejoin:round; stroke-width:2px;"/><path id="uuid-d7df13b0-83fc-4c18-948e-a769c4d40997" d="m311.47,368.83c-.98.55-2.72-.96-3.06-2.16-.33-1.17.58-2.48,1.41-3.36.95-.99,2.47-1.18,3.71-1.77" style="fill:none; stroke:#55a; stroke-linecap:round; stroke-linejoin:round; stroke-width:2px;"/><path id="uuid-2e2c56db-ade6-454a-88a5-c7d8dbee1223" d="m305.41,373.56c1.83,1.94,3.08,4.67,5.48,5.83,1.22.59,2.76.73,4.07.35,1.42-.4,2.74-1.41,3.54-2.65.59-.91.92-2.12.71-3.18-.24-1.2-1.27-2.12-2.12-3.01-1.08-1.12-2.47-1.89-3.71-2.83" style="fill:none; stroke:#55a; stroke-linecap:round; stroke-linejoin:round; stroke-width:2px;"/><path id="uuid-1f71c7d0-5569-4da0-9fe1-de43caec8c15" d="m318.66,371.97c1.18-.12,2.47.17,3.54-.35,1.01-.5,2.01-1.39,2.3-2.47.34-1.28-.2-2.75-.88-3.89-1.36-2.25-3.88-3.58-6.01-5.13-1.9-1.39-3.9-2.67-6.01-3.71-1.19-.59-2.42-1.72-3.71-1.41-1.1.26-1.98,1.39-2.3,2.47-.18.63.08,1.34.35,1.94.27.61.82,1.06,1.24,1.59" style="fill:none; stroke:#55a; stroke-linecap:round; stroke-linejoin:round; stroke-width:2px;"/><path id="uuid-f4d9d601-a19c-4206-ac22-12128f132815" d="m311.98,359.94c.62-.32.93-1.26,1.26-2.14" style="fill:none; stroke:#55a; stroke-linecap:round; stroke-linejoin:round; stroke-width:2px;"/><path id="uuid-e2ae7507-a996-4b09-b056-feda784e33b7" d="m322.55,362.6c1-.82,2.36-1.35,3.01-2.47.54-.93.86-2.16.53-3.18-.28-.87-1.32-1.28-1.94-1.94-.86-.91-1.48-2.07-2.47-2.83-1.2-.91-2.63-1.51-4.07-1.94-1.54-.47-3.18-.9-4.77-.71-1.08.13-2.4.34-3.01,1.24-.52.78-.36,1.96,0,2.83.38.92,1.26,1.62,2.12,2.12.95.55,2.11,1.14,3.18.88.93-.22,1.67-1.1,2.12-1.94.37-.68.46-1.53.35-2.3-.1-.71-.59-1.3-.88-1.94" style="fill:none; stroke:#55a; stroke-linecap:round; stroke-linejoin:round; stroke-width:2px;"/><path id="uuid-bb4f16e7-3049-48e1-afbc-72d12eaae938" d="m324.5,353.23c.65-.53,1.59-.83,1.94-1.59.35-.75.3-1.7,0-2.47-.57-1.48-1.86-2.66-3.18-3.54-1.51-1-3.37-1.33-5.13-1.77-1.1-.27-2.31-.96-3.36-.53-.74.31-1.27,1.16-1.41,1.94-.15.84.18,1.8.71,2.47.67.85,1.75,1.51,2.83,1.59.82.06,1.7-.32,2.3-.88.52-.49.76-1.24.88-1.94.12-.7-.12-1.41-.18-2.12" style="fill:none; stroke:#55a; stroke-linecap:round; stroke-linejoin:round; stroke-width:2px;"/><path id="uuid-ccc11eb6-8699-4b7c-85f7-4107453692a2" d="m318.13,339.44l-2.12-3.18-3.36-2.3" style="fill:none; stroke:#55a; stroke-linecap:round; stroke-linejoin:round; stroke-width:2px;"/><path id="uuid-e85d306e-334f-4f14-895d-8bb94eff594a" d="m322.38,344.21c.47-1.89,1.15-3.73,1.41-5.66.28-2.04.12-4.12.18-6.19-1.53.06-3.06.12-4.6.18.06,2.18.37,4.37.18,6.54-.13,1.44-.59,2.83-.88,4.24,1.24.29,2.47.59,3.71.88h0Z" style="fill:#ff5; stroke:#55a; stroke-linecap:round; stroke-linejoin:round; stroke-width:2px;"/><path id="uuid-7a0a2b7b-fd19-4f63-a807-b73989f07b13" d="m309.83,379.75c-1.59,2.59-2.6,5.65-4.77,7.78-2.59,2.53-5.9,4.47-9.37,5.48-2.89.84-6.01.29-9.02.35-3.59.07-7.22-.5-10.78,0-2.73.39-5.43,1.19-7.95,2.3-1.77.78-3.61,1.62-4.95,3.01-.75.78-1.06,1.89-1.59,2.83.24-2.47-.01-5.04.71-7.42.83-2.75,2.24-5.38,4.07-7.6,2.08-2.52,4.67-4.74,7.6-6.19,2.55-1.26,5.49-1.58,8.31-2,4.03-.6,8.13-.57,12.2-.71,2.3-.08,4.66.47,6.89-.06,1.85-.44,3.42-1.36,5.13-2.54,1.18,1.59,2.36,3.18,3.54,4.77h0Z" style="fill:#ff5; stroke:#55a; stroke-linecap:round; stroke-linejoin:round; stroke-width:2px;"/><path id="uuid-0253ea4c-e4ba-405f-a20c-885bde0f788c" d="m270.45,391.68l5.18-3.56.05,1.09,6.88-1.93-1.07,1.68,10.34-2.4c.06,0-1.41,1.59-1.35,1.57l10.08-3.04c.23-.04-.24,1.32-.06,1.18l7.9-8.09-.59-.66-8.89,4.57,1.52.44-8.97.72.82.72-10.85-.4,1.4.86c-.11.01-10.31,1.97-10.41,2l1.78.53c-1.27.7-4.04,1.35-5.03,1.95-.99.6,1,.47.94.51l-3.71,3.11,3.98-1.85.05.99Z" style="fill:#55a; stroke:#55a; stroke-linecap:round; stroke-linejoin:round;"/></g><path id="uuid-8cfffa3b-022d-4645-a4af-446e4e5cd6ab" d="m29,98.5c0-5.52-2.86-9-7-9s-7.5,4.48-7.5,10c.02.48,0,.95,0,1.41,0,3.65,1.34,7.19,2.5,10.5,1.19,3.41,2.92,6.39,4.53,9.44,2.5,4.72,7.97,13.66,7.97,13.66,0,0,5.47-8.94,7.97-13.66,1.61-3.05,3.34-6.03,4.53-9.44,1.16-3.31,2.5-6.85,2.5-10.5-.01-.49,0-.96,0-1.41,0-5.52-3.36-10-7.5-10s-7,3.48-7,9c0,1-1,1-1,0Z" style="fill:#f55;"/><path id="uuid-618ef55f-4432-4478-a3d4-a3dc3b795d2e" d="m88.5,62.5c0-11.05-5.72-18-14-18s-15,8.95-15,20c.03.96.02,1.89,0,2.81,0,7.3,2.68,14.38,5,21,2.39,6.81,5.83,12.78,9.06,18.88,5,9.44,15.94,27.31,15.94,27.31,0,0,10.94-17.87,15.94-27.31,3.23-6.09,6.67-12.06,9.06-18.88,2.32-6.62,5-13.7,5-21-.03-.97-.02-1.91,0-2.81,0-11.05-6.72-20-15-20s-14,6.95-14,18c0,2-2,2-2,0Z" style="fill:#f55;"/><path id="uuid-37b38c85-27cc-4d9c-ad54-4b8b96df0f16" d="m330,440.5c0,5.52,2.86,9,7,9s7.5-4.48,7.5-10c-.02-.48,0-.95,0-1.41,0-3.65-1.34-7.19-2.5-10.5-1.19-3.41-2.92-6.39-4.53-9.44-2.5-4.72-7.97-13.66-7.97-13.66,0,0-5.47,8.94-7.97,13.66-1.61,3.05-3.34,6.03-4.53,9.44-1.16,3.31-2.5,6.85-2.5,10.5.01.49,0,.96,0,1.41,0,5.52,3.36,10,7.5,10s7-3.48,7-9c0-1,1-1,1,0Z" style="fill:#f55;"/><path id="uuid-ed649fe9-0c4a-4c0b-bf88-077d1d91ee44" d="m270.5,476.5c0,11.05,5.72,18,14,18s15-8.95,15-20c-.03-.96-.02-1.89,0-2.81,0-7.3-2.68-14.38-5-21-2.39-6.81-5.83-12.78-9.06-18.88-5-9.44-15.94-27.31-15.94-27.31,0,0-10.94,17.87-15.94,27.31-3.23,6.09-6.67,12.06-9.06,18.88-2.32,6.62-5,13.7-5,21,.03.97.02,1.91,0,2.81,0,11.05,6.72,20,15,20s14-6.95,14-18c0-2,2-2,2,0Z" style="fill:#f55;"/></g></svg>