<?xml version="1.0" encoding="UTF-8"?><svg id="uuid-2c627549-f7b6-45e6-a963-34d2c9dbd51e" xmlns="http://www.w3.org/2000/svg" viewBox="0 0 359 539"><g id="uuid-6a41b9a7-0451-42c9-8f41-18ecfb93b776"><path id="uuid-c434af7e-288a-48ad-a2ce-3cf9e751ae47" d="m29.5,29.5v5h5v35c0,2.76-2.24,5-5,5s-5-2.24-5-5v-5h-5v5c0,5.52,4.48,10,10,10s10-4.48,10-10V29.5h-10Z" style="fill:#f55;"/><path id="uuid-5d4676c2-c8b8-4d0b-afbc-64b90d3d2ed3" d="m329.5,509.5v-5h-5v-35c0-2.76,2.24-5,5-5s5,2.24,5,5v5h5v-5c0-5.52-4.48-10-10-10s-10,4.48-10,10v40h10Z" style="fill:#f55;"/><path id="uuid-454a7391-68b2-486d-912d-0a32cfa4e0ba" d="m59.5,29.5h270v360h0" style="fill:none; stroke:#55a; stroke-width:2px;"/><path id="uuid-1958f27f-53ce-42ad-9022-320a6c7727b6" d="m29.5,149.5v360h270" style="fill:none; stroke:#55a; stroke-width:2px;"/><g id="uuid-7c1cbc85-9448-4aa3-8f73-995b25e9d9a6"><g id="uuid-a717ef9b-9319-4d03-901f-4f7cf2d17f10"><path id="uuid-3caa7551-3af5-425d-9006-3cb5fa2a5ce5" d="m29.5,345.54l48.98,30.98" style="fill:none; stroke:#55a; stroke-linecap:round; stroke-linejoin:round; stroke-width:2px;"/><path id="uuid-d4561d8f-53a5-4c5b-9c47-8bf1fc69cb92" d="m29.5,338.16l52.69,33.82" style="fill:none; stroke:#55a; stroke-linecap:round; stroke-linejoin:round; stroke-width:2px;"/><path id="uuid-114dc7a1-7b39-437c-8060-d3a09a1b9dd1" d="m29.5,330.77l52.04,33.38" style="fill:none; stroke:#55a; stroke-linecap:round; stroke-linejoin:round; stroke-width:2px;"/><path id="uuid-7daef3a7-be3b-4755-8e59-22606b766551" d="m29.5,323.39l36.76,23.78" style="fill:none; stroke:#55a; stroke-linecap:round; stroke-linejoin:round; stroke-width:2px;"/><path id="uuid-b556a7db-9dae-4b69-833c-2669bc9592c2" d="m29.5,316.01l28.25,18.33" style="fill:none; stroke:#55a; stroke-linecap:round; stroke-linejoin:round; stroke-width:2px;"/><path id="uuid-5d34cc8d-5ad7-46ae-a038-5c9109c8f9d8" d="m29.5,308.63l23.45,15.49" style="fill:none; stroke:#55a; stroke-linecap:round; stroke-linejoin:round; stroke-width:2px;"/><path id="uuid-7b6a4a85-5f1c-47eb-93d0-c9ee4e862f37" d="m29.5,301.25l19.31,12" style="fill:none; stroke:#55a; stroke-linecap:round; stroke-linejoin:round; stroke-width:2px;"/><path id="uuid-3f32f7e3-c46f-49cf-a02c-80f1bd63119e" d="m32.23,295.36l13.53,9.16" style="fill:none; stroke:#55a; stroke-linecap:round; stroke-linejoin:round; stroke-width:2px;"/><path id="uuid-2892fd7c-0374-47f5-8f65-05f3f72cb158" d="m37.46,291.65l7.85,5.45" style="fill:none; stroke:#55a; stroke-linecap:round; stroke-linejoin:round; stroke-width:2px;"/></g><path id="uuid-f50506d6-cdf0-4242-b696-142bebe79a52" d="m129.68,146.51c-5.81,3.46-11.67,6.82-17.42,10.38-9.19,5.7-18.36,11.45-27.27,17.59-6.83,4.72-13.61,9.54-20.05,14.78-6.94,5.63-13.44,11.79-20,17.86-5.24,4.85-10.29,9.89-15.44,14.83v74.97c4.72-2.93,8.71-5.29,13.43-8.22,1.35,6.68,2.22,13.61,4.19,20.2,2.23,7.43,5.08,14.72,8.59,21.64,2.88,5.68,6.4,11.05,10.17,16.18,2.78,3.78,6.03,7.19,9.12,10.73,3.53,4.05,6.87,8.2,10.74,12.01l52.91-70.08,7.56-.18,9.85-20.58,16.49.15-.47-18.43-16.29-.11-.26-20.83,18.97.11c-1.94-8.33-3.92-17.34-6.65-25.79-2.57-7.97-5.44-15.89-9.15-23.4-4.36-8.85-9.81-17.14-15.3-25.33-4.27-6.37-9.15-12.31-13.72-18.47h0Z"/><path id="uuid-522fffe5-53fb-4bbf-8a7f-8f495e26194f" d="m193.18,60.03s10.71,1.18,16.05,1.93c4.72.66,9.43,1.38,14.12,2.25,6.88,1.27,20.54,4.33,20.54,4.33,0,0,1.11,9.1,1.77,13.64.73,5.04,1.54,10.07,2.41,15.08.7,4.07,1.02,8.25,2.25,12.2,1.2,3.86,2.44,7.92,4.97,11.07,1.63,2.03,6.26,4.65,6.26,4.65,0,0,1.7-2.31,2.89-3.05,1.57-.97,3.45-1.58,5.3-1.6,2.05-.03,4.09.72,5.94,1.6,1.79.86,3.61,1.95,4.81,3.53,1.28,1.68,2.02,3.83,2.25,5.94.24,2.2-.23,4.49-.96,6.58-.77,2.22-1.87,4.43-3.53,6.1-1.57,1.58-3.67,2.65-5.78,3.37-2.3.79-4.79,1-7.22.96-2.33-.03-4.68-.41-6.9-1.12-2.96-.96-5.81-2.38-8.34-4.17-1.82-1.29-3.33-2.98-4.81-4.65-1.47-1.66-4.01-5.3-4.01-5.3l-64.03.32s7.85-5.61,11.07-9.15c3.27-3.59,6.12-7.65,8.18-12.03,2.21-4.69,3.54-9.8,4.33-14.92.65-4.18.7-8.47.32-12.68-.35-3.97-1.24-7.9-2.41-11.71-1.39-4.54-5.46-13.16-5.46-13.16h0Z" style="fill:#ff5;"/><path id="uuid-e5299e6f-5dfb-4cf4-8487-e7d19f937892" d="m139.95,141.7l6.77-2.76,98.58,1.66,4.17,3.45-10.16,12.52h-96.32l-3.63-5.99-4.7-6.27,5.29-2.61Z"/><path id="uuid-c5ea36c6-bf08-430c-9dc5-b1772efc84eb" d="m329.5,54.5l-.5,122.5-18.5-12-1-97.82,20-12.68Z" style="fill:#f55;"/><path id="uuid-0d158638-02a5-4907-af2c-9000da44dccb" d="m108.97,29.5l28.53,36s10.76-2.85,16.24-3.78c6.72-1.15,13.52-2.07,20.34-2.22,10.7-.24,21.42.74,32.05,2.06,12.62,1.57,37.51,6.94,37.51,6.94l27.94-39H108.97Z" style="fill:#f55; stroke:#55a; stroke-linecap:round; stroke-linejoin:round; stroke-width:2px;"/><path id="uuid-e8ac8c29-36cb-4e41-a4dd-afef0e88a2d5" d="m125.07,30.98l17.58,26.32c7.04-2.25,11.53-2.98,20.51-3.9l-4.49-22.42h-6.22l5.56,18.88c-5.57.74-7.46.84-12.68,2.3l-13.12-21.18h-7.14Z" style="fill:#fff; stroke:#fff; stroke-linecap:round; stroke-linejoin:round; stroke-width:2px;"/><path id="uuid-bc78b017-3eb5-4309-99ff-f56c45ad670f" d="m168.32,30.98l4.33,21.71c10.94-.94,19.4-.6,30.33.61l5.24-22.31h-7.01l-3.72,17.64c-8.59-1.09-12.71-.88-19.93-.4l-2.92-17.24h-6.32Z" style="fill:#fff; stroke:#fff; stroke-linecap:round; stroke-linejoin:round; stroke-width:2px;"/><path id="uuid-26a085ec-a3e2-4bc9-ae2d-503f44c7192d" d="m218.85,30.98l-7.32,23.61c7.98.61,18.22,3.97,26.9,5.88l15.66-29.49h-6.88l-11.78,24.57c-4.85-1.22-12.53-3.63-17.38-4.25l6.75-20.33h-5.95Z" style="fill:#fff; stroke:#fff; stroke-linecap:round; stroke-linejoin:round; stroke-width:2px;"/><path id="uuid-a783aa0d-d347-4de6-8a30-6adf311dbfa9" d="m193.84,61.02c2.05,5.88,5.04,11.51,6.15,17.63,1.12,6.19,1.19,12.62.41,18.86-.63,5.07-2.06,10.08-4.1,14.76-1.67,3.82-3.83,7.5-6.56,10.66-3.61,4.19-7.99,7.78-12.71,10.66-2.83,1.73-5.99,2.9-9.16,3.85-3.17.95-6.45,1.67-9.75,1.81-3.87.17-8.42,1.14-11.56-1.12-1.02-.74-1.33-2.21-1.53-3.45-.18-1.2.39-2.4.4-3.61,0-.89.02-1.8-.24-2.65-.28-.9-.7-1.81-1.36-2.49-.6-.62-1.9-.49-2.25-1.28-.33-.76-.05-1.86.56-2.41.98-.88,2.62-.35,3.93-.48,1.34-.14,2.68-.5,4.01-.32,1.69.23,3.15,1.21,4.82,1.77.12-.72-1.33-2.19-1.93-2.97-.68.55-2.02.5-3.05.64-1.22.17-2.46.14-3.69.24-1.07.09-2.14.33-3.21.32-.97,0-2.09.23-2.89-.32-.49-.34-.79-1.01-.8-1.61-.01-.53.41-.97.64-1.44.4-.82,1.11-1.52,1.28-2.41.31-1.58.26-3.39-.48-4.82-.68-1.31-2.07-2.19-3.37-2.89-1.57-.84-3.48-.8-5.14-1.44-1.12-.43-2.71-.52-3.21-1.61-.86-1.85.73-4.03,1.44-5.94,1.43-3.79,3.91-7.09,5.62-10.76,1.25-2.68,2.7-5.31,3.37-8.19.34-1.46.58-3.02.32-4.5-.34-1.96-1.94-3.53-2.41-5.46-.4-1.61-.21-3.32-.32-4.98" style="fill:none; stroke:#55a; stroke-linecap:round; stroke-linejoin:round; stroke-width:2px;"/><path id="uuid-ae3e63e0-a06e-4d05-9255-9d8251ae0217" d="m173.89,81.1c-4.52-3.52-8.61-6.17-13.4-8.36-3.1-1.41-6.34-2.97-9.77-3-2.15-.02-6.19.95-6.2,1.77,0,.41.81.62,1.3.73,2.27.51,4.68-.69,7.01-.45,2.82.3,5.54,1.24,8.15,2.3,4.54,1.84,9.29,4.23,12.92,7h0Z" style="fill:#55a; stroke:#55a; stroke-linecap:round; stroke-linejoin:round; stroke-width:2px;"/><path id="uuid-43d6ef83-e32a-4a2b-ac95-c87c0e23bb22" d="m145,78.75c1,.42,1.99.55,3,.52,1.46-.05,2.8-.91,4.25-1.02,2.75-.2,5.57.07,8.25.75,2.46.62,4.78,1.77,7,3,1.42.78,2.67,1.83,4,2.75" style="fill:none; stroke:#55a; stroke-linecap:round; stroke-linejoin:round; stroke-width:2px;"/><path id="uuid-d22339b4-07df-4bae-b587-5686ccb04350" d="m147.23,81.56c1.31.29,2.6.77,3.94.88,1.75.14,3.51-.45,5.26-.29,2.24.21,4.53.66,6.57,1.61,2.84,1.32,5.06,3.7,7.59,5.55" style="fill:none; stroke:#55a; stroke-linecap:round; stroke-linejoin:round; stroke-width:2px;"/><path id="uuid-db818a75-cb2d-43ef-90f0-eb868874d15c" d="m148.4,83.16c.1,1.17-.23,2.45.29,3.5.67,1.36,2,2.39,3.36,3.07,1.46.72,3.19.94,4.82.88,1.71-.07,3.38-.66,4.96-1.31.99-.41,1.77-1.25,2.77-1.61.88-.31,1.85-.29,2.77-.44" style="fill:none; stroke:#55a; stroke-linecap:round; stroke-linejoin:round; stroke-width:2px;"/><path id="uuid-ba96f585-261f-4f2d-a87d-feb62b7e040e" d="m156.14,83.16c.29,1.07.92,2.1.88,3.21-.03.72-.29,1.47-.73,2.04-.5.67-1.36.97-2.04,1.46" style="fill:none; stroke:#55a; stroke-linecap:round; stroke-linejoin:round; stroke-width:2px;"/><path id="uuid-0d59eee0-0435-431b-a5fd-b7a6e5c4446e" d="m151.9,87.39c.79.04,1.53-.96,1.61-1.75.07-.74-.43-1.83-1.17-1.9-.86-.08-1.71,1.04-1.75,1.9-.04.73.58,1.72,1.31,1.75Z" style="fill:#55a; stroke:#55a; stroke-linecap:round; stroke-linejoin:round; stroke-width:2px;"/><path id="uuid-ef8f8960-39de-4fdf-be6f-4962f459d9fe" d="m148.69,89.58c1.31,1.22,2.52,2.56,3.94,3.65,1.09.84,2.25,1.61,3.5,2.19,1.16.54,2.43.78,3.65,1.17" style="fill:none; stroke:#55a; stroke-linecap:round; stroke-linejoin:round; stroke-width:2px;"/><path id="uuid-bd81f817-76ea-44bc-9209-c9a1b4f11c2a" d="m150.3,99.8c.58.88,1.54,1.6,1.75,2.63.2,1.02-.09,2.16-.6,3.07-.46.83-1.18,1.63-2.08,1.93-.93.31-2,.03-2.92-.29-1.13-.39-1.95-1.39-3.01-1.93-.84-.43-1.69-.92-2.63-1.02-.59-.06-1.16.29-1.75.28-.53,0-1.16.05-1.58-.29-.36-.3-.72-.89-.51-1.31.32-.64,1.35-.61,2.07-.57,1.31.07,2.51.82,3.67,1.45,1.1.6,1.94,1.64,3.07,2.19.86.42,1.82,1.01,2.76.82,1.11-.22,2.07-1.16,2.64-2.14.38-.65.49-1.49.39-2.24-.14-.95-.97-1.66-1.26-2.58h0Z" style="fill:#55a; stroke:#55a; stroke-linecap:round; stroke-linejoin:round; stroke-width:2px;"/><path id="uuid-51a87d33-d429-4bda-a802-9a42082bee74" d="m162.56,107.1c1.8.68,3.83,1.22,5.21,2.27,1.08.82,1.39,2.42,1.22,3.72-.21,1.56-1.34,3.03-2.63,3.94-1.15.81-2.68.97-4.09,1.02-1.68.06-3.34-.45-4.96-.88-1.4-.37-2.69-1.08-4.09-1.46-1-.27-2.03-.62-3.07-.58-1.16.04-2.24,1.18-3.36.88-.73-.2-1.57-.85-1.61-1.61-.03-.83.87-1.51,1.61-1.9,1.25-.66,2.83-.66,4.23-.44,1.42.23,2.63,1.16,3.94,1.75,1.47.67,2.83,1.62,4.38,2.04,1.41.39,2.94.7,4.38.44,1.3-.23,2.76-.68,3.55-1.74.75-1.01.98-2.51.63-3.71-.28-.97-1.2-1.66-2.01-2.25-.98-.72-2.37-.91-3.34-1.49h0Z" style="fill:#55a; stroke:#55a; stroke-linecap:round; stroke-linejoin:round; stroke-width:2px;"/><path id="uuid-f46dfbfe-1ca9-48c4-b825-62b42fa1eb99" d="m287,151l42.5,27.5v9.5l-47.5-31.5,5-5.5Z" style="fill:#ff5; stroke:#55a; stroke-linecap:round; stroke-linejoin:round; stroke-width:2px;"/><path id="uuid-88f3debf-7b9b-4847-acee-695cc2e0d4c2" d="m284,49.5c-3.83,6.33-8.34,11.5-10.62,18.12-1.96,5.69-2.65,11.88-2.38,17.88.3,6.83,1.71,13.76,4.5,20,2.34,5.23,6.67,9.33,10,14,1.5-4.83,2.17-10.01,4.5-14.5,2.14-4.11,5.18-7.77,8.5-11,1.63-1.58,3.67-2.67,5.5-4l-1-14.5c-3-1.83-6.39-3.15-9-5.5-2.65-2.39-4.89-5.32-6.5-8.5-1.88-3.72-2.33-8-3.5-12Z" style="fill:#ff5; stroke:#55a; stroke-linecap:round; stroke-linejoin:round; stroke-width:2px;"/><path id="uuid-b0c565c2-d273-493e-a131-8ac03fd33ecc" d="m284.24,49.73s-4.13,11.68-4.24,17.77c-.06,3.4,2,10,2,10l-10.5,7,10.5,8s-1.86,7.65-1.5,11.5c.52,5.56,5.24,15.91,5.24,15.91,0,0,1.67-10.39,3.97-15.03,1.72-3.47,4.53-6.32,7.15-9.18,2.05-2.24,6.65-6.21,6.65-6.21v-15.5s-7.58-2.84-10.5-5.5c-2.49-2.27-4.06-5.45-5.5-8.5-1.53-3.25-3.26-10.27-3.26-10.27Z" style="fill:#ff5; stroke:#55a; stroke-linecap:round; stroke-linejoin:round; stroke-width:2px;"/><path id="uuid-68cbd77d-37c2-4e59-80f3-22da42dd2f57" d="m273.25,84.59l30.25-.22" style="fill:#ff5; stroke:#55a; stroke-linecap:round; stroke-linejoin:round; stroke-width:2px;"/><path id="uuid-886e653c-903f-4457-b8c2-17636a16e354" d="m282,77.88l20.5-.38" style="fill:#ff5; stroke:#55a; stroke-linecap:round; stroke-linejoin:round; stroke-width:2px;"/><path id="uuid-1ccf253b-c5e6-438a-aee1-6faa76480b6c" d="m280.64,70.25h15" style="fill:#ff5; stroke:#55a; stroke-linecap:round; stroke-linejoin:round; stroke-width:2px;"/><path id="uuid-f007fef9-83b0-4d77-b7d8-d94c18804838" d="m281.07,62.71l7.62-.12" style="fill:#ff5; stroke:#55a; stroke-linecap:round; stroke-linejoin:round; stroke-width:2px;"/><path id="uuid-104c767f-904a-480d-9623-9d11163903f3" d="m281.62,92l19.13-.3" style="fill:#ff5; stroke:#55a; stroke-linecap:round; stroke-linejoin:round; stroke-width:2px;"/><path id="uuid-e6617bce-293b-49b4-93f5-b8749c04451a" d="m281.5,99.62l11.36-.3" style="fill:#ff5; stroke:#55a; stroke-linecap:round; stroke-linejoin:round; stroke-width:2px;"/><path id="uuid-5ed1c2f5-60dd-4a3b-a066-cf1c1122181f" d="m282.12,106.12l6.66-.02" style="fill:#ff5; stroke:#55a; stroke-linecap:round; stroke-linejoin:round; stroke-width:2px;"/><path id="uuid-3bc261ef-9ce6-4c39-928e-807d36a880b5" d="m329.5,45.5l-26,17.5v98.5l6,3.7v-97.7l20-13v-9Z" style="fill:#ff5; stroke:#55a; stroke-linecap:round; stroke-linejoin:round; stroke-width:2px;"/><path id="uuid-a57f2d93-b828-4b12-8302-0fa6d1748961" d="m242.31,136.72l3.21,3.86-88.51-.13s4.3-.47,6.41-.9c1.82-.36,3.62-.86,5.39-1.41,1.3-.41,3.85-1.41,3.85-1.41l69.65-.02Z" style="fill:#ff5;"/><path id="uuid-2e03703f-732d-4c13-9c83-e40b8a2e3a8d" d="m142.8,156.57l96.87-.36-3.81,4.72-89.61.36-3.45-4.72Z" style="fill:#ff5;"/><path id="uuid-28330763-a535-4732-b875-04df51fde42e" d="m166.75,142.6v11.61l12.7.18-.18-11.79h-12.52Z" style="fill:#ff5;"/><path id="uuid-2e7d142f-f613-4400-9180-a5e5b652d2a2" d="m195.77,142.96l-.18,11.43h13.06l-.18-11.61-12.7.18Z" style="fill:#ff5;"/><path id="uuid-b9f42f39-f658-47c9-b1af-8aa872eb0801" d="m223.89,142.96v11.25h11.79l-.18-11.61-11.61.36Z" style="fill:#ff5;"/><path id="uuid-71d37f79-7c78-48f1-91dc-a0053a68f5f5" d="m138.19,142.6h13.5l-.18,11.79-9.8.36s-1.76-2.94-2.72-4.35c-1.39-2.05-4.39-6-4.39-6l3.58-1.8Z" style="fill:#ff5;"/><path id="uuid-27690971-bd68-4418-b301-166792a8d29b" d="m148.44,148.49c0,1.66-1.34,3-3,3s-3-1.34-3-3,1.34-3,3-3,3,1.34,3,3Z" style="fill:#ff5; stroke:#000; stroke-width:2px;"/><path id="uuid-57fae347-d078-42c5-bf76-10462f429df4" d="m176.2,148.4c0,1.66-1.34,3-3,3s-3-1.34-3-3,1.34-3,3-3,3,1.34,3,3Z" style="fill:#ff5; stroke:#000; stroke-width:2px;"/><path id="uuid-12b803f9-e5b7-48be-932a-e9a808c6a781" d="m204.86,148.58c0,1.66-1.34,3-3,3s-3-1.34-3-3,1.34-3,3-3,3,1.34,3,3Z" style="fill:#ff5; stroke:#000; stroke-width:2px;"/><path id="uuid-b7df4c99-2382-46cf-b479-e454125086ee" d="m232.98,148.03c0,1.66-1.34,3-3,3s-3-1.34-3-3,1.34-3,3-3,3,1.34,3,3Z" style="fill:#ff5; stroke:#000; stroke-width:2px;"/><path id="uuid-e8d41cf1-916c-4083-ba1a-7c7029df9736" d="m163.05,148.89c0,1.93-1.57,3.5-3.5,3.5s-3.5-1.57-3.5-3.5,1.57-3.5,3.5-3.5,3.5,1.57,3.5,3.5Z" style="fill:#ff5;"/><path id="uuid-58acbba0-6b11-4fa6-b682-1c5ac8e4747d" d="m191.11,148.58c0,1.93-1.57,3.5-3.5,3.5s-3.5-1.57-3.5-3.5,1.57-3.5,3.5-3.5,3.5,1.57,3.5,3.5Z" style="fill:#ff5;"/><path id="uuid-28f62798-3861-4666-a1c0-f672144b5522" d="m220.14,148.76c0,1.93-1.57,3.5-3.5,3.5s-3.5-1.57-3.5-3.5,1.57-3.5,3.5-3.5,3.5,1.57,3.5,3.5Z" style="fill:#ff5;"/><path id="uuid-3ea08288-5b65-4df0-87d0-45c92ce607ca" d="m246.26,148.04l-3.68,4.23c-1.27,1.46-2.77-1.39-2.77-3.32s1.57-3.5,3.5-3.5,4.23,1.14,2.96,2.59Z" style="fill:#ff5;"/><path id="uuid-9ffa264e-c5a9-4c8b-a7a2-4d9b2a491903" d="m146.99,161.35l89.11-.38-55.74,78.49s-3.38-15.7-5.88-23.32c-2.87-8.75-6.47-17.28-10.43-25.59-2.88-6.05-6.25-11.87-9.67-17.63-2.33-3.94-7.39-11.56-7.39-11.56h0Z" style="fill:#55a;"/><path id="uuid-00f423ee-3029-444b-b3f5-2f5a648cb4cd" d="m166.23,171.68l46.75-.17-28.75,38.87s-2.27-8.02-3.72-11.92c-1.41-3.81-3.03-7.56-4.83-11.21-1.62-3.27-3.46-6.43-5.37-9.54-1.28-2.07-4.07-6.04-4.07-6.04h0Z" style="fill:#fff;"/><path id="uuid-6694e505-d2af-4706-bed6-0b746348cc52" d="m129.56,146.68c4.04,5.25,9.74,11.98,14.03,18.39,5.3,7.91,10.12,16.15,14.41,24.65,3.68,7.31,7.05,14.81,9.67,22.56,2.9,8.58,4.36,17.32,6.64,26.35,1.52.13,4.17.06,5.69.19-.76-3.6-1.6-6.84-2.46-10.24-1.62-6.34-2.97-12.78-5.12-18.96-2.37-6.82-5.42-13.39-8.53-19.91-3.15-6.58-6.46-13.1-10.24-19.34-3.06-5.05-6.59-9.81-10.05-14.6-2.95-4.09-6.64-8.65-9.1-12.06-1.2.76-3.73,2.21-4.93,2.96h0Z" style="fill:#ff5; stroke:#000; stroke-linecap:round; stroke-linejoin:round; stroke-width:2px;"/><path id="uuid-16cef926-10f8-4466-9f5a-357076c79ebf" d="m173.34,175.11l31.68-.11-19.48,25.91s-1.54-5.34-2.52-7.95c-.96-2.54-2.05-5.04-3.27-7.47-1.1-2.18-2.34-4.29-3.64-6.36-.86-1.38-2.76-4.02-2.76-4.02h0Z" style="fill:#55a;"/><path id="uuid-2308d4e8-2bcb-48d5-8891-5c7cc0b5081f" d="m254.41,146.53l5.66,1.41,7.95.18,6.01-1.59,4.07-2.65,9.9,6.13-67.3,89.69-33.64-.53,67.35-92.63Z"/><path id="uuid-5595a64a-a01a-40db-a2ed-7e97142f5fc6" d="m270.53,149.62c-.85-.03-1.45,1-1.84,1.75-1.51,2.93.8,7.34-1.41,9.78-4.46,4.94-13.71,1.32-19.38,4.81-.65.4-1.2,1.04-1.5,1.75-3.21,7.49,3,18.3-2.5,24.31-4.04,4.42-12.41.51-17.62,3.44-.7.39-1.3,1.05-1.62,1.78-3.12,7.04,2.81,17.11-2.16,23-3.52,4.17-10.99,1.7-15.81,4.25-.51.27-.97.66-1.31,1.12-1.94,2.64-3.76,5.76-3.88,9.03-.03.98.07,2.38.97,2.77.9.39,2-.49,2.69-1.18,2.09-2.09,1.3-6.19,3.53-8.12,4.23-3.65,11.46-1.39,16.19-4.38.64-.4,1.17-1.02,1.47-1.72,2.99-7.06-2.99-17.22,2.16-22.91,4.02-4.44,12.39-.53,17.62-3.44.7-.39,1.3-1.02,1.62-1.75,3.38-7.46-2.87-18.25,2.5-24.44,4.35-5.01,13.62-1.38,19.31-4.78.64-.38,1.18-.98,1.5-1.66,1.59-3.39,2.7-7.55,1.59-11.12-.31-1-1.08-2.28-2.12-2.31Z" style="fill:#ff5;"/><path id="uuid-e6ea0a0b-e440-4193-a5d0-75ed39d8fa1c" d="m261.98,156.07c0,1.93-1.57,3.5-3.5,3.5s-3.5-1.57-3.5-3.5,1.57-3.5,3.5-3.5,3.5,1.57,3.5,3.5Z" style="fill:#ff5;"/><path id="uuid-6b0ab151-7dea-444d-a053-1b06eda32cbd" d="m260.03,176.05c0,1.93-1.57,3.5-3.5,3.5s-3.5-1.57-3.5-3.5,1.57-3.5,3.5-3.5,3.5,1.57,3.5,3.5Z" style="fill:#ff5;"/><path id="uuid-7040066b-822a-47b8-8a12-d78142ca6558" d="m239.53,184.89c0,1.93-1.57,3.5-3.5,3.5s-3.5-1.57-3.5-3.5,1.57-3.5,3.5-3.5,3.5,1.57,3.5,3.5Z" style="fill:#ff5;"/><path id="uuid-da26a853-5149-4926-b517-17e539a41271" d="m238.64,206.1c0,1.93-1.57,3.5-3.5,3.5s-3.5-1.57-3.5-3.5,1.57-3.5,3.5-3.5,3.5,1.57,3.5,3.5Z" style="fill:#ff5;"/><path id="uuid-822af8b2-d5f0-4a76-9e3a-b5d776172bed" d="m217.96,214.41c0,1.93-1.57,3.5-3.5,3.5s-3.5-1.57-3.5-3.5,1.57-3.5,3.5-3.5,3.5,1.57,3.5,3.5Z" style="fill:#ff5;"/><path id="uuid-0eb0ffc3-1d77-4652-9e59-db2d978c7ada" d="m218.84,234.03c0,1.93-1.57,3.5-3.5,3.5s-3.5-1.57-3.5-3.5,1.57-3.5,3.5-3.5,3.5,1.57,3.5,3.5Z" style="fill:#ff5;"/><path id="uuid-195c7982-c7c6-43ea-ae60-5269fe8d3b24" d="m249,143.07l-69.2,95.93h7.58l66.92-92.71-5.31-3.22Z" style="fill:#f55; stroke:#000; stroke-linecap:round; stroke-linejoin:round; stroke-width:2px;"/><g id="uuid-821cc29d-e7d5-46dd-9404-460a3f0fef8c"><path id="uuid-2c7b71bf-4761-425e-84c4-f1d181ec8c18" d="m243.66,68.81c1.49,7.57,2.49,15.22,3.78,22.82,1.07,6.3,1.28,12.82,3.31,18.87,1.26,3.76,2.94,7.49,5.42,10.59,1.33,1.67,3.23,2.78,4.92,4.09" style="fill:none; stroke:#55a; stroke-linecap:round; stroke-linejoin:round; stroke-width:2px;"/><path id="uuid-070727a1-e75b-4f0f-8dfa-9b1fc064597d" d="m236.89,67.99c1.59,9.43,2.95,18.17,4.63,27.22,1.09,5.88,1.53,11.95,3.55,17.57,2.16,6.01,4.53,12.38,9.03,16.91,3.14,3.16,7.29,6.31,11.75,6.37,1.79.02,4.53-.67,4.79-2.45.22-1.47-2.11-2.78-3.22-3.1" style="fill:none; stroke:#55a; stroke-linecap:round; stroke-linejoin:round; stroke-width:2px;"/><path id="uuid-207718b6-a5ca-468b-9950-7593f2b593dd" d="m229.72,66.15c2.2,7.16,3.21,14.58,4.51,21.94,1.39,7.83,1.18,15.99,3.5,23.6,2.27,7.44,4.81,15.3,10.04,21.07,4.08,4.5,9.54,8.94,15.59,9.43,4.3.35,9.91-1.06,12.01-4.83,1.82-3.28,1.44-9.47-1.95-11.09-2.27-1.08-7.96-1.57-6.6,3.65" style="fill:none; stroke:#55a; stroke-linecap:round; stroke-linejoin:round; stroke-width:2px;"/><path id="uuid-7e3b7502-5893-4e6c-9a49-803a7e5b2e5f" d="m223.16,65.33c2.04,5.83,2.69,12.01,3.97,18.03,2.68,12.64,3.15,25.91,7.76,37.98,2.31,6.05,5.44,11.99,9.81,16.77,3.63,3.97,7.91,8.2,13.16,9.35,6.78,1.48,15.66,1.13,20.45-3.89,4.09-4.29,5.91-12.75,2.51-17.6-3.36-4.81-12.43-7.01-17.22-3.63-3.09,2.18-2.84,7.72-1.51,11.26.42,1.1,1.78,1.71,2.67,2.33" style="fill:none; stroke:#55a; stroke-linecap:round; stroke-linejoin:round; stroke-width:2px;"/><path id="uuid-78e2f72e-14b7-4ecf-907c-47921df33d0b" d="m216.39,63.89c1.82,5.6,3.17,11.35,4.33,17.12,2.19,10.94,1.93,22.36,4.94,33.1,1.84,6.57,5.03,13.23,7.95,18.87" style="fill:none; stroke:#55a; stroke-linecap:round; stroke-linejoin:round; stroke-width:2px;"/><path id="uuid-46153bee-1ffb-4269-bd82-2e84d57bbb52" d="m208.81,62.46c1.82,5.25,3.21,10.65,4.33,16.09,1.91,9.23,2.7,18.53,4.07,27.99,1.35,9.29,5.42,18.33,9.84,26.4" style="fill:none; stroke:#55a; stroke-linecap:round; stroke-linejoin:round; stroke-width:2px;"/><path id="uuid-bd7dd2a0-b533-403b-b88b-7458fb67c3b1" d="m200.81,61.64c2.2,4.83,3.93,9.87,5.23,15,2.98,11.7,3.15,23.98,5.86,35.75,1.06,4.58,2.27,9.16,4.04,13.52,1.09,2.67,2.79,5.41,4.01,7.67" style="fill:none; stroke:#55a; stroke-linecap:round; stroke-linejoin:round; stroke-width:2px;"/><path id="uuid-ca71d203-6aab-4f7a-8cf0-e6d1ac66208a" d="m200.54,81.93c1.06,7,1.84,14.09,3.17,21.07,1.25,6.54,2.56,13.09,4.51,19.46,1.11,3.6,2.86,6.96,4.08,10.52" style="fill:none; stroke:#55a; stroke-linecap:round; stroke-linejoin:round; stroke-width:2px;"/><path id="uuid-964c5a05-441d-41d7-bcdd-8a7f68e0e235" d="m198.15,108.17c.96,5.37,1.88,10.77,3.41,16.01.9,3.07,2.19,6.02,3.36,9" style="fill:none; stroke:#55a; stroke-linecap:round; stroke-linejoin:round; stroke-width:2px;"/><path id="uuid-b75bc2b1-294a-4802-b542-fe8b111dd392" d="m193.23,119.04c.68,4.96,2,9.88,4.31,14.35" style="fill:none; stroke:#55a; stroke-linecap:round; stroke-linejoin:round; stroke-width:2px;"/><path id="uuid-cc3d9925-f521-4008-8567-4ee05eb7da36" d="m188.51,125.19c.57,2.75,1.2,5.56,2.67,8" style="fill:none; stroke:#55a; stroke-linecap:round; stroke-linejoin:round; stroke-width:2px;"/><path id="uuid-59018040-9794-4bc4-84cf-e1c3786b4e18" d="m183.13,130c.42,1.25.52,2.63,1.51,3.71" style="fill:none; stroke:#55a; stroke-linecap:round; stroke-linejoin:round; stroke-width:2px;"/></g><path id="uuid-b6790964-cff0-42b2-8f9c-2e91971f1b91" d="m179.24,133.42l60.56-.15,2.57,3.54h-69.75s6.63-3.38,6.63-3.38Z"/><g id="uuid-44baca03-ad7a-4636-96b0-86068682e5ff"><path id="uuid-d1d6c8a2-7ca1-4372-b1d5-949c0de09f46" d="m309.5,75.95l20-13" style="fill:none; stroke:#55a; stroke-linecap:round; stroke-linejoin:round; stroke-width:2px;"/><path id="uuid-af5f51db-5e5f-4b04-b3e5-23076c783d03" d="m309.5,83.99l20-13" style="fill:none; stroke:#55a; stroke-linecap:round; stroke-linejoin:round; stroke-width:2px;"/><path id="uuid-012faea0-fb9a-4331-8c5b-12b3e3198e6b" d="m309.5,92.03l20-13" style="fill:none; stroke:#55a; stroke-linecap:round; stroke-linejoin:round; stroke-width:2px;"/><path id="uuid-dc21de6e-ad59-49de-b97f-5f7b70efe767" d="m309.5,100.07l20-13" style="fill:none; stroke:#55a; stroke-linecap:round; stroke-linejoin:round; stroke-width:2px;"/><path id="uuid-dabe936b-bfc2-4bac-be28-456915060fa5" d="m309.5,108.12l20-13" style="fill:none; stroke:#55a; stroke-linecap:round; stroke-linejoin:round; stroke-width:2px;"/><path id="uuid-79e0f9f8-0030-4555-be22-a99e86d951e7" d="m309.5,116.16l20-13" style="fill:none; stroke:#55a; stroke-linecap:round; stroke-linejoin:round; stroke-width:2px;"/><path id="uuid-16a3b28c-8e4e-414b-b008-82271d748a57" d="m309.5,124.2l20-13" style="fill:none; stroke:#55a; stroke-linecap:round; stroke-linejoin:round; stroke-width:2px;"/><path id="uuid-7b38f41f-bfe1-4305-a0b9-eb4bab16ad33" d="m309.5,132.24l20-13" style="fill:none; stroke:#55a; stroke-linecap:round; stroke-linejoin:round; stroke-width:2px;"/><path id="uuid-b1945bb9-ea69-4ee5-9c74-55dae11ae36f" d="m309.5,140.29l20-13" style="fill:none; stroke:#55a; stroke-linecap:round; stroke-linejoin:round; stroke-width:2px;"/><path id="uuid-deb66c69-d04f-470d-8124-a93547e2a1b7" d="m309.5,148.33l20-13" style="fill:none; stroke:#55a; stroke-linecap:round; stroke-linejoin:round; stroke-width:2px;"/><path id="uuid-8734bb8a-4265-4f93-b792-7b256043d257" d="m309.5,156.37l20-13" style="fill:none; stroke:#55a; stroke-linecap:round; stroke-linejoin:round; stroke-width:2px;"/><path id="uuid-a40f5a58-6fab-49f5-863a-34f78469a046" d="m309.5,164.41l20-13" style="fill:none; stroke:#55a; stroke-linecap:round; stroke-linejoin:round; stroke-width:2px;"/><path id="uuid-1d286dde-7cf3-49d8-a258-4df58ca09bdf" d="m315.5,168.46l14-9" style="fill:none; stroke:#55a; stroke-linecap:round; stroke-linejoin:round; stroke-width:2px;"/><path id="uuid-a8022762-1686-4626-931d-98556658b216" d="m321.5,172.5l8-5" style="fill:none; stroke:#55a; stroke-linecap:round; stroke-linejoin:round; stroke-width:2px;"/></g><path id="uuid-e24f2b62-e4ed-4487-9947-15dd95d8d5df" d="m123.72,152.91c-.94.03-1.57,1.19-1.91,2.06-1.13,2.97-.76,6.49.16,9.53.2.66.61,1.29,1.12,1.75,5.27,4.73,15.18,3.54,19,9.5,4.05,6.32-1.21,15.26.75,22.5.15.57.45,1.12.84,1.56,3.96,4.51,12.35,4.95,14.62,10.5,2.21,5.4-2.91,11.42-2.97,17.25,0,.42.06.85.19,1.25.87,2.72,1.75,5.75,3.91,7.62.73.63,1.87,1.39,2.73.95s.92-1.8.84-2.76c-.23-2.62-3.2-4.43-3.59-7.03-.9-5.96,3.75-11.82,3.09-17.81-.08-.71-.37-1.41-.81-1.97-3.79-4.79-12-5.3-14.88-10.69-3.56-6.67,1.53-15.47-.75-22.69-.21-.65-.61-1.26-1.12-1.72-5.29-4.71-15.23-3.5-19-9.5-1.47-2.35.98-5.77-.12-8.31-.39-.88-1.13-2.03-2.09-2Z" style="fill:#ff5;"/><path id="uuid-55764025-6b5b-4fb7-8293-f12e0ff116dc" d="m135.46,159.58c0,1.93-1.57,3.5-3.5,3.5s-3.5-1.57-3.5-3.5,1.57-3.5,3.5-3.5,3.5,1.57,3.5,3.5Z" style="fill:#ff5;"/><path id="uuid-40432bf5-34ea-44b7-8fc3-8f8ca6c503a9" d="m139.88,179.93c0,1.93-1.57,3.5-3.5,3.5s-3.5-1.57-3.5-3.5,1.57-3.5,3.5-3.5,3.5,1.57,3.5,3.5Z" style="fill:#ff5;"/><path id="uuid-d0630de5-87d4-480f-92e3-6a46234d9f86" d="m156.47,192.53c0,1.93-1.57,3.5-3.5,3.5s-3.5-1.57-3.5-3.5,1.57-3.5,3.5-3.5,3.5,1.57,3.5,3.5Z" style="fill:#ff5;"/><path id="uuid-6fce1b2e-fe25-45a2-9665-5ec27c7d6558" d="m155.81,213.76c0,1.93-1.57,3.5-3.5,3.5s-3.5-1.57-3.5-3.5,1.57-3.5,3.5-3.5,3.5,1.57,3.5,3.5Z" style="fill:#ff5;"/><path id="uuid-95692101-0ee1-46f9-b38f-c13300669796" d="m169.96,227.69c0,1.93-1.57,3.5-3.5,3.5s-3.5-1.57-3.5-3.5,1.57-3.5,3.5-3.5,3.5,1.57,3.5,3.5Z" style="fill:#ff5;"/><path id="uuid-aa96cde3-d53a-468c-b942-a1f0e5c581c6" d="m112.88,156.97l-3.33,2.03s9.28,11.85,12.79,16.97c3.11,4.52,5.91,9.3,8.53,14.19,3.57,6.65,6.71,13.59,9.81,20.56,2.39,5.37,6.81,16.5,6.81,16.5l3.72-1.47s-4.43-11.09-6.91-16.66c-3.11-6.99-6.28-14-9.94-20.81-2.67-4.96-5.5-9.87-8.72-14.56-3.8-5.53-12.78-16.75-12.78-16.75h0Z" style="fill:#ff5;"/><path id="uuid-5887213a-45b1-47bc-9736-72bd8a1bf229" d="m108.38,163.51c-3.12,2.25-6.09,4.08-9.59,6.91-1.51,1.22-1.87,3.09-1.81,4.75.05,1.66.51,3.3.91,4.59.71,2.32,2.2,4.56,4.47,5.81,1.11.61,2.43,1.15,3.84,1.34s2.97.09,4.28-.81c3.24-2.22,6.31-4.24,9.53-6.22l-1.56-2.56c-3.27,2.01-6.39,4.07-9.66,6.31-.45.31-1.21.45-2.16.31s-2.03-.55-2.84-1c-1.37-.76-2.56-2.41-3.06-4.06-.36-1.18-.71-2.63-.75-3.81-.04-1.18.22-1.94.72-2.34,3.35-2.7,6.22-4.46,9.44-6.78l-1.75-2.44Z" style="fill:#ff5;"/><path id="uuid-70847d0e-b65b-4700-a56a-53bba997efc0" d="m122.22,183.42c-3.1,1.73-6.46,3.08-9.75,5.44-1.3.94-1.96,2.36-2.28,3.75s-.32,2.82-.19,4.06c.28,2.6,1.61,5.13,3.69,6.78,1.09.86,2.48,1.73,4,2.25s3.3.77,4.84-.19c2.93-1.82,5.72-3.06,9.12-5.03l-1.5-2.59c-3.27,1.89-6.1,3.15-9.22,5.09-.38.24-1.2.25-2.28-.12s-2.28-1.08-3.12-1.75c-1.35-1.07-2.38-3.03-2.56-4.78-.1-.97-.09-2.09.12-3.03.22-.94.61-1.6,1.12-1.97,2.94-2.11,6.17-3.43,9.47-5.28l-1.47-2.62Z" style="fill:#ff5;"/><path id="uuid-f98a024d-6d83-4272-85d1-ed9d80515e1e" d="m133.97,203.73c-3.72,1.78-5.71,2.91-10.31,6.09-1.29.89-1.92,2.3-2.25,3.66s-.36,2.72-.22,3.94c.33,2.92,1.78,6.04,4.44,7.75,1.12.72,2.43,1.42,3.97,1.69,1.51.26,3.24,0,4.84-1l.03.03,8.41-4.81-1.5-2.59-8.38,4.78s-.04.02-.06.03c-1.02.65-1.88.76-2.81.59s-1.94-.65-2.88-1.25c-1.62-1.04-2.82-3.4-3.06-5.53-.1-.92-.09-2.03.12-2.94s.6-1.56,1.06-1.88c4.54-3.15,6.25-4.09,9.91-5.84l-1.31-2.72h0Z" style="fill:#ff5;"/><path id="uuid-613fa571-7752-4b39-a79d-f70c25d2be12" d="m148.81,222.44s-10.76,6.23-16,10.19c-4.86,3.66-9.41,7.93-13.52,12.7-4.23,4.92-7.99,10.4-10.69,16.41-2.63,5.85-4.44,11.76-5.36,17.96-.79,5.33-.82,10.74-.47,16.03.34,5.06,1.65,9.38,3.21,14.39,2.17,6.92,9.67,19.96,9.67,19.96l2.61-3.4s-6.64-11.9-8.47-17.75c-1.42-4.54-2.73-8.56-3.06-13.48-.34-5.09-.3-10.2.44-15.16.89-5.97,2.66-11.55,5.08-16.92,2.5-5.56,6.02-10.75,10.06-15.44,3.78-4.39,8.1-8.49,12.89-12.11,4.73-3.57,15.62-9.91,15.62-9.91l-2.03-3.47Z" style="fill:#ff5;"/><path id="uuid-4d7cae05-3f26-4ccb-ae6a-23e527190cbf" d="m88.18,172.9l-3.15,2.24s8.22,9.42,11.5,13.73c2.66,3.5,5.19,7.12,7.41,10.88,4.33,7.32,8.12,14.97,11.59,22.78,1.52,3.42,3.69,9.61,4.16,10.91-1.33,1.38-7.89,8.21-11.25,13.03-3.66,5.25-7.05,10.88-9.31,17.03-2.56,6.94-4.28,14.35-4.53,21.84-.3,8.81,1.08,17.69,3.59,26.06,2.69,8.95,12.36,25.52,12.36,25.52l2.58-3.43s-8.76-15.43-11.09-23.22c-2.41-8.02-3.72-16.52-3.44-24.81.23-6.96,1.84-13.97,4.28-20.59,2.09-5.68,5.3-11.03,8.84-16.12,3.22-4.62,11.72-13.47,11.72-13.47.52-.53.71-1.36.47-2.06,0,0-2.87-8.15-4.72-12.31-3.52-7.92-7.38-15.7-11.81-23.19-2.32-3.92-4.93-7.66-7.66-11.25-3.53-4.65-11.54-13.57-11.54-13.57Z" style="fill:#ff5;"/><path id="uuid-71175926-4a50-4cd9-acf4-859d23d266f3" d="m99.91,192.91s-2.51,18.33-5.41,26.56c-3.36,9.55-8.27,18.62-13.97,27.06-5.31,7.87-12.1,14.8-18.81,21.78-4.9,5.09-9.89,10.07-15.38,14.38-4.59,3.6-16.84,10.81-16.84,10.81v4s13.69-8.55,18.69-12.47c5.67-4.45,10.76-9.5,15.69-14.62,6.7-6.97,13.61-14.02,19.12-22.19,5.81-8.61,10.87-17.93,14.34-27.78,3.17-9.01,5.53-27.16,5.53-27.16l-2.97-.38Z" style="fill:#ff5;"/><path id="uuid-bff09f3f-209c-4da8-909d-2755a175192f" d="m66.65,188.46s-.48,13.45-1.87,18.82c-1.71,6.61-3.95,13.12-7.12,19.03-3.47,6.47-7.98,12.43-12.97,17.94-3.74,4.12-15.19,12.44-15.19,12.44v5.04s13.83-10.01,18.16-14.79c5.15-5.68,9.86-11.91,13.53-18.75,3.38-6.3,5.7-13.1,7.47-19.91,1.6-6.18,2-22.77,2-22.77l-4,2.95Z" style="fill:#ff5;"/><path id="uuid-e6fea255-f9fc-4665-9654-a68d0394f06c" d="m89.62,183.19c-5.53,1.74-12.27,3.31-15.38,8.22-.47.74-.54,1.85-.12,2.62,2.18,4.06,8.63,3.8,11.88,7.06,2.45,2.47,6.25,5.66,5.28,9-.85,2.94-5.21,3.4-8.16,4.22-4.1,1.14-9.36-1.73-12.75.84-.72.55-1.12,1.68-.91,2.56.85,3.52,6.01,4.35,7.91,7.44,2.03,3.31,5.28,7.86,3.28,11.19-1.7,2.83-6.41,2.01-9.72,2-3.81-.01-7.61-3.69-11.19-2.38-.85.31-1.58,1.25-1.66,2.16-.35,4.03,4.57,6.85,5.62,10.75.85,3.17,2.73,7.49.44,9.84-2.42,2.47-7,.52-10.38-.22-3.54-.77-6.4-4.92-9.97-4.31-.89.15-1.76.97-2,1.84-1.26,4.62,3.98,8.96,4.19,13.75.11,2.64.42,6.12-1.66,7.75-1.76,1.37-4.51.28-6.69-.22-1.17-.27-2.16-1.9-3.28-1.47-.93.36-1.55,1.82-1.19,2.75.51,1.29,2.46,1.35,3.81,1.66,2.76.62,5.79,1.14,8.47.25.61-.2,1.16-.65,1.5-1.19,1.73-2.8,2.13-6.37,2.03-9.66-.11-3.83-5.89-8.54-3.03-11.09,1.93-1.72,4.66,2.36,7.19,2.88,4.06.83,8.59,1.8,12.44.25.67-.27,1.27-.86,1.53-1.53,1.46-3.75.49-8.16-.5-12.06-.75-2.97-5.88-5.81-4.03-8.25,1.7-2.25,5.52,1.54,8.34,1.5,4.02-.05,8.54-.1,11.81-2.44.6-.43,1.03-1.17,1.12-1.91.57-4.62-1.6-9.38-3.94-13.41-1.29-2.22-6.23-3.13-5.34-5.53,1.09-2.93,6.34,0,9.34-.88,3.61-1.06,7.65-2.27,10.03-5.19.46-.56.69-1.37.59-2.09-.54-4.19-3.49-7.88-6.44-10.91-2.74-2.82-10.14-2.35-10-6.28.17-4.84,11.32-2.24,12.81-6.84.31-.95-.36-2.99-1.31-2.69Z" style="fill:#ff5;"/><path id="uuid-1c7458fd-70bb-462d-bb6a-2651aa51ac76" d="m73.94,198.66c-.94.35-1.48,1.85-1.12,2.78.71,1.89,3.77,1.54,5.41,2.72,1,.72,2.95,1.41,2.62,2.59-.33,1.2-2.39.77-3.62.88-1.95.16-4.32-1.66-5.84-.44-.78.62-1.06,2.19-.44,2.97,1.37,1.7,4.36.65,6.53.47,2.31-.19,5.08-.02,6.75-1.62.6-.58.9-1.6.69-2.41-.58-2.23-3.04-3.53-4.91-4.88-1.84-1.32-3.94-3.86-6.06-3.06Z" style="fill:#ff5;"/><path id="uuid-e3e7e658-033c-4859-b0af-536961ca8c83" d="m93.34,189.22c-2.39,1.38-3.79,1.71-6.62,3.53-.64.41-.33,1.65.09,2.28.41.62,1.38.58,2.03.94.99.55,2.07,1.02,2.84,1.84.6.64.9,1.52,1.28,2.31.25.54.12,1.41.66,1.66.76.35,2.02-.05,2.38-.81.28-.6-.43-1.25-.72-1.84-.51-1.05-.98-2.18-1.78-3.03-.94-1-3.48-.94-3.41-2.31.09-1.66,3.91-.75,4.41-2.34.25-.8-.43-2.64-1.16-2.22Z" style="fill:#ff5;"/><path id="uuid-9ac8c591-83fd-4872-a53e-adc8448ff79b" d="m89.84,216.31c-.82-.11-1.3,1.02-2,1.47-1.08.69-2.15,1.48-3.38,1.88-.42.14-.87.13-1.31.16-.3.02-.65-.16-.91,0-.65.39-1.09,1.25-1.06,2,.05,1.3,1.57,2.09,2.09,3.28.65,1.46-.11,3.79,1.25,4.62.71.44,2,.21,2.44-.5.93-1.51-.7-3.5-1.41-5.12-.3-.7-1.51-1.25-1.19-1.94.13-.27.6-.03.88-.12,1.44-.48,2.72-1.37,4-2.19.74-.47,2-.69,2.12-1.56.11-.82-.71-1.85-1.53-1.97Z" style="fill:#ff5;"/><path id="uuid-09bcc980-3700-417b-a8c4-4d12e4e0c550" d="m82.91,178.92c-1.55-.02-2.14,1.87-3.39,2.63-1.23.74-3.44.66-3.98,1.84-.36.78.03,2.06.97,2.36,1.72.55,3.35-1.32,4.84-2.22,1.36-.82,3.67-1.47,3.69-2.87.01-.83-1.13-1.73-2.12-1.74Z" style="fill:#ff5;"/><path id="uuid-47623119-c987-4821-a6a6-e7d1a4d94b83" d="m68.03,221.81c-.3.96-1.88,1.48-1.72,2.47.11.65,1.08.77,1.59,1.19.79.65,1.64,1.26,2.28,2.06.74.92,1.23,2.01,1.75,3.06.04.07.13.15.09.22-.04.06-.15.03-.22.03-1.17.08-2.37.17-3.53,0-.9-.13-1.76-.48-2.62-.78-.56-.19-1.11-.88-1.66-.66-.92.38-1.57,1.83-1.19,2.75.24.59,1.18.51,1.78.72,1.07.37,2.13.78,3.25.94,1.38.2,2.79.1,4.19.03.81-.04,1.73.19,2.41-.25.66-.42,1.14-1.25,1.19-2.03.05-.82-.6-1.52-.97-2.25-.63-1.26-1.24-2.56-2.12-3.66-.79-.98-1.81-1.76-2.78-2.56-.55-.46-1.08-1.6-1.72-1.28,0,0,0,0,0,0Z" style="fill:#ff5;"/><path id="uuid-535b9a18-d2e2-4d67-b75b-02890870274f" d="m55.81,242.56c-.98-.23-2.28.71-2.5,1.69-.34,1.47,1.71,2.51,2.28,3.91.58,1.42,2.2,3.37,1.12,4.47-.71.73-2.01-.34-2.97-.69-1.47-.53-2.69-2.54-4.19-2.09-.96.29-1.79,1.64-1.5,2.59.5,1.66,3.03,1.72,4.66,2.31,1.86.68,3.87,1.94,5.78,1.41.79-.22,1.53-.95,1.75-1.75.67-2.45-.92-5.02-1.88-7.38-.64-1.59-.89-4.08-2.56-4.47Z" style="fill:#ff5;"/><path id="uuid-2487b56f-169e-4352-ad98-63c152c75b31" d="m38.72,258.81c-.88-.46-2.36.12-2.81,1-.94,1.83,1.37,3.91,1.69,5.94.18,1.15,1.04,2.78.12,3.5-.96.76-2.47-1.57-3.53-.97-.87.49-1.3,2.01-.81,2.88.94,1.67,3.65,1.88,5.53,1.53.78-.14,1.57-.69,1.91-1.41.86-1.81.07-4.02-.25-6-.36-2.21.15-5.44-1.84-6.47Z" style="fill:#ff5;"/><path id="uuid-b738d64e-7264-4f0c-a221-e4ec1f36151e" d="m76.69,242.53c-1-.29-1.76,1.19-2.78,1.41-1.05.22-2.22-.59-3.22-.19-.71.29-1.72.94-1.56,1.69.5,2.28,2.15,5.43,1.44,6.97-.35.76,1.94.75,2.5.12,1.34-1.5-2.21-4.38-.97-5.97.51-.65,1.67,0,2.47-.22,1.22-.34,3.04-.45,3.41-1.66.24-.8-.48-1.92-1.28-2.16Z" style="fill:#ff5;"/><path id="uuid-23095c36-daf1-4425-bc0d-d9ecfd8187de" d="m52.22,264c-.61-.2-.95.95-1.12,1.56-.64,2.24-1.05,5.21.47,6.97.54.63,1.79,1.06,2.44.53,1.58-1.29-1.58-4.72-.09-6.12,1.52-1.44,4.94,2.05,6.28.44.53-.64,0-1.86-.62-2.41-1.73-1.52-4.57-.52-6.84-.88-.17-.03-.39.04-.5-.09,0,0,0,0,0,0Z" style="fill:#ff5;"/><path id="uuid-3fcd962f-43bb-4389-b34c-c7196a4bbc00" d="m33.66,282.44c-.27.79-1.77,1.17-1.53,1.97.31,1.06,2.04.9,3.12,1.09.77.14,1.75.54,2.34.03.63-.54.85-1.84.31-2.47-.55-.64-1.7.08-2.53-.06-.59-.1-1.23-.92-1.72-.56,0,0,0,0,0,0Z" style="fill:#ff5;"/><path id="uuid-46b98746-245b-4713-ab03-9e59d85443d4" d="m112.03,168.36c-2.45,1.82-5.1,3.01-7.88,5.91-1.31,1.36-1.2,3.29-.44,4.5.52.83,1.29,1.31,2.12,1.62s1.76.47,2.72-.03c3.48-1.83,5.06-3.21,7.81-5.09l-1.41-2.06c-2.85,1.95-4.27,3.24-7.56,4.97.09-.05-.28.03-.69-.12s-.82-.48-.91-.62c-.29-.47-.42-.87.12-1.44,2.45-2.55,4.88-3.61,7.59-5.62-.54-.64-1.03-1.31-1.5-2Z" style="fill:#ff5;"/><path id="uuid-46c6b7fd-8a31-460c-88af-45e05fb9d223" d="m124.75,188.92c-2.03,1.13-4.36,1.48-7,3.25-1.04.7-1.58,1.81-1.78,2.94s-.08,2.33.62,3.34c.64.92,1.62,1.29,2.56,1.44s1.94.11,2.81-.47c2.41-1.59,3.84-1.98,6.34-3.81l-1.47-2.03c-2.27,1.66-3.63,2.03-6.25,3.75-.09.06-.6.17-1.06.09-.46-.07-.84-.31-.91-.41-.17-.25-.3-.86-.19-1.47s.43-1.14.69-1.31c2.17-1.45,4.36-1.74,6.84-3.12l-1.22-2.19h0Z" style="fill:#ff5;"/><path id="uuid-b25071bd-a53e-4904-95a9-60e7263b0307" d="m136.25,208.98s-5.26,2.5-8.44,4.66c-1.07.73-1.31,1.87-1.34,2.94-.04,1.07.18,2.2,1,3.09,1.54,1.68,4.07,1.56,5.97.44,2.08-1.22,6.62-4.09,6.62-4.09l-1.34-2.09s-4.59,2.87-6.56,4.03c-1.07.63-2.39.53-2.84.03-.11-.12-.36-.73-.34-1.31.02-.58.35-1.03.25-.97,2.85-1.94,8.09-4.47,8.09-4.47l-1.06-2.25h0Z" style="fill:#ff5;"/><path id="uuid-55dcdb45-4de4-4764-8486-d58eaf0044e2" d="m46.34,284.8c1.47,8.19,2.27,15.86,4.56,23.42,2.44,8.04,5.7,15.87,9.64,23.29,2.85,5.38,6.31,10.45,10.04,15.26,5.29,6.83,11.91,13.17,17.4,19.2" style="fill:none; stroke:#ff5; stroke-linejoin:round; stroke-width:4px;"/><path id="uuid-4920e644-6abf-43d0-abe0-8a6c5cb5256b" d="m155.08,251.71c-4.55,3.2-9.16,8.26-11.98,11.88-2.36,3.03-4.69,6.31-6.28,10.06-1.74,4.11-2.73,8.5-3.19,12.84-.48,4.56-.57,10.92,1.66,16.81l2.75-4.09c-.45-2.94-.81-8.46-.41-12.31.43-4.03,1.33-8.04,2.88-11.69,1.36-3.21,3.46-6.25,5.75-9.19,2.51-3.22,4.89-6.92,8.91-9.25l-.08-5.07Z" style="fill:#ff5;"/><g id="uuid-8ff39acc-a4fb-402c-a8d3-4f5ece011ecc"><path id="uuid-452dae0a-2f04-495b-b725-f604212d38fa" d="m141.37,241.3c0,1.93-1.57,3.5-3.5,3.5s-3.5-1.57-3.5-3.5,1.57-3.5,3.5-3.5,3.5,1.57,3.5,3.5Z" style="fill:#ff5;"/><path id="uuid-fe6dd976-201f-47ce-ba08-402e37622c9f" d="m149.1,242.21c0,1.93-1.57,3.5-3.5,3.5s-3.5-1.57-3.5-3.5,1.57-3.5,3.5-3.5,3.5,1.57,3.5,3.5Z" style="fill:#ff5;"/><path id="uuid-8c1ea974-3e70-4a02-a8e3-768350703ede" d="m141.37,249.14c0,1.93-1.57,3.5-3.5,3.5s-3.5-1.57-3.5-3.5,1.57-3.5,3.5-3.5,3.5,1.57,3.5,3.5Z" style="fill:#ff5;"/></g><g id="uuid-7fba2290-f463-4484-8a45-2becd2fb0e22"><path id="uuid-9d31af45-b1da-49a7-89cc-e1179cb371fa" d="m126.88,256.04c.55,1.85-.51,3.8-2.37,4.35s-3.8-.51-4.35-2.37.51-3.8,2.37-4.35,3.8.51,4.35,2.37Z" style="fill:#ff5;"/><path id="uuid-c9f9686e-730c-4d78-91ed-95e34fa9e464" d="m134.55,254.73c.55,1.85-.51,3.8-2.37,4.35s-3.8-.51-4.35-2.37.51-3.8,2.37-4.35,3.8.51,4.35,2.37Z" style="fill:#ff5;"/><path id="uuid-61e019c9-dc07-46a1-a2ac-6062eeca42f6" d="m129.1,263.57c.55,1.85-.51,3.8-2.37,4.35s-3.8-.51-4.35-2.37.51-3.8,2.37-4.35,3.8.51,4.35,2.37Z" style="fill:#ff5;"/></g><g id="uuid-c4985ec7-5e47-4d1d-9ea6-f6b44b9c2926"><path id="uuid-9da0aa1a-bb84-46d3-b3bf-1b4c77dfb28f" d="m119.29,276.59c.9,1.71.25,3.83-1.46,4.73s-3.83.25-4.73-1.46-.25-3.83,1.46-4.73,3.83-.25,4.73,1.46Z" style="fill:#ff5;"/><path id="uuid-f91a877b-40b6-45c0-a99d-79fc2f93bb00" d="m126.54,273.79c.9,1.71.25,3.83-1.46,4.73s-3.83.25-4.73-1.46-.25-3.83,1.46-4.73,3.83-.25,4.73,1.46Z" style="fill:#ff5;"/><path id="uuid-40846abe-4ab6-4b5c-8bc6-d3a77e776015" d="m122.95,283.53c.9,1.71.25,3.83-1.46,4.73s-3.83.25-4.73-1.46-.25-3.83,1.46-4.73,3.83-.25,4.73,1.46Z" style="fill:#ff5;"/></g><g id="uuid-17be7356-c60c-435d-938d-893683ff3cc3"><path id="uuid-14932e74-16d0-493c-8563-057d42c79619" d="m117.68,301.53c1.66.99,2.21,3.13,1.22,4.8s-3.13,2.21-4.8,1.22-2.21-3.13-1.22-4.8,3.13-2.21,4.8-1.22Z" style="fill:#ff5;"/><path id="uuid-847058de-a699-4f76-bb4c-86c9585007c7" d="m122.41,295.36c1.66.99,2.21,3.13,1.22,4.8s-3.13,2.21-4.8,1.22-2.21-3.13-1.22-4.8,3.13-2.21,4.8-1.22Z" style="fill:#ff5;"/><path id="uuid-65796f9b-b961-41e2-ba49-7ddf50e5576b" d="m124.43,305.54c1.66.99,2.21,3.13,1.22,4.8s-3.13,2.21-4.8,1.22-2.21-3.13-1.22-4.8,3.13-2.21,4.8-1.22Z" style="fill:#ff5;"/></g><path id="uuid-ab08ee93-f564-444e-9eb6-1d4241f61c89" d="m155.63,241.44l12.68.2-4.87,10.96h4.87l5.68-10.75h13.19l-4.67,10.55h5.48l4.87-10.75h14.2l-4.87,10.96h4.46l-2.64,4.87-8.72-.61,5.07-10.35h-4.67l-5.28,10.75-14.61-.41,4.67-9.94h-4.46l-5.28,10.55-14.2-.41,5.68-10.55-4.26-.2-2.33,3.65v-8.52Z" style="fill:#55a;"/><path id="uuid-383ab943-3d84-4762-9360-376bfe7c74f8" d="m151.07,251.38l-8.32-4.46,3.86,8.72,4.46-4.26Z" style="fill:#ff5;"/><path id="uuid-b551a12b-82fb-4ac2-91d9-56e6ab2408eb" d="m138.98,263.84l-8.93-3.06,5.21,7.99,3.72-4.93Z" style="fill:#ff5;"/><path id="uuid-edf40346-71f3-40ad-b761-59297329a267" d="m131.6,280.13l-9.41.74,7.96,5.26,1.46-6Z" style="fill:#ff5;"/><path id="uuid-f22c686d-baa5-4650-ba90-7ca6077932b7" d="m130.4,297.33l-7.19,6.11,9.53-.4-2.34-5.71Z" style="fill:#ff5;"/><path id="uuid-1b1ec59b-9bd5-4b82-a373-0a2f1b887496" d="m107.37,230.19l8.34,4.42-3.9-8.7-4.44,4.29Z" style="fill:#ff5;"/><path id="uuid-c8c68572-a99a-4202-a642-6d42e63a8d2e" d="m97.6,242.02l9.06,2.65-5.57-7.74-3.49,5.09Z" style="fill:#ff5;"/><path id="uuid-83455c2f-fb87-475a-8bf1-2c1b3097976d" d="m89.85,256.96l9.42.62-7.12-6.35-2.3,5.73Z" style="fill:#ff5;"/><path id="uuid-abbfa413-6688-40bb-bda5-d4fc0f1b58ff" d="m84.91,273.43l9.33-1.42-8.32-4.66-1.01,6.09Z" style="fill:#ff5;"/><path id="uuid-76b1064a-0878-494a-96c3-10ffaa1793df" d="m83.14,288.43l8.96-2.96-8.98-3.21.02,6.17Z" style="fill:#ff5;"/><path id="uuid-ae065e82-7ca2-4845-b790-97b994525d06" d="m84.35,303.51l8.41-4.29-9.37-1.8.96,6.1Z" style="fill:#ff5;"/><path id="uuid-40faa86b-5ede-4402-9690-8e8e74eec159" d="m88.66,318.55l7.03-6.3-9.52.65,2.49,5.65Z" style="fill:#ff5;"/><path id="uuid-d3f33570-a072-4651-945a-2dbe77433969" d="m94.39,332.27l7.03-6.3-9.52.65,2.49,5.65Z" style="fill:#ff5;"/><path id="uuid-bc693dd3-a8af-4a7f-aae0-4306f0a08317" d="m101.38,344.38l6.03-7.26-9.32,2.04,3.28,5.22Z" style="fill:#ff5;"/><path id="uuid-34a02d23-1a60-48cf-8359-7567276a5ea7" d="m36.07,220.81c4.75-4.24,8.94-8.71,13.71-12.73,4-3.38,8.32-6.37,12.48-9.55-.24,1.7-.36,3.41-.71,5.09-.45,2.15-1.19,4.24-1.78,6.37-3.45,2.02-6.75,4.24-10.34,6.05-2.41,1.21-4.92,2.3-7.49,3.18-1.91.66-3.73,1.06-5.86,1.59Z" style="fill:#f55; stroke:#f55; stroke-linecap:round; stroke-linejoin:round; stroke-width:2px;"/><path id="uuid-39124a6a-459a-4db1-ae1c-75f3cb2e66f4" d="m34.63,225.79c3.23-1.08,6.51-2.04,9.69-3.23,2.23-.84,4.47-1.68,6.59-2.75,2.35-1.19,4.48-2.71,6.72-4.07-.39,1.63-.47,3.36-1.16,4.9-.58,1.31-1.64,2.39-2.45,3.59-2.32.68-4.59,1.59-6.97,2.03-2.25.42-4.56.72-6.85.6-1.89-.1-3.7-.72-5.55-1.08h0Z" style="fill:#f55; stroke:#f55; stroke-linecap:round; stroke-linejoin:round; stroke-width:2px;"/><path id="uuid-d5d790a8-37dd-413a-a930-ef43845d4a7f" d="m34.49,229.9c2.35.12,4.69.35,7.04.36,1.65.01,3.3.02,4.94-.19,1.82-.23,3.6-.79,5.39-1.19-.7,1.17-1.24,2.5-2.11,3.51-.74.86-1.71,1.39-2.56,2.09-1.66-.16-3.35-.13-4.99-.49-1.54-.34-3.09-.8-4.5-1.58-1.17-.64-2.14-1.67-3.21-2.51h0Z" style="fill:#f55; stroke:#f55; stroke-linecap:round; stroke-linejoin:round; stroke-width:2px;"/><path id="uuid-6b3a05a4-e42e-4357-b8a8-47b2a37fa4e3" d="m33.99,234.31c1.63.81,3.21,1.7,4.88,2.42,1.17.51,2.34,1.02,3.58,1.36,1.37.37,2.83.49,4.25.73-.91.69-1.75,1.55-2.72,2.06-.82.44-1.7.55-2.55.83-1.12-.63-2.34-1.12-3.37-1.9-.98-.73-1.92-1.56-2.65-2.59-.61-.85-.94-1.94-1.41-2.91Z" style="fill:#f55; stroke:#f55; stroke-linecap:round; stroke-linejoin:round; stroke-width:2px;"/><path id="uuid-8d32723c-ba78-42bc-81a5-413b7434ca98" d="m32.79,240.46c.96.83,1.88,1.72,2.87,2.48.69.53,1.39,1.07,2.14,1.45.84.43,1.75.63,2.62.95-.64.54-1.25,1.23-1.91,1.61-.56.32-1.12.36-1.69.54-.66-.64-1.38-1.15-1.97-1.91-.55-.71-1.07-1.5-1.45-2.46-.31-.79-.42-1.77-.63-2.65h0Z" style="fill:#f55; stroke:#f55; stroke-linecap:round; stroke-linejoin:round; stroke-width:2px;"/><path id="uuid-8a020f8b-7e50-4e23-81f6-806711403d29" d="m103.69,202.7c1.26,2.6,2.88,5.36,4.2,8.1,1.57,3.24,2.96,6.55,4.44,9.83-2.96,3.01-6.17,5.79-8.89,9.02-3.83,4.56-7.4,9.38-10.37,14.54-3.04,5.29-5.62,10.9-7.54,16.7-1.79,5.41-2.92,11.05-3.64,16.7-.62,4.95-.75,9.97-.54,14.95.24,5.51.87,11.03,2.02,16.43,1.02,4.82,2.55,9.53,4.31,14.14,1.83,4.8,3.91,9.54,6.46,14,2.11,3.7,4.85,7,7.27,10.5l-11.04,14.95c-4.8-5.48-9.92-10.69-14.41-16.43-4.41-5.64-8.75-11.4-12.25-17.64-2.79-4.96-4.94-10.27-6.91-15.61-1.61-4.35-2.9-8.82-4-13.33-1.1-4.51-1.62-9.85-2.57-13.69,2.98-2.82,8.57-8.05,12.71-12.23,4.36-4.41,8.83-8.74,12.75-13.54,5.49-6.72,10.57-13.82,15.01-21.28,3.15-5.29,6.08-10.78,8.19-16.57,2.3-6.3,3.77-12.83,4.79-19.53Z" style="fill:#f55;"/><path id="uuid-c887da66-39c6-482f-b0b7-71ef83dbde34" d="m146.43,138.93c-4.47,1.43-8.54,3.09-12.6,5.09-7.91,3.9-15.28,8.8-22.79,13.41-8.5,5.21-17.01,10.41-25.2,16.09-6.61,4.58-13.05,9.42-19.3,14.48-7.28,5.9-14.3,12.13-21.18,18.5-5.43,5.03-10.93,10.37-15.85,15.55" style="fill:none; stroke:#55a; stroke-linecap:round; stroke-linejoin:round; stroke-width:2px;"/><path id="uuid-1abb9876-be24-4585-a772-5bae582963e2" d="m162.88,267.02s.27-1.67.8-2.2c.53-.53,1.45-.8,2.2-.8s1.67.27,2.2.8c.53.53.8,1.45.8,2.2s-.4,1.8-.8,2.2c-.4.4-.8.6-1.2,1s-.6.4-1,.8c-.4.4-.6.6-1,1s-1,1.2-1.4,2-.6,2-.6,2c0,0-.2-1.2-.6-2-.4-.8-1-1.6-1.4-2s-.6-.6-1-1-.6-.4-1-.8c-.4-.4-.8-.6-1.2-1s-.8-1.45-.8-2.2.27-1.67.8-2.2c.53-.53,1.45-.8,2.2-.8s1.67.27,2.2.8c.53.53.8,2.2.8,2.2Z" style="fill:#f55;"/><path id="uuid-8fe4a4f4-ec3b-4e4e-8e1d-0a1343908845" d="m71.27,183.83c-.77-3.24-.72-6.79-2.3-9.72-1.47-2.71-3.75-5.07-6.36-6.72-1.62-1.02-3.56-1.72-5.48-1.77-2.02-.05-4.01.73-5.83,1.59-1.76.83-3.28,2.11-4.77,3.36-1.15.97-2.61,1.8-3.18,3.18-.34.82-.37,1.85,0,2.65.52,1.14,1.68,1.98,2.83,2.47,1.09.47,2.4.69,3.54.35,1.09-.32,1.81-1.37,2.65-2.12.99-.89,1.89-1.89,2.83-2.83.18.65.12,1.42.53,1.94.75.95,2.12,1.18,3.18,1.77-.94.88-2.14,1.56-2.83,2.65-.73,1.15-1.1,2.54-1.24,3.89-.18,1.71-.15,3.55.53,5.13.71,1.65,2.36,2.71,3.54,4.07" style="fill:none; stroke:#55a; stroke-linecap:round; stroke-linejoin:round; stroke-width:2px;"/><path id="uuid-f0ee2308-1703-4434-b823-62dd781f64f7" d="m47.53,170.17c.98-.55,2.72.96,3.06,2.16.33,1.17-.58,2.48-1.41,3.36-.95.99-2.47,1.18-3.71,1.77" style="fill:none; stroke:#55a; stroke-linecap:round; stroke-linejoin:round; stroke-width:2px;"/><path id="uuid-74ebdead-29ed-4716-a0a1-f234477b6c58" d="m53.59,165.44c-1.83-1.94-3.08-4.67-5.48-5.83-1.22-.59-2.76-.73-4.07-.35-1.42.4-2.74,1.41-3.54,2.65-.59.91-.92,2.12-.71,3.18.24,1.2,1.27,2.12,2.12,3.01,1.08,1.12,2.47,1.89,3.71,2.83" style="fill:none; stroke:#55a; stroke-linecap:round; stroke-linejoin:round; stroke-width:2px;"/><path id="uuid-a5623fca-9ccc-47bc-81f4-2f71d98e1ef6" d="m40.34,167.03c-1.18.12-2.47-.17-3.54.35-1.01.5-2.01,1.39-2.3,2.47-.34,1.28.2,2.75.88,3.89,1.36,2.25,3.88,3.58,6.01,5.13,1.9,1.39,3.9,2.67,6.01,3.71,1.19.59,2.42,1.72,3.71,1.41,1.1-.26,1.98-1.39,2.3-2.47.18-.63-.08-1.34-.35-1.94-.27-.61-.82-1.06-1.24-1.59" style="fill:none; stroke:#55a; stroke-linecap:round; stroke-linejoin:round; stroke-width:2px;"/><path id="uuid-b597d9b8-6fc7-4aa2-adde-4c596bdb63e5" d="m47.02,179.06c-.62.32-.93,1.26-1.26,2.14" style="fill:none; stroke:#55a; stroke-linecap:round; stroke-linejoin:round; stroke-width:2px;"/><path id="uuid-9cf7272d-27cc-4663-b7b0-66a682554bf1" d="m36.45,176.4c-1,.82-2.36,1.35-3.01,2.47-.54.93-.86,2.16-.53,3.18.28.87,1.32,1.28,1.94,1.94.86.91,1.48,2.07,2.47,2.83,1.2.91,2.63,1.51,4.07,1.94,1.54.47,3.18.9,4.77.71,1.08-.13,2.4-.34,3.01-1.24.52-.78.36-1.96,0-2.83-.38-.92-1.26-1.62-2.12-2.12-.95-.55-2.11-1.14-3.18-.88-.93.22-1.67,1.1-2.12,1.94-.37.68-.46,1.53-.35,2.3.1.71.59,1.3.88,1.94" style="fill:none; stroke:#55a; stroke-linecap:round; stroke-linejoin:round; stroke-width:2px;"/><path id="uuid-183880f4-37b9-4f80-8dab-a3c1cb423944" d="m34.5,185.77c-.65.53-1.59.83-1.94,1.59-.35.75-.3,1.7,0,2.47.57,1.48,1.86,2.66,3.18,3.54,1.51,1,3.37,1.33,5.13,1.77,1.1.27,2.31.96,3.36.53.74-.31,1.27-1.16,1.41-1.94.15-.84-.18-1.8-.71-2.47-.67-.85-1.75-1.51-2.83-1.59-.82-.06-1.7.32-2.3.88-.52.49-.76,1.24-.88,1.94-.12.7.12,1.41.18,2.12" style="fill:none; stroke:#55a; stroke-linecap:round; stroke-linejoin:round; stroke-width:2px;"/><path id="uuid-dc867f06-f6ba-4d97-a37a-4eb71c8a19bf" d="m40.87,199.56l2.12,3.18,3.36,2.3" style="fill:none; stroke:#55a; stroke-linecap:round; stroke-linejoin:round; stroke-width:2px;"/><path id="uuid-c1f2db2f-b042-486d-b65c-0fa83da951a1" d="m36.62,194.79c-.47,1.89-1.15,3.73-1.41,5.66-.28,2.04-.12,4.12-.18,6.19,1.53-.06,3.06-.12,4.6-.18-.06-2.18-.37-4.37-.18-6.54.13-1.44.59-2.83.88-4.24-1.24-.29-2.47-.59-3.71-.88h0Z" style="fill:#ff5; stroke:#55a; stroke-linecap:round; stroke-linejoin:round; stroke-width:2px;"/><path id="uuid-2930c753-950c-4e8f-9f2b-69e949c0f2d0" d="m49.17,159.25c1.59-2.59,2.6-5.65,4.77-7.78,2.59-2.53,5.9-4.47,9.37-5.48,2.89-.84,6.01-.29,9.02-.35,3.59-.07,7.22.5,10.78,0,2.73-.39,5.43-1.19,7.95-2.3,1.77-.78,3.61-1.62,4.95-3.01.75-.78,1.06-1.89,1.59-2.83-.24,2.47.01,5.04-.71,7.42-.83,2.75-2.24,5.38-4.07,7.6-2.08,2.52-4.67,4.74-7.6,6.19-2.55,1.26-5.49,1.58-8.31,2-4.03.6-8.13.57-12.2.71-2.3.08-4.66-.47-6.89.06-1.85.44-3.42,1.36-5.13,2.54-1.18-1.59-2.36-3.18-3.54-4.77h0Z" style="fill:#ff5; stroke:#55a; stroke-linecap:round; stroke-linejoin:round; stroke-width:2px;"/><path id="uuid-a8d95cea-ced3-434b-9a7c-81d71bab3718" d="m88.55,147.32l-5.18,3.56-.05-1.09-6.88,1.93,1.07-1.68-10.34,2.4c-.06,0,1.41-1.59,1.35-1.57l-10.08,3.04c-.23.04.24-1.32.06-1.18l-7.9,8.09.59.66,8.89-4.57-1.52-.44,8.97-.72-.82-.72,10.85.4-1.4-.86c.11-.01,10.31-1.97,10.41-2l-1.78-.53c1.27-.7,4.04-1.35,5.03-1.95.99-.6-1-.47-.94-.51l3.71-3.11-3.98,1.85-.05-.99Z" style="fill:#55a; stroke:#55a; stroke-linecap:round; stroke-linejoin:round;"/></g><g id="uuid-b4c38d37-e4d1-4a15-acfc-48cf9ccb1d8a"><g id="uuid-6a5212d7-b19f-4601-b473-ffa5aa22d5b2"><path id="uuid-b5827c09-735d-4e97-be87-076ebe2208b8" d="m329.5,200.84l-53.44-35.3" style="fill:none; stroke:#55a; stroke-linejoin:round; stroke-width:2px;"/><path id="uuid-a52f262a-48d8-4f7b-a03a-041b0d6e28df" d="m329.5,193.46l-50.17-32.39" style="fill:none; stroke:#55a; stroke-linejoin:round; stroke-width:2px;"/><path id="uuid-4d760ee7-7efc-460b-adf9-57e7e17d4ee3" d="m329.5,208.23l-52.04-33.38" style="fill:none; stroke:#55a; stroke-linecap:round; stroke-linejoin:round; stroke-width:2px;"/><path id="uuid-5d0ee8e2-38a4-48b0-8c9a-b950cb811b63" d="m329.5,215.61l-36.76-23.78" style="fill:none; stroke:#55a; stroke-linecap:round; stroke-linejoin:round; stroke-width:2px;"/><path id="uuid-630b97de-7159-48b3-b539-f1b166fb1709" d="m329.5,222.99l-28.25-18.33" style="fill:none; stroke:#55a; stroke-linecap:round; stroke-linejoin:round; stroke-width:2px;"/><path id="uuid-5324acfd-07ea-45b1-83bf-42624655a71b" d="m329.5,230.37l-23.45-15.49" style="fill:none; stroke:#55a; stroke-linecap:round; stroke-linejoin:round; stroke-width:2px;"/><path id="uuid-5c5784e5-8306-4360-b5f0-050c5e63f63d" d="m329.5,237.75l-19.31-12" style="fill:none; stroke:#55a; stroke-linecap:round; stroke-linejoin:round; stroke-width:2px;"/><path id="uuid-ee6e52f2-31c8-4e96-a720-23ca1b95df52" d="m326.77,243.64l-13.53-9.16" style="fill:none; stroke:#55a; stroke-linecap:round; stroke-linejoin:round; stroke-width:2px;"/><path id="uuid-79115e8f-c0db-4393-9344-564810a86e1d" d="m321.54,247.35l-7.85-5.45" style="fill:none; stroke:#55a; stroke-linecap:round; stroke-linejoin:round; stroke-width:2px;"/></g><path id="uuid-b1222d7a-e955-4580-ad30-dd051ed51395" d="m229.32,392.49c5.81-3.46,11.67-6.82,17.42-10.38,9.19-5.7,18.36-11.45,27.27-17.59,6.83-4.72,13.61-9.54,20.05-14.78,6.94-5.63,13.44-11.79,20-17.86,5.24-4.85,10.29-9.89,15.44-14.83v-74.97c-4.72,2.93-8.71,5.29-13.43,8.22-1.35-6.68-2.22-13.61-4.19-20.2-2.23-7.43-5.08-14.72-8.59-21.64-2.88-5.68-6.4-11.05-10.17-16.18-2.78-3.78-6.03-7.19-9.12-10.73-3.53-4.05-6.87-8.2-10.74-12.01l-52.91,70.08-7.56.18-9.85,20.58-16.49-.15.47,18.43,16.29.11.26,20.63-18.12.7c1.94,8.33,3.26,16.95,5.81,25.18,2.47,8,5.44,15.89,9.15,23.4,4.36,8.85,9.81,17.14,15.3,25.33,4.27,6.37,9.15,12.31,13.72,18.47h0Z"/><path id="uuid-9ad24857-9e3a-467c-b6ee-8e9ac22ca2bd" d="m165.82,478.97s-10.71-1.18-16.05-1.93c-4.72-.66-9.43-1.38-14.12-2.25-6.88-1.27-20.54-4.33-20.54-4.33,0,0-1.11-9.1-1.77-13.64-.73-5.04-1.54-10.07-2.41-15.08-.7-4.07-1.02-8.25-2.25-12.2-1.2-3.86-2.44-7.92-4.97-11.07-1.63-2.03-6.26-4.65-6.26-4.65,0,0-1.7,2.31-2.89,3.05-1.57.97-3.45,1.58-5.3,1.6-2.05.03-4.09-.72-5.94-1.6-1.79-.86-3.61-1.95-4.81-3.53-1.28-1.68-2.02-3.83-2.25-5.94-.24-2.2.23-4.49.96-6.58.77-2.22,1.87-4.43,3.53-6.1,1.57-1.58,3.67-2.65,5.78-3.37,2.3-.79,4.79-1,7.22-.96,2.33.03,4.68.41,6.9,1.12,2.96.96,5.81,2.38,8.34,4.17,1.82,1.29,3.33,2.98,4.81,4.65,1.47,1.66,4.01,5.3,4.01,5.3l64.03-.32s-7.85,5.61-11.07,9.15c-3.27,3.59-6.12,7.65-8.18,12.03-2.21,4.69-3.54,9.8-4.33,14.92-.65,4.18-.7,8.47-.32,12.68.35,3.97,1.24,7.9,2.41,11.71,1.39,4.54,5.46,13.16,5.46,13.16h0Z" style="fill:#ff5;"/><path id="uuid-26ed7001-817a-4366-b9c4-6fa3ba73e7c8" d="m219.05,397.3l-6.77,2.76-98.58-1.66-4.17-3.45,10.16-12.52h96.32l3.63,5.99,4.7,6.27-5.29,2.61Z"/><path id="uuid-ceafe0f1-2f29-48dc-9e95-42267a3e6d7f" d="m29.5,484.5l.5-122.5,18.5,12,1,97.82-20,12.68Z" style="fill:#f55;"/><path id="uuid-1b469917-cf7f-43fa-8984-72ba338171c1" d="m250.03,509.5l-28.53-36s-10.76,2.85-16.24,3.78c-6.72,1.15-13.52,2.07-20.34,2.22-10.7.24-21.42-.74-32.05-2.06-12.62-1.57-37.51-6.94-37.51-6.94l-27.94,39h162.62Z" style="fill:#f55; stroke:#55a; stroke-linecap:round; stroke-linejoin:round; stroke-width:2px;"/><path id="uuid-620446d4-522e-4339-b722-8ce76d3141ea" d="m233.93,508.02l-17.58-26.32c-7.04,2.25-11.53,2.98-20.51,3.9l4.49,22.42h6.22l-5.56-18.88c5.57-.74,7.46-.84,12.68-2.3l13.12,21.18h7.14Z" style="fill:#fff; stroke:#fff; stroke-linecap:round; stroke-linejoin:round; stroke-width:2px;"/><path id="uuid-ae3cb619-8177-4d57-a1b9-a5ce872f7b15" d="m190.68,508.02l-4.33-21.71c-10.94.94-19.4.6-30.33-.61l-5.24,22.31h7.01l3.72-17.64c8.59,1.09,12.71.88,19.93.4l2.92,17.24h6.32Z" style="fill:#fff; stroke:#fff; stroke-linecap:round; stroke-linejoin:round; stroke-width:2px;"/><path id="uuid-1c9be7bf-2f1d-4671-b3d1-3094ef713c67" d="m140.15,508.02l7.32-23.61c-7.98-.61-18.22-3.97-26.9-5.88l-15.66,29.49h6.88l11.78-24.57c4.85,1.22,12.53,3.63,17.38,4.25l-6.75,20.33h5.95Z" style="fill:#fff; stroke:#fff; stroke-linecap:round; stroke-linejoin:round; stroke-width:2px;"/><path id="uuid-d31ce2cf-6985-45d3-805e-285442fde02b" d="m165.16,477.98c-2.05-5.88-5.04-11.51-6.15-17.63-1.12-6.19-1.19-12.62-.41-18.86.63-5.07,2.06-10.08,4.1-14.76,1.67-3.82,3.83-7.5,6.56-10.66,3.61-4.19,7.99-7.78,12.71-10.66,2.83-1.73,5.99-2.9,9.16-3.85,3.17-.95,6.45-1.67,9.75-1.81,3.87-.17,8.42-1.14,11.56,1.12,1.02.74,1.33,2.21,1.53,3.45.18,1.2-.39,2.4-.4,3.61,0,.89-.02,1.8.24,2.65.28.9.7,1.81,1.36,2.49.6.62,1.9.49,2.25,1.28.33.76.05,1.86-.56,2.41-.98.88-2.62.35-3.93.48-1.34.14-2.68.5-4.01.32-1.69-.23-3.15-1.21-4.82-1.77-.12.72,1.33,2.19,1.93,2.97.68-.55,2.02-.5,3.05-.64,1.22-.17,2.46-.14,3.69-.24,1.07-.09,2.14-.33,3.21-.32.97,0,2.09-.23,2.89.32.49.34.79,1.01.8,1.61.01.53-.41.97-.64,1.44-.4.82-1.11,1.52-1.28,2.41-.31,1.58-.26,3.39.48,4.82.68,1.31,2.07,2.19,3.37,2.89,1.57.84,3.48.8,5.14,1.44,1.12.43,2.71.52,3.21,1.61.86,1.85-.73,4.03-1.44,5.94-1.43,3.79-3.91,7.09-5.62,10.76-1.25,2.68-2.7,5.31-3.37,8.19-.34,1.46-.58,3.02-.32,4.5.34,1.96,1.94,3.53,2.41,5.46.4,1.61.21,3.32.32,4.98" style="fill:none; stroke:#55a; stroke-linecap:round; stroke-linejoin:round; stroke-width:2px;"/><path id="uuid-663c7a73-c782-4371-9147-9793d2494fdf" d="m185.11,457.9c4.52,3.52,8.61,6.17,13.4,8.36,3.1,1.41,6.34,2.97,9.77,3,2.15.02,6.19-.95,6.2-1.77,0-.41-.81-.62-1.3-.73-2.27-.51-4.68.69-7.01.45-2.82-.3-5.54-1.24-8.15-2.3-4.54-1.84-9.29-4.23-12.92-7h0Z" style="fill:#55a; stroke:#55a; stroke-linecap:round; stroke-linejoin:round; stroke-width:2px;"/><path id="uuid-63ed8c92-97c1-4992-858b-7697f1173489" d="m214,460.25c-1-.42-1.99-.55-3-.52-1.46.05-2.8.91-4.25,1.02-2.75.2-5.57-.07-8.25-.75-2.46-.62-4.78-1.77-7-3-1.42-.78-2.67-1.83-4-2.75" style="fill:none; stroke:#55a; stroke-linecap:round; stroke-linejoin:round; stroke-width:2px;"/><path id="uuid-971d7fd0-99cc-46d9-8f3d-0877a7d43202" d="m211.77,457.44c-1.31-.29-2.6-.77-3.94-.88-1.75-.14-3.51.45-5.26.29-2.24-.21-4.53-.66-6.57-1.61-2.84-1.32-5.06-3.7-7.59-5.55" style="fill:none; stroke:#55a; stroke-linecap:round; stroke-linejoin:round; stroke-width:2px;"/><path id="uuid-129f328c-8c2a-4d80-ac87-c92042c8ebf9" d="m210.6,455.84c-.1-1.17.23-2.45-.29-3.5-.67-1.36-2-2.39-3.36-3.07-1.46-.72-3.19-.94-4.82-.88-1.71.07-3.38.66-4.96,1.31-.99.41-1.77,1.25-2.77,1.61-.88.31-1.85.29-2.77.44" style="fill:none; stroke:#55a; stroke-linecap:round; stroke-linejoin:round; stroke-width:2px;"/><path id="uuid-4beb04cb-ef2c-4487-af42-19cb442d58d6" d="m202.86,455.84c-.29-1.07-.92-2.1-.88-3.21.03-.72.29-1.47.73-2.04.5-.67,1.36-.97,2.04-1.46" style="fill:none; stroke:#55a; stroke-linecap:round; stroke-linejoin:round; stroke-width:2px;"/><path id="uuid-d4d08561-b58d-491f-a8a0-669e707c3389" d="m207.1,451.61c-.79-.04-1.53.96-1.61,1.75-.07.74.43,1.83,1.17,1.9.86.08,1.71-1.04,1.75-1.9.04-.73-.58-1.72-1.31-1.75Z" style="fill:#55a; stroke:#55a; stroke-linecap:round; stroke-linejoin:round; stroke-width:2px;"/><path id="uuid-409dc89e-d955-4535-8e2f-7223e00b0ed3" d="m210.31,449.42c-1.31-1.22-2.52-2.56-3.94-3.65-1.09-.84-2.25-1.61-3.5-2.19-1.16-.54-2.43-.78-3.65-1.17" style="fill:none; stroke:#55a; stroke-linecap:round; stroke-linejoin:round; stroke-width:2px;"/><path id="uuid-711c22be-6d32-4795-b172-898d463a2c1b" d="m208.7,439.2c-.58-.88-1.54-1.6-1.75-2.63-.2-1.02.09-2.16.6-3.07.46-.83,1.18-1.63,2.08-1.93.93-.31,2-.03,2.92.29,1.13.39,1.95,1.39,3.01,1.93.84.43,1.69.92,2.63,1.02.59.06,1.16-.29,1.75-.28.53,0,1.16-.05,1.58.29.36.3.72.89.51,1.31-.32.64-1.35.61-2.07.57-1.31-.07-2.51-.82-3.67-1.45-1.1-.6-1.94-1.64-3.07-2.19-.86-.42-1.82-1.01-2.76-.82-1.11.22-2.07,1.16-2.64,2.14-.38.65-.49,1.49-.39,2.24.14.95.97,1.66,1.26,2.58h0Z" style="fill:#55a; stroke:#55a; stroke-linecap:round; stroke-linejoin:round; stroke-width:2px;"/><path id="uuid-7d91f604-1df7-44c1-89e7-3221594b0528" d="m196.44,431.9c-1.8-.68-3.83-1.22-5.21-2.27-1.08-.82-1.39-2.42-1.22-3.72.21-1.56,1.34-3.03,2.63-3.94,1.15-.81,2.68-.97,4.09-1.02,1.68-.06,3.34.45,4.96.88,1.4.37,2.69,1.08,4.09,1.46,1,.27,2.03.62,3.07.58,1.16-.04,2.24-1.18,3.36-.88.73.2,1.57.85,1.61,1.61.03.83-.87,1.51-1.61,1.9-1.25.66-2.83.66-4.23.44-1.42-.23-2.63-1.16-3.94-1.75-1.47-.67-2.83-1.62-4.38-2.04-1.41-.39-2.94-.7-4.38-.44-1.3.23-2.76.68-3.55,1.74-.75,1.01-.98,2.51-.63,3.71.28.97,1.2,1.66,2.01,2.25.98.72,2.37.91,3.34,1.49h0Z" style="fill:#55a; stroke:#55a; stroke-linecap:round; stroke-linejoin:round; stroke-width:2px;"/><path id="uuid-c4203d14-86f7-4633-84be-0b7efeab20d5" d="m72,388l-42.5-27.5v-9.5l47.5,31.5-5,5.5Z" style="fill:#ff5; stroke:#55a; stroke-linecap:round; stroke-linejoin:round; stroke-width:2px;"/><path id="uuid-1e2390cb-aa6a-4163-8dec-371fce1f526f" d="m75,489.5c3.83-6.33,8.34-11.5,10.62-18.12,1.96-5.69,2.65-11.88,2.38-17.88-.3-6.83-1.71-13.76-4.5-20-2.34-5.23-6.67-9.33-10-14-1.5,4.83-2.17,10.01-4.5,14.5-2.14,4.11-5.18,7.77-8.5,11-1.63,1.58-3.67,2.67-5.5,4l1,14.5c3,1.83,6.39,3.15,9,5.5,2.65,2.39,4.89,5.32,6.5,8.5,1.88,3.72,2.33,8,3.5,12Z" style="fill:#ff5; stroke:#55a; stroke-linecap:round; stroke-linejoin:round; stroke-width:2px;"/><path id="uuid-83106195-fa2d-4124-bd34-a5126cf510b1" d="m74.76,489.27s4.13-11.68,4.24-17.77c.06-3.4-2-10-2-10l10.5-7-10.5-8s1.86-7.65,1.5-11.5c-.52-5.56-5.24-15.91-5.24-15.91,0,0-1.67,10.39-3.97,15.03-1.72,3.47-4.53,6.32-7.15,9.18-2.05,2.24-6.65,6.21-6.65,6.21v15.5s7.58,2.84,10.5,5.5c2.49,2.27,4.06,5.45,5.5,8.5,1.53,3.25,3.26,10.27,3.26,10.27Z" style="fill:#ff5; stroke:#55a; stroke-linecap:round; stroke-linejoin:round; stroke-width:2px;"/><path id="uuid-aab2f7d8-8600-4d52-a662-99cb030637e0" d="m85.75,454.41l-30.25.22" style="fill:#ff5; stroke:#55a; stroke-linecap:round; stroke-linejoin:round; stroke-width:2px;"/><path id="uuid-b6a1a882-8e9d-4e75-9f74-d325fb48b1ac" d="m77,461.12l-20.5.38" style="fill:#ff5; stroke:#55a; stroke-linecap:round; stroke-linejoin:round; stroke-width:2px;"/><path id="uuid-803284d9-cab0-4529-8e2f-9aaa480f9c78" d="m78.36,468.75h-15" style="fill:#ff5; stroke:#55a; stroke-linecap:round; stroke-linejoin:round; stroke-width:2px;"/><path id="uuid-4babb4f4-983f-4596-ac85-ee038e81c157" d="m77.93,476.29l-7.62.12" style="fill:#ff5; stroke:#55a; stroke-linecap:round; stroke-linejoin:round; stroke-width:2px;"/><path id="uuid-256c7570-e5df-4058-8f07-16d6302e627d" d="m77.38,447l-19.13.3" style="fill:#ff5; stroke:#55a; stroke-linecap:round; stroke-linejoin:round; stroke-width:2px;"/><path id="uuid-9a3b9044-90c2-4d5f-bfd0-2e4fa6beee91" d="m77.5,439.38l-11.36.3" style="fill:#ff5; stroke:#55a; stroke-linecap:round; stroke-linejoin:round; stroke-width:2px;"/><path id="uuid-7533de2b-13a8-49c7-a220-ec68489c224c" d="m76.88,432.88l-6.66.02" style="fill:#ff5; stroke:#55a; stroke-linecap:round; stroke-linejoin:round; stroke-width:2px;"/><path id="uuid-612eb63d-bcdf-47ad-8fdc-b83942a0452e" d="m29.5,493.5l26-17.5v-98.5l-6-3.7v97.7l-20,13v9Z" style="fill:#ff5; stroke:#55a; stroke-linecap:round; stroke-linejoin:round; stroke-width:2px;"/><path id="uuid-8dad0493-9c0b-4ef3-9dec-218fb297c90c" d="m116.69,402.28l-3.21-3.86,88.51.13s-4.3.47-6.41.9c-1.82.36-3.62.86-5.39,1.41-1.3.41-3.85,1.41-3.85,1.41l-69.65.02Z" style="fill:#ff5;"/><path id="uuid-1ab68a4a-0820-49df-8bd7-2fbc0fa1614a" d="m216.2,382.43l-96.87.36,3.81-4.72,89.61-.36,3.45,4.72Z" style="fill:#ff5;"/><path id="uuid-df90051a-4201-4e0d-abde-3bdeb36e3bea" d="m192.25,396.4v-11.61l-12.7-.18.18,11.79h12.52Z" style="fill:#ff5;"/><path id="uuid-577ba13f-0981-47a1-9d96-04dc3b1f0cab" d="m163.23,396.04l.18-11.43h-13.06l.18,11.61,12.7-.18Z" style="fill:#ff5;"/><path id="uuid-3b27ed14-646f-49a6-866b-9d3b97333a92" d="m135.11,396.04v-11.25h-11.79l.18,11.61,11.61-.36Z" style="fill:#ff5;"/><path id="uuid-c49cd096-9155-4718-bdf9-41913dde7b62" d="m220.81,396.4h-13.5l.18-11.79,9.8-.36s1.76,2.94,2.72,4.35c1.39,2.05,4.39,6,4.39,6l-3.58,1.8Z" style="fill:#ff5;"/><path id="uuid-09962cec-e4f7-4abc-8907-bcf2ccb4c0d3" d="m210.56,390.51c0-1.66,1.34-3,3-3s3,1.34,3,3-1.34,3-3,3-3-1.34-3-3Z" style="fill:#ff5; stroke:#000; stroke-width:2px;"/><path id="uuid-f9fe1d95-2e76-4189-8858-4c1fc5efca7a" d="m182.8,390.6c0-1.66,1.34-3,3-3s3,1.34,3,3-1.34,3-3,3-3-1.34-3-3Z" style="fill:#ff5; stroke:#000; stroke-width:2px;"/><path id="uuid-2603fcbc-f4f7-4b94-9bbd-6cbbd445a039" d="m154.14,390.42c0-1.66,1.34-3,3-3s3,1.34,3,3-1.34,3-3,3-3-1.34-3-3Z" style="fill:#ff5; stroke:#000; stroke-width:2px;"/><path id="uuid-05f0a027-846e-467f-a47c-545e4e4891cd" d="m126.02,390.97c0-1.66,1.34-3,3-3s3,1.34,3,3-1.34,3-3,3-3-1.34-3-3Z" style="fill:#ff5; stroke:#000; stroke-width:2px;"/><path id="uuid-ac175b4a-b06f-48d7-8f4f-8c19e1f79862" d="m195.95,390.11c0-1.93,1.57-3.5,3.5-3.5s3.5,1.57,3.5,3.5-1.57,3.5-3.5,3.5-3.5-1.57-3.5-3.5Z" style="fill:#ff5;"/><path id="uuid-23d9f566-fbf4-476c-8a2d-e7ef638659fe" d="m167.89,390.42c0-1.93,1.57-3.5,3.5-3.5s3.5,1.57,3.5,3.5-1.57,3.5-3.5,3.5-3.5-1.57-3.5-3.5Z" style="fill:#ff5;"/><path id="uuid-16ba76f7-4f41-4461-8ddc-d110c91cadfd" d="m138.86,390.24c0-1.93,1.57-3.5,3.5-3.5s3.5,1.57,3.5,3.5-1.57,3.5-3.5,3.5-3.5-1.57-3.5-3.5Z" style="fill:#ff5;"/><path id="uuid-eb75fa90-4585-4eb8-9018-4be555100f07" d="m112.74,390.96l3.68-4.23c1.27-1.46,2.77,1.39,2.77,3.32s-1.57,3.5-3.5,3.5-4.23-1.14-2.96-2.59Z" style="fill:#ff5;"/><path id="uuid-5c27603f-bdda-4336-abea-0086ba95b8a9" d="m212.01,377.65l-89.11.38,55.74-78.49s3.38,15.7,5.88,23.32c2.87,8.75,6.47,17.28,10.43,25.59,2.88,6.05,6.25,11.87,9.67,17.63,2.33,3.94,7.39,11.56,7.39,11.56h0Z" style="fill:#55a;"/><path id="uuid-2b9d3261-5eb4-4701-8c87-0223ddf3f7dd" d="m192.77,367.32l-46.75.17,28.75-38.87s2.27,8.02,3.72,11.92c1.41,3.81,3.03,7.56,4.83,11.21,1.62,3.27,3.46,6.43,5.37,9.54,1.28,2.07,4.07,6.04,4.07,6.04h0Z" style="fill:#fff;"/><path id="uuid-34890914-c730-4900-8030-49c4b160ac57" d="m229.44,392.32c-4.04-5.25-9.74-11.98-14.03-18.39-5.3-7.91-10.12-16.15-14.41-24.65-3.68-7.31-7.05-14.81-9.67-22.56-2.9-8.58-4.36-17.32-6.64-26.35-1.52-.13-4.17-.06-5.69-.19.76,3.6,1.6,6.84,2.46,10.24,1.62,6.34,2.97,12.78,5.12,18.96,2.37,6.82,5.42,13.39,8.53,19.91,3.15,6.58,6.46,13.1,10.24,19.34,3.06,5.05,6.59,9.81,10.05,14.6,2.95,4.09,6.64,8.65,9.1,12.06,1.2-.76,3.73-2.21,4.93-2.96h0Z" style="fill:#ff5; stroke:#000; stroke-linecap:round; stroke-linejoin:round; stroke-width:2px;"/><path id="uuid-8d7be5bd-b2c1-41ea-97e9-cdf72b260cc4" d="m185.66,363.89l-31.68.11,19.48-25.91s1.54,5.34,2.52,7.95c.96,2.54,2.05,5.04,3.27,7.47,1.1,2.18,2.34,4.29,3.64,6.36.86,1.38,2.76,4.02,2.76,4.02h0Z" style="fill:#55a;"/><path id="uuid-bcd469b2-8459-422a-9ee0-2cca95350246" d="m104.59,392.47l-5.66-1.41-7.95-.18-6.01,1.59-4.07,2.65-10.66-6.36,68.06-89.95,33.64.53-67.35,93.13Z"/><path id="uuid-92682df1-b6fb-4b3f-9e25-0fbc77a246ad" d="m88.47,389.38c.85.03,1.45-1,1.84-1.75,1.51-2.93-.8-7.34,1.41-9.78,4.46-4.94,13.71-1.32,19.38-4.81.65-.4,1.2-1.04,1.5-1.75,3.21-7.49-3-18.3,2.5-24.31,4.04-4.42,12.41-.51,17.62-3.44.7-.39,1.3-1.05,1.62-1.78,3.12-7.04-2.81-17.11,2.16-23,3.52-4.17,10.99-1.7,15.81-4.25.51-.27.97-.66,1.31-1.12,1.94-2.64,3.76-5.76,3.88-9.03.03-.98-.07-2.38-.97-2.77-.9-.39-2,.49-2.69,1.18-2.09,2.09-1.3,6.19-3.53,8.12-4.23,3.65-11.46,1.39-16.19,4.38-.64.4-1.17,1.02-1.47,1.72-2.99,7.06,2.99,17.22-2.16,22.91-4.02,4.44-12.39.53-17.62,3.44-.7.39-1.3,1.02-1.62,1.75-3.38,7.46,2.87,18.25-2.5,24.44-4.35,5.01-13.62,1.38-19.31,4.78-.64.38-1.18.98-1.5,1.66-1.59,3.39-2.7,7.55-1.59,11.12.31,1,1.08,2.28,2.12,2.31Z" style="fill:#ff5;"/><path id="uuid-f557b14b-cf4f-4894-beb3-88437a570562" d="m97.02,382.93c0-1.93,1.57-3.5,3.5-3.5s3.5,1.57,3.5,3.5-1.57,3.5-3.5,3.5-3.5-1.57-3.5-3.5Z" style="fill:#ff5;"/><path id="uuid-255f776c-3f77-46ef-8fb2-4259ab3af553" d="m98.97,362.95c0-1.93,1.57-3.5,3.5-3.5s3.5,1.57,3.5,3.5-1.57,3.5-3.5,3.5-3.5-1.57-3.5-3.5Z" style="fill:#ff5;"/><path id="uuid-c33ceb3e-eadc-4cb5-9f48-5044f800101a" d="m119.47,354.11c0-1.93,1.57-3.5,3.5-3.5s3.5,1.57,3.5,3.5-1.57,3.5-3.5,3.5-3.5-1.57-3.5-3.5Z" style="fill:#ff5;"/><path id="uuid-5b499638-9d52-4aa1-a111-8246f10454c0" d="m120.36,332.9c0-1.93,1.57-3.5,3.5-3.5s3.5,1.57,3.5,3.5-1.57,3.5-3.5,3.5-3.5-1.57-3.5-3.5Z" style="fill:#ff5;"/><path id="uuid-86083447-b7f5-47d9-abe8-a4b4339e0043" d="m141.04,324.59c0-1.93,1.57-3.5,3.5-3.5s3.5,1.57,3.5,3.5-1.57,3.5-3.5,3.5-3.5-1.57-3.5-3.5Z" style="fill:#ff5;"/><path id="uuid-0adece94-67e8-493c-b6a6-d9d00025b5e9" d="m140.16,304.97c0-1.93,1.57-3.5,3.5-3.5s3.5,1.57,3.5,3.5-1.57,3.5-3.5,3.5-3.5-1.57-3.5-3.5Z" style="fill:#ff5;"/><path id="uuid-28aaff79-802f-486f-91d5-84dcad7651a6" d="m110,395.93l69.2-95.93h-7.58l-66.92,92.71,5.31,3.22Z" style="fill:#f55; stroke:#000; stroke-linecap:round; stroke-linejoin:round; stroke-width:2px;"/><g id="uuid-0add880f-4c34-46ce-b195-a9e53540656c"><path id="uuid-d0ec0c62-cc81-4af4-bb6f-5e4605d2183e" d="m115.34,470.19c-1.49-7.57-2.49-15.22-3.78-22.82-1.07-6.3-1.28-12.82-3.31-18.87-1.26-3.76-2.94-7.49-5.42-10.59-1.33-1.67-3.23-2.78-4.92-4.09" style="fill:none; stroke:#55a; stroke-linecap:round; stroke-linejoin:round; stroke-width:2px;"/><path id="uuid-90160032-dfda-42fc-9661-8053ac09901a" d="m122.11,471.01c-1.59-9.43-2.95-18.17-4.63-27.22-1.09-5.88-1.53-11.95-3.55-17.57-2.16-6.01-4.53-12.38-9.03-16.91-3.14-3.16-7.29-6.31-11.75-6.37-1.79-.02-4.53.67-4.79,2.45-.22,1.47,2.11,2.78,3.22,3.1" style="fill:none; stroke:#55a; stroke-linecap:round; stroke-linejoin:round; stroke-width:2px;"/><path id="uuid-a0f06b99-3017-4d87-bb71-c6a7f42e446b" d="m129.28,472.85c-2.2-7.16-3.21-14.58-4.51-21.94-1.39-7.83-1.18-15.99-3.5-23.6-2.27-7.44-4.81-15.3-10.04-21.07-4.08-4.5-9.54-8.94-15.59-9.43-4.3-.35-9.91,1.06-12.01,4.83-1.82,3.28-1.44,9.47,1.95,11.09,2.27,1.08,7.96,1.57,6.6-3.65" style="fill:none; stroke:#55a; stroke-linecap:round; stroke-linejoin:round; stroke-width:2px;"/><path id="uuid-05c99a4c-9354-4771-b013-7f413ce7ca24" d="m135.84,473.67c-2.04-5.83-2.69-12.01-3.97-18.03-2.68-12.64-3.15-25.91-7.76-37.98-2.31-6.05-5.44-11.99-9.81-16.77-3.63-3.97-7.91-8.2-13.16-9.35-6.78-1.48-15.66-1.13-20.45,3.89-4.09,4.29-5.91,12.75-2.51,17.6,3.36,4.81,12.43,7.01,17.22,3.63,3.09-2.18,2.84-7.72,1.51-11.26-.42-1.1-1.78-1.71-2.67-2.33" style="fill:none; stroke:#55a; stroke-linecap:round; stroke-linejoin:round; stroke-width:2px;"/><path id="uuid-12fac4e7-5d64-445c-8408-49ff6e34a490" d="m142.61,475.11c-1.82-5.6-3.17-11.35-4.33-17.12-2.19-10.94-1.93-22.36-4.94-33.1-1.84-6.57-5.03-13.23-7.95-18.87" style="fill:none; stroke:#55a; stroke-linecap:round; stroke-linejoin:round; stroke-width:2px;"/><path id="uuid-2e32379c-ffc1-419d-bc04-32369df2d827" d="m150.19,476.54c-1.82-5.25-3.21-10.65-4.33-16.09-1.91-9.23-2.7-18.53-4.07-27.99-1.35-9.29-5.42-18.33-9.84-26.4" style="fill:none; stroke:#55a; stroke-linecap:round; stroke-linejoin:round; stroke-width:2px;"/><path id="uuid-d6564c29-36a0-4041-9ca5-536693ce2912" d="m158.19,477.36c-2.2-4.83-3.93-9.87-5.23-15-2.98-11.7-3.15-23.98-5.86-35.75-1.06-4.58-2.27-9.16-4.04-13.52-1.09-2.67-2.79-5.41-4.01-7.67" style="fill:none; stroke:#55a; stroke-linecap:round; stroke-linejoin:round; stroke-width:2px;"/><path id="uuid-6f432e14-10b6-4c1f-adbd-4d9fd0c16d7e" d="m158.46,457.07c-1.06-7-1.84-14.09-3.17-21.07-1.25-6.54-2.56-13.09-4.51-19.46-1.11-3.6-2.86-6.96-4.08-10.52" style="fill:none; stroke:#55a; stroke-linecap:round; stroke-linejoin:round; stroke-width:2px;"/><path id="uuid-0cda0a7c-4b39-47de-9850-8230cdd74909" d="m160.85,430.83c-.96-5.37-1.88-10.77-3.41-16.01-.9-3.07-2.19-6.02-3.36-9" style="fill:none; stroke:#55a; stroke-linecap:round; stroke-linejoin:round; stroke-width:2px;"/><path id="uuid-2dc09ff8-2520-460d-9fe6-d3b98d98aced" d="m165.77,419.96c-.68-4.96-2-9.88-4.31-14.35" style="fill:none; stroke:#55a; stroke-linecap:round; stroke-linejoin:round; stroke-width:2px;"/><path id="uuid-38690766-04ed-4b9e-aaee-c0f09b018605" d="m170.49,413.81c-.57-2.75-1.2-5.56-2.67-8" style="fill:none; stroke:#55a; stroke-linecap:round; stroke-linejoin:round; stroke-width:2px;"/><path id="uuid-bef8ae51-8f63-4731-a374-b0b335066610" d="m175.87,409c-.42-1.25-.52-2.63-1.51-3.71" style="fill:none; stroke:#55a; stroke-linecap:round; stroke-linejoin:round; stroke-width:2px;"/></g><path id="uuid-3e8ecc60-d1a8-4bc2-9620-3c6abf29931f" d="m179.76,405.58l-60.56.15-2.57-3.54h69.75s-6.63,3.38-6.63,3.38Z"/><g id="uuid-679e9b3e-a80e-4fe3-8a8d-6d56b8dae3b4"><path id="uuid-3cea48ad-b326-48e2-a9fa-2bd11115b070" d="m49.5,463.05l-20,13" style="fill:none; stroke:#55a; stroke-linecap:round; stroke-linejoin:round; stroke-width:2px;"/><path id="uuid-0b9c00ff-6bda-4eb2-9d59-b158f040db54" d="m49.5,455.01l-20,13" style="fill:none; stroke:#55a; stroke-linecap:round; stroke-linejoin:round; stroke-width:2px;"/><path id="uuid-75dd2cc4-2825-4206-8f77-4cfc662e8475" d="m49.5,446.97l-20,13" style="fill:none; stroke:#55a; stroke-linecap:round; stroke-linejoin:round; stroke-width:2px;"/><path id="uuid-b7b75b34-c52b-4fdc-b4f8-77454dd65ecc" d="m49.5,438.93l-20,13" style="fill:none; stroke:#55a; stroke-linecap:round; stroke-linejoin:round; stroke-width:2px;"/><path id="uuid-6a1bf400-d6ec-4ca8-b068-4f9e046700ff" d="m49.5,430.88l-20,13" style="fill:none; stroke:#55a; stroke-linecap:round; stroke-linejoin:round; stroke-width:2px;"/><path id="uuid-37f50d92-02b8-4af2-bb7b-ca7ea63821fc" d="m49.5,422.84l-20,13" style="fill:none; stroke:#55a; stroke-linecap:round; stroke-linejoin:round; stroke-width:2px;"/><path id="uuid-5dd5b549-130e-4ce8-b468-978ebc13a8cd" d="m49.5,414.8l-20,13" style="fill:none; stroke:#55a; stroke-linecap:round; stroke-linejoin:round; stroke-width:2px;"/><path id="uuid-6a4cc5c8-8e09-441f-bf06-1936630306be" d="m49.5,406.76l-20,13" style="fill:none; stroke:#55a; stroke-linecap:round; stroke-linejoin:round; stroke-width:2px;"/><path id="uuid-05815b72-3244-40f7-8dde-ffb2d14c28bb" d="m49.5,398.71l-20,13" style="fill:none; stroke:#55a; stroke-linecap:round; stroke-linejoin:round; stroke-width:2px;"/><path id="uuid-43bd06c2-214e-4bac-98ab-6199ae974aa4" d="m49.5,390.67l-20,13" style="fill:none; stroke:#55a; stroke-linecap:round; stroke-linejoin:round; stroke-width:2px;"/><path id="uuid-ead379c1-90d2-4f09-9380-8fc8c2c1c403" d="m49.5,382.63l-20,13" style="fill:none; stroke:#55a; stroke-linecap:round; stroke-linejoin:round; stroke-width:2px;"/><path id="uuid-f6751cb2-e022-4970-bdb1-17ca3553c7cf" d="m49.5,374.59l-20,13" style="fill:none; stroke:#55a; stroke-linecap:round; stroke-linejoin:round; stroke-width:2px;"/><path id="uuid-ffdbb8f5-aa6e-4b44-9934-011321e59033" d="m43.5,370.54l-14,9" style="fill:none; stroke:#55a; stroke-linecap:round; stroke-linejoin:round; stroke-width:2px;"/><path id="uuid-16487a77-6e34-4046-99ec-e653c9dfb9c7" d="m37.5,366.5l-8,5" style="fill:none; stroke:#55a; stroke-linecap:round; stroke-linejoin:round; stroke-width:2px;"/></g><path id="uuid-4f799dba-89d1-451a-a57a-cbdba5b1deb2" d="m235.28,386.09c.94-.03,1.57-1.19,1.91-2.06,1.13-2.97.76-6.49-.16-9.53-.2-.66-.61-1.29-1.12-1.75-5.27-4.73-15.18-3.54-19-9.5-4.05-6.32,1.21-15.26-.75-22.5-.15-.57-.45-1.12-.84-1.56-3.96-4.51-12.35-4.95-14.62-10.5-2.21-5.4,2.91-11.42,2.97-17.25,0-.42-.06-.85-.19-1.25-.87-2.72-1.75-5.75-3.91-7.62-.73-.63-1.87-1.39-2.73-.95s-.92,1.8-.84,2.76c.23,2.62,3.2,4.43,3.59,7.03.9,5.96-3.75,11.82-3.09,17.81.08.71.37,1.41.81,1.97,3.79,4.79,12,5.3,14.88,10.69,3.56,6.67-1.53,15.47.75,22.69.21.65.61,1.26,1.12,1.72,5.29,4.71,15.23,3.5,19,9.5,1.47,2.35-.98,5.77.12,8.31.39.88,1.13,2.03,2.09,2Z" style="fill:#ff5;"/><path id="uuid-e5a447e0-144d-4d42-af2e-dca3708ecb68" d="m223.54,379.42c0-1.93,1.57-3.5,3.5-3.5s3.5,1.57,3.5,3.5-1.57,3.5-3.5,3.5-3.5-1.57-3.5-3.5Z" style="fill:#ff5;"/><path id="uuid-5e1c7b17-c9a2-460f-ab01-2369e1cb381b" d="m219.12,359.07c0-1.93,1.57-3.5,3.5-3.5s3.5,1.57,3.5,3.5-1.57,3.5-3.5,3.5-3.5-1.57-3.5-3.5Z" style="fill:#ff5;"/><path id="uuid-67ad64bf-7a13-4ce7-94c3-9ef03a540752" d="m202.53,346.47c0-1.93,1.57-3.5,3.5-3.5s3.5,1.57,3.5,3.5-1.57,3.5-3.5,3.5-3.5-1.57-3.5-3.5Z" style="fill:#ff5;"/><path id="uuid-6e17099d-5d19-4a7a-b589-92c0bfcba864" d="m203.19,325.24c0-1.93,1.57-3.5,3.5-3.5s3.5,1.57,3.5,3.5-1.57,3.5-3.5,3.5-3.5-1.57-3.5-3.5Z" style="fill:#ff5;"/><path id="uuid-724ff442-a1f2-4b57-9dca-52918fb35f21" d="m189.04,311.31c0-1.93,1.57-3.5,3.5-3.5s3.5,1.57,3.5,3.5-1.57,3.5-3.5,3.5-3.5-1.57-3.5-3.5Z" style="fill:#ff5;"/><path id="uuid-838bee30-8cae-4384-ac1b-449d11e1a2b3" d="m246.12,382.03l3.33-2.03s-9.28-11.85-12.79-16.97c-3.11-4.52-5.91-9.3-8.53-14.19-3.57-6.65-6.71-13.59-9.81-20.56-2.39-5.37-6.81-16.5-6.81-16.5l-3.72,1.47s4.43,11.09,6.91,16.66c3.11,6.99,6.28,14,9.94,20.81,2.67,4.96,5.5,9.87,8.72,14.56,3.8,5.53,12.78,16.75,12.78,16.75h0Z" style="fill:#ff5;"/><path id="uuid-e7751f6a-abbf-4b7b-8290-e95805c3f296" d="m250.62,375.49c3.12-2.25,6.09-4.08,9.59-6.91,1.51-1.22,1.87-3.09,1.81-4.75-.05-1.66-.51-3.3-.91-4.59-.71-2.32-2.2-4.56-4.47-5.81-1.11-.61-2.43-1.15-3.84-1.34s-2.97-.09-4.28.81c-3.24,2.22-6.31,4.24-9.53,6.22l1.56,2.56c3.27-2.01,6.39-4.07,9.66-6.31.45-.31,1.21-.45,2.16-.31s2.03.55,2.84,1c1.37.76,2.56,2.41,3.06,4.06.36,1.18.71,2.63.75,3.81.04,1.18-.22,1.94-.72,2.34-3.35,2.7-6.22,4.46-9.44,6.78l1.75,2.44Z" style="fill:#ff5;"/><path id="uuid-e391b3cb-84e3-4fad-b9a9-ee1f4e1b7765" d="m236.78,355.58c3.1-1.73,6.46-3.08,9.75-5.44,1.3-.94,1.96-2.36,2.28-3.75s.32-2.82.19-4.06c-.28-2.6-1.61-5.13-3.69-6.78-1.09-.86-2.48-1.73-4-2.25s-3.3-.77-4.84.19c-2.93,1.82-5.72,3.06-9.12,5.03l1.5,2.59c3.27-1.89,6.1-3.15,9.22-5.09.38-.24,1.2-.25,2.28.12s2.28,1.08,3.12,1.75c1.35,1.07,2.38,3.03,2.56,4.78.1.97.09,2.09-.12,3.03-.22.94-.61,1.6-1.12,1.97-2.94,2.11-6.17,3.43-9.47,5.28l1.47,2.62Z" style="fill:#ff5;"/><path id="uuid-1f35eb16-0dd9-4eaa-9844-bc88559bf84b" d="m225.03,335.27c3.72-1.78,5.71-2.91,10.31-6.09,1.29-.89,1.92-2.3,2.25-3.66s.36-2.72.22-3.94c-.33-2.92-1.78-6.04-4.44-7.75-1.12-.72-2.43-1.42-3.97-1.69-1.51-.26-3.24,0-4.84,1l-.03-.03-8.41,4.81,1.5,2.59,8.38-4.78s.04-.02.06-.03c1.02-.65,1.88-.76,2.81-.59s1.94.65,2.88,1.25c1.62,1.04,2.82,3.4,3.06,5.53.1.92.09,2.03-.12,2.94s-.6,1.56-1.06,1.88c-4.54,3.15-6.25,4.09-9.91,5.84l1.31,2.72h0Z" style="fill:#ff5;"/><path id="uuid-263fa6e5-6a4d-4f69-bbd2-e1f49a5481f2" d="m210.19,316.56s10.76-6.23,16-10.19c4.86-3.66,9.41-7.93,13.52-12.7,4.23-4.92,7.99-10.4,10.69-16.41,2.63-5.85,4.44-11.76,5.36-17.96.79-5.33.82-10.74.47-16.03-.34-5.06-1.65-9.38-3.21-14.39-2.17-6.92-9.67-19.96-9.67-19.96l-2.61,3.4s6.64,11.9,8.47,17.75c1.42,4.54,2.73,8.56,3.06,13.48.34,5.09.3,10.2-.44,15.16-.89,5.97-2.66,11.55-5.08,16.92-2.5,5.56-6.02,10.75-10.06,15.44-3.78,4.39-8.1,8.49-12.89,12.11-4.73,3.57-15.62,9.91-15.62,9.91l2.03,3.47Z" style="fill:#ff5;"/><path id="uuid-5abf6eab-b633-4a63-963b-d1de49f4f1d2" d="m270.82,366.1l3.15-2.24s-8.22-9.42-11.5-13.73c-2.66-3.5-5.19-7.12-7.41-10.88-4.33-7.32-8.12-14.97-11.59-22.78-1.52-3.42-3.69-9.61-4.16-10.91,1.33-1.38,7.89-8.21,11.25-13.03,3.66-5.25,7.05-10.88,9.31-17.03,2.56-6.94,4.28-14.35,4.53-21.84.3-8.81-1.08-17.69-3.59-26.06-2.69-8.95-12.36-25.52-12.36-25.52l-2.58,3.43s8.76,15.43,11.09,23.22c2.41,8.02,3.72,16.52,3.44,24.81-.23,6.96-1.84,13.97-4.28,20.59-2.09,5.68-5.3,11.03-8.84,16.12-3.22,4.62-11.72,13.47-11.72,13.47-.52.53-.71,1.36-.47,2.06,0,0,2.87,8.15,4.72,12.31,3.52,7.92,7.38,15.7,11.81,23.19,2.32,3.92,4.93,7.66,7.66,11.25,3.53,4.65,11.54,13.57,11.54,13.57Z" style="fill:#ff5;"/><path id="uuid-87fcd7b0-466c-4cad-84fc-f909d6e7a7e5" d="m259.09,346.09s2.51-18.33,5.41-26.56c3.36-9.55,8.27-18.62,13.97-27.06,5.31-7.87,12.1-14.8,18.81-21.78,4.9-5.09,9.89-10.07,15.38-14.38,4.59-3.6,16.84-10.81,16.84-10.81v-4s-13.69,8.55-18.69,12.47c-5.67,4.45-10.76,9.5-15.69,14.62-6.7,6.97-13.61,14.02-19.12,22.19-5.81,8.61-10.87,17.93-14.34,27.78-3.17,9.01-5.53,27.16-5.53,27.16l2.97.38Z" style="fill:#ff5;"/><path id="uuid-5356a950-0ab4-4299-a19e-4086ab8ea5d8" d="m292.35,350.54s.48-13.45,1.87-18.82c1.71-6.61,3.95-13.12,7.12-19.03,3.47-6.47,7.98-12.43,12.97-17.94,3.74-4.12,15.19-12.44,15.19-12.44v-5.04s-13.83,10.01-18.16,14.79c-5.15,5.68-9.86,11.91-13.53,18.75-3.38,6.3-5.7,13.1-7.47,19.91-1.6,6.18-2,22.77-2,22.77l4-2.95Z" style="fill:#ff5;"/><path id="uuid-dca0b59b-ef82-42e2-a1df-9f826ed60be9" d="m269.38,355.81c5.53-1.74,12.27-3.31,15.38-8.22.47-.74.54-1.85.12-2.62-2.18-4.06-8.63-3.8-11.88-7.06-2.45-2.47-6.25-5.66-5.28-9,.85-2.94,5.21-3.4,8.16-4.22,4.1-1.14,9.36,1.73,12.75-.84.72-.55,1.12-1.68.91-2.56-.85-3.52-6.01-4.35-7.91-7.44-2.03-3.31-5.28-7.86-3.28-11.19,1.7-2.83,6.41-2.01,9.72-2,3.81.01,7.61,3.69,11.19,2.38.85-.31,1.58-1.25,1.66-2.16.35-4.03-4.57-6.85-5.62-10.75-.85-3.17-2.73-7.49-.44-9.84,2.42-2.47,7-.52,10.38.22,3.54.77,6.4,4.92,9.97,4.31.89-.15,1.76-.97,2-1.84,1.26-4.62-3.98-8.96-4.19-13.75-.11-2.64-.42-6.12,1.66-7.75,1.76-1.37,4.51-.28,6.69.22,1.17.27,2.16,1.9,3.28,1.47.93-.36,1.55-1.82,1.19-2.75-.51-1.29-2.46-1.35-3.81-1.66-2.76-.62-5.79-1.14-8.47-.25-.61.2-1.16.65-1.5,1.19-1.73,2.8-2.13,6.37-2.03,9.66.11,3.83,5.89,8.54,3.03,11.09-1.93,1.72-4.66-2.36-7.19-2.88-4.06-.83-8.59-1.8-12.44-.25-.67.27-1.27.86-1.53,1.53-1.46,3.75-.49,8.16.5,12.06.75,2.97,5.88,5.81,4.03,8.25-1.7,2.25-5.52-1.54-8.34-1.5-4.02.05-8.54.1-11.81,2.44-.6.43-1.03,1.17-1.12,1.91-.57,4.62,1.6,9.38,3.94,13.41,1.29,2.22,6.23,3.13,5.34,5.53-1.09,2.93-6.34,0-9.34.88-3.61,1.06-7.65,2.27-10.03,5.19-.46.56-.69,1.37-.59,2.09.54,4.19,3.49,7.88,6.44,10.91,2.74,2.82,10.14,2.35,10,6.28-.17,4.84-11.32,2.24-12.81,6.84-.31.95.36,2.99,1.31,2.69Z" style="fill:#ff5;"/><path id="uuid-9dffd067-f64c-4260-8919-ff8e35ef161f" d="m285.06,340.34c.94-.35,1.48-1.85,1.12-2.78-.71-1.89-3.77-1.54-5.41-2.72-1-.72-2.95-1.41-2.62-2.59.33-1.2,2.39-.77,3.62-.88,1.95-.16,4.32,1.66,5.84.44.78-.62,1.06-2.19.44-2.97-1.37-1.7-4.36-.65-6.53-.47-2.31.19-5.08.02-6.75,1.62-.6.58-.9,1.6-.69,2.41.58,2.23,3.04,3.53,4.91,4.88,1.84,1.32,3.94,3.86,6.06,3.06Z" style="fill:#ff5;"/><path id="uuid-214cebb3-fd64-485f-8d5a-3a6bdb517f4e" d="m265.66,349.78c2.39-1.38,3.79-1.71,6.62-3.53.64-.41.33-1.65-.09-2.28-.41-.62-1.38-.58-2.03-.94-.99-.55-2.07-1.02-2.84-1.84-.6-.64-.9-1.52-1.28-2.31-.25-.54-.12-1.41-.66-1.66-.76-.35-2.02.05-2.38.81-.28.6.43,1.25.72,1.84.51,1.05.98,2.18,1.78,3.03.94,1,3.48.94,3.41,2.31-.09,1.66-3.91.75-4.41,2.34-.25.8.43,2.64,1.16,2.22Z" style="fill:#ff5;"/><path id="uuid-581e757d-f6c6-4a89-aaef-f109c5d16cd0" d="m269.16,322.69c.82.11,1.3-1.02,2-1.47,1.08-.69,2.15-1.48,3.38-1.88.42-.14.87-.13,1.31-.16.3-.02.65.16.91,0,.65-.39,1.09-1.25,1.06-2-.05-1.3-1.57-2.09-2.09-3.28-.65-1.46.11-3.79-1.25-4.62-.71-.44-2-.21-2.44.5-.93,1.51.7,3.5,1.41,5.12.3.7,1.51,1.25,1.19,1.94-.13.27-.6.03-.88.12-1.44.48-2.72,1.37-4,2.19-.74.47-2,.69-2.12,1.56-.11.82.71,1.85,1.53,1.97Z" style="fill:#ff5;"/><path id="uuid-cee172cf-f832-4a4e-8add-8c1f6a6605c1" d="m276.09,360.08c1.55.02,2.14-1.87,3.39-2.63,1.23-.74,3.44-.66,3.98-1.84.36-.78-.03-2.06-.97-2.36-1.72-.55-3.35,1.32-4.84,2.22-1.36.82-3.67,1.47-3.69,2.87-.01.83,1.13,1.73,2.12,1.74Z" style="fill:#ff5;"/><path id="uuid-78cc0ad8-f2da-44c3-8097-fd930135b984" d="m290.97,317.19c.3-.96,1.88-1.48,1.72-2.47-.11-.65-1.08-.77-1.59-1.19-.79-.65-1.64-1.26-2.28-2.06-.74-.92-1.23-2.01-1.75-3.06-.04-.07-.13-.15-.09-.22.04-.06.15-.03.22-.03,1.17-.08,2.37-.17,3.53,0,.9.13,1.76.48,2.62.78.56.19,1.11.88,1.66.66.92-.38,1.57-1.83,1.19-2.75-.24-.59-1.18-.51-1.78-.72-1.07-.37-2.13-.78-3.25-.94-1.38-.2-2.79-.1-4.19-.03-.81.04-1.73-.19-2.41.25-.66.42-1.14,1.25-1.19,2.03-.05.82.6,1.52.97,2.25.63,1.26,1.24,2.56,2.12,3.66.79.98,1.81,1.76,2.78,2.56.55.46,1.08,1.6,1.72,1.28,0,0,0,0,0,0Z" style="fill:#ff5;"/><path id="uuid-770e1503-9520-4aff-9200-3a6d481a7c30" d="m303.19,296.44c.98.23,2.28-.71,2.5-1.69.34-1.47-1.71-2.51-2.28-3.91-.58-1.42-2.2-3.37-1.12-4.47.71-.73,2.01.34,2.97.69,1.47.53,2.69,2.54,4.19,2.09.96-.29,1.79-1.64,1.5-2.59-.5-1.66-3.03-1.72-4.66-2.31-1.86-.68-3.87-1.94-5.78-1.41-.79.22-1.53.95-1.75,1.75-.67,2.45.92,5.02,1.88,7.38.64,1.59.89,4.08,2.56,4.47Z" style="fill:#ff5;"/><path id="uuid-ffe19d25-a446-427c-b4ae-152b3a05bbd2" d="m320.28,280.19c.88.46,2.36-.12,2.81-1,.94-1.83-1.37-3.91-1.69-5.94-.18-1.15-1.04-2.78-.12-3.5.96-.76,2.47,1.57,3.53.97.87-.49,1.3-2.01.81-2.88-.94-1.67-3.65-1.88-5.53-1.53-.78.14-1.57.69-1.91,1.41-.86,1.81-.07,4.02.25,6,.36,2.21-.15,5.44,1.84,6.47Z" style="fill:#ff5;"/><path id="uuid-bd794330-c38b-4666-a7e1-30200c1df8f3" d="m282.31,296.47c1,.29,1.76-1.19,2.78-1.41,1.05-.22,2.22.59,3.22.19.71-.29,1.72-.94,1.56-1.69-.5-2.28-2.15-5.43-1.44-6.97.35-.76-1.94-.75-2.5-.12-1.34,1.5,2.21,4.38.97,5.97-.51.65-1.67,0-2.47.22-1.22.34-3.04.45-3.41,1.66-.24.8.48,1.92,1.28,2.16Z" style="fill:#ff5;"/><path id="uuid-31797a55-e92e-4a68-86e6-1fb5622cf61f" d="m306.78,275c.61.2.95-.95,1.12-1.56.64-2.24,1.05-5.21-.47-6.97-.54-.63-1.79-1.06-2.44-.53-1.58,1.29,1.58,4.72.09,6.12-1.52,1.44-4.94-2.05-6.28-.44-.53.64,0,1.86.62,2.41,1.73,1.52,4.57.52,6.84.88.17.03.39-.04.5.09,0,0,0,0,0,0Z" style="fill:#ff5;"/><path id="uuid-74cefbf4-5e59-4640-b41a-55a6ae9496fa" d="m325.34,256.56c.27-.79,1.77-1.17,1.53-1.97-.31-1.06-2.04-.9-3.12-1.09-.77-.14-1.75-.54-2.34-.03-.63.54-.85,1.84-.31,2.47.55.64,1.7-.08,2.53.06.59.1,1.23.92,1.72.56,0,0,0,0,0,0Z" style="fill:#ff5;"/><path id="uuid-fc01f167-bd06-4f4e-83e0-5015fef1258f" d="m246.97,370.64c2.45-1.82,5.1-3.01,7.88-5.91,1.31-1.36,1.2-3.29.44-4.5-.52-.83-1.29-1.31-2.12-1.62s-1.76-.47-2.72.03c-3.48,1.83-5.06,3.21-7.81,5.09l1.41,2.06c2.85-1.95,4.27-3.24,7.56-4.97-.09.05.28-.03.69.12s.82.48.91.62c.29.47.42.87-.12,1.44-2.45,2.55-4.88,3.61-7.59,5.62.54.64,1.03,1.31,1.5,2Z" style="fill:#ff5;"/><path id="uuid-d77fa095-f45e-4132-9c53-30b0a68b9285" d="m234.25,350.08c2.03-1.13,4.36-1.48,7-3.25,1.04-.7,1.58-1.81,1.78-2.94s.08-2.33-.62-3.34c-.64-.92-1.62-1.29-2.56-1.44s-1.94-.11-2.81.47c-2.41,1.59-3.84,1.98-6.34,3.81l1.47,2.03c2.27-1.66,3.63-2.03,6.25-3.75.09-.06.6-.17,1.06-.09.46.07.84.31.91.41.17.25.3.86.19,1.47s-.43,1.14-.69,1.31c-2.17,1.45-4.36,1.74-6.84,3.12l1.22,2.19h0Z" style="fill:#ff5;"/><path id="uuid-0806757b-1213-4442-90f5-56d5a71faecc" d="m222.75,330.02s5.26-2.5,8.44-4.66c1.07-.73,1.31-1.87,1.34-2.94.04-1.07-.18-2.2-1-3.09-1.54-1.68-4.07-1.56-5.97-.44-2.08,1.22-6.62,4.09-6.62,4.09l1.34,2.09s4.59-2.87,6.56-4.03c1.07-.63,2.39-.53,2.84-.03.11.12.36.73.34,1.31-.02.58-.35,1.03-.25.97-2.85,1.94-8.09,4.47-8.09,4.47l1.06,2.25h0Z" style="fill:#ff5;"/><path id="uuid-6848750d-6f5a-46c0-b62d-3945460b6e7f" d="m312.66,254.2c-1.47-8.19-2.27-15.86-4.56-23.42-2.44-8.04-5.7-15.87-9.64-23.29-2.85-5.38-6.31-10.45-10.04-15.26-5.29-6.83-11.91-13.17-17.4-19.2" style="fill:none; stroke:#ff5; stroke-linejoin:round; stroke-width:4px;"/><path id="uuid-0414e6b2-3649-43c4-99d1-3a05d672d83f" d="m203.92,287.29c4.55-3.2,9.16-8.26,11.98-11.88,2.36-3.03,4.69-6.31,6.28-10.06,1.74-4.11,2.73-8.5,3.19-12.84.48-4.56.57-10.92-1.66-16.81l-2.75,4.09c.45,2.94.81,8.46.41,12.31-.43,4.03-1.33,8.04-2.88,11.69-1.36,3.21-3.46,6.25-5.75,9.19-2.51,3.22-4.89,6.92-8.91,9.25l.08,5.07Z" style="fill:#ff5;"/><g id="uuid-b30f665a-e95b-4c37-86f8-a9dac834feb8"><path id="uuid-4672ab9a-9413-4eb5-b89e-093870093118" d="m217.63,297.7c0-1.93,1.57-3.5,3.5-3.5s3.5,1.57,3.5,3.5-1.57,3.5-3.5,3.5-3.5-1.57-3.5-3.5Z" style="fill:#ff5;"/><path id="uuid-3c954c6a-9766-47af-969d-c63bbfd16c80" d="m209.9,296.79c0-1.93,1.57-3.5,3.5-3.5s3.5,1.57,3.5,3.5-1.57,3.5-3.5,3.5-3.5-1.57-3.5-3.5Z" style="fill:#ff5;"/><path id="uuid-97a7c364-6dec-4fcb-ba2f-b99e7d49831e" d="m217.63,289.86c0-1.93,1.57-3.5,3.5-3.5s3.5,1.57,3.5,3.5-1.57,3.5-3.5,3.5-3.5-1.57-3.5-3.5Z" style="fill:#ff5;"/></g><g id="uuid-c7a864c1-8cfd-48f6-b549-2b7866ad670e"><path id="uuid-92b04552-2236-4a3a-93b4-42006d2602dd" d="m232.12,282.96c-.55-1.85.51-3.8,2.37-4.35s3.8.51,4.35,2.37-.51,3.8-2.37,4.35-3.8-.51-4.35-2.37Z" style="fill:#ff5;"/><path id="uuid-ba3a2027-68de-41e9-bd33-a8017a2be93d" d="m224.45,284.27c-.55-1.85.51-3.8,2.37-4.35s3.8.51,4.35,2.37-.51,3.8-2.37,4.35-3.8-.51-4.35-2.37Z" style="fill:#ff5;"/><path id="uuid-f3bb7145-ae08-4080-9022-0462c0f2e7c1" d="m229.9,275.43c-.55-1.85.51-3.8,2.37-4.35s3.8.51,4.35,2.37-.51,3.8-2.37,4.35-3.8-.51-4.35-2.37Z" style="fill:#ff5;"/></g><g id="uuid-d21c1fd0-02b7-46e6-bcab-a9839e2fcb13"><path id="uuid-811ca513-d29c-4904-958f-59767eb5d81b" d="m239.71,262.41c-.9-1.71-.25-3.83,1.46-4.73s3.83-.25,4.73,1.46.25,3.83-1.46,4.73-3.83.25-4.73-1.46Z" style="fill:#ff5;"/><path id="uuid-b687698d-cea3-4cfa-8d93-e6c23d8d34f9" d="m232.46,265.21c-.9-1.71-.25-3.83,1.46-4.73s3.83-.25,4.73,1.46.25,3.83-1.46,4.73-3.83.25-4.73-1.46Z" style="fill:#ff5;"/><path id="uuid-d5c912d2-9b39-4bad-9189-c5821e4d73ff" d="m236.05,255.47c-.9-1.71-.25-3.83,1.46-4.73s3.83-.25,4.73,1.46.25,3.83-1.46,4.73-3.83.25-4.73-1.46Z" style="fill:#ff5;"/></g><g id="uuid-a9d44e03-2cda-4a35-a59d-90631e9086c7"><path id="uuid-189f0604-ad37-444a-bb90-ad3777c6a60d" d="m241.32,237.47c-1.66-.99-2.21-3.13-1.22-4.8s3.13-2.21,4.8-1.22,2.21,3.13,1.22,4.8-3.13,2.21-4.8,1.22Z" style="fill:#ff5;"/><path id="uuid-7663838e-f9f6-451c-a3ba-cd627df0e6c9" d="m236.59,243.64c-1.66-.99-2.21-3.13-1.22-4.8s3.13-2.21,4.8-1.22,2.21,3.13,1.22,4.8-3.13,2.21-4.8,1.22Z" style="fill:#ff5;"/><path id="uuid-8c0410d5-a971-4462-b8c0-7bb35dbeedc4" d="m234.57,233.46c-1.66-.99-2.21-3.13-1.22-4.8s3.13-2.21,4.8-1.22,2.21,3.13,1.22,4.8-3.13,2.21-4.8,1.22Z" style="fill:#ff5;"/></g><path id="uuid-2e439ccf-96ba-4b9a-867f-b3f5de02b0be" d="m203.37,297.56l-12.68-.2,4.87-10.96h-4.87l-5.68,10.75h-13.19l4.67-10.55h-5.48l-4.87,10.75h-14.2l4.87-10.96h-4.46l2.64-4.87,8.72.61-5.07,10.35h4.67l5.28-10.75,14.61.41-4.67,9.94h4.46l5.28-10.55,14.2.41-5.68,10.55,4.26.2,2.23-3.65.1,8.52Z" style="fill:#55a;"/><path id="uuid-e37a3065-6490-48da-a9a2-3512c0e27a84" d="m207.93,287.62l8.32,4.46-3.86-8.72-4.46,4.26Z" style="fill:#ff5;"/><path id="uuid-a09b109e-e585-4a84-8360-6f6ad1defb3f" d="m220.02,275.16l8.93,3.06-5.21-7.99-3.72,4.93Z" style="fill:#ff5;"/><path id="uuid-6423a832-cfe1-4228-8de4-01785b5c3990" d="m227.4,258.87l9.41-.74-7.96-5.26-1.46,6Z" style="fill:#ff5;"/><path id="uuid-a84af478-bffa-4eea-b84a-65aeda68a100" d="m228.6,241.67l7.19-6.11-9.53.4,2.34,5.71Z" style="fill:#ff5;"/><path id="uuid-7776d950-dbd9-432a-b93c-ffd4337769d4" d="m251.63,308.81l-8.34-4.42,3.9,8.7,4.44-4.29Z" style="fill:#ff5;"/><path id="uuid-03891c35-79ea-4132-81f8-cc8fafa73245" d="m261.4,296.98l-9.06-2.65,5.57,7.74,3.49-5.09Z" style="fill:#ff5;"/><path id="uuid-538fc92e-838b-449f-ab1e-b919d043bd3d" d="m269.15,282.04l-9.42-.62,7.12,6.35,2.3-5.73Z" style="fill:#ff5;"/><path id="uuid-6e3c40b0-d410-4d65-972a-ac07a165155c" d="m274.09,265.57l-9.33,1.42,8.32,4.66,1.01-6.09Z" style="fill:#ff5;"/><path id="uuid-affd9d8a-23fb-4d10-9970-7b5ad29e2972" d="m275.86,250.57l-8.96,2.96,8.98,3.21-.02-6.17Z" style="fill:#ff5;"/><path id="uuid-999ddcb9-ed2a-4df8-a117-4a2f9d83d5bf" d="m274.65,235.49l-8.41,4.29,9.37,1.8-.96-6.1Z" style="fill:#ff5;"/><path id="uuid-d3046031-1ec6-4df3-9208-e1fabe7b6634" d="m270.34,220.45l-7.03,6.3,9.52-.65-2.49-5.65Z" style="fill:#ff5;"/><path id="uuid-49f53ba9-c3bd-482e-8e3e-eec0c62f909c" d="m264.61,206.73l-7.03,6.3,9.52-.65-2.49-5.65Z" style="fill:#ff5;"/><path id="uuid-70129ac1-7e53-4793-9d55-7cfeaf2ccf45" d="m257.62,194.62l-6.03,7.26,9.32-2.04-3.28-5.22Z" style="fill:#ff5;"/><path id="uuid-d94a924b-19c9-45e7-925c-8bf045039093" d="m322.93,318.19c-4.75,4.24-8.94,8.71-13.71,12.73-4,3.38-8.32,6.37-12.48,9.55.24-1.7.36-3.41.71-5.09.45-2.15,1.19-4.24,1.78-6.37,3.45-2.02,6.75-4.24,10.34-6.05,2.41-1.21,4.92-2.3,7.49-3.18,1.91-.66,3.73-1.06,5.86-1.59Z" style="fill:#f55; stroke:#f55; stroke-linecap:round; stroke-linejoin:round; stroke-width:2px;"/><path id="uuid-bb50858e-baaf-4f34-9e5f-e345e5c0de76" d="m324.37,313.21c-3.23,1.08-6.51,2.04-9.69,3.23-2.23.84-4.47,1.68-6.59,2.75-2.35,1.19-4.48,2.71-6.72,4.07.39-1.63.47-3.36,1.16-4.9.58-1.31,1.64-2.39,2.45-3.59,2.32-.68,4.59-1.59,6.97-2.03,2.25-.42,4.56-.72,6.85-.6,1.89.1,3.7.72,5.55,1.08h0Z" style="fill:#f55; stroke:#f55; stroke-linecap:round; stroke-linejoin:round; stroke-width:2px;"/><path id="uuid-b8c2eba1-1763-41c3-908c-44efbc583215" d="m324.51,309.1c-2.35-.12-4.69-.35-7.04-.36-1.65-.01-3.3-.02-4.94.19-1.82.23-3.6.79-5.39,1.19.7-1.17,1.24-2.5,2.11-3.51.74-.86,1.71-1.39,2.56-2.09,1.66.16,3.35.13,4.99.49,1.54.34,3.09.8,4.5,1.58,1.17.64,2.14,1.67,3.21,2.51h0Z" style="fill:#f55; stroke:#f55; stroke-linecap:round; stroke-linejoin:round; stroke-width:2px;"/><path id="uuid-2ce3d2e2-3eeb-4041-97ac-788449950bac" d="m325.01,304.69c-1.63-.81-3.21-1.7-4.88-2.42-1.17-.51-2.34-1.02-3.58-1.36-1.37-.37-2.83-.49-4.25-.73.91-.69,1.75-1.55,2.72-2.06.82-.44,1.7-.55,2.55-.83,1.12.63,2.34,1.12,3.37,1.9.98.73,1.92,1.56,2.65,2.59.61.85.94,1.94,1.41,2.91Z" style="fill:#f55; stroke:#f55; stroke-linecap:round; stroke-linejoin:round; stroke-width:2px;"/><path id="uuid-8b9e1654-c416-4e60-ac91-bcea06978339" d="m326.21,298.54c-.96-.83-1.88-1.72-2.87-2.48-.69-.53-1.39-1.07-2.14-1.45-.84-.43-1.75-.63-2.62-.95.64-.54,1.25-1.23,1.91-1.61.56-.32,1.12-.36,1.69-.54.66.64,1.38,1.15,1.97,1.91.55.71,1.07,1.5,1.45,2.46.31.79.42,1.77.63,2.65h0Z" style="fill:#f55; stroke:#f55; stroke-linecap:round; stroke-linejoin:round; stroke-width:2px;"/><path id="uuid-3b5c766a-2bf7-401b-840e-0de4acf57429" d="m255.31,336.3c-1.26-2.6-2.88-5.36-4.2-8.1-1.57-3.24-2.96-6.55-4.44-9.83,2.96-3.01,6.17-5.79,8.89-9.02,3.83-4.56,7.4-9.38,10.37-14.54,3.04-5.29,5.62-10.9,7.54-16.7,1.79-5.41,2.92-11.05,3.64-16.7.62-4.95.75-9.97.54-14.95-.24-5.51-.87-11.03-2.02-16.43-1.02-4.82-2.55-9.53-4.31-14.14-1.83-4.8-3.91-9.54-6.46-14-2.11-3.7-4.85-7-7.27-10.5l11.04-14.95c4.8,5.48,9.92,10.69,14.41,16.43,4.41,5.64,8.75,11.4,12.25,17.64,2.79,4.96,4.94,10.27,6.91,15.61,1.61,4.35,2.9,8.82,4,13.33,1.1,4.51,1.62,9.85,2.57,13.69-2.98,2.82-8.57,8.05-12.71,12.23-4.36,4.41-8.83,8.74-12.75,13.54-5.49,6.72-10.57,13.82-15.01,21.28-3.15,5.29-6.08,10.78-8.19,16.57-2.3,6.3-3.77,12.83-4.79,19.53Z" style="fill:#f55;"/><path id="uuid-6d54831d-b082-4d07-8209-ad7d4dc24283" d="m212.57,400.07c4.47-1.43,8.54-3.09,12.6-5.09,7.91-3.9,15.28-8.8,22.79-13.41,8.5-5.21,17.01-10.41,25.2-16.09,6.61-4.58,13.05-9.42,19.3-14.48,7.28-5.9,14.3-12.13,21.18-18.5,5.43-5.03,10.93-10.37,15.85-15.55" style="fill:none; stroke:#55a; stroke-linecap:round; stroke-linejoin:round; stroke-width:2px;"/><path id="uuid-d1155d67-4d62-4ff7-af85-605d940b6ecf" d="m196.12,271.98s-.27,1.67-.8,2.2c-.53.53-1.45.8-2.2.8s-1.67-.27-2.2-.8c-.53-.53-.8-1.45-.8-2.2s.4-1.8.8-2.2c.4-.4.8-.6,1.2-1s.6-.4,1-.8c.4-.4.6-.6,1-1s1-1.2,1.4-2,.6-2,.6-2c0,0,.2,1.2.6,2,.4.8,1,1.6,1.4,2s.6.6,1,1,.6.4,1,.8c.4.4.8.6,1.2,1s.8,1.45.8,2.2-.27,1.67-.8,2.2c-.53.53-1.45.8-2.2.8s-1.67-.27-2.2-.8c-.53-.53-.8-2.2-.8-2.2Z" style="fill:#f55;"/><path id="uuid-d222fa97-4c6e-4c4e-a764-453a855005bb" d="m287.73,355.17c.77,3.24.72,6.79,2.3,9.72,1.47,2.71,3.75,5.07,6.36,6.72,1.62,1.02,3.56,1.72,5.48,1.77,2.02.05,4.01-.73,5.83-1.59,1.76-.83,3.28-2.11,4.77-3.36,1.15-.97,2.61-1.8,3.18-3.18.34-.82.37-1.85,0-2.65-.52-1.14-1.68-1.98-2.83-2.47-1.09-.47-2.4-.69-3.54-.35-1.09.32-1.81,1.37-2.65,2.12-.99.89-1.89,1.89-2.83,2.83-.18-.65-.12-1.42-.53-1.94-.75-.95-2.12-1.18-3.18-1.77.94-.88,2.14-1.56,2.83-2.65.73-1.15,1.1-2.54,1.24-3.89.18-1.71.15-3.55-.53-5.13-.71-1.65-2.36-2.71-3.54-4.07" style="fill:none; stroke:#55a; stroke-linecap:round; stroke-linejoin:round; stroke-width:2px;"/><path id="uuid-78f33b91-ab03-49c2-ab56-520bffdee40f" d="m311.47,368.83c-.98.55-2.72-.96-3.06-2.16-.33-1.17.58-2.48,1.41-3.36.95-.99,2.47-1.18,3.71-1.77" style="fill:none; stroke:#55a; stroke-linecap:round; stroke-linejoin:round; stroke-width:2px;"/><path id="uuid-1dafa51b-857d-4efe-812e-cc7e79f636d7" d="m305.41,373.56c1.83,1.94,3.08,4.67,5.48,5.83,1.22.59,2.76.73,4.07.35,1.42-.4,2.74-1.41,3.54-2.65.59-.91.92-2.12.71-3.18-.24-1.2-1.27-2.12-2.12-3.01-1.08-1.12-2.47-1.89-3.71-2.83" style="fill:none; stroke:#55a; stroke-linecap:round; stroke-linejoin:round; stroke-width:2px;"/><path id="uuid-d3814c1c-2363-4218-bd65-28d660636c9f" d="m318.66,371.97c1.18-.12,2.47.17,3.54-.35,1.01-.5,2.01-1.39,2.3-2.47.34-1.28-.2-2.75-.88-3.89-1.36-2.25-3.88-3.58-6.01-5.13-1.9-1.39-3.9-2.67-6.01-3.71-1.19-.59-2.42-1.72-3.71-1.41-1.1.26-1.98,1.39-2.3,2.47-.18.63.08,1.34.35,1.94.27.61.82,1.06,1.24,1.59" style="fill:none; stroke:#55a; stroke-linecap:round; stroke-linejoin:round; stroke-width:2px;"/><path id="uuid-0535b831-6813-4dc8-b33a-5db24d1fc769" d="m311.98,359.94c.62-.32.93-1.26,1.26-2.14" style="fill:none; stroke:#55a; stroke-linecap:round; stroke-linejoin:round; stroke-width:2px;"/><path id="uuid-bc5a0214-d098-40b7-8fa1-3b9415ac444e" d="m322.55,362.6c1-.82,2.36-1.35,3.01-2.47.54-.93.86-2.16.53-3.18-.28-.87-1.32-1.28-1.94-1.94-.86-.91-1.48-2.07-2.47-2.83-1.2-.91-2.63-1.51-4.07-1.94-1.54-.47-3.18-.9-4.77-.71-1.08.13-2.4.34-3.01,1.24-.52.78-.36,1.96,0,2.83.38.92,1.26,1.62,2.12,2.12.95.55,2.11,1.14,3.18.88.93-.22,1.67-1.1,2.12-1.94.37-.68.46-1.53.35-2.3-.1-.71-.59-1.3-.88-1.94" style="fill:none; stroke:#55a; stroke-linecap:round; stroke-linejoin:round; stroke-width:2px;"/><path id="uuid-45f562f3-c7fa-4743-9032-1950c01d00f5" d="m324.5,353.23c.65-.53,1.59-.83,1.94-1.59.35-.75.3-1.7,0-2.47-.57-1.48-1.86-2.66-3.18-3.54-1.51-1-3.37-1.33-5.13-1.77-1.1-.27-2.31-.96-3.36-.53-.74.31-1.27,1.16-1.41,1.94-.15.84.18,1.8.71,2.47.67.85,1.75,1.51,2.83,1.59.82.06,1.7-.32,2.3-.88.52-.49.76-1.24.88-1.94.12-.7-.12-1.41-.18-2.12" style="fill:none; stroke:#55a; stroke-linecap:round; stroke-linejoin:round; stroke-width:2px;"/><path id="uuid-55d200fd-8aaf-47fb-ad3a-12277b50fc51" d="m318.13,339.44l-2.12-3.18-3.36-2.3" style="fill:none; stroke:#55a; stroke-linecap:round; stroke-linejoin:round; stroke-width:2px;"/><path id="uuid-65a72f2d-e0f4-469f-9f44-0c60bff112f2" d="m322.38,344.21c.47-1.89,1.15-3.73,1.41-5.66.28-2.04.12-4.12.18-6.19-1.53.06-3.06.12-4.6.18.06,2.18.37,4.37.18,6.54-.13,1.44-.59,2.83-.88,4.24,1.24.29,2.47.59,3.71.88h0Z" style="fill:#ff5; stroke:#55a; stroke-linecap:round; stroke-linejoin:round; stroke-width:2px;"/><path id="uuid-c73f279a-2af1-4c28-8ae6-0e7105796fa8" d="m309.83,379.75c-1.59,2.59-2.6,5.65-4.77,7.78-2.59,2.53-5.9,4.47-9.37,5.48-2.89.84-6.01.29-9.02.35-3.59.07-7.22-.5-10.78,0-2.73.39-5.43,1.19-7.95,2.3-1.77.78-3.61,1.62-4.95,3.01-.75.78-1.06,1.89-1.59,2.83.24-2.47-.01-5.04.71-7.42.83-2.75,2.24-5.38,4.07-7.6,2.08-2.52,4.67-4.74,7.6-6.19,2.55-1.26,5.49-1.58,8.31-2,4.03-.6,8.13-.57,12.2-.71,2.3-.08,4.66.47,6.89-.06,1.85-.44,3.42-1.36,5.13-2.54,1.18,1.59,2.36,3.18,3.54,4.77h0Z" style="fill:#ff5; stroke:#55a; stroke-linecap:round; stroke-linejoin:round; stroke-width:2px;"/><path id="uuid-ab75810d-3d84-4e60-acf5-68e3bf6e7f1a" d="m270.45,391.68l5.18-3.56.05,1.09,6.88-1.93-1.07,1.68,10.34-2.4c.06,0-1.41,1.59-1.35,1.57l10.08-3.04c.23-.04-.24,1.32-.06,1.18l7.9-8.09-.59-.66-8.89,4.57,1.52.44-8.97.72.82.72-10.85-.4,1.4.86c-.11.01-10.31,1.97-10.41,2l1.78.53c-1.27.7-4.04,1.35-5.03,1.95-.99.6,1,.47.94.51l-3.71,3.11,3.98-1.85.05.99Z" style="fill:#55a; stroke:#55a; stroke-linecap:round; stroke-linejoin:round;"/></g><path id="uuid-5000eb93-f534-4026-8b9e-e79ed44e9e47" d="m29,98.5c0-5.52-2.86-9-7-9s-7.5,4.48-7.5,10c.02.48,0,.95,0,1.41,0,3.65,1.34,7.19,2.5,10.5,1.19,3.41,2.92,6.39,4.53,9.44,2.5,4.72,7.97,13.66,7.97,13.66,0,0,5.47-8.94,7.97-13.66,1.61-3.05,3.34-6.03,4.53-9.44,1.16-3.31,2.5-6.85,2.5-10.5-.01-.49,0-.96,0-1.41,0-5.52-3.36-10-7.5-10s-7,3.48-7,9c0,1-1,1-1,0Z" style="fill:#f55;"/><path id="uuid-629466c1-f9d4-4e28-adf0-eb9c21fbefb9" d="m88.5,62.5c0-11.05-5.72-18-14-18s-15,8.95-15,20c.03.96.02,1.89,0,2.81,0,7.3,2.68,14.38,5,21,2.39,6.81,5.83,12.78,9.06,18.88,5,9.44,15.94,27.31,15.94,27.31,0,0,10.94-17.87,15.94-27.31,3.23-6.09,6.67-12.06,9.06-18.88,2.32-6.62,5-13.7,5-21-.03-.97-.02-1.91,0-2.81,0-11.05-6.72-20-15-20s-14,6.95-14,18c0,2-2,2-2,0Z" style="fill:#f55;"/><path id="uuid-2f73dc83-8705-40f3-9052-b3cba6320b4e" d="m330,440.5c0,5.52,2.86,9,7,9s7.5-4.48,7.5-10c-.02-.48,0-.95,0-1.41,0-3.65-1.34-7.19-2.5-10.5-1.19-3.41-2.92-6.39-4.53-9.44-2.5-4.72-7.97-13.66-7.97-13.66,0,0-5.47,8.94-7.97,13.66-1.61,3.05-3.34,6.03-4.53,9.44-1.16,3.31-2.5,6.85-2.5,10.5.01.49,0,.96,0,1.41,0,5.52,3.36,10,7.5,10s7-3.48,7-9c0-1,1-1,1,0Z" style="fill:#f55;"/><path id="uuid-8439d0a2-f2f1-4984-a2d5-a64552389e75" d="m270.5,476.5c0,11.05,5.72,18,14,18s15-8.95,15-20c-.03-.96-.02-1.89,0-2.81,0-7.3-2.68-14.38-5-21-2.39-6.81-5.83-12.78-9.06-18.88-5-9.44-15.94-27.31-15.94-27.31,0,0-10.94,17.87-15.94,27.31-3.23,6.09-6.67,12.06-9.06,18.88-2.32,6.62-5,13.7-5,21,.03.97.02,1.91,0,2.81,0,11.05,6.72,20,15,20s14-6.95,14-18c0-2,2-2,2,0Z" style="fill:#f55;"/></g></svg>