<?xml version="1.0" encoding="UTF-8"?><svg id="uuid-c26952b1-8443-46fb-a26f-6a5d4758836e" xmlns="http://www.w3.org/2000/svg" viewBox="0 0 359 539"><g id="uuid-1d23f2fd-0f1f-47bd-9305-9dba16234b4a"><path id="uuid-850186a8-8769-4055-900d-6061402096d4" d="m29.5,29.5v5h5v35c0,2.76-2.24,5-5,5s-5-2.24-5-5v-5h-5v5c0,5.52,4.48,10,10,10s10-4.48,10-10V29.5h-10Z" style="fill:#f55;"/><path id="uuid-43881b64-9fa1-41cd-9f4b-52c6366344f6" d="m329.5,509.5v-5h-5v-35c0-2.76,2.24-5,5-5s5,2.24,5,5v5h5v-5c0-5.52-4.48-10-10-10s-10,4.48-10,10v40h10Z" style="fill:#f55;"/><path id="uuid-087cf7ca-4f92-4980-b264-6a4b6b4b6f6a" d="m29.5,149.5v360h270" style="fill:none; stroke:#55a; stroke-width:2px;"/><g id="uuid-b67fa9f8-a760-4ddf-b3fd-30b6af59e2b0"><path id="uuid-c9b359c9-b9c4-40f2-92c8-88e5d024a3ff" d="m291.96,164.51c-5.22,4.6-9.39,9.45-13.52,14.66-5.26,6.64-10.22,13.59-14.25,21.05-3.75,6.95-6.76,14.33-9.1,21.87-2.13,6.87-3.58,13.97-4.43,21.12-.75,6.34-.87,12.78-.54,19.16.27,5.35,1.35,10.62,2.08,15.92.84,6.07,1.02,12.28,2.64,18.19,1.85,6.73,4.84,13.14,8.02,19.35,2.53,4.96,5.92,9,8.76,14.22,2.04-1.82,4.09-3.63,6.13-5.45-3.41-6.24-7.13-12.35-9.88-18.9-2.42-5.78-4.27-11.8-5.79-17.88-1.73-6.94-3.19-13.99-3.75-21.12-.46-5.89-.23-11.83.34-17.71.7-7.23,1.85-14.45,3.75-21.46,1.7-6.31,4.08-12.45,6.81-18.39,2.93-6.37,6.2-12.64,10.22-18.39,3.78-5.41,7.61-10.5,12.94-14.99-.45-3.63-.67-7.11-.44-11.25h0Z" style="fill:#f55;"/><path id="uuid-7a2b4a56-0171-4d6f-8385-9e899708d195" d="m296.84,194.08c-4.01,6.01-8.79,11.57-12.02,18.03-3.64,7.27-6.26,15.07-8.13,22.98-1.53,6.47-2.32,13.15-2.47,19.8-.18,7.68.31,15.44,1.77,22.98,1.34,6.92,3.72,13.62,6.36,20.15,2.08,5.13,4.95,9.9,7.42,14.85l15.91-11.31.35-105.71c-1.41-.12-2.85-.1-4.24-.35-1.69-.31-3.3-.94-4.95-1.41h0Z" style="fill:#f55;"/><path id="uuid-55d75b7a-de7c-4c5d-9b79-af1361f6a769" d="m328.5,189.66l-3.02,3.71-3.89,2.65h-5.13l-3.89-.71.35,174.48,15.57,10.08v-190.21Z"/><path id="uuid-570b09d7-a277-4f88-8e8e-e5fe1914417a" d="m312.22,114.18v46.67l13.44-2.3,2.85,3.18v-45.25l-8.33-.53-7.95-1.77Z"/><path id="uuid-16dc358e-51ad-45e2-ae09-e72a833c9322" d="m329.09,96.92l-11.75-1.04-11.75-1.83-10.45-2.96-8.01-3.48-7.14-2.96,4.7,6.27,6.35,6.96,11.49,6.53,13.06,4.44,7.31,1.31,6.18.7v-13.93Z"/><g id="uuid-4bb158f6-a424-4172-a6bb-d1fe00a44f66"><path id="uuid-ac573ce6-dd5f-4281-96c5-053cf8cc2dcd" d="m138.09,256.66s3.1,4.46,4.6,6.72c1.93,2.92,5.66,8.84,5.66,8.84l131.17-126.22s-7.25-5.64-10.61-7.78c-1.1-.17-3.18,1.06-3.18,1.06,0,0-.89,2.93-2.12,3.54-.85.42-2.83-.35-2.83-.35l-2.83,2.83s-1.99,4.93-3.54,7.07c-3.32,4.6-7.69,8.41-12.06,12.02-3.39,2.8-7.07,5.28-10.92,7.42-2.76,1.54-5.75,2.6-8.64,3.87-1.86.81-5.59,2.39-5.59,2.39l-79.11,78.6Z" style="fill:#ff5;"/><path id="uuid-1797a45a-9e55-4356-9a6f-423a1d2fc4e3" d="m141.99,262.04l3.88,6.31,128.66-125.5-6.07-4.13-126.47,123.32Z"/></g><g id="uuid-feda7b2b-c7bf-4f19-838a-e9a0cb4910a9"><path id="uuid-96220b09-afa9-4ea2-973d-f61e52f14c8b" d="m111.75,177.25l.25,62.75s7.36,2.97,10.75,5c3.58,2.14,10,7.5,10,7.5l-.75-83-10.75-9.25-9.5,17Z" style="fill:#ff5;"/><path id="uuid-3fe91be8-d2bf-42a9-956b-f55ed48f9721" d="m118.25,167l.25,75,7.25,4-.5-81.25-4-3.75-3,6Z"/></g><path id="uuid-dfb237dc-4271-47d9-b6b8-a8a6222bf00e" d="m109.72,147.82c4.82-3.16,10.53-6.92,15.34-10.08,3.61,3.91,6.8,8.28,10.84,11.74,3.99,3.42,8.46,6.32,13.1,8.81,3.56,1.91,7.34,3.43,11.18,4.66,3.82,1.22,7.77,2.13,11.74,2.67,4.33.59,8.73.79,13.1.64,4.29-.14,8.59-.61,12.78-1.49,3.92-.83,7.74-2.14,11.49-3.55,3.34-1.25,6.63-2.66,9.77-4.34,2.26-1.21,4.6-3.13,6.49-4.11,1.88.9,2.85,3.77,4.97,4.39,1.83.53,3.88-.18,5.65-.9,1.54-.64,2.71-1.96,4.07-2.94.98,0,2.03.37,2.94,0,1.57-.65,1.98-3.14,3.61-3.61.67-.19,1.36.63,2.03.45,1.18-.32,1.81-1.66,2.71-2.48.68,0,1.41.26,2.03,0,1.08-.45,1.66-1.66,2.48-2.48l2.26.45c-2.26,3.46-4.04,7.29-6.78,10.39-3.46,3.93-7.67,7.18-11.97,10.16-4.82,3.34-10.05,6.1-15.36,8.58-5.33,2.5-10.83,4.69-16.49,6.32-4.79,1.39-9.72,2.4-14.68,2.94-4.72.5-9.49.41-14.23.23-4.08-.16-8.17-.43-12.2-1.13-3.6-.62-7.14-1.6-10.61-2.71-6.15-1.97-12.42-3.87-18.07-7-4.85-2.68-9.05-6.41-13.32-9.94-2.67-2.2-5.29-4.5-7.68-7-2.6-2.72-5.11-5.58-7.21-8.67h0Z" style="fill:#ff5; stroke:#55a; stroke-linecap:round; stroke-linejoin:round; stroke-width:2px;"/><path id="uuid-edcaf775-a11b-42b2-a89c-36b2fffe4cef" d="m115.3,145.29l5.44-3.68s2.85,3.87,4.46,5.64c1.95,2.14,4.06,4.13,6.28,5.98,2.83,2.37,5.82,4.57,8.95,6.52,4.53,2.84,9.19,5.57,14.17,7.53,4.97,1.95,10.2,3.25,15.47,4.1,5.16.83,10.43,1.08,15.66.93,4.97-.14,9.97-.63,14.82-1.75,5.23-1.21,10.31-3.1,15.19-5.33,4.95-2.26,14.17-8.08,14.17-8.08,0,0,4.07-.41,5.97-1.12,1.83-.69,5.03-2.98,5.03-2.98,0,0,2.06.38,2.98,0,1.22-.5,2.8-2.8,2.8-2.8,0,0,1.1.67,1.68.56.95-.18,2.24-1.86,2.24-1.86,0,0-2.46,3.01-3.91,4.29-3.48,3.07-7.49,5.47-11.37,8.02-3.53,2.32-7.05,4.68-10.81,6.59-5.27,2.68-10.7,5.12-16.37,6.8-6.56,1.95-13.35,3.29-20.17,3.75-6.33.43-12.73.01-19-.93-6.1-.92-12.2-2.27-17.92-4.59-5.84-2.37-11.22-5.81-16.4-9.39-3.31-2.28-6.36-4.92-9.32-7.64-2.23-2.05-4.26-4.32-6.34-6.52-1.25-1.33-3.69-4.03-3.69-4.03h0Z"/><g id="uuid-ef9c654e-e85c-464b-97b7-f6694d34bb3f"><path id="uuid-ad16c3a0-d1bf-409a-8047-f0c2c88099ce" d="m145.5,114.25c-.6,2.56-1.02,5.17-1.81,7.68-.64,2.05-1.47,4.04-2.37,5.98-.61,1.31-1.35,2.56-2.03,3.84-.15-1.32-.08-2.68-.45-3.95-.48-1.65-.92-3.55-2.26-4.63-1.57-1.27-3.86-1.54-5.87-1.47-1.7.06-3.51.53-4.86,1.58-1.4,1.09-2.38,2.8-2.82,4.52-.47,1.83-.29,3.87.34,5.65.52,1.48,1.61,2.73,2.71,3.84.82.82,1.88,1.35,2.82,2.03.11,1.05-.16,2.23.34,3.16.53.99,1.57,1.69,2.6,2.15.7.31,1.51.23,2.26.34.11.9-.09,1.9.34,2.71.42.8,1.19,1.46,2.03,1.81.66.27,1.43.08,2.15.11.26.87.22,1.89.79,2.6.49.6,1.26,1.02,2.03,1.13,1.3.18,2.56-.6,3.84-.9.45.75.62,1.78,1.36,2.26.7.46,1.65.42,2.48.34.95-.09,1.81-.6,2.71-.9.41.75.48,1.85,1.24,2.26.77.41,1.76.02,2.6-.23.69-.2,1.28-.68,1.92-1.02.64.68,1.07,1.64,1.92,2.03.75.35,1.7.38,2.48.11.61-.21,1.02-.78,1.47-1.24.71-.73,1.28-1.58,1.92-2.37-1.2-.75-2.47-1.41-3.61-2.26-1.24-.92-2.46-1.9-3.5-3.05-1.09-1.2-1.97-2.58-2.82-3.95-.97-1.56-1.78-3.21-2.6-4.86-.84-1.67-1.71-3.33-2.37-5.08-.94-2.5-1.58-5.1-2.26-7.68-.59-2.24-1.09-4.51-1.58-6.78-.41-1.91-.75-3.84-1.13-5.76h0Z" style="fill:#ff5;"/><path id="uuid-38ec2e5c-6017-431c-bdf1-19b43717f446" d="m132.11,127.89c-1.43,0-2.97,1.27-3.18,2.63-.24,1.59,1.18,3.33,2.62,4.04,1.78.88,4.27.6,5.95-.48,2.72-1.74,3.51-5.47,4.75-8.45,1.58-3.82,2.22-8.45,3.33-11.94" style="fill:none; stroke:#55a; stroke-linecap:round; stroke-linejoin:round; stroke-width:2px;"/><path id="uuid-a4355c54-786f-4148-b2fb-2073eb1a2019" d="m137.45,133.91c1.24-1.29,1.94-4.1,1.69-6.24-.19-1.65-1.02-3.39-2.34-4.4-1.71-1.3-4.16-1.6-6.29-1.39-1.95.19-4.02.96-5.4,2.36-1.29,1.32-1.86,3.28-2.1,5.1-.23,1.78-.06,3.73.72,5.35.8,1.66,2.25,3.04,3.83,3.99,1.23.74,2.72,1.06,4.15,1.2,1.83.18,3.74.05,5.51-.48,1.61-.49,3.16-1.32,4.44-2.41,1.27-1.09,2.17-2.56,3.07-3.97,1.24-1.95,2.13-4.1,3.19-6.15" style="fill:none; stroke:#55a; stroke-linecap:round; stroke-linejoin:round; stroke-width:2px;"/><path id="uuid-86fe1e4e-61e8-42ae-aa03-11d16c1c49cf" d="m129.01,139.88c-.16,1.17.03,2.39.72,3.27.88,1.13,2.42,1.7,3.83,1.92,1.63.25,3.29-.34,4.87-.8,1.53-.44,3.02-1.03,4.39-1.84,1.23-.72,2.33-1.64,3.35-2.63,1.49-1.45,2.66-3.19,3.99-4.79" style="fill:none; stroke:#55a; stroke-linecap:round; stroke-linejoin:round; stroke-width:2px;"/><path id="uuid-ed9152d3-087e-4fbb-9985-f25df7771fb1" d="m134.28,145.79c.16.83,0,1.78.48,2.48.46.67,1.28,1.13,2.08,1.28,1.3.24,2.65-.32,3.91-.72,1.23-.39,2.38-.98,3.51-1.6,1.56-.85,3.1-1.75,4.47-2.87,1.4-1.15,2.5-2.61,3.75-3.91" style="fill:none; stroke:#55a; stroke-linecap:round; stroke-linejoin:round; stroke-width:2px;"/><path id="uuid-f7bf5ab6-afd8-427b-99d8-ac56aa2912f8" d="m138.91,149.94c.19.72.07,1.6.56,2.16.64.74,1.74,1.09,2.71,1.12,1.19.03,2.28-.69,3.35-1.2,1.4-.66,2.73-1.49,3.99-2.4,1.14-.81,2.11-1.84,3.19-2.71.78-.63,1.6-1.22,2.4-1.84" style="fill:none; stroke:#55a; stroke-linecap:round; stroke-linejoin:round; stroke-width:2px;"/><path id="uuid-0ac292b8-f226-418b-8b8d-562d286cd22e" d="m145.46,152.49c.19,1.68.93,2.17,1.92,2.56,1,.4,2.19-.17,3.19-.56,1.21-.47,2.23-1.31,3.27-2.08,1.52-1.12,2.87-2.45,4.31-3.67" style="fill:none; stroke:#55a; stroke-linecap:round; stroke-linejoin:round; stroke-width:2px;"/><path id="uuid-c415d82f-82ba-4f42-9c9a-d792050fdb06" d="m151.92,154.41c.08.93.87,1.65,1.68,1.92.96.32,2.02-.26,2.95-.64.84-.34,1.6-.88,2.32-1.44.93-.73,1.7-1.65,2.56-2.48" style="fill:none; stroke:#55a; stroke-linecap:round; stroke-linejoin:round; stroke-width:2px;"/><path id="uuid-dde957b6-beb0-46c1-ae04-e825d838b6b7" d="m157.99,155.69c.4.61.92,1.27,1.6,1.6.58.28,1.29.4,1.92.24.83-.21,1.5-.88,2.08-1.52.52-.57.8-1.33,1.2-2" style="fill:none; stroke:#55a; stroke-linecap:round; stroke-linejoin:round; stroke-width:2px;"/></g><g id="uuid-cdeefdc0-d4ab-4857-a681-13f00690a97d"><path id="uuid-eb2f0fbb-0122-4c31-aa04-e3ce52454c3e" d="m207.33,65.23c6,.93,12.02,1.53,18.01,2.8,4.97,1.05,9.93,2.4,14.86,4,3.23,1.05,6.4,2.43,9.6,3.65.5,4.29,1.03,8.57,1.5,12.86.53,4.83.95,9.66,1.5,14.48.41,3.62.66,7.26,1.35,10.85.41,2.15,1.1,4.25,1.65,6.37.75.22,1.5.44,2.25.67.75-.8,1.24-2.16,2.25-2.41,1.36-.33,2.95.48,4.2,1.47,1.8,1.43,3.12,3.74,4.2,5.99,1.04,2.17,1.9,4.57,2.1,6.97.13,1.54-.09,3.11-.6,4.44-.39,1.01-.93,2.08-1.8,2.47-.86.38-1.9-.26-2.85-.39-.5.78-.84,1.76-1.5,2.33-1.02.88-2.4,1-3.6,1.5-.65.82-1.05,2.07-1.95,2.45-.77.32-1.7-.23-2.55-.35-.75.74-1.3,1.9-2.25,2.23-.79.27-1.7-.23-2.55-.35-.85,1.09-1.35,2.81-2.55,3.27-.87.34-1.9-.38-2.85-.57-.75.98-1.19,2.49-2.25,2.95-.86.37-1.9-.26-2.85-.39-.95.84-1.79,1.87-2.85,2.51-1.2.73-2.53,1.25-3.9,1.46-1.41.22-2.92.27-4.35-.23-1.57-.55-3.06-1.65-4.35-2.94-1.44-1.44-2.62-3.28-3.6-5.19-1.34-2.61-2.26-5.49-3-8.36-1.34-5.21-1.78-10.59-2.55-15.89-1.01-6.92-1.72-13.87-2.7-20.79-.97-6.9-2.06-13.79-3.15-20.67-.91-5.74-1.9-11.46-2.85-17.2h0Z" style="fill:#ff5;"/><g id="uuid-286a6dbe-5ebd-4d6f-ae5a-1e992ab41b87"><path id="uuid-2a19303a-4ef4-4ec2-b5de-61a42b0762c1" d="m207.54,66.16s2.94,17.41,4.24,26.14c1.55,10.41,2.49,20.86,4.24,31.25,1.19,7.04,1.37,14.52,4.24,21.03,1.97,4.46,4.62,9.61,8.49,11.37,3.75,1.71,8.65.97,11.24-2.17,2.17-2.64,2.62-7.61,1.49-11.45-1.22-4.17-4.51-9.14-8.05-9.46-3.69-.34-7.78,3.93-7.83,8.37-.04,3.99,3.53,8.9,6.84,9.62,2.05.44,4.53-1.58,4.8-3.99.31-2.81-1.85-7.24-4.24-7.54-1.44-.18-3.42,1.57-2.49,3.9" style="fill:none; stroke:#55a; stroke-linecap:round; stroke-linejoin:round; stroke-width:2.15px;"/><path id="uuid-b274e76f-0bbe-4f64-81b1-62670289e4d7" d="m212.49,65.98c2.49,9.51,3.13,18.91,4.47,28.39,1.33,9.41,1.72,18.91,3.52,28.27,1.43,7.43,3.04,15.36,5.75,22" style="fill:none; stroke:#55a; stroke-linecap:round; stroke-linejoin:round; stroke-width:2.15px;"/><path id="uuid-41475953-78f6-4459-b003-623cb6edece5" d="m218.16,66.74c1.9,8.25,2.47,16.74,3.52,25.14,1.02,8.18,1.39,16.43,2.68,24.56.94,5.92,1.62,11.82,3.69,17.55" style="fill:none; stroke:#55a; stroke-linecap:round; stroke-linejoin:round; stroke-width:2.15px;"/><path id="uuid-a7c1d217-a255-4ac3-97b9-e901851a5231" d="m223.21,67.82c1.69,7.87,2.2,15.98,3.13,24,.91,7.81,1.23,15.69,2.38,23.45.84,5.65,1.44,11.28,3.28,16.75" style="fill:none; stroke:#55a; stroke-linecap:round; stroke-linejoin:round; stroke-width:2.15px;"/><path id="uuid-10a3ae15-df06-4af9-98b1-e78e6c0241f2" d="m228.16,69.15c1.52,7.46,1.98,15.16,2.82,22.76.81,7.41,1.11,14.89,2.15,22.26.75,5.36,1.3,10.7,2.95,15.88" style="fill:none; stroke:#55a; stroke-linecap:round; stroke-linejoin:round; stroke-width:2.15px;"/><path id="uuid-bf65f4f9-1f1d-4d51-b7fc-1e3b9506add9" d="m232.99,70.33c1.52,7.1,1.98,14.44,2.82,21.68.81,7.05,1.11,14.17,2.15,21.19.75,5.1,1.3,10.19,2.95,15.13" style="fill:none; stroke:#55a; stroke-linecap:round; stroke-linejoin:round; stroke-width:2.15px;"/><path id="uuid-4cb6584a-5344-4ff0-b4af-10b0b4e1d9b6" d="m238.42,72.01c1.48,6.62,1.81,13.07,2.59,19.62.78,6.57,1.08,13.19,2.09,19.72.73,4.75,1.26,9.49,2.87,14.09" style="fill:none; stroke:#55a; stroke-linecap:round; stroke-linejoin:round; stroke-width:2.15px;"/><path id="uuid-2ece5b17-d529-4db8-8add-2c1b8437ff1a" d="m243.65,73.63c1.39,6.06,1.81,12.3,2.58,18.47.75,6.01,1.02,12.07,1.97,18.05.69,4.35,1.19,8.69,2.7,12.9" style="fill:none; stroke:#55a; stroke-linecap:round; stroke-linejoin:round; stroke-width:2.15px;"/><path id="uuid-4d0eda87-d060-4cb4-8c04-4ba1d0cc47b3" d="m248.91,74.62c1.18,5.42,2.08,11.85,2.87,17.81.71,5.37.86,10.81,1.67,16.17.59,3.89,1.01,7.78,2.29,11.54" style="fill:none; stroke:#55a; stroke-linecap:round; stroke-linejoin:round; stroke-width:2.15px;"/><path id="uuid-65a7b78b-6b3b-4b2f-ba88-71b8bf736818" d="m233.13,132.45c1.37-.95,2.38-2.05,3.8-1.92,3.02.28,5.44,2.82,7.22,5.55,1.88,2.9,3.03,6.81,2.83,10.26-.14,2.47-1.15,5.03-2.8,6.31-.83.64-1.71.34-3.05.29" style="fill:none; stroke:#55a; stroke-linecap:round; stroke-linejoin:round; stroke-width:2.15px;"/><path id="uuid-1f963eeb-5b15-4695-8074-66e53398c4d5" d="m238.13,130.61c1.15-1.38,2.02-2.44,3.39-2.35,2.71.17,5.44,2.82,7.22,5.55,1.88,2.9,3.03,6.81,2.83,10.26-.14,2.47-.85,5.09-2.8,6.31-.67.42-1.04.9-2.39-.08" style="fill:none; stroke:#55a; stroke-linecap:round; stroke-linejoin:round; stroke-width:2.15px;"/><path id="uuid-90c84e45-6c16-4cc4-9552-d549936f8e97" d="m242.31,128.13c1.37-.95,2.59-2.78,4.27-2.63,2.72.25,5.44,2.82,7.22,5.55,1.88,2.9,3.03,6.81,2.83,10.26-.14,2.47-1.05,5.21-2.8,6.31-.77.48-1.38.42-2.73-.29" style="fill:none; stroke:#55a; stroke-linecap:round; stroke-linejoin:round; stroke-width:2.15px;"/><path id="uuid-0178ba72-d179-4bdd-98db-e55ced6bb859" d="m248.02,125.46c1.04-1.66,2.1-2.44,3.5-2.34,2.71.2,5.44,2.82,7.22,5.55,1.88,2.9,3.03,6.81,2.83,10.26-.14,2.47-1.12,5.08-2.8,6.31-.78.56-1.38.69-2.84.09" style="fill:none; stroke:#55a; stroke-linecap:round; stroke-linejoin:round; stroke-width:2.15px;"/><path id="uuid-ee7c3503-dd89-46f2-98bd-3bd72fa0ed60" d="m252.86,122.67c.5-1.46,1.88-2.33,3.17-2.25,2.71.16,5.44,2.82,7.22,5.55,1.88,2.9,3.03,6.81,2.83,10.26-.14,2.47-1.11,5.09-2.8,6.31-.64.46-1,.11-2.35.06" style="fill:none; stroke:#55a; stroke-linecap:round; stroke-linejoin:round; stroke-width:2.15px;"/><path id="uuid-bbaf180b-dac1-48a7-b2ed-94977adb89e9" d="m257.91,120.71c.5-1.73,1.51-2.21,2.62-2.19,2.7.05,5.44,2.82,7.22,5.55,1.88,2.9,2.91,6.79,2.83,10.26-.04,1.83-.57,3.81-1.7,4.87-.9.84-2.15.72-3.49.66" style="fill:none; stroke:#55a; stroke-linecap:round; stroke-linejoin:round; stroke-width:2.15px;"/></g></g><g id="uuid-47177ed9-bd1f-4947-ba3b-eb41944187cd"><path id="uuid-71541858-baa5-4c2a-b482-c585dcf498ae" d="m111.97,29.5l32.53,40s9.17-2.9,13.88-3.78c6.95-1.3,14.02-2.07,21.09-2.22,11.09-.24,22.25.4,33.22,2.06,12.49,1.89,36.81,8.94,36.81,8.94l28.96-45H111.97Z" style="fill:#f55; stroke:#55a; stroke-linecap:round; stroke-linejoin:round; stroke-width:2px;"/><path id="uuid-307fb755-804f-4c7c-a39a-ae0f8785f631" d="m128.65,30.98l18.65,27.14c7.3-2.25,11.53-1.8,20.83-2.72l-4.65-24.42h-6.44l5.76,20.88c-5.34.33-7.74.28-13.14,1.12l-13.6-22h-7.4Z" style="fill:#fff; stroke:#fff; stroke-linecap:round; stroke-linejoin:round; stroke-width:2px;"/><path id="uuid-83609a2c-3d05-4647-ae04-16aec8a0798a" d="m173.49,30.98l4.48,23.71c11.34-.94,19.89-.96,31.23.04l5.64-23.75h-7.27l-3.43,19.28c-8.91-.47-13.6-.52-21.08-.04l-3.03-19.24h-6.55Z" style="fill:#fff; stroke:#fff; stroke-linecap:round; stroke-linejoin:round; stroke-width:2px;"/><path id="uuid-2aa5e804-45eb-4b5a-8679-9f3bd6ad91ba" d="m225.87,30.98l-8.23,25.05c8.27.61,19.52,5,28.53,6.9l16.23-31.95h-7.13l-12.21,24.57c-5.03-1.22-12.98-2.81-18.01-3.43l6.99-21.15h-6.17Z" style="fill:#fff; stroke:#fff; stroke-linecap:round; stroke-linejoin:round; stroke-width:2px;"/></g><path id="uuid-2f9474e6-759e-4f65-8c12-8d82f0fc8433" d="m59.5,29.5h270v360h0" style="fill:none; stroke:#55a; stroke-width:2px;"/><g id="uuid-bf710364-bb20-449f-ad7e-ed5014f03677"><path id="uuid-d6684b44-e0e7-4b39-9a44-646575bbc7a9" d="m157.15,93.79c.4.44.2,1.26-.09,1.77-.32.54-.96,1.01-1.59,1.03-.61,0-1.27-.41-1.59-.93-.35-.59-.58-1.57-.09-2.05.8-.79,2.61-.65,3.36.19h0Z" style="fill:#55a; stroke:#55a; stroke-linecap:round; stroke-linejoin:round; stroke-width:1.82px;"/><path id="uuid-71710d9d-3d0d-4a25-8cae-b24452395691" d="m207.4,82.46c-4.75-1.14-9.37-2.78-14.26-3.42-3.16-.41-6.52-1.1-9.6-.23-1.93.55-5.27,2.52-5.05,3.29.11.39.9.37,1.37.34,2.18-.12,4-1.88,6.15-2.26,2.61-.47,5.32-.22,7.95,0,4.55.38,8.96,1.52,13.44,2.28h0Z" style="fill:#55a; stroke:#55a; stroke-linecap:round; stroke-linejoin:round; stroke-width:1.82px;"/><path id="uuid-c4220abd-fd08-4391-8e58-2fd3f7873e2b" d="m181.73,91.52c-.55-.49-3.03-.73-2.58-1.29.58-.74,3.93-3.3,6.29-4.21,2.19-.85,4.61-1,6.97-1.05,2.5-.05,5.07.03,7.45.79,2.88.92,6.01,3.81,7.89,4.47" style="fill:none; stroke:#55a; stroke-linecap:round; stroke-linejoin:round; stroke-width:1.82px;"/><path id="uuid-5a975750-2895-4763-ae9e-a7ea91ae8817" d="m210,96.64c-4.02-.89-7.76-4.73-12.07-5.67-2.87-.62-5.88-.33-8.78.12-1.75.27-3.49.79-5.11,1.56-.97.46-1.7.69-2.7,1.78,1.97.77,2.15,3.46,3.83,4.31,3.07,1.54,6.77.97,10.15.73,2.67-.19,5.22-1.2,7.85-1.7,2.26-.43,4.67.06,6.82-1.12h0Z" style="fill:none; stroke:#55a; stroke-linecap:round; stroke-linejoin:round; stroke-width:1.82px;"/><path id="uuid-adc873fc-c82a-471e-946b-f7d53e7c33b1" d="m199.85,92.54c-.09,1.18.41,2.5-.27,3.53-.82,1.24-2.5,2.07-4.11,2.5-1.26.34-2.73.38-3.98,0-1.19-.36-2.23-1.15-2.88-2.05-.89-1.23-.73-2.81-1.1-4.21" style="fill:none; stroke:#55a; stroke-linecap:round; stroke-linejoin:round; stroke-width:1.82px;"/><path id="uuid-7fbd0461-47b3-4ac4-a802-74c2cee3d6bd" d="m195.3,92.57c.4.44.2,1.26-.09,1.77-.32.54-.96,1.01-1.59,1.03-.61,0-1.27-.41-1.59-.93-.35-.59-.58-1.57-.09-2.05.8-.79,2.61-.65,3.36.19h0Z" style="fill:#55a; stroke:#55a; stroke-linecap:round; stroke-linejoin:round; stroke-width:1.82px;"/><path id="uuid-fe4b6226-0fb6-4d7c-89c7-c836f7b258e8" d="m195.95,107.12c-2.88-.46-5.96-2.21-8.46-4.11-2.35-1.79-4.31-4.57-5.84-6.65" style="fill:none; stroke:#55a; stroke-linecap:round; stroke-linejoin:round; stroke-width:1.82px;"/><path id="uuid-18edc59a-48a2-4792-8ea4-9c4103feac6f" d="m164.99,84.51c.73,1.48,1.84,2.87,2.19,4.44.72,3.21.2,6.55-.27,9.79-.59,4.01-2.2,7.87-3.15,11.84-.61,2.55-2.99,5.43-1.66,7.7.78,1.32,3,.72,4.4,1.34,1.83.82,3.68,2.38,5.14,3.1" style="fill:none; stroke:#55a; stroke-linecap:round; stroke-linejoin:round; stroke-width:1.82px;"/><path id="uuid-28445d53-9768-49f7-a2b7-1b61d4a939ce" d="m182.16,109.89c1.87,1.71,4.62,2.97,5.62,5.12.48,1.03.56,2.3,0,3.3-.66,1.17-2.05,2.22-3.57,2.5-1.24.24-2.57-.31-3.7-.8-1.44-.62-2.24-2.03-3.7-2.62-1.05-.42-2.34-.92-3.43-.57-.37.12-.8.48-.69.8.37,1.01,2.37.77,3.57,1.14,1.55.47,3.11.91,4.66,1.37" style="fill:none; stroke:#55a; stroke-linecap:round; stroke-linejoin:round; stroke-width:1.82px;"/><path id="uuid-7275d0ac-83f0-4fd9-97fd-8f3ca0d3b7a7" d="m188.81,130.96c-1.93-.8-4.64-.63-6.97-.59-2.38.05-4.68.97-7.05.88-2.71-.1-5.19-1.59-7.9-1.61-1.99-.02-4.26.72-5.82,1.09.13.56.32,1.3,0,1.74,2-.62,4.81-1.5,7.27-1.25,2.31.23,3.98,2.45,6.31,2.5,2.72.06,4.82-2.52,7.54-2.6,2.6-.08,5.38,1.64,7.41,2.03-.54-.67-.81-1.73-.78-2.19h0Z" style="fill:#55a; stroke:#55a; stroke-linecap:round; stroke-linejoin:round; stroke-width:1.82px;"/><path id="uuid-3c00282f-2023-415b-991e-43487464f46f" d="m182.74,137.18c-1.92.68-3.71,1.7-5.75,2.05-1.52.25-3.13.2-4.65-.03-1.04-.16-2-.57-2.97-.91-.9-.31-1.77-.69-2.66-1.04" style="fill:none; stroke:#55a; stroke-linecap:round; stroke-linejoin:round; stroke-width:1.82px;"/><path id="uuid-c7ee1471-4751-4872-8700-47859a76c210" d="m169.99,144.62c1.4-.47,2.72-.92,4.15-.91,1.19,0,2.31.38,3.44.81" style="fill:none; stroke:#55a; stroke-linecap:round; stroke-linejoin:round; stroke-width:1.82px;"/><path id="uuid-1bfaa01d-8ee6-4686-9ca1-402f8769d196" d="m164.73,82.13c-1.9-1.85-6.06-2.31-9.31-2.52-2.37-.15-4.76.27-7.03.95-1.28.38-2.1,1.16-3.62,1.73,2.6-.42,4.53-1.18,6.85-1.26,2.36-.08,4.73.35,7.03.79,1.62.31,3.13.93,4.56,1.58.63.28,1.99-.81,1.52-1.26h0Z" style="fill:#55a; stroke:#55a; stroke-linecap:round; stroke-linejoin:round; stroke-width:1.82px;"/><path id="uuid-68aa31ae-c3be-4601-ab15-88c843bdfe54" d="m165.4,90.25c-1.86-.76-3.47-2.9-5.57-3.59-2.8-.92-5.91-.98-8.81-.55-1.92.28-3.55,1.33-5.32,2" style="fill:none; stroke:#55a; stroke-linecap:round; stroke-linejoin:round; stroke-width:1.82px;"/><path id="uuid-150a2bd4-c89d-4385-809a-68c41a6acbd4" d="m165.14,93.25c-2.05-.75-3.57-.98-5.4-1.18-2.7-.31-5.46-.41-8.15-.08-1.6.2-3.27.47-4.66,1.22-.88.47-1.44,1.32-2.16,1.98.14,1.01.28,2.03.42,3.04,1.44.46,2.83,1.11,4.32,1.37,2.04.35,4.16.35,6.24.23,2.21-.12,4.46-.27,6.57-.99,1.14-.39,2.28-.93,3.2-1.76.65-.58,1.15-1.8,1.54-2.18-.36-.66-1.6-1.3-1.92-1.65h0Z" style="fill:none; stroke:#55a; stroke-linecap:round; stroke-linejoin:round; stroke-width:1.82px;"/><path id="uuid-fffaeb2e-1d9b-4f6f-aba5-3da96ffeaad1" d="m161.34,93.51c-.09,1.18.41,2.5-.27,3.53-.82,1.24-2.5,2.07-4.11,2.5-1.26.34-2.73.38-3.98,0-1.19-.36-2.23-1.15-2.88-2.05-.89-1.23-.73-2.81-1.1-4.21" style="fill:none; stroke:#55a; stroke-linecap:round; stroke-linejoin:round; stroke-width:1.82px;"/><path id="uuid-09451fb3-f5ff-4140-ba2c-5e59863e638a" d="m165.68,99.67c-1.53,1.4-2.79,3.03-4.59,4.2-1.44.93-3.21,1.43-4.82,2.15" style="fill:none; stroke:#55a; stroke-linecap:round; stroke-linejoin:round; stroke-width:1.82px;"/></g><path id="uuid-50bc427e-c1d9-42a9-9779-acccee516834" d="m143.91,70.33c.08,6.74,0,13.49.24,20.22.24,6.59.4,13.2,1.19,19.75.79,6.56,1.55,13.21,3.57,19.51,1.76,5.51,3.96,11.04,7.38,15.7,2.55,3.49,5.74,6.71,9.52,8.8,3.16,1.75,6.86,2.62,10.47,2.85,4.15.28,8.35-.59,12.37-1.67,4.47-1.19,8.71-3.17,12.85-5.23,3.31-1.65,6.36-3.78,9.52-5.71,2.55-1.56,5.08-3.17,7.61-4.76" style="fill:none; stroke:#55a; stroke-linecap:round; stroke-linejoin:round; stroke-width:2px;"/><path id="uuid-2e4f7397-3f28-4ecf-a14d-53b2bbb17d5e" d="m110.34,147.41c-18.86,9.05-37.74,18.17-55.68,24.93l-.35,46.49s12.96-11.55,18.92-17.85c5.28-5.6,10.26-11.5,14.85-17.68,3.66-4.92,6.83-10.18,10.08-15.38,4.21-6.75,12.2-20.51,12.2-20.51h0Z" style="stroke:#55a; stroke-linecap:round; stroke-linejoin:round; stroke-width:2px;"/><path id="uuid-21bc6f94-c5d7-490d-b4d3-449107f907a9" d="m54,218.25c.08,6.5.17,13,.25,19.5,5.17-4.17,10.44-8.2,15.5-12.5,5.62-4.78,11.47-9.35,16.5-14.75,4.74-5.09,8.68-10.87,12.75-16.5,4.36-6.03,8.44-12.26,12.5-18.5,3.17-4.86,6.17-9.83,9.25-14.75-3.67-4.17-7.33-8.33-11-12.5-3.08,5.33-6.03,10.75-9.25,16-3.52,5.76-7.05,11.53-11,17-4.13,5.72-8.57,11.22-13.25,16.5-3.16,3.57-6.5,7.01-10,10.25-3.91,3.62-8.17,6.83-12.25,10.25Z" style="fill:#55a; stroke:#55a; stroke-linecap:round; stroke-linejoin:round; stroke-width:2px;"/><path id="uuid-9703ab5a-fcba-47d0-9071-ed32cc0f6db9" d="m107.28,156.25c-1.01-.29-1.55,1.64-1.66,2.69-.31,3.16,5.32,6.43,3.34,8.91-1.62,2.02-5.27-1.99-7.69-1.06-1.06.41-1.97,1.48-2.19,2.59-.66,3.39,5.48,7.23,3.22,9.84-1.82,2.1-5.58-2.31-8.22-1.44-1.05.35-1.99,1.34-2.28,2.41-.96,3.48,4.84,7.96,2.34,10.56-1.95,2.03-5.63-2.33-8.31-1.47-1.05.34-2,1.31-2.31,2.38-.98,3.36,4.59,7.8,2.12,10.28-2.28,2.29-6.39-2.79-9.5-1.91-1.04.3-2.01,1.2-2.38,2.22-1.18,3.28,4.08,8.26,1.31,10.38-2.24,1.72-5.03-3.47-7.84-3.22-1.08.1-2.2.81-2.75,1.75-1.89,3.25,2.79,9.57-.56,11.28-1.98,1.01-3.41-3.22-5.59-3.62-.93-.17-2.27-.2-2.78.59s.06,2,.59,2.78c1.92,2.78,5.13,5.33,8.5,5.5,1.16.06,2.47-.62,3.09-1.59,2.16-3.35-2.77-9.8.59-11.94,2.55-1.62,5.41,3.84,8.41,3.44,1.13-.15,2.28-1.04,2.72-2.09,1.42-3.41-4.11-8.48-1.41-11,2.43-2.27,6.6,2.93,9.78,1.97,1.07-.32,2.05-1.3,2.38-2.38,1.01-3.38-4.61-7.81-2.16-10.34,1.97-2.03,5.66,2.35,8.34,1.47,1.05-.35,1.99-1.34,2.28-2.41.97-3.49-4.84-7.98-2.34-10.59,2-2.09,5.83,2.47,8.56,1.5,1.08-.38,2.02-1.47,2.25-2.59.69-3.43-5.49-7.29-3.25-9.97,1.68-2.02,5.37,2.03,7.81,1.06,1.06-.42,1.97-1.53,2.16-2.66.5-3.05-5.24-6.32-3.25-8.69,1.26-1.49,3.84,1.49,5.75,1.09.93-.19,2.17-.67,2.34-1.59.18-.93-.8-1.83-1.59-2.34-2.62-1.72-6.13-1.38-9.25-1.75-.2-.02-.46.11-.59-.03,0,0,0,0,0,0Z" style="fill:#fff;"/><path id="uuid-b8fcf6b2-9500-4979-a890-9bb3ec94efbc" d="m132.77,245.78c.24-3.64-.26-5.78-.02-9.42,6.23-8.09,11.28-19.37,17.51-27.46,1.69-6.07,11.22-17.36,13.85-19.28,1.85.37,3.53,1.1,2.9,3.34-.63,2.24-2.72,5.97-7.08,11.63-1.86,2.18-5.44,10.11-8.47,14.98-2.96,4.74-6.22,9.29-9.47,13.84-2.99,4.19-6.15,8.25-9.22,12.38h0Z" style="fill:#ff5; stroke:#55a; stroke-linecap:round; stroke-linejoin:round; stroke-width:2px;"/><path id="uuid-ef093e3c-4e37-4f2f-97b9-1fcf13c594e6" d="m164.82,192.28l-1.33-10.22,5.45-3.04,2.21,6.07-6.33,7.19Z" style="fill:#ff5; stroke:#55a; stroke-linecap:round; stroke-linejoin:round; stroke-width:2px;"/><path id="uuid-527cea5c-bfeb-4e5d-a02c-7fd4d061a754" d="m164.32,209.16s-2.41,10.15-5.1,14.53c-2.69,4.39-7.36,7.23-10.68,11.17-2.01,2.39-4.44,4.62-5.58,7.53-1.1,2.8-.04,6.12-.97,8.98-.75,2.31-3.64,6.31-3.64,6.31l-5.83-5.1.49-6.8s6.39-7.26,9.22-11.17c2.31-3.18,4.14-6.68,6.31-9.95,1.41-2.13,2.99-4.15,4.37-6.31,4.46-6.99,12.56-21.47,12.56-21.47l4.48-2.89-5.63,15.17Z" style="fill:#f55; stroke:#55a; stroke-linecap:round; stroke-linejoin:round; stroke-width:2px;"/><path id="uuid-a521c193-3700-4947-84ef-0bf13a616326" d="m132.04,170.52l.48,80.78" style="fill:#f55; stroke:#55a; stroke-linecap:round; stroke-linejoin:round; stroke-width:2px;"/><path id="uuid-ca9e1d77-5b1e-437a-9e61-fdf720b85b8b" d="m215.55,179.26l-72.82,71.85" style="fill:#f55; stroke:#55a; stroke-linecap:round; stroke-linejoin:round; stroke-width:2px;"/><path id="uuid-652a16db-9130-4e9c-9dd0-d8ab60c67a95" d="m133.01,178.29l4.37-3.88" style="fill:#f55; stroke:#55a; stroke-linecap:round; stroke-linejoin:round; stroke-width:2px;"/><path id="uuid-fa937524-e04b-4f06-9697-972ec0c81a8b" d="m132.77,185.57l10.68-8.5" style="fill:#f55; stroke:#55a; stroke-linecap:round; stroke-linejoin:round; stroke-width:2px;"/><path id="uuid-334de919-271f-4ad5-a3c1-87fa24de3a49" d="m132.77,191.89l17.24-12.38" style="fill:#f55; stroke:#55a; stroke-linecap:round; stroke-linejoin:round; stroke-width:2px;"/><path id="uuid-86a753a5-81de-4bc0-a79c-2ffd9eafc8eb" d="m133.25,198.68l23.55-17.48" style="fill:#f55; stroke:#55a; stroke-linecap:round; stroke-linejoin:round; stroke-width:2px;"/><path id="uuid-2cec8a4d-b1c7-42e4-b7b7-2bf436ba8b9c" d="m133.5,206.21l24.92-19.59" style="fill:#f55; stroke:#55a; stroke-linecap:round; stroke-linejoin:round; stroke-width:2px;"/><path id="uuid-c7e1939d-608a-47f0-8e7a-1b9c000f31cd" d="m133.25,213.49l24.2-21.04" style="fill:#f55; stroke:#55a; stroke-linecap:round; stroke-linejoin:round; stroke-width:2px;"/><path id="uuid-dbe33706-7854-4561-ba08-6f07814b6ce2" d="m133.74,219.56l19.63-16.95" style="fill:#f55; stroke:#55a; stroke-linecap:round; stroke-linejoin:round; stroke-width:2px;"/><path id="uuid-753affdd-996c-443f-be77-4a3d146da25f" d="m133.98,225.63l11.4-10.16" style="fill:#f55; stroke:#55a; stroke-linecap:round; stroke-linejoin:round; stroke-width:2px;"/><path id="uuid-f0950b6c-fd0b-4826-a926-3bcf0dcc94e6" d="m146.36,239.22l.73,6.55" style="fill:#f55; stroke:#55a; stroke-linecap:round; stroke-linejoin:round; stroke-width:2px;"/><path id="uuid-bc1d0163-66fc-44c3-8abc-c510703a27b6" d="m150.73,233.15l.49,8.25" style="fill:#f55; stroke:#55a; stroke-linecap:round; stroke-linejoin:round; stroke-width:2px;"/><path id="uuid-af127b4e-ca62-4abc-b18e-f0dc677fc3f7" d="m155.83,227.81l.97,8.74" style="fill:#f55; stroke:#55a; stroke-linecap:round; stroke-linejoin:round; stroke-width:2px;"/><path id="uuid-2aeb111e-8034-47ab-9adf-7643d7e3e308" d="m161.17,222.23l1.21,7.53" style="fill:#f55; stroke:#55a; stroke-linecap:round; stroke-linejoin:round; stroke-width:2px;"/><path id="uuid-047fd9d5-dd43-44ac-ad4b-9ebbe3ec4e49" d="m164.58,211.56l2.42,14.79" style="fill:#f55; stroke:#55a; stroke-linecap:round; stroke-linejoin:round; stroke-width:2px;"/><path id="uuid-63769003-270c-42b6-930b-06d3883c5671" d="m167.27,201.66l4.83,20.31" style="fill:#f55; stroke:#55a; stroke-linecap:round; stroke-linejoin:round; stroke-width:2px;"/><path id="uuid-164892a5-fd0f-4aa3-9f3b-8d1cc3f93d2e" d="m171.15,191.97l5.56,24.66" style="fill:#f55; stroke:#55a; stroke-linecap:round; stroke-linejoin:round; stroke-width:2px;"/><path id="uuid-18cf755a-479a-4122-9946-b8c88822361a" d="m175.73,185.57l4.85,26.7" style="fill:#f55; stroke:#55a; stroke-linecap:round; stroke-linejoin:round; stroke-width:2px;"/><path id="uuid-e6fda408-9800-438a-8b91-4210e888ddcc" d="m182.05,185.57l3.64,20.88" style="fill:#f55; stroke:#55a; stroke-linecap:round; stroke-linejoin:round; stroke-width:2px;"/><path id="uuid-61537c11-c786-4579-a075-2b5fb6eea3b9" d="m187.14,185.33l3.4,16.26" style="fill:#f55; stroke:#55a; stroke-linecap:round; stroke-linejoin:round; stroke-width:2px;"/><path id="uuid-06670b9d-fb25-4d8b-bcf9-923da4aacc15" d="m192.73,185.09l2.91,12.38" style="fill:#f55; stroke:#55a; stroke-linecap:round; stroke-linejoin:round; stroke-width:2px;"/><path id="uuid-7ab5eee5-fad6-4708-88af-81d16fbfa5a9" d="m198.8,183.63l1.93,9.73" style="fill:#f55; stroke:#55a; stroke-linecap:round; stroke-linejoin:round; stroke-width:2px;"/><path id="uuid-97586f4a-f709-4e3f-a1f5-844df8403e42" d="m202.92,182.9l1.21,5.83" style="fill:#f55; stroke:#55a; stroke-linecap:round; stroke-linejoin:round; stroke-width:2px;"/><path id="uuid-9e511a30-925c-4617-80c2-bfaa9ad9082d" d="m208.02,181.45l.72,4.13" style="fill:#f55; stroke:#55a; stroke-linecap:round; stroke-linejoin:round; stroke-width:2px;"/><path id="uuid-afd060e1-8254-4f59-8a58-55cd508e1c42" d="m303.33,182.65c-1.14-1.84,2.08-5.63,2.09-8.58.02-3.76-2.9-7.23-2.57-10.97.2-2.29,1.98-4.16,2.72-6.33.58-1.73,1.76-3.54,1.33-5.32-.45-1.9-1.89-4.3-3.84-4.41-1.71-.09-2.74,2.13-3.79,3.49-2.43,3.16-4.3,6.81-5.56,10.6-1.36,4.11-2.07,5.82-2.04,8.84.03,3.77.26,5.92,2.74,10.98-.13,2.29-.69,4.59-.4,6.86.22,1.7.48,3.57,1.57,4.9,1.23,1.49,3.19,2.37,5.07,2.8,3.3.76,7.11.87,10.14-.52" style="fill:none; stroke:#55a; stroke-linecap:round; stroke-linejoin:round; stroke-width:2px;"/><path id="uuid-690eb9cf-5942-4895-bf6c-6ed4aba353c5" d="m296.73,154.84c.96.91,1.58,2.48,2.88,2.72.95.17,1.93-.49,2.67-1.12.85-.73,1.28-1.85,1.78-2.85.57-1.14.96-2.78,1.36-3.56" style="fill:none; stroke:#55a; stroke-linecap:round; stroke-linejoin:round; stroke-width:2px;"/><path id="uuid-077298f3-2ee7-4743-aa46-43ff29783956" d="m314.42,169.95c.18-.45.46-.87.55-1.34.13-.66.17-1.36,0-2.01-.24-.9-.63-1.87-1.38-2.41-.87-.64-2.1-.79-3.17-.67-1.16.13-2.33.67-3.17,1.48-.58.56-1.03,1.35-1.1,2.15-.06.65.12,1.38.55,1.88.63.73,1.68.99,2.62,1.21,1.66.39,3.4.23,5.1.13,2.14-.12,4.36-.13,6.37-.87,1.79-.66,3.46-1.76,4.82-3.08.82-.8,1.78-1.7,1.93-2.82.2-1.5-.17-3.41-1.52-4.29-.79-.52-1.96-.07-2.94.04-2.44.27-4.77,1.1-7.18,1.53-2.07.37-4.23.33-6.25.92-2.05.6-3.93,1.76-5.83,2.61" style="fill:none; stroke:#55a; stroke-linecap:round; stroke-linejoin:round; stroke-width:2px;"/><path id="uuid-e6961e21-54c5-48b6-b0b2-b9df7a750b29" d="m325.02,166.53c1,.94,2.42,1.5,3,2.82.41.93.47,2.15.13,3.11-.54,1.53-1.94,2.48-3.13,3.41-1.43,1.12-3.04,1.94-4.7,2.52-1.64.57-3.38.72-5.09.89-1.69.17-3.41.4-5.09.15-.77-.11-1.61-.21-2.22-.74-.53-.46-.97-1.18-1.04-1.93-.08-.78.26-1.58.65-2.22.61-.98,1.46-1.91,2.48-2.22.93-.29,1.96.09,2.87.44.81.32,1.75.67,2.22,1.48.36.62.32,1.48.26,2.22-.06.83-.44,1.58-.65,2.37" style="fill:none; stroke:#55a; stroke-linecap:round; stroke-linejoin:round; stroke-width:2px;"/><path id="uuid-6fa41a5c-d62d-4d94-8f67-229a895013ba" d="m325.93,176.17c.68,1.14,1.77,2.09,2.05,3.41.32,1.51.24,3.31-.55,4.6-.9,1.48-2.69,2.09-4.23,2.67-1.91.71-3.99.74-6.01.89-1.73.13-3.5.41-5.19,0-1.03-.25-2.09-.7-2.87-1.48-.61-.62-1.19-1.47-1.23-2.37-.04-.86.39-1.76.96-2.37.74-.8,1.84-1.16,2.87-1.33,1.04-.18,2.21-.23,3.14.3.69.39,1.2,1.15,1.5,1.93.34.87.45,1.89.27,2.82-.17.89-.82,1.58-1.23,2.37" style="fill:none; stroke:#55a; stroke-linecap:round; stroke-linejoin:round; stroke-width:2px;"/><path id="uuid-bb0c75a9-8568-4a3c-920c-ad90f9324e41" d="m324.81,186.7c.92.44,2.51.82,2.91,1.93.4,1.12-.4,2.4-1.02,3.41-.88,1.42-2.12,2.74-3.64,3.41-1.25.55-2.71.32-4.07.3-1.9-.03-3.84-.09-5.67-.59-1.38-.38-3.06-.62-3.93-1.78-.39-.52-.45-1.3-.29-1.93.28-1.09,1.09-2.09,2.04-2.67,1.22-.75,2.91-1.31,4.22-.74,1.19.51,1.84,1.99,2.18,3.26.21.76.16,1.64-.15,2.37-.31.74-1.07,1.19-1.6,1.78" style="fill:none; stroke:#55a; stroke-linecap:round; stroke-linejoin:round; stroke-width:2px;"/><path id="uuid-b559bc22-f371-4eb3-b646-ce271591acb2" d="m111.29,176.25l.71,63.15s-4.56-13.94-7.8-20.5c-3.02-6.12-10.78-17.4-10.78-17.4,0,0,6.3-8.01,9.24-12.16,3.02-4.26,8.62-13.09,8.62-13.09Z" style="fill:#f55; stroke:#55a; stroke-linecap:round; stroke-linejoin:round; stroke-width:2px;"/><path id="uuid-03b68c04-6f10-440f-8b1d-eb10756b5748" d="m328.5,51.05l-16.19,14.95.2,23.33s5.02,1.19,7.58,1.4c2.8.22,8.42-.2,8.42-.2v-39.47Z"/><path id="uuid-4a62edf8-e837-4853-aa40-4fa93c56fe55" d="m329.5,43.08l-23.18,20.13v25.72l5.78.8.4-23.72,16.99-14.16v-8.77Z" style="fill:#ff5; stroke:#55a; stroke-linecap:round; stroke-linejoin:round; stroke-width:2px;"/><path id="uuid-0ce00345-2f58-4e73-9868-78e02710bd7c" d="m329.5,90.73c-5.12-.2-11-.49-16.42-1.38-6.07-.99-12.11-2.38-17.92-4.4-5.87-2.05-11.46-4.86-16.95-7.78-3.85-2.04-7.44-4.52-11.16-6.78,2.46,5.38,4.19,11.16,7.38,16.15,3.91,6.12,8.44,12.08,14.15,16.55,5.85,4.58,12.9,7.59,19.94,9.97,5.06,1.71,10.45,2.29,15.75,2.99,1.73.23,3.57.27,5.23.4v-5.78c-3.92-.16-8.31-.54-12.36-1.45-5.49-1.22-10.9-2.96-16-5.33-3.81-1.77-7.52-3.9-10.77-6.58-2.56-2.11-4.67-4.74-6.69-7.37-1.41-1.83-3.01-3.47-3.75-5.83,2.59,1.2,5.78,2.99,8.77,4.27,3.49,1.5,7.04,2.89,10.68,3.99,3.51,1.05,7.1,1.81,10.7,2.47,3.22.59,6.46,1.03,9.72,1.35,3.22.31,6.5.26,9.69.53v-5.98Z" style="fill:#ff5; stroke:#55a; stroke-linecap:round; stroke-linejoin:round; stroke-width:2px;"/><path id="uuid-493448bb-fc0a-4b13-af6a-9f0976c68b26" d="m294.22,94.03c0,.83-.67,1.5-1.5,1.5s-1.5-.67-1.5-1.5.67-1.5,1.5-1.5,1.5.67,1.5,1.5Z" style="fill:#ff5;"/><path id="uuid-6e38cd28-de91-4f99-afd5-a3ff803ecd88" d="m302.92,97.55c0,1.38-1.12,2.5-2.5,2.5s-2.5-1.12-2.5-2.5,1.12-2.5,2.5-2.5,2.5,1.12,2.5,2.5Z" style="fill:#ff5;"/><path id="uuid-2735bf64-9688-4b70-90d4-4e97a93a470b" d="m314.23,100.91c0,1.93-1.57,3.5-3.5,3.5s-3.5-1.57-3.5-3.5,1.57-3.5,3.5-3.5,3.5,1.57,3.5,3.5Z" style="fill:#ff5;"/><path id="uuid-b8d1ea4d-d058-41ec-9928-a4bbfdc2322d" d="m326.42,103.21c0,2.49-2.01,4.5-4.5,4.5s-4.5-2.01-4.5-4.5,2.01-4.5,4.5-4.5,4.5,2.01,4.5,4.5Z" style="fill:#ff5;"/><path id="uuid-c6a35177-be78-49ad-8fcb-d3379d964ebf" d="m306.38,112.76v50.2l5.48-1.77v-46.49l-5.48-1.94Z" style="fill:#ff5; stroke:#55a; stroke-linecap:round; stroke-linejoin:round; stroke-width:2px;"/><path id="uuid-dfc543b1-06bc-4a6d-bcda-07fe07dbcb37" d="m306.03,196.73l4.77-1.94,2.3.88-.35,174.48,16.62,10.25.13,9.1-23.65-14.93.18-177.84Z" style="fill:#ff5; stroke:#55a; stroke-linecap:round; stroke-linejoin:round; stroke-width:2px;"/><path id="uuid-7a707da0-7c20-4e96-9004-5df9c40a9952" d="m293.66,185.95c-3.89,5.07-8.3,9.77-11.67,15.2-3.53,5.69-6.44,11.78-8.84,18.03-2.46,6.41-4.39,13.05-5.66,19.8-1.18,6.28-1.85,12.7-1.77,19.09.08,6.05,1.14,12.06,2.12,18.03.92,5.59,1.92,11.19,3.54,16.62,1.4,4.72,3.29,9.29,5.3,13.79,1.9,4.23,4.24,8.25,6.36,12.37,2.47-2.24,4.95-4.48,7.42-6.72-3.3-6.48-7.37-12.63-9.9-19.45-2.24-6.03-3.61-12.38-4.6-18.74-1.07-6.89-1.74-13.9-1.41-20.86.28-5.84,1.48-11.63,2.83-17.32,1.45-6.13,3.19-12.24,5.66-18.03,2.21-5.19,5.06-10.11,8.13-14.85,2.01-3.1,4.48-5.89,6.72-8.84-1.18-.94-2.79-1.51-3.54-2.83-.88-1.55-.47-3.54-.71-5.3Z" style="fill:#55a;"/><path id="uuid-f2bee6f4-8140-4841-bac5-c7abccb7b83b" d="m296.1,155.67c-1.48-1.14-4.95-2.27-6.43-3.41-3.52,4.09-7.07,8.15-10.56,12.26-2.29,2.71-4.6,5.4-6.81,8.17-2.57,3.23-5.12,6.49-7.49,9.88-2.17,3.1-4.24,6.26-6.13,9.54-1.86,3.21-3.49,6.54-5.11,9.88-1.68,3.48-3.35,6.97-4.77,10.56-1.55,3.91-3.05,7.85-4.09,11.92-1.17,4.58-1.84,9.27-2.38,13.96-.65,5.58-1.08,11.2-1.06,16.81.01,5.19.52,10.38,1.06,15.54.68,6.5,1.26,13.04,2.72,19.41,1.57,6.86,3.95,13.53,6.47,20.09,2.19,5.69,4.7,11.27,7.49,16.69,1.75,3.39,3.86,6.58,5.79,9.88,2.38-2.38,4.77-4.77,7.15-7.15-3.63-6.24-7.99-12.12-10.9-18.73-2.92-6.64-4.79-13.72-6.47-20.78-1.76-7.39-3.18-14.9-3.75-22.48-.52-7.02-.25-14.1.34-21.12.54-6.47,1.29-12.97,2.92-19.25,1.75-6.74,4.39-13.24,7.29-19.57,2.65-5.77,5.9-11.26,9.2-16.69,2.76-4.55,5.46-9.18,8.86-13.28,3.69-4.47,8.43-8.46,12.4-12.2.91-3.63,3.33-6.3,4.24-9.94h0Z" style="fill:#55a;"/><path id="uuid-2b98f355-fe59-496e-84e1-d399ac2161de" d="m270.19,139.49l26.08,16.62" style="fill:none; stroke:#55a; stroke-linecap:round; stroke-linejoin:round; stroke-width:2px;"/><path id="uuid-b960e600-f40a-4eef-bebf-59ea71e0ece0" d="m226.84,197.77l53.46-51.78,9.63,7.47s-10.5,10.75-15.17,16.62c-5.71,7.18-11.05,14.7-15.65,22.64-2.24,3.85-3.99,7.97-5.78,12.04-2.09,4.75-5.78,14.45-5.78,14.45l-20.71-21.43Z" style="fill:#55a; stroke:#55a; stroke-linecap:round; stroke-linejoin:round; stroke-width:2px;"/><path id="uuid-fa908ea4-78f6-4ba9-8136-d401b45d3a51" d="m275.88,150.97c-.95.37-1.64,1.42-1.88,2.41-.72,3.07,4.29,7.19,1.91,9.25-1.93,1.67-4.67-3.05-7.19-2.62-1.14.19-2.27,1.11-2.69,2.19-1.11,2.86,3.84,7.32,1.34,9.09-2.03,1.44-4.18-2.98-6.62-3.47-.7-.14-1.58-.25-2.15.19s-.69,1.31-.73,2.03c-.21,3.53,5.18,8.14,2.41,10.34-2.32,1.85-5.08-3.4-8-3.91-.7-.12-1.56-.2-2.11.24-.55.44-.66,1.3-.7,2.01-.21,3.9,5.71,9.01,2.62,11.41-2.86,2.22-6.1-4.3-9.66-4.97-.71-.13-1.59-.23-2.16.22s-.62,1.34-.69,2.06c-.51,5.54,7.33,14.12,2.31,16.53-4,1.93-4.88-8.46-9.16-9.69-.91-.26-2.27-.1-2.75.72s.2,1.96.72,2.75c3.57,5.45,9.13,10.15,15.34,12.09.7.22,1.62.31,2.2-.14.59-.44.7-1.35.74-2.08.24-5.8-8.94-13.22-4.41-16.84,2.78-2.23,6,4.22,9.5,4.91.7.14,1.58.25,2.15-.19s.69-1.31.73-2.03c.23-3.95-5.78-9.1-2.69-11.56,2.33-1.86,5.1,3.41,8.03,3.94.71.13,1.58.23,2.14-.22.56-.44.67-1.32.7-2.03.18-3.48-5.13-8.05-2.38-10.19,1.85-1.44,3.95,2.77,6.25,3.25.68.14,1.52.26,2.08-.14.57-.4.73-1.23.82-1.92.42-3.24-3.97-7.63-1.44-9.69,2.05-1.67,4.84,3.2,7.44,2.72,1.14-.21,2.25-1.18,2.62-2.28,1.01-2.99-4.29-7.21-1.91-9.28,2.33-2.02,5.61,3.2,8.69,3.12.98-.02,2.4-.21,2.73-1.14.33-.93-.64-1.97-1.38-2.61-3.22-2.8-7.9-3.28-12.03-4.34-.26-.07-.54-.22-.78-.12Z" style="fill:#fff;"/><path id="uuid-923e37d0-6abe-4219-81fa-26565dcf44ac" d="m166.27,191.37l5.21-5.09,1.93,7.52-5.69,6.07-1.45-8.5Z" style="fill:#f55; stroke:#55a; stroke-linecap:round; stroke-linejoin:round; stroke-width:2px;"/><path id="uuid-fc7db6a1-fc99-4508-bf16-eb1446872c79" d="m155.85,187.4l6.54-4.74,1.49,7.3-6.1,6.29-1.93-8.86Z" style="fill:#f55; stroke:#55a; stroke-linecap:round; stroke-linejoin:round; stroke-width:2px;"/><path id="uuid-93da0f85-5191-4104-9938-5de06f5901b8" d="m150,272.5l62-5.5s3.05,5.34,4.84,7.84c2.18,3.05,4.5,6.03,7.16,8.66,2.52,2.49,5.34,4.69,8.27,6.68,2.55,1.74,5.37,3.04,8.06,4.56,2.06,1.17,6.17,3.5,6.17,3.5,0,0-2.87-10.92-3.76-16.48-.8-5.03-1.11-10.12-1.41-15.2-.28-4.71-.55-9.43-.35-14.14.27-6.63.9-13.28,2.12-19.8.83-4.44,3.54-13.08,3.54-13.08l-19.86-21.27-76.77,74.24Z" style="stroke:#000; stroke-linecap:round; stroke-linejoin:round; stroke-width:2px;"/><path id="uuid-90fd1124-1d92-41ce-806f-922cb02ac992" d="m220.59,205.44l-4.06,4,8.44.06-1.56,1.47h-.62l-7.78.16-3.94,4,8-.09-2.31,2.16-6.72-.81-4.5,3.97,7.44.41-1.34,1.28-7.5.22-3.88,4,6.97-.09-1.25,1.19h-6.88l-4.03,4h6.62l-2.12,2-5.66-.62-4.44,3.97,9.38.59.36,13.7,4-3.97-.36-11.26,2.09-2,.16,11.41,4-4.06-.22-11.03,1.88-1.75.34,11.5,4-4.19-.5-10.94,1.53-1.44.34,10.88,4-4.19-.5-10.28,1.19-1.12.41,9.94,4-4.25-.62-9.25,2.5-2.34.28,10.56,3.97-4.16-.44-11.53-.06-1.91-1.91-.03-8.69-.13Z" style="fill:#ff5;"/><path id="uuid-d8748877-42ea-40fe-9f9b-e5f1e9049ca7" d="m234.52,220.94l-4.06,4,8.44.06-1.56,1.47h-.62l-7.78.16-3.94,4,8-.09-2.31,2.16-6.72-.81-4.5,3.97,7.44.41-1.34,1.28-7.5.22-3.88,4,6.97-.09-1.25,1.19h-6.88l-4.03,4h6.62l-2.12,2-5.66-.62-4.44,3.97,9.38.59.47,13.38,4-3.97-.47-10.94,2.09-2,.16,11.41,4-4.06-.22-11.03,1.88-1.75.34,11.5,4-4.19-.5-10.94,1.53-1.44.34,10.88,4-4.19-.5-10.28,1.19-1.12.41,9.94,4-4.25-.62-9.25,2.5-2.34.28,10.56,1.43-7.86,2.1-7.83-.06-1.91-1.91-.03-8.69-.13Z" style="fill:#ff5;"/><path id="uuid-2acb00a9-6e1d-47ab-a5a7-c2d454dd4561" d="m238.15,245.86l-4.5,3.97,5.96.41-.39,1.49h-6.97s-3.88,4.01-3.88,4.01l6.97-.09-1.25,1.19h-6.88l-4.03,4h6.62l-2.12,2-5.66-.62-4.44,3.97,9.38.59.47,13.38,4-3.97-.47-10.94,2.09-2,.16,11.41,4-4.06-.22-11.03,1.88-1.75.34,11.5,1.04-2.28-.08-11.68.47-9.13-2.49-.34Z" style="fill:#ff5;"/><path id="uuid-e679923a-4373-43ee-9c14-d6987e129491" d="m324.19,62.56c-.55-.01-1.04.43-1.47.78-2.92,2.42-5.79,5.32-7.12,8.88-.27.73-.3,1.59-.09,2.34.98,3.54,3.02,7.11,6.03,9.22.79.55,2.01,1.19,2.82.66.81-.53.71-1.9.52-2.85-.63-3.14-5.4-4.84-5.25-8.03.16-3.29,4.91-4.68,6.19-7.72.28-.67.58-1.52.26-2.17s-1.15-1.09-1.88-1.11h0Z" style="fill:#ff5;"/><path id="uuid-c231e997-4e2c-41e4-b44c-21827a5640ae" d="m317.22,118.31c-.94.6-1.46,1.92-1.41,3.03.24,4.61,7.48,7.3,7.09,11.91-.31,3.71-5.9,5.03-7.25,8.5-.3.77-.33,1.68-.09,2.47,1.11,3.64,3.48,7.23,6.72,9.22.8.49,2.03,1.01,2.8.45s.67-1.88.45-2.8c-.76-3.2-5.94-4.68-5.81-7.97.14-3.66,5.7-5,7.12-8.38.3-.71.39-1.56.22-2.31-1.12-4.97-4.07-9.67-7.81-13.12-.55-.51-1.3-.83-2.03-1h0Z" style="fill:#ff5;"/><path id="uuid-8c2b1776-f3b0-42d4-96e1-0a0c80fa52f5" d="m321.44,197.44c-.67.18-1.46.44-1.79,1.05-.33.61-.11,1.42.11,2.08.75,2.3,3.88,3.65,3.97,6.06.18,4.74-5.61,7.89-6.88,12.47-.16.58-.18,1.22-.06,1.81.93,4.51,6.21,7.9,5.91,12.5-.29,4.41-5.81,6.93-7.19,11.12-.21.63-.26,1.35-.12,2,1.15,5.52,7.72,9.42,7.72,15.06,0,5.11-5.76,8.67-7,13.62-.14.58-.16,1.2-.03,1.78,1.16,5.3,7.23,9.26,7.03,14.69-.17,4.69-5.73,7.7-6.97,12.22-.17.61-.18,1.29-.03,1.91,1.15,4.96,7.05,8.5,6.97,13.59-.07,4.78-5.7,7.94-6.94,12.56-.16.6-.18,1.27-.03,1.88,1.15,4.82,7.14,8.21,6.91,13.16-.2,4.13-5.41,6.48-6.78,10.38-.21.59-.28,1.25-.19,1.88.49,3.41,1.55,7.06,3.91,9.56.68.72,1.76,1.66,2.67,1.29s1.03-1.8,1.02-2.79c-.06-3.09-3.8-5.52-3.5-8.59.4-4.16,5.59-6.52,6.88-10.5.21-.64.24-1.37.09-2.03-1.08-4.87-7-8.26-6.94-13.25.06-4.77,5.7-7.92,6.94-12.53.16-.6.17-1.27.03-1.88-1.15-4.96-7.08-8.5-6.97-13.59.1-4.67,5.64-7.69,6.91-12.19.17-.59.19-1.24.06-1.84-1.11-5.32-7.08-9.29-7-14.72.07-5.12,5.8-8.71,7-13.69.14-.59.14-1.23,0-1.81-1.31-5.44-7.94-9.35-7.66-14.94.22-4.41,5.8-6.93,7.19-11.12.2-.61.25-1.3.12-1.94-.87-4.55-6.08-7.93-5.94-12.56.15-4.79,5.81-7.93,6.94-12.59.16-.67.14-1.41-.06-2.06-.85-2.69-2.57-5.16-4.62-7.09-.46-.43-1.04-.78-1.66-.94h0Z" style="fill:#ff5;"/><path id="uuid-07dd027c-7ac9-4cb1-b440-78a81c0abe51" d="m112,239.75c3.17,1.25,6.55,2.05,9.5,3.75,3.96,2.28,7.38,5.41,10.75,8.5,2.96,2.71,5.73,5.63,8.25,8.75,2.86,3.54,5.17,7.5,7.75,11.25" style="fill:none; stroke:#000; stroke-linecap:round; stroke-linejoin:round; stroke-width:2px;"/></g><g id="uuid-672d8c27-63a1-44d8-8bb8-b0f9d106d091"><path id="uuid-da34ded1-da39-4d41-920f-89741a38ef9b" d="m67.04,374.49c5.22-4.6,9.39-9.45,13.52-14.66,5.26-6.64,10.22-13.59,14.25-21.05,3.75-6.95,6.76-14.33,9.1-21.87,2.13-6.87,3.58-13.97,4.43-21.12.75-6.34.87-12.78.54-19.16-.27-5.35-1.35-10.62-2.08-15.92-.84-6.07-1.02-12.28-2.64-18.19-1.85-6.73-4.84-13.14-8.02-19.35-2.53-4.96-5.92-9-8.76-14.22-2.04,1.82-4.09,3.63-6.13,5.45,3.41,6.24,7.13,12.35,9.88,18.9,2.42,5.78,4.27,11.8,5.79,17.88,1.73,6.94,3.19,13.99,3.75,21.12.46,5.89.23,11.83-.34,17.71-.7,7.23-1.85,14.45-3.75,21.46-1.7,6.31-4.08,12.45-6.81,18.39-2.93,6.37-6.2,12.64-10.22,18.39-3.78,5.41-7.61,10.5-12.94,14.99.45,3.63.67,7.11.44,11.25h0Z" style="fill:#f55;"/><path id="uuid-9ea1a5e5-15ed-44c5-9fe7-b86af8c2d55e" d="m62.16,344.92c4.01-6.01,8.79-11.57,12.02-18.03,3.64-7.27,6.26-15.07,8.13-22.98,1.53-6.47,2.32-13.15,2.47-19.8.18-7.68-.31-15.44-1.77-22.98-1.34-6.92-3.72-13.62-6.36-20.15-2.08-5.13-4.95-9.9-7.42-14.85l-15.91,11.31-.35,105.71c1.41.12,2.85.1,4.24.35,1.69.31,3.3.94,4.95,1.41h0Z" style="fill:#f55;"/><path id="uuid-2bbe542c-cd05-4c62-8de2-05b344748c68" d="m30.5,349.34l3.02-3.71,3.89-2.65h5.13l3.89.71-.35-174.48-15.57-10.08v190.21Z"/><path id="uuid-d135ffbf-da2b-4376-a216-ff7cc8223097" d="m46.78,424.82v-46.67l-13.44,2.3-2.85-3.18v45.25l8.33.53,7.95,1.77Z"/><path id="uuid-6dd57b80-e16e-4ade-821c-0afd56a070ac" d="m29.91,442.08l11.75,1.04,11.75,1.83,10.45,2.96,8.01,3.48,7.14,2.96-4.7-6.27-6.35-6.96-11.49-6.53-13.06-4.44-7.31-1.31-6.18-.7v13.93Z"/><g id="uuid-2415c2d8-d7a4-4533-9337-126708ac254f"><path id="uuid-af0b1efb-b62e-491e-a61f-e8be1997e7ae" d="m220.91,282.34s-3.1-4.46-4.6-6.72c-1.93-2.92-5.66-8.84-5.66-8.84l-131.17,126.22s7.25,5.64,10.61,7.78c1.1.17,3.18-1.06,3.18-1.06,0,0,.89-2.93,2.12-3.54.85-.42,2.83.35,2.83.35l2.83-2.83s1.99-4.93,3.54-7.07c3.32-4.6,7.69-8.41,12.06-12.02,3.39-2.8,7.07-5.28,10.92-7.42,2.76-1.54,5.75-2.6,8.64-3.87,1.86-.81,5.59-2.39,5.59-2.39l79.11-78.6Z" style="fill:#ff5;"/><path id="uuid-dc15df35-1a1a-46bc-965f-1af0df4b1b33" d="m217.01,276.96l-3.88-6.31-128.66,125.5,6.07,4.13,126.47-123.32Z"/></g><g id="uuid-3518c18a-5aa6-43df-804d-4d15991b12ed"><path id="uuid-7570f6ef-6f8f-4840-9abd-1a0a63a8f8fb" d="m247.25,361.75l-.25-62.75s-7.36-2.97-10.75-5c-3.58-2.14-10-7.5-10-7.5l.75,83,10.75,9.25,9.5-17Z" style="fill:#ff5;"/><path id="uuid-0930ca32-2ec5-4a57-ab22-ae0822f64ccd" d="m240.75,372l-.25-75-7.25-4,.5,81.25,4,3.75,3-6Z"/></g><path id="uuid-20a15cdd-b767-4a93-92c3-f2a21109938d" d="m249.28,391.18c-4.82,3.16-10.53,6.92-15.34,10.08-3.61-3.91-6.8-8.28-10.84-11.74-3.99-3.42-8.46-6.32-13.1-8.81-3.56-1.91-7.34-3.43-11.18-4.66-3.82-1.22-7.77-2.13-11.74-2.67-4.33-.59-8.73-.79-13.1-.64-4.29.14-8.59.61-12.78,1.49-3.92.83-7.74,2.14-11.49,3.55-3.34,1.25-6.63,2.66-9.77,4.34-2.26,1.21-4.6,3.13-6.49,4.11-1.88-.9-2.85-3.77-4.97-4.39-1.83-.53-3.88.18-5.65.9-1.54.64-2.71,1.96-4.07,2.94-.98,0-2.03-.37-2.94,0-1.57.65-1.98,3.14-3.61,3.61-.67.19-1.36-.63-2.03-.45-1.18.32-1.81,1.66-2.71,2.48-.68,0-1.41-.26-2.03,0-1.08.45-1.66,1.66-2.48,2.48l-2.26-.45c2.26-3.46,4.04-7.29,6.78-10.39,3.46-3.93,7.67-7.18,11.97-10.16,4.82-3.34,10.05-6.1,15.36-8.58,5.33-2.5,10.83-4.69,16.49-6.32,4.79-1.39,9.72-2.4,14.68-2.94,4.72-.5,9.49-.41,14.23-.23,4.08.16,8.17.43,12.2,1.13,3.6.62,7.14,1.6,10.61,2.71,6.15,1.97,12.42,3.87,18.07,7,4.85,2.68,9.05,6.41,13.32,9.94,2.67,2.2,5.29,4.5,7.68,7,2.6,2.72,5.11,5.58,7.21,8.67h0Z" style="fill:#ff5; stroke:#55a; stroke-linecap:round; stroke-linejoin:round; stroke-width:2px;"/><path id="uuid-646563c0-3f35-45b5-99af-1b2db7d2080f" d="m243.7,393.71l-5.44,3.68s-2.85-3.87-4.46-5.64c-1.95-2.14-4.06-4.13-6.28-5.98-2.83-2.37-5.82-4.57-8.95-6.52-4.53-2.84-9.19-5.57-14.17-7.53-4.97-1.95-10.2-3.25-15.47-4.1-5.16-.83-10.43-1.08-15.66-.93-4.97.14-9.97.63-14.82,1.75-5.23,1.21-10.31,3.1-15.19,5.33-4.95,2.26-14.17,8.08-14.17,8.08,0,0-4.07.41-5.97,1.12-1.83.69-5.03,2.98-5.03,2.98,0,0-2.06-.38-2.98,0-1.22.5-2.8,2.8-2.8,2.8,0,0-1.1-.67-1.68-.56-.95.18-2.24,1.86-2.24,1.86,0,0,2.46-3.01,3.91-4.29,3.48-3.07,7.49-5.47,11.37-8.02,3.53-2.32,7.05-4.68,10.81-6.59,5.27-2.68,10.7-5.12,16.37-6.8,6.56-1.95,13.35-3.29,20.17-3.75,6.33-.43,12.73-.01,19,.93,6.1.92,12.2,2.27,17.92,4.59,5.84,2.37,11.22,5.81,16.4,9.39,3.31,2.28,6.36,4.92,9.32,7.64,2.23,2.05,4.26,4.32,6.34,6.52,1.25,1.33,3.69,4.03,3.69,4.03h0Z"/><g id="uuid-2c2e5936-5678-46c7-a946-32ca3db5e5c3"><path id="uuid-287c918c-4cd5-413f-ad1c-b19adca11ace" d="m213.5,424.75c.6-2.56,1.02-5.17,1.81-7.68.64-2.05,1.47-4.04,2.37-5.98.61-1.31,1.35-2.56,2.03-3.84.15,1.32.08,2.68.45,3.95.48,1.65.92,3.55,2.26,4.63,1.57,1.27,3.86,1.54,5.87,1.47,1.7-.06,3.51-.53,4.86-1.58,1.4-1.09,2.38-2.8,2.82-4.52.47-1.83.29-3.87-.34-5.65-.52-1.48-1.61-2.73-2.71-3.84-.82-.82-1.88-1.35-2.82-2.03-.11-1.05.16-2.23-.34-3.16-.53-.99-1.57-1.69-2.6-2.15-.7-.31-1.51-.23-2.26-.34-.11-.9.09-1.9-.34-2.71-.42-.8-1.19-1.46-2.03-1.81-.66-.27-1.43-.08-2.15-.11-.26-.87-.22-1.89-.79-2.6-.49-.6-1.26-1.02-2.03-1.13-1.3-.18-2.56.6-3.84.9-.45-.75-.62-1.78-1.36-2.26-.7-.46-1.65-.42-2.48-.34-.95.09-1.81.6-2.71.9-.41-.75-.48-1.85-1.24-2.26-.77-.41-1.76-.02-2.6.23-.69.2-1.28.68-1.92,1.02-.64-.68-1.07-1.64-1.92-2.03-.75-.35-1.7-.38-2.48-.11-.61.21-1.02.78-1.47,1.24-.71.73-1.28,1.58-1.92,2.37,1.2.75,2.47,1.41,3.61,2.26,1.24.92,2.46,1.9,3.5,3.05,1.09,1.2,1.97,2.58,2.82,3.95.97,1.56,1.78,3.21,2.6,4.86.84,1.67,1.71,3.33,2.37,5.08.94,2.5,1.58,5.1,2.26,7.68.59,2.24,1.09,4.51,1.58,6.78.41,1.91.75,3.84,1.13,5.76h0Z" style="fill:#ff5;"/><path id="uuid-3308345d-dd81-42a7-be0d-85151b6f509e" d="m226.89,411.11c1.43,0,2.97-1.27,3.18-2.63.24-1.59-1.18-3.33-2.62-4.04-1.78-.88-4.27-.6-5.95.48-2.72,1.74-3.51,5.47-4.75,8.45-1.58,3.82-2.22,8.45-3.33,11.94" style="fill:none; stroke:#55a; stroke-linecap:round; stroke-linejoin:round; stroke-width:2px;"/><path id="uuid-283b0dce-9016-42a9-9c2b-25907a681bb8" d="m221.55,405.09c-1.24,1.29-1.94,4.1-1.69,6.24.19,1.65,1.02,3.39,2.34,4.4,1.71,1.3,4.16,1.6,6.29,1.39,1.95-.19,4.02-.96,5.4-2.36,1.29-1.32,1.86-3.28,2.1-5.1.23-1.78.06-3.73-.72-5.35-.8-1.66-2.25-3.04-3.83-3.99-1.23-.74-2.72-1.06-4.15-1.2-1.83-.18-3.74-.05-5.51.48-1.61.49-3.16,1.32-4.44,2.41-1.27,1.09-2.17,2.56-3.07,3.97-1.24,1.95-2.13,4.1-3.19,6.15" style="fill:none; stroke:#55a; stroke-linecap:round; stroke-linejoin:round; stroke-width:2px;"/><path id="uuid-c6038a8d-bdd5-4d23-9f64-5af6eb7c0ff2" d="m229.99,399.12c.16-1.17-.03-2.39-.72-3.27-.88-1.13-2.42-1.7-3.83-1.92-1.63-.25-3.29.34-4.87.8-1.53.44-3.02,1.03-4.39,1.84-1.23.72-2.33,1.64-3.35,2.63-1.49,1.45-2.66,3.19-3.99,4.79" style="fill:none; stroke:#55a; stroke-linecap:round; stroke-linejoin:round; stroke-width:2px;"/><path id="uuid-382b9b00-7fb1-4322-9842-1a0c760892e1" d="m224.72,393.21c-.16-.83,0-1.78-.48-2.48-.46-.67-1.28-1.13-2.08-1.28-1.3-.24-2.65.32-3.91.72-1.23.39-2.38.98-3.51,1.6-1.56.85-3.1,1.75-4.47,2.87-1.4,1.15-2.5,2.61-3.75,3.91" style="fill:none; stroke:#55a; stroke-linecap:round; stroke-linejoin:round; stroke-width:2px;"/><path id="uuid-eda02484-6734-43bd-a583-69b607f5a0af" d="m220.09,389.06c-.19-.72-.07-1.6-.56-2.16-.64-.74-1.74-1.09-2.71-1.12-1.19-.03-2.28.69-3.35,1.2-1.4.66-2.73,1.49-3.99,2.4-1.14.81-2.11,1.84-3.19,2.71-.78.63-1.6,1.22-2.4,1.84" style="fill:none; stroke:#55a; stroke-linecap:round; stroke-linejoin:round; stroke-width:2px;"/><path id="uuid-6adb9968-6f91-4dd5-84b4-853ef49767a3" d="m213.54,386.51c-.19-1.68-.93-2.17-1.92-2.56-1-.4-2.19.17-3.19.56-1.21.47-2.23,1.31-3.27,2.08-1.52,1.12-2.87,2.45-4.31,3.67" style="fill:none; stroke:#55a; stroke-linecap:round; stroke-linejoin:round; stroke-width:2px;"/><path id="uuid-952d72be-f92b-4742-8508-1612efef65e6" d="m207.08,384.59c-.08-.93-.87-1.65-1.68-1.92-.96-.32-2.02.26-2.95.64-.84.34-1.6.88-2.32,1.44-.93.73-1.7,1.65-2.56,2.48" style="fill:none; stroke:#55a; stroke-linecap:round; stroke-linejoin:round; stroke-width:2px;"/><path id="uuid-957f2e9f-734a-43fb-9782-47ccf2c4ad5e" d="m201.01,383.31c-.4-.61-.92-1.27-1.6-1.6-.58-.28-1.29-.4-1.92-.24-.83.21-1.5.88-2.08,1.52-.52.57-.8,1.33-1.2,2" style="fill:none; stroke:#55a; stroke-linecap:round; stroke-linejoin:round; stroke-width:2px;"/></g><g id="uuid-3b3adabf-6b46-4bc3-980c-72dffa0c2f72"><path id="uuid-98d211bf-b93f-48fe-8c09-da335f3f3bbb" d="m151.67,473.77c-6-.93-12.02-1.53-18.01-2.8-4.97-1.05-9.93-2.4-14.86-4-3.23-1.05-6.4-2.43-9.6-3.65-.5-4.29-1.03-8.57-1.5-12.86-.53-4.83-.95-9.66-1.5-14.48-.41-3.62-.66-7.26-1.35-10.85-.41-2.15-1.1-4.25-1.65-6.37-.75-.22-1.5-.44-2.25-.67-.75.8-1.24,2.16-2.25,2.41-1.36.33-2.95-.48-4.2-1.47-1.8-1.43-3.12-3.74-4.2-5.99-1.04-2.17-1.9-4.57-2.1-6.97-.13-1.54.09-3.11.6-4.44.39-1.01.93-2.08,1.8-2.47.86-.38,1.9.26,2.85.39.5-.78.84-1.76,1.5-2.33,1.02-.88,2.4-1,3.6-1.5.65-.82,1.05-2.07,1.95-2.45.77-.32,1.7.23,2.55.35.75-.74,1.3-1.9,2.25-2.23.79-.27,1.7.23,2.55.35.85-1.09,1.35-2.81,2.55-3.27.87-.34,1.9.38,2.85.57.75-.98,1.19-2.49,2.25-2.95.86-.37,1.9.26,2.85.39.95-.84,1.79-1.87,2.85-2.51,1.2-.73,2.53-1.25,3.9-1.46,1.41-.22,2.92-.27,4.35.23,1.57.55,3.06,1.65,4.35,2.94,1.44,1.44,2.62,3.28,3.6,5.19,1.34,2.61,2.26,5.49,3,8.36,1.34,5.21,1.78,10.59,2.55,15.89,1.01,6.92,1.72,13.87,2.7,20.79.97,6.9,2.06,13.79,3.15,20.67.91,5.74,1.9,11.46,2.85,17.2h0Z" style="fill:#ff5;"/><g id="uuid-c575262f-c312-400e-bd83-d66f7867d270"><path id="uuid-6c5752dd-d729-47dd-ab89-969f8c86b3e1" d="m151.46,472.84s-2.94-17.41-4.24-26.14c-1.55-10.41-2.49-20.86-4.24-31.25-1.19-7.04-1.37-14.52-4.24-21.03-1.97-4.46-4.62-9.61-8.49-11.37-3.75-1.71-8.65-.97-11.24,2.17-2.17,2.64-2.62,7.61-1.49,11.45,1.22,4.17,4.51,9.14,8.05,9.46,3.69.34,7.78-3.93,7.83-8.37.04-3.99-3.53-8.9-6.84-9.62-2.05-.44-4.53,1.58-4.8,3.99-.31,2.81,1.85,7.24,4.24,7.54,1.44.18,3.42-1.57,2.49-3.9" style="fill:none; stroke:#55a; stroke-linecap:round; stroke-linejoin:round; stroke-width:2.15px;"/><path id="uuid-ea4c6b99-0c9b-4228-a5fc-8eb0581410bb" d="m146.51,473.02c-2.49-9.51-3.13-18.91-4.47-28.39-1.33-9.41-1.72-18.91-3.52-28.27-1.43-7.43-3.04-15.36-5.75-22" style="fill:none; stroke:#55a; stroke-linecap:round; stroke-linejoin:round; stroke-width:2.15px;"/><path id="uuid-d6c8be56-55c5-47a1-a7fd-5594c7ac732a" d="m140.84,472.26c-1.9-8.25-2.47-16.74-3.52-25.14-1.02-8.18-1.39-16.43-2.68-24.56-.94-5.92-1.62-11.82-3.69-17.55" style="fill:none; stroke:#55a; stroke-linecap:round; stroke-linejoin:round; stroke-width:2.15px;"/><path id="uuid-edd0ea95-c015-46ff-b706-5e576233878e" d="m135.79,471.18c-1.69-7.87-2.2-15.98-3.13-24-.91-7.81-1.23-15.69-2.38-23.45-.84-5.65-1.44-11.28-3.28-16.75" style="fill:none; stroke:#55a; stroke-linecap:round; stroke-linejoin:round; stroke-width:2.15px;"/><path id="uuid-673eba7c-1df1-4e4c-8c01-2309e455b9a3" d="m130.84,469.85c-1.52-7.46-1.98-15.16-2.82-22.76-.81-7.41-1.11-14.89-2.15-22.26-.75-5.36-1.3-10.7-2.95-15.88" style="fill:none; stroke:#55a; stroke-linecap:round; stroke-linejoin:round; stroke-width:2.15px;"/><path id="uuid-fd320c37-317a-485f-a21c-df1513f421e7" d="m126.01,468.67c-1.52-7.1-1.98-14.44-2.82-21.68-.81-7.05-1.11-14.17-2.15-21.19-.75-5.1-1.3-10.19-2.95-15.13" style="fill:none; stroke:#55a; stroke-linecap:round; stroke-linejoin:round; stroke-width:2.15px;"/><path id="uuid-679cee07-973b-435a-bcde-c7efc647fd12" d="m120.58,466.99c-1.48-6.62-1.81-13.07-2.59-19.62-.78-6.57-1.08-13.19-2.09-19.72-.73-4.75-1.26-9.49-2.87-14.09" style="fill:none; stroke:#55a; stroke-linecap:round; stroke-linejoin:round; stroke-width:2.15px;"/><path id="uuid-2f8cd1f0-2be3-4b09-bbaa-c0e96fbdda76" d="m115.35,465.37c-1.39-6.06-1.81-12.3-2.58-18.47-.75-6.01-1.02-12.07-1.97-18.05-.69-4.35-1.19-8.69-2.7-12.9" style="fill:none; stroke:#55a; stroke-linecap:round; stroke-linejoin:round; stroke-width:2.15px;"/><path id="uuid-05d38e17-6419-4117-a009-6759ccd7550d" d="m110.09,464.38c-1.18-5.42-2.08-11.85-2.87-17.81-.71-5.37-.86-10.81-1.67-16.17-.59-3.89-1.01-7.78-2.29-11.54" style="fill:none; stroke:#55a; stroke-linecap:round; stroke-linejoin:round; stroke-width:2.15px;"/><path id="uuid-f1b1010c-0468-4383-8bc9-71e19d5be385" d="m125.87,406.55c-1.37.95-2.38,2.05-3.8,1.92-3.02-.28-5.44-2.82-7.22-5.55-1.88-2.9-3.03-6.81-2.83-10.26.14-2.47,1.15-5.03,2.8-6.31.83-.64,1.71-.34,3.05-.29" style="fill:none; stroke:#55a; stroke-linecap:round; stroke-linejoin:round; stroke-width:2.15px;"/><path id="uuid-44bbc742-b609-4f60-8e60-027d8ecb0c8b" d="m120.87,408.39c-1.15,1.38-2.02,2.44-3.39,2.35-2.71-.17-5.44-2.82-7.22-5.55-1.88-2.9-3.03-6.81-2.83-10.26.14-2.47.85-5.09,2.8-6.31.67-.42,1.04-.9,2.39.08" style="fill:none; stroke:#55a; stroke-linecap:round; stroke-linejoin:round; stroke-width:2.15px;"/><path id="uuid-ba0d8fe9-7f56-489f-8cce-21b3622cb62e" d="m116.69,410.87c-1.37.95-2.59,2.78-4.27,2.63-2.72-.25-5.44-2.82-7.22-5.55-1.88-2.9-3.03-6.81-2.83-10.26.14-2.47,1.05-5.21,2.8-6.31.77-.48,1.38-.42,2.73.29" style="fill:none; stroke:#55a; stroke-linecap:round; stroke-linejoin:round; stroke-width:2.15px;"/><path id="uuid-349de58b-3c67-40c6-bd19-0dc56fcbe452" d="m110.98,413.54c-1.04,1.66-2.1,2.44-3.5,2.34-2.71-.2-5.44-2.82-7.22-5.55-1.88-2.9-3.03-6.81-2.83-10.26.14-2.47,1.12-5.08,2.8-6.31.78-.56,1.38-.69,2.84-.09" style="fill:none; stroke:#55a; stroke-linecap:round; stroke-linejoin:round; stroke-width:2.15px;"/><path id="uuid-45139166-6a45-4b03-bf53-4f81a4176357" d="m106.14,416.33c-.5,1.46-1.88,2.33-3.17,2.25-2.71-.16-5.44-2.82-7.22-5.55-1.88-2.9-3.03-6.81-2.83-10.26.14-2.47,1.11-5.09,2.8-6.31.64-.46,1-.11,2.35-.06" style="fill:none; stroke:#55a; stroke-linecap:round; stroke-linejoin:round; stroke-width:2.15px;"/><path id="uuid-45493d06-167b-46d5-854e-0e6e218c1225" d="m101.09,418.29c-.5,1.73-1.51,2.21-2.62,2.19-2.7-.05-5.44-2.82-7.22-5.55-1.88-2.9-2.91-6.79-2.83-10.26.04-1.83.57-3.81,1.7-4.87.9-.84,2.15-.72,3.49-.66" style="fill:none; stroke:#55a; stroke-linecap:round; stroke-linejoin:round; stroke-width:2.15px;"/></g></g><g id="uuid-ef054b69-7d12-4cd9-ba19-10267dbe453e"><path id="uuid-5faa2de5-2630-4176-aa85-1043a2ec19b0" d="m247.03,509.5l-32.53-40s-9.17,2.9-13.88,3.78c-6.95,1.3-14.02,2.07-21.09,2.22-11.09.24-22.25-.4-33.22-2.06-12.49-1.89-36.81-8.94-36.81-8.94l-28.96,45h166.49Z" style="fill:#f55; stroke:#55a; stroke-linecap:round; stroke-linejoin:round; stroke-width:2px;"/><path id="uuid-9e7c2c8c-b937-451c-a0ff-3929e25a1c89" d="m230.35,508.02l-18.65-27.14c-7.3,2.25-11.53,1.8-20.83,2.72l4.65,24.42h6.44l-5.76-20.88c5.34-.33,7.74-.28,13.14-1.12l13.6,22h7.4Z" style="fill:#fff; stroke:#fff; stroke-linecap:round; stroke-linejoin:round; stroke-width:2px;"/><path id="uuid-20320403-086e-4962-baa7-1efa8671eff6" d="m185.51,508.02l-4.48-23.71c-11.34.94-19.89.96-31.23-.04l-5.64,23.75h7.27l3.43-19.28c8.91.47,13.6.52,21.08.04l3.03,19.24h6.55Z" style="fill:#fff; stroke:#fff; stroke-linecap:round; stroke-linejoin:round; stroke-width:2px;"/><path id="uuid-06d44456-4a81-4843-8178-279255f93b07" d="m133.13,508.02l8.23-25.05c-8.27-.61-19.52-5-28.53-6.9l-16.23,31.95h7.13l12.21-24.57c5.03,1.22,12.98,2.81,18.01,3.43l-6.99,21.15h6.17Z" style="fill:#fff; stroke:#fff; stroke-linecap:round; stroke-linejoin:round; stroke-width:2px;"/></g><path id="uuid-b920a68f-cd7b-4286-9c9d-6277ab7e0f61" d="m299.5,509.5H29.5V149.5h0" style="fill:none; stroke:#55a; stroke-width:2px;"/><g id="uuid-4649e802-1a70-4f58-a2ba-b24c17c94e44"><path id="uuid-e5933091-157d-46fb-acb2-30f16aab97a0" d="m201.85,445.21c-.4-.44-.2-1.26.09-1.77.32-.54.96-1.01,1.59-1.03.61,0,1.27.41,1.59.93.35.59.58,1.57.09,2.05-.8.79-2.61.65-3.36-.19h0Z" style="fill:#55a; stroke:#55a; stroke-linecap:round; stroke-linejoin:round; stroke-width:1.82px;"/><path id="uuid-d10c2ac2-ff38-4f86-b16a-f5a7c310ce60" d="m151.6,456.54c4.75,1.14,9.37,2.78,14.26,3.42,3.16.41,6.52,1.1,9.6.23,1.93-.55,5.27-2.52,5.05-3.29-.11-.39-.9-.37-1.37-.34-2.18.12-4,1.88-6.15,2.26-2.61.47-5.32.22-7.95,0-4.55-.38-8.96-1.52-13.44-2.28h0Z" style="fill:#55a; stroke:#55a; stroke-linecap:round; stroke-linejoin:round; stroke-width:1.82px;"/><path id="uuid-c1c7a741-e19c-423a-95af-7a633dc79098" d="m177.27,447.48c.55.49,3.03.73,2.58,1.29-.58.74-3.93,3.3-6.29,4.21-2.19.85-4.61,1-6.97,1.05-2.5.05-5.07-.03-7.45-.79-2.88-.92-6.01-3.81-7.89-4.47" style="fill:none; stroke:#55a; stroke-linecap:round; stroke-linejoin:round; stroke-width:1.82px;"/><path id="uuid-f039c985-ccae-492a-a6a8-4962836adeea" d="m149,442.36c4.02.89,7.76,4.73,12.07,5.67,2.87.62,5.88.33,8.78-.12,1.75-.27,3.49-.79,5.11-1.56.97-.46,1.7-.69,2.7-1.78-1.97-.77-2.15-3.46-3.83-4.31-3.07-1.54-6.77-.97-10.15-.73-2.67.19-5.22,1.2-7.85,1.7-2.26.43-4.67-.06-6.82,1.12h0Z" style="fill:none; stroke:#55a; stroke-linecap:round; stroke-linejoin:round; stroke-width:1.82px;"/><path id="uuid-7eec9628-8ea0-4fc7-a53e-dd3540d03690" d="m159.15,446.46c.09-1.18-.41-2.5.27-3.53.82-1.24,2.5-2.07,4.11-2.5,1.26-.34,2.73-.38,3.98,0,1.19.36,2.23,1.15,2.88,2.05.89,1.23.73,2.81,1.1,4.21" style="fill:none; stroke:#55a; stroke-linecap:round; stroke-linejoin:round; stroke-width:1.82px;"/><path id="uuid-9abe8e9d-6778-4333-850c-eada345734fd" d="m163.7,446.43c-.4-.44-.2-1.26.09-1.77.32-.54.96-1.01,1.59-1.03.61,0,1.27.41,1.59.93.35.59.58,1.57.09,2.05-.8.79-2.61.65-3.36-.19h0Z" style="fill:#55a; stroke:#55a; stroke-linecap:round; stroke-linejoin:round; stroke-width:1.82px;"/><path id="uuid-750ce6b7-9206-41cc-9284-8a8dedfddc47" d="m163.05,431.88c2.88.46,5.96,2.21,8.46,4.11,2.35,1.79,4.31,4.57,5.84,6.65" style="fill:none; stroke:#55a; stroke-linecap:round; stroke-linejoin:round; stroke-width:1.82px;"/><path id="uuid-b8a2fdd9-6319-4a53-89ec-bf1d92aec9ae" d="m194.01,454.49c-.73-1.48-1.84-2.87-2.19-4.44-.72-3.21-.2-6.55.27-9.79.59-4.01,2.2-7.87,3.15-11.84.61-2.55,2.99-5.43,1.66-7.7-.78-1.32-3-.72-4.4-1.34-1.83-.82-3.68-2.38-5.14-3.1" style="fill:none; stroke:#55a; stroke-linecap:round; stroke-linejoin:round; stroke-width:1.82px;"/><path id="uuid-d44ee50a-8eb9-46da-96d6-0789f4004e6e" d="m176.84,429.11c-1.87-1.71-4.62-2.97-5.62-5.12-.48-1.03-.56-2.3,0-3.3.66-1.17,2.05-2.22,3.57-2.5,1.24-.24,2.57.31,3.7.8,1.44.62,2.24,2.03,3.7,2.62,1.05.42,2.34.92,3.43.57.37-.12.8-.48.69-.8-.37-1.01-2.37-.77-3.57-1.14-1.55-.47-3.11-.91-4.66-1.37" style="fill:none; stroke:#55a; stroke-linecap:round; stroke-linejoin:round; stroke-width:1.82px;"/><path id="uuid-f610731d-6a17-4d57-b08f-f6f9a437e272" d="m170.19,408.04c1.93.8,4.64.63,6.97.59,2.38-.05,4.68-.97,7.05-.88,2.71.1,5.19,1.59,7.9,1.61,1.99.02,4.26-.72,5.82-1.09-.13-.56-.32-1.3,0-1.74-2,.62-4.81,1.5-7.27,1.25-2.31-.23-3.98-2.45-6.31-2.5-2.72-.06-4.82,2.52-7.54,2.6-2.6.08-5.38-1.64-7.41-2.03.54.67.81,1.73.78,2.19h0Z" style="fill:#55a; stroke:#55a; stroke-linecap:round; stroke-linejoin:round; stroke-width:1.82px;"/><path id="uuid-e5b6bd9a-9c86-4e8b-b4da-100b5e2c674f" d="m176.26,401.82c1.92-.68,3.71-1.7,5.75-2.05,1.52-.25,3.13-.2,4.65.03,1.04.16,2,.57,2.97.91.9.31,1.77.69,2.66,1.04" style="fill:none; stroke:#55a; stroke-linecap:round; stroke-linejoin:round; stroke-width:1.82px;"/><path id="uuid-17c02bf7-fc38-478d-bb29-fa6e93557926" d="m189.01,394.38c-1.4.47-2.72.92-4.15.91-1.19,0-2.31-.38-3.44-.81" style="fill:none; stroke:#55a; stroke-linecap:round; stroke-linejoin:round; stroke-width:1.82px;"/><path id="uuid-fd6cb4a4-ba81-467a-8bb9-79e7dde51d19" d="m194.27,456.87c1.9,1.85,6.06,2.31,9.31,2.52,2.37.15,4.76-.27,7.03-.95,1.28-.38,2.1-1.16,3.62-1.73-2.6.42-4.53,1.18-6.85,1.26-2.36.08-4.73-.35-7.03-.79-1.62-.31-3.13-.93-4.56-1.58-.63-.28-1.99.81-1.52,1.26h0Z" style="fill:#55a; stroke:#55a; stroke-linecap:round; stroke-linejoin:round; stroke-width:1.82px;"/><path id="uuid-01b0542e-fb3d-42af-a982-b3e2822d16c3" d="m193.6,448.75c1.86.76,3.47,2.9,5.57,3.59,2.8.92,5.91.98,8.81.55,1.92-.28,3.55-1.33,5.32-2" style="fill:none; stroke:#55a; stroke-linecap:round; stroke-linejoin:round; stroke-width:1.82px;"/><path id="uuid-44146952-4b8f-43da-a06e-b633630ab2c1" d="m193.86,445.75c2.05.75,3.57.98,5.4,1.18,2.7.31,5.46.41,8.15.08,1.6-.2,3.27-.47,4.66-1.22.88-.47,1.44-1.32,2.16-1.98-.14-1.01-.28-2.03-.42-3.04-1.44-.46-2.83-1.11-4.32-1.37-2.04-.35-4.16-.35-6.24-.23-2.21.12-4.46.27-6.57.99-1.14.39-2.28.93-3.2,1.76-.65.58-1.15,1.8-1.54,2.18.36.66,1.6,1.3,1.92,1.65h0Z" style="fill:none; stroke:#55a; stroke-linecap:round; stroke-linejoin:round; stroke-width:1.82px;"/><path id="uuid-85a0f5a1-fe5a-4c95-81c4-67e4c5d2df86" d="m197.66,445.49c.09-1.18-.41-2.5.27-3.53.82-1.24,2.5-2.07,4.11-2.5,1.26-.34,2.73-.38,3.98,0,1.19.36,2.23,1.15,2.88,2.05.89,1.23.73,2.81,1.1,4.21" style="fill:none; stroke:#55a; stroke-linecap:round; stroke-linejoin:round; stroke-width:1.82px;"/><path id="uuid-87b63cda-d91a-439c-bc79-8db926d095ae" d="m193.32,439.33c1.53-1.4,2.79-3.03,4.59-4.2,1.44-.93,3.21-1.43,4.82-2.15" style="fill:none; stroke:#55a; stroke-linecap:round; stroke-linejoin:round; stroke-width:1.82px;"/></g><path id="uuid-3c30b13b-18d1-404b-9c83-6804cb49677c" d="m215.09,468.67c-.08-6.74,0-13.49-.24-20.22-.24-6.59-.4-13.2-1.19-19.75-.79-6.56-1.55-13.21-3.57-19.51-1.76-5.51-3.96-11.04-7.38-15.7-2.55-3.49-5.74-6.71-9.52-8.8-3.16-1.75-6.86-2.62-10.47-2.85-4.15-.28-8.35.59-12.37,1.67-4.47,1.19-8.71,3.17-12.85,5.23-3.31,1.65-6.36,3.78-9.52,5.71-2.55,1.56-5.08,3.17-7.61,4.76" style="fill:none; stroke:#55a; stroke-linecap:round; stroke-linejoin:round; stroke-width:2px;"/><path id="uuid-193428e0-1e7c-4a08-88a2-e794a7b51c74" d="m248.66,391.59c18.86-9.05,37.74-18.17,55.68-24.93l.35-46.49s-12.96,11.55-18.92,17.85c-5.28,5.6-10.26,11.5-14.85,17.68-3.66,4.92-6.83,10.18-10.08,15.38-4.21,6.75-12.2,20.51-12.2,20.51h0Z" style="stroke:#55a; stroke-linecap:round; stroke-linejoin:round; stroke-width:2px;"/><path id="uuid-fbdc5d2f-2b24-46c9-ba82-8f8d7aa9dae4" d="m305,320.75c-.08-6.5-.17-13-.25-19.5-5.17,4.17-10.44,8.2-15.5,12.5-5.62,4.78-11.47,9.35-16.5,14.75-4.74,5.09-8.68,10.87-12.75,16.5-4.36,6.03-8.44,12.26-12.5,18.5-3.17,4.86-6.17,9.83-9.25,14.75,3.67,4.17,7.33,8.33,11,12.5,3.08-5.33,6.03-10.75,9.25-16,3.52-5.76,7.05-11.53,11-17,4.13-5.72,8.57-11.22,13.25-16.5,3.16-3.57,6.5-7.01,10-10.25,3.91-3.62,8.17-6.83,12.25-10.25Z" style="fill:#55a; stroke:#55a; stroke-linecap:round; stroke-linejoin:round; stroke-width:2px;"/><path id="uuid-3ce3aed6-1519-4e23-a388-09c8d7b68b03" d="m251.72,382.75c1.01.29,1.55-1.64,1.66-2.69.31-3.16-5.32-6.43-3.34-8.91,1.62-2.02,5.27,1.99,7.69,1.06,1.06-.41,1.97-1.48,2.19-2.59.66-3.39-5.48-7.23-3.22-9.84,1.82-2.1,5.58,2.31,8.22,1.44,1.05-.35,1.99-1.34,2.28-2.41.96-3.48-4.84-7.96-2.34-10.56,1.95-2.03,5.63,2.33,8.31,1.47,1.05-.34,2-1.31,2.31-2.38.98-3.36-4.59-7.8-2.12-10.28,2.28-2.29,6.39,2.79,9.5,1.91,1.04-.3,2.01-1.2,2.38-2.22,1.18-3.28-4.08-8.26-1.31-10.38,2.24-1.72,5.03,3.47,7.84,3.22,1.08-.1,2.2-.81,2.75-1.75,1.89-3.25-2.79-9.57.56-11.28,1.98-1.01,3.41,3.22,5.59,3.62.93.17,2.27.2,2.78-.59s-.06-2-.59-2.78c-1.92-2.78-5.13-5.33-8.5-5.5-1.16-.06-2.47.62-3.09,1.59-2.16,3.35,2.77,9.8-.59,11.94-2.55,1.62-5.41-3.84-8.41-3.44-1.13.15-2.28,1.04-2.72,2.09-1.42,3.41,4.11,8.48,1.41,11-2.43,2.27-6.6-2.93-9.78-1.97-1.07.32-2.05,1.3-2.38,2.38-1.01,3.38,4.61,7.81,2.16,10.34-1.97,2.03-5.66-2.35-8.34-1.47-1.05.35-1.99,1.34-2.28,2.41-.97,3.49,4.84,7.98,2.34,10.59-2,2.09-5.83-2.47-8.56-1.5-1.08.38-2.02,1.47-2.25,2.59-.69,3.43,5.49,7.29,3.25,9.97-1.68,2.02-5.37-2.03-7.81-1.06-1.06.42-1.97,1.53-2.16,2.66-.5,3.05,5.24,6.32,3.25,8.69-1.26,1.49-3.84-1.49-5.75-1.09-.93.19-2.17.67-2.34,1.59-.18.93.8,1.83,1.59,2.34,2.62,1.72,6.13,1.38,9.25,1.75.2.02.46-.11.59.03,0,0,0,0,0,0Z" style="fill:#fff;"/><path id="uuid-7ec4d24d-49b6-4439-b4e8-9a7f4b3f7903" d="m226.23,293.22c-.24,3.64.26,5.78.02,9.42-6.23,8.09-11.28,19.37-17.51,27.46-1.69,6.07-11.22,17.36-13.85,19.28-1.85-.37-3.53-1.1-2.9-3.34.63-2.24,2.72-5.97,7.08-11.63,1.86-2.18,5.44-10.11,8.47-14.98,2.96-4.74,6.22-9.29,9.47-13.84,2.99-4.19,6.15-8.25,9.22-12.38h0Z" style="fill:#ff5; stroke:#55a; stroke-linecap:round; stroke-linejoin:round; stroke-width:2px;"/><path id="uuid-12b60645-02cd-48cb-aed3-a5ae3768aec2" d="m194.18,346.72l1.33,10.22-5.45,3.04-2.21-6.07,6.33-7.19Z" style="fill:#ff5; stroke:#55a; stroke-linecap:round; stroke-linejoin:round; stroke-width:2px;"/><path id="uuid-35945ff9-af7a-4c5d-b045-9cbb1a769d9a" d="m194.68,329.84s2.41-10.15,5.1-14.53c2.69-4.39,7.36-7.23,10.68-11.17,2.01-2.39,4.44-4.62,5.58-7.53,1.1-2.8.04-6.12.97-8.98.75-2.31,3.64-6.31,3.64-6.31l5.83,5.1-.49,6.8s-6.39,7.26-9.22,11.17c-2.31,3.18-4.14,6.68-6.31,9.95-1.41,2.13-2.99,4.15-4.37,6.31-4.46,6.99-12.56,21.47-12.56,21.47l-4.48,2.89,5.63-15.17Z" style="fill:#f55; stroke:#55a; stroke-linecap:round; stroke-linejoin:round; stroke-width:2px;"/><path id="uuid-8fe460b0-b9d9-4672-95ab-e810f4c6aff1" d="m226.96,368.48l-.48-80.78" style="fill:#f55; stroke:#55a; stroke-linecap:round; stroke-linejoin:round; stroke-width:2px;"/><path id="uuid-66c0748e-2530-4449-8eb0-e6c45cb91ca8" d="m143.45,359.74l72.82-71.85" style="fill:#f55; stroke:#55a; stroke-linecap:round; stroke-linejoin:round; stroke-width:2px;"/><path id="uuid-2118f9ab-133d-4a6a-877a-b93fdfbd9305" d="m225.99,360.71l-4.37,3.88" style="fill:#f55; stroke:#55a; stroke-linecap:round; stroke-linejoin:round; stroke-width:2px;"/><path id="uuid-c42ca7fd-88b8-4785-853e-762093bf6bb2" d="m226.23,353.43l-10.68,8.5" style="fill:#f55; stroke:#55a; stroke-linecap:round; stroke-linejoin:round; stroke-width:2px;"/><path id="uuid-2d1bbc52-e0cc-40a7-b186-7a2f5350f1e6" d="m226.23,347.11l-17.24,12.38" style="fill:#f55; stroke:#55a; stroke-linecap:round; stroke-linejoin:round; stroke-width:2px;"/><path id="uuid-a0e1a2b8-a313-413e-8c58-d774df0ac09f" d="m225.75,340.32l-23.55,17.48" style="fill:#f55; stroke:#55a; stroke-linecap:round; stroke-linejoin:round; stroke-width:2px;"/><path id="uuid-23bf2fed-ae6b-4b35-b44d-8bb673351e9b" d="m225.5,332.79l-24.92,19.59" style="fill:#f55; stroke:#55a; stroke-linecap:round; stroke-linejoin:round; stroke-width:2px;"/><path id="uuid-4f8d38cb-6f73-4528-a659-3dafbbe7ff72" d="m225.75,325.51l-24.2,21.04" style="fill:#f55; stroke:#55a; stroke-linecap:round; stroke-linejoin:round; stroke-width:2px;"/><path id="uuid-0458d4b6-bb32-438e-85e8-885083699f91" d="m225.26,319.44l-19.63,16.95" style="fill:#f55; stroke:#55a; stroke-linecap:round; stroke-linejoin:round; stroke-width:2px;"/><path id="uuid-537e4d0a-d695-4cda-9acb-55cf3f3f7c93" d="m225.02,313.37l-11.4,10.16" style="fill:#f55; stroke:#55a; stroke-linecap:round; stroke-linejoin:round; stroke-width:2px;"/><path id="uuid-eb656f04-36bb-4e92-b413-db8322e0ea9e" d="m212.64,299.78l-.73-6.55" style="fill:#f55; stroke:#55a; stroke-linecap:round; stroke-linejoin:round; stroke-width:2px;"/><path id="uuid-d13c3c3b-c095-41b0-adbd-c5a992613290" d="m208.27,305.85l-.49-8.25" style="fill:#f55; stroke:#55a; stroke-linecap:round; stroke-linejoin:round; stroke-width:2px;"/><path id="uuid-bd8a4406-ba79-4987-bba6-f37400a5676d" d="m203.17,311.19l-.97-8.74" style="fill:#f55; stroke:#55a; stroke-linecap:round; stroke-linejoin:round; stroke-width:2px;"/><path id="uuid-f7824c28-96b5-4592-8658-16c8f109ea14" d="m197.83,316.77l-1.21-7.53" style="fill:#f55; stroke:#55a; stroke-linecap:round; stroke-linejoin:round; stroke-width:2px;"/><path id="uuid-71d154aa-23a8-4410-80eb-8f9e1e0870ed" d="m194.42,327.44l-2.42-14.79" style="fill:#f55; stroke:#55a; stroke-linecap:round; stroke-linejoin:round; stroke-width:2px;"/><path id="uuid-3fbbcd0e-55ce-476f-97c8-413a46aa5834" d="m191.73,337.34l-4.83-20.31" style="fill:#f55; stroke:#55a; stroke-linecap:round; stroke-linejoin:round; stroke-width:2px;"/><path id="uuid-484b6b10-44dc-4db6-81ac-2094559adf97" d="m187.85,347.03l-5.56-24.66" style="fill:#f55; stroke:#55a; stroke-linecap:round; stroke-linejoin:round; stroke-width:2px;"/><path id="uuid-798fb8c1-cae5-4640-9886-c2c44bb88593" d="m183.27,353.43l-4.85-26.7" style="fill:#f55; stroke:#55a; stroke-linecap:round; stroke-linejoin:round; stroke-width:2px;"/><path id="uuid-2dc00d80-47a1-42c6-9943-f41a9b7194ae" d="m176.95,353.43l-3.64-20.88" style="fill:#f55; stroke:#55a; stroke-linecap:round; stroke-linejoin:round; stroke-width:2px;"/><path id="uuid-7576a981-ee42-4e00-8a4f-2f0f83663839" d="m171.86,353.67l-3.4-16.26" style="fill:#f55; stroke:#55a; stroke-linecap:round; stroke-linejoin:round; stroke-width:2px;"/><path id="uuid-fa365f3c-5a0e-44d1-8947-df140e7f48c8" d="m166.27,353.91l-2.91-12.38" style="fill:#f55; stroke:#55a; stroke-linecap:round; stroke-linejoin:round; stroke-width:2px;"/><path id="uuid-d985c1f8-603a-4a36-a8f9-14a859671f42" d="m160.2,355.37l-1.93-9.73" style="fill:#f55; stroke:#55a; stroke-linecap:round; stroke-linejoin:round; stroke-width:2px;"/><path id="uuid-b9af8788-24dc-4690-83bb-2a7c4bfb00f4" d="m156.08,356.1l-1.21-5.83" style="fill:#f55; stroke:#55a; stroke-linecap:round; stroke-linejoin:round; stroke-width:2px;"/><path id="uuid-266f75ae-478a-4864-a3aa-dc3664d6a585" d="m150.98,357.55l-.72-4.13" style="fill:#f55; stroke:#55a; stroke-linecap:round; stroke-linejoin:round; stroke-width:2px;"/><path id="uuid-af6ca7c8-b757-4a14-a885-67b4b9290318" d="m55.67,356.35c1.14,1.84-2.08,5.63-2.09,8.58-.02,3.76,2.9,7.23,2.57,10.97-.2,2.29-1.98,4.16-2.72,6.33-.58,1.73-1.76,3.54-1.33,5.32.45,1.9,1.89,4.3,3.84,4.41,1.71.09,2.74-2.13,3.79-3.49,2.43-3.16,4.3-6.81,5.56-10.6,1.36-4.11,2.07-5.82,2.04-8.84-.03-3.77-.26-5.92-2.74-10.98.13-2.29.69-4.59.4-6.86-.22-1.7-.48-3.57-1.57-4.9-1.23-1.49-3.19-2.37-5.07-2.8-3.3-.76-7.11-.87-10.14.52" style="fill:none; stroke:#55a; stroke-linecap:round; stroke-linejoin:round; stroke-width:2px;"/><path id="uuid-f69f5c18-e741-44b6-aada-da79fd10ae4a" d="m62.27,384.16c-.96-.91-1.58-2.48-2.88-2.72-.95-.17-1.93.49-2.67,1.12-.85.73-1.28,1.85-1.78,2.85-.57,1.14-.96,2.78-1.36,3.56" style="fill:none; stroke:#55a; stroke-linecap:round; stroke-linejoin:round; stroke-width:2px;"/><path id="uuid-120d312d-127a-445f-a5c6-8ee71f83e821" d="m44.58,369.05c-.18.45-.46.87-.55,1.34-.13.66-.17,1.36,0,2.01.24.9.63,1.87,1.38,2.41.87.64,2.1.79,3.17.67,1.16-.13,2.33-.67,3.17-1.48.58-.56,1.03-1.35,1.1-2.15.06-.65-.12-1.38-.55-1.88-.63-.73-1.68-.99-2.62-1.21-1.66-.39-3.4-.23-5.1-.13-2.14.12-4.36.13-6.37.87-1.79.66-3.46,1.76-4.82,3.08-.82.8-1.78,1.7-1.93,2.82-.2,1.5.17,3.41,1.52,4.29.79.52,1.96.07,2.94-.04,2.44-.27,4.77-1.1,7.18-1.53,2.07-.37,4.23-.33,6.25-.92,2.05-.6,3.93-1.76,5.83-2.61" style="fill:none; stroke:#55a; stroke-linecap:round; stroke-linejoin:round; stroke-width:2px;"/><path id="uuid-bddc571a-5b3f-4dba-81ac-652aa3465a02" d="m33.98,372.47c-1-.94-2.42-1.5-3-2.82-.41-.93-.47-2.15-.13-3.11.54-1.53,1.94-2.48,3.13-3.41,1.43-1.12,3.04-1.94,4.7-2.52,1.64-.57,3.38-.72,5.09-.89,1.69-.17,3.41-.4,5.09-.15.77.11,1.61.21,2.22.74.53.46.97,1.18,1.04,1.93.08.78-.26,1.58-.65,2.22-.61.98-1.46,1.91-2.48,2.22-.93.29-1.96-.09-2.87-.44-.81-.32-1.75-.67-2.22-1.48-.36-.62-.32-1.48-.26-2.22.06-.83.44-1.58.65-2.37" style="fill:none; stroke:#55a; stroke-linecap:round; stroke-linejoin:round; stroke-width:2px;"/><path id="uuid-8794a0a9-7665-4fed-8771-c424d84b96b5" d="m33.07,362.83c-.68-1.14-1.77-2.09-2.05-3.41-.32-1.51-.24-3.31.55-4.6.9-1.48,2.69-2.09,4.23-2.67,1.91-.71,3.99-.74,6.01-.89,1.73-.13,3.5-.41,5.19,0,1.03.25,2.09.7,2.87,1.48.61.62,1.19,1.47,1.23,2.37.04.86-.39,1.76-.96,2.37-.74.8-1.84,1.16-2.87,1.33-1.04.18-2.21.23-3.14-.3-.69-.39-1.2-1.15-1.5-1.93-.34-.87-.45-1.89-.27-2.82.17-.89.82-1.58,1.23-2.37" style="fill:none; stroke:#55a; stroke-linecap:round; stroke-linejoin:round; stroke-width:2px;"/><path id="uuid-c24b9d28-ab6e-4dab-9a0c-a836f0352d1c" d="m34.19,352.3c-.92-.44-2.51-.82-2.91-1.93-.4-1.12.4-2.4,1.02-3.41.88-1.42,2.12-2.74,3.64-3.41,1.25-.55,2.71-.32,4.07-.3,1.9.03,3.84.09,5.67.59,1.38.38,3.06.62,3.93,1.78.39.52.45,1.3.29,1.93-.28,1.09-1.09,2.09-2.04,2.67-1.22.75-2.91,1.31-4.22.74-1.19-.51-1.84-1.99-2.18-3.26-.21-.76-.16-1.64.15-2.37.31-.74,1.07-1.19,1.6-1.78" style="fill:none; stroke:#55a; stroke-linecap:round; stroke-linejoin:round; stroke-width:2px;"/><path id="uuid-d410c40b-bdbd-4b80-8771-a9ce5f486663" d="m247.71,362.75l-.71-63.15s4.56,13.94,7.8,20.5c3.02,6.12,10.78,17.4,10.78,17.4,0,0-6.3,8.01-9.24,12.16-3.02,4.26-8.62,13.09-8.62,13.09Z" style="fill:#f55; stroke:#55a; stroke-linecap:round; stroke-linejoin:round; stroke-width:2px;"/><path id="uuid-953b7bc1-24f6-4476-9b0b-88406510c60e" d="m30.5,487.95l16.19-14.95-.2-23.33s-5.02-1.19-7.58-1.4c-2.8-.22-8.42.2-8.42.2v39.47Z"/><path id="uuid-52894c13-570f-4759-9a31-859017cbfc36" d="m29.5,495.92l23.18-20.13v-25.72l-5.78-.8-.4,23.72-16.99,14.16v8.77Z" style="fill:#ff5; stroke:#55a; stroke-linecap:round; stroke-linejoin:round; stroke-width:2px;"/><path id="uuid-2dba8fce-5870-4d9c-999d-3804e16e4354" d="m29.5,448.27c5.12.2,11,.49,16.42,1.38,6.07.99,12.11,2.38,17.92,4.4,5.87,2.05,11.46,4.86,16.95,7.78,3.85,2.04,7.44,4.52,11.16,6.78-2.46-5.38-4.19-11.16-7.38-16.15-3.91-6.12-8.44-12.08-14.15-16.55-5.85-4.58-12.9-7.59-19.94-9.97-5.06-1.71-10.45-2.29-15.75-2.99-1.73-.23-3.57-.27-5.23-.4v5.78c3.92.16,8.31.54,12.36,1.45,5.49,1.22,10.9,2.96,16,5.33,3.81,1.77,7.52,3.9,10.77,6.58,2.56,2.11,4.67,4.74,6.69,7.37,1.41,1.83,3.01,3.47,3.75,5.83-2.59-1.2-5.78-2.99-8.77-4.27-3.49-1.5-7.04-2.89-10.68-3.99-3.51-1.05-7.1-1.81-10.7-2.47-3.22-.59-6.46-1.03-9.72-1.35-3.22-.31-6.5-.26-9.69-.53v5.98Z" style="fill:#ff5; stroke:#55a; stroke-linecap:round; stroke-linejoin:round; stroke-width:2px;"/><path id="uuid-1840274f-7b7d-4bad-bc68-fa1e4631ed15" d="m64.78,444.97c0-.83.67-1.5,1.5-1.5s1.5.67,1.5,1.5-.67,1.5-1.5,1.5-1.5-.67-1.5-1.5Z" style="fill:#ff5;"/><path id="uuid-b7801070-3064-4d1b-8a5f-74d3c63188aa" d="m56.08,441.45c0-1.38,1.12-2.5,2.5-2.5s2.5,1.12,2.5,2.5-1.12,2.5-2.5,2.5-2.5-1.12-2.5-2.5Z" style="fill:#ff5;"/><path id="uuid-c0ff08bc-a9cc-4fe3-9cea-6c4cd493e73e" d="m44.77,438.09c0-1.93,1.57-3.5,3.5-3.5s3.5,1.57,3.5,3.5-1.57,3.5-3.5,3.5-3.5-1.57-3.5-3.5Z" style="fill:#ff5;"/><path id="uuid-45eb3980-b942-4d89-bdb3-9e740bdf9584" d="m32.58,435.79c0-2.49,2.01-4.5,4.5-4.5s4.5,2.01,4.5,4.5-2.01,4.5-4.5,4.5-4.5-2.01-4.5-4.5Z" style="fill:#ff5;"/><path id="uuid-85fc026a-449a-4665-ab07-90536cc5d9b6" d="m52.62,426.24v-50.2l-5.48,1.77v46.49l5.48,1.94Z" style="fill:#ff5; stroke:#55a; stroke-linecap:round; stroke-linejoin:round; stroke-width:2px;"/><path id="uuid-fdb30b3a-d6d0-4391-bc31-b200962dad52" d="m52.97,342.27l-4.77,1.94-2.3-.88.35-174.48-16.62-10.25-.13-9.1,23.65,14.93-.18,177.84Z" style="fill:#ff5; stroke:#55a; stroke-linecap:round; stroke-linejoin:round; stroke-width:2px;"/><path id="uuid-63277698-ad42-4b12-9951-ca08309461ff" d="m65.34,353.05c3.89-5.07,8.3-9.77,11.67-15.2,3.53-5.69,6.44-11.78,8.84-18.03,2.46-6.41,4.39-13.05,5.66-19.8,1.18-6.28,1.85-12.7,1.77-19.09-.08-6.05-1.14-12.06-2.12-18.03-.92-5.59-1.92-11.19-3.54-16.62-1.4-4.72-3.29-9.29-5.3-13.79-1.9-4.23-4.24-8.25-6.36-12.37-2.47,2.24-4.95,4.48-7.42,6.72,3.3,6.48,7.37,12.63,9.9,19.45,2.24,6.03,3.61,12.38,4.6,18.74,1.07,6.89,1.74,13.9,1.41,20.86-.28,5.84-1.48,11.63-2.83,17.32-1.45,6.13-3.19,12.24-5.66,18.03-2.21,5.19-5.06,10.11-8.13,14.85-2.01,3.1-4.48,5.89-6.72,8.84,1.18.94,2.79,1.51,3.54,2.83.88,1.55.47,3.54.71,5.3Z" style="fill:#55a;"/><path id="uuid-18d0bba8-6193-4b6f-b6d2-dbeba444ab7b" d="m62.9,383.33c1.48,1.14,4.95,2.27,6.43,3.41,3.52-4.09,7.07-8.15,10.56-12.26,2.29-2.71,4.6-5.4,6.81-8.17,2.57-3.23,5.12-6.49,7.49-9.88,2.17-3.1,4.24-6.26,6.13-9.54,1.86-3.21,3.49-6.54,5.11-9.88,1.68-3.48,3.35-6.97,4.77-10.56,1.55-3.91,3.05-7.85,4.09-11.92,1.17-4.58,1.84-9.27,2.38-13.96.65-5.58,1.08-11.2,1.06-16.81-.01-5.19-.52-10.38-1.06-15.54-.68-6.5-1.26-13.04-2.72-19.41-1.57-6.86-3.95-13.53-6.47-20.09-2.19-5.69-4.7-11.27-7.49-16.69-1.75-3.39-3.86-6.58-5.79-9.88-2.38,2.38-4.77,4.77-7.15,7.15,3.63,6.24,7.99,12.12,10.9,18.73,2.92,6.64,4.79,13.72,6.47,20.78,1.76,7.39,3.18,14.9,3.75,22.48.52,7.02.25,14.1-.34,21.12-.54,6.47-1.29,12.97-2.92,19.25-1.75,6.74-4.39,13.24-7.29,19.57-2.65,5.77-5.9,11.26-9.2,16.69-2.76,4.55-5.46,9.18-8.86,13.28-3.69,4.47-8.43,8.46-12.4,12.2-.91,3.63-3.33,6.3-4.24,9.94h0Z" style="fill:#55a;"/><path id="uuid-a3e8faee-5eb5-4c4e-b768-0c8b0da6d168" d="m88.81,399.51l-26.08-16.62" style="fill:none; stroke:#55a; stroke-linecap:round; stroke-linejoin:round; stroke-width:2px;"/><path id="uuid-51ab1489-8872-409a-ba29-e0dc039ce2f0" d="m132.16,341.23l-53.46,51.78-9.63-7.47s10.5-10.75,15.17-16.62c5.71-7.18,11.05-14.7,15.65-22.64,2.24-3.85,3.99-7.97,5.78-12.04,2.09-4.75,5.78-14.45,5.78-14.45l20.71,21.43Z" style="fill:#55a; stroke:#55a; stroke-linecap:round; stroke-linejoin:round; stroke-width:2px;"/><path id="uuid-3b2549a3-0f6f-4c4b-8e3e-61574e15b0f6" d="m83.12,388.03c.95-.37,1.64-1.42,1.88-2.41.72-3.07-4.29-7.19-1.91-9.25,1.93-1.67,4.67,3.05,7.19,2.62,1.14-.19,2.27-1.11,2.69-2.19,1.11-2.86-3.84-7.32-1.34-9.09,2.03-1.44,4.18,2.98,6.62,3.47.7.14,1.58.25,2.15-.19s.69-1.31.73-2.03c.21-3.53-5.18-8.14-2.41-10.34,2.32-1.85,5.08,3.4,8,3.91.7.12,1.56.2,2.11-.24.55-.44.66-1.3.7-2.01.21-3.9-5.71-9.01-2.62-11.41,2.86-2.22,6.1,4.3,9.66,4.97.71.13,1.59.23,2.16-.22s.62-1.34.69-2.06c.51-5.54-7.33-14.12-2.31-16.53,4-1.93,4.88,8.46,9.16,9.69.91.26,2.27.1,2.75-.72s-.2-1.96-.72-2.75c-3.57-5.45-9.13-10.15-15.34-12.09-.7-.22-1.62-.31-2.2.14-.59.44-.7,1.35-.74,2.08-.24,5.8,8.94,13.22,4.41,16.84-2.78,2.23-6-4.22-9.5-4.91-.7-.14-1.58-.25-2.15.19s-.69,1.31-.73,2.03c-.23,3.95,5.78,9.1,2.69,11.56-2.33,1.86-5.1-3.41-8.03-3.94-.71-.13-1.58-.23-2.14.22-.56.44-.67,1.32-.7,2.03-.18,3.48,5.13,8.05,2.38,10.19-1.85,1.44-3.95-2.77-6.25-3.25-.68-.14-1.52-.26-2.08.14-.57.4-.73,1.23-.82,1.92-.42,3.24,3.97,7.63,1.44,9.69-2.05,1.67-4.84-3.2-7.44-2.72-1.14.21-2.25,1.18-2.62,2.28-1.01,2.99,4.29,7.21,1.91,9.28-2.33,2.02-5.61-3.2-8.69-3.12-.98.02-2.4.21-2.73,1.14-.33.93.64,1.97,1.38,2.61,3.22,2.8,7.9,3.28,12.03,4.34.26.07.54.22.78.12Z" style="fill:#fff;"/><path id="uuid-f26ee022-6092-4007-8d80-f5497cc39ad1" d="m192.73,347.63l-5.21,5.09-1.93-7.52,5.69-6.07,1.45,8.5Z" style="fill:#f55; stroke:#55a; stroke-linecap:round; stroke-linejoin:round; stroke-width:2px;"/><path id="uuid-0db50a47-3bc3-4e30-8fe9-fa6a4b66be21" d="m203.15,351.6l-6.54,4.74-1.49-7.3,6.1-6.29,1.93,8.86Z" style="fill:#f55; stroke:#55a; stroke-linecap:round; stroke-linejoin:round; stroke-width:2px;"/><path id="uuid-9fd3c3d3-4033-45a3-b2a4-1cb0608d32e5" d="m209,266.5l-62,5.5s-3.05-5.34-4.84-7.84c-2.18-3.05-4.5-6.03-7.16-8.66-2.52-2.49-5.34-4.69-8.27-6.68-2.55-1.74-5.37-3.04-8.06-4.56-2.06-1.17-6.17-3.5-6.17-3.5,0,0,2.87,10.92,3.76,16.48.8,5.03,1.11,10.12,1.41,15.2.28,4.71.55,9.43.35,14.14-.27,6.63-.9,13.28-2.12,19.8-.83,4.44-3.54,13.08-3.54,13.08l19.86,21.27,76.77-74.24Z" style="stroke:#000; stroke-linecap:round; stroke-linejoin:round; stroke-width:2px;"/><path id="uuid-f72100f9-a4ae-485c-97d6-d0f58dbf0540" d="m138.41,333.56l4.06-4-8.44-.06,1.56-1.47h.62l7.78-.16,3.94-4-8,.09,2.31-2.16,6.72.81,4.5-3.97-7.44-.41,1.34-1.28,7.5-.22,3.88-4-6.97.09,1.25-1.19h6.88l4.03-4h-6.62l2.12-2,5.66.62,4.44-3.97-9.38-.59-.36-13.7-4,3.97.36,11.26-2.09,2-.16-11.41-4,4.06.22,11.03-1.88,1.75-.34-11.5-4,4.19.5,10.94-1.53,1.44-.34-10.88-4,4.19.5,10.28-1.19,1.12-.41-9.94-4,4.25.62,9.25-2.5,2.34-.28-10.56-3.97,4.16.44,11.53.06,1.91,1.91.03,8.69.13Z" style="fill:#ff5;"/><path id="uuid-b728f0d2-e552-4426-af2d-c040d3543395" d="m124.48,318.06l4.06-4-8.44-.06,1.56-1.47h.62l7.78-.16,3.94-4-8,.09,2.31-2.16,6.72.81,4.5-3.97-7.44-.41,1.34-1.28,7.5-.22,3.88-4-6.97.09,1.25-1.19h6.88l4.03-4h-6.62l2.12-2,5.66.62,4.44-3.97-9.38-.59-.47-13.38-4,3.97.47,10.94-2.09,2-.16-11.41-4,4.06.22,11.03-1.88,1.75-.34-11.5-4,4.19.5,10.94-1.53,1.44-.34-10.88-4,4.19.5,10.28-1.19,1.12-.41-9.94-4,4.25.62,9.25-2.5,2.34-.28-10.56-1.43,7.86-2.1,7.83.06,1.91,1.91.03,8.69.13Z" style="fill:#ff5;"/><path id="uuid-aed0f97a-a017-424b-9ff7-a055f0e062e1" d="m120.85,293.14l4.5-3.97-5.96-.41.39-1.49h6.97s3.88-4.01,3.88-4.01l-6.97.09,1.25-1.19h6.88l4.03-4h-6.62l2.12-2,5.66.62,4.44-3.97-9.38-.59-.47-13.38-4,3.97.47,10.94-2.09,2-.16-11.41-4,4.06.22,11.03-1.88,1.75-.34-11.5-1.04,2.28.08,11.68-.47,9.13,2.49.34Z" style="fill:#ff5;"/><path id="uuid-1afdc49d-af49-4db4-a20a-516dc72d6314" d="m34.81,476.44c.55.01,1.04-.43,1.47-.78,2.92-2.42,5.79-5.32,7.12-8.88.27-.73.3-1.59.09-2.34-.98-3.54-3.02-7.11-6.03-9.22-.79-.55-2.01-1.19-2.82-.66-.81.53-.71,1.9-.52,2.85.63,3.14,5.4,4.84,5.25,8.03-.16,3.29-4.91,4.68-6.19,7.72-.28.67-.58,1.52-.26,2.17s1.15,1.09,1.88,1.11h0Z" style="fill:#ff5;"/><path id="uuid-94f7f0e7-989e-4126-8845-f006f73fd48f" d="m41.78,420.69c.94-.6,1.46-1.92,1.41-3.03-.24-4.61-7.48-7.3-7.09-11.91.31-3.71,5.9-5.03,7.25-8.5.3-.77.33-1.68.09-2.47-1.11-3.64-3.48-7.23-6.72-9.22-.8-.49-2.03-1.01-2.8-.45s-.67,1.88-.45,2.8c.76,3.2,5.94,4.68,5.81,7.97-.14,3.66-5.7,5-7.12,8.38-.3.71-.39,1.56-.22,2.31,1.12,4.97,4.07,9.67,7.81,13.12.55.51,1.3.83,2.03,1h0Z" style="fill:#ff5;"/><path id="uuid-803ce800-d0b9-4f75-997f-a58111bb74ca" d="m37.56,341.56c.67-.18,1.46-.44,1.79-1.05.33-.61.11-1.42-.11-2.08-.75-2.3-3.88-3.65-3.97-6.06-.18-4.74,5.61-7.89,6.88-12.47.16-.58.18-1.22.06-1.81-.93-4.51-6.21-7.9-5.91-12.5.29-4.41,5.81-6.93,7.19-11.12.21-.63.26-1.35.12-2-1.15-5.52-7.72-9.42-7.72-15.06,0-5.11,5.76-8.67,7-13.62.14-.58.16-1.2.03-1.78-1.16-5.3-7.23-9.26-7.03-14.69.17-4.69,5.73-7.7,6.97-12.22.17-.61.18-1.29.03-1.91-1.15-4.96-7.05-8.5-6.97-13.59.07-4.78,5.7-7.94,6.94-12.56.16-.6.18-1.27.03-1.88-1.15-4.82-7.14-8.21-6.91-13.16.2-4.13,5.41-6.48,6.78-10.38.21-.59.28-1.25.19-1.88-.49-3.41-1.55-7.06-3.91-9.56-.68-.72-1.76-1.66-2.67-1.29s-1.03,1.8-1.02,2.79c.06,3.09,3.8,5.52,3.5,8.59-.4,4.16-5.59,6.52-6.88,10.5-.21.64-.24,1.37-.09,2.03,1.08,4.87,7,8.26,6.94,13.25-.06,4.77-5.7,7.92-6.94,12.53-.16.6-.17,1.27-.03,1.88,1.15,4.96,7.08,8.5,6.97,13.59-.1,4.67-5.64,7.69-6.91,12.19-.17.59-.19,1.24-.06,1.84,1.11,5.32,7.08,9.29,7,14.72-.07,5.12-5.8,8.71-7,13.69-.14.59-.14,1.23,0,1.81,1.31,5.44,7.94,9.35,7.66,14.94-.22,4.41-5.8,6.93-7.19,11.12-.2.61-.25,1.3-.12,1.94.87,4.55,6.08,7.93,5.94,12.56-.15,4.79-5.81,7.93-6.94,12.59-.16.67-.14,1.41.06,2.06.85,2.69,2.57,5.16,4.62,7.09.46.43,1.04.78,1.66.94h0Z" style="fill:#ff5;"/><path id="uuid-ba8a64c8-660a-47ab-b060-37f6cfb3429e" d="m247,299.25c-3.17-1.25-6.55-2.05-9.5-3.75-3.96-2.28-7.38-5.41-10.75-8.5-2.96-2.71-5.73-5.63-8.25-8.75-2.86-3.54-5.17-7.5-7.75-11.25" style="fill:none; stroke:#000; stroke-linecap:round; stroke-linejoin:round; stroke-width:2px;"/></g><path id="uuid-090dcbb8-3213-4825-875e-110e01525a3a" d="m179.5,254.5s3,5.17,6.5,8.5c3.5,3.33,8.5,6.5,8.5,6.5,0,0-5,3.33-8.5,6.67-3.5,3.33-6.5,8.33-6.5,8.33,0,0-3-5-6.5-8.33-3.5-3.33-8.5-6.5-8.5-6.5,0,0,5-3.5,8.5-6.83,3.5-3.33,6.5-8.33,6.5-8.33" style="fill:#ff5;"/><path id="uuid-ab5ebb15-93ec-467e-b146-0482489fa546" d="m179.5,259.5s2,3.44,4.33,5.67c2.33,2.22,5.67,4.33,5.67,4.33,0,0-3.33,2.22-5.67,4.44-2.33,2.22-4.33,5.56-4.33,5.56,0,0-2-3.33-4.33-5.56-2.33-2.22-5.67-4.33-5.67-4.33,0,0,3.33-2.33,5.67-4.56,2.33-2.22,4.33-5.56,4.33-5.56" style="fill:#f55;"/><path id="uuid-82ffa0a7-c16a-4e71-9e23-ce8655df63ce" d="m89.5,44.5s6,15,13,25,17,20,17,20c0,0-10,10-17,20s-13,25-13,25c0,0-6-15-13-25s-17-20-17-20c0,0,10-10,17-20s13-25,13-25" style="fill:#f55;"/><path id="uuid-fda95027-1a1e-46b5-843b-2a6d2f2e90d8" d="m29.5,89.5s3,7.5,6.5,12.5,8.5,10,8.5,10c0,0-5,5-8.5,10s-6.5,12.5-6.5,12.5c0,0-3-7.5-6.5-12.5s-8.5-10-8.5-10c0,0,5-5,8.5-10s6.5-12.5,6.5-12.5" style="fill:#f55;"/><path id="uuid-edbf8fd2-ea80-43bd-a9ab-285a8139a87f" d="m269.5,494.5s-6-15-13-25-17-20-17-20c0,0,10-10,17-20s13-25,13-25c0,0,6,15,13,25s17,20,17,20c0,0-10,10-17,20s-13,25-13,25" style="fill:#f55;"/><path id="uuid-b392cca6-de06-488f-a523-f7f5fa4a68cb" d="m329.5,449.5s-3-7.5-6.5-12.5-8.5-10-8.5-10c0,0,5-5,8.5-10s6.5-12.5,6.5-12.5c0,0,3,7.5,6.5,12.5s8.5,10,8.5,10c0,0-5,5-8.5,10s-6.5,12.5-6.5,12.5" style="fill:#f55;"/></g></svg>