<?xml version="1.0" encoding="UTF-8"?><svg id="uuid-414554ef-e90a-418a-bc0e-f18bdd72e0ff" xmlns="http://www.w3.org/2000/svg" viewBox="0 0 359 539"><g id="uuid-d5d0b895-e6c7-4550-91eb-1d5081f3bc15"><path id="uuid-f2ec1742-f8ce-40ea-87cd-2b8b9c2735a7" d="m206.49,252.27l-4.7-.09-1.17,10.48-1.08,13.55v18.42l.72,24.47,2.53,16.26,3.25,10.84-7.22,1.99-6.68,3.07,6.5,14.99,1.99,1.44,3.79-3.25,4.7.54,2.53-1.44,3.79-1.26,3.61.72-4.88-14.27-3.25-12.46-3.79-14.45-1.63-16.44.36-28.36.63-24.74Z" style="fill:#ff5;"/><path id="uuid-a570a9c3-a9f5-4697-b466-7b0974e2d186" d="m152.76,286.81l4.7.09,1.17-10.48,1.08-13.55v-18.42l-.72-24.47-2.53-16.26-3.25-10.84,7.22-1.99,6.68-3.07-6.5-14.99-1.99-1.44-3.79,3.25-4.7-.54-2.53,1.44-3.79,1.26-3.61-.72,4.88,14.27,3.25,12.46,3.79,14.45,1.63,16.44-.36,28.36-.63,24.74Z" style="fill:#ff5;"/><path id="uuid-6d4d7687-8db9-44ae-b411-acdfb2df869c" d="m339.5,509.5v-50h-5v15l-3,7-7-22h-5l9,28-9,22h5l10-24v24h5Z" style="fill:#f55;"/><path id="uuid-4b078373-a51f-4a2d-98db-20f84175aa91" d="m19.5,29.5v50h5v-15l3-7,7,22h5l-9-28,9-22h-5l-10,24v-24h-5Z" style="fill:#f55;"/><path id="uuid-e76e87b0-5b23-4a95-8af6-756b082bf82e" d="m140,176.5s4.25,11.59,6,17.5c1.95,6.59,3.74,13.24,5,20,1.23,6.6,2.08,13.29,2.5,20,.38,6.15.08,12.33,0,18.5-.08,6.33-.21,12.67-.5,19-.23,5.01-1,15-1,15" style="fill:none; stroke:#55a; stroke-linecap:round; stroke-linejoin:round; stroke-width:2px;"/><path id="uuid-07e183b6-ecc3-4a5a-87a8-cc24fe191995" d="m218.76,362.82s-4.25-11.59-6-17.5c-1.95-6.59-3.74-13.24-5-20-1.23-6.6-2.08-13.29-2.5-20-.38-6.15-.08-12.33,0-18.5.08-6.33.21-12.67.5-19,.23-5.01,1-15,1-15" style="fill:none; stroke:#55a; stroke-linecap:round; stroke-linejoin:round; stroke-width:2px;"/><path id="uuid-5c563254-68de-49d6-b172-4104283220ea" d="m219.75,253l-18-.25-1.07,10.71-13.56-.58.25-10.62-14.38.12-.75,10.75-12.62-.75.62-17.75v-13l47.12,1.62,12.38,19.75Z"/><path id="uuid-93e506b1-8385-43fe-9266-c175c972187b" d="m158.8,217.02l13.71-5.68,11.5-6.37,8.73-7.76,6.79-7.34,4.29-5.54,25.07.55-6.37,11.08-5.96,12.05-5.26,13.02-3.6,12.74-47.65-1.39-.42-6.93-.83-8.45Z" style="fill:#f55;"/><path id="uuid-7db646fd-2896-465f-b444-81c923effed0" d="m270.35,174.76l15.76-14.41,16.1,14.92,6.61,6.61,19.66,20.51.51,29.15-11.02,7.97-47.63-64.75Z"/><path id="uuid-2c01841c-6014-4492-bc35-4c7d18ff7659" d="m230.83,251.99l3.32-14.04,2.81-12.77,39.07,50.3-6.89,9.45-10.21,14.3-5.36,10.21-4.6,10.47-4.6,11.23-5.11-13.79-3.83-11.75-3.57-18.64-2.04-10.47v-9.19l1.02-15.32Z" style="fill:#55a;"/><path id="uuid-ffd8b1e7-0540-41b7-b3cf-455dc623be92" d="m255.86,347.23l72.51-31.92v9.45l-61.79,36.26-6.13-7.66-4.6-6.13Z"/><path id="uuid-b2ac1e5a-cd60-4bcb-8e17-af037b7b2a7a" d="m252.07,198.14l3.45-5.46,43.39,59.48-3.74,4.02-43.1-58.04Z" style="fill:#ff5;"/><path id="uuid-17d9cd32-e3e9-4983-8ee8-db7b3c239e2a" d="m255.81,192.39l4.88-6.61,4.88-6.32,47.12,63.5,16.38-11.21v12.64l-16.38,10.06-18.68,15.23-14.94,15.23-10.63,14.94-9.77,17.53-6.9,15.23-2.87,6.9-4.88-8.91,4.6-12.07,11.78-21.26,9.48-12.93,8.62-11.49,10.34-10.06,5.75-6.32,4.88-3.74-43.68-60.34Z" style="fill:#f55;"/><path id="uuid-8974762f-9942-4739-a5fe-ac1543c19b0d" d="m295.88,322.91l4.16-9.55,6.01-8.47,5.85-6.62,6.01-5.39,6.62-5.08,4.78-3.54v24.49l-33.43,14.17Z" style="fill:#f55;"/><path id="uuid-e831f324-8821-47e5-81aa-d8f6fb85c3ea" d="m251.16,341.91l28.82-11.83,3.04-7.63,5.03-9.2,6.01-10.6,10.42-13.3,10.18-8.47,8-5.02,6.14-3.65.77-24.69-3.83,1.8-11.72,7.66-14.42,10.81-12.62,11.27-11.94,14.64-9.01,13.74-8.34,16.67-6.76,16.45.23,1.35Z" style="fill:#ff5;"/><path id="uuid-a608e52b-81ff-4ec2-86c9-db95c88a3cfd" d="m251.44,342.77l76.93-33.84" style="stroke:#000; stroke-linecap:round; stroke-linejoin:round; stroke-width:2px;"/><g id="uuid-00ed1ecd-a028-4072-9f39-bb5b54fbb2e3"><path id="uuid-da729825-d06b-4f9b-8b56-d80b8785d07a" d="m132.2,62.49s-.71,6.15.6,8.77c.59,1.18,2.33,1.45,2.99,2.59.91,1.58,1,5.38,1,5.38,0,0,5.45-.28,8.17-.4,5.51-.23,11.03-.82,16.54-.6,4.01.16,8.02.61,11.96,1.39,5.42,1.09,10.73,2.73,15.94,4.58,5.24,1.87,10.12,4.65,15.34,6.58,3.78,1.39,7.61,2.73,11.56,3.59,3.6.78,7.29,1.09,10.96,1.39,3.44.28,6.91.49,10.36.4,2.93-.08,8.77-.8,8.77-.8,0,0,3.27-1.47,3.59-2.99.33-1.6-2.09-2.75-2.19-4.38-.09-1.4,1.74-2.62,1.39-3.99-.26-1.05-2.39-2.19-2.39-2.19,0,0-14.28-.67-21.32-1.79-6-.95-11.95-2.32-17.73-4.18-5.13-1.65-9.87-4.36-14.94-6.18-4.71-1.69-9.43-3.46-14.35-4.38-5.37-1-10.88-1-16.34-1.2-4.85-.18-9.71-.4-14.55,0-4.03.33-11.96,1.99-11.96,1.99l-3.39-3.59Z" style="fill:#f55; stroke:#55a; stroke-linecap:round; stroke-linejoin:round; stroke-width:2px;"/><path id="uuid-163500df-72c9-42dc-8c53-896ae1467660" d="m138.98,70.06s14.86-1.82,22.32-1.59c7.63.23,15.33,1.04,22.71,2.99,8.04,2.12,15.25,6.68,23.11,9.36,5.81,1.99,11.68,3.97,17.73,4.98,5.71.95,17.33,1,17.33,1" style="fill:none; stroke:#000; stroke-linecap:round; stroke-linejoin:round; stroke-width:2px;"/><path id="uuid-2f14e66d-74b8-40a4-99d9-483fce7a1ce3" d="m140.97,74.64s13.29-.9,19.93-.6c7.09.33,14.26.8,21.12,2.59,8.13,2.12,15.4,6.75,23.31,9.56,5.62,2,11.27,4.09,17.14,5.18,4.32.81,8.75,1.01,13.15,1,2.47,0,7.37-.6,7.37-.6" style="fill:none; stroke:#000; stroke-linecap:round; stroke-linejoin:round; stroke-width:2px;"/></g><g id="uuid-6ecdd981-9359-4989-be5c-95d91acf7a81"><path id="uuid-45b881c4-8740-4878-b336-16ae79a19f8f" d="m116.5,29.5c9.72,17.2,9.08,19.48,18.8,36.68,10.45-3.78,29.59-2.73,44.12-.48,12.04,1.86,22.84,8.69,34.72,11.42,10.57,2.43,22.24,4.38,32.24,4.38l28.12-52H116.5Z" style="fill:#ff5; stroke:#55a; stroke-width:2px;"/><path id="uuid-c3ef40ae-8e3d-416c-ae7e-54038a155285" d="m171.24,58.34c1.64,0,3.28-.12,4.78-.48.82-.2,1.52-.53,2.22-.9,1.18-.63,2.03-1.63,3.34-2.24-.58,2.13-2.46,3.22-4.11,4.33-1.48,1-3.21,1.63-5,1.94-1.92.34-3.98.36-5.9-.1-2.26-.54-4.4-1.68-6.25-3.04-1.25-.93-2.48-2.03-3.14-3.39-.36-.73-.38-1.76-.37-2.39.72,1.14,1.68,2.47,3,3.43,1.33.96,3.01,1.67,4.7,2.13,2.19.6,4.51.72,6.73.73h0Z"/><path id="uuid-9c3f2688-15b0-4d02-a2c1-36229eae7053" d="m153.74,49.22c-.69-.57-.53-2.42.28-3.24.23-.24.72-.34,1.05-.22.95.33,1.57,1.34,1.63,2.21.04.55-.65.96-.84,1.48-.16.46-.25,1.42-.25,1.42,1.01,1.21,1.48,2.69,2.95,3.16,2.18.7,5.33.35,6.86-1.12,1.41-1.35,1.08-3.69.38-5.42-.47-1.17-1.51-2.37-2.88-2.81-1.24-.4-2.65.16-3.92.46,1.15-1.52,2.46-3.3,2.15-5.1-.3-1.72-1.91-3.3-3.64-4.27-.73-.41-1.7-.36-2.56-.47h0c-1.7.31-3.56.96-4.52,2.17-.97,1.22-.84,2.92-.68,4.4.12,1.13.73,2.2,1.23,3.26-1.01-.57-2.29-.89-3.43-.7-2.17.35-4.75,1.46-5.36,3.24-.59,1.72.73,3.85,2.33,5.06,1.49,1.12,3.85,1.75,5.76,1.29,1.6-.39,2.24-1.95,3.49-3.09l-.02-1.72Z"/><path id="uuid-279d833c-c2d9-4c6a-9ab8-283fa316bfec" d="m140.72,58.39c-1.31,0-2.62-.01-3.81-.48-1.24-.49-2.12-1.63-3.25-2.34-.84-.53-1.54-1.49-2.62-1.44.46,2.13,2.86,3.63,4.7,4.98,1.19.87,2.57,1.63,3.99,1.94,1.53.34,3.17.36,4.7-.1,1.8-.54,3.51-1.68,4.99-3.04,1-.93,1.81-2.17,2.51-3.39.63-1.11,1.49-2.89,1.48-3.52-1.48.12-2.12,3.3-3.58,4.56-1.09.94-2.4,1.67-3.75,2.13-1.75.6-3.6.72-5.37.73h0Z"/><path id="uuid-92be1368-fbb8-45f2-9917-e9fde43b89c8" d="m130.66,52.22c.06-.68.54-.67.53-1.5,0-.82-1.22-1.4-2.02-1.35-.29.02-.71,1.15-.79,1.43l-4.44-9.46c.34-.38.7-.71,1.08-1.01.66-.21,1.31-.61,1.99-.51,1.61.22,3.39,1.03,4.27,2.42.92,1.45.68,3.45.46,5.19.79-.71,1.56-1.68,2.6-1.77,1.15-.1,2.35.57,3.14,1.42,1.17,1.25,2.32,3.19,1.84,4.86-.51,1.81-2.62,3.02-4.43,3.37-1.35.26-2.76-.42-3.95-1.12"/><path id="uuid-c0c5d440-732a-44a2-a34f-34fbfe2573ed" d="m182.09,53c-.58-.67-.12-2.47.82-3.15.27-.2.76-.21,1.08-.04.88.49,1.32,1.58,1.24,2.45-.06.55-.8.84-1.07,1.32-.24.42-.48,1.36-.48,1.36.79,1.36,1.01,2.9,2.38,3.61,2.04,1.05,5.2,1.24,6.95.05,1.61-1.1,1.69-3.46,1.29-5.28-.27-1.23-1.09-2.59-2.37-3.26-1.16-.6-2.64-.28-3.94-.2,1.39-1.31,2.98-2.84,2.97-4.66,0-1.75-1.32-3.58-2.88-4.82-.65-.52-1.61-.64-2.44-.89h0c-1.73.02-3.67.35-4.82,1.38-1.16,1.04-1.32,2.74-1.41,4.22-.07,1.14.35,2.29.67,3.42-.9-.73-2.1-1.26-3.27-1.27-2.2-.02-4.92.64-5.83,2.3-.87,1.59.07,3.91,1.45,5.38,1.28,1.35,3.5,2.37,5.46,2.24,1.65-.11,2.54-1.55,3.96-2.46l.27-1.7Z"/><path id="uuid-3b2ed869-073e-488a-8136-85e810825006" d="m195.11,63.85c1.42.32,2.93.39,4.35.09,1.25-.26,2.35-1.01,3.48-1.59,1.29-.66,2.46-1.95,3.78-2.16-1.07,1.88-3.63,4.89-6.29,6.1-1.5.69-3.27.65-4.93.44-1.79-.22-3.61-.79-5.19-1.77-1.86-1.16-3.45-2.86-4.73-4.69-.87-1.25-1.66-2.65-1.89-4.15-.13-.81.12-1.79.3-2.4.34,1.29.84,2.85,1.76,4.14.92,1.3,2.23,2.45,3.6,3.37,1.78,1.19,3.71,2.14,5.76,2.61h0Z"/><path id="uuid-6f6d65f9-f17d-4a0a-bac7-a23aa074511d" d="m209.48,58.91c.81-.31,1.34-2.08.92-3.1-.12-.29-.51-.53-.85-.53-.95.01-1.86.76-2.23,1.55-.23.5.22,1.09.2,1.64-.02.48-.3,1.39-.3,1.39-1.32.81-2.27,2.04-3.73,2.02-2.17-.03-4.8-1.33-5.61-3.16-.74-1.69.39-3.77,1.62-5.15.84-.94,2.18-1.74,3.55-1.72,1.23.02,2.27.97,3.27,1.64-.46-1.77-.96-3.82-.04-5.4.88-1.51,2.86-2.48,4.74-2.84.79-.15,1.62.19,2.41.35h0c1.38.81,2.77,1.99,3.18,3.42.41,1.44-.32,2.97-.99,4.3-.51,1.01-1.43,1.82-2.26,2.65,1.09-.22,2.36-.21,3.26.41,1.46,1,2.65,2.9,2.53,4.67-.11,1.63-1.38,3.31-2.88,3.98-1.69.75-4.01.44-5.52-.58-1.27-.85-1.26-2.51-1.94-3.95l.64-1.59Z"/><path id="uuid-21635c84-9031-4f89-a047-4d7397fc7c57" d="m220.27,69.92c1.39.25,2.87.25,4.23-.12,1.2-.32,2.26-1.07,3.3-1.76,1.13-.75,1.89-2.31,3.16-2.58-.95,1.93-2.92,5.23-5.4,6.64-1.4.79-3.14.8-4.76.68-1.74-.13-3.55-.61-5.13-1.52-1.86-1.07-3.49-2.69-4.83-4.46-.9-1.2-1.74-2.56-2.04-4.05-.16-.8.03-1.8.17-2.41.39,1.27.95,2.8,1.91,4.05.96,1.25,2.28,2.34,3.66,3.19,1.79,1.1,3.7,1.96,5.72,2.33h0Z"/><path id="uuid-d8c96fa3-b7fb-4b35-82f4-c288b914c4fa" d="m233.26,64.38c.73-.4,1.04-2.21.55-3.18-.14-.28-.53-.48-.85-.44-.89.11-1.67.95-1.93,1.78-.17.52.32,1.06.35,1.61.03.47-.14,1.42-.14,1.42-1.16.95-1.94,2.31-3.29,2.41-1.87.14-4.06-.98-4.97-2.62-.85-1.53-.49-3.71.39-5.22.64-1.09,1.87-1.96,3.15-2.09,1.16-.12,2.22.72,3.23,1.28-.61-1.71-1.29-3.7-.58-5.36.68-1.59,2.44-2.77,4.16-3.33.72-.23,1.54.02,2.3.09h0c1.38.66,2.8,1.68,3.33,3.06.53,1.38,0,2.99-.5,4.38-.38,1.06-1.16,1.96-1.85,2.88,1-.33,1.88-.98,2.9-.96,1.18.02,2.8.18,3.32,1.24,1.11,2.24-.1,5.81-2.19,7.19-1.34.88-3.26.01-4.77-.52-1.14-.4-2.28-.6-3.07-1.96l.44-1.65Z"/><path id="uuid-20a12ccb-e28f-4ede-9336-d54f6c705c19" d="m240.66,72.8c-1.23-.1-2.53-.42-3.52-1.17-1.05-.8-1.44-2.22-2.22-3.28-.6-.81-.88-1.79-1.88-2.37.28,2.09.82,5.59,2.59,7.6.94,1.06,2.42,1.56,3.81,1.84,1.5.31,3.14.3,4.71-.18,1.85-.56,3.65-1.71,5.25-3.08,1.08-.93,2.15-2.03,2.8-3.38.35-.73.46-1.74.5-2.36-.67,1.13-1.55,2.45-2.69,3.41-1.14.96-2.55,1.68-3.93,2.16-1.8.61-3.63.96-5.43.81h0Z"/><path id="uuid-180742c6-7059-4c4e-ae95-94882fe3ac4c" d="m253.15,65.43c.2-.72.01-.82.28-1.68.27-.85.91-1.16,1.19-.92.1.09-.1,1.36-.16,1.67l4.69-8.72c0-.47-.04-.9-.08-1.3-.18-.37-.3-.94-.58-1-.68-.15-1.6.26-2.38,1.49-.81,1.28-1.36,3.41-1.83,5.25-.07-.92-.82-.67-1.3-.66-1.09,0-2.2.66-2.9,1.49-1.09,1.31-1.95,3.25-1.48,4.88.24.83,1.14,1.44,1.97,1.69.59.18,1.17.22,1.84-.22"/><path id="uuid-8ce144ff-3a07-4d10-a26f-7d06a0862f06" d="m133.33,60.45s6.61,2.21,10.01,2c4.26-.26,12.17-4,12.17-4,0,0,8.31,3.98,12.81,4.32,4.32.33,12.81-2.24,12.81-2.24,0,0,6.8,6.11,11.05,7.36,4.22,1.25,13.21-.16,13.21-.16,0,0,5.58,6.95,9.6,8.08,5.04,1.42,15.53-2.32,15.53-2.32,0,0,7.22,5.05,11.37,5.04,2.42,0,6.64-2.96,6.64-2.96l-2.72,5c-5.71-.18-9.99-.51-15.85-1.41-5.85-.9-11.74-1.75-17.45-3.32-5.4-1.49-10.51-3.86-15.78-5.75-4.23-1.52-8.36-3.37-12.71-4.48-3.29-.84-6.68-1.2-10.04-1.63-2.87-.37-5.75-.67-8.63-.85-4.39-.27-8.8-.4-13.2-.33-2.88.05-5.7.22-8.7.56-2.59.29-7.56,1.71-7.56,1.71l-2.54-4.62Z"/></g><path id="uuid-d8d66d24-6248-4ff3-adff-0ae4cb8254aa" d="m163.46,171.9c2.4.25,5.29-.66,7.94-3.2l6.43-8.18,4.18-4.58,3.79,3.39,6.18,2.19-4.78,9.17-8.37,8.57-8.57,6.38-3.6,2.79-2.58-5.78-1.99-4.9-1.4-4.06,2.77-1.77Z" style="fill:#f55;"/><g id="uuid-4027f2b0-2726-4896-91f3-9ad04b21d77c"><path id="uuid-7d68d323-cad7-4d94-b24f-b4b60160f4f8" d="m183.01,83.01c.87,8.68,3.14,17.14,5.12,25.62,2.69,11.54,8.78,22.51,9.15,34.35.13,4.09,1.26,10.21-2.4,12.03-2.84,1.42-8.61.43-8.58-4.14.03-3.74,5.65-5.67,6.87-1.71" style="fill:none; stroke:#55a; stroke-linecap:round; stroke-linejoin:round; stroke-width:2px;"/><path id="uuid-7a5d0ee6-9cbf-467d-9961-ed211b1d4a76" d="m188.19,85.2c2.24,12.56,7.24,24.45,9.97,36.89,2.04,9.33,5.6,19.28,4.78,28.27-.43,4.66-4.48,10.7-9.3,11.13-5.57.51-12.78-3.34-12.89-10.73-.07-4.67,5.67-9.81,10.43-9.77,2.87.02,4.64,3.54,6.18,5.98" style="fill:none; stroke:#55a; stroke-linecap:round; stroke-linejoin:round; stroke-width:2px;"/><path id="uuid-c4a290bf-6e92-4fad-9536-8b6165d62888" d="m193.37,87.2c1.9,11.08,6.32,21.56,8.96,32.47,2.38,9.84,7.59,19.71,6.2,29.74-.53,3.84-2.69,7.51-5.39,10.32" style="fill:none; stroke:#55a; stroke-linecap:round; stroke-linejoin:round; stroke-width:2px;"/><path id="uuid-d2696360-5ed0-4345-b381-c03e40fb2d8b" d="m200.13,89.79c1.75,10.61,5.82,20.68,8.25,31.13,2.19,9.44,7,18.91,5.71,28.51-.49,3.66-2.45,7.17-4.97,9.89" style="fill:none; stroke:#55a; stroke-linecap:round; stroke-linejoin:round; stroke-width:2px;"/><path id="uuid-8c231037-fb46-457f-93d3-021e77e39d02" d="m205.69,91.88c1.75,10.35,5.82,20.14,8.25,30.33,2.19,9.19,7,18.41,5.71,27.78-.49,3.58-2.47,7-4.97,9.64" style="fill:none; stroke:#55a; stroke-linecap:round; stroke-linejoin:round; stroke-width:2px;"/><path id="uuid-16c3f5c2-3de5-4c86-b55f-b0a35c857fa1" d="m211.67,94.57c1.75,10,5.82,19.42,8.25,29.26,2.19,8.87,6.99,17.75,5.71,26.8-.49,3.48-2.5,6.78-4.97,9.3" style="fill:none; stroke:#55a; stroke-linecap:round; stroke-linejoin:round; stroke-width:2px;"/><path id="uuid-9f1c00cb-2c0c-482f-8506-d20a5e4d1dfe" d="m217.45,94.57c1.75,10,5.82,19.42,8.25,29.26,2.19,8.87,6.99,17.75,5.71,26.8-.49,3.48-2.5,6.78-4.97,9.3" style="fill:none; stroke:#55a; stroke-linecap:round; stroke-linejoin:round; stroke-width:2px;"/><path id="uuid-837f6bdf-97ac-4382-a170-fd622bf7a5a7" d="m223.03,95.96c1.76,9.8,5.82,19.01,8.25,28.64,2.19,8.67,6.98,17.37,5.71,26.22-.49,3.42-2.52,6.65-4.97,9.1" style="fill:none; stroke:#55a; stroke-linecap:round; stroke-linejoin:round; stroke-width:2px;"/><path id="uuid-4f6387b2-52af-43fc-8b9b-ddb66eedb4c1" d="m228.81,97.06c1.76,9.62,5.8,18.65,8.25,28.1,2.18,8.36,6.89,16.72,5.74,25.28-.47,3.51-2.45,6.89-5,9.38" style="fill:none; stroke:#55a; stroke-linecap:round; stroke-linejoin:round; stroke-width:2px;"/><path id="uuid-73f96cfb-2733-45bb-ba97-eb462814b1dd" d="m233.99,96.86c1.76,9.62,5.8,18.65,8.25,28.1,2.18,8.36,6.89,16.72,5.74,25.28-.47,3.51-2.45,6.89-5,9.38" style="fill:none; stroke:#55a; stroke-linecap:round; stroke-linejoin:round; stroke-width:2px;"/><path id="uuid-0c00ce49-f497-45ef-83fa-bab557f54432" d="m239.17,97.26c1.76,9.62,5.8,18.65,8.25,28.1,2.18,8.36,6.89,16.72,5.74,25.28-.47,3.51-2.45,6.89-5,9.38" style="fill:none; stroke:#55a; stroke-linecap:round; stroke-linejoin:round; stroke-width:2px;"/><path id="uuid-c7de67dc-5f67-44de-9d3d-9c122924c5df" d="m244.55,97.06c1.76,9.62,5.8,18.65,8.25,28.1,2.18,8.36,6.89,16.72,5.74,25.28-.47,3.51-2.45,6.89-5,9.38" style="fill:none; stroke:#55a; stroke-linecap:round; stroke-linejoin:round; stroke-width:2px;"/></g><path id="uuid-96605825-e673-49cf-a135-cd2a0c53341f" d="m192.64,162.55s-2.91,5-4.67,7.29c-2.81,3.66-5.91,7.13-9.34,10.21-2.74,2.47-5.72,4.69-8.9,6.56-2.72,1.6-5.69,2.74-8.61,3.94-2.35.97-7.15,2.63-7.15,2.63" style="fill:none; stroke:#55a; stroke-linecap:round; stroke-linejoin:round; stroke-width:2px;"/><path id="uuid-bdd3b921-9857-4d15-b6af-c8bb3e00a4b5" d="m197.31,160.37h88.4" style="fill:none; stroke:#55a; stroke-linecap:round; stroke-linejoin:round; stroke-width:2px;"/><path id="uuid-549fc2ce-6da5-4df8-af84-2b8aa5e359d5" d="m154.76,174.81l4.96,14.73" style="fill:none; stroke:#55a; stroke-linecap:round; stroke-linejoin:round; stroke-width:2px;"/><path id="uuid-2cc5842d-31bd-4915-8bb1-8f91636684e8" d="m147.86,176.12s3.39,11.28,5.11,16.92c.72,2.38,1.56,4.74,2.19,7.15,1.47,5.68,2.86,11.4,3.65,17.21.65,4.83.75,9.72.88,14.59.25,10.06-.29,30.2-.29,30.2h0" style="fill:none; stroke:#55a; stroke-linecap:round; stroke-linejoin:round; stroke-width:2px;"/><path id="uuid-2c0a71ac-a890-4fb6-9aca-a8cf4a9c18d3" d="m155.45,200.84s8.84-3.14,12.97-5.32c4.17-2.19,8.15-4.78,11.82-7.73,3.03-2.44,5.78-5.23,8.31-8.17,1.73-2,3.18-4.23,4.67-6.42,1.23-1.81,3.5-5.54,3.5-5.54,0,0,28.5.16,42.74,0,6.61-.07,19.84-.44,19.84-.44,0,0-9.91,10.59-14.3,16.34-2.83,3.71-5.38,7.64-7.73,11.67-2.48,4.24-4.74,8.62-6.71,13.13-1.85,4.23-3.32,8.61-4.76,12.99-1.32,4.04-2.78,8.07-3.56,12.24-1.16,6.24-1.6,18.96-1.6,18.96l-12.84-18.82s2.21-9.34,3.79-13.86c1.42-4.05,3.32-7.91,5.11-11.82,2-4.37,4-8.75,6.27-12.98,1.98-3.69,6.42-10.79,6.42-10.79h-25.82s-4.58,5.64-7.03,8.32c-2.69,2.93-5.39,5.89-8.43,8.46-3.23,2.72-6.71,5.17-10.36,7.29-3.25,1.89-6.77,3.29-10.21,4.81-2.89,1.28-8.75,3.65-8.75,3.65l-3.35-15.98Z" style="fill:#ff5; stroke:#55a; stroke-linecap:round; stroke-linejoin:round; stroke-width:2px;"/><path id="uuid-93f6c26c-af8e-4a35-aa80-06467bede4c2" d="m240.43,167.96l-11.03,16.18" style="fill:none; stroke:#55a; stroke-linecap:round; stroke-linejoin:round; stroke-width:2px;"/><path id="uuid-27a3d972-9490-4179-b8a6-64520ef930d2" d="m243.84,184.87l-14-.29" style="fill:none; stroke:#55a; stroke-linecap:round; stroke-linejoin:round; stroke-width:2px;"/><path id="uuid-6672c019-de84-4109-bac3-2bccafb73951" d="m222.69,195.52l14,.44" style="fill:none; stroke:#55a; stroke-linecap:round; stroke-linejoin:round; stroke-width:2px;"/><path id="uuid-7bc72e47-7c52-4574-9489-17eae9e36b76" d="m217.29,208.07l12.4.15" style="fill:none; stroke:#55a; stroke-linecap:round; stroke-linejoin:round; stroke-width:2px;"/><path id="uuid-f4b57366-97ac-4a04-8690-a8e89c4968f6" d="m212.04,221.05l13.13-.29" style="fill:none; stroke:#55a; stroke-linecap:round; stroke-linejoin:round; stroke-width:2px;"/><path id="uuid-28e9327b-cb1b-468f-a58a-0a08003ffc95" d="m208.69,234.18l12.69-.29" style="fill:none; stroke:#55a; stroke-linecap:round; stroke-linejoin:round; stroke-width:2px;"/><path id="uuid-bdcd96ce-6e7a-4f3d-bd15-1b1f2a7c9140" d="m258.08,364.91s-5.19-7.65-7.67-11.54c-2.21-3.46-4.46-6.9-6.42-10.5-3.06-5.64-5.97-11.39-8.31-17.36-2.58-6.59-4.54-13.42-6.27-20.28-1.11-4.37-1.89-8.82-2.63-13.27-.78-4.69-1.63-9.4-1.9-14.15-.47-8.45-.25-16.96.58-25.38.64-6.4,1.71-12.78,3.37-18.99,1.18-4.43,2.94-8.7,4.66-12.95,1.64-4.05,3.42-8.06,5.4-11.96,2.01-3.98,4.3-7.82,6.56-11.67,2.17-3.69,4.25-7.44,6.71-10.94,4.42-6.28,9.43-12.13,14.44-17.94,2.2-2.56,6.87-7.45,6.87-7.45l12.1-.14s-10.69,8.84-15.61,13.71c-2.23,2.21-4.27,4.59-6.27,7-3.06,3.68-5.94,7.5-8.75,11.38-1.52,2.1-3.03,4.2-4.38,6.42-3.74,6.18-7.15,12.57-10.21,19.11-1.46,3.12-2.75,6.33-3.89,9.58-1.21,3.46-2.26,6.99-3.12,10.56-1.17,4.85-2.29,9.75-2.76,14.72-.83,8.66-.8,17.43-.15,26.11.42,5.6,1.46,11.14,2.63,16.63,1.21,5.68,2.75,11.3,4.54,16.83,1.85,5.72,4.01,11.35,6.4,16.86,1.01,2.33,2.12,4.63,3.36,6.86.98,1.76,2.09,3.44,3.21,5.11,1.42,2.11,2.92,4.16,4.44,6.2,3.34,4.48,10.29,13.25,10.29,13.25l-7.21,4.21Z" style="fill:#ff5; stroke:#55a; stroke-linecap:round; stroke-linejoin:round; stroke-width:2px;"/><path id="uuid-2405c49f-ddc1-457d-bf2c-2f253ccd3ee0" d="m286.59,160.22l15.75,14.73,7.88,8.32,18.67,19.69" style="fill:none; stroke:#55a; stroke-linecap:round; stroke-linejoin:round; stroke-width:2px;"/><path id="uuid-45ba7eef-f690-4acf-95c9-2594b043f19e" d="m329.5,39.22l-27.77,27.44,1.03,108.56,26.74,28.3V39.22Z" style="fill:#ff5; stroke:#55a; stroke-linecap:round; stroke-linejoin:round; stroke-width:2px;"/><path id="uuid-05c9cbdd-78ed-4370-9378-e0beb7def1f0" d="m309.49,182.39l.08-113.05,19.93-17.95v152.28l-20.01-21.28Z" style="fill:#f55; stroke:#55a; stroke-linecap:round; stroke-linejoin:round; stroke-width:2px;"/><path id="uuid-9688cf63-0bcd-44bd-902f-0d7fe6cf60cd" d="m301.32,84.19l-5.57-1.65s-4.05-3.95-5.78-6.19c-2.83-3.67-6.05-7.33-7.43-11.76-.8-2.56-.31-8.05-.31-8.05,0,0-6.25,6.29-8.81,9.89-2.11,2.96-3.9,6.16-5.32,9.51-1.31,3.11-2.18,6.4-2.89,9.7-.7,3.27-1.28,6.6-1.32,9.95-.05,4.13.34,8.32,1.32,12.33.67,2.75,1.87,5.36,3.09,7.92,1.32,2.76,2.86,5.41,4.54,7.96,1.89,2.87,6.19,8.25,6.19,8.25,0,0,1.95-5.21,3.3-7.63,2.28-4.1,4.89-8.08,8.05-11.55,2-2.2,4.04-4.68,6.81-5.78,1.28-.51,4.13-.21,4.13-.21v-22.69Z" style="fill:none; stroke:#55a; stroke-linecap:round; stroke-linejoin:round; stroke-width:2px;"/><path id="uuid-723e4140-5c84-4f98-a7dd-6d5397b04579" d="m295.95,107.09s-1.7-3.09-2.28-4.74c-.65-1.88-1.19-3.83-1.3-5.81-.16-2.72.13-5.5.84-8.13.58-2.13,2.74-6.02,2.74-6.02,0,0-5.11-4.74-7.25-7.47-2.47-3.14-6.41-10.13-6.41-10.13,0,0-4.18,4.89-5.85,7.63-1.67,2.74-3.07,5.66-4.09,8.7-1.13,3.39-1.82,6.95-2.19,10.5-.27,2.6-.28,5.24,0,7.84.31,2.87.89,5.74,1.86,8.46.77,2.17,2.01,4.16,3.09,6.19,1.05,1.96,2.07,3.93,3.3,5.78,1.15,1.73,3.8,4.96,3.8,4.96,0,0,3.77-7.07,6.24-10.21,2.19-2.79,7.5-7.54,7.5-7.54h0Z" style="fill:#ff5; stroke:#55a; stroke-linecap:round; stroke-linejoin:round; stroke-width:2px;"/><path id="uuid-897e89f6-175d-4e5a-9271-8b857e636ada" d="m289.77,77.8s-2.67,3.4-3.51,5.36c-.94,2.19-1.31,4.61-1.61,6.97-.41,3.24-.67,6.55-.25,9.78.35,2.68,1.07,5.37,2.28,7.79.82,1.65,3.32,4.42,3.32,4.42" style="fill:none; stroke:#55a; stroke-linecap:round; stroke-linejoin:round; stroke-width:2px;"/><path id="uuid-a00478bd-9e19-4190-82ac-0af2049d0100" d="m287.08,72.64h-4.33c.31,3.41,1.04,6.66,2.68,9.49-2.92.04-5.58.49-8.25,1.86,1.48,3.48,4.54,5.04,6.85,6.27-2.62.88-5.65,2.67-7.52,4.54,2.23,2.2,4.95,3.74,7.68,4.86-2.7,1.39-5.4,3.11-7.18,5.66,2.17,1.59,6.08,3,8.83,3.01-2.26,2.53-3.28,4.73-4.54,7.84,1.58.14,3.16.28,4.74.41" style="fill:none; stroke:#55a; stroke-linecap:round; stroke-linejoin:round; stroke-width:2px;"/><path id="uuid-7bf886c6-d3e4-43f8-881c-3c279c961065" d="m161.9,127.88s2.5-.38,3.35-.16,1.3.55,1.67,1.1c.67.99.88,2.31.74,3.51-.15,1.28-.65,2.71-1.64,3.48-1.57,1.21-3.82,1.21-5.73.94-1.84-.27-3.39-1.55-5.04-2.43-1.11-.59-2.12-1.41-3.27-1.91-1.28-.55-2.62-1.14-4.01-1.17-.85-.02-2.24-.26-2.51.6-.21.65.69,1.23,1.27,1.51,1.57.77,3.52-.19,5.22.18,1.86.4,3.48,1.59,5.29,2.18,1.7.56,3.41,1.47,5.19,1.31,1.47-.13,3.02-.74,4.09-1.83.72-.73,1.17-1.82,1.27-2.86.1-1.08-.12-2.29-.75-3.13-.79-1.06-2.44-1.83-3.39-1.91s-1.74.6-1.74.6h0Z" style="fill:#55a; stroke:#55a; stroke-linecap:round; stroke-linejoin:round; stroke-width:2px;"/><path id="uuid-6eec65be-e234-4934-a002-9c2ddc91315d" d="m148.9,119.18c1.1-.24,2.55,1.3,3.05,2.3.66,1.31-.14,3.33-1.25,4.22-1.49,1.2-3.82.76-5.61.2-1.5-.47-2.4-2.24-3.86-2.84-.88-.36-1.99-.88-2.82-.38-.49.29-.91,1.09-.68,1.63.33.77,1.51.55,2.28.73,1.06.26,2.19.2,3.24.54,1.19.38,2.15,1.53,3.38,1.65,1.4.14,3.09-.05,4.09-1.1,1.08-1.13,1.69-3.16,1.18-4.67-.42-1.23-3-2.27-3-2.27h0Z" style="fill:#55a; stroke:#55a; stroke-linecap:round; stroke-linejoin:round; stroke-width:2px;"/><path id="uuid-26d82097-62fb-46c8-a478-fe8cb47dead4" d="m138.61,79.3s-.3,5.56,0,8.31c.28,2.59,1.35,5.06,1.66,7.65.23,1.87.51,3.8.17,5.65-1.36,7.27-6.55,13.34-8.64,20.44-.36,1.24-1.21,2.65-.66,3.82,1.19,2.57,5.66,2.03,7.31,4.32,1.23,1.7,1.33,4.05,1.33,6.15,0,.79-.5,2.33-.5,2.33,2.49-.12,4.79.34,7.15.5,2.8.19,6.25.08,8.14,2.16.45.5.33,1.99.33,1.99,0,0-2.56-1.57-3.99-1.99-3.63-1.09-7.5-.43-11.3-1.33-.65-.15.12,1.88.17,2.83.12,2.33.56,4.66.33,6.98-.09.91-.66,2.66-.66,2.66" style="fill:none; stroke:#55a; stroke-linecap:round; stroke-linejoin:round; stroke-width:2px;"/><path id="uuid-bceccebf-5048-4190-99e4-fa69d1b3b9a9" d="m146.14,87.98c.49-.72,5.26-.36,7.88-.27,3.15.11,6.38.01,9.37.97,3.4,1.09,6.37,3.27,9.29,5.32,1.12.79,3.12,2.66,3.12,2.66,0,0-5.6-4.17-8.81-5.56-2.47-1.08-5.17-1.7-7.88-2.11-2.65-.4-5.4-.09-8.07-.33-1.65-.15-5.84.71-4.9-.68h0Z" style="fill:none; stroke:#55a; stroke-linecap:round; stroke-linejoin:round; stroke-width:2px;"/><path id="uuid-49ddd25e-91c2-49a1-b9f4-dece2c221f5b" d="m151.7,95.11s6.37-.04,9.41.78c4.43,1.2,12.43,5.94,12.43,5.94" style="fill:none; stroke:#55a; stroke-linecap:round; stroke-linejoin:round; stroke-width:2px;"/><path id="uuid-127dd43b-df76-41f2-9e08-010dd3c429d4" d="m149.45,99.9s6.15-.93,9.13-.31c4.5.94,12.43,5.94,12.43,5.94" style="fill:none; stroke:#55a; stroke-linecap:round; stroke-linejoin:round; stroke-width:2px;"/><path id="uuid-ec5e13af-11f1-4ec9-89b2-f02eb38237f8" d="m148.23,109.11c3.7.45,5.15,4.48,8.4,5.6" style="fill:none; stroke:#55a; stroke-linecap:round; stroke-linejoin:round; stroke-width:2px;"/><path id="uuid-f906e723-1a77-4e06-8f16-172f5edb9b35" d="m168.14,106.79s-2.62-3.2-4.31-4.35c-1.25-.85-2.68-1.49-4.15-1.78-1.94-.39-3.98-.28-5.94.06-1.23.22-2.36.84-3.55,1.24-.48.16-1.45.46-1.45.46,0,0,1.13,2.57,2.06,3.59.91,1,2.1,1.79,3.31,2.33,1.77.79,3.71,1.38,5.64,1.28,2.94-.15,8.39-2.84,8.39-2.84Z" style="fill:none; stroke:#55a; stroke-linecap:round; stroke-linejoin:round; stroke-width:2px;"/><path id="uuid-c4dfa147-789a-43df-b751-d5561179d372" d="m152.6,104.39c.26-2.02,2.56-3.33,5.13-2.93s4.45,2.36,4.18,4.37-2.56,3.33-5.13,2.93-4.45-2.36-4.18-4.37Z" style="fill:none; stroke:#55a; stroke-linecap:round; stroke-linejoin:round; stroke-width:2.22px;"/><path id="uuid-162d1399-1023-4bf5-b0a7-446764c3bab0" d="m154.39,104.53c.11-.84.95-1.4,1.88-1.26s1.6.94,1.49,1.78-.95,1.4-1.88,1.26-1.6-.94-1.49-1.78Z" style="fill:#55a; stroke:#55a; stroke-linecap:round; stroke-linejoin:round; stroke-width:2.13px;"/><path id="uuid-47aca94a-4890-49f6-830a-976b38857e50" d="m146.91,97c1.09.73,1.09,2.83,1.64,4.24" style="fill:none; stroke:#55a; stroke-linecap:round; stroke-linejoin:round; stroke-width:2px;"/><path id="uuid-fd89169a-61cf-487d-90da-8ef9fea75a75" d="m237.58,179.47l3.8-6.49,8.06-1.12-4.25,6.71-7.61.9Z"/><path id="uuid-1df8bd7a-f2ae-40f9-93f7-a73f1625d2d5" d="m227.76,190.03l6.17-4.28,5,4.33-6.5,4.21-4.68-4.25Z"/><path id="uuid-a307cafb-f54f-453e-94ce-5affc8cfc62f" d="m221.25,202.09l6.17-4.28,5,4.33-6.5,4.21-4.68-4.25Z"/><path id="uuid-f8ff864d-c963-4f48-92ce-cabb0a2924d3" d="m215.88,214.4l6.17-4.28,5,4.33-6.5,4.21-4.68-4.25Z"/><path id="uuid-b0204fc2-ddd6-4df7-b342-c18f1b0621a1" d="m211.23,227.91l5.54-5.08,5.54,3.61-5.87,5.05-5.21-3.58Z"/><path id="uuid-581fb66e-a027-4291-9c87-cc47bdece8dd" d="m221.41,175.27l5.22-5.48,4.66,5.47-5.02,6.29-4.86-6.27Z"/><path id="uuid-b9c4d566-d8e5-468f-bd74-695b30db5062" d="m209.76,175.55l4.64-5.98,5.19,4.97-4.36,6.76-5.47-5.75Z"/><path id="uuid-23e03b59-c33c-4e57-b7da-4897ce2b2990" d="m196.95,177.97l2.99-6.95,6.27,3.51-2.53,7.64-6.73-4.2Z"/><path id="uuid-ed1c4ff1-560d-422c-998a-fd61c2a1fec0" d="m189.03,189.21l-.2-7.57,7.16.56.91,7.99-7.87-.98Z"/><path id="uuid-9007b683-6af5-46b8-999c-ca0e7d209d15" d="m180.23,197.4l-.03-7.57,7.15.72.73,8.01-7.85-1.16Z"/><path id="uuid-754860d5-e9a2-47ee-abc6-9b5c682c7b71" d="m170.11,203.22l2.02-7.3,6.69,2.62-1.46,7.91-7.24-3.24Z"/><path id="uuid-d011e833-375d-43e9-920d-26c0d263018e" d="m159.73,208.06l2.43-7.17,6.53,3-1.91,7.81-7.05-3.64Z"/><path id="uuid-6b8d1f49-2f53-4223-9701-05164bb20af7" d="m238.22,226.32l37.79,49.02" style="fill:#ff5; stroke:#55a; stroke-linecap:round; stroke-linejoin:round; stroke-width:2px;"/><path id="uuid-18cfb736-cba4-4cc0-b359-fbe80606b54b" d="m295.17,256.18l-43.48-58.6c-5,6.6-7.89,13.51-11.39,20.71l40.71,52.09,14.16-14.2Z" style="stroke:#55a; stroke-linecap:round; stroke-linejoin:round; stroke-width:2px;"/><path id="uuid-fa616fcf-a1ff-40e3-8cf0-203fd1772ab2" d="m255.8,193.02l43.7,59.87" style="fill:#ff5; stroke:#55a; stroke-linecap:round; stroke-linejoin:round; stroke-width:2px;"/><path id="uuid-862f5d9f-dff6-4a7e-a2a2-424184f68416" d="m265.91,180.3l47.14,62.86" style="fill:#ff5; stroke:#55a; stroke-linecap:round; stroke-linejoin:round; stroke-width:2px;"/><path id="uuid-24334ff4-8457-44d0-b400-179c4ea8092e" d="m270.4,175.44l47.41,64.16" style="fill:#ff5; stroke:#55a; stroke-linecap:round; stroke-linejoin:round; stroke-width:2px;"/><path id="uuid-7d921c39-81aa-4bb6-9344-725c81b158bd" d="m313.22,243.42l15.54-11.49" style="fill:#ff5; stroke:#55a; stroke-linecap:round; stroke-linejoin:round; stroke-width:2px;"/><path id="uuid-108d8410-889b-4744-8f1c-90f6f9bfc82d" d="m299.28,253.11s-2.85,2.29-4.19,3.52c-4.68,4.29-9.07,8.9-13.47,13.47-1.96,2.03-3.94,4.06-5.76,6.21-3.51,4.14-6.83,8.43-9.95,12.87-2.86,4.07-5.45,8.31-8.01,12.57-2.17,3.61-4.28,7.26-6.21,11-1.08,2.08-2.08,4.2-2.99,6.36-1.37,3.21-3.74,9.79-3.74,9.79" style="fill:none; stroke:#55a; stroke-linecap:round; stroke-linejoin:round; stroke-width:2px;"/><path id="uuid-2a0cbf16-df55-4f9e-bb8f-4b11fc14cb1b" d="m241.21,242.79l25.82,33.67s-8.54,10.9-12.2,16.76c-3.59,5.77-9.5,18.03-9.5,18.03,0,0-4.27-9.3-5.61-14.22-1.69-6.21-2.56-12.66-2.99-19.08-.41-6.1-.42-12.27.37-18.33.75-5.73,4.12-16.84,4.12-16.84h0Z" style="fill:#fff; stroke:#55a; stroke-linecap:round; stroke-linejoin:round; stroke-width:2px;"/><path id="uuid-d72e4bb4-995f-42e1-b94a-57b38e33c145" d="m245.33,259.62s-.98,9.73-.75,14.59c.28,6.02,2.62,17.89,2.62,17.89l10.48-16.01-12.35-16.46Z" style="fill:#55a;"/><path id="uuid-15b610ab-d4c0-4361-886e-203f91b76965" d="m247.18,209.58c1.46-.65,3.15-1.19,4.7-.85,2.85.61,5.44,2.63,7.19,4.95,1.69,2.23,2.3,5.17,2.7,7.94.32,2.23-.32,4.49-.3,6.74.02,1.5.02,3.02.3,4.5.21,1.13,1.05,3.3,1.05,3.3,0,0,.52-3.34,1.5-4.65.8-1.07,2-1.97,3.3-2.25,1.34-.28,2.83.11,4.05.75,1.06.56,2.09,1.44,2.55,2.55.34.82.3,1.82,0,2.65-.24.65-.72,1.29-1.35,1.6-.52.26-1.75.1-1.75.1,0,0,.88-1.48.69-2.25-.23-.98-1.13-1.88-2.1-2.19-.92-.29-2.12-.09-2.85.54-1.07.94-1.29,2.63-1.35,4.05-.05,1.23.32,2.51.9,3.6.6,1.13,1.48,2.15,2.55,2.85,1.89,1.23,4.27,1.5,6.44,2.1,1.73.48,3.62.43,5.25,1.2,1.26.59,2.27,1.62,3.3,2.55,1.02.92,2.09,1.85,2.85,3,.63.95,1.12,2.03,1.35,3.15.19.93.18,1.92,0,2.85-.28,1.43-.8,2.86-1.65,4.05-.31.43-1.2,1.05-1.2,1.05,0,0,.7-2.39.6-3.6-.09-1.05-.45-2.12-1.05-3-.48-.71-1.14-1.4-1.95-1.7-.84-.31-1.83-.18-2.7.05-.58.15-1.22.38-1.6.85-.52.66-.63,1.6-.65,2.44-.01.41.11.82.25,1.2.19.5.79,1.4.79,1.4,0,0-1.75-.38-2.39-.95-.63-.57-.99-1.42-1.2-2.25-.25-1.02-.3-2.14,0-3.15.25-.84.77-1.64,1.45-2.2.64-.53,1.48-.8,2.3-.95.64-.12,1.95.05,1.95.05,0,0-2.16-1.02-3.3-1.4-1.42-.47-2.92-.61-4.35-1.05-1.22-.38-2.4-.89-3.6-1.35-1.15-.44-2.39-.72-3.45-1.35-1.07-.63-2.02-1.48-2.85-2.4-1.13-1.26-2.02-2.72-2.85-4.2-.77-1.39-1.49-2.83-1.95-4.35-.45-1.5-.51-3.1-.75-4.65-.21-1.35-.42-2.7-.6-4.05-.17-1.25-.25-2.5-.45-3.75-.16-1.01-.16-2.08-.6-3-.37-.77-.96-1.45-1.65-1.95-.74-.54-1.63-1.03-2.55-1.05-.87-.02-1.83.29-2.45.9-.5.49-.69,1.25-.75,1.95-.07.81.5,2.4.5,2.4,0,0-2.13-1.14-2.7-2.14-.39-.69-.45-1.58-.3-2.35.16-.79.63-1.53,1.2-2.1.49-.49,1.15-.81,1.8-1.05,1.33-.48,4.18-.7,4.18-.7,0,0-2.2-1.8-3.49-2.35-.78-.34-1.64-.48-2.49-.55-.9-.07-2.69.15-2.69.15,0,0,1.34-1.32,2.18-1.7h0Z" style="fill:#ff5;"/><path id="uuid-20f1f78b-4847-4065-a870-9560688dc7b6" d="m328.88,284.68s-5.58,3.57-8.17,5.62c-3.87,3.07-7.61,6.34-10.98,9.96-2.73,2.93-5.24,6.08-7.4,9.45-2.7,4.19-6.89,13.28-6.89,13.28" style="fill:none; stroke:#000; stroke-linecap:round; stroke-linejoin:round; stroke-width:2px;"/><path id="uuid-75319757-18f3-4d6f-bbad-313259d914b3" d="m279.75,330.04s3.71-8.16,5.72-12.17c1.71-3.39,3.4-6.79,5.39-10.02,2.33-3.78,4.82-7.48,7.63-10.92,2.97-3.65,6.22-7.09,9.7-10.26,3.36-3.05,7-5.79,10.72-8.38,2.13-1.48,4.44-2.7,6.64-4.09,1.2-.75,3.57-2.3,3.57-2.3" style="fill:none; stroke:#000; stroke-linecap:round; stroke-linejoin:round; stroke-width:2px;"/><path id="uuid-13ee75af-dd01-4d05-b4a0-ed8f6eb3de81" d="m328.63,264.25s-10.54,6.58-15.58,10.21c-4.08,2.94-8.18,5.91-11.85,9.35-3.96,3.71-7.54,7.82-10.88,12.1-3.28,4.21-6.16,8.72-8.94,13.28-3.03,4.98-5.79,10.12-8.43,15.32-1.87,3.69-5.23,11.27-5.23,11.27" style="fill:none; stroke:#000; stroke-linecap:round; stroke-linejoin:round; stroke-width:2px;"/><path id="uuid-700fc611-c422-4bc6-b0c2-3e9c6bfbbeed" d="m251.81,341.54s4.51-10.36,6.85-15.5c2.41-5.3,4.63-10.71,7.4-15.83,2.92-5.38,6.15-10.6,9.7-15.58,3.45-4.82,7.17-9.47,11.23-13.79,4.04-4.3,8.5-8.21,13.02-12,4.42-3.7,9.09-7.12,13.79-10.47,3.75-2.67,7.56-5.26,11.49-7.66,1.04-.64,3.19-1.79,3.19-1.79v-5.62s-11.56,6.62-16.98,10.47c-5.18,3.67-10.02,7.82-14.81,12-4.49,3.92-8.95,7.91-13.02,12.26-4.3,4.59-8.29,9.48-12,14.55-3.52,4.82-6.8,9.85-9.7,15.06-2.8,5.02-5.04,10.34-7.4,15.58-2,4.42-5.72,13.38-5.72,13.38l2.96,4.93Z"/><path id="uuid-286e696d-aee0-4ac0-8240-25f46dff1a10" d="m265.76,336.34l-6.45-11.33,14.35-2.3-8.04-14.49,15.53.72-6.5-14.62,15.35,1.62-2.89-16.79,13.9,3.97-1.26-15.17,13.18,5.78,1.26-16.43,11.74,7.04,2.43-15.75" style="fill:none; stroke:#000; stroke-linecap:round; stroke-linejoin:round; stroke-width:2px;"/><path id="uuid-a2b1e449-367a-4cbf-9037-5ce0dc15f819" d="m324.56,257c0,1.1-.9,2-2,2s-2-.9-2-2,.9-2,2-2,2,.9,2,2Z"/><path id="uuid-ca3be020-8397-4f08-bfca-854305c97905" d="m310.84,266.43c0,1.1-.9,2-2,2s-2-.9-2-2,.9-2,2-2,2,.9,2,2Z"/><path id="uuid-7cf41c8b-d90d-4ceb-9d52-c33b52cc65b5" d="m298.45,276.57c0,1.1-.9,2-2,2s-2-.9-2-2,.9-2,2-2,2,.9,2,2Z"/><path id="uuid-1ff8b9c7-090f-4375-ac7c-b11b9ea8a5b8" d="m285.83,290.09c0,1.1-.9,2-2,2s-2-.9-2-2,.9-2,2-2,2,.9,2,2Z"/><path id="uuid-b10e924d-dc03-4dc3-8e73-a4815ff494ab" d="m276.14,304.51c0,1.1-.9,2-2,2s-2-.9-2-2,.9-2,2-2,2,.9,2,2Z"/><path id="uuid-ed998a7b-2974-4018-8463-6c86d27dda3d" d="m267.81,318.7c0,1.1-.9,2-2,2s-2-.9-2-2,.9-2,2-2,2,.9,2,2Z"/><path id="uuid-34d5180d-42cc-4022-a009-14d09747c480" d="m261.05,333.8c0,1.1-.9,2-2,2s-2-.9-2-2,.9-2,2-2,2,.9,2,2Z"/><path id="uuid-20b48cf0-4d3c-4ce8-98ea-88bd78a9bf59" d="m291.47,321.18c0,1.1-.9,2-2,2s-2-.9-2-2,.9-2,2-2,2,.9,2,2Z" style="fill:#55a;"/><path id="uuid-dfcbfec1-4a66-4acf-9665-5ebde9d26b2b" d="m294.62,315.55c0,1.1-.9,2-2,2s-2-.9-2-2,.9-2,2-2,2,.9,2,2Z" style="fill:#55a;"/><path id="uuid-057e918b-0000-4112-b210-9a99f94f896e" d="m297.93,310.07c0,1.1-.9,2-2,2s-2-.9-2-2,.9-2,2-2,2,.9,2,2Z" style="fill:#55a;"/><path id="uuid-5203e774-1507-4b1d-80d5-bf9f11578097" d="m301.54,304.34c0,1.1-.9,2-2,2s-2-.9-2-2,.9-2,2-2,2,.9,2,2Z" style="fill:#55a;"/><path id="uuid-7210338d-7d28-40d0-a429-f7840ecef202" d="m305.46,298.96c0,1.1-.9,2-2,2s-2-.9-2-2,.9-2,2-2,2,.9,2,2Z" style="fill:#55a;"/><path id="uuid-4eedb38a-fd43-45eb-900a-1e1dfbff90b7" d="m310.28,293.8c0,1.1-.9,2-2,2s-2-.9-2-2,.9-2,2-2,2,.9,2,2Z" style="fill:#55a;"/><path id="uuid-16109aa9-37f6-41ff-b036-02af47331069" d="m315.43,289.41c0,1.1-.9,2-2,2s-2-.9-2-2,.9-2,2-2,2,.9,2,2Z" style="fill:#55a;"/><path id="uuid-3340aff3-b0c2-43a6-b3fe-188e901d5f74" d="m320.59,285.17c0,1.1-.9,2-2,2s-2-.9-2-2,.9-2,2-2,2,.9,2,2Z" style="fill:#55a;"/><path id="uuid-c3466b41-1b9c-4515-b3bf-d1f87882a4ea" d="m326.19,281.13c0,1.1-.9,2-2,2s-2-.9-2-2,.9-2,2-2,2,.9,2,2Z" style="fill:#55a;"/><g id="uuid-d2a4ac36-0a1d-4dfd-a85c-30542c4ef142"><path id="uuid-1b5a693f-621f-4a3b-a897-88e6ef9bb0f1" d="m276.12,355.98s1.81,5.66,2.43,8.56c.31,1.43.58,2.88.64,4.34.12,2.81-1.68,5.87-.51,8.43.29.64.96,1.25,1.66,1.28,2.18.09,4.19-1.82,5.49-3.58,1.62-2.17,2.3-7.79,2.3-7.79,0,0,1.78,7.4,4.73,9.2.25.16.69-.22.89,0,.38.41-.29,1.13-.13,1.66.98,3.25,3.04,6.96,6.26,8.05.79.27,1.83-.05,2.43-.64,1.16-1.15,1.57-3.12,1.28-4.73-.49-2.73-2.74-4.97-4.85-6.77-.22-.19-.63-.13-.77-.38-.35-.64.35-1.45.26-2.17-.19-1.5-1.66-4.21-1.66-4.21l.51-.38s1.37,4.62,2.43,6.77c1.32,2.68,3.23,5.02,4.85,7.53.85,1.32,1.22,3.13,2.55,3.96,1.31.81,3.33,1.38,4.6.51,1.67-1.15,2.1-3.93,1.53-5.87-.46-1.56-2.68-1.97-3.58-3.32-.75-1.13-.79-2.62-1.4-3.83-.49-.96-1.29-1.73-1.79-2.68-.75-1.42-.92-3.12-1.79-4.47-.6-.94-2.3-2.43-2.3-2.43l1.15-.89s1.29,3.61,2.43,5.11c.51.67,1.45.95,1.92,1.66,1.08,1.64.88,3.88,1.79,5.62.87,1.67,1.76,3.64,3.45,4.47.8.39,2.04.62,2.68,0,1.81-1.75.95-5.12.26-7.53-.65-2.27-2.31-4.18-3.96-5.87-.26-.26-.68-.34-.89-.64-.62-.87-.47-2.09-.89-3.07-.53-1.23-1.15-2.45-2.04-3.45-.28-.32-1.02-.77-1.02-.77l1.02-1.02s.5,1.03.77,1.53c.87,1.67,1.45,3.55,2.68,4.98.28.32.83.39,1.02.77.17.34-.12.78,0,1.15.56,1.74,1.6,3.57,3.19,4.47.52.29,1.31.49,1.79.13,1.29-.97,1.15-3.12,1.02-4.73-.24-2.88-1.92-5.45-3.19-8.05-.85-1.73-2.04-3.28-2.94-4.98-1.12-2.12-1.91-4.41-3.07-6.51-1.26-2.3-4.21-6.64-4.21-6.64" style="fill:none; stroke:#55a; stroke-linecap:round; stroke-linejoin:round; stroke-width:2px;"/><path id="uuid-fc63aebb-4f87-4d88-a276-d93564f4986d" d="m279.57,367.6s2.62,1.8,3.19,3.19c.88,2.12,0,6.9,0,6.9" style="fill:none; stroke:#55a; stroke-linecap:round; stroke-linejoin:round; stroke-width:2px;"/><path id="uuid-1291a481-c7a8-4b16-bc62-65d406d4d30c" d="m294.51,349.08s-.88,5.91-2.17,8.56c-.94,1.94-3.96,5.11-3.96,5.11" style="fill:none; stroke:#55a; stroke-linecap:round; stroke-linejoin:round; stroke-width:2px;"/><path id="uuid-8aa97de0-c2e3-4a37-a3ff-3946a57e2fb0" d="m300.51,351.51c-1.53,1.75-3.32,4.38-5.62,6.13" style="fill:none; stroke:#55a; stroke-linecap:round; stroke-linejoin:round; stroke-width:2px;"/><path id="uuid-fe00318a-7a75-4be5-9fd2-97015ba8f9c1" d="m303.71,354.45c-2.64,2.7-4.85,5.11-8.43,8.43" style="fill:none; stroke:#55a; stroke-linecap:round; stroke-linejoin:round; stroke-width:2px;"/></g><g id="uuid-c1c2da5c-eff1-4b7d-a600-d9f84079032a"><path id="uuid-407a5534-db05-46d9-a49d-e5325173330d" d="m181.41,155.26s-2.96,5.16-4.73,7.54c-2.01,2.7-4.07,5.32-6.64,7.6-1.35,1.2-3.45,2.47-5.12,1.78-.29-.12-.42-.86-.42-.86" style="fill:none; stroke:#55a; stroke-linecap:round; stroke-linejoin:round; stroke-width:2px;"/><path id="uuid-4b2d7f6c-55d0-46ae-8b34-d8c3298f6857" d="m139.64,151.22c-3.01,5.97-6.95,8.7-11.99,11.18-2.06,2.51-5.58,4.83-7.62,3.01-1.8-1.61-1.66-6.87,1.9-7.01" style="fill:none; stroke:#55a; stroke-linecap:round; stroke-linejoin:round; stroke-width:2px;"/><path id="uuid-504f5b3e-151f-4d33-801f-ed97bc425dc3" d="m144.52,152.47c-3.58,8.09-11.49,17.33-20.67,18.58-4,.55-9.48-1.59-10.84-5.38-1.63-4.54,1.23-11.21,5.92-13.21,2.92-1.25,6.71-.21,8.6,2.05,1.66,1.99,1.11,5.99.42,7.76" style="fill:none; stroke:#55a; stroke-linecap:round; stroke-linejoin:round; stroke-width:2px;"/><path id="uuid-9e8bd0a4-af36-42f5-942d-d73790b609cb" d="m150.05,153.77c-2.46,6.78-8.68,16.9-16.87,19.48-2.6.82-6.28.73-7.94-2.01" style="fill:none; stroke:#55a; stroke-linecap:round; stroke-linejoin:round; stroke-width:2px;"/><path id="uuid-131f886a-e076-485d-a8fd-0d4a80d80309" d="m156.92,153.5c-2.6,6.81-7.73,16.91-15.45,20.74-2.73,1.35-6.61,1.47-9.14-.08" style="fill:none; stroke:#55a; stroke-linecap:round; stroke-linejoin:round; stroke-width:2px;"/><path id="uuid-486a14e5-eca2-4109-a96d-5ea0d07f14e5" d="m163.41,153.43c-1.75,6.24-7.5,16.03-14.51,20.71-2.59,1.73-6.55,3.5-9.12,2.01" style="fill:none; stroke:#55a; stroke-linecap:round; stroke-linejoin:round; stroke-width:2px;"/><path id="uuid-87eff44a-8e1f-4ffb-b59a-d7992dd238e9" d="m169.99,150.8c-.93,4.75-6.04,15.66-12.19,20.87-1.84,1.56-4.76,4.12-6.77,2.58" style="fill:none; stroke:#55a; stroke-linecap:round; stroke-linejoin:round; stroke-width:2px;"/><path id="uuid-466d157a-1daf-4f3c-9d45-f5339199455d" d="m176.45,150.81c-.98,4.22-4.97,11.21-8.86,16.18-2.04,2.61-5,7.48-8.41,5.28" style="fill:none; stroke:#55a; stroke-linecap:round; stroke-linejoin:round; stroke-width:2px;"/></g><path id="uuid-04c46537-5cfc-4e74-8ec2-2892e8ecdd45" d="m160.82,173.36l5.88,14.4" style="stroke:#55a; stroke-linecap:round; stroke-linejoin:round; stroke-width:2px;"/><g id="uuid-d5aefe85-6617-420b-a171-a9951a70227c"><path id="uuid-d29730ee-a519-4b50-964b-715ba6dde495" d="m211.12,252.5l14.12.25s-1.07,9.82-1.12,14.75c-.06,4.8.21,9.61.75,14.38.46,4.12,1.39,8.17,2.12,12.25.64,3.59,1.19,7.2,2,10.75,1.13,4.93,2.43,9.82,4,14.62,1.16,3.56,2.49,7.07,4,10.5,2.24,5.08,4.73,10.06,7.5,14.88,2.51,4.36,5.34,8.52,8.25,12.62,1.94,2.74,6.12,8,6.12,8l-14,8.62s-.82-4.19-2.38-5.38c-1.83-1.4-4.63-.39-6.84-1.03-1.46-.42-2.74-1.3-4.16-1.84-1.94-.74-5.94-1.92-5.94-1.92,0,0-4.47-11.82-6.44-17.83-2.12-6.48-4.21-12.99-5.75-19.62-1.1-4.74-1.97-9.54-2.5-14.38-.81-7.46-.83-14.99-1-22.5-.14-6.29-.16-12.59,0-18.88.1-4.13.3-8.26.62-12.38.15-1.96.62-5.88.62-5.88Z" style="fill:#55a;"/><path id="uuid-35f65038-c21c-49ac-80d9-4fbb55a0a9e0" d="m212.62,265.38l4.5-5.38,3.75,5.5-4.12,5.75-4.12-5.88Z" style="fill:#fff;"/><path id="uuid-e812280e-4054-40da-b4b4-ed4ec66d1de6" d="m212.38,279.95l3.71-5.95,4.47,4.93-3.29,6.27-4.9-5.25Z" style="fill:#fff;"/><path id="uuid-b5e4608d-9b95-43e6-97c0-7a6c60d04985" d="m213.68,294.31l3.41-6.13,4.72,4.69-2.97,6.42-5.16-4.99Z" style="fill:#fff;"/><path id="uuid-4ede039b-a186-4070-a6bf-7be45f4e68c9" d="m215.17,309.62l4.21-6.93,5.67,5.35-3.68,7.27-6.2-5.69Z" style="fill:#fff;"/><path id="uuid-4e4e8dfd-fdae-452d-801b-4a4597dc7345" d="m218.68,326.45l3.4-7.36,6.24,4.67-2.84,7.64-6.8-4.95Z" style="fill:#fff;"/><path id="uuid-fa374df4-fd6a-4ed2-9dd7-6f3da882072e" d="m223.84,342.54l2.76-8.75,7.52,4.37-2.1,8.98-8.18-4.61Z" style="fill:#fff;"/><path id="uuid-7d7a4c5e-a027-4d5d-a488-a136e9da71f6" d="m232.55,360.64l.51-10.75,9.3,2.73.27,10.82-10.08-2.8Z" style="fill:#fff;"/></g><path id="uuid-f9912254-1d08-4f2a-906b-88f3ff3647d2" d="m139.25,286l18,.25,1-10.12h13.62l-.25,10.62,15.88-.12.5-10h11.38l-.62,17.75v13l-47.12-1.62-12.38-19.75Z"/><path id="uuid-cb73e91d-0a91-48bc-98ed-d94c21ff24e6" d="m200.2,321.98l-13.71,5.68-11.5,6.37-8.73,7.76-6.79,7.34-4.29,5.54-25.07-.55,6.37-11.08,5.96-12.05,5.26-13.02,3.6-12.74,47.65,1.39.42,6.93.83,8.45Z" style="fill:#f55;"/><path id="uuid-608f3ba1-c596-4cdc-a194-0ba4905d5182" d="m88.65,364.24l-15.76,14.41-16.1-14.92-6.61-6.61-19.66-20.51-.51-29.15,11.02-7.97,47.63,64.75Z"/><path id="uuid-4c248438-113b-49fd-a542-02fe15fbefad" d="m128.17,287.01l-3.32,14.04-2.81,12.77-39.07-50.3,6.89-9.45,10.21-14.3,5.36-10.21,4.6-10.47,4.6-11.23,5.11,13.79,3.83,11.75,3.57,18.64,2.04,10.47v9.19l-1.02,15.32Z" style="fill:#55a;"/><path id="uuid-5c253fdd-ae9f-4d3e-9914-0306bd9136db" d="m103.14,191.77l-72.51,31.92v-9.45l61.79-36.26,6.13,7.66,4.6,6.13Z"/><path id="uuid-ff4cd39d-b1bb-4f79-a3fb-8c9d45e1eb7d" d="m106.93,340.86l-3.45,5.46-43.39-59.48,3.74-4.02,43.1,58.04Z" style="fill:#ff5;"/><path id="uuid-da9c24a3-877b-4e9a-9d2c-5fc475c962e5" d="m103.19,346.61l-4.88,6.61-4.88,6.32-47.12-63.5-16.38,11.21v-12.64l16.38-10.06,18.68-15.23,14.94-15.23,10.63-14.94,9.77-17.53,6.9-15.23,2.87-6.9,4.88,8.91-4.6,12.07-11.78,21.26-9.48,12.93-8.62,11.49-10.34,10.06-5.75,6.32-4.88,3.74,43.68,60.34Z" style="fill:#f55;"/><path id="uuid-158ac583-115b-445d-8fd0-c74094c3ca29" d="m63.12,216.09l-4.16,9.55-6.01,8.47-5.85,6.62-6.01,5.39-6.62,5.08-4.78,3.54v-24.49l33.43-14.17Z" style="fill:#f55;"/><path id="uuid-df285a5f-6df1-4607-b128-5b276e76ec86" d="m107.84,197.09l-28.82,11.83-3.04,7.63-5.03,9.2-6.01,10.6-10.42,13.3-10.18,8.47-8,5.02-6.14,3.65-.77,24.69,3.83-1.8,11.72-7.66,14.42-10.81,12.62-11.27,11.94-14.64,9.01-13.74,8.34-16.67,6.76-16.45-.23-1.35Z" style="fill:#ff5;"/><path id="uuid-9863da6f-7674-41e6-b69e-60df6039aaa7" d="m107.56,196.23l-76.93,33.84" style="stroke:#000; stroke-linecap:round; stroke-linejoin:round; stroke-width:2px;"/><g id="uuid-fbae2ad3-7085-4159-a827-e5a68d24a811"><path id="uuid-f396d441-c9e0-4888-b2f2-e789ff14c08c" d="m226.8,476.51s.71-6.15-.6-8.77c-.59-1.18-2.33-1.45-2.99-2.59-.91-1.58-1-5.38-1-5.38,0,0-5.45.28-8.17.4-5.51.23-11.03.82-16.54.6-4.01-.16-8.02-.61-11.96-1.39-5.42-1.09-10.73-2.73-15.94-4.58-5.24-1.87-10.12-4.65-15.34-6.58-3.78-1.39-7.61-2.73-11.56-3.59-3.6-.78-7.29-1.09-10.96-1.39-3.44-.28-6.91-.49-10.36-.4-2.93.08-8.77.8-8.77.8,0,0-3.27,1.47-3.59,2.99-.33,1.6,2.09,2.75,2.19,4.38.09,1.4-1.74,2.62-1.39,3.99.26,1.05,2.39,2.19,2.39,2.19,0,0,14.28.67,21.32,1.79,6,.95,11.95,2.32,17.73,4.18,5.13,1.65,9.87,4.36,14.94,6.18,4.71,1.69,9.43,3.46,14.35,4.38,5.37,1,10.88,1,16.34,1.2,4.85.18,9.71.4,14.55,0,4.03-.33,11.96-1.99,11.96-1.99l3.39,3.59Z" style="fill:#f55; stroke:#55a; stroke-linecap:round; stroke-linejoin:round; stroke-width:2px;"/><path id="uuid-4455b030-8975-4abd-a1f4-3eae6f5e216e" d="m220.02,468.94s-14.86,1.82-22.32,1.59c-7.63-.23-15.33-1.04-22.71-2.99-8.04-2.12-15.25-6.68-23.11-9.36-5.81-1.99-11.68-3.97-17.73-4.98-5.71-.95-17.33-1-17.33-1" style="fill:none; stroke:#000; stroke-linecap:round; stroke-linejoin:round; stroke-width:2px;"/><path id="uuid-f44b346b-0b23-442b-a513-0c28ad1c4915" d="m218.03,464.36s-13.29.9-19.93.6c-7.09-.33-14.26-.8-21.12-2.59-8.13-2.12-15.4-6.75-23.31-9.56-5.62-2-11.27-4.09-17.14-5.18-4.32-.81-8.75-1.01-13.15-1-2.47,0-7.37.6-7.37.6" style="fill:none; stroke:#000; stroke-linecap:round; stroke-linejoin:round; stroke-width:2px;"/></g><g id="uuid-0989471a-35a8-4c91-b905-3e02c2d3de41"><path id="uuid-c66ab1c5-8104-45c1-89d8-4242ebd4ca6f" d="m242.5,509.5c-9.72-17.2-9.08-19.48-18.8-36.68-10.45,3.78-29.59,2.73-44.12.48-12.04-1.86-22.84-8.69-34.72-11.42-10.57-2.43-22.24-4.38-32.24-4.38l-28.12,52h158Z" style="fill:#ff5; stroke:#55a; stroke-width:2px;"/><path id="uuid-aa321e6d-c7cc-4219-b66c-9ae8142bc00d" d="m187.76,480.66c-1.64,0-3.28.12-4.78.48-.82.2-1.52.53-2.22.9-1.18.63-2.03,1.63-3.34,2.24.58-2.13,2.46-3.22,4.11-4.33,1.48-1,3.21-1.63,5-1.94,1.92-.34,3.98-.36,5.9.1,2.26.54,4.4,1.68,6.25,3.04,1.25.93,2.48,2.03,3.14,3.39.36.73.38,1.76.37,2.39-.72-1.14-1.68-2.47-3-3.43-1.33-.96-3.01-1.67-4.7-2.13-2.19-.6-4.51-.72-6.73-.73h0Z"/><path id="uuid-f2f18391-c666-493b-a383-fce77344212b" d="m205.26,489.78c.69.57.53,2.42-.28,3.24-.23.24-.72.34-1.05.22-.95-.33-1.57-1.34-1.63-2.21-.04-.55.65-.96.84-1.48.16-.46.25-1.42.25-1.42-1.01-1.21-1.48-2.69-2.95-3.16-2.18-.7-5.33-.35-6.86,1.12-1.41,1.35-1.08,3.69-.38,5.42.47,1.17,1.51,2.37,2.88,2.81,1.24.4,2.65-.16,3.92-.46-1.15,1.52-2.46,3.3-2.15,5.1.3,1.72,1.91,3.3,3.64,4.27.73.41,1.7.36,2.56.47h0c1.7-.31,3.56-.96,4.52-2.17.97-1.22.84-2.92.68-4.4-.12-1.13-.73-2.2-1.23-3.26,1.01.57,2.29.89,3.43.7,2.17-.35,4.75-1.46,5.36-3.24.59-1.72-.73-3.85-2.33-5.06-1.49-1.12-3.85-1.75-5.76-1.29-1.6.39-2.24,1.95-3.49,3.09l.02,1.72Z"/><path id="uuid-a4b6445c-10d6-442b-9742-9334d162264c" d="m218.28,480.61c1.31,0,2.62.01,3.81.48,1.24.49,2.12,1.63,3.25,2.34.84.53,1.54,1.49,2.62,1.44-.46-2.13-2.86-3.63-4.7-4.98-1.19-.87-2.57-1.63-3.99-1.94-1.53-.34-3.17-.36-4.7.1-1.8.54-3.51,1.68-4.99,3.04-1,.93-1.81,2.17-2.51,3.39-.63,1.11-1.49,2.89-1.48,3.52,1.48-.12,2.12-3.3,3.58-4.56,1.09-.94,2.4-1.67,3.75-2.13,1.75-.6,3.6-.72,5.37-.73h0Z"/><path id="uuid-e9c8bd78-8786-4fee-873c-554bc085bff0" d="m228.34,486.78c-.06.68-.54.67-.53,1.5,0,.82,1.22,1.4,2.02,1.35.29-.02.71-1.15.79-1.43l4.44,9.46c-.34.38-.7.71-1.08,1.01-.66.21-1.31.61-1.99.51-1.61-.22-3.39-1.03-4.27-2.42-.92-1.45-.68-3.45-.46-5.19-.79.71-1.56,1.68-2.6,1.77-1.15.1-2.35-.57-3.14-1.42-1.17-1.25-2.32-3.19-1.84-4.86.51-1.81,2.62-3.02,4.43-3.37,1.35-.26,2.76.42,3.95,1.12"/><path id="uuid-b5033589-8987-4488-b31e-74b19737a305" d="m176.91,486c.58.67.12,2.47-.82,3.15-.27.2-.76.21-1.08.04-.88-.49-1.32-1.58-1.24-2.45.06-.55.8-.84,1.07-1.32.24-.42.48-1.36.48-1.36-.79-1.36-1.01-2.9-2.38-3.61-2.04-1.05-5.2-1.24-6.95-.05-1.61,1.1-1.69,3.46-1.29,5.28.27,1.23,1.09,2.59,2.37,3.26,1.16.6,2.64.28,3.94.2-1.39,1.31-2.98,2.84-2.97,4.66,0,1.75,1.32,3.58,2.88,4.82.65.52,1.61.64,2.44.89h0c1.73-.02,3.67-.35,4.82-1.38,1.16-1.04,1.32-2.74,1.41-4.22.07-1.14-.35-2.29-.67-3.42.9.73,2.1,1.26,3.27,1.27,2.2.02,4.92-.64,5.83-2.3.87-1.59-.07-3.91-1.45-5.38-1.28-1.35-3.5-2.37-5.46-2.24-1.65.11-2.54,1.55-3.96,2.46l-.27,1.7Z"/><path id="uuid-e08a917b-a3cf-4598-8e90-85d9c4ffc4c3" d="m163.89,475.15c-1.42-.32-2.93-.39-4.35-.09-1.25.26-2.35,1.01-3.48,1.59-1.29.66-2.46,1.95-3.78,2.16,1.07-1.88,3.63-4.89,6.29-6.1,1.5-.69,3.27-.65,4.93-.44,1.79.22,3.61.79,5.19,1.77,1.86,1.16,3.45,2.86,4.73,4.69.87,1.25,1.66,2.65,1.89,4.15.13.81-.12,1.79-.3,2.4-.34-1.29-.84-2.85-1.76-4.14-.92-1.3-2.23-2.45-3.6-3.37-1.78-1.19-3.71-2.14-5.76-2.61h0Z"/><path id="uuid-d035bf05-d8e8-4cc9-b45f-c9ad8913d613" d="m149.52,480.09c-.81.31-1.34,2.08-.92,3.1.12.29.51.53.85.53.95-.01,1.86-.76,2.23-1.55.23-.5-.22-1.09-.2-1.64.02-.48.3-1.39.3-1.39,1.32-.81,2.27-2.04,3.73-2.02,2.17.03,4.8,1.33,5.61,3.16.74,1.69-.39,3.77-1.62,5.15-.84.94-2.18,1.74-3.55,1.72-1.23-.02-2.27-.97-3.27-1.64.46,1.77.96,3.82.04,5.4-.88,1.51-2.86,2.48-4.74,2.84-.79.15-1.62-.19-2.41-.35h0c-1.38-.81-2.77-1.99-3.18-3.42-.41-1.44.32-2.97.99-4.3.51-1.01,1.43-1.82,2.26-2.65-1.09.22-2.36.21-3.26-.41-1.46-1-2.65-2.9-2.53-4.67.11-1.63,1.38-3.31,2.88-3.98,1.69-.75,4.01-.44,5.52.58,1.27.85,1.26,2.51,1.94,3.95l-.64,1.59Z"/><path id="uuid-43a40472-d7fc-49ba-ac48-24c2c1e687a7" d="m138.73,469.08c-1.39-.25-2.87-.25-4.23.12-1.2.32-2.26,1.07-3.3,1.76-1.13.75-1.89,2.31-3.16,2.58.95-1.93,2.92-5.23,5.4-6.64,1.4-.79,3.14-.8,4.76-.68,1.74.13,3.55.61,5.13,1.52,1.86,1.07,3.49,2.69,4.83,4.46.9,1.2,1.74,2.56,2.04,4.05.16.8-.03,1.8-.17,2.41-.39-1.27-.95-2.8-1.91-4.05-.96-1.25-2.28-2.34-3.66-3.19-1.79-1.1-3.7-1.96-5.72-2.33h0Z"/><path id="uuid-363a9140-2868-45fe-b9b8-957214161dae" d="m125.74,474.62c-.73.4-1.04,2.21-.55,3.18.14.28.53.48.85.44.89-.11,1.67-.95,1.93-1.78.17-.52-.32-1.06-.35-1.61-.03-.47.14-1.42.14-1.42,1.16-.95,1.94-2.31,3.29-2.41,1.87-.14,4.06.98,4.97,2.62.85,1.53.49,3.71-.39,5.22-.64,1.09-1.87,1.96-3.15,2.09-1.16.12-2.22-.72-3.23-1.28.61,1.71,1.29,3.7.58,5.36-.68,1.59-2.44,2.77-4.16,3.33-.72.23-1.54-.02-2.3-.09h0c-1.38-.66-2.8-1.68-3.33-3.06-.53-1.38,0-2.99.5-4.38.38-1.06,1.16-1.96,1.85-2.88-1,.33-1.88.98-2.9.96-1.18-.02-2.8-.18-3.32-1.24-1.11-2.24.1-5.81,2.19-7.19,1.34-.88,3.26-.01,4.77.52,1.14.4,2.28.6,3.07,1.96l-.44,1.65Z"/><path id="uuid-0f79b3be-f2f5-41ae-b68c-65befa1327f7" d="m118.34,466.2c1.23.1,2.53.42,3.52,1.17,1.05.8,1.44,2.22,2.22,3.28.6.81.88,1.79,1.88,2.37-.28-2.09-.82-5.59-2.59-7.6-.94-1.06-2.42-1.56-3.81-1.84-1.5-.31-3.14-.3-4.71.18-1.85.56-3.65,1.71-5.25,3.08-1.08.93-2.15,2.03-2.8,3.38-.35.73-.46,1.74-.5,2.36.67-1.13,1.55-2.45,2.69-3.41,1.14-.96,2.55-1.68,3.93-2.16,1.8-.61,3.63-.96,5.43-.81h0Z"/><path id="uuid-5ec4d139-3b94-4502-9453-97e9a36041f6" d="m105.85,473.57c-.2.72-.01.82-.28,1.68-.27.85-.91,1.16-1.19.92-.1-.09.1-1.36.16-1.67l-4.69,8.72c0,.47.04.9.08,1.3.18.37.3.94.58,1,.68.15,1.6-.26,2.38-1.49.81-1.28,1.36-3.41,1.83-5.25.07.92.82.67,1.3.66,1.09,0,2.2-.66,2.9-1.49,1.09-1.31,1.95-3.25,1.48-4.88-.24-.83-1.14-1.44-1.97-1.69-.59-.18-1.17-.22-1.84.22"/><path id="uuid-3e81e6f8-6a5d-4f25-b6f9-34eb2de1a3f3" d="m225.67,478.55s-6.61-2.21-10.01-2c-4.26.26-12.17,4-12.17,4,0,0-8.31-3.98-12.81-4.32-4.32-.33-12.81,2.24-12.81,2.24,0,0-6.8-6.11-11.05-7.36-4.22-1.25-13.21.16-13.21.16,0,0-5.58-6.95-9.6-8.08-5.04-1.42-15.53,2.32-15.53,2.32,0,0-7.22-5.05-11.37-5.04-2.42,0-6.64,2.96-6.64,2.96l2.72-5c5.71.18,9.99.51,15.85,1.41,5.85.9,11.74,1.75,17.45,3.32,5.4,1.49,10.51,3.86,15.78,5.75,4.23,1.52,8.36,3.37,12.71,4.48,3.29.84,6.68,1.2,10.04,1.63,2.87.37,5.75.67,8.63.85,4.39.27,8.8.4,13.2.33,2.88-.05,5.7-.22,8.7-.56,2.59-.29,7.56-1.71,7.56-1.71l2.54,4.62Z"/></g><path id="uuid-0a9e8c04-43e8-4708-b0a5-723ecd700004" d="m195.54,367.1c-2.4-.25-5.29.66-7.94,3.2l-6.43,8.18-4.18,4.58-3.79-3.39-6.18-2.19,4.78-9.17,8.37-8.57,8.57-6.38,3.6-2.79,2.58,5.78,1.99,4.9,1.4,4.06-2.77,1.77Z" style="fill:#f55;"/><g id="uuid-fa45b661-62e7-4390-a67d-c6b7600a4bb9"><path id="uuid-66a22e23-64c7-4d71-a5f8-9c12f2068400" d="m175.99,455.99c-.87-8.68-3.14-17.14-5.12-25.62-2.69-11.54-8.78-22.51-9.15-34.35-.13-4.09-1.26-10.21,2.4-12.03,2.84-1.42,8.61-.43,8.58,4.14-.03,3.74-5.65,5.67-6.87,1.71" style="fill:none; stroke:#55a; stroke-linecap:round; stroke-linejoin:round; stroke-width:2px;"/><path id="uuid-d75695c3-72ca-4243-8b46-4fb325ba3e02" d="m170.81,453.8c-2.24-12.56-7.24-24.45-9.97-36.89-2.04-9.33-5.6-19.28-4.78-28.27.43-4.66,4.48-10.7,9.3-11.13,5.57-.51,12.78,3.34,12.89,10.73.07,4.67-5.67,9.81-10.43,9.77-2.87-.02-4.64-3.54-6.18-5.98" style="fill:none; stroke:#55a; stroke-linecap:round; stroke-linejoin:round; stroke-width:2px;"/><path id="uuid-500ced72-874b-4a88-a501-4315a1c5eadf" d="m165.63,451.8c-1.9-11.08-6.32-21.56-8.96-32.47-2.38-9.84-7.59-19.71-6.2-29.74.53-3.84,2.69-7.51,5.39-10.32" style="fill:none; stroke:#55a; stroke-linecap:round; stroke-linejoin:round; stroke-width:2px;"/><path id="uuid-e6f64f2e-3454-4230-a7a1-a0946c49761d" d="m158.87,449.21c-1.75-10.61-5.82-20.68-8.25-31.13-2.19-9.44-7-18.91-5.71-28.51.49-3.66,2.45-7.17,4.97-9.89" style="fill:none; stroke:#55a; stroke-linecap:round; stroke-linejoin:round; stroke-width:2px;"/><path id="uuid-c77e5f6e-917c-4142-97cb-bda5b389f0a7" d="m153.31,447.12c-1.75-10.35-5.82-20.14-8.25-30.33-2.19-9.19-7-18.41-5.71-27.78.49-3.58,2.47-7,4.97-9.64" style="fill:none; stroke:#55a; stroke-linecap:round; stroke-linejoin:round; stroke-width:2px;"/><path id="uuid-8e61224d-6b5e-4581-864b-9c4a0828a85d" d="m147.33,444.43c-1.75-10-5.82-19.42-8.25-29.26-2.19-8.87-6.99-17.75-5.71-26.8.49-3.48,2.5-6.78,4.97-9.3" style="fill:none; stroke:#55a; stroke-linecap:round; stroke-linejoin:round; stroke-width:2px;"/><path id="uuid-c27a25f8-c36f-45d3-a3dc-71fc7de250fe" d="m141.55,444.43c-1.75-10-5.82-19.42-8.25-29.26-2.19-8.87-6.99-17.75-5.71-26.8.49-3.48,2.5-6.78,4.97-9.3" style="fill:none; stroke:#55a; stroke-linecap:round; stroke-linejoin:round; stroke-width:2px;"/><path id="uuid-dfedb807-cb92-41b0-9a94-d02525529397" d="m135.97,443.04c-1.76-9.8-5.82-19.01-8.25-28.64-2.19-8.67-6.98-17.37-5.71-26.22.49-3.42,2.52-6.65,4.97-9.1" style="fill:none; stroke:#55a; stroke-linecap:round; stroke-linejoin:round; stroke-width:2px;"/><path id="uuid-6e772ed9-54ac-4f38-83a9-52842af058e5" d="m130.19,441.94c-1.76-9.62-5.8-18.65-8.25-28.1-2.18-8.36-6.89-16.72-5.74-25.28.47-3.51,2.45-6.89,5-9.38" style="fill:none; stroke:#55a; stroke-linecap:round; stroke-linejoin:round; stroke-width:2px;"/><path id="uuid-e927def7-cf85-4dc2-8a21-628d9bbb620f" d="m125.01,442.14c-1.76-9.62-5.8-18.65-8.25-28.1-2.18-8.36-6.89-16.72-5.74-25.28.47-3.51,2.45-6.89,5-9.38" style="fill:none; stroke:#55a; stroke-linecap:round; stroke-linejoin:round; stroke-width:2px;"/><path id="uuid-f35a7653-d630-448e-8d6c-afcf171dae6f" d="m119.83,441.74c-1.76-9.62-5.8-18.65-8.25-28.1-2.18-8.36-6.89-16.72-5.74-25.28.47-3.51,2.45-6.89,5-9.38" style="fill:none; stroke:#55a; stroke-linecap:round; stroke-linejoin:round; stroke-width:2px;"/><path id="uuid-e09ba9ee-e624-4b78-b8ac-7a1aaf9dd964" d="m114.45,441.94c-1.76-9.62-5.8-18.65-8.25-28.1-2.18-8.36-6.89-16.72-5.74-25.28.47-3.51,2.45-6.89,5-9.38" style="fill:none; stroke:#55a; stroke-linecap:round; stroke-linejoin:round; stroke-width:2px;"/></g><path id="uuid-3e912682-c1a3-4a8c-9c6f-09d23b3ca253" d="m166.36,376.45s2.91-5,4.67-7.29c2.81-3.66,5.91-7.13,9.34-10.21,2.74-2.47,5.72-4.69,8.9-6.56,2.72-1.6,5.69-2.74,8.61-3.94,2.35-.97,7.15-2.63,7.15-2.63" style="fill:none; stroke:#55a; stroke-linecap:round; stroke-linejoin:round; stroke-width:2px;"/><path id="uuid-3e294234-aaa3-4f84-a169-01af250f5c4a" d="m161.69,378.63h-88.4" style="fill:none; stroke:#55a; stroke-linecap:round; stroke-linejoin:round; stroke-width:2px;"/><path id="uuid-de4ffb4a-9f17-4a24-ba2a-f916fceaaaa3" d="m204.24,364.19l-4.96-14.73" style="fill:none; stroke:#55a; stroke-linecap:round; stroke-linejoin:round; stroke-width:2px;"/><path id="uuid-3fc48134-8ea4-4fac-9826-48bf26ca00ea" d="m211.14,362.88s-3.39-11.28-5.11-16.92c-.72-2.38-1.56-4.74-2.19-7.15-1.47-5.68-2.86-11.4-3.65-17.21-.65-4.83-.75-9.72-.88-14.59-.25-10.06.29-30.2.29-30.2h0" style="fill:none; stroke:#55a; stroke-linecap:round; stroke-linejoin:round; stroke-width:2px;"/><path id="uuid-d5194300-d2a0-4d45-ac76-906bcc328dba" d="m203.55,338.16s-8.84,3.14-12.97,5.32c-4.17,2.19-8.15,4.78-11.82,7.73-3.03,2.44-5.78,5.23-8.31,8.17-1.73,2-3.18,4.23-4.67,6.42-1.23,1.81-3.5,5.54-3.5,5.54,0,0-28.5-.16-42.74,0-6.61.07-19.84.44-19.84.44,0,0,9.91-10.59,14.3-16.34,2.83-3.71,5.38-7.64,7.73-11.67,2.48-4.24,4.74-8.62,6.71-13.13,1.85-4.23,3.32-8.61,4.76-12.99,1.32-4.04,2.78-8.07,3.56-12.24,1.16-6.24,1.6-18.96,1.6-18.96l12.84,18.82s-2.21,9.34-3.79,13.86c-1.42,4.05-3.32,7.91-5.11,11.82-2,4.37-4,8.75-6.27,12.98-1.98,3.69-6.42,10.79-6.42,10.79h25.82s4.58-5.64,7.03-8.32c2.69-2.93,5.39-5.89,8.43-8.46,3.23-2.72,6.71-5.17,10.36-7.29,3.25-1.89,6.77-3.29,10.21-4.81,2.89-1.28,8.75-3.65,8.75-3.65l3.35,15.98Z" style="fill:#ff5; stroke:#55a; stroke-linecap:round; stroke-linejoin:round; stroke-width:2px;"/><path id="uuid-2e87123b-3a77-47c1-ac67-a11ef95e8585" d="m118.57,371.04l11.03-16.18" style="fill:none; stroke:#55a; stroke-linecap:round; stroke-linejoin:round; stroke-width:2px;"/><path id="uuid-b5795995-30a6-4db1-8753-6ddfb002915d" d="m115.16,354.13l14,.29" style="fill:none; stroke:#55a; stroke-linecap:round; stroke-linejoin:round; stroke-width:2px;"/><path id="uuid-695b7653-8f61-4ecb-a6fe-ead6aedef7dd" d="m136.31,343.48l-14-.44" style="fill:none; stroke:#55a; stroke-linecap:round; stroke-linejoin:round; stroke-width:2px;"/><path id="uuid-338caeb8-6a10-4e53-992f-c2e4371883e9" d="m141.71,330.93l-12.4-.15" style="fill:none; stroke:#55a; stroke-linecap:round; stroke-linejoin:round; stroke-width:2px;"/><path id="uuid-aa1294d2-9565-4f3c-9e69-b438b8bc3a21" d="m146.96,317.95l-13.13.29" style="fill:none; stroke:#55a; stroke-linecap:round; stroke-linejoin:round; stroke-width:2px;"/><path id="uuid-ab4bd5c5-0e05-4427-818e-a77f32d7fc8d" d="m150.31,304.82l-12.69.29" style="fill:none; stroke:#55a; stroke-linecap:round; stroke-linejoin:round; stroke-width:2px;"/><path id="uuid-0725be92-5601-422b-99e2-fa0af653f05e" d="m100.92,174.09s5.19,7.65,7.67,11.54c2.21,3.46,4.46,6.9,6.42,10.5,3.06,5.64,5.97,11.39,8.31,17.36,2.58,6.59,4.54,13.42,6.27,20.28,1.11,4.37,1.89,8.82,2.63,13.27.78,4.69,1.63,9.4,1.9,14.15.47,8.45.25,16.96-.58,25.38-.64,6.4-1.71,12.78-3.37,18.99-1.18,4.43-2.94,8.7-4.66,12.95-1.64,4.05-3.42,8.06-5.4,11.96-2.01,3.98-4.3,7.82-6.56,11.67-2.17,3.69-4.25,7.44-6.71,10.94-4.42,6.28-9.43,12.13-14.44,17.94-2.2,2.56-6.87,7.45-6.87,7.45l-12.1.14s10.69-8.84,15.61-13.71c2.23-2.21,4.27-4.59,6.27-7,3.06-3.68,5.94-7.5,8.75-11.38,1.52-2.1,3.03-4.2,4.38-6.42,3.74-6.18,7.15-12.57,10.21-19.11,1.46-3.12,2.75-6.33,3.89-9.58,1.21-3.46,2.26-6.99,3.12-10.56,1.17-4.85,2.29-9.75,2.76-14.72.83-8.66.8-17.43.15-26.11-.42-5.6-1.46-11.14-2.63-16.63-1.21-5.68-2.75-11.3-4.54-16.83-1.85-5.72-4.01-11.35-6.4-16.86-1.01-2.33-2.12-4.63-3.36-6.86-.98-1.76-2.09-3.44-3.21-5.11-1.42-2.11-2.92-4.16-4.44-6.2-3.34-4.48-10.29-13.25-10.29-13.25l7.21-4.21Z" style="fill:#ff5; stroke:#55a; stroke-linecap:round; stroke-linejoin:round; stroke-width:2px;"/><path id="uuid-7a39c1c8-7dde-4836-80ad-95d9994060f1" d="m72.41,378.78l-15.75-14.73-7.88-8.32-18.67-19.69" style="fill:none; stroke:#55a; stroke-linecap:round; stroke-linejoin:round; stroke-width:2px;"/><path id="uuid-49b731a1-e239-4dc5-9691-008724a4717c" d="m29.5,499.78l27.77-27.44-1.03-108.56-26.74-28.3v164.3Z" style="fill:#ff5; stroke:#55a; stroke-linecap:round; stroke-linejoin:round; stroke-width:2px;"/><path id="uuid-4d545e1a-6f1a-450f-90f8-857109bd78a6" d="m49.51,356.61l-.08,113.05-19.93,17.95v-152.28l20.01,21.28Z" style="fill:#f55; stroke:#55a; stroke-linecap:round; stroke-linejoin:round; stroke-width:2px;"/><path id="uuid-0862266e-b13d-46bf-a865-935f686f237e" d="m57.68,454.81l5.57,1.65s4.05,3.95,5.78,6.19c2.83,3.67,6,7.35,7.43,11.76.83,2.56.51,8.05.51,8.05,0,0,6.1-6.31,8.61-9.89,2.09-2.97,3.9-6.16,5.32-9.51,1.31-3.11,2.18-6.4,2.89-9.7.7-3.27,1.28-6.6,1.32-9.95.05-4.13-.34-8.32-1.32-12.33-.67-2.75-1.87-5.36-3.09-7.92-1.32-2.76-2.86-5.41-4.54-7.96-1.89-2.87-6.19-8.25-6.19-8.25,0,0-1.95,5.21-3.3,7.63-2.28,4.1-4.89,8.08-8.05,11.55-2,2.2-4.04,4.68-6.81,5.78-1.28.51-4.13.21-4.13.21v22.69Z" style="fill:none; stroke:#55a; stroke-linecap:round; stroke-linejoin:round; stroke-width:2px;"/><path id="uuid-5c97944a-8c75-4edc-83c4-09e334591d8f" d="m63.05,431.91s1.7,3.09,2.28,4.74c.65,1.88,1.19,3.83,1.3,5.81.16,2.72-.13,5.5-.84,8.13-.58,2.13-2.74,6.02-2.74,6.02,0,0,5.11,4.74,7.25,7.47,2.47,3.14,6.41,10.13,6.41,10.13,0,0,4.18-4.89,5.85-7.63,1.67-2.74,3.07-5.66,4.09-8.7,1.13-3.39,1.82-6.95,2.19-10.5.27-2.6.28-5.24,0-7.84-.31-2.87-.89-5.74-1.86-8.46-.77-2.17-2.01-4.16-3.09-6.19-1.05-1.96-2.07-3.93-3.3-5.78-1.15-1.73-3.8-4.96-3.8-4.96,0,0-3.77,7.07-6.24,10.21-2.19,2.79-7.5,7.54-7.5,7.54h0Z" style="fill:#ff5; stroke:#55a; stroke-linecap:round; stroke-linejoin:round; stroke-width:2px;"/><path id="uuid-9c9f8b7c-bc94-4289-a647-c2f81dbd2422" d="m69.23,461.2s2.67-3.4,3.51-5.36c.94-2.19,1.31-4.61,1.61-6.97.41-3.24.67-6.55.25-9.78-.35-2.68-1.07-5.37-2.28-7.79-.82-1.65-3.32-4.42-3.32-4.42" style="fill:none; stroke:#55a; stroke-linecap:round; stroke-linejoin:round; stroke-width:2px;"/><path id="uuid-c8c7b492-acdd-4484-bead-7b8652870676" d="m71.92,466.36h4.33c-.31-3.41-1.04-6.66-2.68-9.49,2.92-.04,5.58-.49,8.25-1.86-1.48-3.48-4.54-5.04-6.85-6.27,2.62-.88,5.65-2.67,7.52-4.54-2.23-2.2-4.95-3.74-7.68-4.86,2.7-1.39,5.4-3.11,7.18-5.66-2.17-1.59-6.08-3-8.83-3.01,2.26-2.53,3.28-4.73,4.54-7.84-1.58-.14-3.16-.28-4.74-.41" style="fill:none; stroke:#55a; stroke-linecap:round; stroke-linejoin:round; stroke-width:2px;"/><path id="uuid-f0b4f6a3-e0e7-45b9-ba3e-b86788a65d88" d="m197.1,411.12s-2.5.38-3.35.16-1.3-.55-1.67-1.1c-.67-.99-.88-2.31-.74-3.51.15-1.28.65-2.71,1.64-3.48,1.57-1.21,3.82-1.21,5.73-.94,1.84.27,3.39,1.55,5.04,2.43,1.11.59,2.12,1.41,3.27,1.91,1.28.55,2.62,1.14,4.01,1.17.85.02,2.24.26,2.51-.6.21-.65-.69-1.23-1.27-1.51-1.57-.77-3.52.19-5.22-.18-1.86-.4-3.48-1.59-5.29-2.18-1.7-.56-3.41-1.47-5.19-1.31-1.47.13-3.02.74-4.09,1.83-.72.73-1.17,1.82-1.27,2.86-.1,1.08.12,2.29.75,3.13.79,1.06,2.44,1.83,3.39,1.91s1.74-.6,1.74-.6h0Z" style="fill:#55a; stroke:#55a; stroke-linecap:round; stroke-linejoin:round; stroke-width:2px;"/><path id="uuid-b85759ce-3fe8-4161-b04c-0e106e48182a" d="m210.1,419.82c-1.1.24-2.55-1.3-3.05-2.3-.66-1.31.14-3.33,1.25-4.22,1.49-1.2,3.82-.76,5.61-.2,1.5.47,2.4,2.24,3.86,2.84.88.36,1.99.88,2.82.38.49-.29.91-1.09.68-1.63-.33-.77-1.51-.55-2.28-.73-1.06-.26-2.19-.2-3.24-.54-1.19-.38-2.15-1.53-3.38-1.65-1.4-.14-3.09.05-4.09,1.1-1.08,1.13-1.69,3.16-1.18,4.67.42,1.23,3,2.27,3,2.27h0Z" style="fill:#55a; stroke:#55a; stroke-linecap:round; stroke-linejoin:round; stroke-width:2px;"/><path id="uuid-02a5b0e2-6c82-4adf-ad29-145075ca1e87" d="m220.39,459.7s.3-5.56,0-8.31c-.28-2.59-1.35-5.06-1.66-7.65-.23-1.87-.51-3.8-.17-5.65,1.36-7.27,6.55-13.34,8.64-20.44.36-1.24,1.21-2.65.66-3.82-1.19-2.57-5.66-2.03-7.31-4.32-1.23-1.7-1.33-4.05-1.33-6.15,0-.79.5-2.33.5-2.33-2.49.12-4.79-.34-7.15-.5-2.8-.19-6.25-.08-8.14-2.16-.45-.5-.33-1.99-.33-1.99,0,0,2.56,1.57,3.99,1.99,3.63,1.09,7.5.43,11.3,1.33.65.15-.12-1.88-.17-2.83-.12-2.33-.56-4.66-.33-6.98.09-.91.66-2.66.66-2.66" style="fill:none; stroke:#55a; stroke-linecap:round; stroke-linejoin:round; stroke-width:2px;"/><path id="uuid-f198208d-75e9-4934-bdfd-07bb77a2f984" d="m212.86,451.02c-.49.72-5.26.36-7.88.27-3.15-.11-6.38-.01-9.37-.97-3.4-1.09-6.37-3.27-9.29-5.32-1.12-.79-3.12-2.66-3.12-2.66,0,0,5.6,4.17,8.81,5.56,2.47,1.08,5.17,1.7,7.88,2.11,2.65.4,5.4.09,8.07.33,1.65.15,5.84-.71,4.9.68h0Z" style="fill:none; stroke:#55a; stroke-linecap:round; stroke-linejoin:round; stroke-width:2px;"/><path id="uuid-2fa120f3-7afa-4676-8c45-21ba8e502ee2" d="m207.3,443.89s-6.37.04-9.41-.78c-4.43-1.2-12.43-5.94-12.43-5.94" style="fill:none; stroke:#55a; stroke-linecap:round; stroke-linejoin:round; stroke-width:2px;"/><path id="uuid-5bf53dc4-2bdb-4897-ae85-4d9702db1cc2" d="m209.55,439.1s-6.15.93-9.13.31c-4.5-.94-12.43-5.94-12.43-5.94" style="fill:none; stroke:#55a; stroke-linecap:round; stroke-linejoin:round; stroke-width:2px;"/><path id="uuid-cecce729-f62e-4b16-bbd9-3a886b2617e3" d="m210.77,429.89c-3.7-.45-5.15-4.48-8.4-5.6" style="fill:none; stroke:#55a; stroke-linecap:round; stroke-linejoin:round; stroke-width:2px;"/><path id="uuid-97846952-647c-4bac-a3bb-60ef8626abcd" d="m190.86,432.21s2.62,3.2,4.31,4.35c1.25.85,2.68,1.49,4.15,1.78,1.94.39,3.98.28,5.94-.06,1.23-.22,2.36-.84,3.55-1.24.48-.16,1.45-.46,1.45-.46,0,0-1.13-2.57-2.06-3.59-.91-1-2.1-1.79-3.31-2.33-1.77-.79-3.71-1.38-5.64-1.28-2.94.15-8.39,2.84-8.39,2.84Z" style="fill:none; stroke:#55a; stroke-linecap:round; stroke-linejoin:round; stroke-width:2px;"/><path id="uuid-ee925968-3ede-4946-8cc8-50462c28ce6c" d="m206.4,434.61c-.26,2.02-2.56,3.33-5.13,2.93s-4.45-2.36-4.18-4.37,2.56-3.33,5.13-2.93,4.45,2.36,4.18,4.37Z" style="fill:none; stroke:#55a; stroke-linecap:round; stroke-linejoin:round; stroke-width:2.22px;"/><path id="uuid-d95dfbd5-a62f-4e41-ad5c-2e53fc8a5aa7" d="m204.61,434.47c-.11.84-.95,1.4-1.88,1.26s-1.6-.94-1.49-1.78.95-1.4,1.88-1.26,1.6.94,1.49,1.78Z" style="fill:#55a; stroke:#55a; stroke-linecap:round; stroke-linejoin:round; stroke-width:2.13px;"/><path id="uuid-92b141cf-2fe3-4c17-b3d8-85117c6678a3" d="m212.09,442c-1.09-.73-1.09-2.83-1.64-4.24" style="fill:none; stroke:#55a; stroke-linecap:round; stroke-linejoin:round; stroke-width:2px;"/><path id="uuid-a1230082-098c-488f-be7b-4eee29518806" d="m121.42,359.53l-3.8,6.49-8.06,1.12,4.25-6.71,7.61-.9Z"/><path id="uuid-f6c56688-70f7-4f30-b268-573fcdd0bf30" d="m131.24,348.97l-6.17,4.28-5-4.33,6.5-4.21,4.68,4.25Z"/><path id="uuid-e717189c-5403-49bc-8eb1-410a3f30581d" d="m137.75,336.91l-6.17,4.28-5-4.33,6.5-4.21,4.68,4.25Z"/><path id="uuid-ebd2d895-e18a-4ab5-b0a4-0f6bd39196f8" d="m143.12,324.6l-6.17,4.28-5-4.33,6.5-4.21,4.68,4.25Z"/><path id="uuid-83228423-a2b7-4e12-a217-acc804e6eede" d="m147.77,311.09l-5.54,5.08-5.54-3.61,5.87-5.05,5.21,3.58Z"/><path id="uuid-00662266-9083-4046-bbd5-9c2f9f14fd32" d="m137.59,363.73l-5.22,5.48-4.66-5.47,5.02-6.29,4.86,6.27Z"/><path id="uuid-cb6f89cc-8849-4d3f-ad49-948f8f4fe296" d="m149.24,363.45l-4.64,5.98-5.19-4.97,4.36-6.76,5.47,5.75Z"/><path id="uuid-79d54914-2d46-43a6-b9bb-fd8758dba1bc" d="m162.05,361.03l-2.99,6.95-6.27-3.51,2.53-7.64,6.73,4.2Z"/><path id="uuid-404f8c00-27eb-4776-b3f5-316110e724b8" d="m169.97,349.79l.2,7.57-7.16-.56-.91-7.99,7.87.98Z"/><path id="uuid-6949afc4-b67d-43cb-b54b-ec26f0911b1e" d="m178.77,341.6l.03,7.57-7.15-.72-.73-8.01,7.85,1.16Z"/><path id="uuid-b8597215-1389-4309-a9ad-c2e285ee9172" d="m188.89,335.78l-2.02,7.3-6.69-2.62,1.46-7.91,7.24,3.24Z"/><path id="uuid-20a6327e-7e58-4c69-b14f-dfcc25c48274" d="m199.27,330.94l-2.43,7.17-6.53-3,1.91-7.81,7.05,3.64Z"/><path id="uuid-d30d381c-aa64-4e6b-b552-5a3465ceca2b" d="m120.78,312.68l-37.79-49.02" style="fill:#ff5; stroke:#55a; stroke-linecap:round; stroke-linejoin:round; stroke-width:2px;"/><path id="uuid-9beaf012-5020-4fd1-8f28-482e36d10e24" d="m63.83,282.82l43.48,58.6c5-6.6,7.89-13.51,11.39-20.71l-40.71-52.09-14.16,14.2Z" style="stroke:#55a; stroke-linecap:round; stroke-linejoin:round; stroke-width:2px;"/><path id="uuid-dfe0e58d-a106-4411-ac7e-c34bbaa23b85" d="m103.2,345.98l-43.7-59.87" style="fill:#ff5; stroke:#55a; stroke-linecap:round; stroke-linejoin:round; stroke-width:2px;"/><path id="uuid-50dd4264-0f83-45e7-91bf-eddc6d4a6428" d="m93.09,358.7l-47.14-62.86" style="fill:#ff5; stroke:#55a; stroke-linecap:round; stroke-linejoin:round; stroke-width:2px;"/><path id="uuid-1b46b45b-de6e-4364-b8d1-f7ec8856d293" d="m88.6,363.56l-47.41-64.16" style="fill:#ff5; stroke:#55a; stroke-linecap:round; stroke-linejoin:round; stroke-width:2px;"/><path id="uuid-6a241ba8-64f9-4760-9ba2-70ce45225d3c" d="m45.78,295.58l-15.54,11.49" style="fill:#ff5; stroke:#55a; stroke-linecap:round; stroke-linejoin:round; stroke-width:2px;"/><path id="uuid-7e7911c6-f509-4897-ad55-51d0cfda8555" d="m59.72,285.89s2.85-2.29,4.19-3.52c4.68-4.29,9.07-8.9,13.47-13.47,1.96-2.03,3.94-4.06,5.76-6.21,3.51-4.14,6.83-8.43,9.95-12.87,2.86-4.07,5.45-8.31,8.01-12.57,2.17-3.61,4.28-7.26,6.21-11,1.08-2.08,2.08-4.2,2.99-6.36,1.37-3.21,3.74-9.79,3.74-9.79" style="fill:none; stroke:#55a; stroke-linecap:round; stroke-linejoin:round; stroke-width:2px;"/><path id="uuid-36c73787-4f52-46ea-bb87-5ab05296159c" d="m117.79,296.21l-25.82-33.67s8.54-10.9,12.2-16.76c3.59-5.77,9.5-18.03,9.5-18.03,0,0,4.27,9.3,5.61,14.22,1.69,6.21,2.56,12.66,2.99,19.08.41,6.1.42,12.27-.37,18.33-.75,5.73-4.12,16.84-4.12,16.84h0Z" style="fill:#fff; stroke:#55a; stroke-linecap:round; stroke-linejoin:round; stroke-width:2px;"/><path id="uuid-a77bdf96-26ae-4a16-9468-9291e5bb88d0" d="m113.67,279.38s.98-9.73.75-14.59c-.28-6.02-2.62-17.89-2.62-17.89l-10.48,16.01,12.35,16.46Z" style="fill:#55a;"/><path id="uuid-2d90905b-1cba-48c4-99e5-7f0b6e0806b2" d="m111.82,329.42c-1.46.65-3.15,1.19-4.7.85-2.85-.61-5.44-2.63-7.19-4.95-1.69-2.23-2.3-5.17-2.7-7.94-.32-2.23.32-4.49.3-6.74-.02-1.5-.02-3.02-.3-4.5-.21-1.13-1.05-3.3-1.05-3.3,0,0-.52,3.34-1.5,4.65-.8,1.07-2,1.97-3.3,2.25-1.34.28-2.83-.11-4.05-.75-1.06-.56-2.09-1.44-2.55-2.55-.34-.82-.3-1.82,0-2.65.24-.65.72-1.29,1.35-1.6.52-.26,1.75-.1,1.75-.1,0,0-.88,1.48-.69,2.25.23.98,1.13,1.88,2.1,2.19.92.29,2.12.09,2.85-.54,1.07-.94,1.29-2.63,1.35-4.05.05-1.23-.32-2.51-.9-3.6-.6-1.13-1.48-2.15-2.55-2.85-1.89-1.23-4.27-1.5-6.44-2.1-1.73-.48-3.62-.43-5.25-1.2-1.26-.59-2.27-1.62-3.3-2.55-1.02-.92-2.09-1.85-2.85-3-.63-.95-1.12-2.03-1.35-3.15-.19-.93-.18-1.92,0-2.85.28-1.43.8-2.86,1.65-4.05.31-.43,1.2-1.05,1.2-1.05,0,0-.7,2.39-.6,3.6.09,1.05.45,2.12,1.05,3,.48.71,1.14,1.4,1.95,1.7.84.31,1.83.18,2.7-.05.58-.15,1.22-.38,1.6-.85.52-.66.63-1.6.65-2.44.01-.41-.11-.82-.25-1.2-.19-.5-.79-1.4-.79-1.4,0,0,1.75.38,2.39.95.63.57.99,1.42,1.2,2.25.25,1.02.3,2.14,0,3.15-.25.84-.77,1.64-1.45,2.2-.64.53-1.48.8-2.3.95-.64.12-1.95-.05-1.95-.05,0,0,2.16,1.02,3.3,1.4,1.42.47,2.92.61,4.35,1.05,1.22.38,2.4.89,3.6,1.35,1.15.44,2.39.72,3.45,1.35,1.07.63,2.02,1.48,2.85,2.4,1.13,1.26,2.02,2.72,2.85,4.2.77,1.39,1.49,2.83,1.95,4.35.45,1.5.51,3.1.75,4.65.21,1.35.42,2.7.6,4.05.17,1.25.25,2.5.45,3.75.16,1.01.16,2.08.6,3,.37.77.96,1.45,1.65,1.95.74.54,1.63,1.03,2.55,1.05.87.02,1.83-.29,2.45-.9.5-.49.69-1.25.75-1.95.07-.81-.5-2.4-.5-2.4,0,0,2.13,1.14,2.7,2.14.39.69.45,1.58.3,2.35-.16.79-.63,1.53-1.2,2.1-.49.49-1.15.81-1.8,1.05-1.33.48-4.18.7-4.18.7,0,0,2.2,1.8,3.49,2.35.78.34,1.64.48,2.49.55.9.07,2.69-.15,2.69-.15,0,0-1.34,1.32-2.18,1.7h0Z" style="fill:#ff5;"/><path id="uuid-21d27723-c868-44da-b92f-0c4ac6eb2b13" d="m30.12,254.32s5.58-3.57,8.17-5.62c3.87-3.07,7.61-6.34,10.98-9.96,2.73-2.93,5.24-6.08,7.4-9.45,2.7-4.19,6.89-13.28,6.89-13.28" style="fill:none; stroke:#000; stroke-linecap:round; stroke-linejoin:round; stroke-width:2px;"/><path id="uuid-9d7ec90a-a312-4bd1-b7ff-1650152ad287" d="m79.25,208.96s-3.71,8.16-5.72,12.17c-1.71,3.39-3.4,6.79-5.39,10.02-2.33,3.78-4.82,7.48-7.63,10.92-2.97,3.65-6.22,7.09-9.7,10.26-3.36,3.05-7,5.79-10.72,8.38-2.13,1.48-4.44,2.7-6.64,4.09-1.2.75-3.57,2.3-3.57,2.3" style="fill:none; stroke:#000; stroke-linecap:round; stroke-linejoin:round; stroke-width:2px;"/><path id="uuid-16479e5c-f35e-4954-be70-b3cd0dfb1418" d="m30.37,274.75s10.54-6.58,15.58-10.21c4.08-2.94,8.18-5.91,11.85-9.35,3.96-3.71,7.54-7.82,10.88-12.1,3.28-4.21,6.16-8.72,8.94-13.28,3.03-4.98,5.79-10.12,8.43-15.32,1.87-3.69,5.23-11.27,5.23-11.27" style="fill:none; stroke:#000; stroke-linecap:round; stroke-linejoin:round; stroke-width:2px;"/><path id="uuid-3d865f1b-415d-496f-9a5a-2ea0f537882f" d="m107.19,197.46s-4.51,10.36-6.85,15.5c-2.41,5.3-4.63,10.71-7.4,15.83-2.92,5.38-6.15,10.6-9.7,15.58-3.45,4.82-7.17,9.47-11.23,13.79-4.04,4.3-8.5,8.21-13.02,12-4.42,3.7-9.09,7.12-13.79,10.47-3.75,2.67-7.56,5.26-11.49,7.66-1.04.64-3.19,1.79-3.19,1.79v5.62s11.56-6.62,16.98-10.47c5.18-3.67,10.02-7.82,14.81-12,4.49-3.92,8.95-7.91,13.02-12.26,4.3-4.59,8.29-9.48,12-14.55,3.52-4.82,6.8-9.85,9.7-15.06,2.8-5.02,5.04-10.34,7.4-15.58,2-4.42,5.72-13.38,5.72-13.38l-2.96-4.93Z"/><path id="uuid-537b8f43-7767-458e-8cdc-e2495a89c488" d="m93.24,202.66l6.45,11.33-14.35,2.3,8.04,14.49-15.53-.72,6.5,14.62-15.35-1.62,2.89,16.79-13.9-3.97,1.26,15.17-13.18-5.78-1.26,16.43-11.74-7.04-2.43,15.75" style="fill:none; stroke:#000; stroke-linecap:round; stroke-linejoin:round; stroke-width:2px;"/><path id="uuid-a77b8ecd-921a-4c80-9c7f-552bcc16daae" d="m34.44,282c0-1.1.9-2,2-2s2,.9,2,2-.9,2-2,2-2-.9-2-2Z"/><path id="uuid-bf6b1277-14c1-420b-9576-954916b1a9e5" d="m48.16,272.57c0-1.1.9-2,2-2s2,.9,2,2-.9,2-2,2-2-.9-2-2Z"/><path id="uuid-2c64e60a-3d23-4ad3-834f-aeaa70474828" d="m60.55,262.43c0-1.1.9-2,2-2s2,.9,2,2-.9,2-2,2-2-.9-2-2Z"/><path id="uuid-938abd53-3c1a-4690-9138-19c47caa3293" d="m73.17,248.91c0-1.1.9-2,2-2s2,.9,2,2-.9,2-2,2-2-.9-2-2Z"/><path id="uuid-0bc40d32-5352-4d1c-965b-779c0deab077" d="m82.86,234.49c0-1.1.9-2,2-2s2,.9,2,2-.9,2-2,2-2-.9-2-2Z"/><path id="uuid-9765d432-a2bb-42fb-8314-f5f973dda719" d="m91.19,220.3c0-1.1.9-2,2-2s2,.9,2,2-.9,2-2,2-2-.9-2-2Z"/><path id="uuid-7c41af84-81dc-4517-8cd2-29616905419c" d="m97.95,205.2c0-1.1.9-2,2-2s2,.9,2,2-.9,2-2,2-2-.9-2-2Z"/><path id="uuid-8062500e-65de-4d70-b835-26dfdd71bc59" d="m67.53,217.82c0-1.1.9-2,2-2s2,.9,2,2-.9,2-2,2-2-.9-2-2Z" style="fill:#55a;"/><path id="uuid-732fa43a-9b6b-41de-9e6e-3b8b6784956d" d="m64.38,223.45c0-1.1.9-2,2-2s2,.9,2,2-.9,2-2,2-2-.9-2-2Z" style="fill:#55a;"/><path id="uuid-ace3b8c7-6447-4980-86c3-9746ae8d6a5c" d="m61.07,228.93c0-1.1.9-2,2-2s2,.9,2,2-.9,2-2,2-2-.9-2-2Z" style="fill:#55a;"/><path id="uuid-72ae7eda-47cb-4007-8369-b5bdfa403cc6" d="m57.46,234.66c0-1.1.9-2,2-2s2,.9,2,2-.9,2-2,2-2-.9-2-2Z" style="fill:#55a;"/><path id="uuid-897c224e-eef7-43f4-8eb1-7b95fedfbb14" d="m53.54,240.04c0-1.1.9-2,2-2s2,.9,2,2-.9,2-2,2-2-.9-2-2Z" style="fill:#55a;"/><path id="uuid-a0a0d90f-7a45-41ce-b614-220b42b43825" d="m48.72,245.2c0-1.1.9-2,2-2s2,.9,2,2-.9,2-2,2-2-.9-2-2Z" style="fill:#55a;"/><path id="uuid-b15cc90a-94e1-4b97-9d68-50abaebe80e8" d="m43.57,249.59c0-1.1.9-2,2-2s2,.9,2,2-.9,2-2,2-2-.9-2-2Z" style="fill:#55a;"/><path id="uuid-8bdbb992-ef8a-434e-b451-1eb73d556b42" d="m38.41,253.83c0-1.1.9-2,2-2s2,.9,2,2-.9,2-2,2-2-.9-2-2Z" style="fill:#55a;"/><path id="uuid-9040735e-1a8e-4fbf-b13f-f71ca619d04a" d="m32.81,257.87c0-1.1.9-2,2-2s2,.9,2,2-.9,2-2,2-2-.9-2-2Z" style="fill:#55a;"/><g id="uuid-b2fc6612-cb78-4e18-8469-10b324921409"><path id="uuid-f6cf69bf-01fa-4bfa-8158-7b03dd947157" d="m82.88,183.02s-1.81-5.66-2.43-8.56c-.31-1.43-.58-2.88-.64-4.34-.12-2.81,1.68-5.87.51-8.43-.29-.64-.96-1.25-1.66-1.28-2.18-.09-4.19,1.82-5.49,3.58-1.62,2.17-2.3,7.79-2.3,7.79,0,0-1.78-7.4-4.73-9.2-.25-.16-.69.22-.89,0-.38-.41.29-1.13.13-1.66-.98-3.25-3.04-6.96-6.26-8.05-.79-.27-1.83.05-2.43.64-1.16,1.15-1.57,3.12-1.28,4.73.49,2.73,2.74,4.97,4.85,6.77.22.19.63.13.77.38.35.64-.35,1.45-.26,2.17.19,1.5,1.66,4.21,1.66,4.21l-.51.38s-1.37-4.62-2.43-6.77c-1.32-2.68-3.23-5.02-4.85-7.53-.85-1.32-1.22-3.13-2.55-3.96-1.31-.81-3.33-1.38-4.6-.51-1.67,1.15-2.1,3.93-1.53,5.87.46,1.56,2.68,1.97,3.58,3.32.75,1.13.79,2.62,1.4,3.83.49.96,1.29,1.73,1.79,2.68.75,1.42.92,3.12,1.79,4.47.6.94,2.3,2.43,2.3,2.43l-1.15.89s-1.29-3.61-2.43-5.11c-.51-.67-1.45-.95-1.92-1.66-1.08-1.64-.88-3.88-1.79-5.62-.87-1.67-1.76-3.64-3.45-4.47-.8-.39-2.04-.62-2.68,0-1.81,1.75-.95,5.12-.26,7.53.65,2.27,2.31,4.18,3.96,5.87.26.26.68.34.89.64.62.87.47,2.09.89,3.07.53,1.23,1.15,2.45,2.04,3.45.28.32,1.02.77,1.02.77l-1.02,1.02s-.5-1.03-.77-1.53c-.87-1.67-1.45-3.55-2.68-4.98-.28-.32-.83-.39-1.02-.77-.17-.34.12-.78,0-1.15-.56-1.74-1.6-3.57-3.19-4.47-.52-.29-1.31-.49-1.79-.13-1.29.97-1.15,3.12-1.02,4.73.24,2.88,1.92,5.45,3.19,8.05.85,1.73,2.04,3.28,2.94,4.98,1.12,2.12,1.91,4.41,3.07,6.51,1.26,2.3,4.21,6.64,4.21,6.64" style="fill:none; stroke:#55a; stroke-linecap:round; stroke-linejoin:round; stroke-width:2px;"/><path id="uuid-2718ed0b-f150-4d1b-a932-de78939929ce" d="m79.43,171.4s-2.62-1.8-3.19-3.19c-.88-2.12,0-6.9,0-6.9" style="fill:none; stroke:#55a; stroke-linecap:round; stroke-linejoin:round; stroke-width:2px;"/><path id="uuid-75b18f45-5510-4eff-a3c8-fee1dc23c2fd" d="m64.49,189.92s.88-5.91,2.17-8.56c.94-1.94,3.96-5.11,3.96-5.11" style="fill:none; stroke:#55a; stroke-linecap:round; stroke-linejoin:round; stroke-width:2px;"/><path id="uuid-44e8464b-927f-4997-b09b-9d19fdbc413f" d="m58.49,187.49c1.53-1.75,3.32-4.38,5.62-6.13" style="fill:none; stroke:#55a; stroke-linecap:round; stroke-linejoin:round; stroke-width:2px;"/><path id="uuid-ee7e43f5-980f-4122-b0c8-840ab8db04c6" d="m55.29,184.55c2.64-2.7,4.85-5.11,8.43-8.43" style="fill:none; stroke:#55a; stroke-linecap:round; stroke-linejoin:round; stroke-width:2px;"/></g><g id="uuid-6a6675c6-7be8-4bd7-84a4-004432e671c7"><path id="uuid-372d4e41-245c-41d5-a08b-b8f34e3cf011" d="m177.59,383.74s2.96-5.16,4.73-7.54c2.01-2.7,4.07-5.32,6.64-7.6,1.35-1.2,3.45-2.47,5.12-1.78.29.12.42.86.42.86" style="fill:none; stroke:#55a; stroke-linecap:round; stroke-linejoin:round; stroke-width:2px;"/><path id="uuid-9befa20e-d051-46d3-b9ae-cdd4b219972f" d="m219.36,387.78c3.01-5.97,6.95-8.7,11.99-11.18,2.06-2.51,5.58-4.83,7.62-3.01,1.8,1.61,1.66,6.87-1.9,7.01" style="fill:none; stroke:#55a; stroke-linecap:round; stroke-linejoin:round; stroke-width:2px;"/><path id="uuid-ac060006-b021-4907-8142-6aaa3c9feb0b" d="m214.48,386.53c3.58-8.09,11.49-17.33,20.67-18.58,4-.55,9.48,1.59,10.84,5.38,1.63,4.54-1.23,11.21-5.92,13.21-2.92,1.25-6.71.21-8.6-2.05-1.66-1.99-1.11-5.99-.42-7.76" style="fill:none; stroke:#55a; stroke-linecap:round; stroke-linejoin:round; stroke-width:2px;"/><path id="uuid-4499834d-8386-40bc-8a8c-55a7b831035a" d="m208.95,385.23c2.46-6.78,8.68-16.9,16.87-19.48,2.6-.82,6.28-.73,7.94,2.01" style="fill:none; stroke:#55a; stroke-linecap:round; stroke-linejoin:round; stroke-width:2px;"/><path id="uuid-aa6637ad-60d1-4fc6-a9a4-c8a35b5dd130" d="m202.08,385.5c2.6-6.81,7.73-16.91,15.45-20.74,2.73-1.35,6.61-1.47,9.14.08" style="fill:none; stroke:#55a; stroke-linecap:round; stroke-linejoin:round; stroke-width:2px;"/><path id="uuid-ae07aa28-c7f1-4d1c-8c6c-d880351a361f" d="m195.59,385.57c1.75-6.24,7.5-16.03,14.51-20.71,2.59-1.73,6.55-3.5,9.12-2.01" style="fill:none; stroke:#55a; stroke-linecap:round; stroke-linejoin:round; stroke-width:2px;"/><path id="uuid-1ce6efa0-8274-4cb1-ad7f-55a9c4fc1466" d="m189.01,388.2c.93-4.75,6.04-15.66,12.19-20.87,1.84-1.56,4.76-4.12,6.77-2.58" style="fill:none; stroke:#55a; stroke-linecap:round; stroke-linejoin:round; stroke-width:2px;"/><path id="uuid-a224e244-c1b8-4378-97cf-c73a44050dd1" d="m182.55,388.19c.98-4.22,4.97-11.21,8.86-16.18,2.04-2.61,5-7.48,8.41-5.28" style="fill:none; stroke:#55a; stroke-linecap:round; stroke-linejoin:round; stroke-width:2px;"/></g><path id="uuid-ce940f93-d88d-4e55-b0f5-238c252e2a91" d="m198.18,365.64l-5.88-14.4" style="stroke:#55a; stroke-linecap:round; stroke-linejoin:round; stroke-width:2px;"/><g id="uuid-2f3138f2-b031-4a27-9936-8672769c6bbe"><path id="uuid-a050bcde-2df5-4635-b13f-e09ac6da8627" d="m147.88,286.5l-14.12-.25s1.07-9.82,1.12-14.75c.06-4.8-.21-9.61-.75-14.38-.46-4.12-1.39-8.17-2.12-12.25-.64-3.59-1.19-7.2-2-10.75-1.13-4.93-2.43-9.82-4-14.62-1.16-3.56-2.49-7.07-4-10.5-2.24-5.08-4.73-10.06-7.5-14.88-2.51-4.36-5.34-8.52-8.25-12.62-1.94-2.74-6.12-8-6.12-8l12.58-7.41s2.15,3.25,3.8,4.16c2.09,1.15,4.75.58,7.05,1.24,1.93.55,3.71,1.53,5.58,2.25,1.56.6,4.72,1.72,4.72,1.72,0,0,4.16,11.57,6.03,17.42,2.07,6.49,4.21,12.99,5.75,19.62,1.1,4.74,1.97,9.54,2.5,14.38.81,7.46.83,14.99,1,22.5.14,6.29.16,12.59,0,18.88-.1,4.13-.3,8.26-.62,12.38-.15,1.96-.62,5.88-.62,5.88Z" style="fill:#55a;"/><path id="uuid-235ff3e2-6b66-4403-b9f0-a98757e7b14e" d="m146.38,273.62l-4.5,5.38-3.75-5.5,4.12-5.75,4.12,5.88Z" style="fill:#fff;"/><path id="uuid-80d211d5-5a58-4f1b-afd9-4cd48c13d828" d="m146.62,259.05l-3.71,5.95-4.47-4.93,3.29-6.27,4.9,5.25Z" style="fill:#fff;"/><path id="uuid-2f54d070-eac7-4014-9a8e-b556c33fc427" d="m145.32,244.69l-3.41,6.13-4.72-4.69,2.97-6.42,5.16,4.99Z" style="fill:#fff;"/><path id="uuid-8d461997-b1b5-400b-994c-8e1529656b2c" d="m143.83,229.38l-4.21,6.93-5.67-5.35,3.68-7.27,6.2,5.69Z" style="fill:#fff;"/><path id="uuid-17c7a210-e58b-4688-adf5-d3c662977552" d="m140.32,212.55l-3.4,7.36-6.24-4.67,2.84-7.64,6.8,4.95Z" style="fill:#fff;"/><path id="uuid-e5f58fa7-85ce-404e-92a4-c4a1d55df16b" d="m135.16,196.46l-2.76,8.75-7.52-4.37,2.1-8.98,8.18,4.61Z" style="fill:#fff;"/><path id="uuid-26d59ece-35f7-4d78-91a5-23806e2aa0d5" d="m126.45,178.36l-.51,10.75-9.3-2.73-.27-10.82,10.08,2.8Z" style="fill:#fff;"/></g><path id="uuid-5b20eeea-27b3-4cd6-89b5-1c37aeda96a9" d="m29.5,149.5v360h270" style="fill:none; stroke:#55a; stroke-width:2px;"/><path id="uuid-1aef933f-2108-470f-8e27-0cd5e44761e6" d="m59.5,29.5h270v360h0" style="fill:none; stroke:#55a; stroke-width:2px;"/><path id="uuid-c1d14d7a-d6a1-4a9c-a3f2-e2d89ed393e3" d="m157.87,262.43l13.63.57.5-10.75,15.75-.25v10.75l13.58.22.04,13.71-13.38-.18-.25,10.75-16.09-.28-.05-10.51-13.36.04-.38-14.07Z" style="fill:#ff5;"/><rect id="uuid-e2a380af-d680-4b56-99c5-12b32b023933" x="173.98" y="264.96" width="11.92" height="9.39" style="fill:#010000;"/><path id="uuid-cc2f3a94-2caf-42a5-9ef2-1200cd48d42b" d="m89.5,44.5s6,15,13,25,17,20,17,20c0,0-10,10-17,20s-13,25-13,25c0,0-6-15-13-25s-17-20-17-20c0,0,10-10,17-20s13-25,13-25" style="fill:#f55;"/><path id="uuid-795e5e33-4f9e-4041-9e41-0363f2e2f820" d="m29.5,89.5s3,7.5,6.5,12.5,8.5,10,8.5,10c0,0-5,5-8.5,10s-6.5,12.5-6.5,12.5c0,0-3-7.5-6.5-12.5s-8.5-10-8.5-10c0,0,5-5,8.5-10s6.5-12.5,6.5-12.5" style="fill:#f55;"/><path id="uuid-5523c400-3b03-4ccb-94c9-7d9dad7d0fd6" d="m269.5,494.5s-6-15-13-25-17-20-17-20c0,0,10-10,17-20s13-25,13-25c0,0,6,15,13,25s17,20,17,20c0,0-10,10-17,20s-13,25-13,25" style="fill:#f55;"/><path id="uuid-9ea9a489-f35c-434d-b061-7647e1b27226" d="m329.5,449.5s-3-7.5-6.5-12.5-8.5-10-8.5-10c0,0,5-5,8.5-10s6.5-12.5,6.5-12.5c0,0,3,7.5,6.5,12.5s8.5,10,8.5,10c0,0-5,5-8.5,10s-6.5,12.5-6.5,12.5" style="fill:#f55;"/></g></svg>