<?xml version="1.0" encoding="UTF-8"?><svg id="uuid-88d14bd2-0035-410a-b724-0ebfa68713ce" xmlns="http://www.w3.org/2000/svg" viewBox="0 0 359 539"><g id="uuid-3ad00a5c-de52-416e-bfde-1a595a36776a"><path id="uuid-759310dc-8258-451d-82d7-6611104d3a47" d="m206.49,252.27l-4.7-.09-1.17,10.48-1.08,13.55v18.42l.72,24.47,2.53,16.26,3.25,10.84-7.22,1.99-6.68,3.07,6.5,14.99,1.99,1.44,3.79-3.25,4.7.54,2.53-1.44,3.79-1.26,3.61.72-4.88-14.27-3.25-12.46-3.79-14.45-1.63-16.44.36-28.36.63-24.74Z" style="fill:#ff5;"/><path id="uuid-6a13d66d-2b96-41c2-bbba-43eb75c61a00" d="m152.76,286.81l4.7.09,1.17-10.48,1.08-13.55v-18.42l-.72-24.47-2.53-16.26-3.25-10.84,7.22-1.99,6.68-3.07-6.5-14.99-1.99-1.44-3.79,3.25-4.7-.54-2.53,1.44-3.79,1.26-3.61-.72,4.88,14.27,3.25,12.46,3.79,14.45,1.63,16.44-.36,28.36-.63,24.74Z" style="fill:#ff5;"/><path id="uuid-8b2108bd-ee80-4ede-a06e-723d6c59a8f2" d="m339.5,509.5v-50h-5v15l-3,7-7-22h-5l9,28-9,22h5l10-24v24h5Z" style="fill:#f55;"/><path id="uuid-e8ff25df-9492-4ee6-adcb-4faac95773d0" d="m19.5,29.5v50h5v-15l3-7,7,22h5l-9-28,9-22h-5l-10,24v-24h-5Z" style="fill:#f55;"/><path id="uuid-54391ff0-bff7-409a-a0b2-ece0dcd3958a" d="m140,176.5s4.25,11.59,6,17.5c1.95,6.59,3.74,13.24,5,20,1.23,6.6,2.08,13.29,2.5,20,.38,6.15.08,12.33,0,18.5-.08,6.33-.21,12.67-.5,19-.23,5.01-1,15-1,15" style="fill:none; stroke:#55a; stroke-linecap:round; stroke-linejoin:round; stroke-width:2px;"/><path id="uuid-85d9ba78-24ef-4e03-9f33-0baaea94fb08" d="m218.76,362.82s-4.25-11.59-6-17.5c-1.95-6.59-3.74-13.24-5-20-1.23-6.6-2.08-13.29-2.5-20-.38-6.15-.08-12.33,0-18.5.08-6.33.21-12.67.5-19,.23-5.01,1-15,1-15" style="fill:none; stroke:#55a; stroke-linecap:round; stroke-linejoin:round; stroke-width:2px;"/><path id="uuid-5ae69de6-7b29-4fdf-8cac-1cf7aa578aa3" d="m219.75,253l-18-.25-1.07,10.71-13.56-.58.25-10.62-14.38.12-.75,10.75-12.62-.75.62-17.75v-13l47.12,1.62,12.38,19.75Z"/><path id="uuid-5ad48f40-e36f-4200-922f-4a5614bb0fa3" d="m158.8,217.02l13.71-5.68,11.5-6.37,8.73-7.76,6.79-7.34,4.29-5.54,25.07.55-6.37,11.08-5.96,12.05-5.26,13.02-3.6,12.74-47.65-1.39-.42-6.93-.83-8.45Z" style="fill:#f55;"/><path id="uuid-151c7575-cf99-4a1e-af6f-3f341b6af41c" d="m270.35,174.76l15.76-14.41,16.1,14.92,6.61,6.61,19.66,20.51.51,29.15-11.02,7.97-47.63-64.75Z"/><path id="uuid-604c5f24-a7cb-4bb0-8e99-693bd1979914" d="m230.83,251.99l3.32-14.04,2.81-12.77,39.07,50.3-6.89,9.45-10.21,14.3-5.36,10.21-4.6,10.47-4.6,11.23-5.11-13.79-3.83-11.75-3.57-18.64-2.04-10.47v-9.19l1.02-15.32Z" style="fill:#55a;"/><path id="uuid-0784fec0-7f14-4534-98ab-c53f8668ec80" d="m255.86,347.23l72.51-31.92v9.45l-61.79,36.26-6.13-7.66-4.6-6.13Z"/><path id="uuid-84c780e2-5ea3-4fee-81d8-2ecc0ce83f81" d="m252.07,198.14l3.45-5.46,43.39,59.48-3.74,4.02-43.1-58.04Z" style="fill:#ff5;"/><path id="uuid-be329777-d517-438b-920d-a729260836fb" d="m255.81,192.39l4.88-6.61,4.88-6.32,47.12,63.5,16.38-11.21v12.64l-16.38,10.06-18.68,15.23-14.94,15.23-10.63,14.94-9.77,17.53-6.9,15.23-2.87,6.9-4.88-8.91,4.6-12.07,11.78-21.26,9.48-12.93,8.62-11.49,10.34-10.06,5.75-6.32,4.88-3.74-43.68-60.34Z" style="fill:#f55;"/><path id="uuid-ade82ceb-5789-402e-8866-0a1fe49ad78f" d="m295.88,322.91l4.16-9.55,6.01-8.47,5.85-6.62,6.01-5.39,6.62-5.08,4.78-3.54v24.49l-33.43,14.17Z" style="fill:#f55;"/><path id="uuid-85d0c5ce-f0a4-4f99-b0c4-205746d45655" d="m251.16,341.91l28.82-11.83,3.04-7.63,5.03-9.2,6.01-10.6,10.42-13.3,10.18-8.47,8-5.02,6.14-3.65.77-24.69-3.83,1.8-11.72,7.66-14.42,10.81-12.62,11.27-11.94,14.64-9.01,13.74-8.34,16.67-6.76,16.45.23,1.35Z" style="fill:#ff5;"/><path id="uuid-28bd3816-aac5-4c92-9709-9d97253bdef4" d="m251.44,342.77l76.93-33.84" style="stroke:#000; stroke-linecap:round; stroke-linejoin:round; stroke-width:2px;"/><g id="uuid-88457a50-69df-4245-a7f0-25b252273297"><path id="uuid-269f8cd6-67b0-453d-af0d-e2ea2268b954" d="m132.2,62.49s-.71,6.15.6,8.77c.59,1.18,2.33,1.45,2.99,2.59.91,1.58,1,5.38,1,5.38,0,0,5.45-.28,8.17-.4,5.51-.23,11.03-.82,16.54-.6,4.01.16,8.02.61,11.96,1.39,5.42,1.09,10.73,2.73,15.94,4.58,5.24,1.87,10.12,4.65,15.34,6.58,3.78,1.39,7.61,2.73,11.56,3.59,3.6.78,7.29,1.09,10.96,1.39,3.44.28,6.91.49,10.36.4,2.93-.08,8.77-.8,8.77-.8,0,0,3.27-1.47,3.59-2.99.33-1.6-2.09-2.75-2.19-4.38-.09-1.4,1.74-2.62,1.39-3.99-.26-1.05-2.39-2.19-2.39-2.19,0,0-14.28-.67-21.32-1.79-6-.95-11.95-2.32-17.73-4.18-5.13-1.65-9.87-4.36-14.94-6.18-4.71-1.69-9.43-3.46-14.35-4.38-5.37-1-10.88-1-16.34-1.2-4.85-.18-9.71-.4-14.55,0-4.03.33-11.96,1.99-11.96,1.99l-3.39-3.59Z" style="fill:#f55; stroke:#55a; stroke-linecap:round; stroke-linejoin:round; stroke-width:2px;"/><path id="uuid-27eb1944-8ca5-4599-8a79-c635ee26c2be" d="m138.98,70.06s14.86-1.82,22.32-1.59c7.63.23,15.33,1.04,22.71,2.99,8.04,2.12,15.25,6.68,23.11,9.36,5.81,1.99,11.68,3.97,17.73,4.98,5.71.95,17.33,1,17.33,1" style="fill:none; stroke:#000; stroke-linecap:round; stroke-linejoin:round; stroke-width:2px;"/><path id="uuid-06b2f31d-c14b-4c86-aceb-80218db479be" d="m140.97,74.64s13.29-.9,19.93-.6c7.09.33,14.26.8,21.12,2.59,8.13,2.12,15.4,6.75,23.31,9.56,5.62,2,11.27,4.09,17.14,5.18,4.32.81,8.75,1.01,13.15,1,2.47,0,7.37-.6,7.37-.6" style="fill:none; stroke:#000; stroke-linecap:round; stroke-linejoin:round; stroke-width:2px;"/></g><g id="uuid-b6cc4c38-6701-43ab-aed8-406cc1e343e6"><path id="uuid-6a55b7ab-431b-439f-881f-03d087b99c65" d="m116.5,29.5c9.72,17.2,9.08,19.48,18.8,36.68,10.45-3.78,29.59-2.73,44.12-.48,12.04,1.86,22.84,8.69,34.72,11.42,10.57,2.43,22.24,4.38,32.24,4.38l28.12-52H116.5Z" style="fill:#ff5; stroke:#55a; stroke-width:2px;"/><path id="uuid-98bc1cd0-441c-4da6-8e2c-56865cd2842e" d="m171.24,58.34c1.64,0,3.28-.12,4.78-.48.82-.2,1.52-.53,2.22-.9,1.18-.63,2.03-1.63,3.34-2.24-.58,2.13-2.46,3.22-4.11,4.33-1.48,1-3.21,1.63-5,1.94-1.92.34-3.98.36-5.9-.1-2.26-.54-4.4-1.68-6.25-3.04-1.25-.93-2.48-2.03-3.14-3.39-.36-.73-.38-1.76-.37-2.39.72,1.14,1.68,2.47,3,3.43,1.33.96,3.01,1.67,4.7,2.13,2.19.6,4.51.72,6.73.73h0Z"/><path id="uuid-dfb42a00-0bf7-4c05-b466-4f6ae0d3f583" d="m153.74,49.22c-.69-.57-.53-2.42.28-3.24.23-.24.72-.34,1.05-.22.95.33,1.57,1.34,1.63,2.21.04.55-.65.96-.84,1.48-.16.46-.25,1.42-.25,1.42,1.01,1.21,1.48,2.69,2.95,3.16,2.18.7,5.33.35,6.86-1.12,1.41-1.35,1.08-3.69.38-5.42-.47-1.17-1.51-2.37-2.88-2.81-1.24-.4-2.65.16-3.92.46,1.15-1.52,2.46-3.3,2.15-5.1-.3-1.72-1.91-3.3-3.64-4.27-.73-.41-1.7-.36-2.56-.47h0c-1.7.31-3.56.96-4.52,2.17-.97,1.22-.84,2.92-.68,4.4.12,1.13.73,2.2,1.23,3.26-1.01-.57-2.29-.89-3.43-.7-2.17.35-4.75,1.46-5.36,3.24-.59,1.72.73,3.85,2.33,5.06,1.49,1.12,3.85,1.75,5.76,1.29,1.6-.39,2.24-1.95,3.49-3.09l-.02-1.72Z"/><path id="uuid-9363d0ad-c045-4fd7-83f4-a32f7d23f51a" d="m140.72,58.39c-1.31,0-2.62-.01-3.81-.48-1.24-.49-2.12-1.63-3.25-2.34-.84-.53-1.54-1.49-2.62-1.44.46,2.13,2.86,3.63,4.7,4.98,1.19.87,2.57,1.63,3.99,1.94,1.53.34,3.17.36,4.7-.1,1.8-.54,3.51-1.68,4.99-3.04,1-.93,1.81-2.17,2.51-3.39.63-1.11,1.49-2.89,1.48-3.52-1.48.12-2.12,3.3-3.58,4.56-1.09.94-2.4,1.67-3.75,2.13-1.75.6-3.6.72-5.37.73h0Z"/><path id="uuid-af548add-9065-4ed9-aa30-f1d2096960ca" d="m130.66,52.22c.06-.68.54-.67.53-1.5,0-.82-1.22-1.4-2.02-1.35-.29.02-.71,1.15-.79,1.43l-4.44-9.46c.34-.38.7-.71,1.08-1.01.66-.21,1.31-.61,1.99-.51,1.61.22,3.39,1.03,4.27,2.42.92,1.45.68,3.45.46,5.19.79-.71,1.56-1.68,2.6-1.77,1.15-.1,2.35.57,3.14,1.42,1.17,1.25,2.32,3.19,1.84,4.86-.51,1.81-2.62,3.02-4.43,3.37-1.35.26-2.76-.42-3.95-1.12"/><path id="uuid-733b0935-aa67-4962-80f0-ded0dd363c58" d="m182.09,53c-.58-.67-.12-2.47.82-3.15.27-.2.76-.21,1.08-.04.88.49,1.32,1.58,1.24,2.45-.06.55-.8.84-1.07,1.32-.24.42-.48,1.36-.48,1.36.79,1.36,1.01,2.9,2.38,3.61,2.04,1.05,5.2,1.24,6.95.05,1.61-1.1,1.69-3.46,1.29-5.28-.27-1.23-1.09-2.59-2.37-3.26-1.16-.6-2.64-.28-3.94-.2,1.39-1.31,2.98-2.84,2.97-4.66,0-1.75-1.32-3.58-2.88-4.82-.65-.52-1.61-.64-2.44-.89h0c-1.73.02-3.67.35-4.82,1.38-1.16,1.04-1.32,2.74-1.41,4.22-.07,1.14.35,2.29.67,3.42-.9-.73-2.1-1.26-3.27-1.27-2.2-.02-4.92.64-5.83,2.3-.87,1.59.07,3.91,1.45,5.38,1.28,1.35,3.5,2.37,5.46,2.24,1.65-.11,2.54-1.55,3.96-2.46l.27-1.7Z"/><path id="uuid-b2f347f4-6238-477d-bcb9-48d184f63ebc" d="m195.11,63.85c1.42.32,2.93.39,4.35.09,1.25-.26,2.35-1.01,3.48-1.59,1.29-.66,2.46-1.95,3.78-2.16-1.07,1.88-3.63,4.89-6.29,6.1-1.5.69-3.27.65-4.93.44-1.79-.22-3.61-.79-5.19-1.77-1.86-1.16-3.45-2.86-4.73-4.69-.87-1.25-1.66-2.65-1.89-4.15-.13-.81.12-1.79.3-2.4.34,1.29.84,2.85,1.76,4.14.92,1.3,2.23,2.45,3.6,3.37,1.78,1.19,3.71,2.14,5.76,2.61h0Z"/><path id="uuid-f7114538-7a9f-4444-86fa-e8f2e971ebdc" d="m209.48,58.91c.81-.31,1.34-2.08.92-3.1-.12-.29-.51-.53-.85-.53-.95.01-1.86.76-2.23,1.55-.23.5.22,1.09.2,1.64-.02.48-.3,1.39-.3,1.39-1.32.81-2.27,2.04-3.73,2.02-2.17-.03-4.8-1.33-5.61-3.16-.74-1.69.39-3.77,1.62-5.15.84-.94,2.18-1.74,3.55-1.72,1.23.02,2.27.97,3.27,1.64-.46-1.77-.96-3.82-.04-5.4.88-1.51,2.86-2.48,4.74-2.84.79-.15,1.62.19,2.41.35h0c1.38.81,2.77,1.99,3.18,3.42.41,1.44-.32,2.97-.99,4.3-.51,1.01-1.43,1.82-2.26,2.65,1.09-.22,2.36-.21,3.26.41,1.46,1,2.65,2.9,2.53,4.67-.11,1.63-1.38,3.31-2.88,3.98-1.69.75-4.01.44-5.52-.58-1.27-.85-1.26-2.51-1.94-3.95l.64-1.59Z"/><path id="uuid-69441691-3b59-4abe-af4f-0b7dc3596c01" d="m220.27,69.92c1.39.25,2.87.25,4.23-.12,1.2-.32,2.26-1.07,3.3-1.76,1.13-.75,1.89-2.31,3.16-2.58-.95,1.93-2.92,5.23-5.4,6.64-1.4.79-3.14.8-4.76.68-1.74-.13-3.55-.61-5.13-1.52-1.86-1.07-3.49-2.69-4.83-4.46-.9-1.2-1.74-2.56-2.04-4.05-.16-.8.03-1.8.17-2.41.39,1.27.95,2.8,1.91,4.05.96,1.25,2.28,2.34,3.66,3.19,1.79,1.1,3.7,1.96,5.72,2.33h0Z"/><path id="uuid-454099d9-5e1d-46b9-ab9d-70662c7f5206" d="m233.26,64.38c.73-.4,1.04-2.21.55-3.18-.14-.28-.53-.48-.85-.44-.89.11-1.67.95-1.93,1.78-.17.52.32,1.06.35,1.61.03.47-.14,1.42-.14,1.42-1.16.95-1.94,2.31-3.29,2.41-1.87.14-4.06-.98-4.97-2.62-.85-1.53-.49-3.71.39-5.22.64-1.09,1.87-1.96,3.15-2.09,1.16-.12,2.22.72,3.23,1.28-.61-1.71-1.29-3.7-.58-5.36.68-1.59,2.44-2.77,4.16-3.33.72-.23,1.54.02,2.3.09h0c1.38.66,2.8,1.68,3.33,3.06.53,1.38,0,2.99-.5,4.38-.38,1.06-1.16,1.96-1.85,2.88,1-.33,1.88-.98,2.9-.96,1.18.02,2.8.18,3.32,1.24,1.11,2.24-.1,5.81-2.19,7.19-1.34.88-3.26.01-4.77-.52-1.14-.4-2.28-.6-3.07-1.96l.44-1.65Z"/><path id="uuid-9a29aebd-b3fe-45e2-bf0b-f63cf3094d24" d="m240.66,72.8c-1.23-.1-2.53-.42-3.52-1.17-1.05-.8-1.44-2.22-2.22-3.28-.6-.81-.88-1.79-1.88-2.37.28,2.09.82,5.59,2.59,7.6.94,1.06,2.42,1.56,3.81,1.84,1.5.31,3.14.3,4.71-.18,1.85-.56,3.65-1.71,5.25-3.08,1.08-.93,2.15-2.03,2.8-3.38.35-.73.46-1.74.5-2.36-.67,1.13-1.55,2.45-2.69,3.41-1.14.96-2.55,1.68-3.93,2.16-1.8.61-3.63.96-5.43.81h0Z"/><path id="uuid-42ea0c9c-916d-4ca9-a0a4-7a7dc9fef02f" d="m253.15,65.43c.2-.72.01-.82.28-1.68.27-.85.91-1.16,1.19-.92.1.09-.1,1.36-.16,1.67l4.69-8.72c0-.47-.04-.9-.08-1.3-.18-.37-.3-.94-.58-1-.68-.15-1.6.26-2.38,1.49-.81,1.28-1.36,3.41-1.83,5.25-.07-.92-.82-.67-1.3-.66-1.09,0-2.2.66-2.9,1.49-1.09,1.31-1.95,3.25-1.48,4.88.24.83,1.14,1.44,1.97,1.69.59.18,1.17.22,1.84-.22"/><path id="uuid-01bca8a5-e071-482d-be27-9974bc892ded" d="m133.33,60.45s6.61,2.21,10.01,2c4.26-.26,12.17-4,12.17-4,0,0,8.31,3.98,12.81,4.32,4.32.33,12.81-2.24,12.81-2.24,0,0,6.8,6.11,11.05,7.36,4.22,1.25,13.21-.16,13.21-.16,0,0,5.58,6.95,9.6,8.08,5.04,1.42,15.53-2.32,15.53-2.32,0,0,7.22,5.05,11.37,5.04,2.42,0,6.64-2.96,6.64-2.96l-2.72,5c-5.71-.18-9.99-.51-15.85-1.41-5.85-.9-11.74-1.75-17.45-3.32-5.4-1.49-10.51-3.86-15.78-5.75-4.23-1.52-8.36-3.37-12.71-4.48-3.29-.84-6.68-1.2-10.04-1.63-2.87-.37-5.75-.67-8.63-.85-4.39-.27-8.8-.4-13.2-.33-2.88.05-5.7.22-8.7.56-2.59.29-7.56,1.71-7.56,1.71l-2.54-4.62Z"/></g><path id="uuid-21140578-4d0c-4493-a107-6b3bb4ed31cc" d="m163.46,171.9c2.4.25,5.29-.66,7.94-3.2l6.43-8.18,4.18-4.58,3.79,3.39,6.18,2.19-4.78,9.17-8.37,8.57-8.57,6.38-3.6,2.79-2.58-5.78-1.99-4.9-1.4-4.06,2.77-1.77Z" style="fill:#f55;"/><g id="uuid-1b763667-321f-424a-87a8-3c765aae80f6"><path id="uuid-f573a8da-82d3-47cc-a927-2ee37144d9b4" d="m183.01,83.01c.87,8.68,3.14,17.14,5.12,25.62,2.69,11.54,8.78,22.51,9.15,34.35.13,4.09,1.26,10.21-2.4,12.03-2.84,1.42-8.61.43-8.58-4.14.03-3.74,5.65-5.67,6.87-1.71" style="fill:none; stroke:#55a; stroke-linecap:round; stroke-linejoin:round; stroke-width:2px;"/><path id="uuid-db4b6034-dd9d-4792-9db2-c474395fd702" d="m188.19,85.2c2.24,12.56,7.24,24.45,9.97,36.89,2.04,9.33,5.6,19.28,4.78,28.27-.43,4.66-4.48,10.7-9.3,11.13-5.57.51-12.78-3.34-12.89-10.73-.07-4.67,5.67-9.81,10.43-9.77,2.87.02,4.64,3.54,6.18,5.98" style="fill:none; stroke:#55a; stroke-linecap:round; stroke-linejoin:round; stroke-width:2px;"/><path id="uuid-2f573c63-dcf3-4044-bf9d-949e12f7e438" d="m193.37,87.2c1.9,11.08,6.32,21.56,8.96,32.47,2.38,9.84,7.59,19.71,6.2,29.74-.53,3.84-2.69,7.51-5.39,10.32" style="fill:none; stroke:#55a; stroke-linecap:round; stroke-linejoin:round; stroke-width:2px;"/><path id="uuid-4260fe87-8a9f-4476-81bf-2509948583a7" d="m200.13,89.79c1.75,10.61,5.82,20.68,8.25,31.13,2.19,9.44,7,18.91,5.71,28.51-.49,3.66-2.45,7.17-4.97,9.89" style="fill:none; stroke:#55a; stroke-linecap:round; stroke-linejoin:round; stroke-width:2px;"/><path id="uuid-7ebdc525-ac39-4e85-af02-94aff1504658" d="m205.69,91.88c1.75,10.35,5.82,20.14,8.25,30.33,2.19,9.19,7,18.41,5.71,27.78-.49,3.58-2.47,7-4.97,9.64" style="fill:none; stroke:#55a; stroke-linecap:round; stroke-linejoin:round; stroke-width:2px;"/><path id="uuid-30f38846-67f1-4a99-b60b-bf01e69dcf81" d="m211.67,94.57c1.75,10,5.82,19.42,8.25,29.26,2.19,8.87,6.99,17.75,5.71,26.8-.49,3.48-2.5,6.78-4.97,9.3" style="fill:none; stroke:#55a; stroke-linecap:round; stroke-linejoin:round; stroke-width:2px;"/><path id="uuid-beea92b9-bbd0-441d-a05c-d58d03784f60" d="m217.45,94.57c1.75,10,5.82,19.42,8.25,29.26,2.19,8.87,6.99,17.75,5.71,26.8-.49,3.48-2.5,6.78-4.97,9.3" style="fill:none; stroke:#55a; stroke-linecap:round; stroke-linejoin:round; stroke-width:2px;"/><path id="uuid-f15522eb-b351-4ad8-9269-7c3892bc5303" d="m223.03,95.96c1.76,9.8,5.82,19.01,8.25,28.64,2.19,8.67,6.98,17.37,5.71,26.22-.49,3.42-2.52,6.65-4.97,9.1" style="fill:none; stroke:#55a; stroke-linecap:round; stroke-linejoin:round; stroke-width:2px;"/><path id="uuid-aa1c16aa-00cb-4e14-9e1e-1cbc15527666" d="m228.81,97.06c1.76,9.62,5.8,18.65,8.25,28.1,2.18,8.36,6.89,16.72,5.74,25.28-.47,3.51-2.45,6.89-5,9.38" style="fill:none; stroke:#55a; stroke-linecap:round; stroke-linejoin:round; stroke-width:2px;"/><path id="uuid-9a89db60-c3e3-4f69-a2c8-f80ee26736c3" d="m233.99,96.86c1.76,9.62,5.8,18.65,8.25,28.1,2.18,8.36,6.89,16.72,5.74,25.28-.47,3.51-2.45,6.89-5,9.38" style="fill:none; stroke:#55a; stroke-linecap:round; stroke-linejoin:round; stroke-width:2px;"/><path id="uuid-39b7c625-696c-4c21-8563-9442e444eceb" d="m239.17,97.26c1.76,9.62,5.8,18.65,8.25,28.1,2.18,8.36,6.89,16.72,5.74,25.28-.47,3.51-2.45,6.89-5,9.38" style="fill:none; stroke:#55a; stroke-linecap:round; stroke-linejoin:round; stroke-width:2px;"/><path id="uuid-d28c118d-8246-4338-81dc-89723c99c671" d="m244.55,97.06c1.76,9.62,5.8,18.65,8.25,28.1,2.18,8.36,6.89,16.72,5.74,25.28-.47,3.51-2.45,6.89-5,9.38" style="fill:none; stroke:#55a; stroke-linecap:round; stroke-linejoin:round; stroke-width:2px;"/></g><path id="uuid-e43cdc05-7c01-4a0c-88ab-263790dd207d" d="m192.64,162.55s-2.91,5-4.67,7.29c-2.81,3.66-5.91,7.13-9.34,10.21-2.74,2.47-5.72,4.69-8.9,6.56-2.72,1.6-5.69,2.74-8.61,3.94-2.35.97-7.15,2.63-7.15,2.63" style="fill:none; stroke:#55a; stroke-linecap:round; stroke-linejoin:round; stroke-width:2px;"/><path id="uuid-babaa02d-b64d-40d1-bd2e-f15bd31414f7" d="m197.31,160.37h88.4" style="fill:none; stroke:#55a; stroke-linecap:round; stroke-linejoin:round; stroke-width:2px;"/><path id="uuid-d6058331-2bfb-41ec-a87a-ce61000e2b89" d="m154.76,174.81l4.96,14.73" style="fill:none; stroke:#55a; stroke-linecap:round; stroke-linejoin:round; stroke-width:2px;"/><path id="uuid-8a360108-7e21-45b0-8ab4-4a085e5e7abc" d="m147.86,176.12s3.39,11.28,5.11,16.92c.72,2.38,1.56,4.74,2.19,7.15,1.47,5.68,2.86,11.4,3.65,17.21.65,4.83.75,9.72.88,14.59.25,10.06-.29,30.2-.29,30.2h0" style="fill:none; stroke:#55a; stroke-linecap:round; stroke-linejoin:round; stroke-width:2px;"/><path id="uuid-97ed8e03-4bd4-4a6c-b7d2-79c6fb587bff" d="m155.45,200.84s8.84-3.14,12.97-5.32c4.17-2.19,8.15-4.78,11.82-7.73,3.03-2.44,5.78-5.23,8.31-8.17,1.73-2,3.18-4.23,4.67-6.42,1.23-1.81,3.5-5.54,3.5-5.54,0,0,28.5.16,42.74,0,6.61-.07,19.84-.44,19.84-.44,0,0-9.91,10.59-14.3,16.34-2.83,3.71-5.38,7.64-7.73,11.67-2.48,4.24-4.74,8.62-6.71,13.13-1.85,4.23-3.32,8.61-4.76,12.99-1.32,4.04-2.78,8.07-3.56,12.24-1.16,6.24-1.6,18.96-1.6,18.96l-12.84-18.82s2.21-9.34,3.79-13.86c1.42-4.05,3.32-7.91,5.11-11.82,2-4.37,4-8.75,6.27-12.98,1.98-3.69,6.42-10.79,6.42-10.79h-25.82s-4.58,5.64-7.03,8.32c-2.69,2.93-5.39,5.89-8.43,8.46-3.23,2.72-6.71,5.17-10.36,7.29-3.25,1.89-6.77,3.29-10.21,4.81-2.89,1.28-8.75,3.65-8.75,3.65l-3.35-15.98Z" style="fill:#ff5; stroke:#55a; stroke-linecap:round; stroke-linejoin:round; stroke-width:2px;"/><path id="uuid-54d2f402-7e30-4140-9037-e888c393a5a2" d="m240.43,167.96l-11.03,16.18" style="fill:none; stroke:#55a; stroke-linecap:round; stroke-linejoin:round; stroke-width:2px;"/><path id="uuid-1a0ca54a-74c2-4be6-9dd6-5b424a258f3e" d="m243.84,184.87l-14-.29" style="fill:none; stroke:#55a; stroke-linecap:round; stroke-linejoin:round; stroke-width:2px;"/><path id="uuid-7b10de01-2dcd-46ff-a1a2-dd5da58d2321" d="m222.69,195.52l14,.44" style="fill:none; stroke:#55a; stroke-linecap:round; stroke-linejoin:round; stroke-width:2px;"/><path id="uuid-ea2f9067-3c3b-4a35-ac21-a74b8d20f93c" d="m217.29,208.07l12.4.15" style="fill:none; stroke:#55a; stroke-linecap:round; stroke-linejoin:round; stroke-width:2px;"/><path id="uuid-295b081b-4673-4be9-bc74-3b89a6e6fb51" d="m212.04,221.05l13.13-.29" style="fill:none; stroke:#55a; stroke-linecap:round; stroke-linejoin:round; stroke-width:2px;"/><path id="uuid-d944bba2-884a-47cb-9bc2-47c8690bf595" d="m208.69,234.18l12.69-.29" style="fill:none; stroke:#55a; stroke-linecap:round; stroke-linejoin:round; stroke-width:2px;"/><path id="uuid-d3b996b2-90c3-470c-bb6f-38b03e64d93a" d="m258.08,364.91s-5.19-7.65-7.67-11.54c-2.21-3.46-4.46-6.9-6.42-10.5-3.06-5.64-5.97-11.39-8.31-17.36-2.58-6.59-4.54-13.42-6.27-20.28-1.11-4.37-1.89-8.82-2.63-13.27-.78-4.69-1.63-9.4-1.9-14.15-.47-8.45-.25-16.96.58-25.38.64-6.4,1.71-12.78,3.37-18.99,1.18-4.43,2.94-8.7,4.66-12.95,1.64-4.05,3.42-8.06,5.4-11.96,2.01-3.98,4.3-7.82,6.56-11.67,2.17-3.69,4.25-7.44,6.71-10.94,4.42-6.28,9.43-12.13,14.44-17.94,2.2-2.56,6.87-7.45,6.87-7.45l12.1-.14s-10.69,8.84-15.61,13.71c-2.23,2.21-4.27,4.59-6.27,7-3.06,3.68-5.94,7.5-8.75,11.38-1.52,2.1-3.03,4.2-4.38,6.42-3.74,6.18-7.15,12.57-10.21,19.11-1.46,3.12-2.75,6.33-3.89,9.58-1.21,3.46-2.26,6.99-3.12,10.56-1.17,4.85-2.29,9.75-2.76,14.72-.83,8.66-.8,17.43-.15,26.11.42,5.6,1.46,11.14,2.63,16.63,1.21,5.68,2.75,11.3,4.54,16.83,1.85,5.72,4.01,11.35,6.4,16.86,1.01,2.33,2.12,4.63,3.36,6.86.98,1.76,2.09,3.44,3.21,5.11,1.42,2.11,2.92,4.16,4.44,6.2,3.34,4.48,10.29,13.25,10.29,13.25l-7.21,4.21Z" style="fill:#ff5; stroke:#55a; stroke-linecap:round; stroke-linejoin:round; stroke-width:2px;"/><path id="uuid-bb96dd38-9635-4279-b81f-32a87328dde0" d="m286.59,160.22l15.75,14.73,7.88,8.32,18.67,19.69" style="fill:none; stroke:#55a; stroke-linecap:round; stroke-linejoin:round; stroke-width:2px;"/><path id="uuid-527e6d11-032e-4572-b6e4-bc1d7d44c065" d="m329.5,39.22l-27.77,27.44,1.03,108.56,26.74,28.3V39.22Z" style="fill:#ff5; stroke:#55a; stroke-linecap:round; stroke-linejoin:round; stroke-width:2px;"/><path id="uuid-dfd2b52e-a404-42a3-a9ba-28cece9e3adb" d="m309.49,182.39l.08-113.05,19.93-17.95v152.28l-20.01-21.28Z" style="fill:#f55; stroke:#55a; stroke-linecap:round; stroke-linejoin:round; stroke-width:2px;"/><path id="uuid-238d23da-1271-4866-b157-f9846b3e01dd" d="m301.32,84.19l-5.57-1.65s-4.05-3.95-5.78-6.19c-2.83-3.67-6.05-7.33-7.43-11.76-.8-2.56-.31-8.05-.31-8.05,0,0-6.25,6.29-8.81,9.89-2.11,2.96-3.9,6.16-5.32,9.51-1.31,3.11-2.18,6.4-2.89,9.7-.7,3.27-1.28,6.6-1.32,9.95-.05,4.13.34,8.32,1.32,12.33.67,2.75,1.87,5.36,3.09,7.92,1.32,2.76,2.86,5.41,4.54,7.96,1.89,2.87,6.19,8.25,6.19,8.25,0,0,1.95-5.21,3.3-7.63,2.28-4.1,4.89-8.08,8.05-11.55,2-2.2,4.04-4.68,6.81-5.78,1.28-.51,4.13-.21,4.13-.21v-22.69Z" style="fill:none; stroke:#55a; stroke-linecap:round; stroke-linejoin:round; stroke-width:2px;"/><path id="uuid-626f67d1-72af-4a71-9cca-6be531d244d3" d="m295.95,107.09s-1.7-3.09-2.28-4.74c-.65-1.88-1.19-3.83-1.3-5.81-.16-2.72.13-5.5.84-8.13.58-2.13,2.74-6.02,2.74-6.02,0,0-5.11-4.74-7.25-7.47-2.47-3.14-6.41-10.13-6.41-10.13,0,0-4.18,4.89-5.85,7.63-1.67,2.74-3.07,5.66-4.09,8.7-1.13,3.39-1.82,6.95-2.19,10.5-.27,2.6-.28,5.24,0,7.84.31,2.87.89,5.74,1.86,8.46.77,2.17,2.01,4.16,3.09,6.19,1.05,1.96,2.07,3.93,3.3,5.78,1.15,1.73,3.8,4.96,3.8,4.96,0,0,3.77-7.07,6.24-10.21,2.19-2.79,7.5-7.54,7.5-7.54h0Z" style="fill:#ff5; stroke:#55a; stroke-linecap:round; stroke-linejoin:round; stroke-width:2px;"/><path id="uuid-b5275c51-d929-47c9-b9d9-5a32caf797ad" d="m289.77,77.8s-2.67,3.4-3.51,5.36c-.94,2.19-1.31,4.61-1.61,6.97-.41,3.24-.67,6.55-.25,9.78.35,2.68,1.07,5.37,2.28,7.79.82,1.65,3.32,4.42,3.32,4.42" style="fill:none; stroke:#55a; stroke-linecap:round; stroke-linejoin:round; stroke-width:2px;"/><path id="uuid-3e15154a-4e9d-4c49-b501-6feb366f7b5c" d="m287.08,72.64h-4.33c.31,3.41,1.04,6.66,2.68,9.49-2.92.04-5.58.49-8.25,1.86,1.48,3.48,4.54,5.04,6.85,6.27-2.62.88-5.65,2.67-7.52,4.54,2.23,2.2,4.95,3.74,7.68,4.86-2.7,1.39-5.4,3.11-7.18,5.66,2.17,1.59,6.08,3,8.83,3.01-2.26,2.53-3.28,4.73-4.54,7.84,1.58.14,3.16.28,4.74.41" style="fill:none; stroke:#55a; stroke-linecap:round; stroke-linejoin:round; stroke-width:2px;"/><path id="uuid-28758a55-0c73-4137-a34a-524e08d4a7d1" d="m161.9,127.88s2.5-.38,3.35-.16,1.3.55,1.67,1.1c.67.99.88,2.31.74,3.51-.15,1.28-.65,2.71-1.64,3.48-1.57,1.21-3.82,1.21-5.73.94-1.84-.27-3.39-1.55-5.04-2.43-1.11-.59-2.12-1.41-3.27-1.91-1.28-.55-2.62-1.14-4.01-1.17-.85-.02-2.24-.26-2.51.6-.21.65.69,1.23,1.27,1.51,1.57.77,3.52-.19,5.22.18,1.86.4,3.48,1.59,5.29,2.18,1.7.56,3.41,1.47,5.19,1.31,1.47-.13,3.02-.74,4.09-1.83.72-.73,1.17-1.82,1.27-2.86.1-1.08-.12-2.29-.75-3.13-.79-1.06-2.44-1.83-3.39-1.91s-1.74.6-1.74.6h0Z" style="fill:#55a; stroke:#55a; stroke-linecap:round; stroke-linejoin:round; stroke-width:2px;"/><path id="uuid-4781ca1e-d8cd-4cc7-8e15-99a9f315a20d" d="m148.9,119.18c1.1-.24,2.55,1.3,3.05,2.3.66,1.31-.14,3.33-1.25,4.22-1.49,1.2-3.82.76-5.61.2-1.5-.47-2.4-2.24-3.86-2.84-.88-.36-1.99-.88-2.82-.38-.49.29-.91,1.09-.68,1.63.33.77,1.51.55,2.28.73,1.06.26,2.19.2,3.24.54,1.19.38,2.15,1.53,3.38,1.65,1.4.14,3.09-.05,4.09-1.1,1.08-1.13,1.69-3.16,1.18-4.67-.42-1.23-3-2.27-3-2.27h0Z" style="fill:#55a; stroke:#55a; stroke-linecap:round; stroke-linejoin:round; stroke-width:2px;"/><path id="uuid-d99ec498-b1d8-42e9-93aa-880a49bc937c" d="m138.61,79.3s-.3,5.56,0,8.31c.28,2.59,1.35,5.06,1.66,7.65.23,1.87.51,3.8.17,5.65-1.36,7.27-6.55,13.34-8.64,20.44-.36,1.24-1.21,2.65-.66,3.82,1.19,2.57,5.66,2.03,7.31,4.32,1.23,1.7,1.33,4.05,1.33,6.15,0,.79-.5,2.33-.5,2.33,2.49-.12,4.79.34,7.15.5,2.8.19,6.25.08,8.14,2.16.45.5.33,1.99.33,1.99,0,0-2.56-1.57-3.99-1.99-3.63-1.09-7.5-.43-11.3-1.33-.65-.15.12,1.88.17,2.83.12,2.33.56,4.66.33,6.98-.09.91-.66,2.66-.66,2.66" style="fill:none; stroke:#55a; stroke-linecap:round; stroke-linejoin:round; stroke-width:2px;"/><path id="uuid-c0c96fb2-4f95-45d3-8453-97cc1b99fc0d" d="m146.14,87.98c.49-.72,5.26-.36,7.88-.27,3.15.11,6.38.01,9.37.97,3.4,1.09,6.37,3.27,9.29,5.32,1.12.79,3.12,2.66,3.12,2.66,0,0-5.6-4.17-8.81-5.56-2.47-1.08-5.17-1.7-7.88-2.11-2.65-.4-5.4-.09-8.07-.33-1.65-.15-5.84.71-4.9-.68h0Z" style="fill:none; stroke:#55a; stroke-linecap:round; stroke-linejoin:round; stroke-width:2px;"/><path id="uuid-885bc8e4-c39b-4ab2-9bdf-f076909f1a6a" d="m151.7,95.11s6.37-.04,9.41.78c4.43,1.2,12.43,5.94,12.43,5.94" style="fill:none; stroke:#55a; stroke-linecap:round; stroke-linejoin:round; stroke-width:2px;"/><path id="uuid-c5c13adb-3347-4e0c-ae66-05e69f2b2296" d="m149.45,99.9s6.15-.93,9.13-.31c4.5.94,12.43,5.94,12.43,5.94" style="fill:none; stroke:#55a; stroke-linecap:round; stroke-linejoin:round; stroke-width:2px;"/><path id="uuid-1674ceb5-2932-4a8e-a894-883261ea9693" d="m148.23,109.11c3.7.45,5.15,4.48,8.4,5.6" style="fill:none; stroke:#55a; stroke-linecap:round; stroke-linejoin:round; stroke-width:2px;"/><path id="uuid-99806d14-1f1a-41fc-bc33-64e3ad737c5b" d="m168.14,106.79s-2.62-3.2-4.31-4.35c-1.25-.85-2.68-1.49-4.15-1.78-1.94-.39-3.98-.28-5.94.06-1.23.22-2.36.84-3.55,1.24-.48.16-1.45.46-1.45.46,0,0,1.13,2.57,2.06,3.59.91,1,2.1,1.79,3.31,2.33,1.77.79,3.71,1.38,5.64,1.28,2.94-.15,8.39-2.84,8.39-2.84Z" style="fill:none; stroke:#55a; stroke-linecap:round; stroke-linejoin:round; stroke-width:2px;"/><path id="uuid-b5641fea-fac0-44bb-8125-8638d7bdf26e" d="m152.6,104.39c.26-2.02,2.56-3.33,5.13-2.93s4.45,2.36,4.18,4.37-2.56,3.33-5.13,2.93-4.45-2.36-4.18-4.37Z" style="fill:none; stroke:#55a; stroke-linecap:round; stroke-linejoin:round; stroke-width:2.22px;"/><path id="uuid-7f5e5e99-3ca1-4eb6-b6ae-b047ca70eedc" d="m154.39,104.53c.11-.84.95-1.4,1.88-1.26s1.6.94,1.49,1.78-.95,1.4-1.88,1.26-1.6-.94-1.49-1.78Z" style="fill:#55a; stroke:#55a; stroke-linecap:round; stroke-linejoin:round; stroke-width:2.13px;"/><path id="uuid-20ad025f-e29a-413c-9c90-73ab27e49df0" d="m146.91,97c1.09.73,1.09,2.83,1.64,4.24" style="fill:none; stroke:#55a; stroke-linecap:round; stroke-linejoin:round; stroke-width:2px;"/><path id="uuid-827b955b-eae8-4149-8b93-7b92f602f3e4" d="m237.58,179.47l3.8-6.49,8.06-1.12-4.25,6.71-7.61.9Z"/><path id="uuid-12146e93-5aa1-4cf0-b162-4acfc3a3bd78" d="m227.76,190.03l6.17-4.28,5,4.33-6.5,4.21-4.68-4.25Z"/><path id="uuid-0412545a-3fef-457c-8d44-5f7f161d9a9c" d="m221.25,202.09l6.17-4.28,5,4.33-6.5,4.21-4.68-4.25Z"/><path id="uuid-08792903-6892-49ee-9c1e-9a4482b7a870" d="m215.88,214.4l6.17-4.28,5,4.33-6.5,4.21-4.68-4.25Z"/><path id="uuid-8cbcbea4-7c31-4516-8253-e64c06956587" d="m211.23,227.91l5.54-5.08,5.54,3.61-5.87,5.05-5.21-3.58Z"/><path id="uuid-df5e0b49-6bbd-4d31-8f1d-f67fddb6ecf1" d="m221.41,175.27l5.22-5.48,4.66,5.47-5.02,6.29-4.86-6.27Z"/><path id="uuid-0945cbb6-5487-42ac-908f-15c42f3cdfb4" d="m209.76,175.55l4.64-5.98,5.19,4.97-4.36,6.76-5.47-5.75Z"/><path id="uuid-2ef926e3-590c-431f-94e6-929358b6f11b" d="m196.95,177.97l2.99-6.95,6.27,3.51-2.53,7.64-6.73-4.2Z"/><path id="uuid-f706bdf9-ebe6-4d91-b1f5-abd7a8c23043" d="m189.03,189.21l-.2-7.57,7.16.56.91,7.99-7.87-.98Z"/><path id="uuid-b3a14a06-d420-4710-aaa7-d09dcbe30258" d="m180.23,197.4l-.03-7.57,7.15.72.73,8.01-7.85-1.16Z"/><path id="uuid-897d1873-274c-4ae7-ab49-46f855411b97" d="m170.11,203.22l2.02-7.3,6.69,2.62-1.46,7.91-7.24-3.24Z"/><path id="uuid-5a592c57-6b6c-4aff-b818-58b6261a43ed" d="m159.73,208.06l2.43-7.17,6.53,3-1.91,7.81-7.05-3.64Z"/><path id="uuid-a5f4a391-8214-42cd-85f4-63b40b1ffbdc" d="m238.22,226.32l37.79,49.02" style="fill:#ff5; stroke:#55a; stroke-linecap:round; stroke-linejoin:round; stroke-width:2px;"/><path id="uuid-e0faef74-d8ab-41c9-8712-65d6591947d9" d="m295.17,256.18l-43.48-58.6c-5,6.6-7.89,13.51-11.39,20.71l40.71,52.09,14.16-14.2Z" style="stroke:#55a; stroke-linecap:round; stroke-linejoin:round; stroke-width:2px;"/><path id="uuid-5a823a64-c3ee-45e2-83d0-1439b0bd19d9" d="m255.8,193.02l43.7,59.87" style="fill:#ff5; stroke:#55a; stroke-linecap:round; stroke-linejoin:round; stroke-width:2px;"/><path id="uuid-9790d29e-8764-4b66-8988-a65eb019d415" d="m265.91,180.3l47.14,62.86" style="fill:#ff5; stroke:#55a; stroke-linecap:round; stroke-linejoin:round; stroke-width:2px;"/><path id="uuid-ee86eb03-f55a-4b41-a913-33f5c17f1dda" d="m270.4,175.44l47.41,64.16" style="fill:#ff5; stroke:#55a; stroke-linecap:round; stroke-linejoin:round; stroke-width:2px;"/><path id="uuid-62296e71-7a58-4562-921c-2a187407f5ca" d="m313.22,243.42l15.54-11.49" style="fill:#ff5; stroke:#55a; stroke-linecap:round; stroke-linejoin:round; stroke-width:2px;"/><path id="uuid-048e67c0-26eb-4330-93e4-aba29ab71127" d="m299.28,253.11s-2.85,2.29-4.19,3.52c-4.68,4.29-9.07,8.9-13.47,13.47-1.96,2.03-3.94,4.06-5.76,6.21-3.51,4.14-6.83,8.43-9.95,12.87-2.86,4.07-5.45,8.31-8.01,12.57-2.17,3.61-4.28,7.26-6.21,11-1.08,2.08-2.08,4.2-2.99,6.36-1.37,3.21-3.74,9.79-3.74,9.79" style="fill:none; stroke:#55a; stroke-linecap:round; stroke-linejoin:round; stroke-width:2px;"/><path id="uuid-1199028f-e940-461a-8e94-0a45f102a2d1" d="m241.21,242.79l25.82,33.67s-8.54,10.9-12.2,16.76c-3.59,5.77-9.5,18.03-9.5,18.03,0,0-4.27-9.3-5.61-14.22-1.69-6.21-2.56-12.66-2.99-19.08-.41-6.1-.42-12.27.37-18.33.75-5.73,4.12-16.84,4.12-16.84h0Z" style="fill:#fff; stroke:#55a; stroke-linecap:round; stroke-linejoin:round; stroke-width:2px;"/><path id="uuid-1ae9a240-f590-41a4-982d-29156d4fc2ec" d="m245.33,259.62s-.98,9.73-.75,14.59c.28,6.02,2.62,17.89,2.62,17.89l10.48-16.01-12.35-16.46Z" style="fill:#55a;"/><path id="uuid-485bae26-139f-4e20-998e-208e36acf70c" d="m247.18,209.58c1.46-.65,3.15-1.19,4.7-.85,2.85.61,5.44,2.63,7.19,4.95,1.69,2.23,2.3,5.17,2.7,7.94.32,2.23-.32,4.49-.3,6.74.02,1.5.02,3.02.3,4.5.21,1.13,1.05,3.3,1.05,3.3,0,0,.52-3.34,1.5-4.65.8-1.07,2-1.97,3.3-2.25,1.34-.28,2.83.11,4.05.75,1.06.56,2.09,1.44,2.55,2.55.34.82.3,1.82,0,2.65-.24.65-.72,1.29-1.35,1.6-.52.26-1.75.1-1.75.1,0,0,.88-1.48.69-2.25-.23-.98-1.13-1.88-2.1-2.19-.92-.29-2.12-.09-2.85.54-1.07.94-1.29,2.63-1.35,4.05-.05,1.23.32,2.51.9,3.6.6,1.13,1.48,2.15,2.55,2.85,1.89,1.23,4.27,1.5,6.44,2.1,1.73.48,3.62.43,5.25,1.2,1.26.59,2.27,1.62,3.3,2.55,1.02.92,2.09,1.85,2.85,3,.63.95,1.12,2.03,1.35,3.15.19.93.18,1.92,0,2.85-.28,1.43-.8,2.86-1.65,4.05-.31.43-1.2,1.05-1.2,1.05,0,0,.7-2.39.6-3.6-.09-1.05-.45-2.12-1.05-3-.48-.71-1.14-1.4-1.95-1.7-.84-.31-1.83-.18-2.7.05-.58.15-1.22.38-1.6.85-.52.66-.63,1.6-.65,2.44-.01.41.11.82.25,1.2.19.5.79,1.4.79,1.4,0,0-1.75-.38-2.39-.95-.63-.57-.99-1.42-1.2-2.25-.25-1.02-.3-2.14,0-3.15.25-.84.77-1.64,1.45-2.2.64-.53,1.48-.8,2.3-.95.64-.12,1.95.05,1.95.05,0,0-2.16-1.02-3.3-1.4-1.42-.47-2.92-.61-4.35-1.05-1.22-.38-2.4-.89-3.6-1.35-1.15-.44-2.39-.72-3.45-1.35-1.07-.63-2.02-1.48-2.85-2.4-1.13-1.26-2.02-2.72-2.85-4.2-.77-1.39-1.49-2.83-1.95-4.35-.45-1.5-.51-3.1-.75-4.65-.21-1.35-.42-2.7-.6-4.05-.17-1.25-.25-2.5-.45-3.75-.16-1.01-.16-2.08-.6-3-.37-.77-.96-1.45-1.65-1.95-.74-.54-1.63-1.03-2.55-1.05-.87-.02-1.83.29-2.45.9-.5.49-.69,1.25-.75,1.95-.07.81.5,2.4.5,2.4,0,0-2.13-1.14-2.7-2.14-.39-.69-.45-1.58-.3-2.35.16-.79.63-1.53,1.2-2.1.49-.49,1.15-.81,1.8-1.05,1.33-.48,4.18-.7,4.18-.7,0,0-2.2-1.8-3.49-2.35-.78-.34-1.64-.48-2.49-.55-.9-.07-2.69.15-2.69.15,0,0,1.34-1.32,2.18-1.7h0Z" style="fill:#ff5;"/><path id="uuid-fd3942e9-645a-429d-b7f1-57261b12531e" d="m328.88,284.68s-5.58,3.57-8.17,5.62c-3.87,3.07-7.61,6.34-10.98,9.96-2.73,2.93-5.24,6.08-7.4,9.45-2.7,4.19-6.89,13.28-6.89,13.28" style="fill:none; stroke:#000; stroke-linecap:round; stroke-linejoin:round; stroke-width:2px;"/><path id="uuid-57911f25-6db0-40c9-bd61-5b3003564c1e" d="m279.75,330.04s3.71-8.16,5.72-12.17c1.71-3.39,3.4-6.79,5.39-10.02,2.33-3.78,4.82-7.48,7.63-10.92,2.97-3.65,6.22-7.09,9.7-10.26,3.36-3.05,7-5.79,10.72-8.38,2.13-1.48,4.44-2.7,6.64-4.09,1.2-.75,3.57-2.3,3.57-2.3" style="fill:none; stroke:#000; stroke-linecap:round; stroke-linejoin:round; stroke-width:2px;"/><path id="uuid-b323f705-db84-4311-a8de-15ce2fa5f9fb" d="m328.63,264.25s-10.54,6.58-15.58,10.21c-4.08,2.94-8.18,5.91-11.85,9.35-3.96,3.71-7.54,7.82-10.88,12.1-3.28,4.21-6.16,8.72-8.94,13.28-3.03,4.98-5.79,10.12-8.43,15.32-1.87,3.69-5.23,11.27-5.23,11.27" style="fill:none; stroke:#000; stroke-linecap:round; stroke-linejoin:round; stroke-width:2px;"/><path id="uuid-3cea126c-48a2-41da-a79b-62ffca6b9f5c" d="m251.81,341.54s4.51-10.36,6.85-15.5c2.41-5.3,4.63-10.71,7.4-15.83,2.92-5.38,6.15-10.6,9.7-15.58,3.45-4.82,7.17-9.47,11.23-13.79,4.04-4.3,8.5-8.21,13.02-12,4.42-3.7,9.09-7.12,13.79-10.47,3.75-2.67,7.56-5.26,11.49-7.66,1.04-.64,3.19-1.79,3.19-1.79v-5.62s-11.56,6.62-16.98,10.47c-5.18,3.67-10.02,7.82-14.81,12-4.49,3.92-8.95,7.91-13.02,12.26-4.3,4.59-8.29,9.48-12,14.55-3.52,4.82-6.8,9.85-9.7,15.06-2.8,5.02-5.04,10.34-7.4,15.58-2,4.42-5.72,13.38-5.72,13.38l2.96,4.93Z"/><path id="uuid-e0c429c1-2a90-42bd-b7c6-e1a1c189d5d7" d="m265.76,336.34l-6.45-11.33,14.35-2.3-8.04-14.49,15.53.72-6.5-14.62,15.35,1.62-2.89-16.79,13.9,3.97-1.26-15.17,13.18,5.78,1.26-16.43,11.74,7.04,2.43-15.75" style="fill:none; stroke:#000; stroke-linecap:round; stroke-linejoin:round; stroke-width:2px;"/><path id="uuid-2c1d32d8-0f79-4621-ad3c-dae60214ee0c" d="m324.56,257c0,1.1-.9,2-2,2s-2-.9-2-2,.9-2,2-2,2,.9,2,2Z"/><path id="uuid-918fd2e4-67bf-4583-8e6c-9273a6a185ca" d="m310.84,266.43c0,1.1-.9,2-2,2s-2-.9-2-2,.9-2,2-2,2,.9,2,2Z"/><path id="uuid-5f650249-d357-4026-a0bb-2df74cd9b737" d="m298.45,276.57c0,1.1-.9,2-2,2s-2-.9-2-2,.9-2,2-2,2,.9,2,2Z"/><path id="uuid-d8a043ef-1308-4974-a5e5-a1bbcc9b04fd" d="m285.83,290.09c0,1.1-.9,2-2,2s-2-.9-2-2,.9-2,2-2,2,.9,2,2Z"/><path id="uuid-62dbe441-1b5c-4b1c-b497-42ef470292e4" d="m276.14,304.51c0,1.1-.9,2-2,2s-2-.9-2-2,.9-2,2-2,2,.9,2,2Z"/><path id="uuid-9b6f0ea0-0b47-4b65-b624-382f7ff68e0d" d="m267.81,318.7c0,1.1-.9,2-2,2s-2-.9-2-2,.9-2,2-2,2,.9,2,2Z"/><path id="uuid-c92c6d89-e271-42a6-83c3-352c8b034fdc" d="m261.05,333.8c0,1.1-.9,2-2,2s-2-.9-2-2,.9-2,2-2,2,.9,2,2Z"/><path id="uuid-7a855e73-cf3e-41ed-8ae1-11b3bb0c3b52" d="m291.47,321.18c0,1.1-.9,2-2,2s-2-.9-2-2,.9-2,2-2,2,.9,2,2Z" style="fill:#55a;"/><path id="uuid-38909ef0-fa75-4eb5-b7e2-5a0736b14c5f" d="m294.62,315.55c0,1.1-.9,2-2,2s-2-.9-2-2,.9-2,2-2,2,.9,2,2Z" style="fill:#55a;"/><path id="uuid-919de3c4-4c5c-4e82-84b3-4a73c0336967" d="m297.93,310.07c0,1.1-.9,2-2,2s-2-.9-2-2,.9-2,2-2,2,.9,2,2Z" style="fill:#55a;"/><path id="uuid-dd13d658-6b34-466a-b2f1-8171c066e450" d="m301.54,304.34c0,1.1-.9,2-2,2s-2-.9-2-2,.9-2,2-2,2,.9,2,2Z" style="fill:#55a;"/><path id="uuid-e04b7d83-8c67-466f-b2d9-f139037e099b" d="m305.46,298.96c0,1.1-.9,2-2,2s-2-.9-2-2,.9-2,2-2,2,.9,2,2Z" style="fill:#55a;"/><path id="uuid-4b982a85-73e1-4116-8ee3-a64ff3e62f72" d="m310.28,293.8c0,1.1-.9,2-2,2s-2-.9-2-2,.9-2,2-2,2,.9,2,2Z" style="fill:#55a;"/><path id="uuid-23ca4f32-165f-46a0-af25-b309c635a1ab" d="m315.43,289.41c0,1.1-.9,2-2,2s-2-.9-2-2,.9-2,2-2,2,.9,2,2Z" style="fill:#55a;"/><path id="uuid-fa49eb51-8352-40e7-b340-1fac0f8c745d" d="m320.59,285.17c0,1.1-.9,2-2,2s-2-.9-2-2,.9-2,2-2,2,.9,2,2Z" style="fill:#55a;"/><path id="uuid-26a84717-9ced-4919-bdfb-51b6967d6740" d="m326.19,281.13c0,1.1-.9,2-2,2s-2-.9-2-2,.9-2,2-2,2,.9,2,2Z" style="fill:#55a;"/><g id="uuid-f480a712-aaa4-44a7-8f6b-caaf705e55db"><path id="uuid-cd5cd4c2-37e1-43a8-8b5e-f4090e96146f" d="m276.12,355.98s1.81,5.66,2.43,8.56c.31,1.43.58,2.88.64,4.34.12,2.81-1.68,5.87-.51,8.43.29.64.96,1.25,1.66,1.28,2.18.09,4.19-1.82,5.49-3.58,1.62-2.17,2.3-7.79,2.3-7.79,0,0,1.78,7.4,4.73,9.2.25.16.69-.22.89,0,.38.41-.29,1.13-.13,1.66.98,3.25,3.04,6.96,6.26,8.05.79.27,1.83-.05,2.43-.64,1.16-1.15,1.57-3.12,1.28-4.73-.49-2.73-2.74-4.97-4.85-6.77-.22-.19-.63-.13-.77-.38-.35-.64.35-1.45.26-2.17-.19-1.5-1.66-4.21-1.66-4.21l.51-.38s1.37,4.62,2.43,6.77c1.32,2.68,3.23,5.02,4.85,7.53.85,1.32,1.22,3.13,2.55,3.96,1.31.81,3.33,1.38,4.6.51,1.67-1.15,2.1-3.93,1.53-5.87-.46-1.56-2.68-1.97-3.58-3.32-.75-1.13-.79-2.62-1.4-3.83-.49-.96-1.29-1.73-1.79-2.68-.75-1.42-.92-3.12-1.79-4.47-.6-.94-2.3-2.43-2.3-2.43l1.15-.89s1.29,3.61,2.43,5.11c.51.67,1.45.95,1.92,1.66,1.08,1.64.88,3.88,1.79,5.62.87,1.67,1.76,3.64,3.45,4.47.8.39,2.04.62,2.68,0,1.81-1.75.95-5.12.26-7.53-.65-2.27-2.31-4.18-3.96-5.87-.26-.26-.68-.34-.89-.64-.62-.87-.47-2.09-.89-3.07-.53-1.23-1.15-2.45-2.04-3.45-.28-.32-1.02-.77-1.02-.77l1.02-1.02s.5,1.03.77,1.53c.87,1.67,1.45,3.55,2.68,4.98.28.32.83.39,1.02.77.17.34-.12.78,0,1.15.56,1.74,1.6,3.57,3.19,4.47.52.29,1.31.49,1.79.13,1.29-.97,1.15-3.12,1.02-4.73-.24-2.88-1.92-5.45-3.19-8.05-.85-1.73-2.04-3.28-2.94-4.98-1.12-2.12-1.91-4.41-3.07-6.51-1.26-2.3-4.21-6.64-4.21-6.64" style="fill:none; stroke:#55a; stroke-linecap:round; stroke-linejoin:round; stroke-width:2px;"/><path id="uuid-ebcf2ab5-bcb1-4765-bdaf-bc4e6bcfc869" d="m279.57,367.6s2.62,1.8,3.19,3.19c.88,2.12,0,6.9,0,6.9" style="fill:none; stroke:#55a; stroke-linecap:round; stroke-linejoin:round; stroke-width:2px;"/><path id="uuid-cecf1134-d454-4cea-b2ff-089d82765856" d="m294.51,349.08s-.88,5.91-2.17,8.56c-.94,1.94-3.96,5.11-3.96,5.11" style="fill:none; stroke:#55a; stroke-linecap:round; stroke-linejoin:round; stroke-width:2px;"/><path id="uuid-b340bdbf-a2a4-49c5-849a-27f625dd6224" d="m300.51,351.51c-1.53,1.75-3.32,4.38-5.62,6.13" style="fill:none; stroke:#55a; stroke-linecap:round; stroke-linejoin:round; stroke-width:2px;"/><path id="uuid-7a650b72-93bb-489c-b839-d8c8c08ad954" d="m303.71,354.45c-2.64,2.7-4.85,5.11-8.43,8.43" style="fill:none; stroke:#55a; stroke-linecap:round; stroke-linejoin:round; stroke-width:2px;"/></g><g id="uuid-ec16ba27-8897-4318-972a-a8b941928e98"><path id="uuid-e9edaa4f-75f4-42b1-abe9-0ea827a01a67" d="m181.41,155.26s-2.96,5.16-4.73,7.54c-2.01,2.7-4.07,5.32-6.64,7.6-1.35,1.2-3.45,2.47-5.12,1.78-.29-.12-.42-.86-.42-.86" style="fill:none; stroke:#55a; stroke-linecap:round; stroke-linejoin:round; stroke-width:2px;"/><path id="uuid-ae0c2062-febf-4fa5-8d0a-f622e393e855" d="m139.64,151.22c-3.01,5.97-6.95,8.7-11.99,11.18-2.06,2.51-5.58,4.83-7.62,3.01-1.8-1.61-1.66-6.87,1.9-7.01" style="fill:none; stroke:#55a; stroke-linecap:round; stroke-linejoin:round; stroke-width:2px;"/><path id="uuid-353b31a2-38f5-49fb-a68d-d81be8d036eb" d="m144.52,152.47c-3.58,8.09-11.49,17.33-20.67,18.58-4,.55-9.48-1.59-10.84-5.38-1.63-4.54,1.23-11.21,5.92-13.21,2.92-1.25,6.71-.21,8.6,2.05,1.66,1.99,1.11,5.99.42,7.76" style="fill:none; stroke:#55a; stroke-linecap:round; stroke-linejoin:round; stroke-width:2px;"/><path id="uuid-535e2c4e-9775-4221-8f8e-2db86e046b65" d="m150.05,153.77c-2.46,6.78-8.68,16.9-16.87,19.48-2.6.82-6.28.73-7.94-2.01" style="fill:none; stroke:#55a; stroke-linecap:round; stroke-linejoin:round; stroke-width:2px;"/><path id="uuid-6de7d544-9bf7-4a57-b97a-f5f0e3ace8f8" d="m156.92,153.5c-2.6,6.81-7.73,16.91-15.45,20.74-2.73,1.35-6.61,1.47-9.14-.08" style="fill:none; stroke:#55a; stroke-linecap:round; stroke-linejoin:round; stroke-width:2px;"/><path id="uuid-ffc9860e-23f4-4d38-8581-8665293f4261" d="m163.41,153.43c-1.75,6.24-7.5,16.03-14.51,20.71-2.59,1.73-6.55,3.5-9.12,2.01" style="fill:none; stroke:#55a; stroke-linecap:round; stroke-linejoin:round; stroke-width:2px;"/><path id="uuid-86ae4679-9969-4ee2-9ff6-67664f586194" d="m169.99,150.8c-.93,4.75-6.04,15.66-12.19,20.87-1.84,1.56-4.76,4.12-6.77,2.58" style="fill:none; stroke:#55a; stroke-linecap:round; stroke-linejoin:round; stroke-width:2px;"/><path id="uuid-9bb9103d-dc05-4d4c-b914-bcb3c8502758" d="m176.45,150.81c-.98,4.22-4.97,11.21-8.86,16.18-2.04,2.61-5,7.48-8.41,5.28" style="fill:none; stroke:#55a; stroke-linecap:round; stroke-linejoin:round; stroke-width:2px;"/></g><path id="uuid-d1ea84d9-22ed-4af4-9fbd-54b3961fe23d" d="m160.82,173.36l5.88,14.4" style="stroke:#55a; stroke-linecap:round; stroke-linejoin:round; stroke-width:2px;"/><g id="uuid-3076cfeb-58af-4eac-ab9b-708a727c6284"><path id="uuid-15fb9dc6-9285-4df6-8ac1-1ffc2ac42aac" d="m211.12,252.5l14.12.25s-1.07,9.82-1.12,14.75c-.06,4.8.21,9.61.75,14.38.46,4.12,1.39,8.17,2.12,12.25.64,3.59,1.19,7.2,2,10.75,1.13,4.93,2.43,9.82,4,14.62,1.16,3.56,2.49,7.07,4,10.5,2.24,5.08,4.73,10.06,7.5,14.88,2.51,4.36,5.34,8.52,8.25,12.62,1.94,2.74,6.12,8,6.12,8l-14,8.62s-.82-4.19-2.38-5.38c-1.83-1.4-4.63-.39-6.84-1.03-1.46-.42-2.74-1.3-4.16-1.84-1.94-.74-5.94-1.92-5.94-1.92,0,0-4.47-11.82-6.44-17.83-2.12-6.48-4.21-12.99-5.75-19.62-1.1-4.74-1.97-9.54-2.5-14.38-.81-7.46-.83-14.99-1-22.5-.14-6.29-.16-12.59,0-18.88.1-4.13.3-8.26.62-12.38.15-1.96.62-5.88.62-5.88Z" style="fill:#55a;"/><path id="uuid-deae6870-ecc1-411c-bdad-c9f3a9045bb4" d="m212.62,265.38l4.5-5.38,3.75,5.5-4.12,5.75-4.12-5.88Z" style="fill:#fff;"/><path id="uuid-303c34b6-5ca5-4ae8-b01b-5ed8d02fae80" d="m212.38,279.95l3.71-5.95,4.47,4.93-3.29,6.27-4.9-5.25Z" style="fill:#fff;"/><path id="uuid-d8c8bf87-a2ff-44a9-a029-18610a069674" d="m213.68,294.31l3.41-6.13,4.72,4.69-2.97,6.42-5.16-4.99Z" style="fill:#fff;"/><path id="uuid-701271ce-eb88-4546-b473-b1178cea3ccd" d="m215.17,309.62l4.21-6.93,5.67,5.35-3.68,7.27-6.2-5.69Z" style="fill:#fff;"/><path id="uuid-31025ad8-0a53-45a5-9a17-cd7b63e032d2" d="m218.68,326.45l3.4-7.36,6.24,4.67-2.84,7.64-6.8-4.95Z" style="fill:#fff;"/><path id="uuid-49113643-424d-494d-821e-07828dd0692b" d="m223.84,342.54l2.76-8.75,7.52,4.37-2.1,8.98-8.18-4.61Z" style="fill:#fff;"/><path id="uuid-6e6f6350-09e6-4e64-8411-d53218df956d" d="m232.55,360.64l.51-10.75,9.3,2.73.27,10.82-10.08-2.8Z" style="fill:#fff;"/></g><path id="uuid-8445a152-b76e-4e8e-a0b2-a2aa69a5b171" d="m139.25,286l18,.25,1-10.12h13.62l-.25,10.62,15.88-.12.5-10h11.38l-.62,17.75v13l-47.12-1.62-12.38-19.75Z"/><path id="uuid-9c271838-fb8b-492b-ba3e-083e423bcd67" d="m200.2,321.98l-13.71,5.68-11.5,6.37-8.73,7.76-6.79,7.34-4.29,5.54-25.07-.55,6.37-11.08,5.96-12.05,5.26-13.02,3.6-12.74,47.65,1.39.42,6.93.83,8.45Z" style="fill:#f55;"/><path id="uuid-6fe8db1f-4c12-4d87-b018-065d37696d62" d="m88.65,364.24l-15.76,14.41-16.1-14.92-6.61-6.61-19.66-20.51-.51-29.15,11.02-7.97,47.63,64.75Z"/><path id="uuid-420f69a4-ef76-404a-83a4-705c2b0dad92" d="m128.17,287.01l-3.32,14.04-2.81,12.77-39.07-50.3,6.89-9.45,10.21-14.3,5.36-10.21,4.6-10.47,4.6-11.23,5.11,13.79,3.83,11.75,3.57,18.64,2.04,10.47v9.19l-1.02,15.32Z" style="fill:#55a;"/><path id="uuid-c8c73277-48c5-4155-a7bc-b51fb762185a" d="m103.14,191.77l-72.51,31.92v-9.45l61.79-36.26,6.13,7.66,4.6,6.13Z"/><path id="uuid-1a9cff8a-9fd0-4efa-be96-f9949cd01a61" d="m106.93,340.86l-3.45,5.46-43.39-59.48,3.74-4.02,43.1,58.04Z" style="fill:#ff5;"/><path id="uuid-1e6adf5e-5396-4786-bce5-3deff7a86073" d="m103.19,346.61l-4.88,6.61-4.88,6.32-47.12-63.5-16.38,11.21v-12.64l16.38-10.06,18.68-15.23,14.94-15.23,10.63-14.94,9.77-17.53,6.9-15.23,2.87-6.9,4.88,8.91-4.6,12.07-11.78,21.26-9.48,12.93-8.62,11.49-10.34,10.06-5.75,6.32-4.88,3.74,43.68,60.34Z" style="fill:#f55;"/><path id="uuid-bb80551e-0888-4828-a92b-888285e03105" d="m63.12,216.09l-4.16,9.55-6.01,8.47-5.85,6.62-6.01,5.39-6.62,5.08-4.78,3.54v-24.49l33.43-14.17Z" style="fill:#f55;"/><path id="uuid-9a5d33c8-d31e-4af0-85bb-7f70859bde31" d="m107.84,197.09l-28.82,11.83-3.04,7.63-5.03,9.2-6.01,10.6-10.42,13.3-10.18,8.47-8,5.02-6.14,3.65-.77,24.69,3.83-1.8,11.72-7.66,14.42-10.81,12.62-11.27,11.94-14.64,9.01-13.74,8.34-16.67,6.76-16.45-.23-1.35Z" style="fill:#ff5;"/><path id="uuid-5c74e2e9-0e17-458a-95f3-c994784622db" d="m107.56,196.23l-76.93,33.84" style="stroke:#000; stroke-linecap:round; stroke-linejoin:round; stroke-width:2px;"/><g id="uuid-7ffb5d42-ed62-44f6-806e-5d75382c67ac"><path id="uuid-d644951f-554d-4b3b-8cae-46f22db53454" d="m226.8,476.51s.71-6.15-.6-8.77c-.59-1.18-2.33-1.45-2.99-2.59-.91-1.58-1-5.38-1-5.38,0,0-5.45.28-8.17.4-5.51.23-11.03.82-16.54.6-4.01-.16-8.02-.61-11.96-1.39-5.42-1.09-10.73-2.73-15.94-4.58-5.24-1.87-10.12-4.65-15.34-6.58-3.78-1.39-7.61-2.73-11.56-3.59-3.6-.78-7.29-1.09-10.96-1.39-3.44-.28-6.91-.49-10.36-.4-2.93.08-8.77.8-8.77.8,0,0-3.27,1.47-3.59,2.99-.33,1.6,2.09,2.75,2.19,4.38.09,1.4-1.74,2.62-1.39,3.99.26,1.05,2.39,2.19,2.39,2.19,0,0,14.28.67,21.32,1.79,6,.95,11.95,2.32,17.73,4.18,5.13,1.65,9.87,4.36,14.94,6.18,4.71,1.69,9.43,3.46,14.35,4.38,5.37,1,10.88,1,16.34,1.2,4.85.18,9.71.4,14.55,0,4.03-.33,11.96-1.99,11.96-1.99l3.39,3.59Z" style="fill:#f55; stroke:#55a; stroke-linecap:round; stroke-linejoin:round; stroke-width:2px;"/><path id="uuid-66a75216-63a2-4da5-9b67-e3bea5b34e56" d="m220.02,468.94s-14.86,1.82-22.32,1.59c-7.63-.23-15.33-1.04-22.71-2.99-8.04-2.12-15.25-6.68-23.11-9.36-5.81-1.99-11.68-3.97-17.73-4.98-5.71-.95-17.33-1-17.33-1" style="fill:none; stroke:#000; stroke-linecap:round; stroke-linejoin:round; stroke-width:2px;"/><path id="uuid-c990d64f-2cce-48b2-b419-135784c640f4" d="m218.03,464.36s-13.29.9-19.93.6c-7.09-.33-14.26-.8-21.12-2.59-8.13-2.12-15.4-6.75-23.31-9.56-5.62-2-11.27-4.09-17.14-5.18-4.32-.81-8.75-1.01-13.15-1-2.47,0-7.37.6-7.37.6" style="fill:none; stroke:#000; stroke-linecap:round; stroke-linejoin:round; stroke-width:2px;"/></g><g id="uuid-4db50cae-07dd-4958-a3aa-1a4b13a8aff7"><path id="uuid-4e38944d-b764-4dfc-952f-2ba2efa931fb" d="m242.5,509.5c-9.72-17.2-9.08-19.48-18.8-36.68-10.45,3.78-29.59,2.73-44.12.48-12.04-1.86-22.84-8.69-34.72-11.42-10.57-2.43-22.24-4.38-32.24-4.38l-28.12,52h158Z" style="fill:#ff5; stroke:#55a; stroke-width:2px;"/><path id="uuid-64ceec55-ed1e-4a44-8412-a6e71d50d889" d="m187.76,480.66c-1.64,0-3.28.12-4.78.48-.82.2-1.52.53-2.22.9-1.18.63-2.03,1.63-3.34,2.24.58-2.13,2.46-3.22,4.11-4.33,1.48-1,3.21-1.63,5-1.94,1.92-.34,3.98-.36,5.9.1,2.26.54,4.4,1.68,6.25,3.04,1.25.93,2.48,2.03,3.14,3.39.36.73.38,1.76.37,2.39-.72-1.14-1.68-2.47-3-3.43-1.33-.96-3.01-1.67-4.7-2.13-2.19-.6-4.51-.72-6.73-.73h0Z"/><path id="uuid-18eea355-9093-4e26-b8ff-b17c94152e68" d="m205.26,489.78c.69.57.53,2.42-.28,3.24-.23.24-.72.34-1.05.22-.95-.33-1.57-1.34-1.63-2.21-.04-.55.65-.96.84-1.48.16-.46.25-1.42.25-1.42-1.01-1.21-1.48-2.69-2.95-3.16-2.18-.7-5.33-.35-6.86,1.12-1.41,1.35-1.08,3.69-.38,5.42.47,1.17,1.51,2.37,2.88,2.81,1.24.4,2.65-.16,3.92-.46-1.15,1.52-2.46,3.3-2.15,5.1.3,1.72,1.91,3.3,3.64,4.27.73.41,1.7.36,2.56.47h0c1.7-.31,3.56-.96,4.52-2.17.97-1.22.84-2.92.68-4.4-.12-1.13-.73-2.2-1.23-3.26,1.01.57,2.29.89,3.43.7,2.17-.35,4.75-1.46,5.36-3.24.59-1.72-.73-3.85-2.33-5.06-1.49-1.12-3.85-1.75-5.76-1.29-1.6.39-2.24,1.95-3.49,3.09l.02,1.72Z"/><path id="uuid-b92c5e7f-da90-4ad7-af06-bef4cfbe28dc" d="m218.28,480.61c1.31,0,2.62.01,3.81.48,1.24.49,2.12,1.63,3.25,2.34.84.53,1.54,1.49,2.62,1.44-.46-2.13-2.86-3.63-4.7-4.98-1.19-.87-2.57-1.63-3.99-1.94-1.53-.34-3.17-.36-4.7.1-1.8.54-3.51,1.68-4.99,3.04-1,.93-1.81,2.17-2.51,3.39-.63,1.11-1.49,2.89-1.48,3.52,1.48-.12,2.12-3.3,3.58-4.56,1.09-.94,2.4-1.67,3.75-2.13,1.75-.6,3.6-.72,5.37-.73h0Z"/><path id="uuid-d1337d74-93b2-46a9-844e-7ce934addf7e" d="m228.34,486.78c-.06.68-.54.67-.53,1.5,0,.82,1.22,1.4,2.02,1.35.29-.02.71-1.15.79-1.43l4.44,9.46c-.34.38-.7.71-1.08,1.01-.66.21-1.31.61-1.99.51-1.61-.22-3.39-1.03-4.27-2.42-.92-1.45-.68-3.45-.46-5.19-.79.71-1.56,1.68-2.6,1.77-1.15.1-2.35-.57-3.14-1.42-1.17-1.25-2.32-3.19-1.84-4.86.51-1.81,2.62-3.02,4.43-3.37,1.35-.26,2.76.42,3.95,1.12"/><path id="uuid-7e4354b3-d62b-423b-87d2-12667e555323" d="m176.91,486c.58.67.12,2.47-.82,3.15-.27.2-.76.21-1.08.04-.88-.49-1.32-1.58-1.24-2.45.06-.55.8-.84,1.07-1.32.24-.42.48-1.36.48-1.36-.79-1.36-1.01-2.9-2.38-3.61-2.04-1.05-5.2-1.24-6.95-.05-1.61,1.1-1.69,3.46-1.29,5.28.27,1.23,1.09,2.59,2.37,3.26,1.16.6,2.64.28,3.94.2-1.39,1.31-2.98,2.84-2.97,4.66,0,1.75,1.32,3.58,2.88,4.82.65.52,1.61.64,2.44.89h0c1.73-.02,3.67-.35,4.82-1.38,1.16-1.04,1.32-2.74,1.41-4.22.07-1.14-.35-2.29-.67-3.42.9.73,2.1,1.26,3.27,1.27,2.2.02,4.92-.64,5.83-2.3.87-1.59-.07-3.91-1.45-5.38-1.28-1.35-3.5-2.37-5.46-2.24-1.65.11-2.54,1.55-3.96,2.46l-.27,1.7Z"/><path id="uuid-9694822b-1d9e-464c-9887-a8816713d33a" d="m163.89,475.15c-1.42-.32-2.93-.39-4.35-.09-1.25.26-2.35,1.01-3.48,1.59-1.29.66-2.46,1.95-3.78,2.16,1.07-1.88,3.63-4.89,6.29-6.1,1.5-.69,3.27-.65,4.93-.44,1.79.22,3.61.79,5.19,1.77,1.86,1.16,3.45,2.86,4.73,4.69.87,1.25,1.66,2.65,1.89,4.15.13.81-.12,1.79-.3,2.4-.34-1.29-.84-2.85-1.76-4.14-.92-1.3-2.23-2.45-3.6-3.37-1.78-1.19-3.71-2.14-5.76-2.61h0Z"/><path id="uuid-da039bd4-030e-4fad-904e-e63b5572e825" d="m149.52,480.09c-.81.31-1.34,2.08-.92,3.1.12.29.51.53.85.53.95-.01,1.86-.76,2.23-1.55.23-.5-.22-1.09-.2-1.64.02-.48.3-1.39.3-1.39,1.32-.81,2.27-2.04,3.73-2.02,2.17.03,4.8,1.33,5.61,3.16.74,1.69-.39,3.77-1.62,5.15-.84.94-2.18,1.74-3.55,1.72-1.23-.02-2.27-.97-3.27-1.64.46,1.77.96,3.82.04,5.4-.88,1.51-2.86,2.48-4.74,2.84-.79.15-1.62-.19-2.41-.35h0c-1.38-.81-2.77-1.99-3.18-3.42-.41-1.44.32-2.97.99-4.3.51-1.01,1.43-1.82,2.26-2.65-1.09.22-2.36.21-3.26-.41-1.46-1-2.65-2.9-2.53-4.67.11-1.63,1.38-3.31,2.88-3.98,1.69-.75,4.01-.44,5.52.58,1.27.85,1.26,2.51,1.94,3.95l-.64,1.59Z"/><path id="uuid-9907d3e9-f9fe-4c6d-a8f5-167ae16c37fe" d="m138.73,469.08c-1.39-.25-2.87-.25-4.23.12-1.2.32-2.26,1.07-3.3,1.76-1.13.75-1.89,2.31-3.16,2.58.95-1.93,2.92-5.23,5.4-6.64,1.4-.79,3.14-.8,4.76-.68,1.74.13,3.55.61,5.13,1.52,1.86,1.07,3.49,2.69,4.83,4.46.9,1.2,1.74,2.56,2.04,4.05.16.8-.03,1.8-.17,2.41-.39-1.27-.95-2.8-1.91-4.05-.96-1.25-2.28-2.34-3.66-3.19-1.79-1.1-3.7-1.96-5.72-2.33h0Z"/><path id="uuid-9a097fdc-6cb9-4753-bf28-1b81a8f33942" d="m125.74,474.62c-.73.4-1.04,2.21-.55,3.18.14.28.53.48.85.44.89-.11,1.67-.95,1.93-1.78.17-.52-.32-1.06-.35-1.61-.03-.47.14-1.42.14-1.42,1.16-.95,1.94-2.31,3.29-2.41,1.87-.14,4.06.98,4.97,2.62.85,1.53.49,3.71-.39,5.22-.64,1.09-1.87,1.96-3.15,2.09-1.16.12-2.22-.72-3.23-1.28.61,1.71,1.29,3.7.58,5.36-.68,1.59-2.44,2.77-4.16,3.33-.72.23-1.54-.02-2.3-.09h0c-1.38-.66-2.8-1.68-3.33-3.06-.53-1.38,0-2.99.5-4.38.38-1.06,1.16-1.96,1.85-2.88-1,.33-1.88.98-2.9.96-1.18-.02-2.8-.18-3.32-1.24-1.11-2.24.1-5.81,2.19-7.19,1.34-.88,3.26-.01,4.77.52,1.14.4,2.28.6,3.07,1.96l-.44,1.65Z"/><path id="uuid-cecab6b4-2867-4c75-9cbe-bbb63b77585d" d="m118.34,466.2c1.23.1,2.53.42,3.52,1.17,1.05.8,1.44,2.22,2.22,3.28.6.81.88,1.79,1.88,2.37-.28-2.09-.82-5.59-2.59-7.6-.94-1.06-2.42-1.56-3.81-1.84-1.5-.31-3.14-.3-4.71.18-1.85.56-3.65,1.71-5.25,3.08-1.08.93-2.15,2.03-2.8,3.38-.35.73-.46,1.74-.5,2.36.67-1.13,1.55-2.45,2.69-3.41,1.14-.96,2.55-1.68,3.93-2.16,1.8-.61,3.63-.96,5.43-.81h0Z"/><path id="uuid-d33435b4-59c1-4083-9f22-660f7633e73e" d="m105.85,473.57c-.2.72-.01.82-.28,1.68-.27.85-.91,1.16-1.19.92-.1-.09.1-1.36.16-1.67l-4.69,8.72c0,.47.04.9.08,1.3.18.37.3.94.58,1,.68.15,1.6-.26,2.38-1.49.81-1.28,1.36-3.41,1.83-5.25.07.92.82.67,1.3.66,1.09,0,2.2-.66,2.9-1.49,1.09-1.31,1.95-3.25,1.48-4.88-.24-.83-1.14-1.44-1.97-1.69-.59-.18-1.17-.22-1.84.22"/><path id="uuid-aa93ebd4-59da-4cc3-b1c4-ee49084c6f39" d="m225.67,478.55s-6.61-2.21-10.01-2c-4.26.26-12.17,4-12.17,4,0,0-8.31-3.98-12.81-4.32-4.32-.33-12.81,2.24-12.81,2.24,0,0-6.8-6.11-11.05-7.36-4.22-1.25-13.21.16-13.21.16,0,0-5.58-6.95-9.6-8.08-5.04-1.42-15.53,2.32-15.53,2.32,0,0-7.22-5.05-11.37-5.04-2.42,0-6.64,2.96-6.64,2.96l2.72-5c5.71.18,9.99.51,15.85,1.41,5.85.9,11.74,1.75,17.45,3.32,5.4,1.49,10.51,3.86,15.78,5.75,4.23,1.52,8.36,3.37,12.71,4.48,3.29.84,6.68,1.2,10.04,1.63,2.87.37,5.75.67,8.63.85,4.39.27,8.8.4,13.2.33,2.88-.05,5.7-.22,8.7-.56,2.59-.29,7.56-1.71,7.56-1.71l2.54,4.62Z"/></g><path id="uuid-f71aa1f8-6c07-4aa1-989f-8c2e9933a55d" d="m195.54,367.1c-2.4-.25-5.29.66-7.94,3.2l-6.43,8.18-4.18,4.58-3.79-3.39-6.18-2.19,4.78-9.17,8.37-8.57,8.57-6.38,3.6-2.79,2.58,5.78,1.99,4.9,1.4,4.06-2.77,1.77Z" style="fill:#f55;"/><g id="uuid-9cf94ec9-b691-4bdd-8972-71c0c9875bdc"><path id="uuid-c50050a3-61a0-4247-b1b4-845527a52ece" d="m175.99,455.99c-.87-8.68-3.14-17.14-5.12-25.62-2.69-11.54-8.78-22.51-9.15-34.35-.13-4.09-1.26-10.21,2.4-12.03,2.84-1.42,8.61-.43,8.58,4.14-.03,3.74-5.65,5.67-6.87,1.71" style="fill:none; stroke:#55a; stroke-linecap:round; stroke-linejoin:round; stroke-width:2px;"/><path id="uuid-4809ce37-3e49-45e3-af4f-21f745b77d29" d="m170.81,453.8c-2.24-12.56-7.24-24.45-9.97-36.89-2.04-9.33-5.6-19.28-4.78-28.27.43-4.66,4.48-10.7,9.3-11.13,5.57-.51,12.78,3.34,12.89,10.73.07,4.67-5.67,9.81-10.43,9.77-2.87-.02-4.64-3.54-6.18-5.98" style="fill:none; stroke:#55a; stroke-linecap:round; stroke-linejoin:round; stroke-width:2px;"/><path id="uuid-1e4c87a9-ed54-4a7e-984c-cb0d9971968a" d="m165.63,451.8c-1.9-11.08-6.32-21.56-8.96-32.47-2.38-9.84-7.59-19.71-6.2-29.74.53-3.84,2.69-7.51,5.39-10.32" style="fill:none; stroke:#55a; stroke-linecap:round; stroke-linejoin:round; stroke-width:2px;"/><path id="uuid-e4d151c8-2b74-4c3a-8a48-add5ba5afb5a" d="m158.87,449.21c-1.75-10.61-5.82-20.68-8.25-31.13-2.19-9.44-7-18.91-5.71-28.51.49-3.66,2.45-7.17,4.97-9.89" style="fill:none; stroke:#55a; stroke-linecap:round; stroke-linejoin:round; stroke-width:2px;"/><path id="uuid-7ed06a5e-1e7b-488c-be46-3567571bed3d" d="m153.31,447.12c-1.75-10.35-5.82-20.14-8.25-30.33-2.19-9.19-7-18.41-5.71-27.78.49-3.58,2.47-7,4.97-9.64" style="fill:none; stroke:#55a; stroke-linecap:round; stroke-linejoin:round; stroke-width:2px;"/><path id="uuid-0a70f30b-b063-4a81-9a94-e2b414ee7a81" d="m147.33,444.43c-1.75-10-5.82-19.42-8.25-29.26-2.19-8.87-6.99-17.75-5.71-26.8.49-3.48,2.5-6.78,4.97-9.3" style="fill:none; stroke:#55a; stroke-linecap:round; stroke-linejoin:round; stroke-width:2px;"/><path id="uuid-e4a665fd-7f37-4efa-8913-3e21e2b8f489" d="m141.55,444.43c-1.75-10-5.82-19.42-8.25-29.26-2.19-8.87-6.99-17.75-5.71-26.8.49-3.48,2.5-6.78,4.97-9.3" style="fill:none; stroke:#55a; stroke-linecap:round; stroke-linejoin:round; stroke-width:2px;"/><path id="uuid-b07278ba-4d13-452b-9f32-06a947771b69" d="m135.97,443.04c-1.76-9.8-5.82-19.01-8.25-28.64-2.19-8.67-6.98-17.37-5.71-26.22.49-3.42,2.52-6.65,4.97-9.1" style="fill:none; stroke:#55a; stroke-linecap:round; stroke-linejoin:round; stroke-width:2px;"/><path id="uuid-243d628a-9110-4d17-99a7-735d16f967c1" d="m130.19,441.94c-1.76-9.62-5.8-18.65-8.25-28.1-2.18-8.36-6.89-16.72-5.74-25.28.47-3.51,2.45-6.89,5-9.38" style="fill:none; stroke:#55a; stroke-linecap:round; stroke-linejoin:round; stroke-width:2px;"/><path id="uuid-50d9030c-62b3-4e5b-b020-9395c4dc42b0" d="m125.01,442.14c-1.76-9.62-5.8-18.65-8.25-28.1-2.18-8.36-6.89-16.72-5.74-25.28.47-3.51,2.45-6.89,5-9.38" style="fill:none; stroke:#55a; stroke-linecap:round; stroke-linejoin:round; stroke-width:2px;"/><path id="uuid-43b2f8f5-8b75-4639-814b-bd9d4e361ebf" d="m119.83,441.74c-1.76-9.62-5.8-18.65-8.25-28.1-2.18-8.36-6.89-16.72-5.74-25.28.47-3.51,2.45-6.89,5-9.38" style="fill:none; stroke:#55a; stroke-linecap:round; stroke-linejoin:round; stroke-width:2px;"/><path id="uuid-b5e55ada-f784-456f-a859-4f9129676af6" d="m114.45,441.94c-1.76-9.62-5.8-18.65-8.25-28.1-2.18-8.36-6.89-16.72-5.74-25.28.47-3.51,2.45-6.89,5-9.38" style="fill:none; stroke:#55a; stroke-linecap:round; stroke-linejoin:round; stroke-width:2px;"/></g><path id="uuid-e160b1fb-9201-4061-9630-a1521b33a68c" d="m166.36,376.45s2.91-5,4.67-7.29c2.81-3.66,5.91-7.13,9.34-10.21,2.74-2.47,5.72-4.69,8.9-6.56,2.72-1.6,5.69-2.74,8.61-3.94,2.35-.97,7.15-2.63,7.15-2.63" style="fill:none; stroke:#55a; stroke-linecap:round; stroke-linejoin:round; stroke-width:2px;"/><path id="uuid-597a387d-8403-454e-a86d-e85f1722e7a0" d="m161.69,378.63h-88.4" style="fill:none; stroke:#55a; stroke-linecap:round; stroke-linejoin:round; stroke-width:2px;"/><path id="uuid-23be3feb-2ad2-4c8d-91c3-c6df24d57cd9" d="m204.24,364.19l-4.96-14.73" style="fill:none; stroke:#55a; stroke-linecap:round; stroke-linejoin:round; stroke-width:2px;"/><path id="uuid-27558725-54ed-4210-89be-34bf17bb7998" d="m211.14,362.88s-3.39-11.28-5.11-16.92c-.72-2.38-1.56-4.74-2.19-7.15-1.47-5.68-2.86-11.4-3.65-17.21-.65-4.83-.75-9.72-.88-14.59-.25-10.06.29-30.2.29-30.2h0" style="fill:none; stroke:#55a; stroke-linecap:round; stroke-linejoin:round; stroke-width:2px;"/><path id="uuid-6e71cc2d-535d-4492-9afe-6ea5f195ff0f" d="m203.55,338.16s-8.84,3.14-12.97,5.32c-4.17,2.19-8.15,4.78-11.82,7.73-3.03,2.44-5.78,5.23-8.31,8.17-1.73,2-3.18,4.23-4.67,6.42-1.23,1.81-3.5,5.54-3.5,5.54,0,0-28.5-.16-42.74,0-6.61.07-19.84.44-19.84.44,0,0,9.91-10.59,14.3-16.34,2.83-3.71,5.38-7.64,7.73-11.67,2.48-4.24,4.74-8.62,6.71-13.13,1.85-4.23,3.32-8.61,4.76-12.99,1.32-4.04,2.78-8.07,3.56-12.24,1.16-6.24,1.6-18.96,1.6-18.96l12.84,18.82s-2.21,9.34-3.79,13.86c-1.42,4.05-3.32,7.91-5.11,11.82-2,4.37-4,8.75-6.27,12.98-1.98,3.69-6.42,10.79-6.42,10.79h25.82s4.58-5.64,7.03-8.32c2.69-2.93,5.39-5.89,8.43-8.46,3.23-2.72,6.71-5.17,10.36-7.29,3.25-1.89,6.77-3.29,10.21-4.81,2.89-1.28,8.75-3.65,8.75-3.65l3.35,15.98Z" style="fill:#ff5; stroke:#55a; stroke-linecap:round; stroke-linejoin:round; stroke-width:2px;"/><path id="uuid-c199cfa6-9cc2-4e55-a21b-09b912f42e6f" d="m118.57,371.04l11.03-16.18" style="fill:none; stroke:#55a; stroke-linecap:round; stroke-linejoin:round; stroke-width:2px;"/><path id="uuid-97b4f047-d201-47d1-a4a6-ac222f2d68ad" d="m115.16,354.13l14,.29" style="fill:none; stroke:#55a; stroke-linecap:round; stroke-linejoin:round; stroke-width:2px;"/><path id="uuid-b5965b0f-7f75-42c3-9fd4-dffc67f13170" d="m136.31,343.48l-14-.44" style="fill:none; stroke:#55a; stroke-linecap:round; stroke-linejoin:round; stroke-width:2px;"/><path id="uuid-8bb2e3f8-1665-40fe-9e74-bf41f66169e4" d="m141.71,330.93l-12.4-.15" style="fill:none; stroke:#55a; stroke-linecap:round; stroke-linejoin:round; stroke-width:2px;"/><path id="uuid-9311a491-5983-4a68-9987-f82db69c374b" d="m146.96,317.95l-13.13.29" style="fill:none; stroke:#55a; stroke-linecap:round; stroke-linejoin:round; stroke-width:2px;"/><path id="uuid-9e21839b-5661-4908-8b0f-745740ca4fa2" d="m150.31,304.82l-12.69.29" style="fill:none; stroke:#55a; stroke-linecap:round; stroke-linejoin:round; stroke-width:2px;"/><path id="uuid-8d6ec5aa-53f3-452b-af47-a2fe8a64f353" d="m100.92,174.09s5.19,7.65,7.67,11.54c2.21,3.46,4.46,6.9,6.42,10.5,3.06,5.64,5.97,11.39,8.31,17.36,2.58,6.59,4.54,13.42,6.27,20.28,1.11,4.37,1.89,8.82,2.63,13.27.78,4.69,1.63,9.4,1.9,14.15.47,8.45.25,16.96-.58,25.38-.64,6.4-1.71,12.78-3.37,18.99-1.18,4.43-2.94,8.7-4.66,12.95-1.64,4.05-3.42,8.06-5.4,11.96-2.01,3.98-4.3,7.82-6.56,11.67-2.17,3.69-4.25,7.44-6.71,10.94-4.42,6.28-9.43,12.13-14.44,17.94-2.2,2.56-6.87,7.45-6.87,7.45l-12.1.14s10.69-8.84,15.61-13.71c2.23-2.21,4.27-4.59,6.27-7,3.06-3.68,5.94-7.5,8.75-11.38,1.52-2.1,3.03-4.2,4.38-6.42,3.74-6.18,7.15-12.57,10.21-19.11,1.46-3.12,2.75-6.33,3.89-9.58,1.21-3.46,2.26-6.99,3.12-10.56,1.17-4.85,2.29-9.75,2.76-14.72.83-8.66.8-17.43.15-26.11-.42-5.6-1.46-11.14-2.63-16.63-1.21-5.68-2.75-11.3-4.54-16.83-1.85-5.72-4.01-11.35-6.4-16.86-1.01-2.33-2.12-4.63-3.36-6.86-.98-1.76-2.09-3.44-3.21-5.11-1.42-2.11-2.92-4.16-4.44-6.2-3.34-4.48-10.29-13.25-10.29-13.25l7.21-4.21Z" style="fill:#ff5; stroke:#55a; stroke-linecap:round; stroke-linejoin:round; stroke-width:2px;"/><path id="uuid-ae483932-fcfd-47b8-82d7-b513b1c2cb3b" d="m72.41,378.78l-15.75-14.73-7.88-8.32-18.67-19.69" style="fill:none; stroke:#55a; stroke-linecap:round; stroke-linejoin:round; stroke-width:2px;"/><path id="uuid-6e73bb28-eea0-46e6-bbaa-345856b140da" d="m29.5,499.78l27.77-27.44-1.03-108.56-26.74-28.3v164.3Z" style="fill:#ff5; stroke:#55a; stroke-linecap:round; stroke-linejoin:round; stroke-width:2px;"/><path id="uuid-9460e051-f002-4c56-b997-98d0f636e957" d="m49.51,356.61l-.08,113.05-19.93,17.95v-152.28l20.01,21.28Z" style="fill:#f55; stroke:#55a; stroke-linecap:round; stroke-linejoin:round; stroke-width:2px;"/><path id="uuid-1c60ca8a-7db1-4d8d-89cb-f61c7fabc1b6" d="m57.68,454.81l5.57,1.65s4.05,3.95,5.78,6.19c2.83,3.67,6,7.35,7.43,11.76.83,2.56.51,8.05.51,8.05,0,0,6.1-6.31,8.61-9.89,2.09-2.97,3.9-6.16,5.32-9.51,1.31-3.11,2.18-6.4,2.89-9.7.7-3.27,1.28-6.6,1.32-9.95.05-4.13-.34-8.32-1.32-12.33-.67-2.75-1.87-5.36-3.09-7.92-1.32-2.76-2.86-5.41-4.54-7.96-1.89-2.87-6.19-8.25-6.19-8.25,0,0-1.95,5.21-3.3,7.63-2.28,4.1-4.89,8.08-8.05,11.55-2,2.2-4.04,4.68-6.81,5.78-1.28.51-4.13.21-4.13.21v22.69Z" style="fill:none; stroke:#55a; stroke-linecap:round; stroke-linejoin:round; stroke-width:2px;"/><path id="uuid-022ba4d6-9e69-47c7-9e68-488ab5050e1f" d="m63.05,431.91s1.7,3.09,2.28,4.74c.65,1.88,1.19,3.83,1.3,5.81.16,2.72-.13,5.5-.84,8.13-.58,2.13-2.74,6.02-2.74,6.02,0,0,5.11,4.74,7.25,7.47,2.47,3.14,6.41,10.13,6.41,10.13,0,0,4.18-4.89,5.85-7.63,1.67-2.74,3.07-5.66,4.09-8.7,1.13-3.39,1.82-6.95,2.19-10.5.27-2.6.28-5.24,0-7.84-.31-2.87-.89-5.74-1.86-8.46-.77-2.17-2.01-4.16-3.09-6.19-1.05-1.96-2.07-3.93-3.3-5.78-1.15-1.73-3.8-4.96-3.8-4.96,0,0-3.77,7.07-6.24,10.21-2.19,2.79-7.5,7.54-7.5,7.54h0Z" style="fill:#ff5; stroke:#55a; stroke-linecap:round; stroke-linejoin:round; stroke-width:2px;"/><path id="uuid-4aead8fd-3b37-4882-8fba-d0c4043db525" d="m69.23,461.2s2.67-3.4,3.51-5.36c.94-2.19,1.31-4.61,1.61-6.97.41-3.24.67-6.55.25-9.78-.35-2.68-1.07-5.37-2.28-7.79-.82-1.65-3.32-4.42-3.32-4.42" style="fill:none; stroke:#55a; stroke-linecap:round; stroke-linejoin:round; stroke-width:2px;"/><path id="uuid-f67a6af2-3856-4df4-8fa1-cfaca57cb527" d="m71.92,466.36h4.33c-.31-3.41-1.04-6.66-2.68-9.49,2.92-.04,5.58-.49,8.25-1.86-1.48-3.48-4.54-5.04-6.85-6.27,2.62-.88,5.65-2.67,7.52-4.54-2.23-2.2-4.95-3.74-7.68-4.86,2.7-1.39,5.4-3.11,7.18-5.66-2.17-1.59-6.08-3-8.83-3.01,2.26-2.53,3.28-4.73,4.54-7.84-1.58-.14-3.16-.28-4.74-.41" style="fill:none; stroke:#55a; stroke-linecap:round; stroke-linejoin:round; stroke-width:2px;"/><path id="uuid-5c7a02a0-04ab-4be8-bd0f-7c2fb9441075" d="m197.1,411.12s-2.5.38-3.35.16-1.3-.55-1.67-1.1c-.67-.99-.88-2.31-.74-3.51.15-1.28.65-2.71,1.64-3.48,1.57-1.21,3.82-1.21,5.73-.94,1.84.27,3.39,1.55,5.04,2.43,1.11.59,2.12,1.41,3.27,1.91,1.28.55,2.62,1.14,4.01,1.17.85.02,2.24.26,2.51-.6.21-.65-.69-1.23-1.27-1.51-1.57-.77-3.52.19-5.22-.18-1.86-.4-3.48-1.59-5.29-2.18-1.7-.56-3.41-1.47-5.19-1.31-1.47.13-3.02.74-4.09,1.83-.72.73-1.17,1.82-1.27,2.86-.1,1.08.12,2.29.75,3.13.79,1.06,2.44,1.83,3.39,1.91s1.74-.6,1.74-.6h0Z" style="fill:#55a; stroke:#55a; stroke-linecap:round; stroke-linejoin:round; stroke-width:2px;"/><path id="uuid-ac5e3feb-5191-4536-9935-fc407327f8fe" d="m210.1,419.82c-1.1.24-2.55-1.3-3.05-2.3-.66-1.31.14-3.33,1.25-4.22,1.49-1.2,3.82-.76,5.61-.2,1.5.47,2.4,2.24,3.86,2.84.88.36,1.99.88,2.82.38.49-.29.91-1.09.68-1.63-.33-.77-1.51-.55-2.28-.73-1.06-.26-2.19-.2-3.24-.54-1.19-.38-2.15-1.53-3.38-1.65-1.4-.14-3.09.05-4.09,1.1-1.08,1.13-1.69,3.16-1.18,4.67.42,1.23,3,2.27,3,2.27h0Z" style="fill:#55a; stroke:#55a; stroke-linecap:round; stroke-linejoin:round; stroke-width:2px;"/><path id="uuid-8928a824-ba6a-427b-844f-74f759748e1d" d="m220.39,459.7s.3-5.56,0-8.31c-.28-2.59-1.35-5.06-1.66-7.65-.23-1.87-.51-3.8-.17-5.65,1.36-7.27,6.55-13.34,8.64-20.44.36-1.24,1.21-2.65.66-3.82-1.19-2.57-5.66-2.03-7.31-4.32-1.23-1.7-1.33-4.05-1.33-6.15,0-.79.5-2.33.5-2.33-2.49.12-4.79-.34-7.15-.5-2.8-.19-6.25-.08-8.14-2.16-.45-.5-.33-1.99-.33-1.99,0,0,2.56,1.57,3.99,1.99,3.63,1.09,7.5.43,11.3,1.33.65.15-.12-1.88-.17-2.83-.12-2.33-.56-4.66-.33-6.98.09-.91.66-2.66.66-2.66" style="fill:none; stroke:#55a; stroke-linecap:round; stroke-linejoin:round; stroke-width:2px;"/><path id="uuid-992af3e3-501f-4b7c-8bfb-e0127bab8f7a" d="m212.86,451.02c-.49.72-5.26.36-7.88.27-3.15-.11-6.38-.01-9.37-.97-3.4-1.09-6.37-3.27-9.29-5.32-1.12-.79-3.12-2.66-3.12-2.66,0,0,5.6,4.17,8.81,5.56,2.47,1.08,5.17,1.7,7.88,2.11,2.65.4,5.4.09,8.07.33,1.65.15,5.84-.71,4.9.68h0Z" style="fill:none; stroke:#55a; stroke-linecap:round; stroke-linejoin:round; stroke-width:2px;"/><path id="uuid-53cc0132-2638-439f-a0b3-250cd6ce40d5" d="m207.3,443.89s-6.37.04-9.41-.78c-4.43-1.2-12.43-5.94-12.43-5.94" style="fill:none; stroke:#55a; stroke-linecap:round; stroke-linejoin:round; stroke-width:2px;"/><path id="uuid-924d2fc8-060b-4325-8081-92149bc0fe6c" d="m209.55,439.1s-6.15.93-9.13.31c-4.5-.94-12.43-5.94-12.43-5.94" style="fill:none; stroke:#55a; stroke-linecap:round; stroke-linejoin:round; stroke-width:2px;"/><path id="uuid-7a334e94-afb3-4fc5-8572-f31a0690ebc3" d="m210.77,429.89c-3.7-.45-5.15-4.48-8.4-5.6" style="fill:none; stroke:#55a; stroke-linecap:round; stroke-linejoin:round; stroke-width:2px;"/><path id="uuid-2c485f84-67ee-45a2-896e-c0ef86f87c49" d="m190.86,432.21s2.62,3.2,4.31,4.35c1.25.85,2.68,1.49,4.15,1.78,1.94.39,3.98.28,5.94-.06,1.23-.22,2.36-.84,3.55-1.24.48-.16,1.45-.46,1.45-.46,0,0-1.13-2.57-2.06-3.59-.91-1-2.1-1.79-3.31-2.33-1.77-.79-3.71-1.38-5.64-1.28-2.94.15-8.39,2.84-8.39,2.84Z" style="fill:none; stroke:#55a; stroke-linecap:round; stroke-linejoin:round; stroke-width:2px;"/><path id="uuid-3288ed14-7088-4cad-b16a-fa89518add0d" d="m206.4,434.61c-.26,2.02-2.56,3.33-5.13,2.93s-4.45-2.36-4.18-4.37,2.56-3.33,5.13-2.93,4.45,2.36,4.18,4.37Z" style="fill:none; stroke:#55a; stroke-linecap:round; stroke-linejoin:round; stroke-width:2.22px;"/><path id="uuid-36b78572-1a4c-42d6-801b-f8ddedb844da" d="m204.61,434.47c-.11.84-.95,1.4-1.88,1.26s-1.6-.94-1.49-1.78.95-1.4,1.88-1.26,1.6.94,1.49,1.78Z" style="fill:#55a; stroke:#55a; stroke-linecap:round; stroke-linejoin:round; stroke-width:2.13px;"/><path id="uuid-8e9cd635-d178-4d78-8129-6f1ffdb8fa23" d="m212.09,442c-1.09-.73-1.09-2.83-1.64-4.24" style="fill:none; stroke:#55a; stroke-linecap:round; stroke-linejoin:round; stroke-width:2px;"/><path id="uuid-7097e1b6-bfb7-4657-bf42-87995f9e60a7" d="m121.42,359.53l-3.8,6.49-8.06,1.12,4.25-6.71,7.61-.9Z"/><path id="uuid-942679fd-3a13-439b-b209-51cac0a3bf84" d="m131.24,348.97l-6.17,4.28-5-4.33,6.5-4.21,4.68,4.25Z"/><path id="uuid-fc0ebb36-6421-4f2d-8aa6-b3fcc8fc6ff4" d="m137.75,336.91l-6.17,4.28-5-4.33,6.5-4.21,4.68,4.25Z"/><path id="uuid-c3db3afa-76f6-4fe6-b3ee-fa64dd4c7e3c" d="m143.12,324.6l-6.17,4.28-5-4.33,6.5-4.21,4.68,4.25Z"/><path id="uuid-78112529-d0a8-41bd-a28f-804687619418" d="m147.77,311.09l-5.54,5.08-5.54-3.61,5.87-5.05,5.21,3.58Z"/><path id="uuid-e92ed7ba-6fdd-4155-b3fa-aac3e69a8b4e" d="m137.59,363.73l-5.22,5.48-4.66-5.47,5.02-6.29,4.86,6.27Z"/><path id="uuid-5a123ada-7c1b-40ed-bca6-9fe6b360a984" d="m149.24,363.45l-4.64,5.98-5.19-4.97,4.36-6.76,5.47,5.75Z"/><path id="uuid-a0a51d34-6d1d-4d8f-8d3d-f86328256c11" d="m162.05,361.03l-2.99,6.95-6.27-3.51,2.53-7.64,6.73,4.2Z"/><path id="uuid-29a31d54-163d-4ee9-a71e-f504f2dc287f" d="m169.97,349.79l.2,7.57-7.16-.56-.91-7.99,7.87.98Z"/><path id="uuid-92573cb4-8053-4873-b57e-e72168fab417" d="m178.77,341.6l.03,7.57-7.15-.72-.73-8.01,7.85,1.16Z"/><path id="uuid-eea09d56-4254-47be-94db-81878f5f5067" d="m188.89,335.78l-2.02,7.3-6.69-2.62,1.46-7.91,7.24,3.24Z"/><path id="uuid-c6711c4c-904a-4e65-9284-248763ede999" d="m199.27,330.94l-2.43,7.17-6.53-3,1.91-7.81,7.05,3.64Z"/><path id="uuid-0a7f0e1d-7fb9-4e08-8bcf-22c17f342310" d="m120.78,312.68l-37.79-49.02" style="fill:#ff5; stroke:#55a; stroke-linecap:round; stroke-linejoin:round; stroke-width:2px;"/><path id="uuid-9d93202e-ae74-40d5-be0c-a1999d3a7e29" d="m63.83,282.82l43.48,58.6c5-6.6,7.89-13.51,11.39-20.71l-40.71-52.09-14.16,14.2Z" style="stroke:#55a; stroke-linecap:round; stroke-linejoin:round; stroke-width:2px;"/><path id="uuid-cea997ae-ae6f-4df6-9426-1ea4a29214df" d="m103.2,345.98l-43.7-59.87" style="fill:#ff5; stroke:#55a; stroke-linecap:round; stroke-linejoin:round; stroke-width:2px;"/><path id="uuid-dd88eedb-46db-4300-ac68-74d682ad5245" d="m93.09,358.7l-47.14-62.86" style="fill:#ff5; stroke:#55a; stroke-linecap:round; stroke-linejoin:round; stroke-width:2px;"/><path id="uuid-76c6f08e-7d00-4c5e-b9e5-49c5f039c7df" d="m88.6,363.56l-47.41-64.16" style="fill:#ff5; stroke:#55a; stroke-linecap:round; stroke-linejoin:round; stroke-width:2px;"/><path id="uuid-f7797bd8-0c74-4d6e-bd1c-81ecb9c8c650" d="m45.78,295.58l-15.54,11.49" style="fill:#ff5; stroke:#55a; stroke-linecap:round; stroke-linejoin:round; stroke-width:2px;"/><path id="uuid-f896c74b-af42-4d9f-ba9a-0979387938d4" d="m59.72,285.89s2.85-2.29,4.19-3.52c4.68-4.29,9.07-8.9,13.47-13.47,1.96-2.03,3.94-4.06,5.76-6.21,3.51-4.14,6.83-8.43,9.95-12.87,2.86-4.07,5.45-8.31,8.01-12.57,2.17-3.61,4.28-7.26,6.21-11,1.08-2.08,2.08-4.2,2.99-6.36,1.37-3.21,3.74-9.79,3.74-9.79" style="fill:none; stroke:#55a; stroke-linecap:round; stroke-linejoin:round; stroke-width:2px;"/><path id="uuid-6ead835e-4e29-4bae-aeff-16acbe3647c8" d="m117.79,296.21l-25.82-33.67s8.54-10.9,12.2-16.76c3.59-5.77,9.5-18.03,9.5-18.03,0,0,4.27,9.3,5.61,14.22,1.69,6.21,2.56,12.66,2.99,19.08.41,6.1.42,12.27-.37,18.33-.75,5.73-4.12,16.84-4.12,16.84h0Z" style="fill:#fff; stroke:#55a; stroke-linecap:round; stroke-linejoin:round; stroke-width:2px;"/><path id="uuid-eb9702f3-232d-47f1-b0c1-6fc435eaecf4" d="m113.67,279.38s.98-9.73.75-14.59c-.28-6.02-2.62-17.89-2.62-17.89l-10.48,16.01,12.35,16.46Z" style="fill:#55a;"/><path id="uuid-052ad21b-cca6-4d70-aa15-c710f14369ee" d="m111.82,329.42c-1.46.65-3.15,1.19-4.7.85-2.85-.61-5.44-2.63-7.19-4.95-1.69-2.23-2.3-5.17-2.7-7.94-.32-2.23.32-4.49.3-6.74-.02-1.5-.02-3.02-.3-4.5-.21-1.13-1.05-3.3-1.05-3.3,0,0-.52,3.34-1.5,4.65-.8,1.07-2,1.97-3.3,2.25-1.34.28-2.83-.11-4.05-.75-1.06-.56-2.09-1.44-2.55-2.55-.34-.82-.3-1.82,0-2.65.24-.65.72-1.29,1.35-1.6.52-.26,1.75-.1,1.75-.1,0,0-.88,1.48-.69,2.25.23.98,1.13,1.88,2.1,2.19.92.29,2.12.09,2.85-.54,1.07-.94,1.29-2.63,1.35-4.05.05-1.23-.32-2.51-.9-3.6-.6-1.13-1.48-2.15-2.55-2.85-1.89-1.23-4.27-1.5-6.44-2.1-1.73-.48-3.62-.43-5.25-1.2-1.26-.59-2.27-1.62-3.3-2.55-1.02-.92-2.09-1.85-2.85-3-.63-.95-1.12-2.03-1.35-3.15-.19-.93-.18-1.92,0-2.85.28-1.43.8-2.86,1.65-4.05.31-.43,1.2-1.05,1.2-1.05,0,0-.7,2.39-.6,3.6.09,1.05.45,2.12,1.05,3,.48.71,1.14,1.4,1.95,1.7.84.31,1.83.18,2.7-.05.58-.15,1.22-.38,1.6-.85.52-.66.63-1.6.65-2.44.01-.41-.11-.82-.25-1.2-.19-.5-.79-1.4-.79-1.4,0,0,1.75.38,2.39.95.63.57.99,1.42,1.2,2.25.25,1.02.3,2.14,0,3.15-.25.84-.77,1.64-1.45,2.2-.64.53-1.48.8-2.3.95-.64.12-1.95-.05-1.95-.05,0,0,2.16,1.02,3.3,1.4,1.42.47,2.92.61,4.35,1.05,1.22.38,2.4.89,3.6,1.35,1.15.44,2.39.72,3.45,1.35,1.07.63,2.02,1.48,2.85,2.4,1.13,1.26,2.02,2.72,2.85,4.2.77,1.39,1.49,2.83,1.95,4.35.45,1.5.51,3.1.75,4.65.21,1.35.42,2.7.6,4.05.17,1.25.25,2.5.45,3.75.16,1.01.16,2.08.6,3,.37.77.96,1.45,1.65,1.95.74.54,1.63,1.03,2.55,1.05.87.02,1.83-.29,2.45-.9.5-.49.69-1.25.75-1.95.07-.81-.5-2.4-.5-2.4,0,0,2.13,1.14,2.7,2.14.39.69.45,1.58.3,2.35-.16.79-.63,1.53-1.2,2.1-.49.49-1.15.81-1.8,1.05-1.33.48-4.18.7-4.18.7,0,0,2.2,1.8,3.49,2.35.78.34,1.64.48,2.49.55.9.07,2.69-.15,2.69-.15,0,0-1.34,1.32-2.18,1.7h0Z" style="fill:#ff5;"/><path id="uuid-baf2c872-1067-4c31-852a-7857a2db00d0" d="m30.12,254.32s5.58-3.57,8.17-5.62c3.87-3.07,7.61-6.34,10.98-9.96,2.73-2.93,5.24-6.08,7.4-9.45,2.7-4.19,6.89-13.28,6.89-13.28" style="fill:none; stroke:#000; stroke-linecap:round; stroke-linejoin:round; stroke-width:2px;"/><path id="uuid-cfb5a94e-8d6b-48fb-9eef-afc69bb3bf62" d="m79.25,208.96s-3.71,8.16-5.72,12.17c-1.71,3.39-3.4,6.79-5.39,10.02-2.33,3.78-4.82,7.48-7.63,10.92-2.97,3.65-6.22,7.09-9.7,10.26-3.36,3.05-7,5.79-10.72,8.38-2.13,1.48-4.44,2.7-6.64,4.09-1.2.75-3.57,2.3-3.57,2.3" style="fill:none; stroke:#000; stroke-linecap:round; stroke-linejoin:round; stroke-width:2px;"/><path id="uuid-be118d19-5cf6-49b6-96f7-f67d272f1c6f" d="m30.37,274.75s10.54-6.58,15.58-10.21c4.08-2.94,8.18-5.91,11.85-9.35,3.96-3.71,7.54-7.82,10.88-12.1,3.28-4.21,6.16-8.72,8.94-13.28,3.03-4.98,5.79-10.12,8.43-15.32,1.87-3.69,5.23-11.27,5.23-11.27" style="fill:none; stroke:#000; stroke-linecap:round; stroke-linejoin:round; stroke-width:2px;"/><path id="uuid-38fa965f-e284-4273-8d3c-480f1edba005" d="m107.19,197.46s-4.51,10.36-6.85,15.5c-2.41,5.3-4.63,10.71-7.4,15.83-2.92,5.38-6.15,10.6-9.7,15.58-3.45,4.82-7.17,9.47-11.23,13.79-4.04,4.3-8.5,8.21-13.02,12-4.42,3.7-9.09,7.12-13.79,10.47-3.75,2.67-7.56,5.26-11.49,7.66-1.04.64-3.19,1.79-3.19,1.79v5.62s11.56-6.62,16.98-10.47c5.18-3.67,10.02-7.82,14.81-12,4.49-3.92,8.95-7.91,13.02-12.26,4.3-4.59,8.29-9.48,12-14.55,3.52-4.82,6.8-9.85,9.7-15.06,2.8-5.02,5.04-10.34,7.4-15.58,2-4.42,5.72-13.38,5.72-13.38l-2.96-4.93Z"/><path id="uuid-b3ad2eb5-6326-435b-83b9-45aefb8b1e2f" d="m93.24,202.66l6.45,11.33-14.35,2.3,8.04,14.49-15.53-.72,6.5,14.62-15.35-1.62,2.89,16.79-13.9-3.97,1.26,15.17-13.18-5.78-1.26,16.43-11.74-7.04-2.43,15.75" style="fill:none; stroke:#000; stroke-linecap:round; stroke-linejoin:round; stroke-width:2px;"/><path id="uuid-8bfb80b5-93df-4340-b588-5478b3dd9500" d="m34.44,282c0-1.1.9-2,2-2s2,.9,2,2-.9,2-2,2-2-.9-2-2Z"/><path id="uuid-9b605e01-4213-4dff-abaf-100363dc146b" d="m48.16,272.57c0-1.1.9-2,2-2s2,.9,2,2-.9,2-2,2-2-.9-2-2Z"/><path id="uuid-01e581ad-4cdb-4bd0-bfce-f8ddc41ca4dd" d="m60.55,262.43c0-1.1.9-2,2-2s2,.9,2,2-.9,2-2,2-2-.9-2-2Z"/><path id="uuid-80fd5cfd-2407-4ea7-863c-15c37a172d99" d="m73.17,248.91c0-1.1.9-2,2-2s2,.9,2,2-.9,2-2,2-2-.9-2-2Z"/><path id="uuid-c0d3ce15-08ef-4652-aa9f-26456b8d4dcc" d="m82.86,234.49c0-1.1.9-2,2-2s2,.9,2,2-.9,2-2,2-2-.9-2-2Z"/><path id="uuid-fd757831-d527-4137-9657-f2678f0ce1ec" d="m91.19,220.3c0-1.1.9-2,2-2s2,.9,2,2-.9,2-2,2-2-.9-2-2Z"/><path id="uuid-4896c56f-a6a5-4260-8567-e240fd6a7df0" d="m97.95,205.2c0-1.1.9-2,2-2s2,.9,2,2-.9,2-2,2-2-.9-2-2Z"/><path id="uuid-572a705c-fc85-44b2-a604-07d2ef84e710" d="m67.53,217.82c0-1.1.9-2,2-2s2,.9,2,2-.9,2-2,2-2-.9-2-2Z" style="fill:#55a;"/><path id="uuid-49748661-8b04-4327-bcf8-896c368aa033" d="m64.38,223.45c0-1.1.9-2,2-2s2,.9,2,2-.9,2-2,2-2-.9-2-2Z" style="fill:#55a;"/><path id="uuid-5e993da6-9ed2-412c-99b0-81e813660399" d="m61.07,228.93c0-1.1.9-2,2-2s2,.9,2,2-.9,2-2,2-2-.9-2-2Z" style="fill:#55a;"/><path id="uuid-f3912051-b6a5-46f2-a1bb-6e531fab5beb" d="m57.46,234.66c0-1.1.9-2,2-2s2,.9,2,2-.9,2-2,2-2-.9-2-2Z" style="fill:#55a;"/><path id="uuid-42678706-4968-4fc7-9eda-18cf8ee9e978" d="m53.54,240.04c0-1.1.9-2,2-2s2,.9,2,2-.9,2-2,2-2-.9-2-2Z" style="fill:#55a;"/><path id="uuid-1f81c45f-7f04-477b-9c13-e9cffb876b4d" d="m48.72,245.2c0-1.1.9-2,2-2s2,.9,2,2-.9,2-2,2-2-.9-2-2Z" style="fill:#55a;"/><path id="uuid-1ecaa65d-c364-40dc-a76d-c5a170c4dc85" d="m43.57,249.59c0-1.1.9-2,2-2s2,.9,2,2-.9,2-2,2-2-.9-2-2Z" style="fill:#55a;"/><path id="uuid-c2a68f1f-e09a-4bcb-9ec7-b6d8982e5148" d="m38.41,253.83c0-1.1.9-2,2-2s2,.9,2,2-.9,2-2,2-2-.9-2-2Z" style="fill:#55a;"/><path id="uuid-36d315cd-8212-41dc-a6ab-ad9eec881d1f" d="m32.81,257.87c0-1.1.9-2,2-2s2,.9,2,2-.9,2-2,2-2-.9-2-2Z" style="fill:#55a;"/><g id="uuid-21e50077-5018-4909-8dd8-a3d290ce65a1"><path id="uuid-7f9d7608-379a-47d4-9a4a-e8e575839ecf" d="m82.88,183.02s-1.81-5.66-2.43-8.56c-.31-1.43-.58-2.88-.64-4.34-.12-2.81,1.68-5.87.51-8.43-.29-.64-.96-1.25-1.66-1.28-2.18-.09-4.19,1.82-5.49,3.58-1.62,2.17-2.3,7.79-2.3,7.79,0,0-1.78-7.4-4.73-9.2-.25-.16-.69.22-.89,0-.38-.41.29-1.13.13-1.66-.98-3.25-3.04-6.96-6.26-8.05-.79-.27-1.83.05-2.43.64-1.16,1.15-1.57,3.12-1.28,4.73.49,2.73,2.74,4.97,4.85,6.77.22.19.63.13.77.38.35.64-.35,1.45-.26,2.17.19,1.5,1.66,4.21,1.66,4.21l-.51.38s-1.37-4.62-2.43-6.77c-1.32-2.68-3.23-5.02-4.85-7.53-.85-1.32-1.22-3.13-2.55-3.96-1.31-.81-3.33-1.38-4.6-.51-1.67,1.15-2.1,3.93-1.53,5.87.46,1.56,2.68,1.97,3.58,3.32.75,1.13.79,2.62,1.4,3.83.49.96,1.29,1.73,1.79,2.68.75,1.42.92,3.12,1.79,4.47.6.94,2.3,2.43,2.3,2.43l-1.15.89s-1.29-3.61-2.43-5.11c-.51-.67-1.45-.95-1.92-1.66-1.08-1.64-.88-3.88-1.79-5.62-.87-1.67-1.76-3.64-3.45-4.47-.8-.39-2.04-.62-2.68,0-1.81,1.75-.95,5.12-.26,7.53.65,2.27,2.31,4.18,3.96,5.87.26.26.68.34.89.64.62.87.47,2.09.89,3.07.53,1.23,1.15,2.45,2.04,3.45.28.32,1.02.77,1.02.77l-1.02,1.02s-.5-1.03-.77-1.53c-.87-1.67-1.45-3.55-2.68-4.98-.28-.32-.83-.39-1.02-.77-.17-.34.12-.78,0-1.15-.56-1.74-1.6-3.57-3.19-4.47-.52-.29-1.31-.49-1.79-.13-1.29.97-1.15,3.12-1.02,4.73.24,2.88,1.92,5.45,3.19,8.05.85,1.73,2.04,3.28,2.94,4.98,1.12,2.12,1.91,4.41,3.07,6.51,1.26,2.3,4.21,6.64,4.21,6.64" style="fill:none; stroke:#55a; stroke-linecap:round; stroke-linejoin:round; stroke-width:2px;"/><path id="uuid-8d30920e-1c61-4e4f-a2cc-a2431fdffd36" d="m79.43,171.4s-2.62-1.8-3.19-3.19c-.88-2.12,0-6.9,0-6.9" style="fill:none; stroke:#55a; stroke-linecap:round; stroke-linejoin:round; stroke-width:2px;"/><path id="uuid-33c2d7a7-61d4-46f5-ab61-5afc12c3e893" d="m64.49,189.92s.88-5.91,2.17-8.56c.94-1.94,3.96-5.11,3.96-5.11" style="fill:none; stroke:#55a; stroke-linecap:round; stroke-linejoin:round; stroke-width:2px;"/><path id="uuid-15b59425-6711-4cee-a6e5-7593a497ce14" d="m58.49,187.49c1.53-1.75,3.32-4.38,5.62-6.13" style="fill:none; stroke:#55a; stroke-linecap:round; stroke-linejoin:round; stroke-width:2px;"/><path id="uuid-1356bde3-710d-46cf-8e38-0659ae9cba12" d="m55.29,184.55c2.64-2.7,4.85-5.11,8.43-8.43" style="fill:none; stroke:#55a; stroke-linecap:round; stroke-linejoin:round; stroke-width:2px;"/></g><g id="uuid-97443ed1-fbde-4915-9fa6-88c379a8b115"><path id="uuid-0fc549cf-6433-4e59-bb9a-05ff7357fac4" d="m177.59,383.74s2.96-5.16,4.73-7.54c2.01-2.7,4.07-5.32,6.64-7.6,1.35-1.2,3.45-2.47,5.12-1.78.29.12.42.86.42.86" style="fill:none; stroke:#55a; stroke-linecap:round; stroke-linejoin:round; stroke-width:2px;"/><path id="uuid-3b4f91e6-cf7d-4f44-87dc-4006c00318bb" d="m219.36,387.78c3.01-5.97,6.95-8.7,11.99-11.18,2.06-2.51,5.58-4.83,7.62-3.01,1.8,1.61,1.66,6.87-1.9,7.01" style="fill:none; stroke:#55a; stroke-linecap:round; stroke-linejoin:round; stroke-width:2px;"/><path id="uuid-ab77ce98-98d2-4032-92cf-832dba2a6d1a" d="m214.48,386.53c3.58-8.09,11.49-17.33,20.67-18.58,4-.55,9.48,1.59,10.84,5.38,1.63,4.54-1.23,11.21-5.92,13.21-2.92,1.25-6.71.21-8.6-2.05-1.66-1.99-1.11-5.99-.42-7.76" style="fill:none; stroke:#55a; stroke-linecap:round; stroke-linejoin:round; stroke-width:2px;"/><path id="uuid-6d477cd5-18a1-429e-9d6d-25c211ff727a" d="m208.95,385.23c2.46-6.78,8.68-16.9,16.87-19.48,2.6-.82,6.28-.73,7.94,2.01" style="fill:none; stroke:#55a; stroke-linecap:round; stroke-linejoin:round; stroke-width:2px;"/><path id="uuid-6c0cb635-8f00-46f3-90e5-d90361620f4a" d="m202.08,385.5c2.6-6.81,7.73-16.91,15.45-20.74,2.73-1.35,6.61-1.47,9.14.08" style="fill:none; stroke:#55a; stroke-linecap:round; stroke-linejoin:round; stroke-width:2px;"/><path id="uuid-a609ab7f-488d-4469-8e92-04b53636531e" d="m195.59,385.57c1.75-6.24,7.5-16.03,14.51-20.71,2.59-1.73,6.55-3.5,9.12-2.01" style="fill:none; stroke:#55a; stroke-linecap:round; stroke-linejoin:round; stroke-width:2px;"/><path id="uuid-7b1f47aa-af53-4ef6-a3cf-1a92dcd0b02e" d="m189.01,388.2c.93-4.75,6.04-15.66,12.19-20.87,1.84-1.56,4.76-4.12,6.77-2.58" style="fill:none; stroke:#55a; stroke-linecap:round; stroke-linejoin:round; stroke-width:2px;"/><path id="uuid-1c76640b-b287-4cf1-83e1-66322f9670a0" d="m182.55,388.19c.98-4.22,4.97-11.21,8.86-16.18,2.04-2.61,5-7.48,8.41-5.28" style="fill:none; stroke:#55a; stroke-linecap:round; stroke-linejoin:round; stroke-width:2px;"/></g><path id="uuid-55643b98-e11d-4e46-8ffb-1ee2f11d4f3b" d="m198.18,365.64l-5.88-14.4" style="stroke:#55a; stroke-linecap:round; stroke-linejoin:round; stroke-width:2px;"/><g id="uuid-3d09be18-21ff-4f69-8c70-4db89ab29155"><path id="uuid-f86a173d-464f-4d37-89de-b3e5bcac1f47" d="m147.88,286.5l-14.12-.25s1.07-9.82,1.12-14.75c.06-4.8-.21-9.61-.75-14.38-.46-4.12-1.39-8.17-2.12-12.25-.64-3.59-1.19-7.2-2-10.75-1.13-4.93-2.43-9.82-4-14.62-1.16-3.56-2.49-7.07-4-10.5-2.24-5.08-4.73-10.06-7.5-14.88-2.51-4.36-5.34-8.52-8.25-12.62-1.94-2.74-6.12-8-6.12-8l12.58-7.41s2.15,3.25,3.8,4.16c2.09,1.15,4.75.58,7.05,1.24,1.93.55,3.71,1.53,5.58,2.25,1.56.6,4.72,1.72,4.72,1.72,0,0,4.16,11.57,6.03,17.42,2.07,6.49,4.21,12.99,5.75,19.62,1.1,4.74,1.97,9.54,2.5,14.38.81,7.46.83,14.99,1,22.5.14,6.29.16,12.59,0,18.88-.1,4.13-.3,8.26-.62,12.38-.15,1.96-.62,5.88-.62,5.88Z" style="fill:#55a;"/><path id="uuid-5eb58c8e-cb00-4988-8def-4969025cd258" d="m146.38,273.62l-4.5,5.38-3.75-5.5,4.12-5.75,4.12,5.88Z" style="fill:#fff;"/><path id="uuid-bb39124e-2620-42d2-989b-bbf9d8ba221b" d="m146.62,259.05l-3.71,5.95-4.47-4.93,3.29-6.27,4.9,5.25Z" style="fill:#fff;"/><path id="uuid-c77c86db-7eb0-499e-a070-f6e935fedcdf" d="m145.32,244.69l-3.41,6.13-4.72-4.69,2.97-6.42,5.16,4.99Z" style="fill:#fff;"/><path id="uuid-cfec9290-7c40-4666-8ec6-61ab61f9e392" d="m143.83,229.38l-4.21,6.93-5.67-5.35,3.68-7.27,6.2,5.69Z" style="fill:#fff;"/><path id="uuid-a45cf369-3e21-455f-9267-05649c1a807c" d="m140.32,212.55l-3.4,7.36-6.24-4.67,2.84-7.64,6.8,4.95Z" style="fill:#fff;"/><path id="uuid-f048e6f0-4039-4873-ae88-8452dbe1bc9d" d="m135.16,196.46l-2.76,8.75-7.52-4.37,2.1-8.98,8.18,4.61Z" style="fill:#fff;"/><path id="uuid-611ecc2f-0c74-4058-815e-6275b5eb5211" d="m126.45,178.36l-.51,10.75-9.3-2.73-.27-10.82,10.08,2.8Z" style="fill:#fff;"/></g><path id="uuid-32724b1f-d58d-42fc-b4d8-0e4fd69e0081" d="m29.5,149.5v360h270" style="fill:none; stroke:#55a; stroke-width:2px;"/><path id="uuid-f1a46cd7-2a14-4bbf-b000-d5e11532a77e" d="m59.5,29.5h270v360h0" style="fill:none; stroke:#55a; stroke-width:2px;"/><path id="uuid-9b089206-2abc-499f-baa1-7df42b74565e" d="m157.87,262.43l13.63.57.5-10.75,15.75-.25v10.75l13.58.22.04,13.71-13.38-.18-.25,10.75-16.09-.28-.05-10.51-13.36.04-.38-14.07Z" style="fill:#ff5;"/><rect id="uuid-539f0480-8a9d-44e7-9408-7cb771dc5a76" x="173.98" y="264.96" width="11.92" height="9.39" style="fill:#010000;"/><path id="uuid-e2dda10f-64d5-4e7c-9d3c-7332d8b0f886" d="m89.5,44.5s6,15,13,25,17,20,17,20c0,0-10,10-17,20s-13,25-13,25c0,0-6-15-13-25s-17-20-17-20c0,0,10-10,17-20s13-25,13-25" style="fill:#f55;"/><path id="uuid-b02d9cef-087d-44a2-a001-30fca9b11e38" d="m29.5,89.5s3,7.5,6.5,12.5,8.5,10,8.5,10c0,0-5,5-8.5,10s-6.5,12.5-6.5,12.5c0,0-3-7.5-6.5-12.5s-8.5-10-8.5-10c0,0,5-5,8.5-10s6.5-12.5,6.5-12.5" style="fill:#f55;"/><path id="uuid-293e86c5-2107-49dd-ba13-2580e4939f86" d="m269.5,494.5s-6-15-13-25-17-20-17-20c0,0,10-10,17-20s13-25,13-25c0,0,6,15,13,25s17,20,17,20c0,0-10,10-17,20s-13,25-13,25" style="fill:#f55;"/><path id="uuid-414a84c7-e442-4236-98ad-0356ac5d8454" d="m329.5,449.5s-3-7.5-6.5-12.5-8.5-10-8.5-10c0,0,5-5,8.5-10s6.5-12.5,6.5-12.5c0,0,3,7.5,6.5,12.5s8.5,10,8.5,10c0,0-5,5-8.5,10s-6.5,12.5-6.5,12.5" style="fill:#f55;"/></g></svg>