<?xml version="1.0" encoding="UTF-8"?><svg id="uuid-317373bc-732f-494b-b7d8-b51b14a80058" xmlns="http://www.w3.org/2000/svg" viewBox="0 0 359 539"><g id="uuid-5ed58b02-6bd7-45a4-8d40-4a132e7d890b"><path id="uuid-11396e17-7683-43ce-ad8a-4d9b32dc0f1f" d="m101.68,277.16l13.27-15.78,142.77-.19-13.31,16.1-142.74-.13Z"/><path id="uuid-94bc36c2-8324-488e-a87d-2becde942c22" d="m29.5,29.5c-5.52,0-10,4.48-10,10v30c0,5.52,4.48,10,10,10,.43,0,.86-.04,1.28-.09,1.71,3.05,4.97,5.09,8.72,5.09v-5c-1.64,0-3.09-.81-4-2.03,2.42-1.82,4-4.7,4-7.97v-30c0-5.52-4.48-10-10-10h0Zm0,5c2.76,0,5,2.24,5,5v30c0,.72-.17,1.38-.44,2-1.27-4.06-5.09-7-9.56-7v-25c0-2.76,2.24-5,5-5Zm-5,35c2.76,0,5,2.24,5,5-2.76,0-5-2.24-5-5Z"/><path id="uuid-36dc860f-59cb-4cac-bf90-cedab198d0ed" d="m329.5,509.5c5.52,0,10-4.48,10-10v-30c0-5.52-4.48-10-10-10-.43,0-.86.04-1.28.09-1.71-3.05-4.97-5.09-8.72-5.09v5c1.64,0,3.09.81,4,2.03-2.42,1.82-4,4.7-4,7.97v30c0,5.52,4.48,10,10,10h0Zm0-5c-2.76,0-5-2.24-5-5v-30c0-.72.17-1.38.44-2,1.27,4.06,5.09,7,9.56,7v25c0,2.76-2.24,5-5,5Zm5-35c-2.76,0-5-2.24-5-5,2.76,0,5,2.24,5,5Z"/><g id="uuid-10adf12a-e557-414a-a318-8d09a10c0a7e"><path id="uuid-098d976c-9a9c-4ed4-b4eb-afeac7d3ab25" d="m286.75,157l-22,75.5.25,8.5-2.5,8.25-4.5,4.75-4.5,1.5,7.75,1,15.75-21,51.75,35.75.5-81-42.5-33.25Z" style="fill:#f55;"/><path id="uuid-7e49b372-8e41-456a-839c-27797e683cbc" d="m29.5,192.5v77.5l2.38-1.25,15.88-28.25-10.75-12.5,10.25-8.25-14.38-24.62-3.38-2.62Z" style="fill:#f55;"/><path id="uuid-66204c2a-376f-472a-a161-877e3284b3b8" d="m133.38,186.88l-34.38,30.38-8.12-3.25-7.25-.5-8.75,2.88-1.38-3.5-3.12-1.25-3.75,1.75-7.12-6.62,54.25-38.62,8.88,8.25,10.75,10.5Z" style="fill:#5455aa; stroke:#55a; stroke-linecap:round; stroke-linejoin:round; stroke-width:2px;"/><path id="uuid-125736bb-f281-4fe6-86c2-9f018a027df5" d="m215.14,255.7l34.23-.46-6.42-6.57-2.14-9.16-101.48-91.71-19.41,16.66,15.44,12.38,11.16,12.68,6.11,10.24,1.22,13.45,15.59-.31,45.7,42.79Z" style="fill:#f55;"/><path id="uuid-0d2ce11f-abeb-423b-91a6-2c95890b9b91" d="m290.5,160l38.75,30.25" style="fill:none; stroke:#55a; stroke-linecap:round; stroke-linejoin:round; stroke-width:2px;"/><path id="uuid-c7abc449-5335-4c2a-b3be-dfbc886dceae" d="m130.5,29.5c3.32,8.88,5.67,18.12,7,27.5,1.01,7.12,1.42,14.33,1,21.5-.5,8.51-2.19,16.95-5,25,4.04.62,8.05,1.46,12,2.5,3.72.98,7.39,2.15,11,3.5l45.5-80h-71.5" style="fill:#ff5; stroke:#55a; stroke-linecap:round; stroke-linejoin:round; stroke-width:2px;"/><path id="uuid-092d8493-5812-4129-84a0-864ee5bbfed1" d="m157,109.5l8,6,49.5-86h-12.5l-45,80" style="fill:#f55; stroke:#55a; stroke-linecap:round; stroke-linejoin:round; stroke-width:2px;"/><path id="uuid-cb90e9b7-04c9-4b76-915b-b41949c95d6d" d="m189.25,29.5s4,5.92.75,11c-1.82,2.84-9.5,3.5-9.5,3.5,0,0,3.08,9.22.5,12.5-2.63,3.34-12.5,2.5-12.5,2.5,0,0,5.15,10.99,2.5,15.5-3.84,6.55-10.67,4.34-10.67,4.34,0,0,4.07,7.88-1.33,14.16-2.8,3.26-12.75,2-12.75,2,3.61,4.28,3.45,5.49,4,7.75s.41,3,.41,3" style="fill:none; stroke:#000100; stroke-linecap:round; stroke-linejoin:round; stroke-width:2px;"/><path id="uuid-2bf11c0e-920f-4ba8-99de-5b0625338ddc" d="m159.39,82.66c-.34,1.16-.74,2.33-1.39,3.34-.86,1.34-1.8,2.83-3.25,3.5-1.82.84-4.34,1.36-6,.25-1.62-1.09-2.32-3.58-2-5.5.37-2.22,4.25-5.25,4.25-5.25,0,0-5.38-1.1-6.5-3.25-1.05-2.02-.41-4.97,1-6.75,1.39-1.76,4.1-3.16,6.25-2.5,2.41.74,4.25,6.25,4.25,6.25,0,0,.55-4.3,1.75-6,1.07-1.51,2.66-3.06,4.5-3.25,1.63-.17,3.61.62,4.5,2,1.41,2.17,1.17,5.45,0,7.75-1.18,2.31-6.29,4.56-6.29,4.56,0,0,1.14-3.19-1.51-4.61-2.12-1.14-5.55.97-6.47,3.19-.78,1.88.02,5.2,1.97,5.78,3.9,1.15,5.48-2.63,5.48-2.63,0,0-.24,2.11-.54,3.13Z" style="stroke:#000100; stroke-linecap:round; stroke-linejoin:round; stroke-width:2px;"/><path id="uuid-2bf437f0-9763-4340-95d4-3d867fe06be8" d="m178.89,47.78c-.34,1.16-.74,2.33-1.39,3.34-.86,1.34-1.8,2.83-3.25,3.5-1.82.84-4.34,1.36-6,.25-1.62-1.09-2.32-3.58-2-5.5.37-2.22,4.25-5.25,4.25-5.25,0,0-5.38-1.1-6.5-3.25-1.05-2.02-.41-4.97,1-6.75,1.39-1.76,4.1-3.16,6.25-2.5,2.41.74,4.25,6.25,4.25,6.25,0,0,.55-4.3,1.75-6,2.23-3.06,6.88-2.57,9-1.25,1.41,2.17,1.17,5.45,0,7.75-1.18,2.31-6.29,4.56-6.29,4.56,0,0,1.14-3.19-1.51-4.61-2.12-1.14-5.55.97-6.47,3.19-.78,1.88.02,5.2,1.97,5.78,3.9,1.15,5.48-2.63,5.48-2.63,0,0-.24,2.11-.54,3.13Z" style="stroke:#000100; stroke-linecap:round; stroke-linejoin:round; stroke-width:2px;"/><g id="uuid-2789dcb9-23c0-4d3f-9621-7053290de27d"><g id="uuid-250ca4c1-1f07-469a-8bd7-afe344c48c36"><path id="uuid-da26e96b-6300-49e7-a40b-5664be128b52" d="m185.35,115.15c.52,4.58,1.65,9.67,2.84,12.92" style="fill:none; stroke:#55a; stroke-linecap:round; stroke-linejoin:round; stroke-width:2px;"/><path id="uuid-e82f33c1-9e35-4374-9ed5-17abdc56cf34" d="m189.57,108.96c.79,8.12,3.1,14.76,4.71,20.64" style="fill:none; stroke:#55a; stroke-linecap:round; stroke-linejoin:round; stroke-width:2px;"/><path id="uuid-79244c6e-a396-4fcb-9f60-33249b272fb7" d="m194.08,101.35c1.4,9.7,3.02,20.48,6.38,29.53" style="fill:none; stroke:#55a; stroke-linecap:round; stroke-linejoin:round; stroke-width:2px;"/><path id="uuid-b46e4a05-f0d8-4bed-82eb-e34f4df18b17" d="m201.88,112.79c.59,7.25,3.05,13.73,4.23,19.2" style="fill:none; stroke:#55a; stroke-linecap:round; stroke-linejoin:round; stroke-width:2px;"/><path id="uuid-921986c5-f4b4-4b56-a6f4-6563e1501d38" d="m208.15,120.19c1.04,6.69,2.46,9.39,3.25,12.61" style="fill:none; stroke:#55a; stroke-linecap:round; stroke-linejoin:round; stroke-width:2px;"/><path id="uuid-b17b2537-fb9c-4743-9684-a1f71af2f134" d="m214.8,126.25c.75,2.67,1.62,4.75,2.37,6.76" style="fill:none; stroke:#55a; stroke-linecap:round; stroke-linejoin:round; stroke-width:2px;"/></g><g id="uuid-3cb81dab-3e43-47ed-8bfa-517486453b72"><path id="uuid-efb6e206-f735-4bb2-9f7f-c8ae5dce6559" d="m250,29.5s.98,12.88,7.75,19.75c6.77,6.87,15.25,10.25,15.25,10.25" style="fill:none; stroke:#55a; stroke-linecap:round; stroke-linejoin:round; stroke-width:2px;"/><path id="uuid-85421351-e1ca-4775-9178-30398ac2d02d" d="m254.12,29.5s1.27,10.77,6.64,16.78,12.11,8.22,12.11,8.22" style="fill:none; stroke:#55a; stroke-linecap:round; stroke-linejoin:round; stroke-width:2px;"/><path id="uuid-e625fd38-0cf2-426c-a730-1935b403b836" d="m257.62,29.5s1.56,7.84,5.54,12.42c3.98,4.58,9.96,7.58,9.96,7.58" style="fill:none; stroke:#55a; stroke-linecap:round; stroke-linejoin:round; stroke-width:2px;"/><path id="uuid-f4115251-5b78-4764-a675-8c293bc0e021" d="m262.12,29.5s1.06,5.4,4.27,8.95,6.73,5.3,6.73,5.3" style="fill:none; stroke:#55a; stroke-linecap:round; stroke-linejoin:round; stroke-width:2px;"/><path id="uuid-2531a86d-97d4-4254-8a56-309d7a478a7d" d="m266.5,29.5s.62,4.08,2.51,6.25,4.24,3.25,4.24,3.25" style="fill:none; stroke:#55a; stroke-linecap:round; stroke-linejoin:round; stroke-width:2px;"/></g><g id="uuid-27a6f04c-b799-463b-b72a-93e19cc5b42c"><path id="uuid-e0e4f0c6-65c2-4a62-948b-5037889eadcc" d="m249.25,30.75s-.48,9.88-8.5,18.75c-8.02,8.87-22,8-22,8" style="fill:none; stroke:#55a; stroke-linecap:round; stroke-linejoin:round; stroke-width:2px;"/><path id="uuid-b15ff36e-7ab4-4f27-9df5-4d75cbfaa878" d="m245.88,30.25s-1.27,8.52-8.39,16.03c-7.12,7.51-15.86,6.47-15.86,6.47" style="fill:none; stroke:#55a; stroke-linecap:round; stroke-linejoin:round; stroke-width:2px;"/><path id="uuid-faea977f-bcc0-4768-9761-cab21ed03252" d="m241.12,30.25s-1.56,7.84-5.54,12.42c-3.98,4.58-11.71,5.08-11.71,5.08" style="fill:none; stroke:#55a; stroke-linecap:round; stroke-linejoin:round; stroke-width:2px;"/><path id="uuid-603fed66-c61b-412b-94dd-a89ef905efab" d="m236.62,30.25s-1.06,5.4-4.27,8.95-5.23,3.05-5.23,3.05" style="fill:none; stroke:#55a; stroke-linecap:round; stroke-linejoin:round; stroke-width:2px;"/></g><path id="uuid-56068c6b-e6e9-4eb2-a1f7-a64521bf5f1c" d="m274.05,66.44s6.14,18.82,8.45,28.44c2.67,11.14,4.95,22.41,6.19,33.79,1.11,10.18,1.13,30.69,1.13,30.69l-32.1-26.75s8.9-12.18,11.55-19.15c2-5.27,2.33-11.03,3.1-16.61.72-5.23,1.12-10.5,1.41-15.77.26-4.87.28-14.64.28-14.64Z" style="fill:#55a; stroke:#55a; stroke-linecap:round; stroke-linejoin:round; stroke-width:2px;"/><g id="uuid-38ed5ba0-b14d-4a74-a382-f87ee1ee2fb9"><path id="uuid-0c9a56ae-e1ad-4349-a538-ec4f0ba16b7c" d="m252.93,75.73s-.22,5.08,0,7.6c.24,2.66.79,5.29,1.41,7.88.68,2.86,2.4,5.51,2.53,8.45.08,1.67,0,3.57-.99,4.93-.85,1.17-2.75,1.12-3.8,2.11-.89.84-1.97,3.1-1.97,3.1" style="fill:none; stroke:#55a; stroke-linecap:round; stroke-linejoin:round; stroke-width:2px;"/><path id="uuid-433ed436-7b9c-4a37-95dc-61d575d22f10" d="m237.72,98.82s-3.46,4.06-2.96,6.34c.32,1.43,1.95,2.5,3.38,2.82,1.57.34,3.17-.64,4.65-1.27,1.71-.72,3-3.29,4.79-2.82.73.19,1.44,1.28,1.13,1.97-.84,1.82-3.92.94-5.91,1.13-2.43.23-5.47,1.59-7.32,0-.94-.8-.81-2.45-.56-3.66.36-1.73,2.82-4.51,2.82-4.51Z" style="fill:#55a; stroke:#55a; stroke-linecap:round; stroke-linejoin:round; stroke-width:2px;"/></g><g id="uuid-fff77c19-040d-41f4-a3cf-4b59b9ec696c"><path id="uuid-1e1fa212-804c-4a80-951b-d29e0ac65136" d="m216.88,66.72s6.27-3.17,9.79-3.78c3.37-.58,7.05-.68,10.32.22,2.35.65,6.08,3.56,6.08,3.56,0,0-5.22-1.93-7.95-2.34-3.4-.51-6.9-.6-10.3-.1-2.74.4-7.94,2.45-7.94,2.45h0Z" style="fill:#55a; stroke:#55a; stroke-linecap:round; stroke-linejoin:round; stroke-width:2px;"/><path id="uuid-a2d0b70b-76cc-45fd-90d1-1490b32c5c22" d="m237.44,73.76l2.82-2.25s-4.45-1.55-6.76-1.97c-2.5-.45-5.11-1.08-7.6-.56-2.38.49-4.48,1.98-6.48,3.38-2.61,1.83-7.04,6.48-7.04,6.48" style="fill:none; stroke:#55a; stroke-linecap:round; stroke-linejoin:round; stroke-width:2px;"/><path id="uuid-c03f90a6-15d6-46ce-8b83-b5309741b43c" d="m215.48,78.83s6.78-3.32,10.42-4.22c2.24-.56,4.59-.62,6.9-.7,1.41-.05,4.22.14,4.22.14l2.96,5.07-4.79,2.25,4.39-.73c-1.52,4.47-6.72,7.33-9.46,9.18" style="fill:none; stroke:#55a; stroke-linecap:round; stroke-linejoin:round; stroke-width:2px;"/><path id="uuid-7d69cae1-de91-4bb3-aa10-131cbe84f75d" d="m234.06,75.02s2.02,3.4,0,6.34c-1.17,1.7-4.35,1.21-6.19.28-3.2-1.61-6.48-2.9-8.45-4.08l5.91-1.41c-1.06,1.73.24,3.53,1.41,4.65,1.4,1.33,3.84,2.14,5.63,1.41,1.83-.75,3.28-3.79,3.1-5.07-.12-.84-1.41-2.11-1.41-2.11h0Z" style="fill:none; stroke:#55a; stroke-linecap:round; stroke-linejoin:round; stroke-width:2px;"/><path id="uuid-a191512a-5afe-47c2-b2f8-21220ba311be" d="m230.68,76.57c-.82-.28-2.1.83-1.97,1.69.13.91,1.81,1.7,2.53,1.13.75-.6.34-2.5-.56-2.82Z" style="fill:none; stroke:#55a; stroke-linecap:round; stroke-linejoin:round; stroke-width:2px;"/></g><g id="uuid-7d97e621-4a6d-45c1-a403-4530a4f43b62"><path id="uuid-f1c1f46e-8cdc-4f0b-a945-c6a810846287" d="m271.55,64.95s-5.79-2.06-8.6-1.34c-3.41.88-8.33,6.48-8.33,6.48,0,0,5.3-4.64,8.61-5.18,2.89-.47,8.57,1.9,8.57,1.9l-.25-1.87Z" style="fill:#55a; stroke:#55a; stroke-linecap:round; stroke-linejoin:round; stroke-width:2px;"/><path id="uuid-36a93a1f-3834-4103-a0e3-30003d0a2fbb" d="m252.79,74.74s4.01-4.06,6.62-4.93c2.85-.94,6.21-1.1,9.01,0,1.67.66,3.94,3.66,3.94,3.66" style="fill:none; stroke:#55a; stroke-linecap:round; stroke-linejoin:round; stroke-width:2px;"/><path id="uuid-8c20006a-d70f-4a71-ada6-2e6eae36a839" d="m254.33,76.57s4.96-2.09,7.6-2.25c2.28-.14,4.56.51,6.76,1.13,1.46.41,4.22,1.69,4.22,1.69,0,0-2.62,2.55-4.22,3.38-2.08,1.08-4.41,2.02-6.76,1.97-1.19-.02-3.38-1.13-3.38-1.13l-3.66-1.44c.99,2.06,2.73,5.79,4.08,6.93" style="fill:none; stroke:#55a; stroke-linecap:round; stroke-linejoin:round; stroke-width:2px;"/><path id="uuid-2cff368b-d841-4d28-91c3-93038030e1c7" d="m258.28,76.01c-1.48,3.08.1,3.09.28,4.51l1.13,1.13" style="fill:none; stroke:#55a; stroke-linecap:round; stroke-linejoin:round; stroke-width:2px;"/><path id="uuid-f67caf16-e94d-41a3-bb89-3f3f86d761c7" d="m263.06,76.85c-.66.49-1.07,1.75-.56,2.39.58.74,2.15.66,2.82,0,.53-.53.51-1.71,0-2.25-.52-.55-1.65-.59-2.25-.14Z" style="fill:none; stroke:#55a; stroke-linecap:round; stroke-linejoin:round; stroke-width:2px;"/></g><g id="uuid-e3561f00-8c8b-4a9d-81ad-8153364c81ae"><path id="uuid-8881f1da-b573-48a9-b16a-71024b837148" d="m234.91,120.07s4.8-2.01,7.46-1.99c2.02.01,3.61,1.55,5.63,1.59,2.82.06,5.35-2.52,8.03-1.89,1.09.25,1.97,1.99,1.97,1.99,0,0-1.9-.81-2.96-.8-2.5.04-4.4,1.95-6.9,2.09-2.51.14-4.82-1.14-7.32-1.29-1.97-.12-5.91.3-5.91.3h0Z" style="fill:#55a; stroke:#55a; stroke-linecap:round; stroke-linejoin:round; stroke-width:2px;"/><path id="uuid-43509efa-564d-445b-a9ee-30d09f7315bd" d="m241.95,127.26s3.1-1.66,4.79-1.69c1.91-.04,5.49,1.69,5.49,1.69" style="fill:none; stroke:#55a; stroke-linecap:round; stroke-linejoin:round; stroke-width:2px;"/><path id="uuid-c0f3dbaa-cf24-40f7-bc49-9eec18ed1cdc" d="m241.24,123.46s4.08,1.36,6.19,1.41c1.81.04,5.35-.99,5.35-.99" style="fill:none; stroke:#55a; stroke-linecap:round; stroke-linejoin:round; stroke-width:2px;"/></g><path id="uuid-eb770283-fee5-4791-bd7d-fcef1d0fc7cd" d="m273.75,30.25s-.08,23.67-.5,35.5c-.47,13.1.48,26.43-2.25,39.25-1.22,5.75-3.72,11.19-6.25,16.5-1.99,4.18-3.53,8.93-7,12-2.85,2.52-6.73,3.99-10.5,4.5-4.25.57-8.65-.49-12.75-1.75-5.77-1.77-11.23-4.64-16.25-8-4.71-3.15-9.07-6.94-12.75-11.25-2.82-3.3-5.25-7.02-7-11-1.29-2.92-2.5-9.25-2.5-9.25" style="fill:none; stroke:#55a; stroke-linecap:round; stroke-linejoin:round; stroke-width:2px;"/></g><path id="uuid-4b034a37-6551-4db1-b552-7b2652ed557d" d="m301.5,90.75l9.75-16.25,8.75,16.25-9.5,15.75-9-15.75Z" style="fill:#ff5; stroke:#000; stroke-linecap:round; stroke-linejoin:round; stroke-width:2px;"/><path id="uuid-2c7b900a-65ad-4dfb-9c2b-f9c93d93bbbb" d="m306.75,90.25l4-7,3.75,6.75-3.75,7.5-4-7.25Z" style="fill:#f55; stroke:#000; stroke-linecap:round; stroke-linejoin:round; stroke-width:2px;"/><path id="uuid-c41712b4-90c7-45e0-a697-51faffc934b9" d="m309.75,109.38c0,3.11-2.41,5.62-5.38,5.62s-5.38-2.52-5.38-5.62,2.41-5.62,5.38-5.62,5.38,2.52,5.38,5.62Z" style="fill:#ff5; stroke:#000; stroke-linecap:round; stroke-linejoin:round; stroke-width:2px;"/><path id="uuid-7c1768c6-8c83-41ed-aa61-221243bb8736" d="m321.25,108.88c0,3.24-2.46,5.88-5.5,5.88s-5.5-2.63-5.5-5.88,2.46-5.88,5.5-5.88,5.5,2.63,5.5,5.88Z" style="fill:#ff5; stroke:#000; stroke-linecap:round; stroke-linejoin:round; stroke-width:2px;"/><path id="uuid-6b3fcc24-75cb-49b2-8f43-bfd92c1f9b7c" d="m319.25,192.75c0,4.56-4.03,8.25-9,8.25s-9-3.69-9-8.25,4.03-8.25,9-8.25,9,3.69,9,8.25Z" style="fill:#ff5; stroke:#000; stroke-linecap:round; stroke-linejoin:round; stroke-width:2px;"/><path id="uuid-f0f4d498-c964-4a9e-99b6-2ae008994547" d="m310,184.5c-3.85-1.01-7.28-4.41-8.76-8.11-1.72-4.32.41-9.3.9-13.92,1.1-10.33,3.1-20.54,4.57-30.82.96-6.71,2.06-16.49,2.79-20.15,1.89-.53,2.13.83,2.07,2.51,1.9,15.05,4.1,30.06,5.7,45.14.52,4.89,2.06,9.84,1.27,14.69-.57,3.46-1.51,7.39-4.19,9.64-1.14.96-2.91,1.41-4.35,1.03h0Z" style="fill:#ff5; stroke:#000; stroke-linecap:round; stroke-linejoin:round; stroke-width:2px;"/><path id="uuid-f2af5b53-339f-4fca-8015-ee155344bb8d" d="m310.75,131.25s1.54,16.68,2.5,25c.52,4.51,1.71,8.96,1.75,13.5.02,2.26.23,4.71-.75,6.75-.71,1.49-3.5,3.5-3.5,3.5" style="fill:none; stroke:#000; stroke-linecap:round; stroke-linejoin:round; stroke-width:2px;"/><path id="uuid-f4c0a77a-bd9b-467f-b48d-13b2a62a3fe7" d="m311.75,188.25c1.47,1.53,3.06,3.58,2.82,5.68-.17,1.41-1.41,2.72-2.72,3.28-.87.37-1.9-.11-2.84-.21" style="fill:none; stroke:#000; stroke-linecap:round; stroke-linejoin:round; stroke-width:2px;"/><path id="uuid-081517f3-c91b-41df-8871-f32687cb9885" d="m305.75,255.25s-2.1-17.81-2.75-26.75c-.43-5.99-1.68-12.07-.75-18,.41-2.63.78-5.71,2.75-7.5,1.47-1.33,3.77-1.51,5.75-1.5,1.9.01,4.15.16,5.5,1.5,2.4,2.38,2.43,6.39,2.75,9.75.54,5.75-.82,11.52-1.5,17.25-.79,6.69-2.07,13.32-3,20-.45,3.25-1.25,9.75-1.25,9.75l-7.5-4.5Z" style="fill:#ff5; stroke:#000; stroke-linecap:round; stroke-linejoin:round; stroke-width:2px;"/><path id="uuid-1b06dde6-f099-49fc-be9c-09e26ad777e1" d="m310.75,206s3.07,2.12,3.75,3.75c1.12,2.69.11,5.84,0,8.75-.21,5.68-.69,11.35-1.25,17-.73,7.35-2.75,22-2.75,22" style="fill:none; stroke:#000; stroke-linecap:round; stroke-linejoin:round; stroke-width:2px;"/><path id="uuid-7bf36bd2-1f65-4e98-adcc-f53cd3da4a2a" d="m179.25,126l-9,15.75,78.25,72.75,16.75-63,9.41-2.84-17.5-15.34s-5.18,3.51-8.16,4.19c-3.41.78-7.03.23-10.5-.25-3.66-.51-10.75-2.75-10.75-2.75,0,0-13.89-.72-20.75-1.75-5.82-.87-11.54-2.32-17.25-3.75-3.53-.89-10.5-3-10.5-3Z" style="fill:#ff5; stroke:#000; stroke-linecap:round; stroke-linejoin:round; stroke-width:2px;"/><path id="uuid-da4a17b6-d6fc-4912-880d-d6c370e25a22" d="m176.75,131s12.91,4.02,19.5,5.5c5.36,1.21,10.8,2.07,16.25,2.75,6.14.77,12.32,1.3,18.5,1.5,4.75.15,9.52.18,14.25-.25,5.13-.46,15.25-2.5,15.25-2.5" style="fill:none; stroke:#000; stroke-linecap:round; stroke-linejoin:round; stroke-width:2px;"/><path id="uuid-da93bf12-d340-4559-9162-4f06c940922d" d="m176,146.75s12.74,3.73,19.25,5c6.19,1.21,12.47,1.93,18.75,2.5,4.99.46,9.99.76,15,.75,6.01-.02,12.02-.44,18-1,6.19-.58,18.5-2.43,18.5-2.43" style="fill:none; stroke:#000; stroke-linecap:round; stroke-linejoin:round; stroke-width:2px;"/><path id="uuid-0a83353c-4590-4de7-ae7a-353205e28874" d="m194.25,156.75s18.62,3.31,28.04,3.83c6.8.37,13.63,0,20.42-.54,5.21-.41,15.53-2.04,15.53-2.04l-12.25,48-51.75-49.25Z" style="fill:none; stroke:#000; stroke-linecap:round; stroke-linejoin:round; stroke-width:2px;"/><path id="uuid-30c74d74-6cca-4f5e-a8c0-65648e8b7205" d="m211.25,165s14.66,1.17,22,1c6.14-.14,18.36-1.68,18.36-1.68l-8.11,33.18-32.25-32.5Z" style="fill:none; stroke:#000; stroke-linecap:round; stroke-linejoin:round; stroke-width:2px;"/><path id="uuid-afee9cac-29b2-448d-9921-fb4fb9cc2502" d="m234.25,187.25l7.46,3.21,4.29-4.71" style="fill:none; stroke:#000; stroke-linecap:round; stroke-linejoin:round; stroke-width:2px;"/><path id="uuid-8a96bf27-6ef9-4cd6-8636-b4da7574d57e" d="m227.26,180.86c-.5-1,13.24,4.14,13.24,4.14l7.25-7" style="fill:none; stroke:#000; stroke-linecap:round; stroke-linejoin:round; stroke-width:2px;"/><path id="uuid-fb634beb-8b17-4878-89f0-1e7a950679ca" d="m219.33,172.54l19.17,7.46,11.36-9.82" style="fill:none; stroke:#000; stroke-linecap:round; stroke-linejoin:round; stroke-width:2px;"/><path id="uuid-aaacc819-014f-4358-8465-cc782cc3dae2" d="m215.9,165.47l21.6,9.53,11.18-9.96" style="fill:none; stroke:#000; stroke-linecap:round; stroke-linejoin:round; stroke-width:2px;"/><path id="uuid-b31d429a-02f9-41cb-94e8-a4d18e071bef" d="m228.11,166l7.89,4.25,5.25-4" style="fill:none; stroke:#000; stroke-linecap:round; stroke-linejoin:round; stroke-width:2px;"/><path id="uuid-cd161382-3aaf-4791-9892-6f9a1d92f66c" d="m217.75,145l6,.57v4.5l-6-.57v-4.5Z" style="fill:none; stroke:#000; stroke-linecap:round; stroke-linejoin:round; stroke-width:2px;"/><path id="uuid-b600009b-4b48-48db-b54a-1f513466ffc4" d="m174.49,135.19l4.19,1.79-1.91,4.08-4.44-2.54,2.16-3.33Z" style="fill:none; stroke:#000; stroke-linecap:round; stroke-linejoin:round; stroke-width:2px;"/><path id="uuid-2c076bf3-991c-40fb-a780-249b7f8e063c" d="m182.92,138.78l5.81,1.71-1.04,4.58-5.77-1.86,1-4.44Z" style="fill:none; stroke:#000; stroke-linecap:round; stroke-linejoin:round; stroke-width:2px;"/><path id="uuid-6dc17eb6-8137-433f-a7b2-611917980f90" d="m194.22,141.52l6.25,1.06-.47,4.48-6.11-1.06.33-4.48Z" style="fill:none; stroke:#000; stroke-linecap:round; stroke-linejoin:round; stroke-width:2px;"/><path id="uuid-78d55bd1-6210-4895-aac7-20045611e97a" d="m206.05,143.71l6.28.66-.17,4.5-6.14-.51.03-4.64Z" style="fill:none; stroke:#000; stroke-linecap:round; stroke-linejoin:round; stroke-width:2px;"/><path id="uuid-64a2b662-faf8-4f95-8c7e-53febf3e2bdc" d="m229.34,145.78l6,.23-.17,4.5-6-.23.17-4.5Z" style="fill:none; stroke:#000; stroke-linecap:round; stroke-linejoin:round; stroke-width:2px;"/><path id="uuid-94c3c5f6-eabb-4c3a-b4f2-8a3f5758a063" d="m240.79,145.57l5.66-.39.19,4.46-5.8.25-.04-4.32Z" style="fill:none; stroke:#000; stroke-linecap:round; stroke-linejoin:round; stroke-width:2px;"/><path id="uuid-3117fd24-3989-40de-b114-870592bdee71" d="m251.51,144.75l5.37-.82.61,4.6-5.37.82-.61-4.6Z" style="fill:none; stroke:#000; stroke-linecap:round; stroke-linejoin:round; stroke-width:2px;"/><path id="uuid-fe663dfd-8140-45ad-898c-747045347b90" d="m261.23,142.79l2.84-1.36,3.44,3.77-5.2,1.94-1.08-4.35Z" style="fill:none; stroke:#000; stroke-linecap:round; stroke-linejoin:round; stroke-width:2px;"/><path id="uuid-0e799eeb-a98e-4ab0-a3c0-a67a1c1d3786" d="m274.68,148.46l11.47,9.32-21.26,75.01s.48,6.61-.24,9.79c-.69,3.06-1.67,6.32-3.82,8.6-2.03,2.15-4.93,4.13-7.88,4.06-2.57-.06-4.88-2-6.69-3.82-1.61-1.62-2.63-3.8-3.34-5.97-.6-1.83-.72-5.73-.72-5.73l-102.96-93.16s9.33-8.21,13.38-12.9c4.66-5.41,8.96-11.2,12.42-17.44,17.28-31.1,49.93-86.47,49.93-86.47l17.68.24s-9.36,18.42-14.33,27.47c-7.05,12.82-14.7,25.29-21.98,37.98-5.61,9.77-11.17,19.58-16.72,29.38-3.2,5.65-9.56,16.96-9.56,16.96l78.11,72.62,17.68-62.35,8.84-3.58Z" style="stroke:#55a; stroke-linecap:round; stroke-linejoin:round; stroke-width:2px;"/><path id="uuid-5c1e4245-ad57-4f2d-8587-930a122e2c5a" d="m139.21,146.42l-18.71,16.58-7.5,5.5-38.65,27.76-8.12,6.12-7.5,5-28.74-14.38" style="fill:none; stroke:#55a; stroke-linecap:round; stroke-linejoin:round; stroke-width:2px;"/><path id="uuid-ef2a9d0f-4963-421c-93af-33ef56be538c" d="m57.9,207.1c3.23,2.02,9.1,6.9,9.1,6.9,0,0,1.44-1.89,2.5-2,1.85-.2,4.35.75,5,2.5.76,2.03-1.71,3.98-2.5,6-.86,2.2-1.98,4.33-2.44,6.65-.72,3.63-.88,7.41-.47,11.09.41,3.7,2.83,7.05,2.91,10.77.03,1.54.26,3.63-1,4.5-1.94,1.34-7-1-7-1l-26.5,12.5c9.14,5.57,14.78,10.24,22.5,14.79,7.22,4.56,20,14.21,20,14.21,0,0,6.72-8.29,10-12.5,5.42-6.94,10.21-14.37,16-21,4.03-4.61,8.45-8.9,13-13,5.1-4.6,11.63-7.69,16-13,3.84-4.66,6.86-10.19,8.5-16,1.45-5.14,2.41-10.84,1-16-1.64-6.02-6.4-10.79-10.5-15.5-6.06-6.96-20.56-18.53-20.56-18.53l5.5-4s13.42,9.94,19.06,16.03c5.44,5.87,11.55,11.88,14,19.5,1.87,5.81,1.17,12.33,0,18.32-1.19,6.07-3.44,12.12-7,17.18-3.74,5.31-9.39,8.99-14.5,13-3.02,2.37-6.58,4.01-9.5,6.5-5.91,5.06-11.07,10.98-16,17-4.92,6.01-9.21,12.52-13.5,19-2.81,4.24-8,13-8,13l-52-35,16-28-11-13,10.5-8-15-26s17.7,7.97,25.9,13.1Z" style="fill:#ff5; stroke:#55a; stroke-linecap:round; stroke-linejoin:round; stroke-width:2px;"/><path id="uuid-66006df6-5c5c-4bf7-bbea-5cca6d35dba1" d="m66.5,214.5s-2.62,6.46-3.32,9.85c-1.06,5.1-1.61,10.38-1.29,15.59.26,4.27,2.62,12.56,2.62,12.56" style="fill:none; stroke:#55a; stroke-linecap:round; stroke-linejoin:round; stroke-width:2px;"/><path id="uuid-4816d7af-2014-4a3c-be4d-704c1c267902" d="m76.72,210.49c-2.69.15-5.65.23-8.01-1.08-3.06-1.7-4.62-5.27-6.68-8.11,0,0,5.97-.61,8.81.15,2.43.66,4.49,2.32,6.6,3.7,1.79,1.17,5.1,3.87,5.1,3.87,0,0-3.82,1.35-5.82,1.47Z" style="fill:#ff5; stroke:#55a; stroke-linecap:round; stroke-linejoin:round; stroke-width:2px;"/><path id="uuid-a40eda17-b466-43cf-aa55-92734edaeb1c" d="m64.5,188s1.4,4,2.8,5.51c2.17,2.35,5.4,3.44,8.2,4.99,3.59,1.98,8.01,2.7,11,5.5,3.04,2.85,6.3,10.79,6.3,10.79-3.03-.56-5.17-2.26-8.2-1.99,0,0-2.52-4.64-4.5-6.3-2.38-1.99-5.6-2.66-8.4-4-2.57-1.23-5.45-1.95-7.7-3.7-1.64-1.28-3.14-2.9-3.99-4.8-.9-2-1-6.5-1-6.5l5.5.5Z" style="fill:#ff5; stroke:#55a; stroke-linecap:round; stroke-linejoin:round; stroke-width:2px;"/><path id="uuid-f75988d4-dd32-460d-a5da-3e420bb9036b" d="m53.35,205.17l9.15,17.84-6.54,7.25,5.54,10.24-8.1,16.2-8.79,3.7,10.2-19.39-6.3-11.5,7.3-7.7-10.93-20.5,8.48,3.87Z"/><path id="uuid-6cc4e194-d4b4-4bb1-9b89-d5980dd5224c" d="m56.88,168.35s-3.98-5.45-3.38-8.42c.5-2.45,2.89-4.63,5.3-5.31,1.88-.53,4.23.08,5.7,1.37,1.75,1.53,2.52,4.18,2.5,6.5-.01,1.8-2,5-2,5,0,0,4.04-3.54,6.5-3.5,2.32.04,4.85,1.49,6,3.5,1.08,1.88.63,4.43,0,6.5-.52,1.73-1.33,3.83-3,4.5-2.94,1.18-9.28-2.06-9.28-2.06,0,0,2.7,5.95,1.59,8.66-.77,1.88-2.97,3.48-5,3.5-3,.03-6.31-2.24-7.5-5-.95-2.2,1.2-7.1,1.2-7.1,0,0-5.08,2.3-7.5,1.5-2.13-.71-4.36-2.76-4.5-5-.17-2.86,2.24-6.09,4.94-7.05,2.76-.98,8.44,2.4,8.44,2.4h0Z" style="fill:#ff5; stroke:#55a; stroke-linecap:round; stroke-linejoin:round; stroke-width:2px;"/><path id="uuid-c4fe66bf-25b9-457a-99ee-68604cd9fca8" d="m52.5,172c3.29-2.16,6.72-3.99,9-8.5,2.26,4.68,4.9,6.67,7.5,9-2.61,1.28-5.21,2.62-8,8.5-1.96-3.26-3.22-6.73-8.5-9Z" style="fill:none; stroke:#55a; stroke-linecap:round; stroke-linejoin:round; stroke-width:2px;"/><path id="uuid-43cc1016-cb3e-4625-9f22-4f0403bee161" d="m54.81,166.81l-7.95-3.34-1.62-7.21,6.97,2.56,2.6,7.98Z" style="fill:#f55; stroke:#55a; stroke-linecap:round; stroke-linejoin:round; stroke-width:2px;"/><path id="uuid-69a734d5-0151-410e-a79d-a5035b5f322e" d="m66.5,165.5l1.98-7.72,7.52-3.28-2.5,8.5-7,2.5Z" style="fill:#f55; stroke:#55a; stroke-linecap:round; stroke-linejoin:round; stroke-width:2px;"/><path id="uuid-98d98a87-ab08-4da6-9a73-8f206efadec5" d="m66.27,176.86l1.23,7.14,8,4-1.5-8.5-7.73-2.64Z" style="fill:#f55; stroke:#55a; stroke-linecap:round; stroke-linejoin:round; stroke-width:2px;"/><path id="uuid-717a99ec-f62f-46ee-9db7-1aa22703ee14" d="m55.55,176.24l-8.35,3.27-1.61,7.7,7.91-3.21,2.05-7.76Z" style="fill:#f55; stroke:#55a; stroke-linecap:round; stroke-linejoin:round; stroke-width:2px;"/><path id="uuid-c3478e9f-1669-4ab6-abeb-ac2e7e7b2eb7" d="m74.12,216.68c3.74-1.5,7.63-3.43,11.66-3.27,5.19.2,10.14,2.76,14.63,5.36,1.97,1.14,5.05,2.12,5.23,4.39.16,1.96-1.97,3.91-3.86,4.47-2.47.73-4.91-1.64-7.43-2.17-2.42-.51-9.34-1.12-7.35-.96,4.73.38,9.74,1.18,13.7,3.78,1.6,1.05,3.69,2.57,3.59,4.48-.08,1.71-1.93,3.25-3.59,3.67-3.34.84-6.44-2.64-9.85-3.1-1.6-.22-6.5.16-4.85.17,4.09.02,8.52.73,11.89,3.05,1.45.99,3.57,2.62,3.05,4.3-.63,2.05-3.9,1.99-6.03,2.25-4.8.6-10.59-1.91-14.42-1.6,4.77.19,6.96.22,10.02,1.65,1.66.78,4.39,1.77,4.17,3.59-.24,1.96-3.35,2.3-5.29,2.67-2.93.57-5.95-1-8.93-.74-2.39.21-4.69,1.09-6.97,1.83" style="fill:none; stroke:#55a; stroke-linecap:round; stroke-linejoin:round; stroke-width:2px;"/><path id="uuid-c2c8808d-521b-4799-ad2b-05836079cdc5" d="m93.5,214c-1.82-3.29-2.68-7.24-2.5-11,.16-3.16,2.21-5.94,3-9,.68-2.63,1.5-8,1.5-8,0,0,4.15,6.72,5,10.5.7,3.09.54,6.38,0,9.5-.42,2.44-1.46,4.75-2.5,7-.56,1.22-2,3.5-2,3.5,0,0-1.93-1.47-2.5-2.5Z" style="fill:#ff5; stroke:#55a; stroke-linecap:round; stroke-linejoin:round; stroke-width:2px;"/><g id="uuid-a9c11eec-2f1f-42f1-a18d-793435684351"><path id="uuid-6ffadcca-7a62-4b44-923c-ec88c49218d1" d="m122.25,203.5l13.5-5.75-5.25,15.25s.05-3.47-1.19-4.28c-1.07-.7-3.81.53-3.81.53,0,0,1.73-3.44.84-4.79-.77-1.17-4.09-.96-4.09-.96Z" style="fill:#55a; stroke:#55a; stroke-linecap:round; stroke-linejoin:round; stroke-width:2px;"/><path id="uuid-d96e390a-4099-4961-b9f6-86d1fd7e62d8" d="m131.43,195.69c-.31-.06-.52-.66-.31-.89.21-.22.81-.06.9.23.09.28-.3.72-.59.66Z" style="fill:none; stroke:#55a; stroke-linecap:round; stroke-linejoin:round; stroke-width:2px;"/><path id="uuid-e95470af-5f86-476a-8249-9052e9e6d0d4" d="m137.7,202.51c-.24-.18-.21-.69.03-.87.2-.15.62-.06.76.15.11.17,0,.44-.14.57-.16.15-.48.28-.65.14h0Z" style="fill:none; stroke:#55a; stroke-linecap:round; stroke-linejoin:round; stroke-width:2px;"/></g><path id="uuid-c737731e-d1f2-42d7-85d1-88e1c364bd50" d="m215,256.5l-45.5-42.75-16.64.1c-1.44,10.69-4.18,16.19-9.11,23.9l15.5,1.25,19.25,17.75" style="fill:#ff5; stroke:#55a; stroke-linecap:round; stroke-linejoin:round; stroke-width:2px;"/><path id="uuid-f98ed613-0d96-40b5-85ba-6873b472f82c" d="m167.69,217.5l-14.56-.03-.41,3,14.44.07,37.84,36.31c.57.55,1.59.53,2.14-.05.55-.57.53-1.59-.05-2.14l-38.31-36.75c-.29-.27-.69-.42-1.09-.41h0Z" style="fill:#000200;"/><path id="uuid-52e8e1dc-24a0-4779-ad45-381e732322a1" d="m150,226.54l14-.04,31.5,29.5" style="fill:none; stroke:#55a; stroke-linecap:round; stroke-linejoin:round; stroke-width:2px;"/><path id="uuid-59f8c999-167b-498f-a0bb-17b8f42f8791" d="m148.57,231.62l-1.66,2.77,13.72.33,22.34,21.59c.52.7,1.68.77,2.28.15s.49-1.78-.22-2.28l-22.75-22.03c-.26-.26-.63-.42-1-.44l-12.71-.1Z" style="fill:#000200;"/><path id="uuid-ebc7c3fb-d627-442a-983f-7dde17c6d82b" d="m120.5,256.75l139.5-.5" style="fill:none; stroke:#55a; stroke-linecap:round; stroke-linejoin:round; stroke-width:2px;"/><path id="uuid-77340bbd-4a3e-4db0-9f97-ba5014f93698" d="m294.24,165.26c-2.42,1.18-4.34,3.13-6.34,4.85-4.35,4.93-7.71,12.66-6.41,19.41.63,2.7,2.08,5.09,3.47,7.45.15,2.88.54,6.36-1.56,8.66-1.75,1.63-5.84-1.93-5.76,1.75,1.3,2.2,4.68,2.13,6.75,1.02,2.27-.41,3.44-4.79,3.62-4.87.99,4.45,1.65,9,1.61,13.56-.92,3.46-2.87,5.5-5.47,7.21-3.04,1.67-6.29-1.02-7.15-3.94.17-2.15-3.18-4.28-3.55-1.26.93,3.56,2.94,7.65,6.9,8.49,3.06.94,6.46-.66,8.17-3.25-1.33,3.43-2.96,7.62-.64,11.01,1.36,2.42,7.65,4.77,8.07.96-1.33-1.98-5.36-.33-6.07-3.58-.71-2.65.87-5.21,1.6-7.71,1.63-3.96,1.11-9.57.96-13.74-.49-6.04-1.61-11.03-5.07-16.14-.64-1.14-2.41-3.91-2.01-4.14,2.05,2,5.24,2.28,7.71.9,2.25-.83,6.02-5.55,2.46-6.69-2.12,1.29-3.01,5.56-6.51,4.34-2.61-1.24-5.95-3.48-4.25-6.66.9-2.97,2.71-10.79,10.18-14.49,1.25-1.02,1.29-3.21-.72-3.15h0Z" style="fill:#fff;"/><g id="uuid-411d9042-7741-4825-89ea-b3107d244b8d"><path id="uuid-6cd7db83-5190-4a63-9653-d7ee651df457" d="m137.78,156.75c-5.47-.23-11.56,5.39-8.92,10.98,1.03,3.48,6.19,5.43,9,3.04.83-1.16-.59-2.82-1.87-2.18-7.06,1.56-5.13-9.36.88-8.72,5.54-1.03,7.76,5.1,8.94,9.31,1.91,5.2.77,10.96,2.81,16.16,1.58,7.91,5.67,15.88,13.28,19.46,4.97,3.03,10.9,2.35,16.2.74,5.56-.47,12.09-2.21,16.72,1.99,3.67,2.76,6.36,7.38,5.88,11.94-2.59,3.44-7.68,6.57-11.27,2.48-2.52-2.22.08-6.2-1.84-8.48-1.3-.92-2.85.68-2.41,2.08-.51,4.15.74,8.95,5.01,10.59,3.78,2.95,9.21-1.62,10.82-2.02.56,5.75,2,11.6,4.71,16.71,3.68,6.23,11.76,5.82,17.95,4.86,3.65-2.12,12.72-2.96,12.92,2.61-1.16,3.66-4.46,1.62-6.94,1.49-1.64.54-1.05,2.98.57,3.07,5.5,3.86,13.1-4.87,7.77-9.3-2.95-3.21-10.63-2.19-11.8-2.52,3.51-4.94,0-12.12-5.75-13.08-3-.75-6.93,1.03-8.35,3.73-.21,1.76,2.22,2.18,3.08.84,4.25-4.82,12.32,1.97,8.48,7-2.17,3.76-6.55,4.24-10.38,3.26-6.38-1.46-6.92-9.09-8.6-14.24-1.54-6.58.49-14.34-4.44-19.84-3.72-5.1-10.18-8.07-16.48-6.8-2.53-.04-8.14,1.95-4.4-1.86,3.01-5.15,1.7-13.22-4.56-15.24-2.4-.54-4.6-2.08-6.94-2.29-4-2.29-11.29-1.25-11.87-7.31-1.02-2.85,2.5-4.2,2.46-6.63-.53-1.81-3.12-1.07-3.59.46-3.93,4.68-1.4,13.1,4.89,14.08,2.29.71,6.26.88,2.38,2.81-3.13,2.55-1.65,8.56,1.91,9.91,1.77.14,2.12-2.48.52-3.04-4.14-6.01,5.83-8.7,9.69-4.91,5.08,2.2,4.2,9.37,1.06,12.89-1.89,4.54-7.78,3.42-11.3,1.7-7.25-3.05-10.99-10.56-12.49-17.88-2.06-5.82-.73-12.22-3.29-17.93-1.28-4.94-4.73-10.16-10.45-9.92h0Z" style="fill:#fff;"/><path id="uuid-e148cb0a-e850-42ab-a334-531bac7b73c9" d="m143.01,176.13c0,1.1-1.01,2-2.25,2s-2.25-.9-2.25-2,1.01-2,2.25-2,2.25.9,2.25,2Z" style="fill:#fff;"/><path id="uuid-b0d77b77-9c1f-4813-ae01-98762b43fb10" d="m188.55,195.62c0,1.1-1.01,2-2.25,2s-2.25-.9-2.25-2,1.01-2,2.25-2,2.25.9,2.25,2Z" style="fill:#fff;"/><path id="uuid-650be5d7-1f35-44fc-b3e7-d44045623ca1" d="m181.56,212.81c0,1.1-1.01,2-2.25,2s-2.25-.9-2.25-2,1.01-2,2.25-2,2.25.9,2.25,2Z" style="fill:#fff;"/><path id="uuid-1d1a07d9-d3e8-479b-9be0-83d0ca02f0ef" d="m213.62,220.68c0,1.1-1.01,2-2.25,2s-2.25-.9-2.25-2,1.01-2,2.25-2,2.25.9,2.25,2Z" style="fill:#fff;"/></g><path id="uuid-2778d0f2-eefb-4b5c-81cd-afd2c9467cce" d="m174.86,155.74s.55,3.6.14,5.33c-.5,2.08-1.76,3.94-3.04,5.66-.59.79-2.12,1.09-2.1,2.07.03,1.56,1.91,3.21,3.47,3.13,1.76-.08,2.91-2.26,3.58-3.89.85-2.1.6-4.57.2-6.8-.35-1.95-2.24-5.51-2.24-5.51h0Z" style="fill:#ff5;"/><path id="uuid-60babd77-8ea9-4725-8a3d-8b373b479ca6" d="m180.25,160.21s1.02,2.32,1,3.57c-.03,1.5-.69,2.99-1.38,4.39-.32.64-1.44,1.14-1.26,1.8.29,1.04,2,1.8,3.18,1.45,1.33-.39,1.85-2.08,2.09-3.3.3-1.58-.3-3.19-.99-4.62-.6-1.25-2.64-3.28-2.64-3.28Z" style="fill:#ff5;"/><path id="uuid-468aa764-8755-4c58-8c46-fe99ddc3d66a" d="m185.14,165.06s1.02,2.32,1,3.57c-.03,1.5-.69,2.99-1.38,4.39-.32.64-1.44,1.14-1.26,1.8.29,1.04,2,1.8,3.18,1.45,1.33-.39,1.85-2.08,2.09-3.3.3-1.58-.3-3.19-.99-4.62-.6-1.25-2.64-3.28-2.64-3.28Z" style="fill:#ff5;"/><path id="uuid-4b53e427-dc7f-4421-8aab-b12228eb31f5" d="m160.66,146.12s.37,1.76.09,2.6c-.33,1.01-1.19,1.92-2.05,2.76-.4.38-1.43.53-1.42,1.01.02.76,1.29,1.56,2.34,1.53,1.19-.04,1.97-1.1,2.41-1.9.58-1.02.41-2.23.13-3.31-.24-.95-1.51-2.68-1.51-2.68h0Z" style="fill:#ff5;"/><path id="uuid-42bedc34-ba38-4da2-8ae9-cd223af878b8" d="m164.33,146.36s1.02,2.32,1,3.57c-.03,1.5-.69,2.99-1.38,4.39-.32.64-1.44,1.14-1.26,1.8.29,1.04,2,1.8,3.18,1.45,1.33-.39,1.85-2.08,2.09-3.3.3-1.58-.3-3.19-.99-4.62-.6-1.25-2.64-3.28-2.64-3.28Z" style="fill:#ff5;"/><path id="uuid-a37932e7-3eac-4aa7-be3b-fbe035b6d92a" d="m169.22,151.21s1.02,2.32,1,3.57c-.03,1.5-.69,2.99-1.38,4.39-.32.64-1.44,1.14-1.26,1.8.29,1.04,2,1.8,3.18,1.45,1.33-.39,1.85-2.08,2.09-3.3.3-1.58-.3-3.19-.99-4.62-.6-1.25-2.64-3.28-2.64-3.28Z" style="fill:#ff5;"/><path id="uuid-9e7b38db-c63e-4854-83d1-55cfad88bb93" d="m191.14,170.6s.55,3.73.14,5.52c-.5,2.16-1.76,4.09-3.04,5.86-.59.82-2.12,1.13-2.1,2.15.03,1.61,1.91,3.32,3.47,3.25,1.76-.08,2.91-2.34,3.58-4.03.85-2.18.6-4.73.2-7.04-.35-2.02-2.24-5.7-2.24-5.7h0Z" style="fill:#ff5;"/><path id="uuid-205c65ba-5a72-4f38-8893-99b47343a5b6" d="m196.53,175.07s1.02,2.32,1,3.57c-.03,1.5-.69,2.99-1.38,4.39-.32.64-1.44,1.14-1.26,1.8.29,1.04,2,1.8,3.18,1.45,1.33-.39,1.85-2.08,2.09-3.3.3-1.58-.3-3.19-.99-4.62-.6-1.25-2.64-3.28-2.64-3.28Z" style="fill:#ff5;"/><path id="uuid-d9d03f9d-29a9-45da-8bd4-25a29f702ea9" d="m201.42,179.91s1.02,2.32,1,3.57c-.03,1.5-.69,2.99-1.38,4.39-.32.64-1.44,1.14-1.26,1.8.29,1.04,2,1.8,3.18,1.45,1.33-.39,1.85-2.08,2.09-3.3.3-1.58-.3-3.19-.99-4.62-.6-1.25-2.64-3.28-2.64-3.28Z" style="fill:#ff5;"/><path id="uuid-a8f51aff-0c2f-4dfb-a589-596ad1e0ed2f" d="m207.02,184.74s.55,3.6.14,5.33c-.5,2.08-1.76,3.94-3.04,5.66-.59.79-2.12,1.09-2.1,2.07.03,1.56,1.91,3.21,3.47,3.13,1.76-.08,2.91-2.26,3.58-3.89.85-2.1.6-4.57.2-6.8-.35-1.95-2.24-5.51-2.24-5.51h0Z" style="fill:#ff5;"/><path id="uuid-693cdbd5-3c0d-4771-858f-aaec9cd789ef" d="m211.25,189.05s1.02,2.32,1,3.57c-.03,1.5-.69,2.99-1.38,4.39-.32.64-1.44,1.14-1.26,1.8.29,1.04,2,1.8,3.18,1.45,1.33-.39,1.85-2.08,2.09-3.3.3-1.58-.3-3.19-.99-4.62-.6-1.25-2.64-3.28-2.64-3.28Z" style="fill:#ff5;"/><path id="uuid-cbaf6ae3-0d74-420d-bc30-aa970b1effbe" d="m215.55,193.03s1.02,2.32,1,3.57c-.03,1.5-.69,2.99-1.38,4.39-.32.64-1.44,1.14-1.26,1.8.29,1.04,2,1.8,3.18,1.45,1.33-.39,1.85-2.08,2.09-3.3.3-1.58-.3-3.19-.99-4.62-.6-1.25-2.64-3.28-2.64-3.28Z" style="fill:#ff5;"/><path id="uuid-3899aab0-92ac-4415-a748-d2dd6065cbdc" d="m221.01,198.14s.55,3.6.14,5.33c-.5,2.08-1.76,3.94-3.04,5.66-.59.79-2.12,1.09-2.1,2.07.03,1.56,1.91,3.21,3.47,3.13,1.76-.08,2.91-2.26,3.58-3.89.85-2.1.6-4.57.2-6.8-.35-1.95-2.24-5.51-2.24-5.51h0Z" style="fill:#ff5;"/><path id="uuid-59197210-c0c4-4096-90e5-4145ea0fdc51" d="m225.53,202.31s1.02,2.32,1,3.57c-.03,1.5-.69,2.99-1.38,4.39-.32.64-1.44,1.14-1.26,1.8.29,1.04,2,1.8,3.18,1.45,1.33-.39,1.85-2.08,2.09-3.3.3-1.58-.3-3.19-.99-4.62-.6-1.25-2.64-3.28-2.64-3.28Z" style="fill:#ff5;"/><path id="uuid-4df5f4d9-0fd5-4f24-95f2-acb16315f5af" d="m230.27,206.73s1.02,2.32,1,3.57c-.03,1.5-.69,2.99-1.38,4.39-.32.64-1.44,1.14-1.26,1.8.29,1.04,2,1.8,3.18,1.45,1.33-.39,1.85-2.08,2.09-3.3.3-1.58-.3-3.19-.99-4.62-.6-1.25-2.64-3.28-2.64-3.28Z" style="fill:#ff5;"/><path id="uuid-c288f6ec-42d2-40bd-b73f-8c4f96a7c50b" d="m236.16,210.53s.55,3.6.14,5.33c-.5,2.08-1.76,3.94-3.04,5.66-.59.79-2.12,1.09-2.1,2.07.03,1.56,1.91,3.21,3.47,3.13,1.76-.08,2.91-2.26,3.58-3.89.85-2.1.6-4.57.2-6.8-.35-1.95-2.24-5.51-2.24-5.51h0Z" style="fill:#ff5;"/><path id="uuid-573e4d36-8b77-426e-b929-b48eca9cf96c" d="m240.54,214.85s1.02,2.32,1,3.57c-.03,1.5-.69,2.99-1.38,4.39-.32.64-1.44,1.14-1.26,1.8.29,1.04,2,1.8,3.18,1.45,1.33-.39,1.85-2.08,2.09-3.3.3-1.58-.3-3.19-.99-4.62-.6-1.25-2.64-3.28-2.64-3.28Z" style="fill:#ff5;"/><path id="uuid-4bed9d6d-0e5c-4a63-8d26-e56bc97e2692" d="m261.85,190.69s.59,3.34,1.55,4.68c1.34,1.88,3.76,2.68,5.51,4.18.43.37,1.1.63,1.23,1.18.21.92-.18,2.15-.97,2.66-1.12.72-2.85.38-3.98-.33-1.92-1.21-2.84-3.69-3.41-5.88-.55-2.09.08-6.49.08-6.49Z" style="fill:#ff5;"/><path id="uuid-5ee2ab26-c83f-465f-9d92-aac96576ab54" d="m259.9,197.56s.84,1.49,1.27,2.23c.66,1.12,1.19,2.33,2.02,3.33.64.78,2.29,1.04,2.23,2.04-.08,1.16-1.64,2.13-2.86,2.01-1.38-.14-2.13-1.67-2.66-2.86-.61-1.38-.45-3-.39-4.5.03-.76.39-2.25.39-2.25Z" style="fill:#ff5;"/><path id="uuid-acadb618-4c09-42bb-98d5-ff27699c40a3" d="m258.05,202.54s.52,2.36,1.11,3.39c.75,1.32,1.81,2.49,3.01,3.42.58.45,1.81.31,1.97.98.24,1.05-.91,2.53-2.11,2.79-1.36.29-2.62-.94-3.41-1.91-1.02-1.24-1.25-2.95-1.33-4.53-.07-1.38.76-4.14.76-4.14h0Z" style="fill:#ff5;"/><path id="uuid-d7c53648-09d1-402a-8bed-ab7f882200ae" d="m256.89,209.76s.59,3.34,1.55,4.68c1.34,1.88,3.76,2.68,5.51,4.18.43.37,1.1.63,1.23,1.18.21.92-.18,2.15-.97,2.66-1.12.72-2.85.38-3.98-.33-1.92-1.21-2.84-3.69-3.41-5.88-.55-2.09.08-6.49.08-6.49Z" style="fill:#ff5;"/><path id="uuid-43e162d7-e775-425d-8e99-d9abe85ec3a8" d="m265.1,180.75s.64,1.42.97,2.13c.35.74.65,1.51,1.1,2.19.71,1.08,2.64,1.7,2.49,2.98-.11.88-1.25,1.67-2.14,1.58-1.19-.11-1.95-1.55-2.43-2.65-.56-1.27-.41-2.77-.35-4.16.03-.7.36-2.08.36-2.08h0Z" style="fill:#ff5;"/><path id="uuid-7b2c2923-177c-426d-9052-7d207c02abce" d="m264.04,186.89s.44,1.81.94,2.6c.63,1.01,1.52,1.91,2.54,2.62.49.34,1.52.24,1.65.75.21.81-.76,1.94-1.77,2.14-1.14.22-2.2-.72-2.87-1.46-.86-.95-1.05-2.26-1.12-3.47-.06-1.06.64-3.18.64-3.18h0Z" style="fill:#ff5;"/><path id="uuid-dd89a193-51fa-4a05-8eae-5d4e56a88830" d="m266.95,174.92s.54,3.08,1.42,4.31c1.23,1.73,3.45,2.47,5.05,3.85.4.34,1.01.58,1.13,1.09.19.85-.16,1.98-.89,2.45-1.03.66-2.62.35-3.65-.31-1.76-1.12-2.6-3.4-3.13-5.42-.5-1.93.07-5.98.07-5.98h0Z" style="fill:#ff5;"/><path id="uuid-cce77f97-312b-4eb5-ab56-1169eb5e6044" d="m270.02,164.99s.8,1.37,1.17,2.06c.47.88.73,1.88,1.33,2.67.69.91,2.62,1.16,2.55,2.3-.06,1.07-1.5,1.97-2.62,1.86-1.27-.13-1.95-1.55-2.43-2.65-.56-1.27-.41-2.77-.35-4.16.03-.7.36-2.08.36-2.08Z" style="fill:#ff5;"/><path id="uuid-3bca2c53-ca81-4600-8b02-208c3af066d9" d="m268.76,170.82s.44,1.81.94,2.6c.63,1.01,1.52,1.91,2.54,2.62.49.34,1.52.24,1.65.75.21.81-.76,1.94-1.77,2.14-1.14.22-2.2-.72-2.87-1.46-.86-.95-1.05-2.26-1.12-3.47-.06-1.06.64-3.18.64-3.18h0Z" style="fill:#ff5;"/><path id="uuid-75963cc7-ffcb-43e0-b7a4-679cfcc072f5" d="m271.08,156.84s.59,3.34,1.55,4.68c1.34,1.88,3.76,2.68,5.51,4.18.43.37,1.1.63,1.23,1.18.21.92-.18,2.15-.97,2.66-1.12.72-2.85.38-3.98-.33-1.92-1.21-2.84-3.69-3.41-5.88-.55-2.09.08-6.49.08-6.49Z" style="fill:#ff5;"/><path id="uuid-ffb3f4b7-e42b-42cb-9676-38c845736622" d="m274.43,149.55s.94.5,1.35.83c.59.48,1.03,1.13,1.57,1.67.66.65,2.03.96,2.04,1.89,0,.72-.85,1.49-1.57,1.49-1.19,0-2.02-1.39-2.61-2.42-.3-.53-.27-1.19-.4-1.79-.12-.56-.37-1.67-.37-1.67Z" style="fill:#ff5;"/><path id="uuid-1bda2db8-9c34-4ea7-96e1-ff7351d1e12e" d="m273.28,153.04s.44,1.81.94,2.6c.63,1.01,1.52,1.91,2.54,2.62.49.34,1.52.24,1.65.75.21.81-.76,1.94-1.77,2.14-1.14.22-2.2-.72-2.87-1.46-.86-.95-1.05-2.26-1.12-3.47-.06-1.06.64-3.18.64-3.18h0Z" style="fill:#ff5;"/><path id="uuid-c40cfc0b-d99e-4c01-af08-2e212d7d8ff0" d="m253.25,222c-3.64.03-6.29,2.83-7.91,6.06s-2.4,7.07-2.34,10.22c.05,3.11.95,6.84,2.66,9.97s4.4,5.82,8,5.75c3.58-.07,6.13-2.86,7.69-6.03s2.31-6.9,2.28-9.97c-.03-3.1-.86-6.88-2.5-10.06s-4.26-5.96-7.88-5.94Zm0,3c2.05-.01,3.85,1.62,5.22,4.28s2.13,6.16,2.16,8.72c.02,2.53-.66,6-1.97,8.66s-3.04,4.3-5.06,4.34c-2.04.04-3.86-1.57-5.28-4.19s-2.27-6.06-2.31-8.59c-.04-2.57.68-6.11,2.03-8.81s3.15-4.39,5.22-4.41Z" style="fill:#ff5;"/><path id="uuid-d0fef280-14b8-493d-bcbd-7c9cefabe2f2" d="m252,238.5s-2.48-1.94-3.75-1.5c-.63.22-1.09,1.08-1,1.75.12.88.99,1.81,1.88,1.88,1.19.09,2.88-2.12,2.88-2.12Z" style="fill:#ff5;"/><path id="uuid-2a5387d2-821d-4bd4-a44a-46bb765b8279" d="m254.62,238.25s1.07-2.21,2.12-2.5c.89-.25,2.34,0,2.62.88.27.82-.7,1.79-1.5,2.12-1.01.43-3.25-.5-3.25-.5Z" style="fill:#ff5;"/><path id="uuid-73958e5b-faa7-4d31-816e-9099842159f1" d="m252.75,235.88s-3.37-2.14-3.5-3.88c-.11-1.5,1.01-3.56,2.5-3.75,1.43-.19,2.96,1.46,3.25,2.88.35,1.72-2.25,4.75-2.25,4.75Z" style="fill:#ff5;"/><path id="uuid-dd4f7981-da7a-4f1c-b528-27f6836dd505" d="m253,240.88s-2.08,3.31-1.62,5c.29,1.08,1.38,2.31,2.5,2.25,1.44-.08,2.9-1.8,2.88-3.25-.03-1.83-3.75-4-3.75-4Z" style="fill:#ff5;"/><g id="uuid-a7c26577-16ec-4095-8adb-6fbe61627557"><path id="uuid-eddbcc39-8116-49a5-99de-bc7558335252" d="m116.46,230.49l14.26-6.87-6.47,14.98s1.08-3.27.04-4.2c-1.18-1.06-4.73.52-4.73.52,0,0,1.54-3,.69-4.09-.77-1-3.79-.33-3.79-.33h0Z" style="fill:#55a; stroke:#55a; stroke-linecap:round; stroke-linejoin:round; stroke-width:2.02px;"/><path id="uuid-26660dab-fca2-45a8-92c6-3b7cbbe008e1" d="m126.4,221.6c-.31-.06-.52-.65-.31-.87.21-.22.81-.06.9.23.09.28-.3.7-.59.65Z" style="fill:none; stroke:#55a; stroke-linecap:round; stroke-linejoin:round; stroke-width:2.02px;"/><path id="uuid-c7505d24-058f-48a7-a2f3-367d2bb56681" d="m132.67,228.3c-.24-.18-.21-.68.03-.85.2-.15.62-.06.76.15.11.16,0,.43-.14.56-.16.15-.48.27-.65.14h0Z" style="fill:none; stroke:#55a; stroke-linecap:round; stroke-linejoin:round; stroke-width:2.02px;"/></g><g id="uuid-a2d1e530-133d-49df-930e-532a5ffe10e0"><path id="uuid-4abdebc3-6cb0-434f-9948-ec4d0721bc14" d="m107.14,216.36l13.5-5.75-5.25,15.25s.05-3.47-1.19-4.28c-1.07-.7-3.81.53-3.81.53,0,0,1.73-3.44.84-4.79-.77-1.17-4.09-.96-4.09-.96Z" style="fill:#55a; stroke:#55a; stroke-linecap:round; stroke-linejoin:round; stroke-width:2px;"/><path id="uuid-52f3bc4f-beb6-4e99-951d-c23b9cfa111e" d="m116.32,208.55c-.31-.06-.52-.66-.31-.89.21-.22.81-.06.9.23.09.28-.3.72-.59.66Z" style="fill:none; stroke:#55a; stroke-linecap:round; stroke-linejoin:round; stroke-width:2px;"/><path id="uuid-d9bd8eee-5e95-4f8d-a77a-d9871ca3fe2e" d="m122.6,215.37c-.24-.18-.21-.69.03-.87.2-.15.62-.06.76.15.11.17,0,.44-.14.57-.16.15-.48.28-.65.14h0Z" style="fill:none; stroke:#55a; stroke-linecap:round; stroke-linejoin:round; stroke-width:2px;"/></g><g id="uuid-fb0a4d70-4f00-4d79-8b15-4391de30c16c"><path id="uuid-ee590e79-ca5d-4743-ba8a-59c0657c3ce2" d="m92.69,253.08l13.49-7.52-4.13,14.19s.29-3.37-.93-3.98c-1.51-.76-4.64,2.02-4.64,2.02,0,0,2.38-3.49,1.37-4.81-1.05-1.36-5.15.1-5.15.1Z" style="fill:#55a; stroke:#55a; stroke-linecap:round; stroke-linejoin:round; stroke-width:2.34px;"/><path id="uuid-a667f9e3-1466-4972-93db-c3b333167805" d="m103.6,243.76c-.24-.06-.41-.61-.24-.83.17-.21.64-.06.71.22.07.26-.24.67-.47.61Z" style="fill:none; stroke:#55a; stroke-linecap:round; stroke-linejoin:round; stroke-width:2.34px;"/><path id="uuid-1e5bd549-3d8a-4d0d-b680-4b614f30b756" d="m108.71,249.58c-.18-.17-.16-.64.02-.81.16-.14.49-.05.6.14.09.15,0,.4-.11.53-.12.14-.38.26-.51.13h0Z" style="fill:none; stroke:#55a; stroke-linecap:round; stroke-linejoin:round; stroke-width:2.34px;"/></g><g id="uuid-876b223d-3801-43dc-986f-c7f2c0fd8f65"><path id="uuid-7a7ecb78-ea17-4b6c-b234-8dac43b20819" d="m56.23,264.79l13.5-5.75-5.25,15.25s.05-3.47-1.19-4.28c-1.07-.7-3.81.53-3.81.53,0,0,1.73-3.44.84-4.79-.77-1.17-4.09-.96-4.09-.96Z" style="fill:#55a; stroke:#55a; stroke-linecap:round; stroke-linejoin:round; stroke-width:2px;"/><path id="uuid-324cac13-a8a4-4f46-95d9-bb48a66c0976" d="m65.41,256.99c-.31-.06-.52-.66-.31-.89.21-.22.81-.06.9.23.09.28-.3.72-.59.66Z" style="fill:none; stroke:#55a; stroke-linecap:round; stroke-linejoin:round; stroke-width:2px;"/><path id="uuid-5a5ccf81-ed9a-48d5-83e9-2df2b31d5285" d="m71.68,263.8c-.24-.18-.21-.69.03-.87.2-.15.62-.06.76.15.11.17,0,.44-.14.57-.16.15-.48.28-.65.14h0Z" style="fill:none; stroke:#55a; stroke-linecap:round; stroke-linejoin:round; stroke-width:2px;"/></g><g id="uuid-0ff41112-d427-4154-818f-c29c6809e7c1"><path id="uuid-56c669a9-38ef-4c6a-9dc0-9b6a5a3d8c7c" d="m71.79,275.93l13.5-5.75-5.25,15.25s.05-3.47-1.19-4.28c-1.07-.7-3.81.53-3.81.53,0,0,1.73-3.44.84-4.79-.77-1.17-4.09-.96-4.09-.96Z" style="fill:#55a; stroke:#55a; stroke-linecap:round; stroke-linejoin:round; stroke-width:2px;"/><path id="uuid-78412f06-4084-482e-9000-e9e019c4dbb0" d="m80.97,268.12c-.31-.06-.52-.66-.31-.89.21-.22.81-.06.9.23.09.28-.3.72-.59.66Z" style="fill:none; stroke:#55a; stroke-linecap:round; stroke-linejoin:round; stroke-width:2px;"/><path id="uuid-8fe43ca7-dd86-46b9-b916-ddcc6de17354" d="m87.24,274.94c-.24-.18-.21-.69.03-.87.2-.15.62-.06.76.15.11.17,0,.44-.14.57-.16.15-.48.28-.65.14h0Z" style="fill:none; stroke:#55a; stroke-linecap:round; stroke-linejoin:round; stroke-width:2px;"/></g></g><g id="uuid-92d24012-bc67-4631-8ec5-68402d9ab3e7"><path id="uuid-45247166-aaff-4851-a3e8-52297e23ebc9" d="m72.5,381.5l22-75.5-.25-8.5,2.5-8.25,4.5-4.75,4.5-1.5-8.1-.29-13.98,22.29-52.81-35.28-.85,78.53,42.5,33.25Z" style="fill:#f55;"/><path id="uuid-26fa8960-18f6-46e0-b421-6b707d976762" d="m329.75,346v-77.5l-2.38,1.25-15.88,28.25,10.75,12.5-10.25,8.25,14.38,24.62,3.38,2.62Z" style="fill:#f55;"/><path id="uuid-22c4243d-e4a8-4b0f-b0c2-deed53ac4c94" d="m225.88,351.62l34.38-30.38,8.12,3.25,7.25.5,8.75-2.88,1.38,3.5,3.12,1.25,3.75-1.75,7.12,6.62-54.25,38.62-8.88-8.25-10.75-10.5Z" style="fill:#5455aa; stroke:#55a; stroke-linecap:round; stroke-linejoin:round; stroke-width:2px;"/><path id="uuid-2826cf23-869f-4f8e-9793-7206d1c9b90a" d="m144.11,282.8l-34.23.46,6.42,6.57,2.14,9.16,101.48,91.71,19.41-16.66-15.44-12.38-11.16-12.68-6.11-10.24-1.22-13.45-15.59.31-45.7-42.79Z" style="fill:#f55;"/><path id="uuid-03baced1-c545-4584-ad17-cac830379509" d="m68.75,378.5l-38.75-30.25" style="fill:none; stroke:#55a; stroke-linecap:round; stroke-linejoin:round; stroke-width:2px;"/><path id="uuid-54efad21-d729-482b-8c36-ef6877555039" d="m228.75,509c-3.32-8.88-5.67-18.12-7-27.5-1.01-7.12-1.42-14.33-1-21.5.5-8.51,2.19-16.95,5-25-4.04-.62-8.05-1.46-12-2.5-3.72-.98-7.39-2.15-11-3.5l-45.5,80h71.5" style="fill:#ff5; stroke:#55a; stroke-linecap:round; stroke-linejoin:round; stroke-width:2px;"/><path id="uuid-4e6ad503-d01a-4a2e-8b34-ca5f1d01f859" d="m202.25,429l-8-6-49.5,86h12.5l45-80" style="fill:#f55; stroke:#55a; stroke-linecap:round; stroke-linejoin:round; stroke-width:2px;"/><path id="uuid-c2e56b02-56dc-440b-a9c6-93e52e823939" d="m170,509s-4-5.92-.75-11c1.82-2.84,9.5-3.5,9.5-3.5,0,0-3.08-9.22-.5-12.5,2.63-3.34,12.5-2.5,12.5-2.5,0,0-5.15-10.99-2.5-15.5,3.84-6.55,10.67-4.34,10.67-4.34,0,0-4.07-7.88,1.33-14.16,2.8-3.26,12.75-2,12.75-2-3.61-4.28-3.45-5.49-4-7.75s-.41-3-.41-3" style="fill:none; stroke:#000100; stroke-linecap:round; stroke-linejoin:round; stroke-width:2px;"/><path id="uuid-0974c570-8c8f-4b4a-bebc-072fc65919b6" d="m199.86,455.84c.34-1.16.74-2.33,1.39-3.34.86-1.34,1.8-2.83,3.25-3.5,1.82-.84,4.34-1.36,6-.25,1.62,1.09,2.32,3.58,2,5.5-.37,2.22-4.25,5.25-4.25,5.25,0,0,5.38,1.1,6.5,3.25,1.05,2.02.41,4.97-1,6.75-1.39,1.76-4.1,3.16-6.25,2.5-2.41-.74-4.25-6.25-4.25-6.25,0,0-.55,4.3-1.75,6-1.07,1.51-2.66,3.06-4.5,3.25-1.63.17-3.61-.62-4.5-2-1.41-2.17-1.17-5.45,0-7.75,1.18-2.31,6.29-4.56,6.29-4.56,0,0-1.14,3.19,1.51,4.61,2.12,1.14,5.55-.97,6.47-3.19.78-1.88-.02-5.2-1.97-5.78-3.9-1.15-5.48,2.63-5.48,2.63,0,0,.24-2.11.54-3.13Z" style="stroke:#000100; stroke-linecap:round; stroke-linejoin:round; stroke-width:2px;"/><path id="uuid-5b834fd7-5fe2-478e-8cf8-f15b802f5f82" d="m180.36,490.72c.34-1.16.74-2.33,1.39-3.34.86-1.34,1.8-2.83,3.25-3.5,1.82-.84,4.34-1.36,6-.25,1.62,1.09,2.32,3.58,2,5.5-.37,2.22-4.25,5.25-4.25,5.25,0,0,5.38,1.1,6.5,3.25,1.05,2.02.41,4.97-1,6.75-1.39,1.76-4.1,3.16-6.25,2.5-2.41-.74-4.25-6.25-4.25-6.25,0,0-.55,4.3-1.75,6-2.23,3.06-6.88,2.57-9,1.25-1.41-2.17-1.17-5.45,0-7.75,1.18-2.31,6.29-4.56,6.29-4.56,0,0-1.14,3.19,1.51,4.61,2.12,1.14,5.55-.97,6.47-3.19.78-1.88-.02-5.2-1.97-5.78-3.9-1.15-5.48,2.63-5.48,2.63,0,0,.24-2.11.54-3.13Z" style="stroke:#000100; stroke-linecap:round; stroke-linejoin:round; stroke-width:2px;"/><g id="uuid-28bcf32d-fd4c-414e-a901-6e130f2b08e1"><g id="uuid-3cd88be2-1ce5-4e18-8fc5-dbdf65429f42"><path id="uuid-d4a6ee63-6f2d-4d43-92a7-4d679e13127b" d="m173.9,423.35c-.52-4.58-1.65-9.67-2.84-12.92" style="fill:none; stroke:#55a; stroke-linecap:round; stroke-linejoin:round; stroke-width:2px;"/><path id="uuid-32eb6e39-70bd-4d45-bab5-e729d88c345a" d="m169.68,429.54c-.79-8.12-3.1-14.76-4.71-20.64" style="fill:none; stroke:#55a; stroke-linecap:round; stroke-linejoin:round; stroke-width:2px;"/><path id="uuid-7753ae59-5d7c-4418-9c62-226a45bc88cd" d="m165.17,437.15c-1.4-9.7-3.02-20.48-6.38-29.53" style="fill:none; stroke:#55a; stroke-linecap:round; stroke-linejoin:round; stroke-width:2px;"/><path id="uuid-67790137-1fbc-4567-886a-3659b9b803b3" d="m157.37,425.71c-.59-7.25-3.05-13.73-4.23-19.2" style="fill:none; stroke:#55a; stroke-linecap:round; stroke-linejoin:round; stroke-width:2px;"/><path id="uuid-8890f9a0-1e98-4215-90ef-5abd187f564c" d="m151.1,418.31c-1.04-6.69-2.46-9.39-3.25-12.61" style="fill:none; stroke:#55a; stroke-linecap:round; stroke-linejoin:round; stroke-width:2px;"/><path id="uuid-fe50b7d1-e96f-4d3b-9f63-22ce062663a6" d="m144.45,412.25c-.75-2.67-1.62-4.75-2.37-6.76" style="fill:none; stroke:#55a; stroke-linecap:round; stroke-linejoin:round; stroke-width:2px;"/></g><g id="uuid-8486f2cf-16b0-4aeb-aaca-8c9ed2d870e2"><path id="uuid-c5490d70-a12e-4249-859d-445712d9c5e5" d="m109.25,509s-.98-12.88-7.75-19.75c-6.77-6.87-15.25-10.25-15.25-10.25" style="fill:none; stroke:#55a; stroke-linecap:round; stroke-linejoin:round; stroke-width:2px;"/><path id="uuid-d308864b-eb48-441e-a774-eb8b25405455" d="m105.12,509s-1.27-10.77-6.64-16.78-12.11-8.22-12.11-8.22" style="fill:none; stroke:#55a; stroke-linecap:round; stroke-linejoin:round; stroke-width:2px;"/><path id="uuid-55fda264-73c6-4023-9ded-149b59eef834" d="m101.62,509s-1.56-7.84-5.54-12.42c-3.98-4.58-9.96-7.58-9.96-7.58" style="fill:none; stroke:#55a; stroke-linecap:round; stroke-linejoin:round; stroke-width:2px;"/><path id="uuid-21794869-310f-46f2-87a0-4c596a629077" d="m97.12,509s-1.06-5.4-4.27-8.95-6.73-5.3-6.73-5.3" style="fill:none; stroke:#55a; stroke-linecap:round; stroke-linejoin:round; stroke-width:2px;"/><path id="uuid-a49db598-cbdd-4a5b-a9e7-4b17fdd9798f" d="m92.75,509s-.62-4.08-2.51-6.25-4.24-3.25-4.24-3.25" style="fill:none; stroke:#55a; stroke-linecap:round; stroke-linejoin:round; stroke-width:2px;"/></g><g id="uuid-6485201b-4148-4ff5-9bb9-1a2dfa272e69"><path id="uuid-499bff72-463b-41d3-8bc0-1a43c696f9cf" d="m110,507.75s.48-9.88,8.5-18.75c8.02-8.87,22-8,22-8" style="fill:none; stroke:#55a; stroke-linecap:round; stroke-linejoin:round; stroke-width:2px;"/><path id="uuid-7031ca7f-c802-4edc-9893-34ebd13e7956" d="m113.38,508.25s1.27-8.52,8.39-16.03c7.12-7.51,15.86-6.47,15.86-6.47" style="fill:none; stroke:#55a; stroke-linecap:round; stroke-linejoin:round; stroke-width:2px;"/><path id="uuid-a3bbe8a5-576d-46b4-b50a-5be627f53920" d="m118.12,508.25s1.56-7.84,5.54-12.42c3.98-4.58,11.71-5.08,11.71-5.08" style="fill:none; stroke:#55a; stroke-linecap:round; stroke-linejoin:round; stroke-width:2px;"/><path id="uuid-dfa80873-4df7-492d-8748-f84eaa81768a" d="m122.62,508.25s1.06-5.4,4.27-8.95,5.23-3.05,5.23-3.05" style="fill:none; stroke:#55a; stroke-linecap:round; stroke-linejoin:round; stroke-width:2px;"/></g><path id="uuid-046a9e86-1b3c-4021-95d3-44cd94becbe7" d="m85.2,472.06s-6.14-18.82-8.45-28.44c-2.67-11.14-4.95-22.41-6.19-33.79-1.11-10.18-1.13-30.69-1.13-30.69l32.1,26.75s-8.9,12.18-11.55,19.15c-2,5.27-2.33,11.03-3.1,16.61-.72,5.23-1.12,10.5-1.41,15.77-.26,4.87-.28,14.64-.28,14.64Z" style="fill:#55a; stroke:#55a; stroke-linecap:round; stroke-linejoin:round; stroke-width:2px;"/><g id="uuid-e28a89ff-70f2-40b8-b8ee-d9c8fce65449"><path id="uuid-d4d61f5f-dd48-46ad-bc24-895f65c9e1e2" d="m106.32,462.77s.22-5.08,0-7.6c-.24-2.66-.79-5.29-1.41-7.88-.68-2.86-2.4-5.51-2.53-8.45-.08-1.67,0-3.57.99-4.93.85-1.17,2.75-1.12,3.8-2.11.89-.84,1.97-3.1,1.97-3.1" style="fill:none; stroke:#55a; stroke-linecap:round; stroke-linejoin:round; stroke-width:2px;"/><path id="uuid-2c6f35ec-cd92-40a1-b636-0df0b2f6cd46" d="m121.53,439.68s3.46-4.06,2.96-6.34c-.32-1.43-1.95-2.5-3.38-2.82-1.57-.34-3.17.64-4.65,1.27-1.71.72-3,3.29-4.79,2.82-.73-.19-1.44-1.28-1.13-1.97.84-1.82,3.92-.94,5.91-1.13,2.43-.23,5.47-1.59,7.32,0,.94.8.81,2.45.56,3.66-.36,1.73-2.82,4.51-2.82,4.51Z" style="fill:#55a; stroke:#55a; stroke-linecap:round; stroke-linejoin:round; stroke-width:2px;"/></g><g id="uuid-f39b9343-9a95-4442-9378-427743bd0475"><path id="uuid-01513f26-84da-4e61-8986-4845059a91b9" d="m142.37,471.78s-6.27,3.17-9.79,3.78c-3.37.58-7.05.68-10.32-.22-2.35-.65-6.08-3.56-6.08-3.56,0,0,5.22,1.93,7.95,2.34,3.4.51,6.9.6,10.3.1,2.74-.4,7.94-2.45,7.94-2.45h0Z" style="fill:#55a; stroke:#55a; stroke-linecap:round; stroke-linejoin:round; stroke-width:2px;"/><path id="uuid-da3788bb-19a2-4419-afc4-aac45bb17fd2" d="m121.81,464.74l-2.82,2.25s4.45,1.55,6.76,1.97c2.5.45,5.11,1.08,7.6.56,2.38-.49,4.48-1.98,6.48-3.38,2.61-1.83,7.04-6.48,7.04-6.48" style="fill:none; stroke:#55a; stroke-linecap:round; stroke-linejoin:round; stroke-width:2px;"/><path id="uuid-68c8b2b0-476b-462e-b82b-71dd7ec02996" d="m143.77,459.67s-6.78,3.32-10.42,4.22c-2.24.56-4.59.62-6.9.7-1.41.05-4.22-.14-4.22-.14l-2.96-5.07,4.79-2.25-4.39.73c1.52-4.47,6.72-7.33,9.46-9.18" style="fill:none; stroke:#55a; stroke-linecap:round; stroke-linejoin:round; stroke-width:2px;"/><path id="uuid-869ce236-45f0-4bfb-b736-b9a0a9c8e468" d="m125.19,463.48s-2.02-3.4,0-6.34c1.17-1.7,4.35-1.21,6.19-.28,3.2,1.61,6.48,2.9,8.45,4.08l-5.91,1.41c1.06-1.73-.24-3.53-1.41-4.65-1.4-1.33-3.84-2.14-5.63-1.41-1.83.75-3.28,3.79-3.1,5.07.12.84,1.41,2.11,1.41,2.11h0Z" style="fill:none; stroke:#55a; stroke-linecap:round; stroke-linejoin:round; stroke-width:2px;"/><path id="uuid-f9e91680-b43f-4010-8937-520ac653465f" d="m128.57,461.93c.82.28,2.1-.83,1.97-1.69-.13-.91-1.81-1.7-2.53-1.13-.75.6-.34,2.5.56,2.82Z" style="fill:none; stroke:#55a; stroke-linecap:round; stroke-linejoin:round; stroke-width:2px;"/></g><g id="uuid-fa040201-5e1d-4400-9505-b6027ccb7596"><path id="uuid-39e01086-79d6-4abf-9f1b-d31fea85021e" d="m87.7,473.55s5.79,2.06,8.6,1.34c3.41-.88,8.33-6.48,8.33-6.48,0,0-5.3,4.64-8.61,5.18-2.89.47-8.57-1.9-8.57-1.9l.25,1.87Z" style="fill:#55a; stroke:#55a; stroke-linecap:round; stroke-linejoin:round; stroke-width:2px;"/><path id="uuid-08974a54-a2bf-472b-a605-37bfae2912ff" d="m106.46,463.76s-4.01,4.06-6.62,4.93c-2.85.94-6.21,1.1-9.01,0-1.67-.66-3.94-3.66-3.94-3.66" style="fill:none; stroke:#55a; stroke-linecap:round; stroke-linejoin:round; stroke-width:2px;"/><path id="uuid-f4333306-1782-4d2a-b160-e720de484b4a" d="m104.92,461.93s-4.96,2.09-7.6,2.25c-2.28.14-4.56-.51-6.76-1.13-1.46-.41-4.22-1.69-4.22-1.69,0,0,2.62-2.55,4.22-3.38,2.08-1.08,4.41-2.02,6.76-1.97,1.19.02,3.38,1.13,3.38,1.13l3.66,1.44c-.99-2.06-2.73-5.79-4.08-6.93" style="fill:none; stroke:#55a; stroke-linecap:round; stroke-linejoin:round; stroke-width:2px;"/><path id="uuid-5be3698b-db41-46d3-b0fe-b8188a321b9d" d="m100.97,462.49c1.48-3.08-.1-3.09-.28-4.51l-1.13-1.13" style="fill:none; stroke:#55a; stroke-linecap:round; stroke-linejoin:round; stroke-width:2px;"/><path id="uuid-f7df3bef-7445-4108-ba2b-7956842f8f0b" d="m96.19,461.65c.66-.49,1.07-1.75.56-2.39-.58-.74-2.15-.66-2.82,0-.53.53-.51,1.71,0,2.25.52.55,1.65.59,2.25.14Z" style="fill:none; stroke:#55a; stroke-linecap:round; stroke-linejoin:round; stroke-width:2px;"/></g><g id="uuid-b000b4de-44aa-4cda-984e-f1ef8e05d3d0"><path id="uuid-d6a19970-20bb-4195-ae3d-6d498347eba9" d="m124.34,418.43s-4.8,2.01-7.46,1.99c-2.02-.01-3.61-1.55-5.63-1.59-2.82-.06-5.35,2.52-8.03,1.89-1.09-.25-1.97-1.99-1.97-1.99,0,0,1.9.81,2.96.8,2.5-.04,4.4-1.95,6.9-2.09,2.51-.14,4.82,1.14,7.32,1.29,1.97.12,5.91-.3,5.91-.3h0Z" style="fill:#55a; stroke:#55a; stroke-linecap:round; stroke-linejoin:round; stroke-width:2px;"/><path id="uuid-cdef3799-f693-4883-ab50-77f9b369b5d0" d="m117.3,411.24s-3.1,1.66-4.79,1.69c-1.91.04-5.49-1.69-5.49-1.69" style="fill:none; stroke:#55a; stroke-linecap:round; stroke-linejoin:round; stroke-width:2px;"/><path id="uuid-e07fe2e4-540d-4b55-bd84-ee834e3c159a" d="m118.01,415.04s-4.08-1.36-6.19-1.41c-1.81-.04-5.35.99-5.35.99" style="fill:none; stroke:#55a; stroke-linecap:round; stroke-linejoin:round; stroke-width:2px;"/></g><path id="uuid-74f6a414-93d8-47ac-adf1-f2cfb9b98b5c" d="m85.5,508.25s.08-23.67.5-35.5c.47-13.1-.48-26.43,2.25-39.25,1.22-5.75,3.72-11.19,6.25-16.5,1.99-4.18,3.53-8.93,7-12,2.85-2.52,6.73-3.99,10.5-4.5,4.25-.57,8.65.49,12.75,1.75,5.77,1.77,11.23,4.64,16.25,8,4.71,3.15,9.07,6.94,12.75,11.25,2.82,3.3,5.25,7.02,7,11,1.29,2.92,2.5,9.25,2.5,9.25" style="fill:none; stroke:#55a; stroke-linecap:round; stroke-linejoin:round; stroke-width:2px;"/></g><path id="uuid-58b68434-a867-4caf-86cf-514a1c996105" d="m57.75,447.75l-9.75,16.25-8.75-16.25,9.5-15.75,9,15.75Z" style="fill:#ff5; stroke:#000; stroke-linecap:round; stroke-linejoin:round; stroke-width:2px;"/><path id="uuid-1ef57563-f50a-4429-80b4-b6bf52491f56" d="m52.5,448.25l-4,7-3.75-6.75,3.75-7.5,4,7.25Z" style="fill:#f55; stroke:#000; stroke-linecap:round; stroke-linejoin:round; stroke-width:2px;"/><path id="uuid-514406e3-0974-414f-a181-2fc218831305" d="m49.5,429.12c0-3.11,2.41-5.62,5.38-5.62s5.38,2.52,5.38,5.62-2.41,5.62-5.38,5.62-5.38-2.52-5.38-5.62Z" style="fill:#ff5; stroke:#000; stroke-linecap:round; stroke-linejoin:round; stroke-width:2px;"/><path id="uuid-fa9fb57f-4df3-4506-9cfe-a3c9fa378dce" d="m38,429.62c0-3.24,2.46-5.88,5.5-5.88s5.5,2.63,5.5,5.88-2.46,5.88-5.5,5.88-5.5-2.63-5.5-5.88Z" style="fill:#ff5; stroke:#000; stroke-linecap:round; stroke-linejoin:round; stroke-width:2px;"/><path id="uuid-0faa2163-4198-45eb-8f0d-d497fec3fabd" d="m40,345.75c0-4.56,4.03-8.25,9-8.25s9,3.69,9,8.25-4.03,8.25-9,8.25-9-3.69-9-8.25Z" style="fill:#ff5; stroke:#000; stroke-linecap:round; stroke-linejoin:round; stroke-width:2px;"/><path id="uuid-e1b4c300-cc56-4890-a3bf-581ccd074ace" d="m49.25,354c3.85,1.01,7.28,4.41,8.76,8.11,1.72,4.32-.41,9.3-.9,13.92-1.1,10.33-3.1,20.54-4.57,30.82-.96,6.71-2.06,16.49-2.79,20.15-1.89.53-2.13-.83-2.07-2.51-1.9-15.05-4.1-30.06-5.7-45.14-.52-4.89-2.06-9.84-1.27-14.69.57-3.46,1.51-7.39,4.19-9.64,1.14-.96,2.91-1.41,4.35-1.03h0Z" style="fill:#ff5; stroke:#000; stroke-linecap:round; stroke-linejoin:round; stroke-width:2px;"/><path id="uuid-49a91f9f-af43-44bc-8931-bc5dff199c8c" d="m48.5,407.25s-1.54-16.68-2.5-25c-.52-4.51-1.71-8.96-1.75-13.5-.02-2.26-.23-4.71.75-6.75.71-1.49,3.5-3.5,3.5-3.5" style="fill:none; stroke:#000; stroke-linecap:round; stroke-linejoin:round; stroke-width:2px;"/><path id="uuid-897bba48-ddc4-4177-ad7e-312712341dc5" d="m47.5,350.25c-1.47-1.53-3.06-3.58-2.82-5.68.17-1.41,1.41-2.72,2.72-3.28.87-.37,1.9.11,2.84.21" style="fill:none; stroke:#000; stroke-linecap:round; stroke-linejoin:round; stroke-width:2px;"/><path id="uuid-c056696e-b778-490e-8963-26fb29ce70bf" d="m53.5,283.25s2.1,17.81,2.75,26.75c.43,5.99,1.68,12.07.75,18-.41,2.63-.78,5.71-2.75,7.5-1.47,1.33-3.77,1.51-5.75,1.5-1.9-.01-4.15-.16-5.5-1.5-2.4-2.38-2.43-6.39-2.75-9.75-.54-5.75.82-11.52,1.5-17.25.79-6.69,2.07-13.32,3-20,.45-3.25,1.25-9.75,1.25-9.75l7.5,4.5Z" style="fill:#ff5; stroke:#000; stroke-linecap:round; stroke-linejoin:round; stroke-width:2px;"/><path id="uuid-e7182e01-8c43-4e8e-9701-ce5a9391bc62" d="m48.5,332.5s-3.07-2.12-3.75-3.75c-1.12-2.69-.11-5.84,0-8.75.21-5.68.69-11.35,1.25-17,.73-7.35,2.75-22,2.75-22" style="fill:none; stroke:#000; stroke-linecap:round; stroke-linejoin:round; stroke-width:2px;"/><path id="uuid-b4f8982b-10d0-4bb3-924a-76ffa0615795" d="m180,412.5l9-15.75-78.25-72.75-16.75,63-9.41,2.84,17.5,15.34s5.18-3.51,8.16-4.19c3.41-.78,7.03-.23,10.5.25,3.66.51,10.75,2.75,10.75,2.75,0,0,13.89.72,20.75,1.75,5.82.87,11.54,2.32,17.25,3.75,3.53.89,10.5,3,10.5,3Z" style="fill:#ff5; stroke:#000; stroke-linecap:round; stroke-linejoin:round; stroke-width:2px;"/><path id="uuid-83bfdd73-ac22-4849-84af-202eb5a6f2f9" d="m182.5,407.5s-12.91-4.02-19.5-5.5c-5.36-1.21-10.8-2.07-16.25-2.75-6.14-.77-12.32-1.3-18.5-1.5-4.75-.15-9.52-.18-14.25.25-5.13.46-15.25,2.5-15.25,2.5" style="fill:none; stroke:#000; stroke-linecap:round; stroke-linejoin:round; stroke-width:2px;"/><path id="uuid-46bb5383-b2a8-4c43-a651-391ba804b3a1" d="m183.25,391.75s-12.74-3.73-19.25-5c-6.19-1.21-12.47-1.93-18.75-2.5-4.99-.46-9.99-.76-15-.75-6.01.02-12.02.44-18,1-6.19.58-18.5,2.43-18.5,2.43" style="fill:none; stroke:#000; stroke-linecap:round; stroke-linejoin:round; stroke-width:2px;"/><path id="uuid-e196721e-75d3-423f-8179-ed647cbb52bf" d="m165,381.75s-18.62-3.31-28.04-3.83c-6.8-.37-13.63,0-20.42.54-5.21.41-15.53,2.04-15.53,2.04l12.25-48,51.75,49.25Z" style="fill:none; stroke:#000; stroke-linecap:round; stroke-linejoin:round; stroke-width:2px;"/><path id="uuid-f7246b8c-b2ad-458b-abd0-fa5dc8a3a889" d="m148,373.5s-14.66-1.17-22-1c-6.14.14-18.36,1.68-18.36,1.68l8.11-33.18,32.25,32.5Z" style="fill:none; stroke:#000; stroke-linecap:round; stroke-linejoin:round; stroke-width:2px;"/><path id="uuid-a973fe8a-bd76-44b2-97ad-69d7333108af" d="m125,351.25l-7.46-3.21-4.29,4.71" style="fill:none; stroke:#000; stroke-linecap:round; stroke-linejoin:round; stroke-width:2px;"/><path id="uuid-9e7f4e8a-d5a7-403c-a000-75be4b3aea94" d="m131.99,357.64c.5,1-13.24-4.14-13.24-4.14l-7.25,7" style="fill:none; stroke:#000; stroke-linecap:round; stroke-linejoin:round; stroke-width:2px;"/><path id="uuid-425be170-5ac1-44d9-ae92-9689a33e6bcd" d="m139.92,365.96l-19.17-7.46-11.36,9.82" style="fill:none; stroke:#000; stroke-linecap:round; stroke-linejoin:round; stroke-width:2px;"/><path id="uuid-a14388fa-7019-410d-a76d-c8d0ecf14913" d="m143.35,373.03l-21.6-9.53-11.18,9.96" style="fill:none; stroke:#000; stroke-linecap:round; stroke-linejoin:round; stroke-width:2px;"/><path id="uuid-fa0c5274-fd7f-45cb-8e9a-5998eb8e4126" d="m131.14,372.5l-7.89-4.25-5.25,4" style="fill:none; stroke:#000; stroke-linecap:round; stroke-linejoin:round; stroke-width:2px;"/><path id="uuid-64689b46-19f8-4cae-925a-298866ed9d10" d="m141.5,393.5l-6-.57v-4.5l6,.57v4.5Z" style="fill:none; stroke:#000; stroke-linecap:round; stroke-linejoin:round; stroke-width:2px;"/><path id="uuid-683aae09-0ed2-4e04-a146-341c28a3c80b" d="m184.76,403.31l-4.19-1.79,1.91-4.08,4.44,2.54-2.16,3.33Z" style="fill:none; stroke:#000; stroke-linecap:round; stroke-linejoin:round; stroke-width:2px;"/><path id="uuid-a65ead68-f785-47d1-b828-addd4b5ce061" d="m176.33,399.72l-5.81-1.71,1.04-4.58,5.77,1.86-1,4.44Z" style="fill:none; stroke:#000; stroke-linecap:round; stroke-linejoin:round; stroke-width:2px;"/><path id="uuid-ef086775-652a-47bd-964d-10a6bd0daf60" d="m165.03,396.98l-6.25-1.06.47-4.48,6.11,1.06-.33,4.48Z" style="fill:none; stroke:#000; stroke-linecap:round; stroke-linejoin:round; stroke-width:2px;"/><path id="uuid-43a8bad7-ca62-4307-96b6-8dd939523597" d="m153.2,394.79l-6.28-.66.17-4.5,6.14.51-.03,4.64Z" style="fill:none; stroke:#000; stroke-linecap:round; stroke-linejoin:round; stroke-width:2px;"/><path id="uuid-a1a88012-530a-4e7f-ade9-9155a79556a9" d="m129.91,392.72l-6-.23.17-4.5,6,.23-.17,4.5Z" style="fill:none; stroke:#000; stroke-linecap:round; stroke-linejoin:round; stroke-width:2px;"/><path id="uuid-10485f96-0974-4379-b279-94f858bec34e" d="m118.46,392.93l-5.66.39-.19-4.46,5.8-.25.04,4.32Z" style="fill:none; stroke:#000; stroke-linecap:round; stroke-linejoin:round; stroke-width:2px;"/><path id="uuid-e85ed8df-56f9-49a8-9267-e8f4cd164f48" d="m107.74,393.75l-5.37.82-.61-4.6,5.37-.82.61,4.6Z" style="fill:none; stroke:#000; stroke-linecap:round; stroke-linejoin:round; stroke-width:2px;"/><path id="uuid-59579f05-a42e-4a70-8af6-8223db863f5d" d="m98.02,395.71l-2.84,1.36-3.44-3.77,5.2-1.94,1.08,4.35Z" style="fill:none; stroke:#000; stroke-linecap:round; stroke-linejoin:round; stroke-width:2px;"/><path id="uuid-3e0b86f7-bcf5-4070-8271-549f7f602bc0" d="m84.57,390.04l-11.47-9.32,21.26-75.01s-.48-6.61.24-9.79c.69-3.06,1.67-6.32,3.82-8.6,2.03-2.15,4.93-4.13,7.88-4.06,2.57.06,4.88,2,6.69,3.82,1.61,1.62,2.63,3.8,3.34,5.97.6,1.83.72,5.73.72,5.73l102.96,93.16s-9.33,8.21-13.38,12.9c-4.66,5.41-8.96,11.2-12.42,17.44-17.28,31.1-49.93,86.47-49.93,86.47l-17.68-.24s9.36-18.42,14.33-27.47c7.05-12.82,14.7-25.29,21.98-37.98,5.61-9.77,11.17-19.58,16.72-29.38,3.2-5.65,9.56-16.96,9.56-16.96l-78.11-72.62-17.68,62.35-8.84,3.58Z" style="stroke:#55a; stroke-linecap:round; stroke-linejoin:round; stroke-width:2px;"/><path id="uuid-2e88c2eb-14f7-4ff1-830d-76aee8ad957d" d="m220.04,392.08l18.71-16.58,7.5-5.5,38.65-27.76,8.12-6.12,7.5-5,28.74,14.38" style="fill:none; stroke:#55a; stroke-linecap:round; stroke-linejoin:round; stroke-width:2px;"/><path id="uuid-a58650cd-8614-4dc0-b689-c1f70920392f" d="m301.35,331.4c-3.23-2.02-9.1-6.9-9.1-6.9,0,0-1.44,1.89-2.5,2-1.85.2-4.35-.75-5-2.5-.76-2.03,1.71-3.98,2.5-6,.86-2.2,1.98-4.33,2.44-6.65.72-3.63.88-7.41.47-11.09-.41-3.7-2.83-7.05-2.91-10.77-.03-1.54-.26-3.63,1-4.5,1.94-1.34,7,1,7,1l26.5-12.5c-9.14-5.57-14.78-10.24-22.5-14.79-7.22-4.56-20-14.21-20-14.21,0,0-6.72,8.29-10,12.5-5.42,6.94-10.21,14.37-16,21-4.03,4.61-8.45,8.9-13,13-5.1,4.6-11.63,7.69-16,13-3.84,4.66-6.86,10.19-8.5,16-1.45,5.14-2.41,10.84-1,16,1.64,6.02,6.4,10.79,10.5,15.5,6.06,6.96,20.56,18.53,20.56,18.53l-5.5,4s-13.42-9.94-19.06-16.03c-5.44-5.87-11.55-11.88-14-19.5-1.87-5.81-1.17-12.33,0-18.32,1.19-6.07,3.44-12.12,7-17.18,3.74-5.31,9.39-8.99,14.5-13,3.02-2.37,6.58-4.01,9.5-6.5,5.91-5.06,11.07-10.98,16-17,4.92-6.01,9.21-12.52,13.5-19,2.81-4.24,8-13,8-13l52,35-16,28,11,13-10.5,8,15,26s-17.7-7.97-25.9-13.1Z" style="fill:#ff5; stroke:#55a; stroke-linecap:round; stroke-linejoin:round; stroke-width:2px;"/><path id="uuid-1aeefd87-a682-43bf-b092-25d05adfd639" d="m292.75,324s2.62-6.46,3.32-9.85c1.06-5.1,1.61-10.38,1.29-15.59-.26-4.27-2.62-12.56-2.62-12.56" style="fill:none; stroke:#55a; stroke-linecap:round; stroke-linejoin:round; stroke-width:2px;"/><path id="uuid-a7f45e7a-b3a6-4bed-aaa1-e0d1627919ec" d="m282.53,328.01c2.69-.15,5.65-.23,8.01,1.08,3.06,1.7,4.62,5.27,6.68,8.11,0,0-5.97.61-8.81-.15-2.43-.66-4.49-2.32-6.6-3.7-1.79-1.17-5.1-3.87-5.1-3.87,0,0,3.82-1.35,5.82-1.47Z" style="fill:#ff5; stroke:#55a; stroke-linecap:round; stroke-linejoin:round; stroke-width:2px;"/><path id="uuid-15d8faaf-3db4-4000-bf80-082e582f4cfc" d="m294.75,350.5s-1.4-4-2.8-5.51c-2.17-2.35-5.4-3.44-8.2-4.99-3.59-1.98-8.01-2.7-11-5.5-3.04-2.85-6.3-10.79-6.3-10.79,3.03.56,5.17,2.26,8.2,1.99,0,0,2.52,4.64,4.5,6.3,2.38,1.99,5.6,2.66,8.4,4,2.57,1.23,5.45,1.95,7.7,3.7,1.64,1.28,3.14,2.9,3.99,4.8.9,2,1,6.5,1,6.5l-5.5-.5Z" style="fill:#ff5; stroke:#55a; stroke-linecap:round; stroke-linejoin:round; stroke-width:2px;"/><path id="uuid-081496af-0006-48d3-a809-9c618cc24029" d="m305.9,333.33l-9.15-17.84,6.54-7.25-5.54-10.24,8.1-16.2,8.79-3.7-10.2,19.39,6.3,11.5-7.3,7.7,10.93,20.5-8.48-3.87Z"/><path id="uuid-dd0dd94c-3d78-4c89-92b3-b285187f9156" d="m302.37,370.15s3.98,5.45,3.38,8.42c-.5,2.45-2.89,4.63-5.3,5.31-1.88.53-4.23-.08-5.7-1.37-1.75-1.53-2.52-4.18-2.5-6.5.01-1.8,2-5,2-5,0,0-4.04,3.54-6.5,3.5-2.32-.04-4.85-1.49-6-3.5-1.08-1.88-.63-4.43,0-6.5.52-1.73,1.33-3.83,3-4.5,2.94-1.18,9.28,2.06,9.28,2.06,0,0-2.7-5.95-1.59-8.66.77-1.88,2.97-3.48,5-3.5,3-.03,6.31,2.24,7.5,5,.95,2.2-1.2,7.1-1.2,7.1,0,0,5.08-2.3,7.5-1.5,2.13.71,4.36,2.76,4.5,5,.17,2.86-2.24,6.09-4.94,7.05-2.76.98-8.44-2.4-8.44-2.4h0Z" style="fill:#ff5; stroke:#55a; stroke-linecap:round; stroke-linejoin:round; stroke-width:2px;"/><path id="uuid-945dfea2-e4f2-404e-aa2f-8a0cdd23bfe3" d="m306.75,366.5c-3.29,2.16-6.72,3.99-9,8.5-2.26-4.68-4.9-6.67-7.5-9,2.61-1.28,5.21-2.62,8-8.5,1.96,3.26,3.22,6.73,8.5,9Z" style="fill:none; stroke:#55a; stroke-linecap:round; stroke-linejoin:round; stroke-width:2px;"/><path id="uuid-a1834fbb-4aa4-4814-80be-6f6b2198d1aa" d="m304.44,371.69l7.95,3.34,1.62,7.21-6.97-2.56-2.6-7.98Z" style="fill:#f55; stroke:#55a; stroke-linecap:round; stroke-linejoin:round; stroke-width:2px;"/><path id="uuid-6c97673e-75ff-4514-afc0-0dc8475c2040" d="m292.75,373l-1.98,7.72-7.52,3.28,2.5-8.5,7-2.5Z" style="fill:#f55; stroke:#55a; stroke-linecap:round; stroke-linejoin:round; stroke-width:2px;"/><path id="uuid-2c48989b-60a4-41e3-8584-5d0528214ce4" d="m292.98,361.64l-1.23-7.14-8-4,1.5,8.5,7.73,2.64Z" style="fill:#f55; stroke:#55a; stroke-linecap:round; stroke-linejoin:round; stroke-width:2px;"/><path id="uuid-03c39ac7-f325-4bdf-8c2f-2de0d781eed7" d="m303.7,362.26l8.35-3.27,1.61-7.7-7.91,3.21-2.05,7.76Z" style="fill:#f55; stroke:#55a; stroke-linecap:round; stroke-linejoin:round; stroke-width:2px;"/><path id="uuid-e5404878-d8c0-460a-9f96-19c9046225d3" d="m285.13,321.82c-3.74,1.5-7.63,3.43-11.66,3.27-5.19-.2-10.14-2.76-14.63-5.36-1.97-1.14-5.05-2.12-5.23-4.39-.16-1.96,1.97-3.91,3.86-4.47,2.47-.73,4.91,1.64,7.43,2.17,2.42.51,9.34,1.12,7.35.96-4.73-.38-9.74-1.18-13.7-3.78-1.6-1.05-3.69-2.57-3.59-4.48.08-1.71,1.93-3.25,3.59-3.67,3.34-.84,6.44,2.64,9.85,3.1,1.6.22,6.5-.16,4.85-.17-4.09-.02-8.52-.73-11.89-3.05-1.45-.99-3.57-2.62-3.05-4.3.63-2.05,3.9-1.99,6.03-2.25,4.8-.6,10.59,1.91,14.42,1.6-4.77-.19-6.96-.22-10.02-1.65-1.66-.78-4.39-1.77-4.17-3.59.24-1.96,3.35-2.3,5.29-2.67,2.93-.57,5.95,1,8.93.74,2.39-.21,4.69-1.09,6.97-1.83" style="fill:none; stroke:#55a; stroke-linecap:round; stroke-linejoin:round; stroke-width:2px;"/><path id="uuid-a2f06fe2-696b-49a5-8094-9a969ec9871b" d="m265.75,324.5c1.82,3.29,2.68,7.24,2.5,11-.16,3.16-2.21,5.94-3,9-.68,2.63-1.5,8-1.5,8,0,0-4.15-6.72-5-10.5-.7-3.09-.54-6.38,0-9.5.42-2.44,1.46-4.75,2.5-7,.56-1.22,2-3.5,2-3.5,0,0,1.93,1.47,2.5,2.5Z" style="fill:#ff5; stroke:#55a; stroke-linecap:round; stroke-linejoin:round; stroke-width:2px;"/><g id="uuid-62ff3f63-ffef-4e88-a53a-262883f89c04"><path id="uuid-c0d071d2-04f7-473b-aaac-94620c0a0c39" d="m237,335l-13.5,5.75,5.25-15.25s-.05,3.47,1.19,4.28c1.07.7,3.81-.53,3.81-.53,0,0-1.73,3.44-.84,4.79.77,1.17,4.09.96,4.09.96Z" style="fill:#55a; stroke:#55a; stroke-linecap:round; stroke-linejoin:round; stroke-width:2px;"/><path id="uuid-6a191b1b-79e0-498f-bb14-b4410ef1ab89" d="m227.82,342.81c.31.06.52.66.31.89-.21.22-.81.06-.9-.23-.09-.28.3-.72.59-.66Z" style="fill:none; stroke:#55a; stroke-linecap:round; stroke-linejoin:round; stroke-width:2px;"/><path id="uuid-100010cf-2850-4941-afa7-47f0ab015c30" d="m221.55,335.99c.24.18.21.69-.03.87-.2.15-.62.06-.76-.15-.11-.17,0-.44.14-.57.16-.15.48-.28.65-.14h0Z" style="fill:none; stroke:#55a; stroke-linecap:round; stroke-linejoin:round; stroke-width:2px;"/></g><path id="uuid-7db0a5b0-ec4c-4936-aeb5-c2c97812198c" d="m144.25,282l45.5,42.75,16.64-.1c1.44-10.69,4.18-16.19,9.11-23.9l-15.5-1.25-19.25-17.75" style="fill:#ff5; stroke:#55a; stroke-linecap:round; stroke-linejoin:round; stroke-width:2px;"/><path id="uuid-aa0d8065-ead8-481b-9e44-6d2115f803d1" d="m191.56,321l14.56.03.41-3-14.44-.07-37.84-36.31c-.57-.55-1.59-.53-2.14.05-.55.57-.53,1.59.05,2.14l38.31,36.75c.29.27.69.42,1.09.41h0Z" style="fill:#000200;"/><path id="uuid-2c37081a-28fe-4e10-9ad9-f13ccce8932e" d="m209.25,311.96l-14,.04-31.5-29.5" style="fill:none; stroke:#55a; stroke-linecap:round; stroke-linejoin:round; stroke-width:2px;"/><path id="uuid-bba8ff86-2dc6-4bb1-bef1-1659e8e91a70" d="m210.68,306.88l1.66-2.77-13.72-.33-22.34-21.59c-.52-.7-1.68-.77-2.28-.15s-.49,1.78.22,2.28l22.75,22.03c.26.26.63.42,1,.44l12.71.1Z" style="fill:#000200;"/><path id="uuid-bb72d1bf-2bc8-41e4-b24e-8c4b52518a16" d="m238.75,281.75l-139.5.5" style="fill:none; stroke:#55a; stroke-linecap:round; stroke-linejoin:round; stroke-width:2px;"/><path id="uuid-341f9eb3-71f0-481c-99d1-e7deaff3847c" d="m65.01,373.24c2.42-1.18,4.34-3.13,6.34-4.85,4.35-4.93,7.71-12.66,6.41-19.41-.63-2.7-2.08-5.09-3.47-7.45-.15-2.88-.54-6.36,1.56-8.66,1.75-1.63,5.84,1.93,5.76-1.75-1.3-2.2-4.68-2.13-6.75-1.02-2.27.41-3.44,4.79-3.62,4.87-.99-4.45-1.65-9-1.61-13.56.92-3.46,2.87-5.5,5.47-7.21,3.04-1.67,6.29,1.02,7.15,3.94-.17,2.15,3.18,4.28,3.55,1.26-.93-3.56-2.94-7.65-6.9-8.49-3.06-.94-6.46.66-8.17,3.25,1.33-3.43,2.96-7.62.64-11.01-1.36-2.42-7.65-4.77-8.07-.96,1.33,1.98,5.36.33,6.07,3.58.71,2.65-.87,5.21-1.6,7.71-1.63,3.96-1.11,9.57-.96,13.74.49,6.04,1.61,11.03,5.07,16.14.64,1.14,2.41,3.91,2.01,4.14-2.05-2-5.24-2.28-7.71-.9-2.25.83-6.02,5.55-2.46,6.69,2.12-1.29,3.01-5.56,6.51-4.34,2.61,1.24,5.95,3.48,4.25,6.66-.9,2.97-2.71,10.79-10.18,14.49-1.25,1.02-1.29,3.21.72,3.15h0Z" style="fill:#fff;"/><g id="uuid-b5145e47-d333-42c6-97bc-cff943b54c8a"><path id="uuid-6ddfdd57-cbda-4a63-bc6c-1e0b5179acce" d="m221.47,381.75c5.47.23,11.56-5.39,8.92-10.98-1.03-3.48-6.19-5.43-9-3.04-.83,1.16.59,2.82,1.87,2.18,7.06-1.56,5.13,9.36-.88,8.72-5.54,1.03-7.76-5.1-8.94-9.31-1.91-5.2-.77-10.96-2.81-16.16-1.58-7.91-5.67-15.88-13.28-19.46-4.97-3.03-10.9-2.35-16.2-.74-5.56.47-12.09,2.21-16.72-1.99-3.67-2.76-6.36-7.38-5.88-11.94,2.59-3.44,7.68-6.57,11.27-2.48,2.52,2.22-.08,6.2,1.84,8.48,1.3.92,2.85-.68,2.41-2.08.51-4.15-.74-8.95-5.01-10.59-3.78-2.95-9.21,1.62-10.82,2.02-.56-5.75-2-11.6-4.71-16.71-3.68-6.23-11.76-5.82-17.95-4.86-3.65,2.12-12.72,2.96-12.92-2.61,1.16-3.66,4.46-1.62,6.94-1.49,1.64-.54,1.05-2.98-.57-3.07-5.5-3.86-13.1,4.87-7.77,9.3,2.95,3.21,10.63,2.19,11.8,2.52-3.51,4.94,0,12.12,5.75,13.08,3,.75,6.93-1.03,8.35-3.73.21-1.76-2.22-2.18-3.08-.84-4.25,4.82-12.32-1.97-8.48-7,2.17-3.76,6.55-4.24,10.38-3.26,6.38,1.46,6.92,9.09,8.6,14.24,1.54,6.58-.49,14.34,4.44,19.84,3.72,5.1,10.18,8.07,16.48,6.8,2.53.04,8.14-1.95,4.4,1.86-3.01,5.15-1.7,13.22,4.56,15.24,2.4.54,4.6,2.08,6.94,2.29,4,2.29,11.29,1.25,11.87,7.31,1.02,2.85-2.5,4.2-2.46,6.63.53,1.81,3.12,1.07,3.59-.46,3.93-4.68,1.4-13.1-4.89-14.08-2.29-.71-6.26-.88-2.38-2.81,3.13-2.55,1.65-8.56-1.91-9.91-1.77-.14-2.12,2.48-.52,3.04,4.14,6.01-5.83,8.7-9.69,4.91-5.08-2.2-4.2-9.37-1.06-12.89,1.89-4.54,7.78-3.42,11.3-1.7,7.25,3.05,10.99,10.56,12.49,17.88,2.06,5.82.73,12.22,3.29,17.93,1.28,4.94,4.73,10.16,10.45,9.92h0Z" style="fill:#fff;"/><path id="uuid-d2571df7-d651-40ab-b8cb-0da9fc56b3b5" d="m216.24,362.37c0-1.1,1.01-2,2.25-2s2.25.9,2.25,2-1.01,2-2.25,2-2.25-.9-2.25-2Z" style="fill:#fff;"/><path id="uuid-b6c2ff02-be30-4d76-a418-e5a51a16b4ea" d="m170.7,342.88c0-1.1,1.01-2,2.25-2s2.25.9,2.25,2-1.01,2-2.25,2-2.25-.9-2.25-2Z" style="fill:#fff;"/><path id="uuid-c907c704-0789-4296-95ff-05ab085c97c3" d="m177.69,325.69c0-1.1,1.01-2,2.25-2s2.25.9,2.25,2-1.01,2-2.25,2-2.25-.9-2.25-2Z" style="fill:#fff;"/><path id="uuid-34620e9a-8761-45f4-8563-83eb2806be16" d="m145.63,317.82c0-1.1,1.01-2,2.25-2s2.25.9,2.25,2-1.01,2-2.25,2-2.25-.9-2.25-2Z" style="fill:#fff;"/></g><path id="uuid-2d061858-5096-44fc-a801-3d2199d49246" d="m184.39,382.76s-.55-3.6-.14-5.33c.5-2.08,1.76-3.94,3.04-5.66.59-.79,2.12-1.09,2.1-2.07-.03-1.56-1.91-3.21-3.47-3.13-1.76.08-2.91,2.26-3.58,3.89-.85,2.1-.6,4.57-.2,6.8.35,1.95,2.24,5.51,2.24,5.51h0Z" style="fill:#ff5;"/><path id="uuid-2501017c-767a-4291-80a9-53211dd58ee2" d="m179,378.29s-1.02-2.32-1-3.57c.03-1.5.69-2.99,1.38-4.39.32-.64,1.44-1.14,1.26-1.8-.29-1.04-2-1.8-3.18-1.45-1.33.39-1.85,2.08-2.09,3.3-.3,1.58.3,3.19.99,4.62.6,1.25,2.64,3.28,2.64,3.28Z" style="fill:#ff5;"/><path id="uuid-be8154b5-7539-4520-ae4b-a2317f4de3fa" d="m174.11,373.44s-1.02-2.32-1-3.57c.03-1.5.69-2.99,1.38-4.39.32-.64,1.44-1.14,1.26-1.8-.29-1.04-2-1.8-3.18-1.45-1.33.39-1.85,2.08-2.09,3.3-.3,1.58.3,3.19.99,4.62.6,1.25,2.64,3.28,2.64,3.28Z" style="fill:#ff5;"/><path id="uuid-fe0763dd-b829-49bd-87dd-b5783458ec34" d="m198.59,392.38s-.37-1.76-.09-2.6c.33-1.01,1.19-1.92,2.05-2.76.4-.38,1.43-.53,1.42-1.01-.02-.76-1.29-1.56-2.34-1.53-1.19.04-1.97,1.1-2.41,1.9-.58,1.02-.41,2.23-.13,3.31.24.95,1.51,2.68,1.51,2.68h0Z" style="fill:#ff5;"/><path id="uuid-81d6da66-07de-4c1c-8c8f-b66f412aa9c0" d="m194.92,392.14s-1.02-2.32-1-3.57c.03-1.5.69-2.99,1.38-4.39.32-.64,1.44-1.14,1.26-1.8-.29-1.04-2-1.8-3.18-1.45-1.33.39-1.85,2.08-2.09,3.3-.3,1.58.3,3.19.99,4.62.6,1.25,2.64,3.28,2.64,3.28Z" style="fill:#ff5;"/><path id="uuid-2ca3ecf7-9394-420b-8c9a-2a6b65c25151" d="m190.03,387.29s-1.02-2.32-1-3.57c.03-1.5.69-2.99,1.38-4.39.32-.64,1.44-1.14,1.26-1.8-.29-1.04-2-1.8-3.18-1.45-1.33.39-1.85,2.08-2.09,3.3-.3,1.58.3,3.19.99,4.62.6,1.25,2.64,3.28,2.64,3.28Z" style="fill:#ff5;"/><path id="uuid-827cc0f5-f5c0-416e-8d4e-b07c09836ec3" d="m168.11,367.9s-.55-3.73-.14-5.52c.5-2.16,1.76-4.09,3.04-5.86.59-.82,2.12-1.13,2.1-2.15-.03-1.61-1.91-3.32-3.47-3.25-1.76.08-2.91,2.34-3.58,4.03-.85,2.18-.6,4.73-.2,7.04.35,2.02,2.24,5.7,2.24,5.7h0Z" style="fill:#ff5;"/><path id="uuid-200f5154-f5d3-438a-aa5b-90fda2e74de0" d="m162.72,363.43s-1.02-2.32-1-3.57c.03-1.5.69-2.99,1.38-4.39.32-.64,1.44-1.14,1.26-1.8-.29-1.04-2-1.8-3.18-1.45-1.33.39-1.85,2.08-2.09,3.3-.3,1.58.3,3.19.99,4.62.6,1.25,2.64,3.28,2.64,3.28Z" style="fill:#ff5;"/><path id="uuid-5dfd2c05-ad20-421f-afc3-760ce92fd5be" d="m157.83,358.59s-1.02-2.32-1-3.57c.03-1.5.69-2.99,1.38-4.39.32-.64,1.44-1.14,1.26-1.8-.29-1.04-2-1.8-3.18-1.45-1.33.39-1.85,2.08-2.09,3.3-.3,1.58.3,3.19.99,4.62.6,1.25,2.64,3.28,2.64,3.28Z" style="fill:#ff5;"/><path id="uuid-33c4fd3f-3762-4aa5-8387-a4b9a1284442" d="m152.23,353.76s-.55-3.6-.14-5.33c.5-2.08,1.76-3.94,3.04-5.66.59-.79,2.12-1.09,2.1-2.07-.03-1.56-1.91-3.21-3.47-3.13-1.76.08-2.91,2.26-3.58,3.89-.85,2.1-.6,4.57-.2,6.8.35,1.95,2.24,5.51,2.24,5.51h0Z" style="fill:#ff5;"/><path id="uuid-1f985713-9215-4d1a-99d8-6d107701f0f4" d="m148,349.45s-1.02-2.32-1-3.57c.03-1.5.69-2.99,1.38-4.39.32-.64,1.44-1.14,1.26-1.8-.29-1.04-2-1.8-3.18-1.45-1.33.39-1.85,2.08-2.09,3.3-.3,1.58.3,3.19.99,4.62.6,1.25,2.64,3.28,2.64,3.28Z" style="fill:#ff5;"/><path id="uuid-a63c4281-fa1c-4741-9a6e-0dd1f5d5d8ed" d="m143.7,345.47s-1.02-2.32-1-3.57c.03-1.5.69-2.99,1.38-4.39.32-.64,1.44-1.14,1.26-1.8-.29-1.04-2-1.8-3.18-1.45-1.33.39-1.85,2.08-2.09,3.3-.3,1.58.3,3.19.99,4.62.6,1.25,2.64,3.28,2.64,3.28Z" style="fill:#ff5;"/><path id="uuid-aace279a-b8c5-4815-b368-9f3c6851a464" d="m138.24,340.36s-.55-3.6-.14-5.33c.5-2.08,1.76-3.94,3.04-5.66.59-.79,2.12-1.09,2.1-2.07-.03-1.56-1.91-3.21-3.47-3.13-1.76.08-2.91,2.26-3.58,3.89-.85,2.1-.6,4.57-.2,6.8.35,1.95,2.24,5.51,2.24,5.51h0Z" style="fill:#ff5;"/><path id="uuid-0bb7280c-bc31-45d6-a937-1de33d4e96bd" d="m133.72,336.19s-1.02-2.32-1-3.57c.03-1.5.69-2.99,1.38-4.39.32-.64,1.44-1.14,1.26-1.8-.29-1.04-2-1.8-3.18-1.45-1.33.39-1.85,2.08-2.09,3.3-.3,1.58.3,3.19.99,4.62.6,1.25,2.64,3.28,2.64,3.28Z" style="fill:#ff5;"/><path id="uuid-8521b10f-768e-4e98-a21c-595112152405" d="m128.98,331.77s-1.02-2.32-1-3.57c.03-1.5.69-2.99,1.38-4.39.32-.64,1.44-1.14,1.26-1.8-.29-1.04-2-1.8-3.18-1.45-1.33.39-1.85,2.08-2.09,3.3-.3,1.58.3,3.19.99,4.62.6,1.25,2.64,3.28,2.64,3.28Z" style="fill:#ff5;"/><path id="uuid-7ad92269-662a-4c73-9939-add7277e7e9d" d="m123.09,327.97s-.55-3.6-.14-5.33c.5-2.08,1.76-3.94,3.04-5.66.59-.79,2.12-1.09,2.1-2.07-.03-1.56-1.91-3.21-3.47-3.13-1.76.08-2.91,2.26-3.58,3.89-.85,2.1-.6,4.57-.2,6.8.35,1.95,2.24,5.51,2.24,5.51h0Z" style="fill:#ff5;"/><path id="uuid-9c6d0c23-86aa-4a0e-a521-dc84fe3de537" d="m118.71,323.65s-1.02-2.32-1-3.57c.03-1.5.69-2.99,1.38-4.39.32-.64,1.44-1.14,1.26-1.8-.29-1.04-2-1.8-3.18-1.45-1.33.39-1.85,2.08-2.09,3.3-.3,1.58.3,3.19.99,4.62.6,1.25,2.64,3.28,2.64,3.28Z" style="fill:#ff5;"/><path id="uuid-41c8900d-0717-4e2d-b44d-d770e14e2b5d" d="m97.4,347.81s-.59-3.34-1.55-4.68c-1.34-1.88-3.76-2.68-5.51-4.18-.43-.37-1.1-.63-1.23-1.18-.21-.92.18-2.15.97-2.66,1.12-.72,2.85-.38,3.98.33,1.92,1.21,2.84,3.69,3.41,5.88.55,2.09-.08,6.49-.08,6.49Z" style="fill:#ff5;"/><path id="uuid-58bc5402-4ab0-4076-ab84-74e291f79808" d="m99.35,340.94s-.84-1.49-1.27-2.23c-.66-1.12-1.19-2.33-2.02-3.33-.64-.78-2.29-1.04-2.23-2.04.08-1.16,1.64-2.13,2.86-2.01,1.38.14,2.13,1.67,2.66,2.86.61,1.38.45,3,.39,4.5-.03.76-.39,2.25-.39,2.25Z" style="fill:#ff5;"/><path id="uuid-0be986e4-0c54-47fa-954f-4e956088804e" d="m101.2,335.96s-.52-2.36-1.11-3.39c-.75-1.32-1.81-2.49-3.01-3.42-.58-.45-1.81-.31-1.97-.98-.24-1.05.91-2.53,2.11-2.79,1.36-.29,2.62.94,3.41,1.91,1.02,1.24,1.25,2.95,1.33,4.53.07,1.38-.76,4.14-.76,4.14h0Z" style="fill:#ff5;"/><path id="uuid-da0e44fb-56fb-46aa-964b-c3a457790e55" d="m102.36,328.74s-.59-3.34-1.55-4.68c-1.34-1.88-3.76-2.68-5.51-4.18-.43-.37-1.1-.63-1.23-1.18-.21-.92.18-2.15.97-2.66,1.12-.72,2.85-.38,3.98.33,1.92,1.21,2.84,3.69,3.41,5.88.55,2.09-.08,6.49-.08,6.49Z" style="fill:#ff5;"/><path id="uuid-7298a662-e165-4409-b190-9474d28f407e" d="m94.15,357.75s-.64-1.42-.97-2.13c-.35-.74-.65-1.51-1.1-2.19-.71-1.08-2.64-1.7-2.49-2.98.11-.88,1.25-1.67,2.14-1.58,1.19.11,1.95,1.55,2.43,2.65.56,1.27.41,2.77.35,4.16-.03.7-.36,2.08-.36,2.08h0Z" style="fill:#ff5;"/><path id="uuid-90df087c-057e-41ec-af19-0f408eb7877f" d="m95.21,351.61s-.44-1.81-.94-2.6c-.63-1.01-1.52-1.91-2.54-2.62-.49-.34-1.52-.24-1.65-.75-.21-.81.76-1.94,1.77-2.14,1.14-.22,2.2.72,2.87,1.46.86.95,1.05,2.26,1.12,3.47.06,1.06-.64,3.18-.64,3.18h0Z" style="fill:#ff5;"/><path id="uuid-9a533ff0-8654-44c1-ad13-e0ce7472e23f" d="m92.3,363.58s-.54-3.08-1.42-4.31c-1.23-1.73-3.45-2.47-5.05-3.85-.4-.34-1.01-.58-1.13-1.09-.19-.85.16-1.98.89-2.45,1.03-.66,2.62-.35,3.65.31,1.76,1.12,2.6,3.4,3.13,5.42.5,1.93-.07,5.98-.07,5.98h0Z" style="fill:#ff5;"/><path id="uuid-22064f78-a881-42c7-9cca-356863fed2f9" d="m89.23,373.51s-.8-1.37-1.17-2.06c-.47-.88-.73-1.88-1.33-2.67-.69-.91-2.62-1.16-2.55-2.3.06-1.07,1.5-1.97,2.62-1.86,1.27.13,1.95,1.55,2.43,2.65.56,1.27.41,2.77.35,4.16-.03.7-.36,2.08-.36,2.08Z" style="fill:#ff5;"/><path id="uuid-3fcb8da5-2504-44e1-96d9-40e8504c76e7" d="m90.49,367.68s-.44-1.81-.94-2.6c-.63-1.01-1.52-1.91-2.54-2.62-.49-.34-1.52-.24-1.65-.75-.21-.81.76-1.94,1.77-2.14,1.14-.22,2.2.72,2.87,1.46.86.95,1.05,2.26,1.12,3.47.06,1.06-.64,3.18-.64,3.18h0Z" style="fill:#ff5;"/><path id="uuid-18880070-b7e9-400d-b75f-c16451eac2a0" d="m88.17,381.66s-.59-3.34-1.55-4.68c-1.34-1.88-3.76-2.68-5.51-4.18-.43-.37-1.1-.63-1.23-1.18-.21-.92.18-2.15.97-2.66,1.12-.72,2.85-.38,3.98.33,1.92,1.21,2.84,3.69,3.41,5.88.55,2.09-.08,6.49-.08,6.49Z" style="fill:#ff5;"/><path id="uuid-77fe6f64-759c-428e-a79a-1ba0b17d2583" d="m84.82,388.95s-.94-.5-1.35-.83c-.59-.48-1.03-1.13-1.57-1.67-.66-.65-2.03-.96-2.04-1.89,0-.72.85-1.49,1.57-1.49,1.19,0,2.02,1.39,2.61,2.42.3.53.27,1.19.4,1.79.12.56.37,1.67.37,1.67Z" style="fill:#ff5;"/><path id="uuid-a40a37af-9a5f-4322-994f-c67865c94fdf" d="m85.97,385.46s-.44-1.81-.94-2.6c-.63-1.01-1.52-1.91-2.54-2.62-.49-.34-1.52-.24-1.65-.75-.21-.81.76-1.94,1.77-2.14,1.14-.22,2.2.72,2.87,1.46.86.95,1.05,2.26,1.12,3.47.06,1.06-.64,3.18-.64,3.18h0Z" style="fill:#ff5;"/><path id="uuid-8b02bf2a-0196-4b44-a961-54ad6cc588d7" d="m106,316.5c3.64-.03,6.29-2.83,7.91-6.06s2.4-7.07,2.34-10.22c-.05-3.11-.95-6.84-2.66-9.97s-4.4-5.82-8-5.75c-3.58.07-6.13,2.86-7.69,6.03s-2.31,6.9-2.28,9.97c.03,3.1.86,6.88,2.5,10.06s4.26,5.96,7.88,5.94Zm0-3c-2.05.01-3.85-1.62-5.22-4.28s-2.13-6.16-2.16-8.72c-.02-2.53.66-6,1.97-8.66s3.04-4.3,5.06-4.34c2.04-.04,3.86,1.57,5.28,4.19s2.27,6.06,2.31,8.59c.04,2.57-.68,6.11-2.03,8.81s-3.15,4.39-5.22,4.41Z" style="fill:#ff5;"/><path id="uuid-796369b4-2b0c-483f-8a82-1c537fdb2d5f" d="m107.25,300s2.48,1.94,3.75,1.5c.63-.22,1.09-1.08,1-1.75-.12-.88-.99-1.81-1.88-1.88-1.19-.09-2.88,2.12-2.88,2.12Z" style="fill:#ff5;"/><path id="uuid-327c098a-7ec7-44e5-b13b-5ae37bf3f26c" d="m104.62,300.25s-1.07,2.21-2.12,2.5c-.89.25-2.34,0-2.62-.88-.27-.82.7-1.79,1.5-2.12,1.01-.43,3.25.5,3.25.5Z" style="fill:#ff5;"/><path id="uuid-832eeb8e-332e-4038-b575-c1fc5573ecbe" d="m106.5,302.62s3.37,2.14,3.5,3.88c.11,1.5-1.01,3.56-2.5,3.75-1.43.19-2.96-1.46-3.25-2.88-.35-1.72,2.25-4.75,2.25-4.75Z" style="fill:#ff5;"/><path id="uuid-33c5b476-bdb4-44f9-82ee-4b51ba0cac58" d="m106.25,297.62s2.08-3.31,1.62-5c-.29-1.08-1.38-2.31-2.5-2.25-1.44.08-2.9,1.8-2.88,3.25.03,1.83,3.75,4,3.75,4Z" style="fill:#ff5;"/><g id="uuid-0e4a3b28-4d74-4cb3-b2b1-2147fac95ad3"><path id="uuid-5af0bc0f-3625-4207-8cc3-2471027d0dfc" d="m242.79,308.01l-14.26,6.87,6.47-14.98s-1.08,3.27-.04,4.2c1.18,1.06,4.73-.52,4.73-.52,0,0-1.54,3-.69,4.09.77,1,3.79.33,3.79.33h0Z" style="fill:#55a; stroke:#55a; stroke-linecap:round; stroke-linejoin:round; stroke-width:2.02px;"/><path id="uuid-96befce6-c8d8-4184-9d54-c3445d88b350" d="m232.85,316.9c.31.06.52.65.31.87-.21.22-.81.06-.9-.23-.09-.28.3-.7.59-.65Z" style="fill:none; stroke:#55a; stroke-linecap:round; stroke-linejoin:round; stroke-width:2.02px;"/><path id="uuid-83216702-9f6e-4a32-9c2f-abd67b19a231" d="m226.58,310.2c.24.18.21.68-.03.85-.2.15-.62.06-.76-.15-.11-.16,0-.43.14-.56.16-.15.48-.27.65-.14h0Z" style="fill:none; stroke:#55a; stroke-linecap:round; stroke-linejoin:round; stroke-width:2.02px;"/></g><g id="uuid-b1f184ae-64d6-4e7c-b21e-07e6b7d9c9a9"><path id="uuid-0098ffa9-9369-4f52-a4d9-d7b73f7fee2d" d="m252.11,322.14l-13.5,5.75,5.25-15.25s-.05,3.47,1.19,4.28c1.07.7,3.81-.53,3.81-.53,0,0-1.73,3.44-.84,4.79.77,1.17,4.09.96,4.09.96Z" style="fill:#55a; stroke:#55a; stroke-linecap:round; stroke-linejoin:round; stroke-width:2px;"/><path id="uuid-c11bf4e0-cd3e-4bca-811b-ca5e7d2a76f6" d="m242.93,329.95c.31.06.52.66.31.89-.21.22-.81.06-.9-.23-.09-.28.3-.72.59-.66Z" style="fill:none; stroke:#55a; stroke-linecap:round; stroke-linejoin:round; stroke-width:2px;"/><path id="uuid-aed493e5-bc6a-46a2-991b-b3c73cb167cb" d="m236.65,323.13c.24.18.21.69-.03.87-.2.15-.62.06-.76-.15-.11-.17,0-.44.14-.57.16-.15.48-.28.65-.14h0Z" style="fill:none; stroke:#55a; stroke-linecap:round; stroke-linejoin:round; stroke-width:2px;"/></g><g id="uuid-6654d9bf-f14d-4fbd-993d-5f7fe9e34fde"><path id="uuid-043b4edc-bda7-41ff-9b39-e3d6ad0c769a" d="m266.56,285.42l-13.49,7.52,4.13-14.19s-.29,3.37.93,3.98c1.51.76,4.64-2.02,4.64-2.02,0,0-2.38,3.49-1.37,4.81,1.05,1.36,5.15-.1,5.15-.1Z" style="fill:#55a; stroke:#55a; stroke-linecap:round; stroke-linejoin:round; stroke-width:2.34px;"/><path id="uuid-b55ff62b-f473-4bf0-83c6-49dc4e21ed87" d="m255.65,294.74c.24.06.41.61.24.83-.17.21-.64.06-.71-.22-.07-.26.24-.67.47-.61Z" style="fill:none; stroke:#55a; stroke-linecap:round; stroke-linejoin:round; stroke-width:2.34px;"/><path id="uuid-af49f160-0a44-4ae7-bfde-54149df7924c" d="m250.54,288.92c.18.17.16.64-.02.81-.16.14-.49.05-.6-.14-.09-.15,0-.4.11-.53.12-.14.38-.26.51-.13h0Z" style="fill:none; stroke:#55a; stroke-linecap:round; stroke-linejoin:round; stroke-width:2.34px;"/></g><g id="uuid-f3d5fcf5-e655-48f8-b1a9-40972331d2e7"><path id="uuid-c89fbfb6-4bb1-4962-806f-ffca13ddd7e3" d="m303.02,273.71l-13.5,5.75,5.25-15.25s-.05,3.47,1.19,4.28c1.07.7,3.81-.53,3.81-.53,0,0-1.73,3.44-.84,4.79.77,1.17,4.09.96,4.09.96Z" style="fill:#55a; stroke:#55a; stroke-linecap:round; stroke-linejoin:round; stroke-width:2px;"/><path id="uuid-e84fa384-3e5e-44b0-86e0-1a86c0e40245" d="m293.84,281.51c.31.06.52.66.31.89-.21.22-.81.06-.9-.23-.09-.28.3-.72.59-.66Z" style="fill:none; stroke:#55a; stroke-linecap:round; stroke-linejoin:round; stroke-width:2px;"/><path id="uuid-690bca05-b9d7-418a-94a3-6145f9f85734" d="m287.57,274.7c.24.18.21.69-.03.87-.2.15-.62.06-.76-.15-.11-.17,0-.44.14-.57.16-.15.48-.28.65-.14h0Z" style="fill:none; stroke:#55a; stroke-linecap:round; stroke-linejoin:round; stroke-width:2px;"/></g><g id="uuid-842490c0-9f74-4ef7-a452-99c3ec1f950b"><path id="uuid-226e48e1-bfc0-4016-822a-c40baea44518" d="m287.46,262.57l-13.5,5.75,5.25-15.25s-.05,3.47,1.19,4.28c1.07.7,3.81-.53,3.81-.53,0,0-1.73,3.44-.84,4.79.77,1.17,4.09.96,4.09.96Z" style="fill:#55a; stroke:#55a; stroke-linecap:round; stroke-linejoin:round; stroke-width:2px;"/><path id="uuid-f8b8b18c-accf-4dba-9bfc-00cac80710b8" d="m278.28,270.38c.31.06.52.66.31.89-.21.22-.81.06-.9-.23-.09-.28.3-.72.59-.66Z" style="fill:none; stroke:#55a; stroke-linecap:round; stroke-linejoin:round; stroke-width:2px;"/><path id="uuid-df7de8d2-d235-4c12-977d-a7542514884e" d="m272.01,263.56c.24.18.21.69-.03.87-.2.15-.62.06-.76-.15-.11-.17,0-.44.14-.57.16-.15.48-.28.65-.14h0Z" style="fill:none; stroke:#55a; stroke-linecap:round; stroke-linejoin:round; stroke-width:2px;"/></g></g><path id="uuid-2518bfbb-c3d4-4113-a9db-15d6ca514195" d="m59.5,29.5h270v360h0" style="fill:none; stroke:#55a; stroke-width:2px;"/><path id="uuid-38ea79a5-ecd5-4a45-97d4-2d088b743810" d="m29.5,149.5v360h270" style="fill:none; stroke:#55a; stroke-width:2px;"/><path id="uuid-3f6b0ce8-e346-443a-83fc-0a5fccc33bc7" d="m94.5,100.5c1,4,5,14,12,14,9,0,13-8,13-18,0-7-2.58-11.61-5-17-2.58-5.74-6.38-10.86-10-16-4.65-6.6-15-19-15-19,0,0-10.35,12.4-15,19-3.62,5.14-7.42,10.26-10,16-2.42,5.39-5,10-5,17,0,10,4,18,13,18,7,0,11-10,12-14,1-1,1,0,1,1-1,8-1,10-2,16s-4,17-4,17c5-2,15-2,20,0,0,0-3-11-4-17s-1-8-2-16c0-1,0-2,1-1Z"/><path id="uuid-e025dbce-6cc5-4fcf-ba5a-656b14d0ceba" d="m32,117.5c.5,2,2.5,7,6,7,4.5,0,6.5-4,6.5-9,0-3.5-1.29-5.81-2.5-8.5-1.29-2.87-3.19-5.43-5-8-2.32-3.3-7.5-9.5-7.5-9.5,0,0-5.18,6.2-7.5,9.5-1.81,2.57-3.71,5.13-5,8-1.21,2.69-2.5,5-2.5,8.5,0,5,2,9,6.5,9,3.5,0,5.5-5,6-7,.5-.5.5,0,.5.5-.5,4-.5,5-1,8s-2,8.5-2,8.5c2.5-1,7.5-1,10,0,0,0-1.5-5.5-2-8.5s-.5-4-1-8c0-.5,0-1,.5-.5Z"/><path id="uuid-7b3a2e4c-8814-470f-9021-a66dd464c99f" d="m264.5,438.5c-1-4-5-14-12-14-9,0-13,8-13,18,0,7,2.58,11.61,5,17,2.58,5.74,6.38,10.86,10,16,4.65,6.6,15,19,15,19,0,0,10.35-12.4,15-19,3.62-5.14,7.42-10.26,10-16,2.42-5.39,5-10,5-17,0-10-4-18-13-18-7,0-11,10-12,14-1,1-1,0-1-1,1-8,1-10,2-16s4-17,4-17c-5,2-15,2-20,0,0,0,3,11,4,17s1,8,2,16c0,1,0,2-1,1Z"/><path id="uuid-3b883ed4-b133-4e94-927e-d22ef7049bf5" d="m327,421.5c-.5-2-2.5-7-6-7-4.5,0-6.5,4-6.5,9,0,3.5,1.29,5.81,2.5,8.5,1.29,2.87,3.19,5.43,5,8,2.32,3.3,7.5,9.5,7.5,9.5,0,0,5.18-6.2,7.5-9.5,1.81-2.57,3.71-5.13,5-8,1.21-2.69,2.5-5,2.5-8.5,0-5-2-9-6.5-9-3.5,0-5.5,5-6,7-.5.5-.5,0-.5-.5.5-4,.5-5,1-8s2-8.5,2-8.5c-2.5,1-7.5,1-10,0,0,0,1.5,5.5,2,8.5s.5,4,1,8c0,.5,0,1-.5.5Z"/></g></svg>