<?xml version="1.0" encoding="UTF-8"?><svg id="uuid-0c9011fe-8a7f-4cb3-8f49-912b50e116b7" xmlns="http://www.w3.org/2000/svg" viewBox="0 0 359 539"><g id="uuid-e0442e21-51bd-48f7-9151-3c17dd873db3"><path id="uuid-77e65512-388a-423e-80ca-712a094d1bca" d="m29.5,29.5c-5.52,0-10,4.48-10,10v30c0,5.52,4.48,10,10,10,.43,0,.86-.04,1.28-.09,1.71,3.05,4.97,5.09,8.72,5.09v-5c-1.64,0-3.09-.81-4-2.03,2.42-1.82,4-4.7,4-7.97v-30c0-5.52-4.48-10-10-10h0Zm0,5c2.76,0,5,2.24,5,5v30c0,.72-.17,1.38-.44,2-1.27-4.06-5.09-7-9.56-7v-25c0-2.76,2.24-5,5-5Zm-5,35c2.76,0,5,2.24,5,5-2.76,0-5-2.24-5-5Z" style="fill:#f55;"/><path id="uuid-c7802ea1-1dfe-44b8-94e6-28511eed381c" d="m329.5,509.5c5.52,0,10-4.48,10-10v-30c0-5.52-4.48-10-10-10-.43,0-.86.04-1.28.09-1.71-3.05-4.97-5.09-8.72-5.09v5c1.64,0,3.09.81,4,2.03-2.42,1.82-4,4.7-4,7.97v30c0,5.52,4.48,10,10,10h0Zm0-5c-2.76,0-5-2.24-5-5v-30c0-.72.17-1.38.44-2,1.27,4.06,5.09,7,9.56,7v25c0,2.76-2.24,5-5,5Zm5-35c-2.76,0-5-2.24-5-5,2.76,0,5,2.24,5,5Z" style="fill:#f55;"/><g id="uuid-415e4ef5-d8db-482f-9a5d-9b0e5ef964ec"><path id="uuid-931af36a-9172-4a2c-9e75-f04b08f75b07" d="m144.22,248.16l-.5,3.28-.12.81-1.12-1.09-.28.53-3.16-1.41.84,3.72.34,2.91.38,1.22,3.88,2,1.09-2.5,5.59,5.16,2.25,2.09,1-2.91.56-1.62,6.41,6.16,2,1.97,1.19-2.56.69-1.44,5.91,7.22,2.12,2.44,1.53-1.94,1.25-1.56,5.09,6,2.19,2.53,1.19-3.12.28-.72,6.34,6.84,2.66,2.88.78-3.84.12-.59.91,1.12.25-.53,6.25,5.47,2.56,2.22.72-3.31.22-.97,1.09,1.06.06-.22,4.28,3.19,2.66,1.97.5-3.28.12-.81,1.12,1.09.28-.53,3.19,1.41-.62-2.75,1.03.31-1.35-3.21-2.65-2.2-1.88-2-1.09,2.5-5.59-5.16-2.25-2.09-1,2.91-.56,1.62-6.41-6.16-2-1.97-1.19,2.56-.69,1.44-5.91-7.22-1.77-2.35-1.53,1.94-1.25,1.56-5.45-6.09-2.19-2.53-1.19,3.12-.28.72-6.34-6.84-2.66-2.88-.78,3.84-.12.59-.91-1.12-.25.53-6.25-5.47-2.56-2.22-.72,3.31-.22.97-1.09-1.06-.06.22-4.28-3.19-2.66-1.97Z" style="fill:#ff5;"/><path id="uuid-32f8689b-2fa8-473b-983d-d864787c4909" d="m213,192.18l-8.55,73.21,10.07,1.87,20.99-78.16-22.51,3.08Z" style="fill:#55a;"/><path id="uuid-b234ef63-ffd7-4d00-80a2-4d180743159a" d="m123.24,223.78c-2.59,3.54-5.55,6.83-7.78,10.61-1.71,2.91-3.01,6.05-4.24,9.19-1.53,3.92-3.18,7.87-3.89,12.02-.76,4.42.05,8.97-.35,13.44-.55,6.06-2.02,12-2.83,18.03-.57,4.23-1.05,8.48-1.41,12.73-.33,3.76-.47,7.54-.71,11.31,3.18-1.53,6.39-3,9.55-4.6,3.81-1.93,7.84-3.53,11.31-6.01,3.8-2.71,7.46-5.81,10.25-9.55,2.37-3.16,4.06-6.86,5.3-10.61,1.25-3.77,1.86-7.76,2.11-11.73.28-4.46-.14-8.95-.69-13.38-.45-3.58-.89-7.22-2.12-10.61-1.51-4.16-3.88-8-6.36-11.67-1.45-2.15-3.21-4.09-4.95-6.01-1.01-1.11-2.12-2.12-3.18-3.18h0Z" style="fill:#55a;"/><path id="uuid-2c1ea69c-627c-4bff-b629-f14335038c0d" d="m88.76,157.72s10.41,8.1,15.75,11.96c5.22,3.78,10.34,7.73,15.91,10.96,4.22,2.45,8.71,4.44,13.2,6.36,4.01,1.71,8.1,3.25,12.25,4.6,3.37,1.1,10.25,2.83,10.25,2.83l-1.06-8.13s-11.67-3.19-17.32-5.3c-4.35-1.63-8.61-3.51-12.73-5.66-4.03-2.11-7.88-4.55-11.67-7.07-4-2.66-7.81-5.61-11.67-8.49-2.5-1.86-7.42-5.66-7.42-5.66l-5.49,3.6Z" style="fill:#f55;"/><path id="uuid-269080e6-85bc-4a91-8dcf-093c3501c364" d="m29.5,205.5s14.34-12.52,21.75-18.5c6.61-5.34,13.51-10.33,20.25-15.5,4.34-3.33,13-10,13-10,0,0,9.62,7.73,14.5,11.5,3.96,3.05,7.83,6.24,12,9,3.86,2.56,12,7,12,7,0,0-8.39,4.1-12,7-4.78,3.84-8.61,8.76-12.5,13.5-4.69,5.73-9.6,11.42-13,18-4.04,7.82-6.74,16.38-8.5,25-.9,4.42-.76,8.99-1,13.5-.27,5-.14,10.01-.5,15-.33,4.52-.91,9.01-1.5,13.5-.58,4.35-2,13-2,13,0,0-3.89-7.01-7.25-8.75-2.89-1.5-6.5-1.02-9.75-.75-4.11.35-8.23,1.33-12,3-2.2.97-3.89,2.84-6,4-1.44.79-3.06,1.21-4.5,2-1.05.58-3,2-3,2v-103.5Z"/><path id="uuid-e64018a2-c3dd-45f2-8a82-a5d3b90e13f1" d="m158.55,60.64s-10.51,9.83-15.12,15.33c-5.2,6.2-10.21,12.68-14.05,19.8-3.51,6.51-6.11,13.53-8.09,20.65-2.04,7.35-3.83,22.57-3.83,22.57l21.29-10.22s2.14-10.26,4.05-15.12c2.05-5.23,4.75-10.24,7.88-14.9,2.78-4.14,9.58-11.5,9.58-11.5l-1.7-26.62Z" style="fill:#000004;"/><path id="uuid-bbf2e2dc-976a-4931-8adc-532c44ff7802" d="m216.87,29.5l51.39,88.8,8.32-3.64-49.98-85.16h-9.73Z" style="fill:#ff5455;"/><path id="uuid-f4574f3a-0b02-4fbb-8b6e-d0713c692eb2" d="m291.72,29.5c-1.78,8.49-2.76,17.15-2.91,25.83-.2,11.3.99,22.63,3.48,33.65,1.77,7.87,4.21,15.58,7.26,23.04-3.99-.75-8.08-.95-12.13-.61-3.7.32-7.36,1.09-10.87,2.3l-50.17-84.22h65.35" style="fill:#ff5; stroke:#55a; stroke-linecap:round; stroke-linejoin:round; stroke-width:2px;"/><path id="uuid-8a6dbb92-9360-4e67-993b-0ec8d9ab98c5" d="m275.99,170.55c-17.23,8.9-25.11,13-38.67,16.56-15.81,4.15-32.42,6.08-48.76,5.33-14.71-.68-29.53-3.57-43.29-8.8-18.46-7.02-35.06-16.47-51.24-29.76,5.99-4.27,16.42-10.9,25.22-15.28,10.26-5.11,15.87-8.98,31.94-12.76,4.34,2.49,8.5,5.49,13.18,7.31,6.32,2.46,13.04,4.07,19.79,4.77,6.83.71,13.76.15,20.58-.59,6.9-.74,13.85-1.75,20.47-3.86,6.44-2.05,12.1-4.54,18.42-8.43-1.29,17.27-.39,22.17,9.34,31.3,2.17,1.8,13.75,8.99,19.39,7.91,4.92,3.58,1.12,5.1,3.62,6.31h0Z" style="fill:#ffff58;"/><path id="uuid-bfdb550b-1e2e-450d-b5a2-866e414738e4" d="m255.6,53.03c-2.53-1.88-6.23-2.15-8.05-.18-2.11,2.28-1.09,6.92.95,9.26,2.39,2.75,7.65,4.73,10.62,2.61,1.36-.97,1.27-3.54.44-4.99-.41-.73-1.36-1.09-2.27-1.09" style="fill:none; stroke:#000; stroke-linecap:round; stroke-linejoin:round; stroke-width:2.5px;"/><path id="uuid-6a07d4e1-b0f8-4c45-822d-f5eeb82a9931" d="m262.76,70.5c2.03-1.78,1.06-3.64,0-4.87-.87-1.01-2.82-1.31-3.96-.61-2.98,1.85-4.46,6.78-3.17,10.04,1.3,3.29,5.82,6.02,9.25,5.17,2.35-.58,4.67-2.81,3.96-6.09" style="fill:none; stroke:#000; stroke-linecap:round; stroke-linejoin:round; stroke-width:2.5px;"/><path id="uuid-2ffb779c-2420-4561-8129-5712cf4c9a91" d="m261.85,62.59c-.83-1.29-.64-3.67.61-4.57,1.26-.9,3.74-.4,4.57.91.89,1.41.24,4.05-1.22,4.87-1.2.68-3.21-.06-3.96-1.22h0Z" style="fill:none; stroke:#000; stroke-linecap:round; stroke-linejoin:round; stroke-width:2.5px;"/><path id="uuid-80334444-739a-4188-8cf2-ae1d15d5697b" d="m249.98,43.72c.35,2.95-1.56,7.43-4.57,7.91-3.15.5-5.89-3.45-7.12-6.39-1.26-3-1.97-7.55.43-9.74,1.65-1.51,5.15-1.31,6.7.3.84.88,1.09,2.9,0,3.65" style="fill:none; stroke:#000; stroke-linecap:round; stroke-linejoin:round; stroke-width:2.5px;"/><path id="uuid-f2a864f7-a736-459f-865c-26596a2c1dc5" d="m230.2,29.5c.91,5.88,4.28,6.34,7.3,5.7,2.11-.45,3.75-3.6,3.04-5.7" style="fill:none; stroke:#000; stroke-linejoin:round; stroke-width:2.5px;"/><path id="uuid-a3be1b7b-bce0-4b27-b5f2-43eb1e8c3504" d="m241.59,29.5c-1.02,1.69.58,3.17,1.83,3.26,1.37.1,3.01-1.93,2.52-3.26" style="fill:none; stroke:#000; stroke-linejoin:round; stroke-width:2.5px;"/><path id="uuid-d24fae5b-655a-41c6-abbe-e73dec475754" d="m273.72,83.28c-.44-.47-.98-.88-1.59-1.22-1.83-1.01-4.22-1.33-5.84-.35-2.8,1.7-2.47,6.33-1.05,9.01,1.49,2.82,5.39,5.22,8.48,4.43,1.77-.45,3.51-2.8,3.04-4.57-.35-1.32-1.81-3.25-3.65-1.83" style="fill:none; stroke:#000; stroke-linecap:round; stroke-linejoin:round; stroke-width:2.5px;"/><path id="uuid-776386e8-812d-4884-8057-19a9a7a2c2c8" d="m278.89,92.11c-.51-1.32.21-3.44,1.52-3.96,1.3-.52,3.39.48,3.78,1.83.4,1.37-.88,3.26-2.26,3.65-1.09.31-2.63-.46-3.04-1.52h0Z" style="fill:none; stroke:#000; stroke-linecap:round; stroke-linejoin:round; stroke-width:2.5px;"/><path id="uuid-f6d64f21-c2da-4277-a6ef-9883d612599c" d="m279.2,99.72c1.56.45,1.07-3.33,0-4.26-1.16-1.01-3.51-.5-4.57.61-2,2.09-2.02,6.05-.75,8.65,1.35,2.78,4.81,5.97,7.76,5.06,2.52-.78,3.53-3.21,3.03-7.32" style="fill:none; stroke:#000; stroke-linecap:round; stroke-linejoin:round; stroke-width:2.5px;"/><path id="uuid-bd35ca39-c27f-4b24-8659-3179288aae8e" d="m158.19,29.5s.8,19.91,1.25,29.87c.29,6.35.44,12.72.94,19.06.61,7.73.83,15.55,2.5,23.12,1.33,6.01,2.88,12.15,5.94,17.49,2.53,4.42,5.76,8.73,10,11.56,2.46,1.65,5.48,2.58,8.43,2.81,3.79.3,7.68-.56,11.25-1.87,4.56-1.68,8.55-4.67,12.5-7.5,3.66-2.63,6.96-5.73,10.31-8.75,2.57-2.32,7.5-7.18,7.5-7.18" style="fill:none; stroke:#55a; stroke-linejoin:round; stroke-width:2.5px;"/><path id="uuid-5b52f22d-b9ff-4dfc-b541-f89a7d5e8e8f" d="m170.06,29.69s-3.23,4.66-5.31,6.56c-1.66,1.52-5.62,3.75-5.62,3.75" style="fill:none; stroke:#55a; stroke-linecap:round; stroke-linejoin:round; stroke-width:2.5px;"/><path id="uuid-fe9a36c0-cb9c-4b5d-bce7-54a78f45390f" d="m176.62,29.69s-4.32,6.86-7.18,9.68c-2.92,2.88-10,7.18-10,7.18" style="fill:none; stroke:#55a; stroke-linecap:round; stroke-linejoin:round; stroke-width:2.5px;"/><path id="uuid-90ccd269-1d68-4ae9-b710-a02125340eed" d="m183.49,29.69s-7.25,10.41-11.87,14.68c-3.52,3.25-11.87,8.12-11.87,8.12" style="fill:none; stroke:#55a; stroke-linecap:round; stroke-linejoin:round; stroke-width:2.5px;"/><path id="uuid-ec076c0a-b4b3-494a-ad86-9ce467c88260" d="m188.18,29.69s6.7,13.33,12.18,18.12c5.51,4.81,19.68,9.68,19.68,9.68" style="fill:none; stroke:#55a; stroke-linecap:round; stroke-linejoin:round; stroke-width:2.5px;"/><path id="uuid-1321189e-5b67-4b02-bd7d-be118841e7bb" d="m193.8,29.69s5.28,9.82,9.37,13.43c3.53,3.11,12.5,6.56,12.5,6.56" style="fill:none; stroke:#55a; stroke-linecap:round; stroke-linejoin:round; stroke-width:2.5px;"/><path id="uuid-503e190d-b97e-4c1b-9382-e6c06f40e0e9" d="m199.42,29.69s3.19,6.71,5.94,9.06c1.91,1.64,6.87,3.12,6.87,3.12" style="fill:none; stroke:#55a; stroke-linecap:round; stroke-linejoin:round; stroke-width:2.5px;"/><path id="uuid-8c73bae0-bba8-4124-b0fc-37fa239c0412" d="m179.97,67.05s.55,4.05.34,6.07c-.39,3.8-2.01,7.37-2.97,11.07-.63,2.42-1.91,4.78-1.82,7.28.07,1.96.59,4.09,1.86,5.59.85,1,2.51.97,3.48,1.85.82.74,1.83,2.76,1.83,2.76" style="fill:none; stroke:#55a; stroke-linecap:round; stroke-linejoin:round; stroke-width:2px;"/><path id="uuid-0670ce51-ce4d-495b-8a79-f2bd85a434d4" d="m193.13,91.38s3.2,3.6,2.77,5.65c-.27,1.3-1.73,2.34-3.04,2.57-1.68.29-3.22-1.16-4.81-1.79-1.51-.59-3.04-2.59-4.49-1.87-.68.34-1.08,1.64-.57,2.21.62.69,1.81-.39,2.74-.41,3.2-.08,7.04,2.92,9.56.95.87-.68.71-2.21.47-3.29-.35-1.56-2.62-4.01-2.62-4.01h0Z" style="fill:#55a; stroke:#55a; stroke-linecap:round; stroke-linejoin:round; stroke-width:2px;"/><path id="uuid-8e41e925-b5fa-4b8c-8774-0776e1543c3c" d="m220.02,66.11s-8.75-6.25-13.74-7.57c-3.93-1.04-8.24-1.28-12.13-.1-1.57.47-4.15,2.76-4.15,2.76,0,0,3.82-1.38,5.8-1.64,4.01-.52,8.19-.8,12.12.21,4.36,1.12,12.11,6.34,12.11,6.34Z" style="fill:#55a; stroke:#55a; stroke-linecap:round; stroke-linejoin:round; stroke-width:2px;"/><path id="uuid-aca1dfe3-324d-4441-8167-d775989eb36c" d="m160.44,60.06s6.12-2.84,9.27-2.38c3.5.51,9.1,5.48,9.1,5.48,0,0-5.92-4.08-9.34-4.31-3.22-.21-9.23,2.88-9.23,2.88l.2-1.68Z" style="fill:#55a; stroke:#55a; stroke-linecap:round; stroke-linejoin:round; stroke-width:2px;"/><path id="uuid-848e5da3-de0a-4c6d-a116-60a7937e4035" d="m196.59,109.14s-3.93-1.54-6.04-1.67c-1.91-.12-3.77.71-5.68.82-2.18.12-4.45-.74-6.54-.2-.95.25-2.41,1.49-2.41,1.49,0,0,1.7-.1,2.54-.02,2.23.23,4.31,1.45,6.53,1.42,2.45-.03,4.71-1.4,7.16-1.72,1.46-.19,4.44-.12,4.44-.12h0Z" style="fill:#55a; stroke:#55a; stroke-linecap:round; stroke-linejoin:round; stroke-width:2px;"/><path id="uuid-d45951ea-9685-4630-be95-908e9b2fef6c" d="m191.95,114.25s-3.68,1.44-5.62,1.51c-1.66.06-4.88-.94-4.88-.94" style="fill:none; stroke:#55a; stroke-linecap:round; stroke-linejoin:round; stroke-width:2px;"/><path id="uuid-a1c4448f-3efc-41bc-b6c9-97057ba1f7ff" d="m178.17,69.03s-4.79-4.1-9.14-4.14c-4.65-.04-7.39,2.66-7.39,2.66" style="fill:none; stroke:#55a; stroke-linecap:round; stroke-linejoin:round; stroke-width:2px;"/><path id="uuid-34afd744-7707-442d-a623-0d9abcc1600e" d="m218.64,70.66s-9.38-7.14-14.71-7.07c-7.19.1-12.54,4.32-12.54,4.32" style="fill:none; stroke:#55a; stroke-linecap:round; stroke-linejoin:round; stroke-width:2px;"/><path id="uuid-07be740c-a7cf-4773-8499-d840f94c57f4" d="m217.56,72.88c-5.52-.69-7.47-3.85-12.54-4.25-4.35-.34-13.1,1.23-13.1,1.23" style="fill:none; stroke:#55a; stroke-linecap:round; stroke-linejoin:round; stroke-width:2px;"/><path id="uuid-49693093-463b-4f3f-bfc4-745c98192c28" d="m161.12,71.12c5.03-2.65,4.77-3.26,9.85-2.93,6.55.43,8.42,1.21,8.06,1.07" style="fill:none; stroke:#55a; stroke-linecap:round; stroke-linejoin:round; stroke-width:2px;"/><path id="uuid-112548c7-34eb-4465-bb8d-6144ab242bce" d="m214.94,73.81c-4.94,1.29-7.29,2.53-12.89,2.9-4.15.28-9.71-1.03-10.13-5.17" style="fill:none; stroke:#55a; stroke-linecap:round; stroke-linejoin:round; stroke-width:2px;"/><path id="uuid-4395c422-6737-4e6c-b3d3-2ed25def7baf" d="m204.94,69.8c.95,5.13-2.45,7.07-5.81,6.67-2.28-.27-4.42-3.25-3.37-6.2" style="fill:none; stroke:#55a; stroke-linecap:round; stroke-linejoin:round; stroke-width:2px;"/><path id="uuid-89a4f588-4a99-4fbe-870d-fe0e523214fa" d="m198.68,72.65c-.02-.74.61-1.74,1.36-1.77.81-.03,1.68.98,1.63,1.79-.05.75-.97,1.53-1.73,1.47-.65-.05-1.24-.84-1.26-1.48Z" style="fill:#55a; stroke:#55a; stroke-linecap:round; stroke-linejoin:round; stroke-width:2px;"/><path id="uuid-b5683479-4ed8-4417-9e2c-96360bece3ef" d="m171.58,71.84c.01-.73-.82-1.66-1.66-1.63-.74.03-1.43.89-1.35,1.53.08.66,1,1.31,1.76,1.27.61-.04,1.24-.64,1.25-1.17h0Z" style="fill:#55a; stroke:#55a; stroke-linecap:round; stroke-linejoin:round; stroke-width:2px;"/><path id="uuid-393f1977-70a9-4b01-a505-d67efea570dc" d="m177.67,77.68c-1.93,2.52-2.05,4.74-6.1,6.91" style="fill:none; stroke:#55a; stroke-linecap:round; stroke-linejoin:round; stroke-width:2px;"/><path id="uuid-a1ee656f-ef9a-4b7f-a60f-984f8829f5d0" d="m191.86,70.75c1.61,7.2,7.24,9.36,11.68,12.54" style="fill:none; stroke:#55a; stroke-linecap:round; stroke-linejoin:round; stroke-width:2px;"/><path id="uuid-feb0d863-2e82-4219-b976-07fc826c39a6" d="m161.04,73.75c2.71,1.79,6.17,2.83,10.55,2.64,3.25-.14,6.52-2.67,6.54-5.67" style="fill:none; stroke:#55a; stroke-linecap:round; stroke-linejoin:round; stroke-width:2px;"/><path id="uuid-c3e1a7d8-600b-49f1-a82c-6a1b87fcb668" d="m166.14,68.42c-.98,4.98,1.14,7.63,4.94,7.49,1.67-.06,5.04-4.17,2.48-7.99" style="fill:none; stroke:#55a; stroke-linecap:round; stroke-linejoin:round; stroke-width:2px;"/><path id="uuid-a2c2d533-cb47-4ee1-a24f-dceff0327039" d="m191.51,121.14s-3.75-1.23-5.69-1.19c-1.66.03-4.82,1.21-4.82,1.21" style="fill:none; stroke:#55a; stroke-linecap:round; stroke-linejoin:round; stroke-width:2px;"/><path id="uuid-14478eec-6ceb-49cb-b97d-dd535face040" d="m223.92,69.37c-1.85,5.39-5.17,10.82-5.11,16.61.05,5.68,2.29,11.38,5.32,16.18,2.36,3.74,5.62,7.21,9.58,9.16,3.8,1.87,8.37,1.28,12.56,1.92" style="fill:none; stroke:#55a; stroke-linecap:round; stroke-linejoin:round; stroke-width:2.5px;"/><path id="uuid-a0838f97-1797-4392-982d-7e2362a8ca08" d="m227.11,74.91c-.85,3.12-2.31,7.17-2.13,10.86.2,4.22,1.51,8.48,3.62,12.14,1.76,3.04,4.16,5.98,7.24,7.67,2.34,1.28,5.25.99,7.88,1.49" style="fill:none; stroke:#55a; stroke-linecap:round; stroke-linejoin:round; stroke-width:2.5px;"/><path id="uuid-e577a8d3-f5fd-44e3-bdbf-2a8b31562db1" d="m230.73,81.3c-.28,2.27-1.18,4.55-.85,6.81.43,2.99,1.53,6.13,3.62,8.3,1.69,1.76,4.4,2.13,6.6,3.19" style="fill:none; stroke:#55a; stroke-linecap:round; stroke-linejoin:round; stroke-width:2.5px;"/><path id="uuid-23284c35-e74c-435a-ae23-30b8c942180f" d="m250.96,122.18c-.85,3.05-2.35,5.99-2.56,9.16-.25,3.94.26,8.04,1.7,11.71,1.64,4.18,4.4,8,7.67,11.07,1.99,1.88,4.45,3.33,7.03,4.26,1.82.66,3.83.57,5.75.85" style="fill:none; stroke:#55a; stroke-linecap:round; stroke-linejoin:round; stroke-width:2.5px;"/><path id="uuid-74eb07b9-a50c-4259-8da9-f73ab817d8d0" d="m254.58,129.2c-.43,2.27-1.41,4.51-1.28,6.81.18,3.12,1.18,6.26,2.77,8.94,1.3,2.2,3.22,4.08,5.32,5.54,1.33.92,2.98,1.28,4.47,1.92" style="fill:none; stroke:#55a; stroke-linecap:round; stroke-linejoin:round; stroke-width:2.5px;"/><path id="uuid-8190332a-e4ca-4857-b28d-cc11801af79e" d="m160.89,96.2c-3.19,4.33-7.09,8.22-9.58,12.99-2.75,5.25-3.83,11.21-5.75,16.82" style="fill:none; stroke:#55a; stroke-linecap:round; stroke-linejoin:round; stroke-width:2.5px;"/><path id="uuid-3e612cd1-6e34-4d89-838c-33387a1e4e0f" d="m161.96,102.8c-2.06,3.19-4.57,6.14-6.17,9.58-1.73,3.7-2.41,7.81-3.62,11.71" style="fill:none; stroke:#55a; stroke-linecap:round; stroke-linejoin:round; stroke-width:2.5px;"/><path id="uuid-aef8a47e-fbc0-4071-be65-032aeb9e1589" d="m163.45,110.25c-1.06,1.77-2.36,3.43-3.19,5.32-.7,1.58-.99,2.75-1.49,4.95" style="fill:none; stroke:#55a; stroke-linecap:round; stroke-linejoin:round; stroke-width:2.5px;"/><path id="uuid-1325bd93-d76d-4fe0-9337-c05a74851a8b" d="m149.18,125.12c6.61,3.73,14.67,7.61,22.58,9.83,6.55,1.84,13.43,2.55,20.23,2.77,7.75.24,15.56-.42,23.21-1.7,5.21-.87,10.42-2.1,15.33-4.05,4.43-1.76,8.37-4.54,12.56-6.81" style="fill:none; stroke:#55a; stroke-linecap:round; stroke-linejoin:round; stroke-width:2.5px;"/><path id="uuid-fd851298-9953-434c-9490-22635311740a" d="m138.54,130.05c5.82,3.34,11.31,7.33,17.46,10.01,6.13,2.67,12.63,4.53,19.16,5.96,6.15,1.35,12.44,2.33,18.74,2.43,6.99.12,13.98-.84,20.87-2.01,5.62-.95,11.18-2.33,16.61-4.05,3.71-1.17,7.24-2.84,10.86-4.26" style="fill:none; stroke:#000; stroke-linecap:round; stroke-linejoin:round; stroke-width:2.5px;"/><path id="uuid-dfc043a4-1ac8-4f3a-8eed-5c3f7a96e633" d="m133,133.25c5.04,2.98,9.86,6.36,15.12,8.94,5.14,2.53,10.48,4.72,15.97,6.39,6.53,1.98,13.24,3.45,20.01,4.26,7.19.86,14.49,1.15,21.72.64,5.82-.41,11.58-1.58,17.25-2.98,7.17-1.77,14.05-4.54,21.08-6.81" style="fill:none; stroke:#000; stroke-linecap:round; stroke-linejoin:round; stroke-width:2.5px;"/><path id="uuid-1b8f83a9-a403-4d7d-bdc8-e013e81f2d83" d="m125.76,136.23c5.68,3.34,11.08,7.18,17.03,10.01,6.63,3.15,13.6,5.63,20.65,7.67,7.04,2.02,14.24,3.59,21.5,4.47,5.71.69,11.5.94,17.25.64,6.44-.34,12.88-1.31,19.16-2.77,4.5-1.04,8.85-2.68,13.2-4.26,3.74-1.36,7.38-2.98,11.07-4.47" style="fill:none; stroke:#000; stroke-linecap:round; stroke-linejoin:round; stroke-width:2.5px;"/><path id="uuid-e5c1c6af-27f8-4c8b-9237-fc1c75b037c9" d="m99.15,150.92c6.74,4.76,13.17,9.99,20.23,14.27,7.85,4.75,15.92,9.29,24.49,12.56,7.68,2.94,15.77,4.74,23.85,6.25,7.65,1.44,15.43,2.31,23.21,2.69,8.3.41,16.68.66,24.91-.43,8.12-1.07,16.03-3.51,23.85-5.96,7.46-2.34,14.85-4.99,21.93-8.3,4.06-1.9,7.81-4.4,11.71-6.6" style="fill:none; stroke:#000; stroke-linecap:round; stroke-linejoin:round; stroke-width:2.5px;"/><path id="uuid-adaccabc-2a91-4882-bf0e-593f4edbe84a" d="m124.68,135.66l-12.68,6.59,7.25,5.25,7.18-10.09-1.75-1.75Z"/><path id="uuid-b01af5e7-cddb-4d51-ad40-872e5f0536bd" d="m135.92,143.16l-6.67,11.84,13.25,6.25,5.75-11.25-12.33-6.84Z"/><path id="uuid-5d0e2bcd-4c92-4668-b078-21b03e5ba965" d="m160.5,153.75l-3.92,12.09,13.5,4.25,3.42-12.94-13-3.41Z"/><path id="uuid-72ead6c3-67c7-4ca1-9d22-7c712f8eae81" d="m185.75,159.5l-1,12.59,14.42.51-.67-13.6-12.75.5Z"/><path id="uuid-a3a23805-0029-4f9b-b415-5466cedc9232" d="m211.25,159.25l1.16,12.84,14.09-2.75-2.91-13.18-12.34,3.09Z"/><path id="uuid-67d76d45-a979-438d-ac49-f98ba95050e8" d="m235.91,152.07l5.29,13.4,12.03-4.57-2.99-7.4-4.5-6.25-9.84,4.82Z"/><path id="uuid-2acfa7d7-585a-44d7-b65e-e6b4a0fa91c6" d="m111,158.25l8-10.5,10.25,7-6.42,12.09-11.83-8.59Z"/><path id="uuid-11398b1a-8f79-4287-9330-7175751a0ea5" d="m136.24,174.43l5.76-13.52,14.34,4.59-4.35,14-15.76-5.07Z"/><path id="uuid-a326ed70-51e1-44e9-a46d-03c5724aa6b1" d="m167.17,183.86l2.83-13.61,14.84,1.92-1.17,13.67-16.51-1.98Z"/><path id="uuid-15b66752-5d30-4158-9ecc-7f6b051181f5" d="m199,186.25l-.25-14.5h14l1.5,13.5-15.5,2,.25-1Z"/><path id="uuid-8afea79c-5b91-4dd6-bdaf-c275ad73fdaf" d="m229.5,182l-3.17-12.92,14.77-4.34,4.34,12.85-15.68,5.41-.25-1Z"/><path id="uuid-87a9739d-bc7d-4f0e-b216-346bf68f9a3e" d="m258.25,172.25l-5.25-11.75,3-1,15.75,7-13.5,5.75Z"/><path id="uuid-6050f3da-4802-4845-8c52-15c5e7bfb0e0" d="m106.91,147.18l.34,4.57,5.58-.99-1.08-5.01-4.84,1.43Z" style="fill:none; stroke:#000; stroke-linecap:round; stroke-linejoin:round; stroke-width:2.5px;"/><path id="uuid-fdf28eb7-df7e-479c-9661-b87310922694" d="m125,143.5l4.75-1.25.59,4.84-4.84,1.75-.5-5.34Z" style="fill:none; stroke:#000; stroke-linecap:round; stroke-linejoin:round; stroke-width:2.5px;"/><path id="uuid-c086de91-b573-4ad3-8259-7de20d505a69" d="m129,162.75l5.25-2.5,1.25,4.75-4,2.25-2.5-4.5Z" style="fill:none; stroke:#000; stroke-linecap:round; stroke-linejoin:round; stroke-width:2.5px;"/><path id="uuid-f90dd375-df7f-4b1b-bc44-4bfc8421c0bf" d="m149,156l5-1.75,1.42,4.84-4.67,2.16-1.75-5.25Z" style="fill:none; stroke:#000; stroke-linecap:round; stroke-linejoin:round; stroke-width:2.5px;"/><path id="uuid-99bb97d2-13f2-47ba-995b-c649a037c305" d="m158,173.5l2.75,4.75,4-3.25-3-4.5-3.75,3Z" style="fill:none; stroke:#000; stroke-linecap:round; stroke-linejoin:round; stroke-width:2.5px;"/><path id="uuid-fea4a5d6-65fa-4589-81a3-53394c70e3db" d="m175.06,164.22l3.99-3.25,2.98,3.03-4,4-2.97-3.78Z" style="fill:none; stroke:#000; stroke-linecap:round; stroke-linejoin:round; stroke-width:2.5px;"/><path id="uuid-efb28b43-5259-4f54-9de9-bf8227f3df0d" d="m187.75,178.67l3.75-3.67,3,4.75-3.75,2.25-3-3.33Z" style="fill:none; stroke:#000; stroke-linecap:round; stroke-linejoin:round; stroke-width:2.5px;"/><path id="uuid-3b78b022-8326-4368-8d76-ae3f601f0601" d="m201.72,166.08l3.17-3.75,3.33,3.41-3,3-3.51-2.66Z" style="fill:none; stroke:#000; stroke-linecap:round; stroke-linejoin:round; stroke-width:2.5px;"/><path id="uuid-7135b9dc-2355-4249-85cf-4018a0236c45" d="m217.16,177.01l3.59-4.01,3.75,3-2.56,4.67-4.77-3.66Z" style="fill:none; stroke:#000; stroke-linecap:round; stroke-linejoin:round; stroke-width:2.5px;"/><path id="uuid-d7658611-fdb9-48d7-a644-206f9796fa29" d="m228.25,162l2.5-4.5,4.25,1.75-2,4.75-4.75-2Z" style="fill:none; stroke:#000; stroke-linecap:round; stroke-linejoin:round; stroke-width:2.5px;"/><path id="uuid-e4362877-bbff-4bf4-90e8-969ccf695387" d="m245.75,170l2.25-4.75,4.75,2.5-2,4.25-5-2Z" style="fill:none; stroke:#000; stroke-linecap:round; stroke-linejoin:round; stroke-width:2.5px;"/><path id="uuid-3ed9398d-33cf-47ca-911f-aeef265f9014" d="m94.5,154.5c7.67,5.67,14.27,11.27,22,16,5.5,3.37,11.34,6.18,17.25,8.75,6.67,2.9,13.5,5.52,20.5,7.5,6.87,1.94,13.93,3.21,21,4.25,7.15,1.05,14.36,1.94,21.59,2.01,9.03.09,18.14-.34,27.02-1.97,9.2-1.69,18.13-4.76,26.89-8.04,8.72-3.27,17.27-7.39,25.44-11.56" style="fill:none; stroke:#000; stroke-linecap:round; stroke-linejoin:round; stroke-width:2.5px;"/><path id="uuid-27490740-8f01-4c63-bfe7-10c3ecea25d1" d="m147.75,129.5c0,.55-.45,1-1,1s-1-.45-1-1,.45-1,1-1,1,.45,1,1Z" style="fill:none; stroke:#000; stroke-linecap:round; stroke-linejoin:round; stroke-width:2.5px;"/><path id="uuid-2f0c6d6c-c334-43a7-8b13-3c94052f5f90" d="m154.5,133.25c0,.55-.45,1-1,1s-1-.45-1-1,.45-1,1-1,1,.45,1,1Z" style="fill:none; stroke:#000; stroke-linecap:round; stroke-linejoin:round; stroke-width:2.5px;"/><path id="uuid-c931e013-3c5e-424d-afb5-ec885711651c" d="m161,136.25c0,.55-.45,1-1,1s-1-.45-1-1,.45-1,1-1,1,.45,1,1Z" style="fill:none; stroke:#000; stroke-linecap:round; stroke-linejoin:round; stroke-width:2.5px;"/><path id="uuid-01d27d64-c842-4aaf-8d15-b0d9222c89a1" d="m167.5,138c0,.55-.45,1-1,1s-1-.45-1-1,.45-1,1-1,1,.45,1,1Z" style="fill:none; stroke:#000; stroke-linecap:round; stroke-linejoin:round; stroke-width:2.5px;"/><path id="uuid-13c7d7f2-5746-45e6-b602-ce2093d349b9" d="m175,140.25c0,.55-.45,1-1,1s-1-.45-1-1,.45-1,1-1,1,.45,1,1Z" style="fill:none; stroke:#000; stroke-linecap:round; stroke-linejoin:round; stroke-width:2.5px;"/><path id="uuid-8333de2d-0acd-4e35-b676-43d894d81fa6" d="m181.75,142c0,.55-.45,1-1,1s-1-.45-1-1,.45-1,1-1,1,.45,1,1Z" style="fill:none; stroke:#000; stroke-linecap:round; stroke-linejoin:round; stroke-width:2.5px;"/><path id="uuid-a6fe930b-248d-4a52-b14b-f9a4f921936e" d="m189,142.5c0,.55-.45,1-1,1s-1-.45-1-1,.45-1,1-1,1,.45,1,1Z" style="fill:none; stroke:#000; stroke-linecap:round; stroke-linejoin:round; stroke-width:2.5px;"/><path id="uuid-13dd14e2-6900-404b-8922-871a5ea9e5eb" d="m196.3,143.19c0,.55-.45,1-1,1s-1-.45-1-1,.45-1,1-1,1,.45,1,1Z" style="fill:none; stroke:#000; stroke-linecap:round; stroke-linejoin:round; stroke-width:2.5px;"/><path id="uuid-0106c677-6e85-4f0a-a5f4-1a8427391248" d="m203.19,142.82c0,.55-.45,1-1,1s-1-.45-1-1,.45-1,1-1,1,.45,1,1Z" style="fill:none; stroke:#000; stroke-linecap:round; stroke-linejoin:round; stroke-width:2.5px;"/><path id="uuid-1753bff2-8286-425c-b8b1-3938464ad353" d="m210.5,141.5c0,.55-.45,1-1,1s-1-.45-1-1,.45-1,1-1,1,.45,1,1Z" style="fill:none; stroke:#000; stroke-linecap:round; stroke-linejoin:round; stroke-width:2.5px;"/><path id="uuid-a7378e3b-3f94-44ae-afb2-cf10354bd79b" d="m218,140.5c0,.55-.45,1-1,1s-1-.45-1-1,.45-1,1-1,1,.45,1,1Z" style="fill:none; stroke:#000; stroke-linecap:round; stroke-linejoin:round; stroke-width:2.5px;"/><path id="uuid-12758862-c058-4bb8-8f3b-2f90bcff1622" d="m224.98,138.66c0,.55-.45,1-1,1s-1-.45-1-1,.45-1,1-1,1,.45,1,1Z" style="fill:none; stroke:#000; stroke-linecap:round; stroke-linejoin:round; stroke-width:2.5px;"/><path id="uuid-85edf3c8-f8fe-444b-ad24-5f05d3e1729f" d="m231.25,137c0,.55-.45,1-1,1s-1-.45-1-1,.45-1,1-1,1,.45,1,1Z" style="fill:none; stroke:#000; stroke-linecap:round; stroke-linejoin:round; stroke-width:2.5px;"/><path id="uuid-b0836194-ab37-4a2c-a4ce-5335dc2d60ff" d="m236.5,134.5c0,.55-.45,1-1,1s-1-.45-1-1,.45-1,1-1,1,.45,1,1Z" style="fill:none; stroke:#000; stroke-linecap:round; stroke-linejoin:round; stroke-width:2.5px;"/><path id="uuid-7a48adae-a93c-479d-b274-f1852dfd5411" d="m242,132.75c0,.55-.45,1-1,1s-1-.45-1-1,.45-1,1-1,1,.45,1,1Z" style="fill:none; stroke:#000; stroke-linecap:round; stroke-linejoin:round; stroke-width:2.5px;"/><g id="uuid-73b1d6b3-f9c3-4145-8e49-20aadf2ed308"><path id="uuid-39b91d74-1f3a-49f7-8672-4d7c31ff7778" d="m312.07,204.52s-1.37.53-2.06.39c-.63-.13-1.22-.55-1.61-1.06-.37-.5-.55-1.8-.55-1.8" style="fill:none; stroke:#55a; stroke-linecap:round; stroke-linejoin:round; stroke-width:2px;"/><path id="uuid-f55c2ae7-84c4-41af-a1b9-a215e685ec1b" d="m314.49,202.8s3.38-.85,4.59.08c1.28.98,1.63,3.06,1.3,4.62-.51,2.38-3.06,3.8-4.67,5.61-.98,1.1-1.78,2.52-3.04,3.21-1.24.68-2.84,1.3-4.07.72-.97-.46-1.54-1.74-1.68-2.88-.12-1.01.04-2.37.83-2.97,1.06-.81,2.68-.37,3.83.18.62.29,1.12.9,1.41,1.55.3.67.26,2.24.26,2.24" style="fill:none; stroke:#55a; stroke-linecap:round; stroke-linejoin:round; stroke-width:2px;"/><path id="uuid-27965f43-58f7-4b1c-a4db-391bd4c807a5" d="m321.03,207.1s2.13.93,2.77,1.83c.65.9.98,2.12.83,3.22-.24,1.78-1.53,3.31-2.7,4.68-1.36,1.61-3.08,3.01-4.9,4.03-1.35.76-2.83,1.37-4.33,1.5-1.13.1-2.66.42-3.34-.53-.59-.82-.27-2.25.29-3.11.42-.65,1.26-.86,1.98-1.02.97-.22,2.19-.53,2.96.13.69.59.7,2.76.7,2.76" style="fill:none; stroke:#55a; stroke-linecap:round; stroke-linejoin:round; stroke-width:2px;"/><path id="uuid-afa06fef-0c12-4b58-a15d-9ff41a04a0f9" d="m323.29,216.19s2.58,2.1,2.65,3.57c.05,1-.86,1.84-1.56,2.56-1.78,1.83-4.15,3.03-6.44,4.18-1.41.71-2.85,1.77-4.43,1.66-.74-.05-1.63-.39-1.95-1.05-.29-.61.04-1.4.39-1.98.64-1.09,1.64-2.6,2.91-2.45.79.09,1.17,1.16,1.43,1.91.26.78.03,2.47.03,2.47" style="fill:none; stroke:#55a; stroke-linecap:round; stroke-linejoin:round; stroke-width:2px;"/><path id="uuid-98844128-3a17-4900-9499-9d0c8fa59e78" d="m325.53,223.03s1,1.74.91,2.68c-.14,1.53-1.16,2.93-2.24,4.03-1.4,1.42-3.27,2.43-5.19,3-1,.29-2.33.82-3.12.16-.98-.82-1.05-2.66-.47-3.79.51-.98,1.83-1.74,2.92-1.57.83.12,1.36,1.05,1.75,1.78.4.74.51,2.45.51,2.45" style="fill:none; stroke:#55a; stroke-linecap:round; stroke-linejoin:round; stroke-width:2px;"/><path id="uuid-a84f4b25-0832-4913-bbdf-94eacb4f4031" d="m317.65,233.29s-.69,1.16-1.16,1.61c-.45.42-1,.69-1.54.95-1.07.51-2.2.89-3.35,1.18-3.55.9-7.18,1.77-10.84,1.72-2.63-.04-5.61.05-7.76-1.47-1.87-1.32-3.05-3.68-3.45-5.93-.69-3.89.8-7.93,2.09-11.66,1.09-3.15,2.75-6.12,4.7-8.83,1.69-2.34,3.73-4.44,5.96-6.26,1.69-1.38,3.53-2.66,5.55-3.47,1.16-.46,2.47-1.11,3.66-.75.97.3,2.05,1.16,2.11,2.17.13,2.14-2.44,3.55-3.91,5.11-.85.9-1.82,1.67-2.8,2.42-1.06.82-2.29,2.18-3.29,2.3-.65,2.22.8,1.69.89,6.08.08,4.11-1.55,6.8-3.38,8.99" style="fill:none; stroke:#55a; stroke-linecap:round; stroke-linejoin:round; stroke-width:2px;"/></g><path id="uuid-ed71c2ff-fd27-4247-808c-ac1dd4232e2d" d="m247.98,116.43c-1.56,4.12-4.18,7.98-4.68,12.35-.66,5.76.19,11.86,2.34,17.25,1.53,3.82,4.32,7.1,7.24,10.01,2.6,2.58,5.62,4.84,8.94,6.39,3.39,1.57,7.24,1.85,10.86,2.77" style="fill:none; stroke:#55a; stroke-linecap:round; stroke-linejoin:round; stroke-width:2.5px;"/><path id="uuid-a154c116-ae3d-40b8-8119-b13d2f89d28f" d="m167.71,118.56c-29.43,8.65-51.29,20.05-74.05,35.63-3.96,2.71-7.92,5.44-11.73,8.35-17.94,13.7-35.23,27.2-52.43,42.86" style="fill:none; stroke:#55a; stroke-linecap:round; stroke-linejoin:round; stroke-width:2px;"/><path id="uuid-8042ce3c-aae1-42de-b172-ffff430c354f" d="m205.98,29.5l70.6,141.39,18.12-8.43L218.17,29.5h-12.18Z"/><path id="uuid-728a5797-e57c-4e57-8973-3d1d0a1d21bc" d="m59.96,343.98l3.89-4.95,5.66,2.83-4.24,5.3,5.66,3.89,9.19-13.08-10.96-6.72,5.66-10.96,5.66,1.77-2.47,5.3,6.36,2.47,4.6-15.2-12.37-3.54,3.54-16.26h6.36l-1.77,9.9,6.01,1.06,2.12-17.68h-10.96v-16.26h6.01l-.35,8.49,6.72-.71,1.06-15.56-11.31-1.77,1.06-16.26,7.07,1.06-.71,7.78,6.36,1.06,3.89-15.2-12.37-5.3,8.13-15.2,5.66,2.83-3.18,7.07,6.01,1.77,6.72-10.25-9.19-8.84,10.96-12.37,5.66,4.6-5.66,4.6,4.6,5.66,11.31-10.25-8.13-11.67,5.02-2.37m7.49,4.13l-2.2.88,3.52,5.28,6.17-3.38" style="fill:none; stroke:#5456aa; stroke-linecap:round; stroke-linejoin:round; stroke-width:2px;"/><path id="uuid-08a15b03-1cc3-4902-b069-44d35cc31846" d="m148.35,200.8c-6.95,4.6-14.47,8.44-20.86,13.79-5.24,4.39-10.27,9.21-14.14,14.85-2.8,4.09-4.68,8.77-6.36,13.44-2.43,6.75-4.25,13.76-5.3,20.86-.76,5.13-.25,10.39-.71,15.56-.56,6.28-1.66,12.49-2.47,18.74-.6,4.6-.88,9.24-1.77,13.79-.89,4.55-2.04,9.05-3.54,13.44-1.95,5.7-4.28,11.28-7.07,16.62-1.74,3.33-3.61,6.65-6.01,9.55-1.54,1.86-3.54,3.3-5.3,4.95" style="fill:none; stroke:#5456aa; stroke-linecap:round; stroke-linejoin:round; stroke-width:2px;"/><g id="uuid-916663ac-b79f-4e0d-9eac-80d1a7537cb6"><path id="uuid-e175d225-8e3b-4a7a-bdef-c7d0e2a52597" d="m63.14,199.74l-.35-6.36,6.36.35,3.54-6.01,4.6,6.36h6.36l-.71,6.36,5.3,3.18-6.01,4.6.35,5.66-4.95-.71-4.24,6.36-4.95-7.42-4.6,1.77v-6.01l-6.72-3.89,6.01-4.24Z" style="fill:#ffff57;"/><path id="uuid-bbceb14b-0cac-466e-a2cc-2d988413b430" d="m67.59,203.29l5.41-5.08,5.12,5.52-5.18,4.9-5.34-5.34Z" style="fill:#f55; stroke:#000; stroke-linecap:round; stroke-linejoin:round; stroke-width:2px;"/></g><path id="uuid-262fbb9a-73b9-4e98-a8c0-2b40c0667f35" d="m154.12,186.57l16.85,3.79,10.05,62.6-10.55-6.05-16.35-60.34Z" style="fill:#55a;"/><path id="uuid-26105343-4bac-4cb4-bc56-e0ea35694acf" d="m159.14,202.77s-8.08,1.71-11.86,3.33c-4.66,2-8.93,4.86-13.08,7.78-2.12,1.49-4.15,3.14-6.01,4.95-1.67,1.63-4.6,5.3-4.6,5.3,0,0,2.87,3.15,4.25,4.77,1.7,2.02,3.48,3.99,4.95,6.19,1.11,1.65,2.9,5.22,2.9,5.22,0,0,6.61-1.67,9.97-1.53,3.34.14,6.55,1.39,9.75,2.33,5.15,1.51,15.2,5.3,15.2,5.3l-11.48-43.63Z" style="fill:#f55;"/><path id="uuid-540ea19b-1208-4cc2-9f36-8514dd2e533c" d="m108.39,254.16s3.43,4.14,4.21,6.65c.7,2.24.9,4.77.29,7.04-.5,1.89-1.84,3.5-3.12,4.98-1.1,1.28-3.86,3.28-3.86,3.28,0,0,.8-6.88,1.19-10.42.43-3.84.05-7.68,1.28-11.52Z" style="fill:#f55;"/><path id="uuid-b88270af-6d26-4403-9fbb-d6da02ccdb1e" d="m112.99,244.28s1.2-4.04,2.47-5.66c1.1-1.39,2.49-2.93,4.24-3.18,1-.14,2.25.23,2.83,1.06.47.68.23,1.68,0,2.47-.31,1.07-1.02,2.01-1.77,2.83-.8.87-1.86,1.45-2.83,2.12-.92.63-2.83,1.77-2.83,1.77l-2.12-1.41Z" style="fill:#fff;"/><path id="uuid-7f4d2ce2-3c5f-4d6a-917d-8c00948fb9ba" d="m108.72,254.47l1.8-6.65s2.55,3.42,3.54,5.3c1.35,2.58,2.68,5.27,3.18,8.13.52,2.94.46,6.04-.22,8.94-.48,2.03-1.51,3.93-2.64,5.68-1.13,1.74-2.44,3.42-4.08,4.7-1.53,1.19-5.18,2.6-5.18,2.6l1.16-7.07s3.77-3.19,4.95-5.3c1.08-1.92,1.69-4.16,1.77-6.36.07-1.8-.36-3.64-1.06-5.3-.74-1.74-3.21-4.67-3.21-4.67h0Z" style="fill:#ff5;"/><path id="uuid-808f2bb0-5925-4a88-8114-e80a1fcfa7e6" d="m137.63,244.48s6.71-.69,10.01-.2c3.8.56,7.33,2.3,10.96,3.54,2.96,1.01,5.98,1.9,8.84,3.18,4.28,1.92,8.36,4.29,12.37,6.72,2.91,1.76,5.61,3.85,8.49,5.66,2.55,1.6,5.11,3.21,7.78,4.6,2.53,1.32,5.03,2.79,7.78,3.54,2.29.62,4.71.59,7.07.71,2.12.11,6.36,0,6.36,0l.18,9.9-4.07-4.95-1.06,3.89-7.78-6.36-1.41,3.54-8.13-8.13-2.12,3.89-7.78-9.9-2.99,3.61-6.91-7.86-2.12,3.18-8.13-8.49-1.41,3.18-9.9-7.07-.71,3.18-9.19-5.3.35,2.83-5.12-1.49-1.36-5.38Z" style="stroke:#000; stroke-linecap:round; stroke-linejoin:round;"/><path id="uuid-d65a4569-932b-4a7f-a9b3-e3ca279823da" d="m234.06,194.57l5.09.35v-5.84s-4.02,1.2-4.02,1.2l-1.07,4.29Z" style="fill:#f55;"/><path id="uuid-eca3bf2a-d4e6-4cb9-9b1c-17f143d730a7" d="m238.98,236.34c.12-16.62,0-31.3.11-47.91,6.01-1.89,10.94-3.71,16.28-5.91,5.28-2.17,10.34-4.83,15.54-7.17,2.93-1.32,5.89-2.59,8.84-3.89.68,2.84.64,3.62,1.44,6.34-2.36,2.71-4.85,5.31-7.07,8.13-2.14,2.73-4.23,5.51-6.01,8.49-2.57,4.29-4.76,8.83-6.72,13.44-1.23,2.9-2.28,5.87-3.14,8.9-1.04,3.66-2.06,8.1-2.42,11.16-3.06,1.53-4.31,1.76-6.41,2.78-3.56,1.73-6.44,3.64-10.45,5.65h0Z"/><path id="uuid-98edceb7-0bd6-402f-8292-b7a86485a67b" d="m239.1,200.44v37.83s-7.08,5.3-7.08,5.3l-7.42,8.49-3.54,8.13-1.41,7.07h-6.01l18.76-66.82c2.36.23,4.35.11,6.71,0h0Z" style="fill:#f55;"/><path id="uuid-0fc42521-4f23-416e-a33b-5a79e733ecf0" d="m91.07,189.13c-.13-2.32-3.92-4.32-2.83-6.36,1.43-2.69,7.29-4.09,9.01-1.58.81,1.18-2.08,2.26-2.21,3.68-.11,1.26,1.34,3.55,1.34,3.55h12.02l-1.06,3.89h-11.31s-1.45,1.38-1.5,2.29c-.07,1.3,2.66,2.54,1.76,3.47-1.79,1.84-5.94-.93-6.97-3.29-.79-1.81,1.88-3.68,1.77-5.66h0Z" style="stroke:#ff5; stroke-linecap:round; stroke-linejoin:round; stroke-width:2px;"/><path id="uuid-c77e125e-ddf0-49b9-a88a-c07f578a015a" d="m38.74,205.04s5.5.23,7.07,2.12c1.44,1.73.71,6.72.71,6.72,0,0,2.71-2.5,4.24-2.12,1.56.38,2.87,2.29,2.83,3.89-.03,1.51-1.44,2.93-2.83,3.54-1.41.61-4.6-.35-4.6-.35,0,0,2.1,5.81,4.64,6.98,2.36,1.08,5.38.13,7.74-.97,2.04-.95,2.76-4.09,4.95-4.6,1.2-.28,3.03-.06,3.54,1.06.9,2.02-2.59,3.81-2.83,6.01-.23,2.13-.13,4.79,1.41,6.28.95.92,2.58.9,3.89.75.85-.1,2.35-1.06,2.35-1.06,0,0-1.67-3.87-.58-5.26,1.1-1.4,3.79-1.65,5.3-.71,1.58.99,2.2,3.49,1.77,5.3-.3,1.27-2.77,2.77-2.77,2.77l1.36,7.48s-3.28-2.74-5.25-3.47c-1.96-.73-4.25-.1-6.21-.79-1.9-.67-3.89-1.6-5.15-3.17-1.34-1.65-2.12-6.01-2.12-6.01,0,0-4.64,2.52-7.07,2.12-3-.5-5.51-2.94-7.42-5.3-1.31-1.63-2.19-3.68-2.49-5.75-.3-2.08.65-4.17.76-6.27.06-1.18.26-2.4-.04-3.54-.56-2.09-3.18-5.66-3.18-5.66Z" style="stroke:#ff5; stroke-linecap:round; stroke-linejoin:round; stroke-width:2px;"/><path id="uuid-45167532-4dcd-456f-8ba8-a3f71111ea45" d="m35.56,278.93s3.96-.46,5.3.71c1.71,1.49,1.84,6.56,1.84,6.56,0,0,1.35-3.54,2.91-3.74,1.41-.18,3.31,1.15,3.39,2.57.1,1.8-3.93,3.7-3.93,3.7,0,0,2.31,3.41,5.58-.88.91-1.19,1.41-2.69,1.76-4.15.38-1.55.37-4.76.37-4.76l4.61.08s-1.12,3.69-.98,5.57c.11,1.49.35,3.2,1.41,4.24.93.91,3.74,1.13,3.74,1.13,0,0-.47-1.51-.2-2.19.52-1.32,1.76-2.8,3.18-2.83,1.26-.02,2.61,1.19,2.93,2.41.26,1.01-.47,2.11-1.16,2.89-.27.3-1.07.59-1.07.59,0,0,2.65,1.7,3.54,2.95.96,1.34,1.78,4.62,1.78,4.62,0,0-4.24-3.05-6.73-3.56-1.41-.29-2.91.68-4.32.35-1.57-.36-3.09-1.27-4.17-2.47-.77-.87-1.41-3.18-1.41-3.18,0,0-2.49,3.2-4.25,4.05-1.5.73-3.32,1.05-4.95.7-1.63-.34-3.14-1.39-4.23-2.64-.76-.87-1.02-2.08-1.4-3.17-.32-.92-.54-1.87-.73-2.82-.18-.93-.03-1.93-.35-2.83-.52-1.45-2.47-3.89-2.47-3.89Z" style="stroke:#ff5; stroke-linecap:round; stroke-linejoin:round; stroke-width:2px;"/><path id="uuid-b32941ea-0387-4a4f-bb14-5161e9016fb3" d="m84.71,162.26c5.07,4.12,9.88,8.59,15.2,12.37,6.86,4.88,14.14,9.16,21.51,13.25,4.75,2.64,9.63,5.04,14.59,7.25,3.98,1.77,8.02,3.43,12.15,4.81,3.54,1.18,7.2,1.98,10.8,2.97" style="fill:none; stroke:#5456aa; stroke-linecap:round; stroke-linejoin:round; stroke-width:2px;"/><path id="uuid-87d78eec-bb61-4b99-aff3-935977a1bc1a" d="m170.99,191.91l14.48,8.88" style="fill:none; stroke:#5456aa; stroke-linecap:round; stroke-linejoin:round; stroke-width:2px;"/><path id="uuid-dab574a3-ddd5-4bf8-8f5b-d54634bdaab9" d="m171.5,198.5l13,8" style="fill:none; stroke:#5456aa; stroke-linecap:round; stroke-linejoin:round; stroke-width:2px;"/><path id="uuid-31748672-f6ec-4ba0-ab1c-5ebe68e5b9b3" d="m172.25,207.25l12.25,6.25" style="fill:none; stroke:#5456aa; stroke-linecap:round; stroke-linejoin:round; stroke-width:2px;"/><path id="uuid-d1134629-5971-4654-a018-8d362a1e9f06" d="m174,214.75l11.75,6.5" style="fill:none; stroke:#5456aa; stroke-linecap:round; stroke-linejoin:round; stroke-width:2px;"/><path id="uuid-610b3c84-797a-463d-83fa-0a726a28da43" d="m175.5,221.5l10.25,6.5" style="fill:none; stroke:#5456aa; stroke-linecap:round; stroke-linejoin:round; stroke-width:2px;"/><path id="uuid-0fd05888-8171-45e7-958e-779db20bfed5" d="m177,229.5l9.5,6" style="fill:none; stroke:#5456aa; stroke-linecap:round; stroke-linejoin:round; stroke-width:2px;"/><path id="uuid-6254d76b-278f-4240-b2cb-2171d9d518fd" d="m178.25,237l7.75,4" style="fill:none; stroke:#5456aa; stroke-linecap:round; stroke-linejoin:round; stroke-width:2px;"/><path id="uuid-aae88970-49b4-494d-a62c-a55e67460007" d="m179.25,244.5l7.25,4.5" style="fill:none; stroke:#5456aa; stroke-linecap:round; stroke-linejoin:round; stroke-width:2px;"/><path id="uuid-69af2ccd-02c4-4735-9403-13b39f0ceb8d" d="m211.88,196.83l-12.73,8.13" style="fill:none; stroke:#5456aa; stroke-linecap:round; stroke-linejoin:round; stroke-width:2px;"/><path id="uuid-218c0b1b-7b8a-4faa-822f-66dcdf8048a5" d="m211.12,203.67l-11,7" style="fill:none; stroke:#5456aa; stroke-linecap:round; stroke-linejoin:round; stroke-width:2px;"/><path id="uuid-de5d2fa0-f27d-4622-922e-612f2e6f1dfd" d="m210.12,212.17l-10,5.5" style="fill:none; stroke:#5456aa; stroke-linecap:round; stroke-linejoin:round; stroke-width:2px;"/><path id="uuid-afc03adb-fa7a-4ee7-aa66-5e2127a66cdb" d="m210.62,219.42l-11.25,6" style="fill:none; stroke:#5456aa; stroke-linecap:round; stroke-linejoin:round; stroke-width:2px;"/><path id="uuid-9f50f2d5-477e-4839-874a-435275f1b108" d="m210.12,226.17l-10.75,5.75" style="fill:none; stroke:#5456aa; stroke-linecap:round; stroke-linejoin:round; stroke-width:2px;"/><path id="uuid-bfbfc11c-1ece-4430-b3f4-60e9c22a586a" d="m209.62,233.17l-11.5,6.5" style="fill:none; stroke:#5456aa; stroke-linecap:round; stroke-linejoin:round; stroke-width:2px;"/><path id="uuid-02d459b8-b31f-4473-9925-f6ec4df713f2" d="m208.37,239.92l-9.75,5.25" style="fill:none; stroke:#5456aa; stroke-linecap:round; stroke-linejoin:round; stroke-width:2px;"/><path id="uuid-7ea74a17-d92f-4e8d-bc79-82c76091bc1a" d="m207.37,247.42l-9.25,5.75" style="fill:none; stroke:#5456aa; stroke-linecap:round; stroke-linejoin:round; stroke-width:2px;"/><path id="uuid-1d7b69bf-0b11-4315-9e00-c31a939c3b7c" d="m187,256l-6.8-4.87" style="fill:none; stroke:#5456aa; stroke-linecap:round; stroke-linejoin:round; stroke-width:2px;"/><path id="uuid-3f997eb0-1fa0-4c7e-8686-4a2eaf0b633f" d="m205.75,256.25l-6.75,3.25" style="fill:none; stroke:#5456aa; stroke-linecap:round; stroke-linejoin:round; stroke-width:2px;"/><path id="uuid-e0ab906e-347b-45b8-9e70-1611bb0281ca" d="m198.79,262.03l6.24,2.5" style="fill:none; stroke:#5456aa; stroke-linecap:round; stroke-linejoin:round; stroke-width:2px;"/><g id="uuid-89a11f13-9e09-4a8c-922e-83427f34e986"><path id="uuid-4c45c245-b677-4527-978c-9c4dca5b210c" d="m302,133.5c-.83-2.17-3.28-4.31-2.5-6.5.9-2.53,4.32-4.18,7-4,2.73.19,5.41,2.49,6.5,5,1.07,2.46.13,4.63-.75,8,3.01-1.85,4.26-2.3,6.25-1.5,3.13,1.25,5.72,5.13,5.5,8.5-.18,2.83-2.74,5.85-5.5,6.5-2.47.58-4.67-2-7-3,.5,3,2.63,6.18,1.5,9-.93,2.32-3.5,4.52-6,4.5-2.73-.02-5.5-2.46-6.5-5-1.11-2.83,1-6,1.5-9-1.83,1.33-3.24,4.21-5.5,4-3.64-.34-7.26-4.35-7.5-8-.19-2.86,2.58-5.46,5-7,2.29-1.46,5.33-1,8-1.5Z" style="fill:#ff5; stroke:#5456aa; stroke-linecap:round; stroke-linejoin:round; stroke-width:2px;"/><path id="uuid-ebb28d6d-fbca-463c-a326-8b5d54c2c459" d="m296,134.5l-3.5-8.5,6,1.5,3,5.5-5.5,1.5Z" style="fill:#55a; stroke:#5456aa; stroke-linecap:round; stroke-linejoin:round; stroke-width:2px;"/><path id="uuid-f94b2352-2c3f-4c66-87c9-aa46ec79d7bd" d="m311.5,133.5l2.5-5.5,6.5-1-2.5,6.5h-6.5Z" style="fill:#55a; stroke:#5456aa; stroke-linecap:round; stroke-linejoin:round; stroke-width:2px;"/><path id="uuid-95ddaf60-8430-4063-8d5e-be571219dfd1" d="m313,148.5l.5,6,5,.5-1-5.5-4.5-1Z" style="fill:#55a; stroke:#5456aa; stroke-linecap:round; stroke-linejoin:round; stroke-width:2px;"/><path id="uuid-f6469568-f5f9-4523-9cfe-acad15d8430c" d="m297,148.5l-2,7,4.5-1.5,2.5-8.5-5,3Z" style="fill:#55a; stroke:#5456aa; stroke-linecap:round; stroke-linejoin:round; stroke-width:2px;"/><path id="uuid-cd2fc48a-cf09-4705-abe9-a4e67a060f68" d="m304.5,160l1.5,40.5,3.5-2-1.5-38.25-3.5-.25Z" style="fill:#ff5; stroke:#5456aa; stroke-linecap:round; stroke-linejoin:round; stroke-width:2px;"/><path id="uuid-196f0aa7-cd99-45bc-91a9-0c14f1a6202e" d="m311,191c.33-5.51,1.02-11.2,3.25-16.25,2.22-5.02,6.25-9.42,9.75-13.25.17,5.5.25,11.58-.75,17.25-.62,3.53-1.39,7.19-3.25,10.25-2.08,3.42-5.67,5.67-8.5,8.5-.17-2.17-.63-4.33-.5-6.5Z" style="fill:#ff5; stroke:#5456aa; stroke-linecap:round; stroke-linejoin:round; stroke-width:2px;"/><path id="uuid-596e1de9-22ec-4371-afa9-e749f15b7e05" d="m320,171c-.83,3.83-1.32,7.76-2.5,11.5-1.3,4.13-5,12-5,12h0" style="fill:none; stroke:#5456aa; stroke-linecap:round; stroke-linejoin:round; stroke-width:2px;"/><path id="uuid-17e93e65-676d-4441-8027-4bc88084fdcc" d="m287,172c4.83,3.83,11.18,6.3,14.5,11.5,3.05,4.77,2.67,11,4,16.5-3.83-3.83-8.01-7.35-11.5-11.5-2.23-2.65-4.75-5.27-6-8.5-.97-2.51-.67-5.33-1-8Z" style="fill:#ff5; stroke:#5456aa; stroke-linecap:round; stroke-linejoin:round; stroke-width:2px;"/><path id="uuid-7ae42f8f-6ff2-4107-9d26-bfd77848a32d" d="m292,181c2.5,2.33,5.38,4.32,7.5,7,2.5,3.16,4,7,6,10.5" style="fill:none; stroke:#5456aa; stroke-linecap:round; stroke-linejoin:round; stroke-width:2px;"/><path id="uuid-a8ad4245-1bb4-42c5-b2ad-2f306f3270e8" d="m296.5,141l11-10.5,9.25,10.75-9.75,10-10.5-10.25Z" style="fill:#f55; stroke:#5456aa; stroke-linecap:round; stroke-linejoin:round; stroke-width:2px;"/><path id="uuid-a55e3ba8-2875-4f55-aa41-5c96849dc68a" d="m302.5,141l4.5-4.5,4.5,4.5-4,4.75-5-4.75Z" style="fill:#ff5; stroke:#5456aa; stroke-linecap:round; stroke-linejoin:round; stroke-width:2px;"/></g><g id="uuid-478d12ca-8b4f-4b5c-8acf-6bdf85b91112"><path id="uuid-ec79f1f9-1b69-4976-8c75-3df1cd7e3dbc" d="m40.95,253.11l-.35-6.36,6.36.35,3.54-6.01,4.6,6.36h6.36l-.71,6.36,5.3,3.18-6.01,4.6.35,5.66-4.95-.71-4.24,6.36-4.95-7.42-4.6,1.77v-6.01l-6.72-3.89,6.01-4.24Z" style="fill:#ffff57;"/><path id="uuid-1cd73879-64d6-4846-8258-1d9de56e8b87" d="m45.41,256.67l5.41-5.08,5.12,5.52-5.18,4.9-5.34-5.34Z" style="fill:#f55; stroke:#000; stroke-linecap:round; stroke-linejoin:round; stroke-width:2px;"/></g><path id="uuid-465e1d65-083c-48a7-958c-532046398088" d="m116.6,249.19s2.24-3.57,3.9-4.78c1.43-1.04,3.19-2.15,4.94-1.92,1,.13,2.11.83,2.44,1.78.27.78-.23,1.68-.67,2.38-.58.95-1.52,1.66-2.46,2.25-1,.62-2.18.9-3.29,1.28-1.05.36-3.2.94-3.2.94l-1.66-1.93Z" style="fill:#fff;"/><path id="uuid-3da7dc40-1753-46e6-99d8-452eaa0ea5bd" d="m119.44,254.28s3.14-2.81,5.08-3.51c1.66-.6,3.66-1.18,5.28-.48.92.4,1.8,1.38,1.85,2.39.04.82-.69,1.55-1.3,2.11-.82.75-1.92,1.18-2.99,1.48-1.13.32-2.34.26-3.52.32-1.11.05-3.34.02-3.34.02l-1.06-2.32Z" style="fill:#fff;"/><path id="uuid-cb51000e-c5e1-4b24-9ac3-c115daf9b441" d="m122.09,260.08s3.94-1.51,6-1.48c1.77.03,3.84.2,5.11,1.43.72.7,1.19,1.93.88,2.89-.25.79-1.2,1.2-1.96,1.51-1.03.41-2.21.42-3.32.32-1.17-.11-2.28-.59-3.4-.96-1.06-.35-3.12-1.17-3.12-1.17l-.17-2.54Z" style="fill:#fff;"/><path id="uuid-05bef1e7-68a9-419d-901a-9939237a6d4c" d="m122.04,265.89s4.19-.51,6.17.03c1.71.46,3.68,1.12,4.6,2.63.53.86.68,2.16.15,3.02-.44.7-1.45.88-2.27.98-1.1.14-2.25-.13-3.3-.5-1.11-.39-2.07-1.13-3.07-1.75-.94-.59-2.75-1.89-2.75-1.89l.46-2.51Z" style="fill:#fff;"/><path id="uuid-e9173f85-5ba0-49f8-b66f-ba628d13c15b" d="m105.9,285.62s-.61,4.17-.13,6.17c.41,1.72,1.03,3.71,2.51,4.67.84.55,2.14.74,3.01.23.71-.42.91-1.43,1.04-2.25.17-1.1-.08-2.25-.41-3.31-.36-1.12-1.07-2.1-1.67-3.11-.57-.96-1.82-2.79-1.82-2.79l-2.52.39Z" style="fill:#fff;"/><path id="uuid-5e2c1090-3ca1-43ed-8f91-cb42652030f1" d="m110.86,282.83s.53,4.18,1.53,5.98c.86,1.54,1.99,3.29,3.67,3.82.96.3,2.26.13,2.96-.59.57-.59.5-1.62.4-2.44-.13-1.1-.68-2.15-1.29-3.08-.65-.99-1.6-1.74-2.45-2.55-.8-.77-2.51-2.2-2.51-2.2l-2.32,1.05Z" style="fill:#fff;"/><path id="uuid-a33758e3-de20-40f3-8d82-64dc2887f0db" d="m115.31,279.25s1.67,3.87,3.13,5.32c1.26,1.24,2.82,2.61,4.59,2.65,1.01.02,2.21-.5,2.68-1.39.39-.73.03-1.7-.3-2.46-.43-1.02-1.25-1.87-2.09-2.6-.9-.77-2.02-1.22-3.06-1.77-.99-.51-3.02-1.42-3.02-1.42l-1.94,1.66Z" style="fill:#fff;"/><path id="uuid-a7da3c35-e605-40f8-8bb2-6e7380469116" d="m119.67,274.63s2.94,3.02,4.82,3.86c1.62.72,3.57,1.44,5.24.85.95-.34,1.89-1.25,2.01-2.25.1-.82-.58-1.6-1.15-2.19-.77-.8-1.83-1.31-2.88-1.68-1.11-.4-2.32-.43-3.49-.56-1.1-.13-3.33-.25-3.33-.25l-1.22,2.24Z" style="fill:#fff;"/><g id="uuid-634a03b2-505a-442a-9939-142c25642c84"><path id="uuid-2229a31e-f01b-4fee-aa76-8acb697a1f7b" d="m185.82,194.08l2.12,62.58,10.25,5.3.71-67.18-13.08-.71Z" style="fill:#ff5; stroke:#000; stroke-linecap:round; stroke-linejoin:round; stroke-width:2px;"/><path id="uuid-fe355c2c-9193-4aad-a091-b0f5f7971134" d="m190.77,199.38c3.54,0,2.83,0,2.83,0l.35,3.18-2.97.15-.21-3.33Z"/><path id="uuid-e98f6765-8731-4a42-b7e1-f6057e249242" d="m191.16,206.34c3.54,0,2.83,0,2.83,0l.35,3.18-2.97.15-.21-3.33Z"/><path id="uuid-5c8563fc-3b4f-483f-aebf-ddc5b99e9ad2" d="m190.91,213.34c3.54,0,2.83,0,2.83,0l.35,3.18-2.97.15-.21-3.33Z"/><path id="uuid-74580ba8-4e7c-43a7-9735-10b2a6f3d372" d="m190.66,219.59c3.54,0,2.83,0,2.83,0l.35,3.18-2.97.15-.21-3.33Z"/><path id="uuid-54d21d80-f589-4ac9-95d3-e09c69d37660" d="m190.66,226.84c3.54,0,2.83,0,2.83,0l.35,3.18-2.97.15-.21-3.33Z"/><path id="uuid-90ef02e7-6f11-44c9-b3f4-00e11510e452" d="m190.41,232.84c3.54,0,2.83,0,2.83,0l.35,3.18-2.97.15-.21-3.33Z"/><path id="uuid-178c65dd-5412-41a9-88fb-bec9554a26ba" d="m191.16,239.34c3.54,0,2.83,0,2.83,0l.35,3.18-2.97.15-.21-3.33Z"/><path id="uuid-bda2f2c6-8c29-49ed-b159-ba2f3d6a9586" d="m191.16,245.34c3.54,0,2.83,0,2.83,0l.35,3.18-2.97.15-.21-3.33Z"/><path id="uuid-6a06f903-1808-46a4-9713-28ce2596ecf5" d="m191.16,251.84c3.54,0,2.83,0,2.83,0l.35,3.18-2.97.15-.21-3.33Z"/></g><path id="uuid-7e1e4c8c-299c-405e-bc7b-eb56c081cfef" d="m208.62,193.62l-9.25,5.75" style="fill:none; stroke:#5456aa; stroke-linecap:round; stroke-linejoin:round; stroke-width:2px;"/></g><g id="uuid-5e396092-6be5-41cf-9e3b-6897180af44c"><path id="uuid-1357dc09-6b1a-448d-9496-520c5812068f" d="m118.69,302.95c-.12,16.62.29,30.76.18,47.38-6.01,1.89-10.94,3.71-16.28,5.91-5.28,2.17-10.34,4.83-15.54,7.17-2.93,1.32-5.89,2.59-8.84,3.89l-1.8-6.83c2.36-2.71,5.71-5.9,8.28-9.1,2.17-2.7,4.23-5.51,6.01-8.49,2.57-4.29,4.76-8.83,6.72-13.44,1.23-2.9,2.34-5.86,3.14-8.9.88-3.34,1.46-7.13,1.81-10.19,3.06-1.53,5.25-2.17,7.84-3.34,2.86-1.29,4.48-2.06,8.49-4.07Z"/><path id="uuid-cf399587-1a99-4bed-818d-c6a61b4dd977" d="m203.83,352.18l-16.85-3.79-10.05-62.6,10.72,6.94,16.17,59.45Z" style="fill:#55a;"/><path id="uuid-d2e705d1-b8bf-490f-9075-ceb6aca93273" d="m149.32,345.12l9.25-5.75" style="fill:none; stroke:#5456aa; stroke-linecap:round; stroke-linejoin:round; stroke-width:2px;"/><path id="uuid-a4f3154a-9f33-4172-bc00-2e38ae3a672e" d="m119.22,338.31l-.53-35.48s6.14-3.44,8.66-5.83c3.06-2.91,5.48-6.48,7.6-10.13,1.49-2.55,2.65-5.31,3.54-8.13.72-2.29,1.41-7.07,1.41-7.07l4.42-.18-18.03,66.82c-2.36-.23-4.71-.11-7.07,0h0Z" style="fill:#f55;"/><path id="uuid-ff7ceea5-2afa-46ff-9cdd-1a40a46f8113" d="m144.95,346.57l8.55-73.21-10.07-1.87-20.99,78.16,22.51-3.08Z" style="fill:#55a;"/><path id="uuid-f0ae97a9-f8a3-44f1-aa21-7b77a6f2813b" d="m234.71,314.97c2.59-3.54,5.55-6.83,7.78-10.61,1.71-2.91,3.01-6.05,4.24-9.19,1.53-3.92,2.92-7.92,3.89-12.02,1.04-4.41,1.52-8.94,2.05-13.44.66-5.58,1.05-11.19,1.42-16.79.29-4.54.28-9.09.62-13.63.29-3.9.99-7.88,1.22-11.66-3.18,1.53-6.39,3-9.55,4.6-3.81,1.93-7.84,3.53-11.31,6.01-3.8,2.71-7.46,5.81-10.25,9.55-2.37,3.16-4.06,6.86-5.3,10.61-1.25,3.77-1.86,7.76-2.11,11.73-.28,4.46.14,8.95.69,13.38.45,3.58.89,7.22,2.12,10.61,1.51,4.16,3.88,8,6.36,11.67,1.45,2.15,3.21,4.09,4.95,6.01,1.01,1.11,2.12,2.12,3.18,3.18h0Z" style="fill:#55a;"/><path id="uuid-c7eb8b60-b1fe-4693-b424-710303411204" d="m269.19,381.03s-10.41-8.1-15.75-11.96c-5.22-3.78-10.34-7.73-15.91-10.96-4.22-2.45-8.71-4.44-13.2-6.36-4.01-1.71-8.1-3.25-12.25-4.6-3.37-1.1-10.25-2.83-10.25-2.83l1.06,8.13s11.67,3.19,17.32,5.3c4.35,1.63,8.61,3.51,12.73,5.66,4.03,2.11,7.88,4.55,11.67,7.07,4,2.66,7.81,5.61,11.67,8.49,2.5,1.86,7.42,5.66,7.42,5.66l5.49-3.6Z" style="fill:#f55;"/><path id="uuid-8707cf14-bda0-48d4-865f-4c975e84bd5b" d="m328.45,333.25s-14.34,12.52-21.75,18.5c-6.61,5.34-13.51,10.33-20.25,15.5-4.34,3.33-13,10-13,10,0,0-9.62-7.73-14.5-11.5-3.96-3.05-7.83-6.24-12-9-3.86-2.56-12-7-12-7,0,0,8.39-4.1,12-7,4.78-3.84,8.61-8.76,12.5-13.5,4.69-5.73,9.6-11.42,13-18,4.04-7.82,6.74-16.38,8.5-25,.9-4.42.76-8.99,1-13.5.27-5,.14-10.01.5-15,.33-4.52.91-9.01,1.5-13.5.58-4.35,2-13,2-13,0,0,3.76,6.77,7,8.5,2.95,1.58,6.66,1.19,10,1,3.92-.22,7.84-1.08,11.5-2.5,2.16-.84,4.01-2.32,6-3.5,1.67-.99,3.36-1.96,5-3,1.02-.64,3-2,3-2v103.5Z"/><path id="uuid-f388ecab-d533-4ec8-8e46-f072bbf796e1" d="m199.4,478.11s10.51-9.83,15.12-15.33c5.2-6.2,10.21-12.68,14.05-19.8,3.51-6.51,6.11-13.53,8.09-20.65,2.04-7.35,3.83-22.57,3.83-22.57l-21.29,10.22s-2.14,10.26-4.05,15.12c-2.05,5.23-4.75,10.24-7.88,14.9-2.78,4.14-9.58,11.5-9.58,11.5l1.7,26.62Z" style="fill:#000004;"/><path id="uuid-004c01b4-e456-485e-a010-395e5b03aad9" d="m141.08,509.25l-51.39-88.8-8.32,3.64,49.98,85.16h9.73Z" style="fill:#ff5455;"/><path id="uuid-59fa862a-0b59-4faa-8113-e9a23a2bb392" d="m66.23,509.25c1.78-8.49,2.76-17.15,2.91-25.83.2-11.3-.99-22.63-3.48-33.65-1.77-7.87-4.21-15.58-7.26-23.04,3.99.75,8.08.95,12.13.61,3.7-.32,7.36-1.09,10.87-2.3l50.17,84.22h-65.35" style="fill:#ff5; stroke:#55a; stroke-linecap:round; stroke-linejoin:round; stroke-width:2px;"/><path id="uuid-44443df8-5580-40ac-b0e0-9c0bf7a2c11d" d="m81.96,368.2c17.23-8.9,25.11-13,38.67-16.56,15.81-4.15,32.42-6.08,48.76-5.33,14.71.68,29.53,3.57,43.29,8.8,18.46,7.02,35.06,16.47,51.24,29.76-5.99,4.27-16.42,10.9-25.22,15.28-10.26,5.11-15.87,8.98-31.94,12.76-4.34-2.49-8.5-5.49-13.18-7.31-6.32-2.46-13.04-4.07-19.79-4.77-6.83-.71-13.76-.15-20.58.59-6.9.74-13.85,1.75-20.47,3.86-6.44,2.05-12.1,4.54-18.42,8.43,1.29-17.27.39-22.17-9.34-31.3-2.17-1.8-13.75-8.99-19.39-7.91-4.92-3.58-1.12-5.1-3.62-6.31h0Z" style="fill:#ffff58;"/><path id="uuid-1807eb90-8e6e-4a77-be64-e3253fd8dba7" d="m102.35,485.72c2.53,1.88,6.23,2.15,8.05.18,2.11-2.28,1.09-6.92-.95-9.26-2.39-2.75-7.65-4.73-10.62-2.61-1.36.97-1.27,3.54-.44,4.99.41.73,1.36,1.09,2.27,1.09" style="fill:none; stroke:#000; stroke-linecap:round; stroke-linejoin:round; stroke-width:2.5px;"/><path id="uuid-e0542e6f-0162-451c-8e01-660960281d5a" d="m95.19,468.25c-2.03,1.78-1.06,3.64,0,4.87.87,1.01,2.82,1.31,3.96.61,2.98-1.85,4.46-6.78,3.17-10.04-1.3-3.29-5.82-6.02-9.25-5.17-2.35.58-4.67,2.81-3.96,6.09" style="fill:none; stroke:#000; stroke-linecap:round; stroke-linejoin:round; stroke-width:2.5px;"/><path id="uuid-4e47b095-0ea5-4b60-a6df-c32143960451" d="m96.1,476.16c.83,1.29.64,3.67-.61,4.57-1.26.9-3.74.4-4.57-.91-.89-1.41-.24-4.05,1.22-4.87,1.2-.68,3.21.06,3.96,1.22h0Z" style="fill:none; stroke:#000; stroke-linecap:round; stroke-linejoin:round; stroke-width:2.5px;"/><path id="uuid-30ee37fe-e638-4d20-a62e-001f2314e184" d="m107.97,495.03c-.35-2.95,1.56-7.43,4.57-7.91,3.15-.5,5.89,3.45,7.12,6.39,1.26,3,1.97,7.55-.43,9.74-1.65,1.51-5.15,1.31-6.7-.3-.84-.88-1.09-2.9,0-3.65" style="fill:none; stroke:#000; stroke-linecap:round; stroke-linejoin:round; stroke-width:2.5px;"/><path id="uuid-2fb7cf6a-9b28-49b8-b981-ebfe409fa324" d="m127.75,509.25c-.91-5.88-4.28-6.34-7.3-5.7-2.11.45-3.75,3.6-3.04,5.7" style="fill:none; stroke:#000; stroke-linejoin:round; stroke-width:2.5px;"/><path id="uuid-fcf4cc36-4916-499c-b000-c01ef94658d9" d="m116.36,509.25c1.02-1.69-.58-3.17-1.83-3.26-1.37-.1-3.01,1.93-2.52,3.26" style="fill:none; stroke:#000; stroke-linejoin:round; stroke-width:2.5px;"/><path id="uuid-4afc6b59-2a3d-4234-b877-9e304495ea62" d="m84.23,455.47c.44.47.98.88,1.59,1.22,1.83,1.01,4.22,1.33,5.84.35,2.8-1.7,2.47-6.33,1.05-9.01-1.49-2.82-5.39-5.22-8.48-4.43-1.77.45-3.51,2.8-3.04,4.57.35,1.32,1.81,3.25,3.65,1.83" style="fill:none; stroke:#000; stroke-linecap:round; stroke-linejoin:round; stroke-width:2.5px;"/><path id="uuid-c3b078e1-77a2-417a-821b-5530a2abc73b" d="m79.06,446.64c.51,1.32-.21,3.44-1.52,3.96-1.3.52-3.39-.48-3.78-1.83-.4-1.37.88-3.26,2.26-3.65,1.09-.31,2.63.46,3.04,1.52h0Z" style="fill:none; stroke:#000; stroke-linecap:round; stroke-linejoin:round; stroke-width:2.5px;"/><path id="uuid-9fb7d9ca-34b9-4228-aed6-b4568e709f64" d="m78.75,439.03c-1.56-.45-1.07,3.33,0,4.26,1.16,1.01,3.51.5,4.57-.61,2-2.09,2.02-6.05.75-8.65-1.35-2.78-4.81-5.97-7.76-5.06-2.52.78-3.53,3.21-3.03,7.32" style="fill:none; stroke:#000; stroke-linecap:round; stroke-linejoin:round; stroke-width:2.5px;"/><path id="uuid-3300a102-cce4-409d-8448-bb5e50624f0c" d="m199.76,509.25s-.8-19.91-1.25-29.87c-.29-6.35-.44-12.72-.94-19.06-.61-7.73-.83-15.55-2.5-23.12-1.33-6.01-2.88-12.15-5.94-17.49-2.53-4.42-5.76-8.73-10-11.56-2.46-1.65-5.48-2.58-8.43-2.81-3.79-.3-7.68.56-11.25,1.87-4.56,1.68-8.55,4.67-12.5,7.5-3.66,2.63-6.96,5.73-10.31,8.75-2.57,2.32-7.5,7.18-7.5,7.18" style="fill:none; stroke:#55a; stroke-linejoin:round; stroke-width:2.5px;"/><path id="uuid-e1a9d6f3-ece8-4f20-83aa-719e4d2f38f1" d="m187.89,509.06s3.23-4.66,5.31-6.56c1.66-1.52,5.62-3.75,5.62-3.75" style="fill:none; stroke:#55a; stroke-linecap:round; stroke-linejoin:round; stroke-width:2.5px;"/><path id="uuid-a72421d9-d223-4497-9484-9bf4b1eab981" d="m181.33,509.06s4.32-6.86,7.18-9.68c2.92-2.88,10-7.18,10-7.18" style="fill:none; stroke:#55a; stroke-linecap:round; stroke-linejoin:round; stroke-width:2.5px;"/><path id="uuid-aa9ff966-48a3-456b-ae9a-a3d1a019e239" d="m174.46,509.06s7.25-10.41,11.87-14.68c3.52-3.25,11.87-8.12,11.87-8.12" style="fill:none; stroke:#55a; stroke-linecap:round; stroke-linejoin:round; stroke-width:2.5px;"/><path id="uuid-1592a77a-634c-425f-8978-e324142432d1" d="m169.77,509.06s-6.7-13.33-12.18-18.12c-5.51-4.81-19.68-9.68-19.68-9.68" style="fill:none; stroke:#55a; stroke-linecap:round; stroke-linejoin:round; stroke-width:2.5px;"/><path id="uuid-a1dcff18-c682-41fe-b711-38269e39ebb2" d="m164.15,509.06s-5.28-9.82-9.37-13.43c-3.53-3.11-12.5-6.56-12.5-6.56" style="fill:none; stroke:#55a; stroke-linecap:round; stroke-linejoin:round; stroke-width:2.5px;"/><path id="uuid-be693869-e1c0-4248-8792-54a4cf566411" d="m158.53,509.06s-3.19-6.71-5.94-9.06c-1.91-1.64-6.87-3.12-6.87-3.12" style="fill:none; stroke:#55a; stroke-linecap:round; stroke-linejoin:round; stroke-width:2.5px;"/><path id="uuid-9094ca59-e935-45bd-abc2-2832a0cb2713" d="m177.98,471.7s-.55-4.05-.34-6.07c.39-3.8,2.01-7.37,2.97-11.07.63-2.42,1.91-4.78,1.82-7.28-.07-1.96-.59-4.09-1.86-5.59-.85-1-2.51-.97-3.48-1.85-.82-.74-1.83-2.76-1.83-2.76" style="fill:none; stroke:#55a; stroke-linecap:round; stroke-linejoin:round; stroke-width:2px;"/><path id="uuid-ba7b61b8-83e7-4d5e-9fe1-343b8dcbeb1c" d="m164.82,447.37s-3.2-3.6-2.77-5.65c.27-1.3,1.73-2.34,3.04-2.57,1.68-.29,3.22,1.16,4.81,1.79,1.51.59,3.04,2.59,4.49,1.87.68-.34,1.08-1.64.57-2.21-.62-.69-1.81.39-2.74.41-3.2.08-7.04-2.92-9.56-.95-.87.68-.71,2.21-.47,3.29.35,1.56,2.62,4.01,2.62,4.01h0Z" style="fill:#55a; stroke:#55a; stroke-linecap:round; stroke-linejoin:round; stroke-width:2px;"/><path id="uuid-44acfd1c-6ec5-4b24-93fa-d2622173b034" d="m137.93,472.64s8.75,6.25,13.74,7.57c3.93,1.04,8.24,1.28,12.13.1,1.57-.47,4.15-2.76,4.15-2.76,0,0-3.82,1.38-5.8,1.64-4.01.52-8.19.8-12.12-.21-4.36-1.12-12.11-6.34-12.11-6.34Z" style="fill:#55a; stroke:#55a; stroke-linecap:round; stroke-linejoin:round; stroke-width:2px;"/><path id="uuid-437f775d-29a1-4c64-b4d0-83993b0165fd" d="m197.51,478.69s-6.12,2.84-9.27,2.38c-3.5-.51-9.1-5.48-9.1-5.48,0,0,5.92,4.08,9.34,4.31,3.22.21,9.23-2.88,9.23-2.88l-.2,1.68Z" style="fill:#55a; stroke:#55a; stroke-linecap:round; stroke-linejoin:round; stroke-width:2px;"/><path id="uuid-1aea9372-eaa5-435c-bab7-7d67399366fd" d="m161.36,429.61s3.93,1.54,6.04,1.67c1.91.12,3.77-.71,5.68-.82,2.18-.12,4.45.74,6.54.2.95-.25,2.41-1.49,2.41-1.49,0,0-1.7.1-2.54.02-2.23-.23-4.31-1.45-6.53-1.42-2.45.03-4.71,1.4-7.16,1.72-1.46.19-4.44.12-4.44.12h0Z" style="fill:#55a; stroke:#55a; stroke-linecap:round; stroke-linejoin:round; stroke-width:2px;"/><path id="uuid-47b8d417-bc81-45c9-9510-d8a961ffae71" d="m166,424.5s3.68-1.44,5.62-1.51c1.66-.06,4.88.94,4.88.94" style="fill:none; stroke:#55a; stroke-linecap:round; stroke-linejoin:round; stroke-width:2px;"/><path id="uuid-2cd1f8c2-15af-4c32-88e2-7c0ca1223064" d="m179.78,469.72s4.79,4.1,9.14,4.14c4.65.04,7.39-2.66,7.39-2.66" style="fill:none; stroke:#55a; stroke-linecap:round; stroke-linejoin:round; stroke-width:2px;"/><path id="uuid-b930a886-8195-43b0-bd84-d1994111cb99" d="m139.31,468.09s9.38,7.14,14.71,7.07c7.19-.1,12.54-4.32,12.54-4.32" style="fill:none; stroke:#55a; stroke-linecap:round; stroke-linejoin:round; stroke-width:2px;"/><path id="uuid-6fbd2958-07b8-4f33-968e-8ac3834ac15c" d="m140.39,465.87c5.52.69,7.47,3.85,12.54,4.25,4.35.34,13.1-1.23,13.1-1.23" style="fill:none; stroke:#55a; stroke-linecap:round; stroke-linejoin:round; stroke-width:2px;"/><path id="uuid-c691857e-919d-4a4e-9e82-515f143b5e8e" d="m196.83,467.63c-5.03,2.65-4.77,3.26-9.85,2.93-6.55-.43-8.42-1.21-8.06-1.07" style="fill:none; stroke:#55a; stroke-linecap:round; stroke-linejoin:round; stroke-width:2px;"/><path id="uuid-7c1d8462-f563-4607-954a-b9ab20b3f557" d="m143.01,464.94c4.94-1.29,7.29-2.53,12.89-2.9,4.15-.28,9.71,1.03,10.13,5.17" style="fill:none; stroke:#55a; stroke-linecap:round; stroke-linejoin:round; stroke-width:2px;"/><path id="uuid-aefa1916-8b81-431d-8335-50b1f73453f0" d="m153.37,468.73c-.95-5.13,2.09-6.85,5.44-6.45,2.28.27,4.42,3.25,3.37,6.2" style="fill:none; stroke:#55a; stroke-linecap:round; stroke-linejoin:round; stroke-width:2px;"/><path id="uuid-68dd26c5-5228-4b6f-bd8c-52af17aa0ae0" d="m159.49,465.59c.19.9-.67,2.22-1.57,2.28-.79.06-1.69-.98-1.63-1.79.06-.74.99-1.35,1.73-1.4.58-.04,1.36.34,1.48.9h0Z" style="fill:#55a; stroke:#55a; stroke-linecap:round; stroke-linejoin:round; stroke-width:2px;"/><path id="uuid-9dc28d30-916c-48af-9074-0bcf734920b4" d="m186.37,466.91c-.01.73.82,1.66,1.66,1.63.74-.03,1.43-.89,1.35-1.53-.08-.66-1-1.31-1.76-1.27-.61.04-1.24.64-1.25,1.17h0Z" style="fill:#55a; stroke:#55a; stroke-linecap:round; stroke-linejoin:round; stroke-width:2px;"/><path id="uuid-0bbc56da-e6ea-4258-96a0-e21b78c2ec60" d="m180.28,461.07c1.93-2.52,2.05-4.74,6.1-6.91" style="fill:none; stroke:#55a; stroke-linecap:round; stroke-linejoin:round; stroke-width:2px;"/><path id="uuid-eaaba075-5325-42f9-9d19-f6bd290e576b" d="m166.09,468c-1.61-7.2-7.24-9.36-11.68-12.54" style="fill:none; stroke:#55a; stroke-linecap:round; stroke-linejoin:round; stroke-width:2px;"/><path id="uuid-f3d8a1ef-d37b-4874-9290-74ac4f32ae5f" d="m196.91,465c-2.71-1.79-6.17-2.83-10.55-2.64-3.25.14-6.52,2.67-6.54,5.67" style="fill:none; stroke:#55a; stroke-linecap:round; stroke-linejoin:round; stroke-width:2px;"/><path id="uuid-a51ebc99-aeac-43e3-9d90-a7950442c93f" d="m191.81,470.33c.98-4.98-1.14-7.63-4.94-7.49-1.67.06-5.04,4.17-2.48,7.99" style="fill:none; stroke:#55a; stroke-linecap:round; stroke-linejoin:round; stroke-width:2px;"/><path id="uuid-984f5bfb-7a22-48d9-97fb-578936868e54" d="m166.44,417.61s3.75,1.23,5.69,1.19c1.66-.03,4.82-1.21,4.82-1.21" style="fill:none; stroke:#55a; stroke-linecap:round; stroke-linejoin:round; stroke-width:2px;"/><path id="uuid-d1bc5b33-b109-41c7-ad56-2a0a0cc81b33" d="m134.03,469.38c1.85-5.39,5.17-10.82,5.11-16.61-.05-5.68-2.29-11.38-5.32-16.18-2.36-3.74-5.62-7.21-9.58-9.16-3.8-1.87-8.37-1.28-12.56-1.92" style="fill:none; stroke:#55a; stroke-linecap:round; stroke-linejoin:round; stroke-width:2.5px;"/><path id="uuid-8558ee45-e9a4-457f-9fc7-15f0aa948ac8" d="m130.84,463.84c.85-3.12,2.31-7.17,2.13-10.86-.2-4.22-1.51-8.48-3.62-12.14-1.76-3.04-4.16-5.98-7.24-7.67-2.34-1.28-5.25-.99-7.88-1.49" style="fill:none; stroke:#55a; stroke-linecap:round; stroke-linejoin:round; stroke-width:2.5px;"/><path id="uuid-a70d512a-1ffa-42f9-82eb-652a372343d8" d="m127.22,457.45c.28-2.27,1.18-4.55.85-6.81-.43-2.99-1.53-6.13-3.62-8.3-1.69-1.76-4.4-2.13-6.6-3.19" style="fill:none; stroke:#55a; stroke-linecap:round; stroke-linejoin:round; stroke-width:2.5px;"/><path id="uuid-76af4bca-cbd7-454e-b7cd-6196194309b5" d="m106.99,416.57c.85-3.05,2.35-5.99,2.56-9.16.25-3.94-.26-8.04-1.7-11.71-1.64-4.18-4.4-8-7.67-11.07-1.99-1.88-4.45-3.33-7.03-4.26-1.82-.66-3.83-.57-5.75-.85" style="fill:none; stroke:#55a; stroke-linecap:round; stroke-linejoin:round; stroke-width:2.5px;"/><path id="uuid-2bf38bc4-ebe8-4111-85ac-4a4efb90c16a" d="m103.37,409.55c.43-2.27,1.41-4.51,1.28-6.81-.18-3.12-1.18-6.26-2.77-8.94-1.3-2.2-3.22-4.08-5.32-5.54-1.33-.92-2.98-1.28-4.47-1.92" style="fill:none; stroke:#55a; stroke-linecap:round; stroke-linejoin:round; stroke-width:2.5px;"/><path id="uuid-c9dabb9a-f9e7-414c-af2f-296d5bce677c" d="m197.06,442.55c3.19-4.33,7.09-8.22,9.58-12.99,2.75-5.25,3.83-11.21,5.75-16.82" style="fill:none; stroke:#55a; stroke-linecap:round; stroke-linejoin:round; stroke-width:2.5px;"/><path id="uuid-94b172a4-6daa-46e0-b822-47c618e13499" d="m195.99,435.95c2.06-3.19,4.57-6.14,6.17-9.58,1.73-3.7,2.41-7.81,3.62-11.71" style="fill:none; stroke:#55a; stroke-linecap:round; stroke-linejoin:round; stroke-width:2.5px;"/><path id="uuid-d717c444-874c-4adf-b6b8-ebf8dc283205" d="m194.5,428.5c1.06-1.77,2.36-3.43,3.19-5.32.7-1.58.99-2.75,1.49-4.95" style="fill:none; stroke:#55a; stroke-linecap:round; stroke-linejoin:round; stroke-width:2.5px;"/><path id="uuid-68bdc1b8-7e59-440d-a745-b65aa2a2019b" d="m208.77,413.63c-6.61-3.73-14.67-7.61-22.58-9.83-6.55-1.84-13.43-2.55-20.23-2.77-7.75-.24-15.56.42-23.21,1.7-5.21.87-10.42,2.1-15.33,4.05-4.43,1.76-8.37,4.54-12.56,6.81" style="fill:none; stroke:#55a; stroke-linecap:round; stroke-linejoin:round; stroke-width:2.5px;"/><path id="uuid-0618b66a-258a-4523-a833-36cef5d887c8" d="m219.41,408.7c-5.82-3.34-11.31-7.33-17.46-10.01-6.13-2.67-12.63-4.53-19.16-5.96-6.15-1.35-12.44-2.33-18.74-2.43-6.99-.12-13.98.84-20.87,2.01-5.62.95-11.18,2.33-16.61,4.05-3.71,1.17-7.24,2.84-10.86,4.26" style="fill:none; stroke:#000; stroke-linecap:round; stroke-linejoin:round; stroke-width:2.5px;"/><path id="uuid-e2467802-2d7e-4d3c-8da5-9559d90db1b0" d="m224.95,405.5c-5.04-2.98-9.86-6.36-15.12-8.94-5.14-2.53-10.48-4.72-15.97-6.39-6.53-1.98-13.24-3.45-20.01-4.26-7.19-.86-14.49-1.15-21.72-.64-5.82.41-11.58,1.58-17.25,2.98-7.17,1.77-14.05,4.54-21.08,6.81" style="fill:none; stroke:#000; stroke-linecap:round; stroke-linejoin:round; stroke-width:2.5px;"/><path id="uuid-75a36d1c-d4b8-4665-9554-884311099172" d="m232.19,402.52c-5.68-3.34-11.08-7.18-17.03-10.01-6.63-3.15-13.6-5.63-20.65-7.67-7.04-2.02-14.24-3.59-21.5-4.47-5.71-.69-11.5-.94-17.25-.64-6.44.34-12.88,1.31-19.16,2.77-4.5,1.04-8.85,2.68-13.2,4.26-3.74,1.36-7.38,2.98-11.07,4.47" style="fill:none; stroke:#000; stroke-linecap:round; stroke-linejoin:round; stroke-width:2.5px;"/><path id="uuid-7ecd9bd0-5620-4194-ba88-921c12fcdcbb" d="m258.8,387.83c-6.74-4.76-13.17-9.99-20.23-14.27-7.85-4.75-15.92-9.29-24.49-12.56-7.68-2.94-15.77-4.74-23.85-6.25-7.65-1.44-15.43-2.31-23.21-2.69-8.3-.41-16.68-.66-24.91.43-8.12,1.07-16.03,3.51-23.85,5.96-7.46,2.34-14.85,4.99-21.93,8.3-4.06,1.9-7.81,4.4-11.71,6.6" style="fill:none; stroke:#000; stroke-linecap:round; stroke-linejoin:round; stroke-width:2.5px;"/><path id="uuid-1b060b37-5664-4fb7-9bb0-cbfce0a5965a" d="m233.27,403.09l12.68-6.59-7.25-5.25-7.18,10.09,1.75,1.75Z"/><path id="uuid-4f91101b-0052-4303-91ba-fde228de2518" d="m222.03,395.59l6.67-11.84-13.25-6.25-5.75,11.25,12.33,6.84Z"/><path id="uuid-e96c9949-ddab-41ac-aa25-5bfb57414902" d="m197.45,385l3.92-12.09-13.5-4.25-3.42,12.94,13,3.41Z"/><path id="uuid-5790fdfe-68ac-4040-bd7a-aba48a00a264" d="m172.2,379.25l1-12.59-14.42-.51.67,13.6,12.75-.5Z"/><path id="uuid-ccc2f749-8d71-436d-af9e-55ac20facaa6" d="m146.7,379.5l-1.16-12.84-14.09,2.75,2.91,13.18,12.34-3.09Z"/><path id="uuid-58a5cb7e-1d2d-40f5-8003-78cacd3e8ba7" d="m122.04,386.68l-5.29-13.4-12.03,4.57,2.99,7.4,4.5,6.25,9.84-4.82Z"/><path id="uuid-71af57d7-a428-4331-bdf2-6efd97673d87" d="m246.95,380.5l-8,10.5-10.25-7,6.42-12.09,11.83,8.59Z"/><path id="uuid-6be3e0c2-b634-4e01-9708-1a5b51c95a4c" d="m221.71,364.32l-5.76,13.52-14.34-4.59,4.35-14,15.76,5.07Z"/><path id="uuid-4f885be1-0289-47cc-970e-c3118684f3d9" d="m190.78,354.89l-2.83,13.61-14.84-1.92,1.17-13.67,16.51,1.98Z"/><path id="uuid-5fe0c232-80d4-49e3-bdfe-77f44712bae8" d="m158.95,352.5l.25,14.5h-14l-1.5-13.5,15.5-2-.25,1Z"/><path id="uuid-9da4ae26-5b00-48e3-b7f2-85232cdddd1c" d="m128.45,356.75l3.17,12.92-14.77,4.34-4.34-12.85,15.68-5.41.25,1Z"/><path id="uuid-cad75f9c-de7f-4b41-80bd-188fb0e0f88e" d="m99.7,366.5l5.25,11.75-3,1-15.75-7,13.5-5.75Z"/><path id="uuid-28712ea8-b504-4261-91d7-bf97a7fcf3b6" d="m251.04,391.57l-.34-4.57-5.58.99,1.08,5.01,4.84-1.43Z" style="fill:none; stroke:#000; stroke-linecap:round; stroke-linejoin:round; stroke-width:2.5px;"/><path id="uuid-5ad6f265-4b8c-4159-a1e5-f2deb7e23e27" d="m232.95,395.25l-4.75,1.25-.59-4.84,4.84-1.75.5,5.34Z" style="fill:none; stroke:#000; stroke-linecap:round; stroke-linejoin:round; stroke-width:2.5px;"/><path id="uuid-33ee03ff-5037-4bae-9384-8ad9638138db" d="m228.95,376l-5.25,2.5-1.25-4.75,4-2.25,2.5,4.5Z" style="fill:none; stroke:#000; stroke-linecap:round; stroke-linejoin:round; stroke-width:2.5px;"/><path id="uuid-cd60043f-47ff-450e-9871-bef22446cafb" d="m208.95,382.75l-5,1.75-1.42-4.84,4.67-2.16,1.75,5.25Z" style="fill:none; stroke:#000; stroke-linecap:round; stroke-linejoin:round; stroke-width:2.5px;"/><path id="uuid-645fbed6-763d-470e-8db3-7dd6e549d645" d="m199.95,365.25l-2.75-4.75-4,3.25,3,4.5,3.75-3Z" style="fill:none; stroke:#000; stroke-linecap:round; stroke-linejoin:round; stroke-width:2.5px;"/><path id="uuid-10747c24-5e3b-4939-82d4-017ab600e5c2" d="m182.89,374.53l-3.99,3.25-2.98-3.03,4-4,2.97,3.78Z" style="fill:none; stroke:#000; stroke-linecap:round; stroke-linejoin:round; stroke-width:2.5px;"/><path id="uuid-fc021c65-fee3-4dcb-93ad-85b103a86b35" d="m170.2,360.08l-3.75,3.67-3-4.75,3.75-2.25,3,3.33Z" style="fill:none; stroke:#000; stroke-linecap:round; stroke-linejoin:round; stroke-width:2.5px;"/><path id="uuid-6a9fcf3e-f478-427d-a9e1-53593e130c98" d="m156.23,372.67l-3.17,3.75-3.33-3.41,3-3,3.51,2.66Z" style="fill:none; stroke:#000; stroke-linecap:round; stroke-linejoin:round; stroke-width:2.5px;"/><path id="uuid-60a95f5a-84cb-4fff-b383-e9b731628e3b" d="m140.79,361.74l-3.59,4.01-3.75-3,2.56-4.67,4.77,3.66Z" style="fill:none; stroke:#000; stroke-linecap:round; stroke-linejoin:round; stroke-width:2.5px;"/><path id="uuid-0c37ba02-ef01-4881-ba1e-9c5e43499afe" d="m129.7,376.75l-2.5,4.5-4.25-1.75,2-4.75,4.75,2Z" style="fill:none; stroke:#000; stroke-linecap:round; stroke-linejoin:round; stroke-width:2.5px;"/><path id="uuid-dc097cdb-1e91-4b7d-bdbe-19dfef16ff1f" d="m112.2,368.75l-2.25,4.75-4.75-2.5,2-4.25,5,2Z" style="fill:none; stroke:#000; stroke-linecap:round; stroke-linejoin:round; stroke-width:2.5px;"/><path id="uuid-20b91157-108c-4e0f-a1b2-b1623ea0354d" d="m263.45,384.25c-7.67-5.67-14.27-11.27-22-16-5.5-3.37-11.34-6.18-17.25-8.75-6.67-2.9-13.5-5.52-20.5-7.5-6.87-1.94-13.93-3.21-21-4.25-7.15-1.05-14.36-1.94-21.59-2.01-9.03-.09-18.14.34-27.02,1.97-9.2,1.69-18.13,4.76-26.89,8.04-8.72,3.27-17.27,7.39-25.44,11.56" style="fill:none; stroke:#000; stroke-linecap:round; stroke-linejoin:round; stroke-width:2.5px;"/><path id="uuid-3c9e6a5b-3732-46c6-9f4c-7495c7943903" d="m210.2,409.25c0-.55.45-1,1-1s1,.45,1,1-.45,1-1,1-1-.45-1-1Z" style="fill:none; stroke:#000; stroke-linecap:round; stroke-linejoin:round; stroke-width:2.5px;"/><path id="uuid-6f903670-388a-449b-8ce0-71387412f5d9" d="m203.45,405.5c0-.55.45-1,1-1s1,.45,1,1-.45,1-1,1-1-.45-1-1Z" style="fill:none; stroke:#000; stroke-linecap:round; stroke-linejoin:round; stroke-width:2.5px;"/><path id="uuid-726cd5b3-df84-4a05-b9fc-60005e7a8495" d="m196.95,402.5c0-.55.45-1,1-1s1,.45,1,1-.45,1-1,1-1-.45-1-1Z" style="fill:none; stroke:#000; stroke-linecap:round; stroke-linejoin:round; stroke-width:2.5px;"/><path id="uuid-80d14c3a-82ab-42d9-9b2b-c8adeafd056d" d="m190.45,400.75c0-.55.45-1,1-1s1,.45,1,1-.45,1-1,1-1-.45-1-1Z" style="fill:none; stroke:#000; stroke-linecap:round; stroke-linejoin:round; stroke-width:2.5px;"/><path id="uuid-fc003ebe-2768-4663-9c72-706e55686cce" d="m182.95,398.5c0-.55.45-1,1-1s1,.45,1,1-.45,1-1,1-1-.45-1-1Z" style="fill:none; stroke:#000; stroke-linecap:round; stroke-linejoin:round; stroke-width:2.5px;"/><path id="uuid-dedf1c26-343b-4896-ba09-58e032becf89" d="m176.2,396.75c0-.55.45-1,1-1s1,.45,1,1-.45,1-1,1-1-.45-1-1Z" style="fill:none; stroke:#000; stroke-linecap:round; stroke-linejoin:round; stroke-width:2.5px;"/><path id="uuid-14a5224d-ccaa-4b54-99bc-427adef529b9" d="m168.95,396.25c0-.55.45-1,1-1s1,.45,1,1-.45,1-1,1-1-.45-1-1Z" style="fill:none; stroke:#000; stroke-linecap:round; stroke-linejoin:round; stroke-width:2.5px;"/><path id="uuid-288158ca-e2e3-4c84-a13d-18b2729f2fd1" d="m161.65,395.56c0-.55.45-1,1-1s1,.45,1,1-.45,1-1,1-1-.45-1-1Z" style="fill:none; stroke:#000; stroke-linecap:round; stroke-linejoin:round; stroke-width:2.5px;"/><path id="uuid-fa8cbce4-4c38-433b-acd2-af7a9abfdff8" d="m154.76,395.93c0-.55.45-1,1-1s1,.45,1,1-.45,1-1,1-1-.45-1-1Z" style="fill:none; stroke:#000; stroke-linecap:round; stroke-linejoin:round; stroke-width:2.5px;"/><path id="uuid-26c57bda-c231-4a5a-b9f0-c99296b043b4" d="m147.45,397.25c0-.55.45-1,1-1s1,.45,1,1-.45,1-1,1-1-.45-1-1Z" style="fill:none; stroke:#000; stroke-linecap:round; stroke-linejoin:round; stroke-width:2.5px;"/><path id="uuid-de942f07-da72-4211-9227-e073961b8521" d="m139.95,398.25c0-.55.45-1,1-1s1,.45,1,1-.45,1-1,1-1-.45-1-1Z" style="fill:none; stroke:#000; stroke-linecap:round; stroke-linejoin:round; stroke-width:2.5px;"/><path id="uuid-557740a8-24dd-4de1-85cb-4b6bce271cfc" d="m132.97,400.09c0-.55.45-1,1-1s1,.45,1,1-.45,1-1,1-1-.45-1-1Z" style="fill:none; stroke:#000; stroke-linecap:round; stroke-linejoin:round; stroke-width:2.5px;"/><path id="uuid-a36a3e4e-a7a8-4654-b700-a7b23a97a3f7" d="m126.7,401.75c0-.55.45-1,1-1s1,.45,1,1-.45,1-1,1-1-.45-1-1Z" style="fill:none; stroke:#000; stroke-linecap:round; stroke-linejoin:round; stroke-width:2.5px;"/><path id="uuid-f626991b-08ed-414b-9fbf-a671ec048195" d="m121.45,404.25c0-.55.45-1,1-1s1,.45,1,1-.45,1-1,1-1-.45-1-1Z" style="fill:none; stroke:#000; stroke-linecap:round; stroke-linejoin:round; stroke-width:2.5px;"/><path id="uuid-f8800f04-67b9-4e28-b0b8-dd277d6c59ae" d="m115.95,406c0-.55.45-1,1-1s1,.45,1,1-.45,1-1,1-1-.45-1-1Z" style="fill:none; stroke:#000; stroke-linecap:round; stroke-linejoin:round; stroke-width:2.5px;"/><g id="uuid-d1c13e4b-f0bd-4f4b-942a-eb3f0f39338e"><path id="uuid-76df2003-9d7b-46e7-8f02-8d3fe7db3ed7" d="m45.88,334.23s1.37-.53,2.06-.39c.63.13,1.22.55,1.61,1.06.37.5.55,1.8.55,1.8" style="fill:none; stroke:#55a; stroke-linecap:round; stroke-linejoin:round; stroke-width:2px;"/><path id="uuid-1ae14883-a29c-49f6-a423-8db663756e06" d="m43.46,335.95s-3.38.85-4.59-.08c-1.28-.98-1.63-3.06-1.3-4.62.51-2.38,3.06-3.8,4.67-5.61.98-1.1,1.78-2.52,3.04-3.21,1.24-.68,2.84-1.3,4.07-.72.97.46,1.54,1.74,1.68,2.88.12,1.01-.04,2.37-.83,2.97-1.06.81-2.68.37-3.83-.18-.62-.29-1.12-.9-1.41-1.55-.3-.67-.26-2.24-.26-2.24" style="fill:none; stroke:#55a; stroke-linecap:round; stroke-linejoin:round; stroke-width:2px;"/><path id="uuid-d6ac2222-eacf-4643-bf41-64086a627503" d="m36.92,331.65s-2.13-.93-2.77-1.83c-.65-.9-.98-2.12-.83-3.22.24-1.78,1.53-3.31,2.7-4.68,1.36-1.61,3.08-3.01,4.9-4.03,1.35-.76,2.83-1.37,4.33-1.5,1.13-.1,2.66-.42,3.34.53.59.82.27,2.25-.29,3.11-.42.65-1.26.86-1.98,1.02-.97.22-2.19.53-2.96-.13-.69-.59-.7-2.76-.7-2.76" style="fill:none; stroke:#55a; stroke-linecap:round; stroke-linejoin:round; stroke-width:2px;"/><path id="uuid-26a0c252-67a3-4691-b3f4-3f005002265c" d="m34.66,322.56s-2.58-2.1-2.65-3.57c-.05-1,.86-1.84,1.56-2.56,1.78-1.83,4.15-3.03,6.44-4.18,1.41-.71,2.85-1.77,4.43-1.66.74.05,1.63.39,1.95,1.05.29.61-.04,1.4-.39,1.98-.64,1.09-1.64,2.6-2.91,2.45-.79-.09-1.17-1.16-1.43-1.91-.26-.78-.03-2.47-.03-2.47" style="fill:none; stroke:#55a; stroke-linecap:round; stroke-linejoin:round; stroke-width:2px;"/><path id="uuid-ab939b60-67ae-474b-aca1-0f5e6d4ba7f4" d="m32.42,315.72s-1-1.74-.91-2.68c.14-1.53,1.16-2.93,2.24-4.03,1.4-1.42,3.27-2.43,5.19-3,1-.29,2.33-.82,3.12-.16.98.82,1.05,2.66.47,3.79-.51.98-1.83,1.74-2.92,1.57-.83-.12-1.36-1.05-1.75-1.78-.4-.74-.51-2.45-.51-2.45" style="fill:none; stroke:#55a; stroke-linecap:round; stroke-linejoin:round; stroke-width:2px;"/><path id="uuid-7080ab7d-d25c-471c-ac96-417709256cf7" d="m40.3,305.46s.69-1.16,1.16-1.61c.45-.42,1-.69,1.54-.95,1.07-.51,2.2-.89,3.35-1.18,3.55-.9,7.18-1.77,10.84-1.72,2.63.04,5.61-.05,7.76,1.47,1.87,1.32,3.05,3.68,3.45,5.93.69,3.89-.8,7.93-2.09,11.66-1.09,3.15-2.75,6.12-4.7,8.83-1.69,2.34-3.73,4.44-5.96,6.26-1.69,1.38-3.53,2.66-5.55,3.47-1.16.46-2.47,1.11-3.66.75-.97-.3-2.05-1.16-2.11-2.17-.13-2.14,2.44-3.55,3.91-5.11.85-.9,1.82-1.67,2.8-2.42,1.06-.82,2.29-2.18,3.29-2.3.65-2.22-.8-1.69-.89-6.08-.08-4.11,1.55-6.8,3.38-8.99" style="fill:none; stroke:#55a; stroke-linecap:round; stroke-linejoin:round; stroke-width:2px;"/></g><path id="uuid-5c16cf05-6b6c-4b99-8711-7ca60a08bbee" d="m109.97,422.32c1.56-4.12,4.18-7.98,4.68-12.35.66-5.76-.19-11.86-2.34-17.25-1.53-3.82-4.32-7.1-7.24-10.01-2.6-2.58-5.62-4.84-8.94-6.39-3.39-1.57-7.24-1.85-10.86-2.77" style="fill:none; stroke:#55a; stroke-linecap:round; stroke-linejoin:round; stroke-width:2.5px;"/><path id="uuid-2debe726-be82-497b-b074-f9687d24c8cf" d="m190.24,420.19c29.43-8.65,51.29-20.05,74.05-35.63,3.96-2.71,7.92-5.44,11.73-8.35,17.94-13.7,35.23-27.2,52.43-42.86" style="fill:none; stroke:#55a; stroke-linecap:round; stroke-linejoin:round; stroke-width:2px;"/><path id="uuid-5dc77fdc-9fc5-4935-ab4f-6b22da9ff871" d="m151.97,509.25l-70.6-141.39-18.12,8.43,76.53,132.96h12.18Z"/><path id="uuid-70d515d3-b736-410b-b02f-e3252c82375b" d="m297.99,194.77l-3.89,4.95-5.66-2.83,4.24-5.3-5.66-3.89-9.19,13.08,10.96,6.72-5.66,10.96-5.66-1.77,2.47-5.3-6.36-2.47-4.6,15.2,12.37,3.54-3.54,16.26h-6.36l1.77-9.9-6.01-1.06-2.12,17.68h10.96v16.26h-6.01l.35-8.49-6.72.71-1.06,15.56,11.31,1.77-1.06,16.26-7.07-1.06.71-7.78-6.36-1.06-3.89,15.2,12.37,5.3-8.13,15.2-5.66-2.83,3.18-7.07-6.01-1.77-6.72,10.25,9.19,8.84-10.96,12.37-5.66-4.6,5.66-4.6-4.6-5.66-11.31,10.25,8.13,11.67-5.02,2.37m-7.49-4.13l2.2-.88-3.52-5.28-6.17,3.38" style="fill:none; stroke:#5456aa; stroke-linecap:round; stroke-linejoin:round; stroke-width:2px;"/><path id="uuid-1fd04fc5-b3c9-431a-b49c-075a4a1ecbdb" d="m209.6,337.95c6.95-4.6,14.47-8.44,20.86-13.79,5.24-4.39,10.27-9.21,14.14-14.85,2.8-4.09,4.68-8.77,6.36-13.44,2.43-6.75,4.25-13.76,5.3-20.86.76-5.13.25-10.39.71-15.56.56-6.28,1.66-12.49,2.47-18.74.6-4.6.88-9.24,1.77-13.79.89-4.55,2.04-9.05,3.54-13.44,1.95-5.7,4.28-11.28,7.07-16.62,1.74-3.33,3.61-6.65,6.01-9.55,1.54-1.86,3.54-3.3,5.3-4.95" style="fill:none; stroke:#5456aa; stroke-linecap:round; stroke-linejoin:round; stroke-width:2px;"/><g id="uuid-3a01f580-2c30-4687-ad01-50d3e146dc16"><path id="uuid-77528e32-3d95-4bb5-8437-37adaecf56df" d="m294.81,339.01l.35,6.36-6.36-.35-3.54,6.01-4.6-6.36h-6.36l.71-6.36-5.3-3.18,6.01-4.6-.35-5.66,4.95.71,4.24-6.36,4.95,7.42,4.6-1.77v6.01l6.72,3.89-6.01,4.24Z" style="fill:#ffff57;"/><path id="uuid-3790a6b2-a08c-49d8-8ff3-83241a6d2180" d="m290.36,335.46l-5.41,5.08-5.12-5.52,5.18-4.9,5.34,5.34Z" style="fill:#f55; stroke:#000; stroke-linecap:round; stroke-linejoin:round; stroke-width:2px;"/></g><path id="uuid-5b159ce6-f2d3-4b47-80c9-95c6715ff88e" d="m198.81,335.98s8.08-1.71,11.86-3.33c4.66-2,8.93-4.86,13.08-7.78,2.12-1.49,4.15-3.14,6.01-4.95,1.67-1.63,4.6-5.3,4.6-5.3,0,0-2.87-3.15-4.25-4.77-1.7-2.02-3.48-3.99-4.95-6.19-1.11-1.65-2.9-5.22-2.9-5.22,0,0-6.61,1.67-9.97,1.53-3.34-.14-6.55-1.39-9.75-2.33-5.15-1.51-15.2-5.3-15.2-5.3l11.48,43.63Z" style="fill:#f55;"/><path id="uuid-a409f82d-c3b7-4f23-998e-349713e84f75" d="m249.56,284.59s-3.43-4.14-4.21-6.65c-.7-2.24-.9-4.77-.29-7.04.5-1.89,1.84-3.5,3.12-4.98,1.1-1.28,3.86-3.28,3.86-3.28,0,0-.8,6.88-1.19,10.42-.43,3.84-.05,7.68-1.28,11.52Z" style="fill:#f55;"/><path id="uuid-792079ed-a7ed-4a3f-b28f-980aab6b3f30" d="m244.96,294.47s-1.2,4.04-2.47,5.66c-1.1,1.39-2.49,2.93-4.24,3.18-1,.14-2.25-.23-2.83-1.06-.47-.68-.23-1.68,0-2.47.31-1.07,1.02-2.01,1.77-2.83.8-.87,1.86-1.45,2.83-2.12.92-.63,2.83-1.77,2.83-1.77l2.12,1.41Z" style="fill:#fff;"/><path id="uuid-e3b8d456-7376-4f81-a8dd-fe3dfd4b3575" d="m249.23,284.28l-1.8,6.65s-2.55-3.42-3.54-5.3c-1.35-2.58-2.68-5.27-3.18-8.13-.52-2.94-.46-6.04.22-8.94.48-2.03,1.51-3.93,2.64-5.68,1.13-1.74,2.44-3.42,4.08-4.7,1.53-1.19,5.18-2.6,5.18-2.6l-1.16,7.07s-3.77,3.19-4.95,5.3c-1.08,1.92-1.69,4.16-1.77,6.36-.07,1.8.36,3.64,1.06,5.3.74,1.74,3.21,4.67,3.21,4.67h0Z" style="fill:#ff5;"/><path id="uuid-9617e4e9-11c8-4185-a9a1-7ea2a140b748" d="m220.32,294.27s-6.71.69-10.01.2c-3.8-.56-7.33-2.3-10.96-3.54-2.96-1.01-5.98-1.9-8.84-3.18-4.28-1.92-8.36-4.29-12.37-6.72-2.91-1.76-5.61-3.85-8.49-5.66-2.55-1.6-5.11-3.21-7.78-4.6-2.53-1.32-5.03-2.79-7.78-3.54-2.29-.62-4.71-.59-7.07-.71-2.17-.11-6.51,0-6.51,0l-.27-9.37,4.3,4.42,1.06-3.89,7.78,6.36,1.41-3.54,8.13,8.13,2.12-3.89,7.78,9.9,2.99-3.61,6.91,7.86,2.12-3.18,8.13,8.49,1.41-3.18,9.9,7.07.71-3.18,9.19,5.3-.35-2.83,5.12,1.49,1.36,5.38Z" style="stroke:#000; stroke-linecap:round; stroke-linejoin:round;"/><path id="uuid-eeac0d29-4c6e-4019-9675-c92acf6d8b43" d="m123.81,344.67l-5.17-.66.28,6.51,4.54-2.13.35-3.71Z" style="fill:#f55;"/><path id="uuid-a72b65a2-7572-4863-ab92-29301a769c21" d="m266.88,349.62c.13,2.32,3.92,4.32,2.83,6.36-1.43,2.69-7.29,4.09-9.01,1.58-.81-1.18,2.08-2.26,2.21-3.68.11-1.26-1.34-3.55-1.34-3.55h-12.02l1.06-3.89h11.31s1.45-1.38,1.5-2.29c.07-1.3-2.66-2.54-1.76-3.47,1.79-1.84,5.94.93,6.97,3.29.79,1.81-1.88,3.68-1.77,5.66h0Z" style="stroke:#ff5; stroke-linecap:round; stroke-linejoin:round; stroke-width:2px;"/><path id="uuid-16d58918-3275-4a7f-827e-5d940fa1ee18" d="m319.21,333.71s-5.5-.23-7.07-2.12c-1.44-1.73-.71-6.72-.71-6.72,0,0-2.71,2.5-4.24,2.12-1.56-.38-2.87-2.29-2.83-3.89.03-1.51,1.44-2.93,2.83-3.54,1.41-.61,4.6.35,4.6.35,0,0-2.1-5.81-4.64-6.98-2.36-1.08-5.38-.13-7.74.97-2.04.95-2.76,4.09-4.95,4.6-1.2.28-3.03.06-3.54-1.06-.9-2.02,2.59-3.81,2.83-6.01.23-2.13.13-4.79-1.41-6.28-.95-.92-2.58-.9-3.89-.75-.85.1-2.35,1.06-2.35,1.06,0,0,1.67,3.87.58,5.26-1.1,1.4-3.79,1.65-5.3.71-1.58-.99-2.2-3.49-1.77-5.3.3-1.27,2.77-2.77,2.77-2.77l-1.36-7.48s3.28,2.74,5.25,3.47c1.96.73,4.25.1,6.21.79,1.9.67,3.89,1.6,5.15,3.17,1.34,1.65,2.12,6.01,2.12,6.01,0,0,4.64-2.52,7.07-2.12,3,.5,5.51,2.94,7.42,5.3,1.31,1.63,2.19,3.68,2.49,5.75.3,2.08-.65,4.17-.76,6.27-.06,1.18-.26,2.4.04,3.54.56,2.09,3.18,5.66,3.18,5.66Z" style="stroke:#ff5; stroke-linecap:round; stroke-linejoin:round; stroke-width:2px;"/><path id="uuid-46c556aa-3625-420c-954a-aefbe0067585" d="m322.39,259.82s-3.96.46-5.3-.71c-1.71-1.49-1.84-6.56-1.84-6.56,0,0-1.35,3.54-2.91,3.74-1.41.18-3.31-1.15-3.39-2.57-.1-1.8,3.93-3.7,3.93-3.7,0,0-2.31-3.41-5.58.88-.91,1.19-1.41,2.69-1.76,4.15-.38,1.55-.37,4.76-.37,4.76l-4.61-.08s1.12-3.69.98-5.57c-.11-1.49-.35-3.2-1.41-4.24-.93-.91-3.74-1.13-3.74-1.13,0,0,.47,1.51.2,2.19-.52,1.32-1.76,2.8-3.18,2.83-1.26.02-2.61-1.19-2.93-2.41-.26-1.01.47-2.11,1.16-2.89.27-.3,1.07-.59,1.07-.59,0,0-2.65-1.7-3.54-2.95-.96-1.34-1.78-4.62-1.78-4.62,0,0,4.24,3.05,6.73,3.56,1.41.29,2.91-.68,4.32-.35,1.57.36,3.09,1.27,4.17,2.47.77.87,1.41,3.18,1.41,3.18,0,0,2.49-3.2,4.25-4.05,1.5-.73,3.32-1.05,4.95-.7,1.63.34,3.14,1.39,4.23,2.64.76.87,1.02,2.08,1.4,3.17.32.92.54,1.87.73,2.82.18.93.03,1.93.35,2.83.52,1.45,2.47,3.89,2.47,3.89Z" style="stroke:#ff5; stroke-linecap:round; stroke-linejoin:round; stroke-width:2px;"/><path id="uuid-1dfde380-e752-49c8-9d38-2e595e341519" d="m273.24,376.49c-5.07-4.12-9.88-8.59-15.2-12.37-6.86-4.88-14.14-9.16-21.51-13.25-4.75-2.64-9.63-5.04-14.59-7.25-3.98-1.77-8.02-3.43-12.15-4.81-3.54-1.18-7.2-1.98-10.8-2.97" style="fill:none; stroke:#5456aa; stroke-linecap:round; stroke-linejoin:round; stroke-width:2px;"/><path id="uuid-e07df9b9-c0f9-416a-a256-447d20f17618" d="m186.96,346.84l-14.48-8.88" style="fill:none; stroke:#5456aa; stroke-linecap:round; stroke-linejoin:round; stroke-width:2px;"/><path id="uuid-f13f60fa-3649-4461-8aa3-3ebe2750ef18" d="m186.45,340.25l-13-8" style="fill:none; stroke:#5456aa; stroke-linecap:round; stroke-linejoin:round; stroke-width:2px;"/><path id="uuid-bd3a95d8-a55c-41fb-83af-0de57bbec268" d="m185.7,331.5l-12.25-6.25" style="fill:none; stroke:#5456aa; stroke-linecap:round; stroke-linejoin:round; stroke-width:2px;"/><path id="uuid-5d3ef39a-e3bf-4c9d-8c23-fe3c71830f4b" d="m183.95,324l-11.75-6.5" style="fill:none; stroke:#5456aa; stroke-linecap:round; stroke-linejoin:round; stroke-width:2px;"/><path id="uuid-a5d827ab-33c1-4839-8e26-2cdd8a6d52ec" d="m182.45,317.25l-10.25-6.5" style="fill:none; stroke:#5456aa; stroke-linecap:round; stroke-linejoin:round; stroke-width:2px;"/><path id="uuid-429ede4b-754d-4dca-8389-e68c6438cafa" d="m180.95,309.25l-9.5-6" style="fill:none; stroke:#5456aa; stroke-linecap:round; stroke-linejoin:round; stroke-width:2px;"/><path id="uuid-cf862e9f-95b1-47fa-8abc-aa2117adb95f" d="m179.7,301.75l-7.75-4" style="fill:none; stroke:#5456aa; stroke-linecap:round; stroke-linejoin:round; stroke-width:2px;"/><path id="uuid-9ca77abf-17b2-4043-87da-533b349cc0ac" d="m178.7,294.25l-7.25-4.5" style="fill:none; stroke:#5456aa; stroke-linecap:round; stroke-linejoin:round; stroke-width:2px;"/><path id="uuid-4af35497-60c6-458b-bd26-8e8e4f72f98e" d="m146.07,341.92l12.73-8.13" style="fill:none; stroke:#5456aa; stroke-linecap:round; stroke-linejoin:round; stroke-width:2px;"/><path id="uuid-2b8721be-ee95-461d-93a0-de09cfaab5c8" d="m146.83,335.08l11-7" style="fill:none; stroke:#5456aa; stroke-linecap:round; stroke-linejoin:round; stroke-width:2px;"/><path id="uuid-076c6aec-4220-46a4-a6c7-0cc0e4b76b59" d="m147.83,326.58l10-5.5" style="fill:none; stroke:#5456aa; stroke-linecap:round; stroke-linejoin:round; stroke-width:2px;"/><path id="uuid-bd7c025f-9d40-4264-8ab3-81f13457bf48" d="m147.33,319.33l11.25-6" style="fill:none; stroke:#5456aa; stroke-linecap:round; stroke-linejoin:round; stroke-width:2px;"/><path id="uuid-82198ac3-fe96-4fab-9db2-3eed1f91b266" d="m147.83,312.58l10.75-5.75" style="fill:none; stroke:#5456aa; stroke-linecap:round; stroke-linejoin:round; stroke-width:2px;"/><path id="uuid-030e3aa0-ef9f-42ae-8263-2dd897da426e" d="m148.33,305.58l11.5-6.5" style="fill:none; stroke:#5456aa; stroke-linecap:round; stroke-linejoin:round; stroke-width:2px;"/><path id="uuid-866001f6-3531-491e-8ef6-f25ea484de60" d="m149.58,298.83l9.75-5.25" style="fill:none; stroke:#5456aa; stroke-linecap:round; stroke-linejoin:round; stroke-width:2px;"/><path id="uuid-9c8c4d50-b0e9-4f90-9fdb-1c52a2653500" d="m150.58,291.33l9.25-5.75" style="fill:none; stroke:#5456aa; stroke-linecap:round; stroke-linejoin:round; stroke-width:2px;"/><path id="uuid-0ad60169-ef27-4dcc-8d01-9abaf6610207" d="m170.95,282.75l6.8,4.87" style="fill:none; stroke:#5456aa; stroke-linecap:round; stroke-linejoin:round; stroke-width:2px;"/><path id="uuid-f2fa29d3-5f55-4739-872f-f9f08c981b8e" d="m152.2,282.5l6.75-3.25" style="fill:none; stroke:#5456aa; stroke-linecap:round; stroke-linejoin:round; stroke-width:2px;"/><path id="uuid-32b34c81-6953-4911-9558-8ff838fc4964" d="m158.45,276.46l-5.53-2.15" style="fill:none; stroke:#5456aa; stroke-linecap:round; stroke-linejoin:round; stroke-width:2px;"/><g id="uuid-54917626-a83c-4826-94ce-fb6c01b26078"><path id="uuid-31c3df00-1976-41c5-9a87-bf22e960e21a" d="m55.95,405.25c.83,2.17,3.28,4.31,2.5,6.5-.9,2.53-4.32,4.18-7,4-2.73-.19-5.41-2.49-6.5-5-1.07-2.46-.13-4.63.75-8-3.01,1.85-4.26,2.3-6.25,1.5-3.13-1.25-5.72-5.13-5.5-8.5.18-2.83,2.74-5.85,5.5-6.5,2.47-.58,4.67,2,7,3-.5-3-2.63-6.18-1.5-9,.93-2.32,3.5-4.52,6-4.5,2.73.02,5.5,2.46,6.5,5,1.11,2.83-1,6-1.5,9,1.83-1.33,3.24-4.21,5.5-4,3.64.34,7.26,4.35,7.5,8,.19,2.86-2.58,5.46-5,7-2.29,1.46-5.33,1-8,1.5Z" style="fill:#ff5; stroke:#5456aa; stroke-linecap:round; stroke-linejoin:round; stroke-width:2px;"/><path id="uuid-7c8962d5-39ad-4977-9b3e-995303134c6e" d="m61.95,404.25l3.5,8.5-6-1.5-3-5.5,5.5-1.5Z" style="fill:#55a; stroke:#5456aa; stroke-linecap:round; stroke-linejoin:round; stroke-width:2px;"/><path id="uuid-70c30a9e-4239-4b15-9a51-9fb866566672" d="m46.45,405.25l-2.5,5.5-6.5,1,2.5-6.5h6.5Z" style="fill:#55a; stroke:#5456aa; stroke-linecap:round; stroke-linejoin:round; stroke-width:2px;"/><path id="uuid-b3a82b64-0d2a-43a4-8247-9aea6ba3b3b4" d="m44.95,390.25l-.5-6-5-.5,1,5.5,4.5,1Z" style="fill:#55a; stroke:#5456aa; stroke-linecap:round; stroke-linejoin:round; stroke-width:2px;"/><path id="uuid-c1b2f0cc-56e6-4254-b298-409b2aa9d195" d="m60.95,390.25l2-7-4.5,1.5-2.5,8.5,5-3Z" style="fill:#55a; stroke:#5456aa; stroke-linecap:round; stroke-linejoin:round; stroke-width:2px;"/><path id="uuid-f55d3446-47d9-4909-9e6e-3ae55e6551e8" d="m53.45,378.75l-1.5-40.5-3.5,2,1.5,38.25,3.5.25Z" style="fill:#ff5; stroke:#5456aa; stroke-linecap:round; stroke-linejoin:round; stroke-width:2px;"/><path id="uuid-e61cbd8b-e3a2-4289-9fe7-79af16caa11b" d="m46.95,347.75c-.33,5.51-1.02,11.2-3.25,16.25-2.22,5.02-6.25,9.42-9.75,13.25-.17-5.5-.25-11.58.75-17.25.62-3.53,1.39-7.19,3.25-10.25,2.08-3.42,5.67-5.67,8.5-8.5.17,2.17.63,4.33.5,6.5Z" style="fill:#ff5; stroke:#5456aa; stroke-linecap:round; stroke-linejoin:round; stroke-width:2px;"/><path id="uuid-fbdd24ac-bc9f-4923-bc52-b8bf21dcc337" d="m37.95,367.75c.83-3.83,1.32-7.76,2.5-11.5,1.3-4.13,5-12,5-12h0" style="fill:none; stroke:#5456aa; stroke-linecap:round; stroke-linejoin:round; stroke-width:2px;"/><path id="uuid-82badc4f-847b-4ac2-a331-712a304904de" d="m70.95,366.75c-4.83-3.83-11.18-6.3-14.5-11.5-3.05-4.77-2.67-11-4-16.5,3.83,3.83,8.01,7.35,11.5,11.5,2.23,2.65,4.75,5.27,6,8.5.97,2.51.67,5.33,1,8Z" style="fill:#ff5; stroke:#5456aa; stroke-linecap:round; stroke-linejoin:round; stroke-width:2px;"/><path id="uuid-8b1700d7-0c90-4612-be9a-2d8ecb81d07d" d="m65.95,357.75c-2.5-2.33-5.38-4.32-7.5-7-2.5-3.16-4-7-6-10.5" style="fill:none; stroke:#5456aa; stroke-linecap:round; stroke-linejoin:round; stroke-width:2px;"/><path id="uuid-9f6e718d-2678-440a-b0bf-2c55492daf7c" d="m61.45,397.75l-11,10.5-9.25-10.75,9.75-10,10.5,10.25Z" style="fill:#f55; stroke:#5456aa; stroke-linecap:round; stroke-linejoin:round; stroke-width:2px;"/><path id="uuid-6f3fb241-19fe-4862-809f-d526d91c87e4" d="m55.45,397.75l-4.5,4.5-4.5-4.5,4-4.75,5,4.75Z" style="fill:#ff5; stroke:#5456aa; stroke-linecap:round; stroke-linejoin:round; stroke-width:2px;"/></g><g id="uuid-b010cce6-5a2d-4d1c-8ff6-68f289ef494a"><path id="uuid-22c783f5-0957-4b7b-8a76-db1d993688bf" d="m317,285.64l.35,6.36-6.36-.35-3.54,6.01-4.6-6.36h-6.36l.71-6.36-5.3-3.18,6.01-4.6-.35-5.66,4.95.71,4.24-6.36,4.95,7.42,4.6-1.77v6.01l6.72,3.89-6.01,4.24Z" style="fill:#ffff57;"/><path id="uuid-4aa69a38-ede1-45c0-94dc-2e0eeb840147" d="m312.54,282.08l-5.41,5.08-5.12-5.52,5.18-4.9,5.34,5.34Z" style="fill:#f55; stroke:#000; stroke-linecap:round; stroke-linejoin:round; stroke-width:2px;"/></g><path id="uuid-15eb6d1e-381a-4cc0-a775-54c5bdcd1980" d="m241.35,289.56s-2.24,3.57-3.9,4.78c-1.43,1.04-3.19,2.15-4.94,1.92-1-.13-2.11-.83-2.44-1.78-.27-.78.23-1.68.67-2.38.58-.95,1.52-1.66,2.46-2.25,1-.62,2.18-.9,3.29-1.28,1.05-.36,3.2-.94,3.2-.94l1.66,1.93Z" style="fill:#fff;"/><path id="uuid-a8e33fe1-f145-412e-88dd-68a9b4d9e799" d="m238.51,284.47s-3.14,2.81-5.08,3.51c-1.66.6-3.66,1.18-5.28.48-.92-.4-1.8-1.38-1.85-2.39-.04-.82.69-1.55,1.3-2.11.82-.75,1.92-1.18,2.99-1.48,1.13-.32,2.34-.26,3.52-.32,1.11-.05,3.34-.02,3.34-.02l1.06,2.32Z" style="fill:#fff;"/><path id="uuid-57f261c7-c761-4110-a2b7-5bd571990f86" d="m235.86,278.67s-3.94,1.51-6,1.48c-1.77-.03-3.84-.2-5.11-1.43-.72-.7-1.19-1.93-.88-2.89.25-.79,1.2-1.2,1.96-1.51,1.03-.41,2.21-.42,3.32-.32,1.17.11,2.28.59,3.4.96,1.06.35,3.12,1.17,3.12,1.17l.17,2.54Z" style="fill:#fff;"/><path id="uuid-7d023764-3454-4267-ab0e-51cadcea2ce9" d="m235.91,272.86s-4.19.51-6.17-.03c-1.71-.46-3.68-1.12-4.6-2.63-.53-.86-.68-2.16-.15-3.02.44-.7,1.45-.88,2.27-.98,1.1-.14,2.25.13,3.3.5,1.11.39,2.07,1.13,3.07,1.75.94.59,2.75,1.89,2.75,1.89l-.46,2.51Z" style="fill:#fff;"/><path id="uuid-af08d4c6-878d-4b2b-836a-104179e67ee2" d="m252.05,253.13s.61-4.17.13-6.17c-.41-1.72-1.03-3.71-2.51-4.67-.84-.55-2.14-.74-3.01-.23-.71.42-.91,1.43-1.04,2.25-.17,1.1.08,2.25.41,3.31.36,1.12,1.07,2.1,1.67,3.11.57.96,1.82,2.79,1.82,2.79l2.52-.39Z" style="fill:#fff;"/><path id="uuid-75cf40f7-dd26-418a-92f8-77716f2057c8" d="m247.09,255.92s-.53-4.18-1.53-5.98c-.86-1.54-1.99-3.29-3.67-3.82-.96-.3-2.26-.13-2.96.59-.57.59-.5,1.62-.4,2.44.13,1.1.68,2.15,1.29,3.08.65.99,1.6,1.74,2.45,2.55.8.77,2.51,2.2,2.51,2.2l2.32-1.05Z" style="fill:#fff;"/><path id="uuid-721db59f-2943-4e47-b733-8925fc047cf4" d="m242.64,259.5s-1.67-3.87-3.13-5.32c-1.26-1.24-2.82-2.61-4.59-2.65-1.01-.02-2.21.5-2.68,1.39-.39.73-.03,1.7.3,2.46.43,1.02,1.25,1.87,2.09,2.6.9.77,2.02,1.22,3.06,1.77.99.51,3.02,1.42,3.02,1.42l1.94-1.66Z" style="fill:#fff;"/><path id="uuid-f747f026-0d1f-4cc5-b239-167ffaa3b2c1" d="m238.28,264.12s-2.94-3.02-4.82-3.86c-1.62-.72-3.57-1.44-5.24-.85-.95.34-1.89,1.25-2.01,2.25-.1.82.58,1.6,1.15,2.19.77.8,1.83,1.31,2.88,1.68,1.11.4,2.32.43,3.49.56,1.1.13,3.33.25,3.33.25l1.22-2.24Z" style="fill:#fff;"/><g id="uuid-3ad06909-e677-4034-ba67-c8eceee92e3a"><path id="uuid-8309d45a-b724-45f1-8890-4f4456c42176" d="m172.13,344.67l-2.12-62.58-10.25-5.3-.71,67.18,13.08.71Z" style="fill:#ff5; stroke:#000; stroke-linecap:round; stroke-linejoin:round; stroke-width:2px;"/><path id="uuid-b770bb61-ba07-4aa7-a484-93e053ce52f7" d="m167.18,339.37c-3.54,0-2.83,0-2.83,0l-.35-3.18,2.97-.15.21,3.33Z"/><path id="uuid-b480b8d5-e3e6-44c0-9bf1-2d1899f7b2c7" d="m166.79,332.41c-3.54,0-2.83,0-2.83,0l-.35-3.18,2.97-.15.21,3.33Z"/><path id="uuid-1a4e41e3-450c-4878-9005-bcc838c6ba6c" d="m167.04,325.41c-3.54,0-2.83,0-2.83,0l-.35-3.18,2.97-.15.21,3.33Z"/><path id="uuid-fd737c89-3855-4044-99b8-26ce1f822559" d="m167.29,319.16c-3.54,0-2.83,0-2.83,0l-.35-3.18,2.97-.15.21,3.33Z"/><path id="uuid-c1db2f49-9194-4b0d-8aed-7244c8dec5da" d="m167.29,311.91c-3.54,0-2.83,0-2.83,0l-.35-3.18,2.97-.15.21,3.33Z"/><path id="uuid-c7b7f4d0-d4d4-40eb-b9a4-f6c43924ae1f" d="m167.54,305.91c-3.54,0-2.83,0-2.83,0l-.35-3.18,2.97-.15.21,3.33Z"/><path id="uuid-d6f54a02-fd98-4d7f-b10f-eb8aae6a64cc" d="m166.79,299.41c-3.54,0-2.83,0-2.83,0l-.35-3.18,2.97-.15.21,3.33Z"/><path id="uuid-fe18dec8-2d45-4829-b5b6-c543fd777f8e" d="m166.79,293.41c-3.54,0-2.83,0-2.83,0l-.35-3.18,2.97-.15.21,3.33Z"/><path id="uuid-b9782eaa-1169-4d1c-aec5-5d6a1a27ba94" d="m166.79,286.91c-3.54,0-2.83,0-2.83,0l-.35-3.18,2.97-.15.21,3.33Z"/></g></g><path id="uuid-4922af43-703d-4103-8529-3a0376fc7045" d="m29.5,149.5v360h270" style="fill:none; stroke:#55a; stroke-width:2px;"/><path id="uuid-b11b5a42-913e-4f90-89fd-656e03f63457" d="m59.5,29.5h270v360h0" style="fill:none; stroke:#55a; stroke-width:2px;"/><path id="uuid-f8dc1d45-cc64-413e-8e00-e316d9637cc8" d="m29,98.5c0-5.52-2.86-9-7-9s-7.5,4.48-7.5,10c.02.48,0,.95,0,1.41,0,3.65,1.34,7.19,2.5,10.5,1.19,3.41,2.92,6.39,4.53,9.44,2.5,4.72,7.97,13.66,7.97,13.66,0,0,5.47-8.94,7.97-13.66,1.61-3.05,3.34-6.03,4.53-9.44,1.16-3.31,2.5-6.85,2.5-10.5-.01-.49,0-.96,0-1.41,0-5.52-3.36-10-7.5-10s-7,3.48-7,9c0,1-1,1-1,0Z" style="fill:#f55;"/><path id="uuid-677e1057-49db-40b9-815f-5ed2c9109416" d="m88.5,62.5c0-11.05-5.72-18-14-18s-15,8.95-15,20c.03.96.02,1.89,0,2.81,0,7.3,2.68,14.38,5,21,2.39,6.81,5.83,12.78,9.06,18.88,5,9.44,15.94,27.31,15.94,27.31,0,0,10.94-17.87,15.94-27.31,3.23-6.09,6.67-12.06,9.06-18.88,2.32-6.62,5-13.7,5-21-.03-.97-.02-1.91,0-2.81,0-11.05-6.72-20-15-20s-14,6.95-14,18c0,2-2,2-2,0Z" style="fill:#f55;"/><path id="uuid-e196ff4e-9817-49f8-beb9-447592894e21" d="m330,440.5c0,5.52,2.86,9,7,9s7.5-4.48,7.5-10c-.02-.48,0-.95,0-1.41,0-3.65-1.34-7.19-2.5-10.5-1.19-3.41-2.92-6.39-4.53-9.44-2.5-4.72-7.97-13.66-7.97-13.66,0,0-5.47,8.94-7.97,13.66-1.61,3.05-3.34,6.03-4.53,9.44-1.16,3.31-2.5,6.85-2.5,10.5.01.49,0,.96,0,1.41,0,5.52,3.36,10,7.5,10s7-3.48,7-9c0-1,1-1,1,0Z" style="fill:#f55;"/><path id="uuid-ab284a13-ca43-4148-a43d-39cb5d37132b" d="m270.5,476.5c0,11.05,5.72,18,14,18s15-8.95,15-20c-.03-.96-.02-1.89,0-2.81,0-7.3-2.68-14.38-5-21-2.39-6.81-5.83-12.78-9.06-18.88-5-9.44-15.94-27.31-15.94-27.31,0,0-10.94,17.87-15.94,27.31-3.23,6.09-6.67,12.06-9.06,18.88-2.32,6.62-5,13.7-5,21,.03.97.02,1.91,0,2.81,0,11.05,6.72,20,15,20s14-6.95,14-18c0-2,2-2,2,0Z" style="fill:#f55;"/></g></svg>