<?xml version="1.0" encoding="UTF-8"?><svg id="uuid-d78e66c3-cc42-463f-865a-0e2586a744ea" xmlns="http://www.w3.org/2000/svg" viewBox="0 0 359 539"><g id="uuid-6d55676d-abbf-485f-9cb7-b7ffb2b31660"><path id="uuid-84584567-dcb0-4c0f-a145-1c3bf68ee29b" d="m29.5,29.5c-5.52,0-10,4.48-10,10v30c0,5.52,4.48,10,10,10,.43,0,.86-.04,1.28-.09,1.71,3.05,4.97,5.09,8.72,5.09v-5c-1.64,0-3.09-.81-4-2.03,2.42-1.82,4-4.7,4-7.97v-30c0-5.52-4.48-10-10-10h0Zm0,5c2.76,0,5,2.24,5,5v30c0,.72-.17,1.38-.44,2-1.27-4.06-5.09-7-9.56-7v-25c0-2.76,2.24-5,5-5Zm-5,35c2.76,0,5,2.24,5,5-2.76,0-5-2.24-5-5Z" style="fill:#f55;"/><path id="uuid-b966492a-014a-4e7b-abeb-a76566d0f750" d="m329.5,509.5c5.52,0,10-4.48,10-10v-30c0-5.52-4.48-10-10-10-.43,0-.86.04-1.28.09-1.71-3.05-4.97-5.09-8.72-5.09v5c1.64,0,3.09.81,4,2.03-2.42,1.82-4,4.7-4,7.97v30c0,5.52,4.48,10,10,10h0Zm0-5c-2.76,0-5-2.24-5-5v-30c0-.72.17-1.38.44-2,1.27,4.06,5.09,7,9.56,7v25c0,2.76-2.24,5-5,5Zm5-35c-2.76,0-5-2.24-5-5,2.76,0,5,2.24,5,5Z" style="fill:#f55;"/><g id="uuid-5a0c62b0-2d2e-416a-99ba-67a24face61c"><path id="uuid-fec52e3c-0979-44b9-b225-e81ab0107ee1" d="m144.22,248.16l-.5,3.28-.12.81-1.12-1.09-.28.53-3.16-1.41.84,3.72.34,2.91.38,1.22,3.88,2,1.09-2.5,5.59,5.16,2.25,2.09,1-2.91.56-1.62,6.41,6.16,2,1.97,1.19-2.56.69-1.44,5.91,7.22,2.12,2.44,1.53-1.94,1.25-1.56,5.09,6,2.19,2.53,1.19-3.12.28-.72,6.34,6.84,2.66,2.88.78-3.84.12-.59.91,1.12.25-.53,6.25,5.47,2.56,2.22.72-3.31.22-.97,1.09,1.06.06-.22,4.28,3.19,2.66,1.97.5-3.28.12-.81,1.12,1.09.28-.53,3.19,1.41-.62-2.75,1.03.31-1.35-3.21-2.65-2.2-1.88-2-1.09,2.5-5.59-5.16-2.25-2.09-1,2.91-.56,1.62-6.41-6.16-2-1.97-1.19,2.56-.69,1.44-5.91-7.22-1.77-2.35-1.53,1.94-1.25,1.56-5.45-6.09-2.19-2.53-1.19,3.12-.28.72-6.34-6.84-2.66-2.88-.78,3.84-.12.59-.91-1.12-.25.53-6.25-5.47-2.56-2.22-.72,3.31-.22.97-1.09-1.06-.06.22-4.28-3.19-2.66-1.97Z" style="fill:#ff5;"/><path id="uuid-89d45e31-efb0-486d-b33f-88a69f1a88b8" d="m213,192.18l-8.55,73.21,10.07,1.87,20.99-78.16-22.51,3.08Z" style="fill:#55a;"/><path id="uuid-28ae7af4-9656-4e9d-a091-2a6e48ad7a81" d="m123.24,223.78c-2.59,3.54-5.55,6.83-7.78,10.61-1.71,2.91-3.01,6.05-4.24,9.19-1.53,3.92-3.18,7.87-3.89,12.02-.76,4.42.05,8.97-.35,13.44-.55,6.06-2.02,12-2.83,18.03-.57,4.23-1.05,8.48-1.41,12.73-.33,3.76-.47,7.54-.71,11.31,3.18-1.53,6.39-3,9.55-4.6,3.81-1.93,7.84-3.53,11.31-6.01,3.8-2.71,7.46-5.81,10.25-9.55,2.37-3.16,4.06-6.86,5.3-10.61,1.25-3.77,1.86-7.76,2.11-11.73.28-4.46-.14-8.95-.69-13.38-.45-3.58-.89-7.22-2.12-10.61-1.51-4.16-3.88-8-6.36-11.67-1.45-2.15-3.21-4.09-4.95-6.01-1.01-1.11-2.12-2.12-3.18-3.18h0Z" style="fill:#55a;"/><path id="uuid-3bf4a2a0-6d70-4370-b6d8-9845598956b2" d="m88.76,157.72s10.41,8.1,15.75,11.96c5.22,3.78,10.34,7.73,15.91,10.96,4.22,2.45,8.71,4.44,13.2,6.36,4.01,1.71,8.1,3.25,12.25,4.6,3.37,1.1,10.25,2.83,10.25,2.83l-1.06-8.13s-11.67-3.19-17.32-5.3c-4.35-1.63-8.61-3.51-12.73-5.66-4.03-2.11-7.88-4.55-11.67-7.07-4-2.66-7.81-5.61-11.67-8.49-2.5-1.86-7.42-5.66-7.42-5.66l-5.49,3.6Z" style="fill:#f55;"/><path id="uuid-59ffede4-34fe-4ab3-a884-8769708f3da6" d="m29.5,205.5s14.34-12.52,21.75-18.5c6.61-5.34,13.51-10.33,20.25-15.5,4.34-3.33,13-10,13-10,0,0,9.62,7.73,14.5,11.5,3.96,3.05,7.83,6.24,12,9,3.86,2.56,12,7,12,7,0,0-8.39,4.1-12,7-4.78,3.84-8.61,8.76-12.5,13.5-4.69,5.73-9.6,11.42-13,18-4.04,7.82-6.74,16.38-8.5,25-.9,4.42-.76,8.99-1,13.5-.27,5-.14,10.01-.5,15-.33,4.52-.91,9.01-1.5,13.5-.58,4.35-2,13-2,13,0,0-3.89-7.01-7.25-8.75-2.89-1.5-6.5-1.02-9.75-.75-4.11.35-8.23,1.33-12,3-2.2.97-3.89,2.84-6,4-1.44.79-3.06,1.21-4.5,2-1.05.58-3,2-3,2v-103.5Z"/><path id="uuid-95eab6b5-1b54-4bfe-b155-e91e334e70f1" d="m158.55,60.64s-10.51,9.83-15.12,15.33c-5.2,6.2-10.21,12.68-14.05,19.8-3.51,6.51-6.11,13.53-8.09,20.65-2.04,7.35-3.83,22.57-3.83,22.57l21.29-10.22s2.14-10.26,4.05-15.12c2.05-5.23,4.75-10.24,7.88-14.9,2.78-4.14,9.58-11.5,9.58-11.5l-1.7-26.62Z" style="fill:#000004;"/><path id="uuid-2f3461f7-dd6d-4fe6-9f26-fa89f89d5192" d="m216.87,29.5l51.39,88.8,8.32-3.64-49.98-85.16h-9.73Z" style="fill:#ff5455;"/><path id="uuid-5c50ce88-5900-4637-bceb-04d4f07b63b7" d="m291.72,29.5c-1.78,8.49-2.76,17.15-2.91,25.83-.2,11.3.99,22.63,3.48,33.65,1.77,7.87,4.21,15.58,7.26,23.04-3.99-.75-8.08-.95-12.13-.61-3.7.32-7.36,1.09-10.87,2.3l-50.17-84.22h65.35" style="fill:#ff5; stroke:#55a; stroke-linecap:round; stroke-linejoin:round; stroke-width:2px;"/><path id="uuid-e47ed1db-433d-47e6-99f9-b7513c594a46" d="m275.99,170.55c-17.23,8.9-25.11,13-38.67,16.56-15.81,4.15-32.42,6.08-48.76,5.33-14.71-.68-29.53-3.57-43.29-8.8-18.46-7.02-35.06-16.47-51.24-29.76,5.99-4.27,16.42-10.9,25.22-15.28,10.26-5.11,15.87-8.98,31.94-12.76,4.34,2.49,8.5,5.49,13.18,7.31,6.32,2.46,13.04,4.07,19.79,4.77,6.83.71,13.76.15,20.58-.59,6.9-.74,13.85-1.75,20.47-3.86,6.44-2.05,12.1-4.54,18.42-8.43-1.29,17.27-.39,22.17,9.34,31.3,2.17,1.8,13.75,8.99,19.39,7.91,4.92,3.58,1.12,5.1,3.62,6.31h0Z" style="fill:#ffff58;"/><path id="uuid-be54b0b6-a185-435a-82bd-907f090c3bc2" d="m255.6,53.03c-2.53-1.88-6.23-2.15-8.05-.18-2.11,2.28-1.09,6.92.95,9.26,2.39,2.75,7.65,4.73,10.62,2.61,1.36-.97,1.27-3.54.44-4.99-.41-.73-1.36-1.09-2.27-1.09" style="fill:none; stroke:#000; stroke-linecap:round; stroke-linejoin:round; stroke-width:2.5px;"/><path id="uuid-437f0bcc-52c2-4831-bd24-c58ba02566e1" d="m262.76,70.5c2.03-1.78,1.06-3.64,0-4.87-.87-1.01-2.82-1.31-3.96-.61-2.98,1.85-4.46,6.78-3.17,10.04,1.3,3.29,5.82,6.02,9.25,5.17,2.35-.58,4.67-2.81,3.96-6.09" style="fill:none; stroke:#000; stroke-linecap:round; stroke-linejoin:round; stroke-width:2.5px;"/><path id="uuid-87d1098c-a94b-4731-8dc4-bf9726548b44" d="m261.85,62.59c-.83-1.29-.64-3.67.61-4.57,1.26-.9,3.74-.4,4.57.91.89,1.41.24,4.05-1.22,4.87-1.2.68-3.21-.06-3.96-1.22h0Z" style="fill:none; stroke:#000; stroke-linecap:round; stroke-linejoin:round; stroke-width:2.5px;"/><path id="uuid-1c7edf1d-cc79-454b-9ba0-ff5ad9922f31" d="m249.98,43.72c.35,2.95-1.56,7.43-4.57,7.91-3.15.5-5.89-3.45-7.12-6.39-1.26-3-1.97-7.55.43-9.74,1.65-1.51,5.15-1.31,6.7.3.84.88,1.09,2.9,0,3.65" style="fill:none; stroke:#000; stroke-linecap:round; stroke-linejoin:round; stroke-width:2.5px;"/><path id="uuid-46e14935-11e2-4075-97a1-b0cb090b6a38" d="m230.2,29.5c.91,5.88,4.28,6.34,7.3,5.7,2.11-.45,3.75-3.6,3.04-5.7" style="fill:none; stroke:#000; stroke-linejoin:round; stroke-width:2.5px;"/><path id="uuid-f6b1c346-5f63-4809-96b3-0aa801537c76" d="m241.59,29.5c-1.02,1.69.58,3.17,1.83,3.26,1.37.1,3.01-1.93,2.52-3.26" style="fill:none; stroke:#000; stroke-linejoin:round; stroke-width:2.5px;"/><path id="uuid-e82b82ad-aeed-4cef-89c8-69f3f52ac5fc" d="m273.72,83.28c-.44-.47-.98-.88-1.59-1.22-1.83-1.01-4.22-1.33-5.84-.35-2.8,1.7-2.47,6.33-1.05,9.01,1.49,2.82,5.39,5.22,8.48,4.43,1.77-.45,3.51-2.8,3.04-4.57-.35-1.32-1.81-3.25-3.65-1.83" style="fill:none; stroke:#000; stroke-linecap:round; stroke-linejoin:round; stroke-width:2.5px;"/><path id="uuid-fa1a1e64-5a9b-4a79-a70e-c8cf6ed15a51" d="m278.89,92.11c-.51-1.32.21-3.44,1.52-3.96,1.3-.52,3.39.48,3.78,1.83.4,1.37-.88,3.26-2.26,3.65-1.09.31-2.63-.46-3.04-1.52h0Z" style="fill:none; stroke:#000; stroke-linecap:round; stroke-linejoin:round; stroke-width:2.5px;"/><path id="uuid-b77b70b3-a9e3-408d-99ab-c5de48b140f1" d="m279.2,99.72c1.56.45,1.07-3.33,0-4.26-1.16-1.01-3.51-.5-4.57.61-2,2.09-2.02,6.05-.75,8.65,1.35,2.78,4.81,5.97,7.76,5.06,2.52-.78,3.53-3.21,3.03-7.32" style="fill:none; stroke:#000; stroke-linecap:round; stroke-linejoin:round; stroke-width:2.5px;"/><path id="uuid-e3bc5f52-05a6-4259-b28e-3c61809c9814" d="m158.19,29.5s.8,19.91,1.25,29.87c.29,6.35.44,12.72.94,19.06.61,7.73.83,15.55,2.5,23.12,1.33,6.01,2.88,12.15,5.94,17.49,2.53,4.42,5.76,8.73,10,11.56,2.46,1.65,5.48,2.58,8.43,2.81,3.79.3,7.68-.56,11.25-1.87,4.56-1.68,8.55-4.67,12.5-7.5,3.66-2.63,6.96-5.73,10.31-8.75,2.57-2.32,7.5-7.18,7.5-7.18" style="fill:none; stroke:#55a; stroke-linejoin:round; stroke-width:2.5px;"/><path id="uuid-4b756409-e2a9-40ab-8400-4e7864f2519a" d="m170.06,29.69s-3.23,4.66-5.31,6.56c-1.66,1.52-5.62,3.75-5.62,3.75" style="fill:none; stroke:#55a; stroke-linecap:round; stroke-linejoin:round; stroke-width:2.5px;"/><path id="uuid-7e2d8465-f8b9-4758-8a61-8901cc18498d" d="m176.62,29.69s-4.32,6.86-7.18,9.68c-2.92,2.88-10,7.18-10,7.18" style="fill:none; stroke:#55a; stroke-linecap:round; stroke-linejoin:round; stroke-width:2.5px;"/><path id="uuid-c6475bc5-c759-4262-8f48-8c21fd94b332" d="m183.49,29.69s-7.25,10.41-11.87,14.68c-3.52,3.25-11.87,8.12-11.87,8.12" style="fill:none; stroke:#55a; stroke-linecap:round; stroke-linejoin:round; stroke-width:2.5px;"/><path id="uuid-02213bfb-d7a6-4f09-893e-811edd91b12c" d="m188.18,29.69s6.7,13.33,12.18,18.12c5.51,4.81,19.68,9.68,19.68,9.68" style="fill:none; stroke:#55a; stroke-linecap:round; stroke-linejoin:round; stroke-width:2.5px;"/><path id="uuid-562661fa-c28e-4b14-8ea7-bfba32028182" d="m193.8,29.69s5.28,9.82,9.37,13.43c3.53,3.11,12.5,6.56,12.5,6.56" style="fill:none; stroke:#55a; stroke-linecap:round; stroke-linejoin:round; stroke-width:2.5px;"/><path id="uuid-809f7611-d45d-4bf0-bddd-163d5ec859db" d="m199.42,29.69s3.19,6.71,5.94,9.06c1.91,1.64,6.87,3.12,6.87,3.12" style="fill:none; stroke:#55a; stroke-linecap:round; stroke-linejoin:round; stroke-width:2.5px;"/><path id="uuid-a278e762-1631-42cd-b089-1b0f7b7e4d3c" d="m179.97,67.05s.55,4.05.34,6.07c-.39,3.8-2.01,7.37-2.97,11.07-.63,2.42-1.91,4.78-1.82,7.28.07,1.96.59,4.09,1.86,5.59.85,1,2.51.97,3.48,1.85.82.74,1.83,2.76,1.83,2.76" style="fill:none; stroke:#55a; stroke-linecap:round; stroke-linejoin:round; stroke-width:2px;"/><path id="uuid-4101a2ad-dedd-4dcc-82db-c10e9cbc9bf0" d="m193.13,91.38s3.2,3.6,2.77,5.65c-.27,1.3-1.73,2.34-3.04,2.57-1.68.29-3.22-1.16-4.81-1.79-1.51-.59-3.04-2.59-4.49-1.87-.68.34-1.08,1.64-.57,2.21.62.69,1.81-.39,2.74-.41,3.2-.08,7.04,2.92,9.56.95.87-.68.71-2.21.47-3.29-.35-1.56-2.62-4.01-2.62-4.01h0Z" style="fill:#55a; stroke:#55a; stroke-linecap:round; stroke-linejoin:round; stroke-width:2px;"/><path id="uuid-085971fa-eb52-4c14-b536-10d1314dee4c" d="m220.02,66.11s-8.75-6.25-13.74-7.57c-3.93-1.04-8.24-1.28-12.13-.1-1.57.47-4.15,2.76-4.15,2.76,0,0,3.82-1.38,5.8-1.64,4.01-.52,8.19-.8,12.12.21,4.36,1.12,12.11,6.34,12.11,6.34Z" style="fill:#55a; stroke:#55a; stroke-linecap:round; stroke-linejoin:round; stroke-width:2px;"/><path id="uuid-a0d356ea-0cdd-4dab-9102-4219cd0c53bd" d="m160.44,60.06s6.12-2.84,9.27-2.38c3.5.51,9.1,5.48,9.1,5.48,0,0-5.92-4.08-9.34-4.31-3.22-.21-9.23,2.88-9.23,2.88l.2-1.68Z" style="fill:#55a; stroke:#55a; stroke-linecap:round; stroke-linejoin:round; stroke-width:2px;"/><path id="uuid-75cb276b-c8bb-4548-b84b-8ae08dc3c08b" d="m196.59,109.14s-3.93-1.54-6.04-1.67c-1.91-.12-3.77.71-5.68.82-2.18.12-4.45-.74-6.54-.2-.95.25-2.41,1.49-2.41,1.49,0,0,1.7-.1,2.54-.02,2.23.23,4.31,1.45,6.53,1.42,2.45-.03,4.71-1.4,7.16-1.72,1.46-.19,4.44-.12,4.44-.12h0Z" style="fill:#55a; stroke:#55a; stroke-linecap:round; stroke-linejoin:round; stroke-width:2px;"/><path id="uuid-e10d665a-776b-4792-86de-902ca7a7df16" d="m191.95,114.25s-3.68,1.44-5.62,1.51c-1.66.06-4.88-.94-4.88-.94" style="fill:none; stroke:#55a; stroke-linecap:round; stroke-linejoin:round; stroke-width:2px;"/><path id="uuid-b37ae59e-8e3a-4ec0-b40a-1403b7074d6f" d="m178.17,69.03s-4.79-4.1-9.14-4.14c-4.65-.04-7.39,2.66-7.39,2.66" style="fill:none; stroke:#55a; stroke-linecap:round; stroke-linejoin:round; stroke-width:2px;"/><path id="uuid-ad82cc43-4eb4-4011-8e48-26a88bff0526" d="m218.64,70.66s-9.38-7.14-14.71-7.07c-7.19.1-12.54,4.32-12.54,4.32" style="fill:none; stroke:#55a; stroke-linecap:round; stroke-linejoin:round; stroke-width:2px;"/><path id="uuid-0b08c7c0-0fbb-4887-8a94-953dfe9f6842" d="m217.56,72.88c-5.52-.69-7.47-3.85-12.54-4.25-4.35-.34-13.1,1.23-13.1,1.23" style="fill:none; stroke:#55a; stroke-linecap:round; stroke-linejoin:round; stroke-width:2px;"/><path id="uuid-c48eaf58-7b6e-44c6-a73e-36dcde87d289" d="m161.12,71.12c5.03-2.65,4.77-3.26,9.85-2.93,6.55.43,8.42,1.21,8.06,1.07" style="fill:none; stroke:#55a; stroke-linecap:round; stroke-linejoin:round; stroke-width:2px;"/><path id="uuid-d45a54a1-73f8-416e-a4c5-1b95e8b9dfa9" d="m214.94,73.81c-4.94,1.29-7.29,2.53-12.89,2.9-4.15.28-9.71-1.03-10.13-5.17" style="fill:none; stroke:#55a; stroke-linecap:round; stroke-linejoin:round; stroke-width:2px;"/><path id="uuid-d173afa0-d6a3-4e79-815b-e3e5d26e6892" d="m204.94,69.8c.95,5.13-2.45,7.07-5.81,6.67-2.28-.27-4.42-3.25-3.37-6.2" style="fill:none; stroke:#55a; stroke-linecap:round; stroke-linejoin:round; stroke-width:2px;"/><path id="uuid-847c0261-0ad3-4290-b25a-1218ce2c5ee9" d="m198.68,72.65c-.02-.74.61-1.74,1.36-1.77.81-.03,1.68.98,1.63,1.79-.05.75-.97,1.53-1.73,1.47-.65-.05-1.24-.84-1.26-1.48Z" style="fill:#55a; stroke:#55a; stroke-linecap:round; stroke-linejoin:round; stroke-width:2px;"/><path id="uuid-304506c6-e27c-451a-aa53-602296545da3" d="m171.58,71.84c.01-.73-.82-1.66-1.66-1.63-.74.03-1.43.89-1.35,1.53.08.66,1,1.31,1.76,1.27.61-.04,1.24-.64,1.25-1.17h0Z" style="fill:#55a; stroke:#55a; stroke-linecap:round; stroke-linejoin:round; stroke-width:2px;"/><path id="uuid-81bc6ea7-aa4a-40df-b3d1-3f18b8786a42" d="m177.67,77.68c-1.93,2.52-2.05,4.74-6.1,6.91" style="fill:none; stroke:#55a; stroke-linecap:round; stroke-linejoin:round; stroke-width:2px;"/><path id="uuid-a274072b-8994-4de6-b2aa-4cd3feb61af0" d="m191.86,70.75c1.61,7.2,7.24,9.36,11.68,12.54" style="fill:none; stroke:#55a; stroke-linecap:round; stroke-linejoin:round; stroke-width:2px;"/><path id="uuid-5841d953-6cdb-4bda-9460-26d54f3c1bc7" d="m161.04,73.75c2.71,1.79,6.17,2.83,10.55,2.64,3.25-.14,6.52-2.67,6.54-5.67" style="fill:none; stroke:#55a; stroke-linecap:round; stroke-linejoin:round; stroke-width:2px;"/><path id="uuid-ea1e5116-7af4-45a5-b5db-6419ff9e4f22" d="m166.14,68.42c-.98,4.98,1.14,7.63,4.94,7.49,1.67-.06,5.04-4.17,2.48-7.99" style="fill:none; stroke:#55a; stroke-linecap:round; stroke-linejoin:round; stroke-width:2px;"/><path id="uuid-e52b4165-6d90-4a5b-bb46-672c1e1ddc1b" d="m191.51,121.14s-3.75-1.23-5.69-1.19c-1.66.03-4.82,1.21-4.82,1.21" style="fill:none; stroke:#55a; stroke-linecap:round; stroke-linejoin:round; stroke-width:2px;"/><path id="uuid-53461f1b-41a5-4754-b613-3da998b614de" d="m223.92,69.37c-1.85,5.39-5.17,10.82-5.11,16.61.05,5.68,2.29,11.38,5.32,16.18,2.36,3.74,5.62,7.21,9.58,9.16,3.8,1.87,8.37,1.28,12.56,1.92" style="fill:none; stroke:#55a; stroke-linecap:round; stroke-linejoin:round; stroke-width:2.5px;"/><path id="uuid-344c5445-830e-4a99-9b1c-9b5e28057942" d="m227.11,74.91c-.85,3.12-2.31,7.17-2.13,10.86.2,4.22,1.51,8.48,3.62,12.14,1.76,3.04,4.16,5.98,7.24,7.67,2.34,1.28,5.25.99,7.88,1.49" style="fill:none; stroke:#55a; stroke-linecap:round; stroke-linejoin:round; stroke-width:2.5px;"/><path id="uuid-3084940d-473d-4b26-aa03-40838f06b4c0" d="m230.73,81.3c-.28,2.27-1.18,4.55-.85,6.81.43,2.99,1.53,6.13,3.62,8.3,1.69,1.76,4.4,2.13,6.6,3.19" style="fill:none; stroke:#55a; stroke-linecap:round; stroke-linejoin:round; stroke-width:2.5px;"/><path id="uuid-c3404c00-2936-4b9b-95bb-bb9e5b22ecaf" d="m250.96,122.18c-.85,3.05-2.35,5.99-2.56,9.16-.25,3.94.26,8.04,1.7,11.71,1.64,4.18,4.4,8,7.67,11.07,1.99,1.88,4.45,3.33,7.03,4.26,1.82.66,3.83.57,5.75.85" style="fill:none; stroke:#55a; stroke-linecap:round; stroke-linejoin:round; stroke-width:2.5px;"/><path id="uuid-0a4c0406-234f-4c5e-bc9c-294d8e6f570a" d="m254.58,129.2c-.43,2.27-1.41,4.51-1.28,6.81.18,3.12,1.18,6.26,2.77,8.94,1.3,2.2,3.22,4.08,5.32,5.54,1.33.92,2.98,1.28,4.47,1.92" style="fill:none; stroke:#55a; stroke-linecap:round; stroke-linejoin:round; stroke-width:2.5px;"/><path id="uuid-77526204-eef7-4a8f-9610-91aef7f10254" d="m160.89,96.2c-3.19,4.33-7.09,8.22-9.58,12.99-2.75,5.25-3.83,11.21-5.75,16.82" style="fill:none; stroke:#55a; stroke-linecap:round; stroke-linejoin:round; stroke-width:2.5px;"/><path id="uuid-336fa981-ad00-45a8-a7d1-0bd48304fb44" d="m161.96,102.8c-2.06,3.19-4.57,6.14-6.17,9.58-1.73,3.7-2.41,7.81-3.62,11.71" style="fill:none; stroke:#55a; stroke-linecap:round; stroke-linejoin:round; stroke-width:2.5px;"/><path id="uuid-95e18ccb-8d70-4584-b146-305de2383f7d" d="m163.45,110.25c-1.06,1.77-2.36,3.43-3.19,5.32-.7,1.58-.99,2.75-1.49,4.95" style="fill:none; stroke:#55a; stroke-linecap:round; stroke-linejoin:round; stroke-width:2.5px;"/><path id="uuid-d579262a-9a46-44e8-bcf3-31b7e3521ddb" d="m149.18,125.12c6.61,3.73,14.67,7.61,22.58,9.83,6.55,1.84,13.43,2.55,20.23,2.77,7.75.24,15.56-.42,23.21-1.7,5.21-.87,10.42-2.1,15.33-4.05,4.43-1.76,8.37-4.54,12.56-6.81" style="fill:none; stroke:#55a; stroke-linecap:round; stroke-linejoin:round; stroke-width:2.5px;"/><path id="uuid-f9d4b615-2cfb-4460-b653-c89e2512eba6" d="m138.54,130.05c5.82,3.34,11.31,7.33,17.46,10.01,6.13,2.67,12.63,4.53,19.16,5.96,6.15,1.35,12.44,2.33,18.74,2.43,6.99.12,13.98-.84,20.87-2.01,5.62-.95,11.18-2.33,16.61-4.05,3.71-1.17,7.24-2.84,10.86-4.26" style="fill:none; stroke:#000; stroke-linecap:round; stroke-linejoin:round; stroke-width:2.5px;"/><path id="uuid-4a04e0fc-cdc9-466a-8bb3-45667d359447" d="m133,133.25c5.04,2.98,9.86,6.36,15.12,8.94,5.14,2.53,10.48,4.72,15.97,6.39,6.53,1.98,13.24,3.45,20.01,4.26,7.19.86,14.49,1.15,21.72.64,5.82-.41,11.58-1.58,17.25-2.98,7.17-1.77,14.05-4.54,21.08-6.81" style="fill:none; stroke:#000; stroke-linecap:round; stroke-linejoin:round; stroke-width:2.5px;"/><path id="uuid-7968a642-40f5-469e-811c-ed43c46fe7e5" d="m125.76,136.23c5.68,3.34,11.08,7.18,17.03,10.01,6.63,3.15,13.6,5.63,20.65,7.67,7.04,2.02,14.24,3.59,21.5,4.47,5.71.69,11.5.94,17.25.64,6.44-.34,12.88-1.31,19.16-2.77,4.5-1.04,8.85-2.68,13.2-4.26,3.74-1.36,7.38-2.98,11.07-4.47" style="fill:none; stroke:#000; stroke-linecap:round; stroke-linejoin:round; stroke-width:2.5px;"/><path id="uuid-332b64da-9e09-4ba5-b929-92e3b6e026b9" d="m99.15,150.92c6.74,4.76,13.17,9.99,20.23,14.27,7.85,4.75,15.92,9.29,24.49,12.56,7.68,2.94,15.77,4.74,23.85,6.25,7.65,1.44,15.43,2.31,23.21,2.69,8.3.41,16.68.66,24.91-.43,8.12-1.07,16.03-3.51,23.85-5.96,7.46-2.34,14.85-4.99,21.93-8.3,4.06-1.9,7.81-4.4,11.71-6.6" style="fill:none; stroke:#000; stroke-linecap:round; stroke-linejoin:round; stroke-width:2.5px;"/><path id="uuid-897002bf-f721-49bf-8d84-0190456c7440" d="m124.68,135.66l-12.68,6.59,7.25,5.25,7.18-10.09-1.75-1.75Z"/><path id="uuid-d423ad39-55a4-4556-9cf8-905bef66bd33" d="m135.92,143.16l-6.67,11.84,13.25,6.25,5.75-11.25-12.33-6.84Z"/><path id="uuid-839d20e8-c87a-495e-9e10-2c1320d4332d" d="m160.5,153.75l-3.92,12.09,13.5,4.25,3.42-12.94-13-3.41Z"/><path id="uuid-030b9bb6-f465-431d-9de2-ed4bce69a07b" d="m185.75,159.5l-1,12.59,14.42.51-.67-13.6-12.75.5Z"/><path id="uuid-798e4c78-dbf2-461e-8a9b-afeaa985d71a" d="m211.25,159.25l1.16,12.84,14.09-2.75-2.91-13.18-12.34,3.09Z"/><path id="uuid-fe0bddfa-e14c-4e74-864b-1c5e1adb2121" d="m235.91,152.07l5.29,13.4,12.03-4.57-2.99-7.4-4.5-6.25-9.84,4.82Z"/><path id="uuid-215e3b96-e841-4b3d-9a99-078b479c7bd0" d="m111,158.25l8-10.5,10.25,7-6.42,12.09-11.83-8.59Z"/><path id="uuid-90c15944-3aab-43b5-ad2a-fc65326fa27e" d="m136.24,174.43l5.76-13.52,14.34,4.59-4.35,14-15.76-5.07Z"/><path id="uuid-4a4bae50-d1f1-471b-883f-fa76b2ba383b" d="m167.17,183.86l2.83-13.61,14.84,1.92-1.17,13.67-16.51-1.98Z"/><path id="uuid-4dc903da-2d25-41a0-b44a-3b01eee48635" d="m199,186.25l-.25-14.5h14l1.5,13.5-15.5,2,.25-1Z"/><path id="uuid-861bb6a5-b892-4eb2-a1e3-06564202b4db" d="m229.5,182l-3.17-12.92,14.77-4.34,4.34,12.85-15.68,5.41-.25-1Z"/><path id="uuid-5f646eb5-521b-437c-9f67-20d48d21ad5a" d="m258.25,172.25l-5.25-11.75,3-1,15.75,7-13.5,5.75Z"/><path id="uuid-f7fbd345-7d52-465f-910e-e1fd62d62692" d="m106.91,147.18l.34,4.57,5.58-.99-1.08-5.01-4.84,1.43Z" style="fill:none; stroke:#000; stroke-linecap:round; stroke-linejoin:round; stroke-width:2.5px;"/><path id="uuid-91f4eb8d-b0ff-4a4b-90d2-3a7652fff9ac" d="m125,143.5l4.75-1.25.59,4.84-4.84,1.75-.5-5.34Z" style="fill:none; stroke:#000; stroke-linecap:round; stroke-linejoin:round; stroke-width:2.5px;"/><path id="uuid-9088c53a-cce0-4698-82ce-2ee67f07cd33" d="m129,162.75l5.25-2.5,1.25,4.75-4,2.25-2.5-4.5Z" style="fill:none; stroke:#000; stroke-linecap:round; stroke-linejoin:round; stroke-width:2.5px;"/><path id="uuid-6c466c53-3ce7-49cf-ae3e-971d7a91b38b" d="m149,156l5-1.75,1.42,4.84-4.67,2.16-1.75-5.25Z" style="fill:none; stroke:#000; stroke-linecap:round; stroke-linejoin:round; stroke-width:2.5px;"/><path id="uuid-9d866510-351a-4f82-9f7e-d40a94f21f10" d="m158,173.5l2.75,4.75,4-3.25-3-4.5-3.75,3Z" style="fill:none; stroke:#000; stroke-linecap:round; stroke-linejoin:round; stroke-width:2.5px;"/><path id="uuid-733f1c0c-a04e-4669-be92-56ced93cb78d" d="m175.06,164.22l3.99-3.25,2.98,3.03-4,4-2.97-3.78Z" style="fill:none; stroke:#000; stroke-linecap:round; stroke-linejoin:round; stroke-width:2.5px;"/><path id="uuid-8f768b04-e7e6-4bd8-a7fa-64e934c9809e" d="m187.75,178.67l3.75-3.67,3,4.75-3.75,2.25-3-3.33Z" style="fill:none; stroke:#000; stroke-linecap:round; stroke-linejoin:round; stroke-width:2.5px;"/><path id="uuid-08e9d54e-55ce-4553-96b4-1cded5bcd715" d="m201.72,166.08l3.17-3.75,3.33,3.41-3,3-3.51-2.66Z" style="fill:none; stroke:#000; stroke-linecap:round; stroke-linejoin:round; stroke-width:2.5px;"/><path id="uuid-6e7297b2-c846-44d8-a92f-933c61d5d318" d="m217.16,177.01l3.59-4.01,3.75,3-2.56,4.67-4.77-3.66Z" style="fill:none; stroke:#000; stroke-linecap:round; stroke-linejoin:round; stroke-width:2.5px;"/><path id="uuid-a29300fa-ec38-48c8-bb80-40634f7bf208" d="m228.25,162l2.5-4.5,4.25,1.75-2,4.75-4.75-2Z" style="fill:none; stroke:#000; stroke-linecap:round; stroke-linejoin:round; stroke-width:2.5px;"/><path id="uuid-cfbd4c09-f745-4a0f-bb53-22a67638ff62" d="m245.75,170l2.25-4.75,4.75,2.5-2,4.25-5-2Z" style="fill:none; stroke:#000; stroke-linecap:round; stroke-linejoin:round; stroke-width:2.5px;"/><path id="uuid-8c937742-761c-4af6-81cd-0bb8be3274c7" d="m94.5,154.5c7.67,5.67,14.27,11.27,22,16,5.5,3.37,11.34,6.18,17.25,8.75,6.67,2.9,13.5,5.52,20.5,7.5,6.87,1.94,13.93,3.21,21,4.25,7.15,1.05,14.36,1.94,21.59,2.01,9.03.09,18.14-.34,27.02-1.97,9.2-1.69,18.13-4.76,26.89-8.04,8.72-3.27,17.27-7.39,25.44-11.56" style="fill:none; stroke:#000; stroke-linecap:round; stroke-linejoin:round; stroke-width:2.5px;"/><path id="uuid-9bd668ba-54a2-482e-a786-413a63dec87a" d="m147.75,129.5c0,.55-.45,1-1,1s-1-.45-1-1,.45-1,1-1,1,.45,1,1Z" style="fill:none; stroke:#000; stroke-linecap:round; stroke-linejoin:round; stroke-width:2.5px;"/><path id="uuid-6bea25ef-b69c-42f6-bd8f-a805ac273991" d="m154.5,133.25c0,.55-.45,1-1,1s-1-.45-1-1,.45-1,1-1,1,.45,1,1Z" style="fill:none; stroke:#000; stroke-linecap:round; stroke-linejoin:round; stroke-width:2.5px;"/><path id="uuid-ef29c1ca-4e60-4172-919d-8a1312fa06db" d="m161,136.25c0,.55-.45,1-1,1s-1-.45-1-1,.45-1,1-1,1,.45,1,1Z" style="fill:none; stroke:#000; stroke-linecap:round; stroke-linejoin:round; stroke-width:2.5px;"/><path id="uuid-025cedeb-bbc7-4270-916a-77cdcbfdd003" d="m167.5,138c0,.55-.45,1-1,1s-1-.45-1-1,.45-1,1-1,1,.45,1,1Z" style="fill:none; stroke:#000; stroke-linecap:round; stroke-linejoin:round; stroke-width:2.5px;"/><path id="uuid-c2c64883-c64f-4961-adcb-2efdfff7e578" d="m175,140.25c0,.55-.45,1-1,1s-1-.45-1-1,.45-1,1-1,1,.45,1,1Z" style="fill:none; stroke:#000; stroke-linecap:round; stroke-linejoin:round; stroke-width:2.5px;"/><path id="uuid-7c50022c-82f9-4232-bfd2-fda211ae7666" d="m181.75,142c0,.55-.45,1-1,1s-1-.45-1-1,.45-1,1-1,1,.45,1,1Z" style="fill:none; stroke:#000; stroke-linecap:round; stroke-linejoin:round; stroke-width:2.5px;"/><path id="uuid-9548447e-8386-4348-81a9-960c3f3b714a" d="m189,142.5c0,.55-.45,1-1,1s-1-.45-1-1,.45-1,1-1,1,.45,1,1Z" style="fill:none; stroke:#000; stroke-linecap:round; stroke-linejoin:round; stroke-width:2.5px;"/><path id="uuid-19cdc717-52e1-4228-80d8-89b3b431f6c6" d="m196.3,143.19c0,.55-.45,1-1,1s-1-.45-1-1,.45-1,1-1,1,.45,1,1Z" style="fill:none; stroke:#000; stroke-linecap:round; stroke-linejoin:round; stroke-width:2.5px;"/><path id="uuid-4e75a729-1f36-40f5-a24e-da51c9682da3" d="m203.19,142.82c0,.55-.45,1-1,1s-1-.45-1-1,.45-1,1-1,1,.45,1,1Z" style="fill:none; stroke:#000; stroke-linecap:round; stroke-linejoin:round; stroke-width:2.5px;"/><path id="uuid-19f94011-7a6f-4cb5-a611-eaa140bb5651" d="m210.5,141.5c0,.55-.45,1-1,1s-1-.45-1-1,.45-1,1-1,1,.45,1,1Z" style="fill:none; stroke:#000; stroke-linecap:round; stroke-linejoin:round; stroke-width:2.5px;"/><path id="uuid-179a4f7d-554d-47a0-8664-6a0de889449b" d="m218,140.5c0,.55-.45,1-1,1s-1-.45-1-1,.45-1,1-1,1,.45,1,1Z" style="fill:none; stroke:#000; stroke-linecap:round; stroke-linejoin:round; stroke-width:2.5px;"/><path id="uuid-6111286e-7046-4c85-92b5-8ae34ae9ff17" d="m224.98,138.66c0,.55-.45,1-1,1s-1-.45-1-1,.45-1,1-1,1,.45,1,1Z" style="fill:none; stroke:#000; stroke-linecap:round; stroke-linejoin:round; stroke-width:2.5px;"/><path id="uuid-7cf2af2b-583a-43f0-9a1b-f14e7b8b8955" d="m231.25,137c0,.55-.45,1-1,1s-1-.45-1-1,.45-1,1-1,1,.45,1,1Z" style="fill:none; stroke:#000; stroke-linecap:round; stroke-linejoin:round; stroke-width:2.5px;"/><path id="uuid-7b58ab2d-213a-4c96-9607-09bd3897f73e" d="m236.5,134.5c0,.55-.45,1-1,1s-1-.45-1-1,.45-1,1-1,1,.45,1,1Z" style="fill:none; stroke:#000; stroke-linecap:round; stroke-linejoin:round; stroke-width:2.5px;"/><path id="uuid-da89e7a6-c828-4d6a-81bd-a0b22fdd9a8b" d="m242,132.75c0,.55-.45,1-1,1s-1-.45-1-1,.45-1,1-1,1,.45,1,1Z" style="fill:none; stroke:#000; stroke-linecap:round; stroke-linejoin:round; stroke-width:2.5px;"/><g id="uuid-23336f46-34cc-4d5f-b0c6-c39e75cfa830"><path id="uuid-39d63a7c-fde4-4227-9979-61dbfa878fbf" d="m312.07,204.52s-1.37.53-2.06.39c-.63-.13-1.22-.55-1.61-1.06-.37-.5-.55-1.8-.55-1.8" style="fill:none; stroke:#55a; stroke-linecap:round; stroke-linejoin:round; stroke-width:2px;"/><path id="uuid-c077ad63-b5b3-4c94-a29c-d4c3b214f7e9" d="m314.49,202.8s3.38-.85,4.59.08c1.28.98,1.63,3.06,1.3,4.62-.51,2.38-3.06,3.8-4.67,5.61-.98,1.1-1.78,2.52-3.04,3.21-1.24.68-2.84,1.3-4.07.72-.97-.46-1.54-1.74-1.68-2.88-.12-1.01.04-2.37.83-2.97,1.06-.81,2.68-.37,3.83.18.62.29,1.12.9,1.41,1.55.3.67.26,2.24.26,2.24" style="fill:none; stroke:#55a; stroke-linecap:round; stroke-linejoin:round; stroke-width:2px;"/><path id="uuid-968f2132-3f2f-4981-98fb-a5b0dbdcc788" d="m321.03,207.1s2.13.93,2.77,1.83c.65.9.98,2.12.83,3.22-.24,1.78-1.53,3.31-2.7,4.68-1.36,1.61-3.08,3.01-4.9,4.03-1.35.76-2.83,1.37-4.33,1.5-1.13.1-2.66.42-3.34-.53-.59-.82-.27-2.25.29-3.11.42-.65,1.26-.86,1.98-1.02.97-.22,2.19-.53,2.96.13.69.59.7,2.76.7,2.76" style="fill:none; stroke:#55a; stroke-linecap:round; stroke-linejoin:round; stroke-width:2px;"/><path id="uuid-37f2c3d7-9774-471e-9830-fbce64689a49" d="m323.29,216.19s2.58,2.1,2.65,3.57c.05,1-.86,1.84-1.56,2.56-1.78,1.83-4.15,3.03-6.44,4.18-1.41.71-2.85,1.77-4.43,1.66-.74-.05-1.63-.39-1.95-1.05-.29-.61.04-1.4.39-1.98.64-1.09,1.64-2.6,2.91-2.45.79.09,1.17,1.16,1.43,1.91.26.78.03,2.47.03,2.47" style="fill:none; stroke:#55a; stroke-linecap:round; stroke-linejoin:round; stroke-width:2px;"/><path id="uuid-92fbcfb3-d15e-4494-8ace-41d2a4fd4806" d="m325.53,223.03s1,1.74.91,2.68c-.14,1.53-1.16,2.93-2.24,4.03-1.4,1.42-3.27,2.43-5.19,3-1,.29-2.33.82-3.12.16-.98-.82-1.05-2.66-.47-3.79.51-.98,1.83-1.74,2.92-1.57.83.12,1.36,1.05,1.75,1.78.4.74.51,2.45.51,2.45" style="fill:none; stroke:#55a; stroke-linecap:round; stroke-linejoin:round; stroke-width:2px;"/><path id="uuid-5892a535-4fa3-4a49-964a-564860092172" d="m317.65,233.29s-.69,1.16-1.16,1.61c-.45.42-1,.69-1.54.95-1.07.51-2.2.89-3.35,1.18-3.55.9-7.18,1.77-10.84,1.72-2.63-.04-5.61.05-7.76-1.47-1.87-1.32-3.05-3.68-3.45-5.93-.69-3.89.8-7.93,2.09-11.66,1.09-3.15,2.75-6.12,4.7-8.83,1.69-2.34,3.73-4.44,5.96-6.26,1.69-1.38,3.53-2.66,5.55-3.47,1.16-.46,2.47-1.11,3.66-.75.97.3,2.05,1.16,2.11,2.17.13,2.14-2.44,3.55-3.91,5.11-.85.9-1.82,1.67-2.8,2.42-1.06.82-2.29,2.18-3.29,2.3-.65,2.22.8,1.69.89,6.08.08,4.11-1.55,6.8-3.38,8.99" style="fill:none; stroke:#55a; stroke-linecap:round; stroke-linejoin:round; stroke-width:2px;"/></g><path id="uuid-ebeb23a4-fc11-4677-a6f7-aa24d69fafb5" d="m247.98,116.43c-1.56,4.12-4.18,7.98-4.68,12.35-.66,5.76.19,11.86,2.34,17.25,1.53,3.82,4.32,7.1,7.24,10.01,2.6,2.58,5.62,4.84,8.94,6.39,3.39,1.57,7.24,1.85,10.86,2.77" style="fill:none; stroke:#55a; stroke-linecap:round; stroke-linejoin:round; stroke-width:2.5px;"/><path id="uuid-b622f034-8ed6-44cd-9daf-4cd28495329a" d="m167.71,118.56c-29.43,8.65-51.29,20.05-74.05,35.63-3.96,2.71-7.92,5.44-11.73,8.35-17.94,13.7-35.23,27.2-52.43,42.86" style="fill:none; stroke:#55a; stroke-linecap:round; stroke-linejoin:round; stroke-width:2px;"/><path id="uuid-70394b43-7a30-4fa3-8869-793ebc9b39a4" d="m205.98,29.5l70.6,141.39,18.12-8.43L218.17,29.5h-12.18Z"/><path id="uuid-a866bb8b-58b7-4c52-8907-10650436248f" d="m59.96,343.98l3.89-4.95,5.66,2.83-4.24,5.3,5.66,3.89,9.19-13.08-10.96-6.72,5.66-10.96,5.66,1.77-2.47,5.3,6.36,2.47,4.6-15.2-12.37-3.54,3.54-16.26h6.36l-1.77,9.9,6.01,1.06,2.12-17.68h-10.96v-16.26h6.01l-.35,8.49,6.72-.71,1.06-15.56-11.31-1.77,1.06-16.26,7.07,1.06-.71,7.78,6.36,1.06,3.89-15.2-12.37-5.3,8.13-15.2,5.66,2.83-3.18,7.07,6.01,1.77,6.72-10.25-9.19-8.84,10.96-12.37,5.66,4.6-5.66,4.6,4.6,5.66,11.31-10.25-8.13-11.67,5.02-2.37m7.49,4.13l-2.2.88,3.52,5.28,6.17-3.38" style="fill:none; stroke:#5456aa; stroke-linecap:round; stroke-linejoin:round; stroke-width:2px;"/><path id="uuid-7dd0ad79-a3c9-470b-95a3-1d80dc5906a3" d="m148.35,200.8c-6.95,4.6-14.47,8.44-20.86,13.79-5.24,4.39-10.27,9.21-14.14,14.85-2.8,4.09-4.68,8.77-6.36,13.44-2.43,6.75-4.25,13.76-5.3,20.86-.76,5.13-.25,10.39-.71,15.56-.56,6.28-1.66,12.49-2.47,18.74-.6,4.6-.88,9.24-1.77,13.79-.89,4.55-2.04,9.05-3.54,13.44-1.95,5.7-4.28,11.28-7.07,16.62-1.74,3.33-3.61,6.65-6.01,9.55-1.54,1.86-3.54,3.3-5.3,4.95" style="fill:none; stroke:#5456aa; stroke-linecap:round; stroke-linejoin:round; stroke-width:2px;"/><g id="uuid-4f1bb42f-56b4-4cbb-b4fc-e97327b595bc"><path id="uuid-e03b126a-39df-40e2-b6ab-2b5be2f8fbbf" d="m63.14,199.74l-.35-6.36,6.36.35,3.54-6.01,4.6,6.36h6.36l-.71,6.36,5.3,3.18-6.01,4.6.35,5.66-4.95-.71-4.24,6.36-4.95-7.42-4.6,1.77v-6.01l-6.72-3.89,6.01-4.24Z" style="fill:#ffff57;"/><path id="uuid-07a427a2-31c5-4a6a-af71-b19d6e0fcc18" d="m67.59,203.29l5.41-5.08,5.12,5.52-5.18,4.9-5.34-5.34Z" style="fill:#f55; stroke:#000; stroke-linecap:round; stroke-linejoin:round; stroke-width:2px;"/></g><path id="uuid-cf701bc3-ef16-41ad-970e-1a243e11f1d4" d="m154.12,186.57l16.85,3.79,10.05,62.6-10.55-6.05-16.35-60.34Z" style="fill:#55a;"/><path id="uuid-b39bb00f-3f00-44ff-9bdb-4ee0f13d5e51" d="m159.14,202.77s-8.08,1.71-11.86,3.33c-4.66,2-8.93,4.86-13.08,7.78-2.12,1.49-4.15,3.14-6.01,4.95-1.67,1.63-4.6,5.3-4.6,5.3,0,0,2.87,3.15,4.25,4.77,1.7,2.02,3.48,3.99,4.95,6.19,1.11,1.65,2.9,5.22,2.9,5.22,0,0,6.61-1.67,9.97-1.53,3.34.14,6.55,1.39,9.75,2.33,5.15,1.51,15.2,5.3,15.2,5.3l-11.48-43.63Z" style="fill:#f55;"/><path id="uuid-40238736-0d66-407f-a1cf-d6854d88269c" d="m108.39,254.16s3.43,4.14,4.21,6.65c.7,2.24.9,4.77.29,7.04-.5,1.89-1.84,3.5-3.12,4.98-1.1,1.28-3.86,3.28-3.86,3.28,0,0,.8-6.88,1.19-10.42.43-3.84.05-7.68,1.28-11.52Z" style="fill:#f55;"/><path id="uuid-bf558f16-9191-45bf-8aa9-751f95e90fb6" d="m112.99,244.28s1.2-4.04,2.47-5.66c1.1-1.39,2.49-2.93,4.24-3.18,1-.14,2.25.23,2.83,1.06.47.68.23,1.68,0,2.47-.31,1.07-1.02,2.01-1.77,2.83-.8.87-1.86,1.45-2.83,2.12-.92.63-2.83,1.77-2.83,1.77l-2.12-1.41Z" style="fill:#fff;"/><path id="uuid-f91ed365-fda8-4542-b309-241df8f78126" d="m108.72,254.47l1.8-6.65s2.55,3.42,3.54,5.3c1.35,2.58,2.68,5.27,3.18,8.13.52,2.94.46,6.04-.22,8.94-.48,2.03-1.51,3.93-2.64,5.68-1.13,1.74-2.44,3.42-4.08,4.7-1.53,1.19-5.18,2.6-5.18,2.6l1.16-7.07s3.77-3.19,4.95-5.3c1.08-1.92,1.69-4.16,1.77-6.36.07-1.8-.36-3.64-1.06-5.3-.74-1.74-3.21-4.67-3.21-4.67h0Z" style="fill:#ff5;"/><path id="uuid-b9724407-1f94-4bbb-b9cf-5d6b6cb5fb91" d="m137.63,244.48s6.71-.69,10.01-.2c3.8.56,7.33,2.3,10.96,3.54,2.96,1.01,5.98,1.9,8.84,3.18,4.28,1.92,8.36,4.29,12.37,6.72,2.91,1.76,5.61,3.85,8.49,5.66,2.55,1.6,5.11,3.21,7.78,4.6,2.53,1.32,5.03,2.79,7.78,3.54,2.29.62,4.71.59,7.07.71,2.12.11,6.36,0,6.36,0l.18,9.9-4.07-4.95-1.06,3.89-7.78-6.36-1.41,3.54-8.13-8.13-2.12,3.89-7.78-9.9-2.99,3.61-6.91-7.86-2.12,3.18-8.13-8.49-1.41,3.18-9.9-7.07-.71,3.18-9.19-5.3.35,2.83-5.12-1.49-1.36-5.38Z" style="stroke:#000; stroke-linecap:round; stroke-linejoin:round;"/><path id="uuid-692373f5-e7f7-45e5-9a4b-88d7698ae74b" d="m234.06,194.57l5.09.35v-5.84s-4.02,1.2-4.02,1.2l-1.07,4.29Z" style="fill:#f55;"/><path id="uuid-878c9414-c629-485a-a850-7cbf9f57c66c" d="m238.98,236.34c.12-16.62,0-31.3.11-47.91,6.01-1.89,10.94-3.71,16.28-5.91,5.28-2.17,10.34-4.83,15.54-7.17,2.93-1.32,5.89-2.59,8.84-3.89.68,2.84.64,3.62,1.44,6.34-2.36,2.71-4.85,5.31-7.07,8.13-2.14,2.73-4.23,5.51-6.01,8.49-2.57,4.29-4.76,8.83-6.72,13.44-1.23,2.9-2.28,5.87-3.14,8.9-1.04,3.66-2.06,8.1-2.42,11.16-3.06,1.53-4.31,1.76-6.41,2.78-3.56,1.73-6.44,3.64-10.45,5.65h0Z"/><path id="uuid-243eba27-5b4d-4bc1-8df3-2431b85c063e" d="m239.1,200.44v37.83s-7.08,5.3-7.08,5.3l-7.42,8.49-3.54,8.13-1.41,7.07h-6.01l18.76-66.82c2.36.23,4.35.11,6.71,0h0Z" style="fill:#f55;"/><path id="uuid-261a38e7-7490-4c0a-aa6c-db65ea4a3d86" d="m91.07,189.13c-.13-2.32-3.92-4.32-2.83-6.36,1.43-2.69,7.29-4.09,9.01-1.58.81,1.18-2.08,2.26-2.21,3.68-.11,1.26,1.34,3.55,1.34,3.55h12.02l-1.06,3.89h-11.31s-1.45,1.38-1.5,2.29c-.07,1.3,2.66,2.54,1.76,3.47-1.79,1.84-5.94-.93-6.97-3.29-.79-1.81,1.88-3.68,1.77-5.66h0Z" style="stroke:#ff5; stroke-linecap:round; stroke-linejoin:round; stroke-width:2px;"/><path id="uuid-c537d51f-201e-43bc-a44d-7ccb9255eb1b" d="m38.74,205.04s5.5.23,7.07,2.12c1.44,1.73.71,6.72.71,6.72,0,0,2.71-2.5,4.24-2.12,1.56.38,2.87,2.29,2.83,3.89-.03,1.51-1.44,2.93-2.83,3.54-1.41.61-4.6-.35-4.6-.35,0,0,2.1,5.81,4.64,6.98,2.36,1.08,5.38.13,7.74-.97,2.04-.95,2.76-4.09,4.95-4.6,1.2-.28,3.03-.06,3.54,1.06.9,2.02-2.59,3.81-2.83,6.01-.23,2.13-.13,4.79,1.41,6.28.95.92,2.58.9,3.89.75.85-.1,2.35-1.06,2.35-1.06,0,0-1.67-3.87-.58-5.26,1.1-1.4,3.79-1.65,5.3-.71,1.58.99,2.2,3.49,1.77,5.3-.3,1.27-2.77,2.77-2.77,2.77l1.36,7.48s-3.28-2.74-5.25-3.47c-1.96-.73-4.25-.1-6.21-.79-1.9-.67-3.89-1.6-5.15-3.17-1.34-1.65-2.12-6.01-2.12-6.01,0,0-4.64,2.52-7.07,2.12-3-.5-5.51-2.94-7.42-5.3-1.31-1.63-2.19-3.68-2.49-5.75-.3-2.08.65-4.17.76-6.27.06-1.18.26-2.4-.04-3.54-.56-2.09-3.18-5.66-3.18-5.66Z" style="stroke:#ff5; stroke-linecap:round; stroke-linejoin:round; stroke-width:2px;"/><path id="uuid-366d5aa4-b744-48f3-b503-ff63f11b30d4" d="m35.56,278.93s3.96-.46,5.3.71c1.71,1.49,1.84,6.56,1.84,6.56,0,0,1.35-3.54,2.91-3.74,1.41-.18,3.31,1.15,3.39,2.57.1,1.8-3.93,3.7-3.93,3.7,0,0,2.31,3.41,5.58-.88.91-1.19,1.41-2.69,1.76-4.15.38-1.55.37-4.76.37-4.76l4.61.08s-1.12,3.69-.98,5.57c.11,1.49.35,3.2,1.41,4.24.93.91,3.74,1.13,3.74,1.13,0,0-.47-1.51-.2-2.19.52-1.32,1.76-2.8,3.18-2.83,1.26-.02,2.61,1.19,2.93,2.41.26,1.01-.47,2.11-1.16,2.89-.27.3-1.07.59-1.07.59,0,0,2.65,1.7,3.54,2.95.96,1.34,1.78,4.62,1.78,4.62,0,0-4.24-3.05-6.73-3.56-1.41-.29-2.91.68-4.32.35-1.57-.36-3.09-1.27-4.17-2.47-.77-.87-1.41-3.18-1.41-3.18,0,0-2.49,3.2-4.25,4.05-1.5.73-3.32,1.05-4.95.7-1.63-.34-3.14-1.39-4.23-2.64-.76-.87-1.02-2.08-1.4-3.17-.32-.92-.54-1.87-.73-2.82-.18-.93-.03-1.93-.35-2.83-.52-1.45-2.47-3.89-2.47-3.89Z" style="stroke:#ff5; stroke-linecap:round; stroke-linejoin:round; stroke-width:2px;"/><path id="uuid-b63b76db-e116-4e39-8b47-a0c3ac592343" d="m84.71,162.26c5.07,4.12,9.88,8.59,15.2,12.37,6.86,4.88,14.14,9.16,21.51,13.25,4.75,2.64,9.63,5.04,14.59,7.25,3.98,1.77,8.02,3.43,12.15,4.81,3.54,1.18,7.2,1.98,10.8,2.97" style="fill:none; stroke:#5456aa; stroke-linecap:round; stroke-linejoin:round; stroke-width:2px;"/><path id="uuid-8e24dd05-77a9-4ead-bcd6-a72fab66c448" d="m170.99,191.91l14.48,8.88" style="fill:none; stroke:#5456aa; stroke-linecap:round; stroke-linejoin:round; stroke-width:2px;"/><path id="uuid-b8ae4ec6-9fc0-4240-9b46-286411f2b4e4" d="m171.5,198.5l13,8" style="fill:none; stroke:#5456aa; stroke-linecap:round; stroke-linejoin:round; stroke-width:2px;"/><path id="uuid-92205526-6512-4832-a7c3-33fa20ab97c2" d="m172.25,207.25l12.25,6.25" style="fill:none; stroke:#5456aa; stroke-linecap:round; stroke-linejoin:round; stroke-width:2px;"/><path id="uuid-e4454f47-f43e-4745-9840-c971d8651440" d="m174,214.75l11.75,6.5" style="fill:none; stroke:#5456aa; stroke-linecap:round; stroke-linejoin:round; stroke-width:2px;"/><path id="uuid-f2ee761e-c69e-4c71-bda2-e50544f7a3bf" d="m175.5,221.5l10.25,6.5" style="fill:none; stroke:#5456aa; stroke-linecap:round; stroke-linejoin:round; stroke-width:2px;"/><path id="uuid-05c56045-b87b-42f2-a591-b683bf33616b" d="m177,229.5l9.5,6" style="fill:none; stroke:#5456aa; stroke-linecap:round; stroke-linejoin:round; stroke-width:2px;"/><path id="uuid-1a4f9eea-bc91-4707-809a-31f5c07ac335" d="m178.25,237l7.75,4" style="fill:none; stroke:#5456aa; stroke-linecap:round; stroke-linejoin:round; stroke-width:2px;"/><path id="uuid-26d2e698-90be-4509-89d0-824713732813" d="m179.25,244.5l7.25,4.5" style="fill:none; stroke:#5456aa; stroke-linecap:round; stroke-linejoin:round; stroke-width:2px;"/><path id="uuid-c217e9aa-fb8c-4531-94a0-81ab9d3671c4" d="m211.88,196.83l-12.73,8.13" style="fill:none; stroke:#5456aa; stroke-linecap:round; stroke-linejoin:round; stroke-width:2px;"/><path id="uuid-ffcd0582-34c0-4686-ac47-8cc7c7ee10f0" d="m211.12,203.67l-11,7" style="fill:none; stroke:#5456aa; stroke-linecap:round; stroke-linejoin:round; stroke-width:2px;"/><path id="uuid-6462ee55-f2bc-467a-b663-0e47861a8584" d="m210.12,212.17l-10,5.5" style="fill:none; stroke:#5456aa; stroke-linecap:round; stroke-linejoin:round; stroke-width:2px;"/><path id="uuid-6626b380-b2be-4085-a82e-c27856342948" d="m210.62,219.42l-11.25,6" style="fill:none; stroke:#5456aa; stroke-linecap:round; stroke-linejoin:round; stroke-width:2px;"/><path id="uuid-ac8a00a6-5c00-4f50-8147-73a4e669427f" d="m210.12,226.17l-10.75,5.75" style="fill:none; stroke:#5456aa; stroke-linecap:round; stroke-linejoin:round; stroke-width:2px;"/><path id="uuid-2a613ad7-5571-43d9-b12c-74ee8aa17d39" d="m209.62,233.17l-11.5,6.5" style="fill:none; stroke:#5456aa; stroke-linecap:round; stroke-linejoin:round; stroke-width:2px;"/><path id="uuid-fec45c84-7074-4bae-adf8-d24f9dbb4f25" d="m208.37,239.92l-9.75,5.25" style="fill:none; stroke:#5456aa; stroke-linecap:round; stroke-linejoin:round; stroke-width:2px;"/><path id="uuid-400ee674-ce5f-4f7b-b5c9-d30e80e3d606" d="m207.37,247.42l-9.25,5.75" style="fill:none; stroke:#5456aa; stroke-linecap:round; stroke-linejoin:round; stroke-width:2px;"/><path id="uuid-bf69537b-c7fb-4165-9b76-416267a09fe1" d="m187,256l-6.8-4.87" style="fill:none; stroke:#5456aa; stroke-linecap:round; stroke-linejoin:round; stroke-width:2px;"/><path id="uuid-1e0dc8da-1b91-4f31-bf6b-1b7e31af8d63" d="m205.75,256.25l-6.75,3.25" style="fill:none; stroke:#5456aa; stroke-linecap:round; stroke-linejoin:round; stroke-width:2px;"/><path id="uuid-be4e2afa-a4ce-4072-b900-51e7f48ffcfa" d="m198.79,262.03l6.24,2.5" style="fill:none; stroke:#5456aa; stroke-linecap:round; stroke-linejoin:round; stroke-width:2px;"/><g id="uuid-71c981c9-6bbe-4c67-a712-92b7841404d4"><path id="uuid-9b5a0736-13b9-4754-acba-627da84d8d57" d="m302,133.5c-.83-2.17-3.28-4.31-2.5-6.5.9-2.53,4.32-4.18,7-4,2.73.19,5.41,2.49,6.5,5,1.07,2.46.13,4.63-.75,8,3.01-1.85,4.26-2.3,6.25-1.5,3.13,1.25,5.72,5.13,5.5,8.5-.18,2.83-2.74,5.85-5.5,6.5-2.47.58-4.67-2-7-3,.5,3,2.63,6.18,1.5,9-.93,2.32-3.5,4.52-6,4.5-2.73-.02-5.5-2.46-6.5-5-1.11-2.83,1-6,1.5-9-1.83,1.33-3.24,4.21-5.5,4-3.64-.34-7.26-4.35-7.5-8-.19-2.86,2.58-5.46,5-7,2.29-1.46,5.33-1,8-1.5Z" style="fill:#ff5; stroke:#5456aa; stroke-linecap:round; stroke-linejoin:round; stroke-width:2px;"/><path id="uuid-00f8dcbd-a6c6-46d2-876e-65f418cc2f82" d="m296,134.5l-3.5-8.5,6,1.5,3,5.5-5.5,1.5Z" style="fill:#55a; stroke:#5456aa; stroke-linecap:round; stroke-linejoin:round; stroke-width:2px;"/><path id="uuid-a731e544-d4e7-483b-83ff-e9bfc6633731" d="m311.5,133.5l2.5-5.5,6.5-1-2.5,6.5h-6.5Z" style="fill:#55a; stroke:#5456aa; stroke-linecap:round; stroke-linejoin:round; stroke-width:2px;"/><path id="uuid-35fb6c06-c7d0-49b0-aa43-c100091945fb" d="m313,148.5l.5,6,5,.5-1-5.5-4.5-1Z" style="fill:#55a; stroke:#5456aa; stroke-linecap:round; stroke-linejoin:round; stroke-width:2px;"/><path id="uuid-d0e89d90-cebb-429d-ba8f-9044a9042b0a" d="m297,148.5l-2,7,4.5-1.5,2.5-8.5-5,3Z" style="fill:#55a; stroke:#5456aa; stroke-linecap:round; stroke-linejoin:round; stroke-width:2px;"/><path id="uuid-903d9a22-22b1-4a9f-a3f2-10fdbec318c9" d="m304.5,160l1.5,40.5,3.5-2-1.5-38.25-3.5-.25Z" style="fill:#ff5; stroke:#5456aa; stroke-linecap:round; stroke-linejoin:round; stroke-width:2px;"/><path id="uuid-4f671452-0c7c-45d9-aa4a-a2b08c539908" d="m311,191c.33-5.51,1.02-11.2,3.25-16.25,2.22-5.02,6.25-9.42,9.75-13.25.17,5.5.25,11.58-.75,17.25-.62,3.53-1.39,7.19-3.25,10.25-2.08,3.42-5.67,5.67-8.5,8.5-.17-2.17-.63-4.33-.5-6.5Z" style="fill:#ff5; stroke:#5456aa; stroke-linecap:round; stroke-linejoin:round; stroke-width:2px;"/><path id="uuid-32267dac-bccd-471e-b91a-ab3b98a8743a" d="m320,171c-.83,3.83-1.32,7.76-2.5,11.5-1.3,4.13-5,12-5,12h0" style="fill:none; stroke:#5456aa; stroke-linecap:round; stroke-linejoin:round; stroke-width:2px;"/><path id="uuid-6d9d39e1-e0fe-4b75-8364-85076aa354c7" d="m287,172c4.83,3.83,11.18,6.3,14.5,11.5,3.05,4.77,2.67,11,4,16.5-3.83-3.83-8.01-7.35-11.5-11.5-2.23-2.65-4.75-5.27-6-8.5-.97-2.51-.67-5.33-1-8Z" style="fill:#ff5; stroke:#5456aa; stroke-linecap:round; stroke-linejoin:round; stroke-width:2px;"/><path id="uuid-3df31fb1-2a58-4b17-abf7-c60a5aa7db6a" d="m292,181c2.5,2.33,5.38,4.32,7.5,7,2.5,3.16,4,7,6,10.5" style="fill:none; stroke:#5456aa; stroke-linecap:round; stroke-linejoin:round; stroke-width:2px;"/><path id="uuid-4b5786d6-95ee-4834-9cc8-ed072cd04705" d="m296.5,141l11-10.5,9.25,10.75-9.75,10-10.5-10.25Z" style="fill:#f55; stroke:#5456aa; stroke-linecap:round; stroke-linejoin:round; stroke-width:2px;"/><path id="uuid-aeed9883-72f0-400a-bf3e-1b2b10581aa4" d="m302.5,141l4.5-4.5,4.5,4.5-4,4.75-5-4.75Z" style="fill:#ff5; stroke:#5456aa; stroke-linecap:round; stroke-linejoin:round; stroke-width:2px;"/></g><g id="uuid-a7c3b378-3dc8-4801-9e90-6c2c1591f2ee"><path id="uuid-fe1a4236-93ac-4fe5-99a4-8eea31e2900b" d="m40.95,253.11l-.35-6.36,6.36.35,3.54-6.01,4.6,6.36h6.36l-.71,6.36,5.3,3.18-6.01,4.6.35,5.66-4.95-.71-4.24,6.36-4.95-7.42-4.6,1.77v-6.01l-6.72-3.89,6.01-4.24Z" style="fill:#ffff57;"/><path id="uuid-b0ee95ec-ae17-4f56-bc02-75f9443b9eb2" d="m45.41,256.67l5.41-5.08,5.12,5.52-5.18,4.9-5.34-5.34Z" style="fill:#f55; stroke:#000; stroke-linecap:round; stroke-linejoin:round; stroke-width:2px;"/></g><path id="uuid-9f8205a5-9bb2-48f4-bd9f-cbcf9080e801" d="m116.6,249.19s2.24-3.57,3.9-4.78c1.43-1.04,3.19-2.15,4.94-1.92,1,.13,2.11.83,2.44,1.78.27.78-.23,1.68-.67,2.38-.58.95-1.52,1.66-2.46,2.25-1,.62-2.18.9-3.29,1.28-1.05.36-3.2.94-3.2.94l-1.66-1.93Z" style="fill:#fff;"/><path id="uuid-0d26b288-436d-4768-842d-b7027ca6eee5" d="m119.44,254.28s3.14-2.81,5.08-3.51c1.66-.6,3.66-1.18,5.28-.48.92.4,1.8,1.38,1.85,2.39.04.82-.69,1.55-1.3,2.11-.82.75-1.92,1.18-2.99,1.48-1.13.32-2.34.26-3.52.32-1.11.05-3.34.02-3.34.02l-1.06-2.32Z" style="fill:#fff;"/><path id="uuid-ed0dd624-5b16-4892-b868-1b48af500c86" d="m122.09,260.08s3.94-1.51,6-1.48c1.77.03,3.84.2,5.11,1.43.72.7,1.19,1.93.88,2.89-.25.79-1.2,1.2-1.96,1.51-1.03.41-2.21.42-3.32.32-1.17-.11-2.28-.59-3.4-.96-1.06-.35-3.12-1.17-3.12-1.17l-.17-2.54Z" style="fill:#fff;"/><path id="uuid-26540cdb-dd4d-46a2-a5c7-4aa153b99ddd" d="m122.04,265.89s4.19-.51,6.17.03c1.71.46,3.68,1.12,4.6,2.63.53.86.68,2.16.15,3.02-.44.7-1.45.88-2.27.98-1.1.14-2.25-.13-3.3-.5-1.11-.39-2.07-1.13-3.07-1.75-.94-.59-2.75-1.89-2.75-1.89l.46-2.51Z" style="fill:#fff;"/><path id="uuid-137e2a49-fd56-4bb7-9c77-dab52a5cd54b" d="m105.9,285.62s-.61,4.17-.13,6.17c.41,1.72,1.03,3.71,2.51,4.67.84.55,2.14.74,3.01.23.71-.42.91-1.43,1.04-2.25.17-1.1-.08-2.25-.41-3.31-.36-1.12-1.07-2.1-1.67-3.11-.57-.96-1.82-2.79-1.82-2.79l-2.52.39Z" style="fill:#fff;"/><path id="uuid-382b85f8-cdb9-44c1-bf05-c2aeba7aa2c0" d="m110.86,282.83s.53,4.18,1.53,5.98c.86,1.54,1.99,3.29,3.67,3.82.96.3,2.26.13,2.96-.59.57-.59.5-1.62.4-2.44-.13-1.1-.68-2.15-1.29-3.08-.65-.99-1.6-1.74-2.45-2.55-.8-.77-2.51-2.2-2.51-2.2l-2.32,1.05Z" style="fill:#fff;"/><path id="uuid-4bb250fa-b3f8-4d71-a09c-810ad6f68294" d="m115.31,279.25s1.67,3.87,3.13,5.32c1.26,1.24,2.82,2.61,4.59,2.65,1.01.02,2.21-.5,2.68-1.39.39-.73.03-1.7-.3-2.46-.43-1.02-1.25-1.87-2.09-2.6-.9-.77-2.02-1.22-3.06-1.77-.99-.51-3.02-1.42-3.02-1.42l-1.94,1.66Z" style="fill:#fff;"/><path id="uuid-ae6d8b35-15b7-4aa8-9cd9-4fdc0f5fafba" d="m119.67,274.63s2.94,3.02,4.82,3.86c1.62.72,3.57,1.44,5.24.85.95-.34,1.89-1.25,2.01-2.25.1-.82-.58-1.6-1.15-2.19-.77-.8-1.83-1.31-2.88-1.68-1.11-.4-2.32-.43-3.49-.56-1.1-.13-3.33-.25-3.33-.25l-1.22,2.24Z" style="fill:#fff;"/><g id="uuid-592f50f1-57c4-4bb6-93d4-a845255cdbc1"><path id="uuid-c6de035d-d2b7-4a9f-9701-afd378adb55a" d="m185.82,194.08l2.12,62.58,10.25,5.3.71-67.18-13.08-.71Z" style="fill:#ff5; stroke:#000; stroke-linecap:round; stroke-linejoin:round; stroke-width:2px;"/><path id="uuid-fe8a432b-7bb2-438e-86bd-3a3f9ae6f2cf" d="m190.77,199.38c3.54,0,2.83,0,2.83,0l.35,3.18-2.97.15-.21-3.33Z"/><path id="uuid-1f72905f-9c03-4b7b-8d76-4b59f97cc337" d="m191.16,206.34c3.54,0,2.83,0,2.83,0l.35,3.18-2.97.15-.21-3.33Z"/><path id="uuid-8bbcfa89-d9e7-4e6c-bf38-0c3fa22de586" d="m190.91,213.34c3.54,0,2.83,0,2.83,0l.35,3.18-2.97.15-.21-3.33Z"/><path id="uuid-3107a2af-4e6a-4cac-9a27-e45f117978d3" d="m190.66,219.59c3.54,0,2.83,0,2.83,0l.35,3.18-2.97.15-.21-3.33Z"/><path id="uuid-38c83057-bcef-45c1-b0fa-6d779508a0a9" d="m190.66,226.84c3.54,0,2.83,0,2.83,0l.35,3.18-2.97.15-.21-3.33Z"/><path id="uuid-eb1d5094-d4d3-4d9c-b133-3f33f0faf712" d="m190.41,232.84c3.54,0,2.83,0,2.83,0l.35,3.18-2.97.15-.21-3.33Z"/><path id="uuid-eb756dda-3d2c-426b-8ff2-65c1363e5d91" d="m191.16,239.34c3.54,0,2.83,0,2.83,0l.35,3.18-2.97.15-.21-3.33Z"/><path id="uuid-9d313417-02f6-4f37-a3ab-fb576979f1a6" d="m191.16,245.34c3.54,0,2.83,0,2.83,0l.35,3.18-2.97.15-.21-3.33Z"/><path id="uuid-56dfa0ce-0367-4927-9d8a-6fbb574b60e7" d="m191.16,251.84c3.54,0,2.83,0,2.83,0l.35,3.18-2.97.15-.21-3.33Z"/></g><path id="uuid-5ec888ab-0aa8-4875-9e48-44cb1d081d31" d="m208.62,193.62l-9.25,5.75" style="fill:none; stroke:#5456aa; stroke-linecap:round; stroke-linejoin:round; stroke-width:2px;"/></g><g id="uuid-3c89ad09-a507-4966-bda5-681e1ed5204b"><path id="uuid-6600e1fa-1221-4a7c-b7d0-cc9930bf4990" d="m118.69,302.95c-.12,16.62.29,30.76.18,47.38-6.01,1.89-10.94,3.71-16.28,5.91-5.28,2.17-10.34,4.83-15.54,7.17-2.93,1.32-5.89,2.59-8.84,3.89l-1.8-6.83c2.36-2.71,5.71-5.9,8.28-9.1,2.17-2.7,4.23-5.51,6.01-8.49,2.57-4.29,4.76-8.83,6.72-13.44,1.23-2.9,2.34-5.86,3.14-8.9.88-3.34,1.46-7.13,1.81-10.19,3.06-1.53,5.25-2.17,7.84-3.34,2.86-1.29,4.48-2.06,8.49-4.07Z"/><path id="uuid-5be0d7cf-4c7f-408b-a6fd-4d55e8ee9753" d="m203.83,352.18l-16.85-3.79-10.05-62.6,10.72,6.94,16.17,59.45Z" style="fill:#55a;"/><path id="uuid-7cbc2ba1-91a7-449b-ad3c-ad6c805fe140" d="m149.32,345.12l9.25-5.75" style="fill:none; stroke:#5456aa; stroke-linecap:round; stroke-linejoin:round; stroke-width:2px;"/><path id="uuid-cfb0e581-f2db-43ef-8297-796064026866" d="m119.22,338.31l-.53-35.48s6.14-3.44,8.66-5.83c3.06-2.91,5.48-6.48,7.6-10.13,1.49-2.55,2.65-5.31,3.54-8.13.72-2.29,1.41-7.07,1.41-7.07l4.42-.18-18.03,66.82c-2.36-.23-4.71-.11-7.07,0h0Z" style="fill:#f55;"/><path id="uuid-74966673-b66c-48bf-b851-127b749873b2" d="m144.95,346.57l8.55-73.21-10.07-1.87-20.99,78.16,22.51-3.08Z" style="fill:#55a;"/><path id="uuid-b61049bd-f055-4782-a69e-96c39ab0e40e" d="m234.71,314.97c2.59-3.54,5.55-6.83,7.78-10.61,1.71-2.91,3.01-6.05,4.24-9.19,1.53-3.92,2.92-7.92,3.89-12.02,1.04-4.41,1.52-8.94,2.05-13.44.66-5.58,1.05-11.19,1.42-16.79.29-4.54.28-9.09.62-13.63.29-3.9.99-7.88,1.22-11.66-3.18,1.53-6.39,3-9.55,4.6-3.81,1.93-7.84,3.53-11.31,6.01-3.8,2.71-7.46,5.81-10.25,9.55-2.37,3.16-4.06,6.86-5.3,10.61-1.25,3.77-1.86,7.76-2.11,11.73-.28,4.46.14,8.95.69,13.38.45,3.58.89,7.22,2.12,10.61,1.51,4.16,3.88,8,6.36,11.67,1.45,2.15,3.21,4.09,4.95,6.01,1.01,1.11,2.12,2.12,3.18,3.18h0Z" style="fill:#55a;"/><path id="uuid-680dbb7b-753a-4b7c-b210-29a62f5aaa96" d="m269.19,381.03s-10.41-8.1-15.75-11.96c-5.22-3.78-10.34-7.73-15.91-10.96-4.22-2.45-8.71-4.44-13.2-6.36-4.01-1.71-8.1-3.25-12.25-4.6-3.37-1.1-10.25-2.83-10.25-2.83l1.06,8.13s11.67,3.19,17.32,5.3c4.35,1.63,8.61,3.51,12.73,5.66,4.03,2.11,7.88,4.55,11.67,7.07,4,2.66,7.81,5.61,11.67,8.49,2.5,1.86,7.42,5.66,7.42,5.66l5.49-3.6Z" style="fill:#f55;"/><path id="uuid-b24e15b5-d5da-409e-88f3-9d7c9f138f5c" d="m328.45,333.25s-14.34,12.52-21.75,18.5c-6.61,5.34-13.51,10.33-20.25,15.5-4.34,3.33-13,10-13,10,0,0-9.62-7.73-14.5-11.5-3.96-3.05-7.83-6.24-12-9-3.86-2.56-12-7-12-7,0,0,8.39-4.1,12-7,4.78-3.84,8.61-8.76,12.5-13.5,4.69-5.73,9.6-11.42,13-18,4.04-7.82,6.74-16.38,8.5-25,.9-4.42.76-8.99,1-13.5.27-5,.14-10.01.5-15,.33-4.52.91-9.01,1.5-13.5.58-4.35,2-13,2-13,0,0,3.76,6.77,7,8.5,2.95,1.58,6.66,1.19,10,1,3.92-.22,7.84-1.08,11.5-2.5,2.16-.84,4.01-2.32,6-3.5,1.67-.99,3.36-1.96,5-3,1.02-.64,3-2,3-2v103.5Z"/><path id="uuid-b774bd48-22b8-4d20-8c4c-e76bb41519d4" d="m199.4,478.11s10.51-9.83,15.12-15.33c5.2-6.2,10.21-12.68,14.05-19.8,3.51-6.51,6.11-13.53,8.09-20.65,2.04-7.35,3.83-22.57,3.83-22.57l-21.29,10.22s-2.14,10.26-4.05,15.12c-2.05,5.23-4.75,10.24-7.88,14.9-2.78,4.14-9.58,11.5-9.58,11.5l1.7,26.62Z" style="fill:#000004;"/><path id="uuid-f4f85857-f2b8-4501-80d9-1fdcaa4145cc" d="m141.08,509.25l-51.39-88.8-8.32,3.64,49.98,85.16h9.73Z" style="fill:#ff5455;"/><path id="uuid-286ddcc0-6b6f-48b5-816f-6012a074a6a4" d="m66.23,509.25c1.78-8.49,2.76-17.15,2.91-25.83.2-11.3-.99-22.63-3.48-33.65-1.77-7.87-4.21-15.58-7.26-23.04,3.99.75,8.08.95,12.13.61,3.7-.32,7.36-1.09,10.87-2.3l50.17,84.22h-65.35" style="fill:#ff5; stroke:#55a; stroke-linecap:round; stroke-linejoin:round; stroke-width:2px;"/><path id="uuid-7b1b98b1-de5c-4fb9-b7e9-4709219c97e2" d="m81.96,368.2c17.23-8.9,25.11-13,38.67-16.56,15.81-4.15,32.42-6.08,48.76-5.33,14.71.68,29.53,3.57,43.29,8.8,18.46,7.02,35.06,16.47,51.24,29.76-5.99,4.27-16.42,10.9-25.22,15.28-10.26,5.11-15.87,8.98-31.94,12.76-4.34-2.49-8.5-5.49-13.18-7.31-6.32-2.46-13.04-4.07-19.79-4.77-6.83-.71-13.76-.15-20.58.59-6.9.74-13.85,1.75-20.47,3.86-6.44,2.05-12.1,4.54-18.42,8.43,1.29-17.27.39-22.17-9.34-31.3-2.17-1.8-13.75-8.99-19.39-7.91-4.92-3.58-1.12-5.1-3.62-6.31h0Z" style="fill:#ffff58;"/><path id="uuid-faee9feb-d4c9-44d7-9bd4-6f41312df846" d="m102.35,485.72c2.53,1.88,6.23,2.15,8.05.18,2.11-2.28,1.09-6.92-.95-9.26-2.39-2.75-7.65-4.73-10.62-2.61-1.36.97-1.27,3.54-.44,4.99.41.73,1.36,1.09,2.27,1.09" style="fill:none; stroke:#000; stroke-linecap:round; stroke-linejoin:round; stroke-width:2.5px;"/><path id="uuid-4e3b761e-54ef-40d2-b67b-c8bab6f42df9" d="m95.19,468.25c-2.03,1.78-1.06,3.64,0,4.87.87,1.01,2.82,1.31,3.96.61,2.98-1.85,4.46-6.78,3.17-10.04-1.3-3.29-5.82-6.02-9.25-5.17-2.35.58-4.67,2.81-3.96,6.09" style="fill:none; stroke:#000; stroke-linecap:round; stroke-linejoin:round; stroke-width:2.5px;"/><path id="uuid-8acf04fa-bf01-4c4e-9ea5-9e814cf6f2ea" d="m96.1,476.16c.83,1.29.64,3.67-.61,4.57-1.26.9-3.74.4-4.57-.91-.89-1.41-.24-4.05,1.22-4.87,1.2-.68,3.21.06,3.96,1.22h0Z" style="fill:none; stroke:#000; stroke-linecap:round; stroke-linejoin:round; stroke-width:2.5px;"/><path id="uuid-9f3987da-0615-4a6f-889e-8e4d9ca64643" d="m107.97,495.03c-.35-2.95,1.56-7.43,4.57-7.91,3.15-.5,5.89,3.45,7.12,6.39,1.26,3,1.97,7.55-.43,9.74-1.65,1.51-5.15,1.31-6.7-.3-.84-.88-1.09-2.9,0-3.65" style="fill:none; stroke:#000; stroke-linecap:round; stroke-linejoin:round; stroke-width:2.5px;"/><path id="uuid-d7a761af-7e3c-4dab-9a83-1064b5a6578a" d="m127.75,509.25c-.91-5.88-4.28-6.34-7.3-5.7-2.11.45-3.75,3.6-3.04,5.7" style="fill:none; stroke:#000; stroke-linejoin:round; stroke-width:2.5px;"/><path id="uuid-ffe2d3a9-29bf-470f-afd7-3e694dac764f" d="m116.36,509.25c1.02-1.69-.58-3.17-1.83-3.26-1.37-.1-3.01,1.93-2.52,3.26" style="fill:none; stroke:#000; stroke-linejoin:round; stroke-width:2.5px;"/><path id="uuid-1e61207e-483b-455a-8b34-41a59518e001" d="m84.23,455.47c.44.47.98.88,1.59,1.22,1.83,1.01,4.22,1.33,5.84.35,2.8-1.7,2.47-6.33,1.05-9.01-1.49-2.82-5.39-5.22-8.48-4.43-1.77.45-3.51,2.8-3.04,4.57.35,1.32,1.81,3.25,3.65,1.83" style="fill:none; stroke:#000; stroke-linecap:round; stroke-linejoin:round; stroke-width:2.5px;"/><path id="uuid-24bef1f1-2877-4ec8-9a23-47e78e5922b9" d="m79.06,446.64c.51,1.32-.21,3.44-1.52,3.96-1.3.52-3.39-.48-3.78-1.83-.4-1.37.88-3.26,2.26-3.65,1.09-.31,2.63.46,3.04,1.52h0Z" style="fill:none; stroke:#000; stroke-linecap:round; stroke-linejoin:round; stroke-width:2.5px;"/><path id="uuid-7b1c2ab9-6ac2-4e03-9f58-7078f491fb1a" d="m78.75,439.03c-1.56-.45-1.07,3.33,0,4.26,1.16,1.01,3.51.5,4.57-.61,2-2.09,2.02-6.05.75-8.65-1.35-2.78-4.81-5.97-7.76-5.06-2.52.78-3.53,3.21-3.03,7.32" style="fill:none; stroke:#000; stroke-linecap:round; stroke-linejoin:round; stroke-width:2.5px;"/><path id="uuid-533a5900-5c36-4404-91b4-6ad4c9f9d109" d="m199.76,509.25s-.8-19.91-1.25-29.87c-.29-6.35-.44-12.72-.94-19.06-.61-7.73-.83-15.55-2.5-23.12-1.33-6.01-2.88-12.15-5.94-17.49-2.53-4.42-5.76-8.73-10-11.56-2.46-1.65-5.48-2.58-8.43-2.81-3.79-.3-7.68.56-11.25,1.87-4.56,1.68-8.55,4.67-12.5,7.5-3.66,2.63-6.96,5.73-10.31,8.75-2.57,2.32-7.5,7.18-7.5,7.18" style="fill:none; stroke:#55a; stroke-linejoin:round; stroke-width:2.5px;"/><path id="uuid-6e6a8ae6-57ec-4320-abe4-e69cd4579861" d="m187.89,509.06s3.23-4.66,5.31-6.56c1.66-1.52,5.62-3.75,5.62-3.75" style="fill:none; stroke:#55a; stroke-linecap:round; stroke-linejoin:round; stroke-width:2.5px;"/><path id="uuid-2bdc89aa-b726-4d7c-9b95-929927311877" d="m181.33,509.06s4.32-6.86,7.18-9.68c2.92-2.88,10-7.18,10-7.18" style="fill:none; stroke:#55a; stroke-linecap:round; stroke-linejoin:round; stroke-width:2.5px;"/><path id="uuid-35a283ae-b04d-4c93-ba5a-4c21d6cc1d7d" d="m174.46,509.06s7.25-10.41,11.87-14.68c3.52-3.25,11.87-8.12,11.87-8.12" style="fill:none; stroke:#55a; stroke-linecap:round; stroke-linejoin:round; stroke-width:2.5px;"/><path id="uuid-616cc544-7c26-4ad1-8a94-46f55c0c604f" d="m169.77,509.06s-6.7-13.33-12.18-18.12c-5.51-4.81-19.68-9.68-19.68-9.68" style="fill:none; stroke:#55a; stroke-linecap:round; stroke-linejoin:round; stroke-width:2.5px;"/><path id="uuid-ea13fed4-03ba-46f7-8618-ab44c428f74f" d="m164.15,509.06s-5.28-9.82-9.37-13.43c-3.53-3.11-12.5-6.56-12.5-6.56" style="fill:none; stroke:#55a; stroke-linecap:round; stroke-linejoin:round; stroke-width:2.5px;"/><path id="uuid-a7b4680b-8e1b-4fdb-b3b6-569d7d90c5e2" d="m158.53,509.06s-3.19-6.71-5.94-9.06c-1.91-1.64-6.87-3.12-6.87-3.12" style="fill:none; stroke:#55a; stroke-linecap:round; stroke-linejoin:round; stroke-width:2.5px;"/><path id="uuid-7b6621e0-508d-4564-9ec4-89c71f01b23a" d="m177.98,471.7s-.55-4.05-.34-6.07c.39-3.8,2.01-7.37,2.97-11.07.63-2.42,1.91-4.78,1.82-7.28-.07-1.96-.59-4.09-1.86-5.59-.85-1-2.51-.97-3.48-1.85-.82-.74-1.83-2.76-1.83-2.76" style="fill:none; stroke:#55a; stroke-linecap:round; stroke-linejoin:round; stroke-width:2px;"/><path id="uuid-24d06fc6-7c62-4c73-9d5a-67ff5daf6726" d="m164.82,447.37s-3.2-3.6-2.77-5.65c.27-1.3,1.73-2.34,3.04-2.57,1.68-.29,3.22,1.16,4.81,1.79,1.51.59,3.04,2.59,4.49,1.87.68-.34,1.08-1.64.57-2.21-.62-.69-1.81.39-2.74.41-3.2.08-7.04-2.92-9.56-.95-.87.68-.71,2.21-.47,3.29.35,1.56,2.62,4.01,2.62,4.01h0Z" style="fill:#55a; stroke:#55a; stroke-linecap:round; stroke-linejoin:round; stroke-width:2px;"/><path id="uuid-fb7a68aa-dd2d-45bf-a7f8-17a9aeabe898" d="m137.93,472.64s8.75,6.25,13.74,7.57c3.93,1.04,8.24,1.28,12.13.1,1.57-.47,4.15-2.76,4.15-2.76,0,0-3.82,1.38-5.8,1.64-4.01.52-8.19.8-12.12-.21-4.36-1.12-12.11-6.34-12.11-6.34Z" style="fill:#55a; stroke:#55a; stroke-linecap:round; stroke-linejoin:round; stroke-width:2px;"/><path id="uuid-9b066039-9abc-48ef-b24d-75908bd1267d" d="m197.51,478.69s-6.12,2.84-9.27,2.38c-3.5-.51-9.1-5.48-9.1-5.48,0,0,5.92,4.08,9.34,4.31,3.22.21,9.23-2.88,9.23-2.88l-.2,1.68Z" style="fill:#55a; stroke:#55a; stroke-linecap:round; stroke-linejoin:round; stroke-width:2px;"/><path id="uuid-d828059b-5e79-48f7-a488-7f315f6755fa" d="m161.36,429.61s3.93,1.54,6.04,1.67c1.91.12,3.77-.71,5.68-.82,2.18-.12,4.45.74,6.54.2.95-.25,2.41-1.49,2.41-1.49,0,0-1.7.1-2.54.02-2.23-.23-4.31-1.45-6.53-1.42-2.45.03-4.71,1.4-7.16,1.72-1.46.19-4.44.12-4.44.12h0Z" style="fill:#55a; stroke:#55a; stroke-linecap:round; stroke-linejoin:round; stroke-width:2px;"/><path id="uuid-78fcba28-6989-4e84-b6b7-901ae0e0783e" d="m166,424.5s3.68-1.44,5.62-1.51c1.66-.06,4.88.94,4.88.94" style="fill:none; stroke:#55a; stroke-linecap:round; stroke-linejoin:round; stroke-width:2px;"/><path id="uuid-e809f366-e08c-4bad-8332-e5601341a1ec" d="m179.78,469.72s4.79,4.1,9.14,4.14c4.65.04,7.39-2.66,7.39-2.66" style="fill:none; stroke:#55a; stroke-linecap:round; stroke-linejoin:round; stroke-width:2px;"/><path id="uuid-06537bab-ca36-4f08-94ab-42a5dce500cb" d="m139.31,468.09s9.38,7.14,14.71,7.07c7.19-.1,12.54-4.32,12.54-4.32" style="fill:none; stroke:#55a; stroke-linecap:round; stroke-linejoin:round; stroke-width:2px;"/><path id="uuid-a7ba0e5f-f078-435f-9584-df295b7b2494" d="m140.39,465.87c5.52.69,7.47,3.85,12.54,4.25,4.35.34,13.1-1.23,13.1-1.23" style="fill:none; stroke:#55a; stroke-linecap:round; stroke-linejoin:round; stroke-width:2px;"/><path id="uuid-4a2118b2-a803-484e-b17d-9f2d639b66e9" d="m196.83,467.63c-5.03,2.65-4.77,3.26-9.85,2.93-6.55-.43-8.42-1.21-8.06-1.07" style="fill:none; stroke:#55a; stroke-linecap:round; stroke-linejoin:round; stroke-width:2px;"/><path id="uuid-3627b770-7c3d-4d81-b3c9-43be3ecb1529" d="m143.01,464.94c4.94-1.29,7.29-2.53,12.89-2.9,4.15-.28,9.71,1.03,10.13,5.17" style="fill:none; stroke:#55a; stroke-linecap:round; stroke-linejoin:round; stroke-width:2px;"/><path id="uuid-2c39a537-4b70-4a20-be7b-278d8fdf3aa7" d="m153.37,468.73c-.95-5.13,2.09-6.85,5.44-6.45,2.28.27,4.42,3.25,3.37,6.2" style="fill:none; stroke:#55a; stroke-linecap:round; stroke-linejoin:round; stroke-width:2px;"/><path id="uuid-14f8f70f-79e2-4a22-92f1-c34378e4c308" d="m159.49,465.59c.19.9-.67,2.22-1.57,2.28-.79.06-1.69-.98-1.63-1.79.06-.74.99-1.35,1.73-1.4.58-.04,1.36.34,1.48.9h0Z" style="fill:#55a; stroke:#55a; stroke-linecap:round; stroke-linejoin:round; stroke-width:2px;"/><path id="uuid-2acd4005-11a3-4e82-ab70-2035af15f9d4" d="m186.37,466.91c-.01.73.82,1.66,1.66,1.63.74-.03,1.43-.89,1.35-1.53-.08-.66-1-1.31-1.76-1.27-.61.04-1.24.64-1.25,1.17h0Z" style="fill:#55a; stroke:#55a; stroke-linecap:round; stroke-linejoin:round; stroke-width:2px;"/><path id="uuid-77fbb30f-59c3-43f6-806b-73fed97543be" d="m180.28,461.07c1.93-2.52,2.05-4.74,6.1-6.91" style="fill:none; stroke:#55a; stroke-linecap:round; stroke-linejoin:round; stroke-width:2px;"/><path id="uuid-d13c1cf6-a357-4b61-a3df-9024c6934c2f" d="m166.09,468c-1.61-7.2-7.24-9.36-11.68-12.54" style="fill:none; stroke:#55a; stroke-linecap:round; stroke-linejoin:round; stroke-width:2px;"/><path id="uuid-9dabb246-a9eb-45f6-a0ec-78567250fac3" d="m196.91,465c-2.71-1.79-6.17-2.83-10.55-2.64-3.25.14-6.52,2.67-6.54,5.67" style="fill:none; stroke:#55a; stroke-linecap:round; stroke-linejoin:round; stroke-width:2px;"/><path id="uuid-b808a90e-9be7-4035-b6e1-4835cf870f7d" d="m191.81,470.33c.98-4.98-1.14-7.63-4.94-7.49-1.67.06-5.04,4.17-2.48,7.99" style="fill:none; stroke:#55a; stroke-linecap:round; stroke-linejoin:round; stroke-width:2px;"/><path id="uuid-90671460-8f8a-46f7-861c-4c6925b7dcca" d="m166.44,417.61s3.75,1.23,5.69,1.19c1.66-.03,4.82-1.21,4.82-1.21" style="fill:none; stroke:#55a; stroke-linecap:round; stroke-linejoin:round; stroke-width:2px;"/><path id="uuid-96201c1d-4baa-433a-9b13-7803c801ef9f" d="m134.03,469.38c1.85-5.39,5.17-10.82,5.11-16.61-.05-5.68-2.29-11.38-5.32-16.18-2.36-3.74-5.62-7.21-9.58-9.16-3.8-1.87-8.37-1.28-12.56-1.92" style="fill:none; stroke:#55a; stroke-linecap:round; stroke-linejoin:round; stroke-width:2.5px;"/><path id="uuid-7caf8c5f-71f2-44f7-8959-719192b2491d" d="m130.84,463.84c.85-3.12,2.31-7.17,2.13-10.86-.2-4.22-1.51-8.48-3.62-12.14-1.76-3.04-4.16-5.98-7.24-7.67-2.34-1.28-5.25-.99-7.88-1.49" style="fill:none; stroke:#55a; stroke-linecap:round; stroke-linejoin:round; stroke-width:2.5px;"/><path id="uuid-4ed3e4ae-29b0-45e3-9bf2-72f19e5501bc" d="m127.22,457.45c.28-2.27,1.18-4.55.85-6.81-.43-2.99-1.53-6.13-3.62-8.3-1.69-1.76-4.4-2.13-6.6-3.19" style="fill:none; stroke:#55a; stroke-linecap:round; stroke-linejoin:round; stroke-width:2.5px;"/><path id="uuid-081239a2-e846-492a-ae37-78b3ce2e0556" d="m106.99,416.57c.85-3.05,2.35-5.99,2.56-9.16.25-3.94-.26-8.04-1.7-11.71-1.64-4.18-4.4-8-7.67-11.07-1.99-1.88-4.45-3.33-7.03-4.26-1.82-.66-3.83-.57-5.75-.85" style="fill:none; stroke:#55a; stroke-linecap:round; stroke-linejoin:round; stroke-width:2.5px;"/><path id="uuid-1bddd035-5cf2-43fd-bfdc-283e75ae7e42" d="m103.37,409.55c.43-2.27,1.41-4.51,1.28-6.81-.18-3.12-1.18-6.26-2.77-8.94-1.3-2.2-3.22-4.08-5.32-5.54-1.33-.92-2.98-1.28-4.47-1.92" style="fill:none; stroke:#55a; stroke-linecap:round; stroke-linejoin:round; stroke-width:2.5px;"/><path id="uuid-d1ec4486-b6f9-498c-b9f2-4b47a8c55b0a" d="m197.06,442.55c3.19-4.33,7.09-8.22,9.58-12.99,2.75-5.25,3.83-11.21,5.75-16.82" style="fill:none; stroke:#55a; stroke-linecap:round; stroke-linejoin:round; stroke-width:2.5px;"/><path id="uuid-b4a6c9ac-685f-45c6-bd69-e3c5ef2073eb" d="m195.99,435.95c2.06-3.19,4.57-6.14,6.17-9.58,1.73-3.7,2.41-7.81,3.62-11.71" style="fill:none; stroke:#55a; stroke-linecap:round; stroke-linejoin:round; stroke-width:2.5px;"/><path id="uuid-eafc6813-f8dc-4ce6-ac6a-50ed2446742e" d="m194.5,428.5c1.06-1.77,2.36-3.43,3.19-5.32.7-1.58.99-2.75,1.49-4.95" style="fill:none; stroke:#55a; stroke-linecap:round; stroke-linejoin:round; stroke-width:2.5px;"/><path id="uuid-37ada22e-b5de-44ad-8680-54cb725ca56b" d="m208.77,413.63c-6.61-3.73-14.67-7.61-22.58-9.83-6.55-1.84-13.43-2.55-20.23-2.77-7.75-.24-15.56.42-23.21,1.7-5.21.87-10.42,2.1-15.33,4.05-4.43,1.76-8.37,4.54-12.56,6.81" style="fill:none; stroke:#55a; stroke-linecap:round; stroke-linejoin:round; stroke-width:2.5px;"/><path id="uuid-256b181c-21f6-462b-84d9-862ba5c1647b" d="m219.41,408.7c-5.82-3.34-11.31-7.33-17.46-10.01-6.13-2.67-12.63-4.53-19.16-5.96-6.15-1.35-12.44-2.33-18.74-2.43-6.99-.12-13.98.84-20.87,2.01-5.62.95-11.18,2.33-16.61,4.05-3.71,1.17-7.24,2.84-10.86,4.26" style="fill:none; stroke:#000; stroke-linecap:round; stroke-linejoin:round; stroke-width:2.5px;"/><path id="uuid-ae53c608-3076-4121-9418-66a37282a5a4" d="m224.95,405.5c-5.04-2.98-9.86-6.36-15.12-8.94-5.14-2.53-10.48-4.72-15.97-6.39-6.53-1.98-13.24-3.45-20.01-4.26-7.19-.86-14.49-1.15-21.72-.64-5.82.41-11.58,1.58-17.25,2.98-7.17,1.77-14.05,4.54-21.08,6.81" style="fill:none; stroke:#000; stroke-linecap:round; stroke-linejoin:round; stroke-width:2.5px;"/><path id="uuid-e36b7f24-861f-4b19-aa71-88bc65311e65" d="m232.19,402.52c-5.68-3.34-11.08-7.18-17.03-10.01-6.63-3.15-13.6-5.63-20.65-7.67-7.04-2.02-14.24-3.59-21.5-4.47-5.71-.69-11.5-.94-17.25-.64-6.44.34-12.88,1.31-19.16,2.77-4.5,1.04-8.85,2.68-13.2,4.26-3.74,1.36-7.38,2.98-11.07,4.47" style="fill:none; stroke:#000; stroke-linecap:round; stroke-linejoin:round; stroke-width:2.5px;"/><path id="uuid-f1f7d032-5fe5-4158-8502-2fe6ec1c4c0a" d="m258.8,387.83c-6.74-4.76-13.17-9.99-20.23-14.27-7.85-4.75-15.92-9.29-24.49-12.56-7.68-2.94-15.77-4.74-23.85-6.25-7.65-1.44-15.43-2.31-23.21-2.69-8.3-.41-16.68-.66-24.91.43-8.12,1.07-16.03,3.51-23.85,5.96-7.46,2.34-14.85,4.99-21.93,8.3-4.06,1.9-7.81,4.4-11.71,6.6" style="fill:none; stroke:#000; stroke-linecap:round; stroke-linejoin:round; stroke-width:2.5px;"/><path id="uuid-3deabbc8-0ed5-40a0-9d06-8f930d93b78b" d="m233.27,403.09l12.68-6.59-7.25-5.25-7.18,10.09,1.75,1.75Z"/><path id="uuid-481464a9-85e4-46b7-9db6-7408a78651a8" d="m222.03,395.59l6.67-11.84-13.25-6.25-5.75,11.25,12.33,6.84Z"/><path id="uuid-aa283252-ac9a-44ed-a71f-252d82437a4d" d="m197.45,385l3.92-12.09-13.5-4.25-3.42,12.94,13,3.41Z"/><path id="uuid-e49ad647-68ab-4aea-a9d8-2083ab7080fd" d="m172.2,379.25l1-12.59-14.42-.51.67,13.6,12.75-.5Z"/><path id="uuid-57869178-294d-4a2a-950d-41ea94241922" d="m146.7,379.5l-1.16-12.84-14.09,2.75,2.91,13.18,12.34-3.09Z"/><path id="uuid-2b365f7b-d4d5-4ef1-b0fc-e88e23b81928" d="m122.04,386.68l-5.29-13.4-12.03,4.57,2.99,7.4,4.5,6.25,9.84-4.82Z"/><path id="uuid-a456f1c8-1b1b-4bdd-8892-f646ec48e0cc" d="m246.95,380.5l-8,10.5-10.25-7,6.42-12.09,11.83,8.59Z"/><path id="uuid-e72f7d3c-3a62-4240-992a-d3f52e3f23b8" d="m221.71,364.32l-5.76,13.52-14.34-4.59,4.35-14,15.76,5.07Z"/><path id="uuid-c8aa7d62-4260-4d74-ba81-a1541e6560d6" d="m190.78,354.89l-2.83,13.61-14.84-1.92,1.17-13.67,16.51,1.98Z"/><path id="uuid-730ef46f-6aed-481e-bac6-7beb9998097a" d="m158.95,352.5l.25,14.5h-14l-1.5-13.5,15.5-2-.25,1Z"/><path id="uuid-c32a91fa-166c-4a42-a728-ca6efca76b1d" d="m128.45,356.75l3.17,12.92-14.77,4.34-4.34-12.85,15.68-5.41.25,1Z"/><path id="uuid-4f6fe00a-ddcb-4ce4-a957-9c2c312fc5ef" d="m99.7,366.5l5.25,11.75-3,1-15.75-7,13.5-5.75Z"/><path id="uuid-ddd2c737-5686-47f1-b829-2a6e10d58373" d="m251.04,391.57l-.34-4.57-5.58.99,1.08,5.01,4.84-1.43Z" style="fill:none; stroke:#000; stroke-linecap:round; stroke-linejoin:round; stroke-width:2.5px;"/><path id="uuid-4b9dc069-e886-4a6f-9d01-5b71c903d52f" d="m232.95,395.25l-4.75,1.25-.59-4.84,4.84-1.75.5,5.34Z" style="fill:none; stroke:#000; stroke-linecap:round; stroke-linejoin:round; stroke-width:2.5px;"/><path id="uuid-e5fa6cef-57b5-4eb3-b124-f3836d881e2d" d="m228.95,376l-5.25,2.5-1.25-4.75,4-2.25,2.5,4.5Z" style="fill:none; stroke:#000; stroke-linecap:round; stroke-linejoin:round; stroke-width:2.5px;"/><path id="uuid-18b5df41-dcfa-4cc6-b57f-4345fc71ce2a" d="m208.95,382.75l-5,1.75-1.42-4.84,4.67-2.16,1.75,5.25Z" style="fill:none; stroke:#000; stroke-linecap:round; stroke-linejoin:round; stroke-width:2.5px;"/><path id="uuid-ab8e886c-9229-4a14-af94-df90cc18e5ba" d="m199.95,365.25l-2.75-4.75-4,3.25,3,4.5,3.75-3Z" style="fill:none; stroke:#000; stroke-linecap:round; stroke-linejoin:round; stroke-width:2.5px;"/><path id="uuid-e038da25-f703-40c8-b9e6-e4b17fa9136d" d="m182.89,374.53l-3.99,3.25-2.98-3.03,4-4,2.97,3.78Z" style="fill:none; stroke:#000; stroke-linecap:round; stroke-linejoin:round; stroke-width:2.5px;"/><path id="uuid-834bda24-235c-4535-8456-50e61e566a3f" d="m170.2,360.08l-3.75,3.67-3-4.75,3.75-2.25,3,3.33Z" style="fill:none; stroke:#000; stroke-linecap:round; stroke-linejoin:round; stroke-width:2.5px;"/><path id="uuid-af646b6a-c267-4ed7-8400-00b2b32435b7" d="m156.23,372.67l-3.17,3.75-3.33-3.41,3-3,3.51,2.66Z" style="fill:none; stroke:#000; stroke-linecap:round; stroke-linejoin:round; stroke-width:2.5px;"/><path id="uuid-e7200150-9c68-4671-b752-cd10caa94389" d="m140.79,361.74l-3.59,4.01-3.75-3,2.56-4.67,4.77,3.66Z" style="fill:none; stroke:#000; stroke-linecap:round; stroke-linejoin:round; stroke-width:2.5px;"/><path id="uuid-c4c491a6-6bc1-4809-ad3f-ca6411796adf" d="m129.7,376.75l-2.5,4.5-4.25-1.75,2-4.75,4.75,2Z" style="fill:none; stroke:#000; stroke-linecap:round; stroke-linejoin:round; stroke-width:2.5px;"/><path id="uuid-41415c2c-0a83-4ff9-bb9c-d14b0e061997" d="m112.2,368.75l-2.25,4.75-4.75-2.5,2-4.25,5,2Z" style="fill:none; stroke:#000; stroke-linecap:round; stroke-linejoin:round; stroke-width:2.5px;"/><path id="uuid-d986916c-1d8d-4afe-beef-74a5ad2ec8d8" d="m263.45,384.25c-7.67-5.67-14.27-11.27-22-16-5.5-3.37-11.34-6.18-17.25-8.75-6.67-2.9-13.5-5.52-20.5-7.5-6.87-1.94-13.93-3.21-21-4.25-7.15-1.05-14.36-1.94-21.59-2.01-9.03-.09-18.14.34-27.02,1.97-9.2,1.69-18.13,4.76-26.89,8.04-8.72,3.27-17.27,7.39-25.44,11.56" style="fill:none; stroke:#000; stroke-linecap:round; stroke-linejoin:round; stroke-width:2.5px;"/><path id="uuid-325a1891-c81b-4cff-961b-6f3629eeab88" d="m210.2,409.25c0-.55.45-1,1-1s1,.45,1,1-.45,1-1,1-1-.45-1-1Z" style="fill:none; stroke:#000; stroke-linecap:round; stroke-linejoin:round; stroke-width:2.5px;"/><path id="uuid-278f9f05-77c8-46c4-9283-514541ec8f0a" d="m203.45,405.5c0-.55.45-1,1-1s1,.45,1,1-.45,1-1,1-1-.45-1-1Z" style="fill:none; stroke:#000; stroke-linecap:round; stroke-linejoin:round; stroke-width:2.5px;"/><path id="uuid-c160253a-27a3-48dc-a9d4-ff4743005fc2" d="m196.95,402.5c0-.55.45-1,1-1s1,.45,1,1-.45,1-1,1-1-.45-1-1Z" style="fill:none; stroke:#000; stroke-linecap:round; stroke-linejoin:round; stroke-width:2.5px;"/><path id="uuid-c5a311b5-72f9-4764-8b3a-0ca3d1b0abc6" d="m190.45,400.75c0-.55.45-1,1-1s1,.45,1,1-.45,1-1,1-1-.45-1-1Z" style="fill:none; stroke:#000; stroke-linecap:round; stroke-linejoin:round; stroke-width:2.5px;"/><path id="uuid-e714a730-4006-48bf-aebf-ca6a6a8dd572" d="m182.95,398.5c0-.55.45-1,1-1s1,.45,1,1-.45,1-1,1-1-.45-1-1Z" style="fill:none; stroke:#000; stroke-linecap:round; stroke-linejoin:round; stroke-width:2.5px;"/><path id="uuid-263bb923-fa4b-464f-a7e4-a5b433b8a9f7" d="m176.2,396.75c0-.55.45-1,1-1s1,.45,1,1-.45,1-1,1-1-.45-1-1Z" style="fill:none; stroke:#000; stroke-linecap:round; stroke-linejoin:round; stroke-width:2.5px;"/><path id="uuid-5db78750-77a1-4000-973c-be1cf187d2ac" d="m168.95,396.25c0-.55.45-1,1-1s1,.45,1,1-.45,1-1,1-1-.45-1-1Z" style="fill:none; stroke:#000; stroke-linecap:round; stroke-linejoin:round; stroke-width:2.5px;"/><path id="uuid-0b890f2c-7c23-4b2d-980d-76fb48cc5cd9" d="m161.65,395.56c0-.55.45-1,1-1s1,.45,1,1-.45,1-1,1-1-.45-1-1Z" style="fill:none; stroke:#000; stroke-linecap:round; stroke-linejoin:round; stroke-width:2.5px;"/><path id="uuid-24c0ec73-0308-4e7e-ab2a-ad489d3e7eb7" d="m154.76,395.93c0-.55.45-1,1-1s1,.45,1,1-.45,1-1,1-1-.45-1-1Z" style="fill:none; stroke:#000; stroke-linecap:round; stroke-linejoin:round; stroke-width:2.5px;"/><path id="uuid-44d68ff0-1b49-45ff-a2dc-157a49ba5b52" d="m147.45,397.25c0-.55.45-1,1-1s1,.45,1,1-.45,1-1,1-1-.45-1-1Z" style="fill:none; stroke:#000; stroke-linecap:round; stroke-linejoin:round; stroke-width:2.5px;"/><path id="uuid-895f96b1-5e4b-4a37-bc8e-6ae456007153" d="m139.95,398.25c0-.55.45-1,1-1s1,.45,1,1-.45,1-1,1-1-.45-1-1Z" style="fill:none; stroke:#000; stroke-linecap:round; stroke-linejoin:round; stroke-width:2.5px;"/><path id="uuid-93f1dec8-d329-4514-a919-33c4f5f060b6" d="m132.97,400.09c0-.55.45-1,1-1s1,.45,1,1-.45,1-1,1-1-.45-1-1Z" style="fill:none; stroke:#000; stroke-linecap:round; stroke-linejoin:round; stroke-width:2.5px;"/><path id="uuid-60973d21-e5a4-4919-bfb3-a50f2eecdf6f" d="m126.7,401.75c0-.55.45-1,1-1s1,.45,1,1-.45,1-1,1-1-.45-1-1Z" style="fill:none; stroke:#000; stroke-linecap:round; stroke-linejoin:round; stroke-width:2.5px;"/><path id="uuid-e001fa00-a83b-4f7e-a7fe-4b2e2582b334" d="m121.45,404.25c0-.55.45-1,1-1s1,.45,1,1-.45,1-1,1-1-.45-1-1Z" style="fill:none; stroke:#000; stroke-linecap:round; stroke-linejoin:round; stroke-width:2.5px;"/><path id="uuid-01fba6fe-692c-4d51-b99a-447c2f3585b5" d="m115.95,406c0-.55.45-1,1-1s1,.45,1,1-.45,1-1,1-1-.45-1-1Z" style="fill:none; stroke:#000; stroke-linecap:round; stroke-linejoin:round; stroke-width:2.5px;"/><g id="uuid-27e97757-971e-4583-9927-ae2e3b3ffd98"><path id="uuid-8437372d-f836-4cd2-be50-abedc88daf5a" d="m45.88,334.23s1.37-.53,2.06-.39c.63.13,1.22.55,1.61,1.06.37.5.55,1.8.55,1.8" style="fill:none; stroke:#55a; stroke-linecap:round; stroke-linejoin:round; stroke-width:2px;"/><path id="uuid-3dd44f09-e082-4119-a4d9-b6c0d8c6e0e8" d="m43.46,335.95s-3.38.85-4.59-.08c-1.28-.98-1.63-3.06-1.3-4.62.51-2.38,3.06-3.8,4.67-5.61.98-1.1,1.78-2.52,3.04-3.21,1.24-.68,2.84-1.3,4.07-.72.97.46,1.54,1.74,1.68,2.88.12,1.01-.04,2.37-.83,2.97-1.06.81-2.68.37-3.83-.18-.62-.29-1.12-.9-1.41-1.55-.3-.67-.26-2.24-.26-2.24" style="fill:none; stroke:#55a; stroke-linecap:round; stroke-linejoin:round; stroke-width:2px;"/><path id="uuid-48f03e3e-2904-44e0-88f2-370cc79052ff" d="m36.92,331.65s-2.13-.93-2.77-1.83c-.65-.9-.98-2.12-.83-3.22.24-1.78,1.53-3.31,2.7-4.68,1.36-1.61,3.08-3.01,4.9-4.03,1.35-.76,2.83-1.37,4.33-1.5,1.13-.1,2.66-.42,3.34.53.59.82.27,2.25-.29,3.11-.42.65-1.26.86-1.98,1.02-.97.22-2.19.53-2.96-.13-.69-.59-.7-2.76-.7-2.76" style="fill:none; stroke:#55a; stroke-linecap:round; stroke-linejoin:round; stroke-width:2px;"/><path id="uuid-ba61699e-ffe4-4ee0-ae16-e34371a6375c" d="m34.66,322.56s-2.58-2.1-2.65-3.57c-.05-1,.86-1.84,1.56-2.56,1.78-1.83,4.15-3.03,6.44-4.18,1.41-.71,2.85-1.77,4.43-1.66.74.05,1.63.39,1.95,1.05.29.61-.04,1.4-.39,1.98-.64,1.09-1.64,2.6-2.91,2.45-.79-.09-1.17-1.16-1.43-1.91-.26-.78-.03-2.47-.03-2.47" style="fill:none; stroke:#55a; stroke-linecap:round; stroke-linejoin:round; stroke-width:2px;"/><path id="uuid-137c32e9-0af5-4d89-8cac-ae7d057aa8db" d="m32.42,315.72s-1-1.74-.91-2.68c.14-1.53,1.16-2.93,2.24-4.03,1.4-1.42,3.27-2.43,5.19-3,1-.29,2.33-.82,3.12-.16.98.82,1.05,2.66.47,3.79-.51.98-1.83,1.74-2.92,1.57-.83-.12-1.36-1.05-1.75-1.78-.4-.74-.51-2.45-.51-2.45" style="fill:none; stroke:#55a; stroke-linecap:round; stroke-linejoin:round; stroke-width:2px;"/><path id="uuid-ff3e2034-d30e-4f84-b39c-b6031aebe8a7" d="m40.3,305.46s.69-1.16,1.16-1.61c.45-.42,1-.69,1.54-.95,1.07-.51,2.2-.89,3.35-1.18,3.55-.9,7.18-1.77,10.84-1.72,2.63.04,5.61-.05,7.76,1.47,1.87,1.32,3.05,3.68,3.45,5.93.69,3.89-.8,7.93-2.09,11.66-1.09,3.15-2.75,6.12-4.7,8.83-1.69,2.34-3.73,4.44-5.96,6.26-1.69,1.38-3.53,2.66-5.55,3.47-1.16.46-2.47,1.11-3.66.75-.97-.3-2.05-1.16-2.11-2.17-.13-2.14,2.44-3.55,3.91-5.11.85-.9,1.82-1.67,2.8-2.42,1.06-.82,2.29-2.18,3.29-2.3.65-2.22-.8-1.69-.89-6.08-.08-4.11,1.55-6.8,3.38-8.99" style="fill:none; stroke:#55a; stroke-linecap:round; stroke-linejoin:round; stroke-width:2px;"/></g><path id="uuid-3dcc597e-f9e0-4dff-a85d-aab03414a287" d="m109.97,422.32c1.56-4.12,4.18-7.98,4.68-12.35.66-5.76-.19-11.86-2.34-17.25-1.53-3.82-4.32-7.1-7.24-10.01-2.6-2.58-5.62-4.84-8.94-6.39-3.39-1.57-7.24-1.85-10.86-2.77" style="fill:none; stroke:#55a; stroke-linecap:round; stroke-linejoin:round; stroke-width:2.5px;"/><path id="uuid-6071fe17-6794-4187-ab47-1ffe99028f5c" d="m190.24,420.19c29.43-8.65,51.29-20.05,74.05-35.63,3.96-2.71,7.92-5.44,11.73-8.35,17.94-13.7,35.23-27.2,52.43-42.86" style="fill:none; stroke:#55a; stroke-linecap:round; stroke-linejoin:round; stroke-width:2px;"/><path id="uuid-299d72e7-36e3-4c5b-8f2c-a7ba44b48646" d="m151.97,509.25l-70.6-141.39-18.12,8.43,76.53,132.96h12.18Z"/><path id="uuid-0d7dd8ab-8bef-441c-b51e-096e46da5b82" d="m297.99,194.77l-3.89,4.95-5.66-2.83,4.24-5.3-5.66-3.89-9.19,13.08,10.96,6.72-5.66,10.96-5.66-1.77,2.47-5.3-6.36-2.47-4.6,15.2,12.37,3.54-3.54,16.26h-6.36l1.77-9.9-6.01-1.06-2.12,17.68h10.96v16.26h-6.01l.35-8.49-6.72.71-1.06,15.56,11.31,1.77-1.06,16.26-7.07-1.06.71-7.78-6.36-1.06-3.89,15.2,12.37,5.3-8.13,15.2-5.66-2.83,3.18-7.07-6.01-1.77-6.72,10.25,9.19,8.84-10.96,12.37-5.66-4.6,5.66-4.6-4.6-5.66-11.31,10.25,8.13,11.67-5.02,2.37m-7.49-4.13l2.2-.88-3.52-5.28-6.17,3.38" style="fill:none; stroke:#5456aa; stroke-linecap:round; stroke-linejoin:round; stroke-width:2px;"/><path id="uuid-4914fa4d-cf4d-4410-ba24-b63fc5ae7299" d="m209.6,337.95c6.95-4.6,14.47-8.44,20.86-13.79,5.24-4.39,10.27-9.21,14.14-14.85,2.8-4.09,4.68-8.77,6.36-13.44,2.43-6.75,4.25-13.76,5.3-20.86.76-5.13.25-10.39.71-15.56.56-6.28,1.66-12.49,2.47-18.74.6-4.6.88-9.24,1.77-13.79.89-4.55,2.04-9.05,3.54-13.44,1.95-5.7,4.28-11.28,7.07-16.62,1.74-3.33,3.61-6.65,6.01-9.55,1.54-1.86,3.54-3.3,5.3-4.95" style="fill:none; stroke:#5456aa; stroke-linecap:round; stroke-linejoin:round; stroke-width:2px;"/><g id="uuid-1e743c62-adbf-4670-8538-024567882b4a"><path id="uuid-5fb78e49-d6b7-42aa-96df-d593918791e1" d="m294.81,339.01l.35,6.36-6.36-.35-3.54,6.01-4.6-6.36h-6.36l.71-6.36-5.3-3.18,6.01-4.6-.35-5.66,4.95.71,4.24-6.36,4.95,7.42,4.6-1.77v6.01l6.72,3.89-6.01,4.24Z" style="fill:#ffff57;"/><path id="uuid-d451203b-7589-40a8-9ba6-7c7d8e27528b" d="m290.36,335.46l-5.41,5.08-5.12-5.52,5.18-4.9,5.34,5.34Z" style="fill:#f55; stroke:#000; stroke-linecap:round; stroke-linejoin:round; stroke-width:2px;"/></g><path id="uuid-50d2bbc3-a405-4aba-9db6-af5944387548" d="m198.81,335.98s8.08-1.71,11.86-3.33c4.66-2,8.93-4.86,13.08-7.78,2.12-1.49,4.15-3.14,6.01-4.95,1.67-1.63,4.6-5.3,4.6-5.3,0,0-2.87-3.15-4.25-4.77-1.7-2.02-3.48-3.99-4.95-6.19-1.11-1.65-2.9-5.22-2.9-5.22,0,0-6.61,1.67-9.97,1.53-3.34-.14-6.55-1.39-9.75-2.33-5.15-1.51-15.2-5.3-15.2-5.3l11.48,43.63Z" style="fill:#f55;"/><path id="uuid-018f80e5-759b-4f9e-ba73-79e20bec84e5" d="m249.56,284.59s-3.43-4.14-4.21-6.65c-.7-2.24-.9-4.77-.29-7.04.5-1.89,1.84-3.5,3.12-4.98,1.1-1.28,3.86-3.28,3.86-3.28,0,0-.8,6.88-1.19,10.42-.43,3.84-.05,7.68-1.28,11.52Z" style="fill:#f55;"/><path id="uuid-574a3167-e786-4366-b111-ee9de5336489" d="m244.96,294.47s-1.2,4.04-2.47,5.66c-1.1,1.39-2.49,2.93-4.24,3.18-1,.14-2.25-.23-2.83-1.06-.47-.68-.23-1.68,0-2.47.31-1.07,1.02-2.01,1.77-2.83.8-.87,1.86-1.45,2.83-2.12.92-.63,2.83-1.77,2.83-1.77l2.12,1.41Z" style="fill:#fff;"/><path id="uuid-cc5756bb-c3b0-42a4-8c28-1fb645ab4c0a" d="m249.23,284.28l-1.8,6.65s-2.55-3.42-3.54-5.3c-1.35-2.58-2.68-5.27-3.18-8.13-.52-2.94-.46-6.04.22-8.94.48-2.03,1.51-3.93,2.64-5.68,1.13-1.74,2.44-3.42,4.08-4.7,1.53-1.19,5.18-2.6,5.18-2.6l-1.16,7.07s-3.77,3.19-4.95,5.3c-1.08,1.92-1.69,4.16-1.77,6.36-.07,1.8.36,3.64,1.06,5.3.74,1.74,3.21,4.67,3.21,4.67h0Z" style="fill:#ff5;"/><path id="uuid-db788dd5-1b03-401d-8f84-bb09d17958cc" d="m220.32,294.27s-6.71.69-10.01.2c-3.8-.56-7.33-2.3-10.96-3.54-2.96-1.01-5.98-1.9-8.84-3.18-4.28-1.92-8.36-4.29-12.37-6.72-2.91-1.76-5.61-3.85-8.49-5.66-2.55-1.6-5.11-3.21-7.78-4.6-2.53-1.32-5.03-2.79-7.78-3.54-2.29-.62-4.71-.59-7.07-.71-2.17-.11-6.51,0-6.51,0l-.27-9.37,4.3,4.42,1.06-3.89,7.78,6.36,1.41-3.54,8.13,8.13,2.12-3.89,7.78,9.9,2.99-3.61,6.91,7.86,2.12-3.18,8.13,8.49,1.41-3.18,9.9,7.07.71-3.18,9.19,5.3-.35-2.83,5.12,1.49,1.36,5.38Z" style="stroke:#000; stroke-linecap:round; stroke-linejoin:round;"/><path id="uuid-5de749e6-327f-4c59-a4c6-fb0a259ad538" d="m123.81,344.67l-5.17-.66.28,6.51,4.54-2.13.35-3.71Z" style="fill:#f55;"/><path id="uuid-41070712-032f-4f49-a904-fdec2fe52b97" d="m266.88,349.62c.13,2.32,3.92,4.32,2.83,6.36-1.43,2.69-7.29,4.09-9.01,1.58-.81-1.18,2.08-2.26,2.21-3.68.11-1.26-1.34-3.55-1.34-3.55h-12.02l1.06-3.89h11.31s1.45-1.38,1.5-2.29c.07-1.3-2.66-2.54-1.76-3.47,1.79-1.84,5.94.93,6.97,3.29.79,1.81-1.88,3.68-1.77,5.66h0Z" style="stroke:#ff5; stroke-linecap:round; stroke-linejoin:round; stroke-width:2px;"/><path id="uuid-7e17cb99-ce59-4ba6-9802-688fecb44085" d="m319.21,333.71s-5.5-.23-7.07-2.12c-1.44-1.73-.71-6.72-.71-6.72,0,0-2.71,2.5-4.24,2.12-1.56-.38-2.87-2.29-2.83-3.89.03-1.51,1.44-2.93,2.83-3.54,1.41-.61,4.6.35,4.6.35,0,0-2.1-5.81-4.64-6.98-2.36-1.08-5.38-.13-7.74.97-2.04.95-2.76,4.09-4.95,4.6-1.2.28-3.03.06-3.54-1.06-.9-2.02,2.59-3.81,2.83-6.01.23-2.13.13-4.79-1.41-6.28-.95-.92-2.58-.9-3.89-.75-.85.1-2.35,1.06-2.35,1.06,0,0,1.67,3.87.58,5.26-1.1,1.4-3.79,1.65-5.3.71-1.58-.99-2.2-3.49-1.77-5.3.3-1.27,2.77-2.77,2.77-2.77l-1.36-7.48s3.28,2.74,5.25,3.47c1.96.73,4.25.1,6.21.79,1.9.67,3.89,1.6,5.15,3.17,1.34,1.65,2.12,6.01,2.12,6.01,0,0,4.64-2.52,7.07-2.12,3,.5,5.51,2.94,7.42,5.3,1.31,1.63,2.19,3.68,2.49,5.75.3,2.08-.65,4.17-.76,6.27-.06,1.18-.26,2.4.04,3.54.56,2.09,3.18,5.66,3.18,5.66Z" style="stroke:#ff5; stroke-linecap:round; stroke-linejoin:round; stroke-width:2px;"/><path id="uuid-8ce6b647-7a53-4ff2-a126-69acfc3e95b4" d="m322.39,259.82s-3.96.46-5.3-.71c-1.71-1.49-1.84-6.56-1.84-6.56,0,0-1.35,3.54-2.91,3.74-1.41.18-3.31-1.15-3.39-2.57-.1-1.8,3.93-3.7,3.93-3.7,0,0-2.31-3.41-5.58.88-.91,1.19-1.41,2.69-1.76,4.15-.38,1.55-.37,4.76-.37,4.76l-4.61-.08s1.12-3.69.98-5.57c-.11-1.49-.35-3.2-1.41-4.24-.93-.91-3.74-1.13-3.74-1.13,0,0,.47,1.51.2,2.19-.52,1.32-1.76,2.8-3.18,2.83-1.26.02-2.61-1.19-2.93-2.41-.26-1.01.47-2.11,1.16-2.89.27-.3,1.07-.59,1.07-.59,0,0-2.65-1.7-3.54-2.95-.96-1.34-1.78-4.62-1.78-4.62,0,0,4.24,3.05,6.73,3.56,1.41.29,2.91-.68,4.32-.35,1.57.36,3.09,1.27,4.17,2.47.77.87,1.41,3.18,1.41,3.18,0,0,2.49-3.2,4.25-4.05,1.5-.73,3.32-1.05,4.95-.7,1.63.34,3.14,1.39,4.23,2.64.76.87,1.02,2.08,1.4,3.17.32.92.54,1.87.73,2.82.18.93.03,1.93.35,2.83.52,1.45,2.47,3.89,2.47,3.89Z" style="stroke:#ff5; stroke-linecap:round; stroke-linejoin:round; stroke-width:2px;"/><path id="uuid-a0a76aa8-7fc3-4fe3-b130-7c3fed90fd17" d="m273.24,376.49c-5.07-4.12-9.88-8.59-15.2-12.37-6.86-4.88-14.14-9.16-21.51-13.25-4.75-2.64-9.63-5.04-14.59-7.25-3.98-1.77-8.02-3.43-12.15-4.81-3.54-1.18-7.2-1.98-10.8-2.97" style="fill:none; stroke:#5456aa; stroke-linecap:round; stroke-linejoin:round; stroke-width:2px;"/><path id="uuid-f2a0390f-b6e4-40d6-8c10-41c9b2d7ac47" d="m186.96,346.84l-14.48-8.88" style="fill:none; stroke:#5456aa; stroke-linecap:round; stroke-linejoin:round; stroke-width:2px;"/><path id="uuid-ccbff867-ea64-4528-8338-ac36c77ef65f" d="m186.45,340.25l-13-8" style="fill:none; stroke:#5456aa; stroke-linecap:round; stroke-linejoin:round; stroke-width:2px;"/><path id="uuid-74a32ea1-3691-4f13-90a6-950de6396f06" d="m185.7,331.5l-12.25-6.25" style="fill:none; stroke:#5456aa; stroke-linecap:round; stroke-linejoin:round; stroke-width:2px;"/><path id="uuid-ce41cd56-ca08-4f35-bdb0-53ccb27da103" d="m183.95,324l-11.75-6.5" style="fill:none; stroke:#5456aa; stroke-linecap:round; stroke-linejoin:round; stroke-width:2px;"/><path id="uuid-a6f22366-ceaa-4b83-af81-b68c33e5b05a" d="m182.45,317.25l-10.25-6.5" style="fill:none; stroke:#5456aa; stroke-linecap:round; stroke-linejoin:round; stroke-width:2px;"/><path id="uuid-ca807091-31c0-4ce2-b69e-d82d0a580375" d="m180.95,309.25l-9.5-6" style="fill:none; stroke:#5456aa; stroke-linecap:round; stroke-linejoin:round; stroke-width:2px;"/><path id="uuid-ad0da396-16d2-48d1-8b1e-590ac9cdfea2" d="m179.7,301.75l-7.75-4" style="fill:none; stroke:#5456aa; stroke-linecap:round; stroke-linejoin:round; stroke-width:2px;"/><path id="uuid-b986a5fe-c2cd-4e27-9de8-4632af0d44e5" d="m178.7,294.25l-7.25-4.5" style="fill:none; stroke:#5456aa; stroke-linecap:round; stroke-linejoin:round; stroke-width:2px;"/><path id="uuid-6825a785-3b53-4282-ac6e-58d0d7486fe9" d="m146.07,341.92l12.73-8.13" style="fill:none; stroke:#5456aa; stroke-linecap:round; stroke-linejoin:round; stroke-width:2px;"/><path id="uuid-21d29e41-77ae-4b13-a996-13c9c6b5ce01" d="m146.83,335.08l11-7" style="fill:none; stroke:#5456aa; stroke-linecap:round; stroke-linejoin:round; stroke-width:2px;"/><path id="uuid-44219d76-c08f-4e92-a50b-e797f3141e69" d="m147.83,326.58l10-5.5" style="fill:none; stroke:#5456aa; stroke-linecap:round; stroke-linejoin:round; stroke-width:2px;"/><path id="uuid-9f231d28-21df-4353-bfc3-d2d0d7e0016f" d="m147.33,319.33l11.25-6" style="fill:none; stroke:#5456aa; stroke-linecap:round; stroke-linejoin:round; stroke-width:2px;"/><path id="uuid-c63b09db-88be-4bd1-a6de-9f19b1104bff" d="m147.83,312.58l10.75-5.75" style="fill:none; stroke:#5456aa; stroke-linecap:round; stroke-linejoin:round; stroke-width:2px;"/><path id="uuid-b1ab4d5b-b1ce-4dd4-8123-c3f5a27da0f2" d="m148.33,305.58l11.5-6.5" style="fill:none; stroke:#5456aa; stroke-linecap:round; stroke-linejoin:round; stroke-width:2px;"/><path id="uuid-e6c68cf9-a396-46b0-9670-a5db65f1d377" d="m149.58,298.83l9.75-5.25" style="fill:none; stroke:#5456aa; stroke-linecap:round; stroke-linejoin:round; stroke-width:2px;"/><path id="uuid-9c05f08e-120b-4d68-b05d-6a13a8fa2cab" d="m150.58,291.33l9.25-5.75" style="fill:none; stroke:#5456aa; stroke-linecap:round; stroke-linejoin:round; stroke-width:2px;"/><path id="uuid-1f87e7e1-5028-4f3f-8b08-e660c49a36a6" d="m170.95,282.75l6.8,4.87" style="fill:none; stroke:#5456aa; stroke-linecap:round; stroke-linejoin:round; stroke-width:2px;"/><path id="uuid-3e702422-ecac-42aa-bb79-bf7a95c1f2d7" d="m152.2,282.5l6.75-3.25" style="fill:none; stroke:#5456aa; stroke-linecap:round; stroke-linejoin:round; stroke-width:2px;"/><path id="uuid-9099adc7-3a4a-44e9-8cde-07c82eca616f" d="m158.45,276.46l-5.53-2.15" style="fill:none; stroke:#5456aa; stroke-linecap:round; stroke-linejoin:round; stroke-width:2px;"/><g id="uuid-36763acb-aa21-466c-995f-0573c00a5a36"><path id="uuid-c5ebca8d-da3d-4d26-afd7-4d6ad4744876" d="m55.95,405.25c.83,2.17,3.28,4.31,2.5,6.5-.9,2.53-4.32,4.18-7,4-2.73-.19-5.41-2.49-6.5-5-1.07-2.46-.13-4.63.75-8-3.01,1.85-4.26,2.3-6.25,1.5-3.13-1.25-5.72-5.13-5.5-8.5.18-2.83,2.74-5.85,5.5-6.5,2.47-.58,4.67,2,7,3-.5-3-2.63-6.18-1.5-9,.93-2.32,3.5-4.52,6-4.5,2.73.02,5.5,2.46,6.5,5,1.11,2.83-1,6-1.5,9,1.83-1.33,3.24-4.21,5.5-4,3.64.34,7.26,4.35,7.5,8,.19,2.86-2.58,5.46-5,7-2.29,1.46-5.33,1-8,1.5Z" style="fill:#ff5; stroke:#5456aa; stroke-linecap:round; stroke-linejoin:round; stroke-width:2px;"/><path id="uuid-9c560160-36f2-4d62-baec-ecece21b2be3" d="m61.95,404.25l3.5,8.5-6-1.5-3-5.5,5.5-1.5Z" style="fill:#55a; stroke:#5456aa; stroke-linecap:round; stroke-linejoin:round; stroke-width:2px;"/><path id="uuid-626ed48b-e936-48d4-a3b4-dfd571a559ac" d="m46.45,405.25l-2.5,5.5-6.5,1,2.5-6.5h6.5Z" style="fill:#55a; stroke:#5456aa; stroke-linecap:round; stroke-linejoin:round; stroke-width:2px;"/><path id="uuid-9f8bbbcd-937f-4a15-9487-20008edd715b" d="m44.95,390.25l-.5-6-5-.5,1,5.5,4.5,1Z" style="fill:#55a; stroke:#5456aa; stroke-linecap:round; stroke-linejoin:round; stroke-width:2px;"/><path id="uuid-c52a43a5-75fd-4e94-98e4-561b1b964529" d="m60.95,390.25l2-7-4.5,1.5-2.5,8.5,5-3Z" style="fill:#55a; stroke:#5456aa; stroke-linecap:round; stroke-linejoin:round; stroke-width:2px;"/><path id="uuid-6639fc2a-dd1f-4546-af68-97342f7b245e" d="m53.45,378.75l-1.5-40.5-3.5,2,1.5,38.25,3.5.25Z" style="fill:#ff5; stroke:#5456aa; stroke-linecap:round; stroke-linejoin:round; stroke-width:2px;"/><path id="uuid-1d613078-eb77-4820-b0ab-f504785363fa" d="m46.95,347.75c-.33,5.51-1.02,11.2-3.25,16.25-2.22,5.02-6.25,9.42-9.75,13.25-.17-5.5-.25-11.58.75-17.25.62-3.53,1.39-7.19,3.25-10.25,2.08-3.42,5.67-5.67,8.5-8.5.17,2.17.63,4.33.5,6.5Z" style="fill:#ff5; stroke:#5456aa; stroke-linecap:round; stroke-linejoin:round; stroke-width:2px;"/><path id="uuid-e6d4349a-1b25-42b1-9d4a-cc4b0c82bb7f" d="m37.95,367.75c.83-3.83,1.32-7.76,2.5-11.5,1.3-4.13,5-12,5-12h0" style="fill:none; stroke:#5456aa; stroke-linecap:round; stroke-linejoin:round; stroke-width:2px;"/><path id="uuid-685dd284-9c43-41af-b4af-647ba484bf1d" d="m70.95,366.75c-4.83-3.83-11.18-6.3-14.5-11.5-3.05-4.77-2.67-11-4-16.5,3.83,3.83,8.01,7.35,11.5,11.5,2.23,2.65,4.75,5.27,6,8.5.97,2.51.67,5.33,1,8Z" style="fill:#ff5; stroke:#5456aa; stroke-linecap:round; stroke-linejoin:round; stroke-width:2px;"/><path id="uuid-214a180b-74b6-4ebe-98a0-2f00c16a28d4" d="m65.95,357.75c-2.5-2.33-5.38-4.32-7.5-7-2.5-3.16-4-7-6-10.5" style="fill:none; stroke:#5456aa; stroke-linecap:round; stroke-linejoin:round; stroke-width:2px;"/><path id="uuid-401ff273-cb83-4d05-885a-8d241d5187a3" d="m61.45,397.75l-11,10.5-9.25-10.75,9.75-10,10.5,10.25Z" style="fill:#f55; stroke:#5456aa; stroke-linecap:round; stroke-linejoin:round; stroke-width:2px;"/><path id="uuid-81671805-9ff4-4c29-8775-5422c8d14e0a" d="m55.45,397.75l-4.5,4.5-4.5-4.5,4-4.75,5,4.75Z" style="fill:#ff5; stroke:#5456aa; stroke-linecap:round; stroke-linejoin:round; stroke-width:2px;"/></g><g id="uuid-4fd1ebe9-c788-417b-8749-369931b7aa6d"><path id="uuid-47424fa4-db8f-489b-a3c6-d252dab25596" d="m317,285.64l.35,6.36-6.36-.35-3.54,6.01-4.6-6.36h-6.36l.71-6.36-5.3-3.18,6.01-4.6-.35-5.66,4.95.71,4.24-6.36,4.95,7.42,4.6-1.77v6.01l6.72,3.89-6.01,4.24Z" style="fill:#ffff57;"/><path id="uuid-52a4957b-a3b9-4323-9fae-3d619c6f9288" d="m312.54,282.08l-5.41,5.08-5.12-5.52,5.18-4.9,5.34,5.34Z" style="fill:#f55; stroke:#000; stroke-linecap:round; stroke-linejoin:round; stroke-width:2px;"/></g><path id="uuid-0c3bd60c-156d-458c-b603-0dc1fb4f8fc2" d="m241.35,289.56s-2.24,3.57-3.9,4.78c-1.43,1.04-3.19,2.15-4.94,1.92-1-.13-2.11-.83-2.44-1.78-.27-.78.23-1.68.67-2.38.58-.95,1.52-1.66,2.46-2.25,1-.62,2.18-.9,3.29-1.28,1.05-.36,3.2-.94,3.2-.94l1.66,1.93Z" style="fill:#fff;"/><path id="uuid-c25a6177-3529-4b79-a45e-8a955b7ae983" d="m238.51,284.47s-3.14,2.81-5.08,3.51c-1.66.6-3.66,1.18-5.28.48-.92-.4-1.8-1.38-1.85-2.39-.04-.82.69-1.55,1.3-2.11.82-.75,1.92-1.18,2.99-1.48,1.13-.32,2.34-.26,3.52-.32,1.11-.05,3.34-.02,3.34-.02l1.06,2.32Z" style="fill:#fff;"/><path id="uuid-55103e48-1394-47a5-9642-271b08b554f9" d="m235.86,278.67s-3.94,1.51-6,1.48c-1.77-.03-3.84-.2-5.11-1.43-.72-.7-1.19-1.93-.88-2.89.25-.79,1.2-1.2,1.96-1.51,1.03-.41,2.21-.42,3.32-.32,1.17.11,2.28.59,3.4.96,1.06.35,3.12,1.17,3.12,1.17l.17,2.54Z" style="fill:#fff;"/><path id="uuid-3ea3b7f0-1c3c-4021-9013-0a1a7968152d" d="m235.91,272.86s-4.19.51-6.17-.03c-1.71-.46-3.68-1.12-4.6-2.63-.53-.86-.68-2.16-.15-3.02.44-.7,1.45-.88,2.27-.98,1.1-.14,2.25.13,3.3.5,1.11.39,2.07,1.13,3.07,1.75.94.59,2.75,1.89,2.75,1.89l-.46,2.51Z" style="fill:#fff;"/><path id="uuid-fa1ccb78-f860-4b19-8f62-7e557a3668db" d="m252.05,253.13s.61-4.17.13-6.17c-.41-1.72-1.03-3.71-2.51-4.67-.84-.55-2.14-.74-3.01-.23-.71.42-.91,1.43-1.04,2.25-.17,1.1.08,2.25.41,3.31.36,1.12,1.07,2.1,1.67,3.11.57.96,1.82,2.79,1.82,2.79l2.52-.39Z" style="fill:#fff;"/><path id="uuid-1ec380e1-78e5-4f28-a9d7-7740729e1910" d="m247.09,255.92s-.53-4.18-1.53-5.98c-.86-1.54-1.99-3.29-3.67-3.82-.96-.3-2.26-.13-2.96.59-.57.59-.5,1.62-.4,2.44.13,1.1.68,2.15,1.29,3.08.65.99,1.6,1.74,2.45,2.55.8.77,2.51,2.2,2.51,2.2l2.32-1.05Z" style="fill:#fff;"/><path id="uuid-52237b98-e3a6-44f2-bb00-bb9fad224fae" d="m242.64,259.5s-1.67-3.87-3.13-5.32c-1.26-1.24-2.82-2.61-4.59-2.65-1.01-.02-2.21.5-2.68,1.39-.39.73-.03,1.7.3,2.46.43,1.02,1.25,1.87,2.09,2.6.9.77,2.02,1.22,3.06,1.77.99.51,3.02,1.42,3.02,1.42l1.94-1.66Z" style="fill:#fff;"/><path id="uuid-da1bf2d6-42a0-4015-929b-a7a2e0efb323" d="m238.28,264.12s-2.94-3.02-4.82-3.86c-1.62-.72-3.57-1.44-5.24-.85-.95.34-1.89,1.25-2.01,2.25-.1.82.58,1.6,1.15,2.19.77.8,1.83,1.31,2.88,1.68,1.11.4,2.32.43,3.49.56,1.1.13,3.33.25,3.33.25l1.22-2.24Z" style="fill:#fff;"/><g id="uuid-42831124-5f78-40d5-84f3-16990d6a922d"><path id="uuid-55b71af6-816f-40ae-bd0d-3557f2389f8d" d="m172.13,344.67l-2.12-62.58-10.25-5.3-.71,67.18,13.08.71Z" style="fill:#ff5; stroke:#000; stroke-linecap:round; stroke-linejoin:round; stroke-width:2px;"/><path id="uuid-9259108c-7806-4aa3-aed2-45290db7302e" d="m167.18,339.37c-3.54,0-2.83,0-2.83,0l-.35-3.18,2.97-.15.21,3.33Z"/><path id="uuid-d346b385-8f25-413b-9a60-1f709983d9c0" d="m166.79,332.41c-3.54,0-2.83,0-2.83,0l-.35-3.18,2.97-.15.21,3.33Z"/><path id="uuid-205a453d-9fd1-4d93-adc7-c930428aec7d" d="m167.04,325.41c-3.54,0-2.83,0-2.83,0l-.35-3.18,2.97-.15.21,3.33Z"/><path id="uuid-e7e00fc3-036c-44b4-b04f-ffe82bcd6e22" d="m167.29,319.16c-3.54,0-2.83,0-2.83,0l-.35-3.18,2.97-.15.21,3.33Z"/><path id="uuid-bfd11d53-5513-489b-93ca-8b51b56263e3" d="m167.29,311.91c-3.54,0-2.83,0-2.83,0l-.35-3.18,2.97-.15.21,3.33Z"/><path id="uuid-11ff6026-9680-42e5-8224-18486c03bb2b" d="m167.54,305.91c-3.54,0-2.83,0-2.83,0l-.35-3.18,2.97-.15.21,3.33Z"/><path id="uuid-530efebd-b3b9-44a5-a496-abffc51b88a2" d="m166.79,299.41c-3.54,0-2.83,0-2.83,0l-.35-3.18,2.97-.15.21,3.33Z"/><path id="uuid-a1843e8a-869e-4984-832e-018699bbcbf3" d="m166.79,293.41c-3.54,0-2.83,0-2.83,0l-.35-3.18,2.97-.15.21,3.33Z"/><path id="uuid-2997e857-7711-43e9-8731-f8dbd3ac42b7" d="m166.79,286.91c-3.54,0-2.83,0-2.83,0l-.35-3.18,2.97-.15.21,3.33Z"/></g></g><path id="uuid-12df0151-4a1a-4027-bdd1-1851ca8fe16e" d="m29.5,149.5v360h270" style="fill:none; stroke:#55a; stroke-width:2px;"/><path id="uuid-a1eba6a0-e7ee-4496-ab5f-278fcf9212ed" d="m59.5,29.5h270v360h0" style="fill:none; stroke:#55a; stroke-width:2px;"/><path id="uuid-599a3a8f-b488-4d73-b0f3-00149c526f14" d="m29,98.5c0-5.52-2.86-9-7-9s-7.5,4.48-7.5,10c.02.48,0,.95,0,1.41,0,3.65,1.34,7.19,2.5,10.5,1.19,3.41,2.92,6.39,4.53,9.44,2.5,4.72,7.97,13.66,7.97,13.66,0,0,5.47-8.94,7.97-13.66,1.61-3.05,3.34-6.03,4.53-9.44,1.16-3.31,2.5-6.85,2.5-10.5-.01-.49,0-.96,0-1.41,0-5.52-3.36-10-7.5-10s-7,3.48-7,9c0,1-1,1-1,0Z" style="fill:#f55;"/><path id="uuid-07f1b47f-ae74-4942-bdfb-1d344f0f06c9" d="m88.5,62.5c0-11.05-5.72-18-14-18s-15,8.95-15,20c.03.96.02,1.89,0,2.81,0,7.3,2.68,14.38,5,21,2.39,6.81,5.83,12.78,9.06,18.88,5,9.44,15.94,27.31,15.94,27.31,0,0,10.94-17.87,15.94-27.31,3.23-6.09,6.67-12.06,9.06-18.88,2.32-6.62,5-13.7,5-21-.03-.97-.02-1.91,0-2.81,0-11.05-6.72-20-15-20s-14,6.95-14,18c0,2-2,2-2,0Z" style="fill:#f55;"/><path id="uuid-23d54328-a216-4ad9-8bfe-65ca72fff8d2" d="m330,440.5c0,5.52,2.86,9,7,9s7.5-4.48,7.5-10c-.02-.48,0-.95,0-1.41,0-3.65-1.34-7.19-2.5-10.5-1.19-3.41-2.92-6.39-4.53-9.44-2.5-4.72-7.97-13.66-7.97-13.66,0,0-5.47,8.94-7.97,13.66-1.61,3.05-3.34,6.03-4.53,9.44-1.16,3.31-2.5,6.85-2.5,10.5.01.49,0,.96,0,1.41,0,5.52,3.36,10,7.5,10s7-3.48,7-9c0-1,1-1,1,0Z" style="fill:#f55;"/><path id="uuid-adb943f6-a1d7-473e-8f83-0bfd066ae705" d="m270.5,476.5c0,11.05,5.72,18,14,18s15-8.95,15-20c-.03-.96-.02-1.89,0-2.81,0-7.3-2.68-14.38-5-21-2.39-6.81-5.83-12.78-9.06-18.88-5-9.44-15.94-27.31-15.94-27.31,0,0-10.94,17.87-15.94,27.31-3.23,6.09-6.67,12.06-9.06,18.88-2.32,6.62-5,13.7-5,21,.03.97.02,1.91,0,2.81,0,11.05,6.72,20,15,20s14-6.95,14-18c0-2,2-2,2,0Z" style="fill:#f55;"/></g></svg>