<?xml version="1.0" encoding="UTF-8"?><svg id="uuid-78b3997f-c65c-4f55-990f-4a38b30f8512" xmlns="http://www.w3.org/2000/svg" viewBox="0 0 359 539"><g id="uuid-9286b369-aece-4c48-aa86-9a6fc7d1c129"><path id="uuid-12c1140c-175a-4d41-984c-ab2871d6dc61" d="m29.5,29.5c-5.52,0-10,4.48-10,10v30c0,5.52,4.48,10,10,10,.43,0,.86-.04,1.28-.09,1.71,3.05,4.97,5.09,8.72,5.09v-5c-1.64,0-3.09-.81-4-2.03,2.42-1.82,4-4.7,4-7.97v-30c0-5.52-4.48-10-10-10h0Zm0,5c2.76,0,5,2.24,5,5v30c0,.72-.17,1.38-.44,2-1.27-4.06-5.09-7-9.56-7v-25c0-2.76,2.24-5,5-5Zm-5,35c2.76,0,5,2.24,5,5-2.76,0-5-2.24-5-5Z" style="fill:#f55;"/><path id="uuid-7354e262-5646-45e4-a8af-4133a50dd2b4" d="m329.5,509.5c5.52,0,10-4.48,10-10v-30c0-5.52-4.48-10-10-10-.43,0-.86.04-1.28.09-1.71-3.05-4.97-5.09-8.72-5.09v5c1.64,0,3.09.81,4,2.03-2.42,1.82-4,4.7-4,7.97v30c0,5.52,4.48,10,10,10h0Zm0-5c-2.76,0-5-2.24-5-5v-30c0-.72.17-1.38.44-2,1.27,4.06,5.09,7,9.56,7v25c0,2.76-2.24,5-5,5Zm5-35c-2.76,0-5-2.24-5-5,2.76,0,5,2.24,5,5Z" style="fill:#f55;"/><path id="uuid-a683d3f2-bfb2-485d-8296-280b5f167a19" d="m59.5,29.5h270v360h0" style="fill:none; stroke:#55a; stroke-width:2px;"/><path id="uuid-6e979b41-f0da-44b7-8208-6986720d2136" d="m29.5,149.5v360h270" style="fill:none; stroke:#55a; stroke-width:2px;"/><g id="uuid-7f390045-3d4c-491d-9f54-ffe3d1a0ac4d"><path id="uuid-7cf5a477-f1a1-41c2-9d31-2620d63a0f86" d="m144.56,197.12l1.95-7.6s8.62,3.27,13.06,4.48c5.25,1.44,10.63,2.38,15.99,3.31,3.17.55,6.35,1.1,9.55,1.36,6.48.53,13,.52,19.5.39,6.57-.13,13.14-.59,19.69-1.17,3.32-.29,6.64-.69,9.94-1.17,3.79-.55,11.31-1.95,11.31-1.95l-12.87,12.48-24.18.19-12.48,31.2,19.11,1.36-3.7,21.06s-14.71-.68-22.03-1.36c-6.78-.63-13.54-1.5-20.28-2.53-4.31-.66-8.57-1.61-12.87-2.34-3.24-.55-9.75-1.56-9.75-1.56,0,0-2.68-6.97-4.29-10.33-2.52-5.27-8.38-15.4-8.38-15.4l17.74,4.29,9.75-29.05-16.77-5.65Z"/><path id="uuid-228016a8-9def-4842-bbbe-153174b8a738" d="m120.52,177.12s8.46,5.52,12.97,7.76c4.21,2.1,13.08,5.3,13.08,5.3l-11.67,37.48s-6.51-9.23-10.25-13.44c-3.5-3.93-7.41-7.48-11.36-10.96-3.39-2.98-10.56-8.49-10.56-8.49l17.79-17.66Z" style="fill:#55a;"/><path id="uuid-6c76e1c2-7683-4b26-a95a-b6a5c17ccebb" d="m122.89,243.93s4.47,13.5,5.3,20.51c.88,7.37.91,14.96-.35,22.27-1.13,6.5-3.58,12.76-6.36,18.74-2.5,5.37-5.35,10.69-9.19,15.2-3.31,3.88-7.52,6.93-11.67,9.9-5.25,3.75-16.62,9.9-16.62,9.9l-3.54-3.18s1.36-14.23,2.83-21.21c1.57-7.45,3.64-14.81,6.36-21.92,2.53-6.6,5.87-12.86,9.19-19.09,3.28-6.15,6.3-12.54,10.61-18.03,3.86-4.92,13.44-13.08,13.44-13.08h0Z" style="fill:#55a;"/><path id="uuid-27d1efb2-4cef-431e-b36d-3e36511031e2" d="m116.53,250.65s4.25,12.79,4.6,19.45c.38,7.36-.83,14.83-2.83,21.92-1.96,6.96-4.83,13.78-8.84,19.8-3.05,4.58-7.08,8.5-11.31,12.02-4.85,4.04-15.91,10.25-15.91,10.25,0,0,1.5-14.67,2.83-21.92,1.01-5.48,2.06-11,3.89-16.26,2.3-6.62,5.59-12.88,8.84-19.09,2.59-4.96,5.21-9.96,8.49-14.5,3.03-4.2,10.25-11.67,10.25-11.67h0Z" style="fill:#f55;"/><g id="uuid-4abb9f7c-91e9-474f-a976-4351ab78559b"><path id="uuid-db592472-c835-4ae7-becb-257c75f570b9" d="m47.26,225.14l-5.8,12.99s.83,4.23,2.54,4.98c1.03.45,2.32-.13,3.25-.89,1.19-.97,2.5-4.31,2.5-4.31l4.96-10.44" style="fill:#ff5; stroke:#55a; stroke-linecap:round; stroke-linejoin:round; stroke-width:1.79px;"/><path id="uuid-be35359f-a696-40f3-bfa2-fdaf9d231f72" d="m42.45,237.76s2.48-1.01,3.8-1.09c1.05-.07,3.13.47,3.13.47" style="fill:none; stroke:#55a; stroke-linecap:round; stroke-linejoin:round; stroke-width:1.79px;"/></g><path id="uuid-6474552c-d39f-401e-abf3-96c260265d0c" d="m165.71,65.28s-13.78,14.05-19.08,22.26c-5.54,8.59-9.7,18.11-12.99,27.79-2.85,8.4-4.36,17.22-5.74,25.98-.82,5.2-1.1,10.47-1.51,15.71-.39,5.03-.91,15.11-.91,15.11l45.01-41.69s-2.72-9.17-3.32-13.9c-.6-4.7-.25-9.47-.3-14.2-.07-6.34.2-12.69,0-19.03-.19-6.02-1.16-18.03-1.16-18.03h0Z"/><path id="uuid-2918064a-b504-484c-8432-f06356fcf11c" d="m299.28,173.87c-5.07,2.59-12.07,6.07-18.25,8.79-5.83,2.57-11.71,5.06-17.76,7.08-5.08,1.7-10.31,2.95-15.51,4.24-4.82,1.19-9.64,2.49-14.55,3.23-5.08.77-10.24.89-15.36,1.27-4.12.3-8.24.72-12.37.8-5,.09-10.01-.12-15.01-.41-4.59-.26-9.2-.5-13.74-1.21-5.12-.8-10.15-2.12-15.16-3.44-4.32-1.13-8.58-2.45-12.83-3.84-4.65-1.52-9.35-2.95-13.84-4.9-5.26-2.29-11.74-6.17-15.28-7.94l45.29-42.05s2.74.51,4.1.81c2.59.57,2.45.95,7.73,1.86,2.5,1.04,4.17,3.57,6.65,4.64,3.02,1.31,6.38,2.04,9.67,2.03,6.29-.01,13.87-1.7,18.45-3.96,2.38,0,4.49-.4,6.73-.62,3.11-.3,6.23-.52,9.33-.95,3.33-.45,6.69-.81,9.92-1.71,2.77-.77,5.39-1.98,8.03-3.12,2.89-1.25,8.53-4.07,8.53-4.07,3.98,6.64,9.04,15.5,17.59,23.6,4.28,4.05,9.28,9.74,13.55,12.98s11.07,5.27,14.07,6.86h0Z" style="fill:#ffff58;"/><path id="uuid-ff819a21-bc1c-40a8-b246-29d22ea0b9c1" d="m166.69,103.16s-6.09,9.73-8.58,14.9c-1.79,3.71-3.39,7.53-4.53,11.48-.9,3.11-1.51,6.33-1.82,9.55-.26,2.74,0,8.27,0,8.27l19.03-16.92s-2.64-8.57-3.32-12.99c-.72-4.72-.78-14.29-.78-14.29h0Z" style="fill:#f55;"/><path id="uuid-da20602d-addd-4f7e-9cdf-6bd33ba830b4" d="m223.5,29.5l65.5,84.17,7.83-1.67-59.33-82.5h-14Z"/><path id="uuid-b58e1469-a162-4163-8a0f-fe42671ec67a" d="m306.5,29.5c-1.67,9.9-2.34,19.97-2,30,.35,10.17,1.75,20.36,5,30,2.39,7.09,5.76,13.84,10,20-3.33-.22-6.67-.22-10,0-4.38.29-8.74.96-13,2l-59-82h69" style="fill:#ff5; stroke:#55a; stroke-linecap:round; stroke-linejoin:round; stroke-width:2px;"/><path id="uuid-ca6c7022-e9a1-4f27-9d92-8c88547c2f39" d="m273.09,54.97c.4.99.85,1.98,1.52,2.81.88,1.09,1.84,2.31,3.19,2.74,1.69.54,3.99.72,5.39-.45,1.36-1.15,1.79-3.43,1.35-5.11-.51-1.93-4.23-4.18-4.23-4.18,0,0,4.73-1.58,5.56-3.61.78-1.91-.03-4.45-1.44-5.88-1.39-1.41-3.93-2.34-5.8-1.52-2.1.92-3.3,6.02-3.3,6.02,0,0-.84-3.75-2.05-5.13-1.08-1.22-2.63-2.42-4.29-2.38-1.48.03-3.18.96-3.87,2.28-1.09,2.08-.61,4.97.63,6.88,1.24,1.92,6,3.34,6,3.34,0,0-1.27-2.7.98-4.26,1.8-1.25,5.05.24,6.05,2.11.85,1.58.4,4.62-1.3,5.35-3.39,1.45-5.12-1.72-5.12-1.72,0,0,.39,1.85.74,2.71h0Z" style="stroke:#000100; stroke-linecap:round; stroke-linejoin:round; stroke-width:2px;"/><path id="uuid-cf33b7fa-e22a-48eb-b783-70dbfbe00842" d="m292.67,82.21c.35.9.76,1.79,1.35,2.54.78.99,1.64,2.09,2.85,2.48,1.51.49,3.56.66,4.81-.41,1.22-1.04,1.6-3.11,1.2-4.62-.46-1.74-3.77-3.78-3.77-3.78,0,0,3.71-1.83,4.29-3.6.57-1.73.01-4.03-1.28-5.32-1.1-1.08-3.1-1.67-4.5-1.04-1.88.85-2.94,5.45-2.94,5.45,0,0-.75-3.39-1.83-4.64-.96-1.11-2.34-2.19-3.83-2.15-1.32.03-2.83.87-3.45,2.06-.97,1.88-.55,4.49.56,6.22,1.11,1.73,5.35,3.02,5.35,3.02,0,0-1.14-2.44.88-3.86,1.61-1.13,4.5.22,5.39,1.91.76,1.43.36,4.18-1.16,4.84-3.03,1.31-4.57-1.56-4.57-1.56,0,0,.35,1.67.66,2.45h0Z" style="stroke:#000100; stroke-linecap:round; stroke-linejoin:round; stroke-width:2px;"/><path id="uuid-e5f53d12-828d-424a-ad54-2603b72d0f53" d="m246.83,31.17s.59,11.23,5.5,16.83c4.72,5.39,10.28,5.61,15.17,5.17,0,0-2.3,13.14,2,18.5,4.66,5.81,20,10.33,20,10.33,0,0-3.58,10.05,1.33,17,2.72,3.85,11.83,9.5,11.83,9.5" style="fill:none; stroke:#000; stroke-linecap:round; stroke-linejoin:round; stroke-width:2px;"/><path id="uuid-bf5d7023-32fd-44e3-b530-68c80256d420" d="m251.59,30.14c-.69,0-1.34.54-1.47,1.22,0,0-1.82,8.33,4.06,14.22.91.91,2.22,1.69,3.81,2.56s3.44,1.76,5.19,2.56c3.05,1.4,5.15,2.2,5.81,2.47,0,.71-.02,2.23.38,5.03.48,3.37,1.09,8.16,3.32,11.32,4.14,5.86,8.89,8.36,12.3,10.05,2.23,1.1,3.76,1.49,4.78,1.69.1.77.28,2.43.84,5.28.68,3.45,1.61,7.37,3.19,9.91,1.65,2.66,4.93,5.5,7.88,7.84s5.56,4.12,5.56,4.12c.65.44,1.65.25,2.09-.41s-3.09-3.15-3.74-3.59c0,0-2.36-3.36-2.88-6.8-2.85-2.27-4.93-2.32-6.55-4.4-1.58-2.03-1.96-3.95-2.61-7.27s-1-6.12-1-6.12c-.08-.68-.69-1.26-1.38-1.31,0,0-5.7-1.43-7.84-3.29-2.47-2.14-5.69-2.96-5.04-8.42-1.73-2.45-5.51-5.9-5.96-9.04s-.44-5.56-.44-5.56c.02-.61-.37-1.21-.94-1.44,0,0-3.11-1.24-6.53-2.81-1.71-.78-3.8-1.05-5-2.47-1.47-1.74-1.55-6.12-1.96-6.53-4.66-4.66-4.42-6.97-4.42-6.97.21-.88-.56-1.85-1.47-1.84h0Z"/><path id="uuid-0c23eb4e-2406-4d46-b3b6-908fcc6578d6" d="m210.5,29.5h13.33l105.67,138.67v32.33L210.5,29.5Z" style="fill:#f55; stroke:#55a; stroke-width:2px;"/><path id="uuid-7b41a73d-706c-4b17-ad00-7a3c5f1b306e" d="m186.49,29.5s1.77,11.3,14.65,22.17c12.88,10.88,34.36,15.23,34.36,15.23" style="fill:none; stroke:#55a; stroke-linecap:round; stroke-linejoin:round; stroke-width:2px;"/><path id="uuid-79bf335d-8e9b-4192-9322-a5bd4e4776a6" d="m191.66,29.5s5.21,11.83,12.43,17.84c7.22,6.01,27.53,13.11,27.53,13.11" style="fill:none; stroke:#55a; stroke-linecap:round; stroke-linejoin:round; stroke-width:2px;"/><path id="uuid-16356b87-658c-42ff-be9a-bcff061af02b" d="m197.77,29.5s4.41,10.06,9.79,14.64c5.38,4.58,19.92,10.53,19.92,10.53" style="fill:none; stroke:#55a; stroke-linecap:round; stroke-linejoin:round; stroke-width:2px;"/><path id="uuid-58c9faea-233e-428d-8e97-e19f6d125e19" d="m202.79,29.5s2.73,6.83,7.03,10.38,12.89,7.39,12.89,7.39" style="fill:none; stroke:#55a; stroke-linecap:round; stroke-linejoin:round; stroke-width:2px;"/><path id="uuid-91fa1383-1921-4699-ba68-7e92b0321894" d="m188.44,37.04s-.84,4.09-6.14,12.96c-5.3,8.87-15.75,12.63-15.75,12.63" style="fill:none; stroke:#55a; stroke-linecap:round; stroke-linejoin:round; stroke-width:2px;"/><path id="uuid-f8c55fd7-ef8e-4b5c-9dcf-37f78188f134" d="m184.55,29.5s-.17,7.05-5,14.56-12.94,11.31-12.94,11.31" style="fill:none; stroke:#55a; stroke-linecap:round; stroke-linejoin:round; stroke-width:2px;"/><path id="uuid-f47e82af-ecf6-49b2-b577-3c4947d02f14" d="m179.18,29.5s-1.93,7.46-4.51,12.04c-2.58,4.58-7.86,7.9-7.86,7.9" style="fill:none; stroke:#55a; stroke-linecap:round; stroke-linejoin:round; stroke-width:2px;"/><path id="uuid-b6359eeb-fd02-4241-b6b9-eb8eeff843a8" d="m173.05,29.5s.18,4.4-1.94,7.95-3.59,3.98-3.59,3.98" style="fill:none; stroke:#55a; stroke-linecap:round; stroke-linejoin:round; stroke-width:2px;"/><path id="uuid-42f98fd0-28e9-4c4d-b328-c04ccecc6173" d="m185.91,82.97s.59,2.58.53,3.89c-.16,3.58-1.2,7.1-2.41,10.47-.8,2.21-3,3.95-3.16,6.29-.13,1.95.62,4.06,1.9,5.54.9,1.04,2.64.97,3.68,1.87.84.73,1.91,2.74,1.91,2.74" style="fill:none; stroke:#55a; stroke-linecap:round; stroke-linejoin:round; stroke-width:2px;"/><path id="uuid-c828a428-9663-4f0b-9f14-cd29dc814dbf" d="m198.25,102.28s3.32,3.56,2.86,5.6c-.3,1.34-1.91,2.28-3.27,2.49-1.78.27-3.4-1.19-5.08-1.83-1.59-.61-3.13-2.43-4.75-1.9-.65.21-1.42,1.14-1.09,1.74.54.98,2.24-.01,3.36.05,3.39.2,7.44,3.12,10.14,1.06.87-.66.78-2.17.54-3.24-.35-1.57-2.72-3.99-2.72-3.99h0Z" style="fill:#55a; stroke:#55a; stroke-linecap:round; stroke-linejoin:round; stroke-width:2px;"/><path id="uuid-1b67b946-e336-4629-b3d1-79455bafb9ff" d="m231.7,79.27s-9.21-6.28-14.5-7.65c-4.16-1.08-8.74-1.37-12.89-.27-1.67.44-4.45,2.66-4.45,2.66,0,0,4.08-1.31,6.19-1.54,4.27-.46,8.71-.68,12.88.38,4.62,1.17,12.78,6.41,12.78,6.41Z" style="fill:#55a; stroke:#55a; stroke-linecap:round; stroke-linejoin:round; stroke-width:2px;"/><path id="uuid-78ff4360-cb6d-4344-9c2f-72ca1eecf2c7" d="m167.77,73.75s5.57-2.98,8.54-2.65c3.7.41,9.59,5.53,9.59,5.53,0,0-6.24-4.26-9.86-4.37-3.04-.09-8.51,3.15-8.51,3.15l.24-1.65Z" style="fill:#55a; stroke:#55a; stroke-linecap:round; stroke-linejoin:round; stroke-width:2px;"/><path id="uuid-998b2da3-df7c-4b13-bce0-9514b0a53835" d="m203.44,122.47s-4.7-1.88-7.15-2.04c-1.84-.13-3.65.7-5.49.79-2.1.1-4.26-.85-6.31-.29-1.12.31-3.03,1.94-3.03,1.94,0,0,2.09-.46,3.14-.4,2.14.13,4.14,1.57,6.28,1.57,2.36,0,4.55-1.46,6.93-1.71,1.87-.2,5.63.16,5.63.16h0Z" style="fill:#55a; stroke:#55a; stroke-linecap:round; stroke-linejoin:round; stroke-width:2px;"/><path id="uuid-3a15662e-c92a-442f-b26d-a8f489365275" d="m197.08,127.33s-3.94,1.37-5.99,1.42c-1.75.04-5.17-.99-5.17-.99" style="fill:none; stroke:#55a; stroke-linecap:round; stroke-linejoin:round; stroke-width:2px;"/><path id="uuid-9fd25002-ab46-4d3c-9384-5cb669a2980f" d="m185.13,82.4s-5.03-4.11-9.65-4.21c-4.94-.11-7.89,2.52-7.89,2.52" style="fill:none; stroke:#55a; stroke-linecap:round; stroke-linejoin:round; stroke-width:2px;"/><path id="uuid-a5c7a137-0f0a-4a31-b025-68e68f72ab45" d="m228.11,84.55s-9.86-7.33-15.53-7.16c-7.42.21-12.96,5.56-12.96,5.56" style="fill:none; stroke:#55a; stroke-linecap:round; stroke-linejoin:round; stroke-width:2px;"/><path id="uuid-e2423836-857e-4dbc-8b29-0111b79a99a0" d="m229.21,86.12c-5.85-.76-10.15-3.3-15.54-3.76-4.62-.39-13.94,1.04-13.94,1.04" style="fill:none; stroke:#55a; stroke-linecap:round; stroke-linejoin:round; stroke-width:2px;"/><path id="uuid-ddffbd0c-1a9d-40a7-a1c7-afaa9041cf87" d="m166.95,86.19c5.39-2.54,4.23-3.35,9.62-3.81,4.62-.39,9.45,2.23,9.45,2.23" style="fill:none; stroke:#55a; stroke-linecap:round; stroke-linejoin:round; stroke-width:2px;"/><path id="uuid-cfc7e975-5e67-47ac-93e4-d87d14404b85" d="m225.97,86.58c-5.27,1.2-10.77,5.08-16.73,5.38-4.42.22-9.15-2.81-9.54-6.9" style="fill:none; stroke:#55a; stroke-linecap:round; stroke-linejoin:round; stroke-width:2px;"/><path id="uuid-a0d857f9-3746-4e85-ac25-760a86168d96" d="m214.88,83.9c.94,5.06-4.02,6.56-7.58,6.12-2.41-.3-4.65-3.26-3.49-6.15" style="fill:none; stroke:#55a; stroke-linecap:round; stroke-linejoin:round; stroke-width:2px;"/><path id="uuid-66e6bd39-f631-403e-8570-b61279ba2b66" d="m206.63,86.74c-.1-.92.75-2.18,1.71-2.23.84-.04,1.72.98,1.71,1.78-.02.84-.98,1.76-1.86,1.78-.7.02-1.48-.67-1.55-1.34h0Z" style="fill:#55a; stroke:#55a; stroke-linecap:round; stroke-linejoin:round; stroke-width:2px;"/><path id="uuid-45c9c012-87d4-4049-9549-2d32ad36d167" d="m178.06,87.05c.03-.72-.85-1.64-1.74-1.63-.78.02-1.53.86-1.46,1.49.08.65,1.04,1.31,1.85,1.27.65-.03,1.33-.61,1.35-1.13h0Z" style="fill:#55a; stroke:#55a; stroke-linecap:round; stroke-linejoin:round; stroke-width:2px;"/><path id="uuid-01b72656-ef41-4769-b6fb-42fc15375bb2" d="m184.47,90.91c-2.09,2.46-2.24,4.64-6.58,6.73" style="fill:none; stroke:#55a; stroke-linecap:round; stroke-linejoin:round; stroke-width:2px;"/><path id="uuid-9dab8a9f-4ee3-41e3-9f15-d9348c58552b" d="m199.44,83.43c1.6,7.12,3.45,11.37,8.6,13.52" style="fill:none; stroke:#55a; stroke-linecap:round; stroke-linejoin:round; stroke-width:2px;"/><path id="uuid-bb44e771-e66d-4796-8e24-eeee7339d305" d="m167.05,88.91c2.86,1.8,6.51,2.87,11.18,2.75,3.46-.09,6.97-2.54,7.03-5.5" style="fill:none; stroke:#55a; stroke-linecap:round; stroke-linejoin:round; stroke-width:2px;"/><path id="uuid-e346563e-99d9-4a40-a460-9883901b58c4" d="m172.33,83.6c-1.11,4.9,1.1,7.54,5.14,7.45,1.78-.04,5.42-4.04,2.75-7.84" style="fill:none; stroke:#55a; stroke-linecap:round; stroke-linejoin:round; stroke-width:2px;"/><path id="uuid-92cb17ef-17b0-42c1-85ac-e1bfeaf4328a" d="m168.5,29.5s-2.29,21.97-2.5,33c-.16,8.67.74,17.33,1,26,.24,8.16-.41,16.38.5,24.5.65,5.75.93,11.81,3.5,17,2.25,4.55,5.71,8.78,10,11.5,3.66,2.31,8.18,3.27,12.5,3.5,4.39.23,8.83-.81,13-2.21,5.7-1.91,10.99-4.98,16-8.29,5.04-3.32,9.86-7.11,14-11.5,3.11-3.3,8-11,8-11" style="fill:none; stroke:#55a; stroke-linecap:round; stroke-linejoin:round; stroke-width:2px;"/><path id="uuid-290c22d3-9a4c-4272-b92f-fe649b311c1b" d="m165.85,135.94c4.67,2.41,8.82,2.83,11.95,3.19" style="fill:none; stroke:#55a; stroke-linecap:round; stroke-linejoin:round; stroke-width:2px;"/><path id="uuid-bc1478d0-a059-4988-b48c-3957902ef97e" d="m210.56,141.52c7.26-1.35,16.24-2.2,24.14-4.27,6.64-1.74,12.96-4.56,19.44-6.84" style="fill:none; stroke:#55a; stroke-linecap:round; stroke-linejoin:round; stroke-width:2px;"/><path id="uuid-110eed96-89b5-4420-bffc-a70c393e13fa" d="m242.39,116.31l5.98,15.81" style="fill:none; stroke:#55a; stroke-linecap:round; stroke-linejoin:round; stroke-width:2px;"/><path id="uuid-68ae5159-d294-44b1-a4b7-8a4adaad78ff" d="m238.97,120.58l4.91,13.03" style="fill:none; stroke:#55a; stroke-linecap:round; stroke-linejoin:round; stroke-width:2px;"/><path id="uuid-15b8abc2-5d4b-4a45-89e4-c91147bc754d" d="m235.13,125.28l3.2,9.4" style="fill:none; stroke:#55a; stroke-linecap:round; stroke-linejoin:round; stroke-width:2px;"/><path id="uuid-45d0d085-925c-4e44-9375-8628f1cc9b9f" d="m231.28,128.7l2.99,7.48" style="fill:none; stroke:#55a; stroke-linecap:round; stroke-linejoin:round; stroke-width:2px;"/><path id="uuid-6cb64e51-f6b6-4aa3-ae1c-f2f8c9cbc40f" d="m227.23,132.12l2.78,6.2" style="fill:none; stroke:#55a; stroke-linecap:round; stroke-linejoin:round; stroke-width:2px;"/><path id="uuid-7ae71e85-d417-4d3a-a8c2-aa8f0b5ac6f1" d="m223.38,134.89l1.71,3.63" style="fill:none; stroke:#55a; stroke-linecap:round; stroke-linejoin:round; stroke-width:2px;"/><path id="uuid-ebb1bf7a-1e75-4083-be1f-4755e7697bc4" d="m244.32,79.56c-1,1.85-2.23,3.6-2.99,5.55-1.04,2.67-1.42,5.55-2.14,8.33" style="fill:none; stroke:#55a; stroke-linecap:round; stroke-linejoin:round; stroke-width:2px;"/><path id="uuid-68d58e9d-9113-451b-9242-28ecf6a1591f" d="m248.37,85.55c-1.28,2.56-2.91,4.98-3.85,7.69-1.16,3.37-1.42,6.98-2.14,10.47" style="fill:none; stroke:#55a; stroke-linecap:round; stroke-linejoin:round; stroke-width:2px;"/><path id="uuid-eec0c789-f004-485b-a54e-1fa7d0485821" d="m252.01,90.89c-1.14,2.71-2.59,5.3-3.42,8.12-1.28,4.37-1.57,8.97-2.35,13.46" style="fill:none; stroke:#55a; stroke-linecap:round; stroke-linejoin:round; stroke-width:2px;"/><path id="uuid-d29a04c8-8514-47ea-8da7-b13fa9a6425c" d="m256.06,96.01c-1.35,3.49-3.28,6.81-4.06,10.47-1.2,5.65-.57,11.54-.85,17.3" style="fill:none; stroke:#55a; stroke-linecap:round; stroke-linejoin:round; stroke-width:2px;"/><path id="uuid-c6c5b938-01fa-41ca-b2bb-5f46fbd4cae4" d="m260.34,101.57c-1.21,2.56-2.97,4.93-3.63,7.69-1.76,7.34-.43,15.1-.64,22.64" style="fill:none; stroke:#55a; stroke-linecap:round; stroke-linejoin:round; stroke-width:2px;"/><path id="uuid-72883a2e-795e-4572-8392-40ac8ff75a72" d="m264.61,107.12c-1.28,3.2-3.34,7.22-3.85,11.11-.99,7.58,1.14,15.24,1.71,22.86" style="fill:none; stroke:#55a; stroke-linecap:round; stroke-linejoin:round; stroke-width:2px;"/><path id="uuid-e770ea93-fcc3-42aa-8683-bdddc6dfc194" d="m268.45,113.96c-1.07,3.42-2.24,8.91-2.35,13.46-.19,7.53,1.57,13.89,2.78,22.43" style="fill:none; stroke:#55a; stroke-linecap:round; stroke-linejoin:round; stroke-width:2px;"/><path id="uuid-f8f17a4a-2331-4159-b383-5897edc64dd4" d="m273.15,120.58c-.71,4.77-.91,8.98-.64,13.46.51,8.51,2.14,17.02,4.27,25.21" style="fill:none; stroke:#55a; stroke-linecap:round; stroke-linejoin:round; stroke-width:2px;"/><path id="uuid-9b7ad27c-9850-46da-b25a-23004f5507fb" d="m278.71,128.7c-.14,4.49-.63,9.58,0,14.31,1.08,8.05,4.13,15.38,6.41,23.5" style="fill:none; stroke:#55a; stroke-linecap:round; stroke-linejoin:round; stroke-width:2px;"/><path id="uuid-a8d043a9-1960-448f-97b8-cc285fff423e" d="m285.54,138.52c-.28,3.28-.28,7.9.43,11.75,1.32,7.18,3.35,13.53,7.05,20.72" style="fill:none; stroke:#55a; stroke-linecap:round; stroke-linejoin:round; stroke-width:2px;"/><path id="uuid-0b9cc86c-1d1c-4e1b-9bdd-f36beec39908" d="m291.74,147.5c.5,3.7.39,7.54,1.5,11.11,1.68,5.41,5.48,10.47,7.69,15.17" style="fill:none; stroke:#55a; stroke-linecap:round; stroke-linejoin:round; stroke-width:2px;"/><g id="uuid-3650aa04-78b0-4be1-9946-53754816c93c"><path id="uuid-006eddc0-8857-4f89-8f7f-46a071704976" d="m89.3,207.46s-4.4-5.21-6.87-7.6c-2.59-2.52-5.29-4.98-8.3-7.08-2.32-1.62-4.68-3.49-7.44-4.19-1.63-.42-3.48-.56-5.04.07-1.14.47-2.42,1.34-2.69,2.55-.51,2.29,1.1,4.73,2.58,6.55,1.5,1.85,3.77,2.99,5.95,3.95,1.31.58,2.92.9,4.18,1.04.83,2.6-1.66,2.01-1.13,7.14.15,1.5.36,3.57.36,3.57" style="fill:none; stroke:#55a; stroke-linecap:round; stroke-linejoin:round; stroke-width:2px;"/><path id="uuid-ec12cc4c-5530-4914-9a52-abb6766d3dd8" d="m62.97,193.19s.49,1.66,1.14,2.22c.6.51,1.48.78,2.29.79.79,0,2.26-.73,2.26-.73" style="fill:none; stroke:#55a; stroke-linecap:round; stroke-linejoin:round; stroke-width:2px;"/><path id="uuid-93956d1a-3732-490e-8461-faf77df83165" d="m58.39,190.42s-3.97-1.81-5.72-1.05c-1.85.81-2.85,3.1-2.86,4.98-.01,2.85,2.78,5.12,4.29,7.6.92,1.51,1.53,3.33,2.91,4.44,1.35,1.08,3.17,2.2,4.87,1.83,1.32-.29,2.39-1.62,2.86-2.88.42-1.13.58-2.73-.23-3.62-1.09-1.2-3.22-1.09-4.81-.75-.85.18-1.63.75-2.17,1.43-.55.7-.93,2.51-.93,2.51" style="fill:none; stroke:#55a; stroke-linecap:round; stroke-linejoin:round; stroke-width:2px;"/><path id="uuid-bd38c18e-662a-4b00-b080-406647ddf567" d="m48.94,195.67s-2.8.86-3.72,1.83c-.92.99-1.49,2.37-1.43,3.67.1,2.11,1.55,4.03,2.86,5.77,1.54,2.03,3.54,3.85,5.72,5.24,1.62,1.03,3.42,1.91,5.31,2.23,1.41.24,3.31.78,4.29-.26.84-.89.61-2.61,0-3.67-.46-.8-1.5-1.15-2.38-1.41-1.2-.36-2.71-.86-3.76-.17-.94.61-1.21,3.15-1.21,3.15" style="fill:none; stroke:#55a; stroke-linecap:round; stroke-linejoin:round; stroke-width:2px;"/><path id="uuid-eb56ce6a-154f-4d7b-b9ea-9de6b0933765" d="m44.36,205.63s-3.48,2.21-3.72,3.93c-.16,1.16.91,2.24,1.72,3.15,2.07,2.31,4.95,3.94,7.73,5.5,1.71.96,3.43,2.34,5.44,2.36.94.01,2.11-.3,2.58-1.05.43-.69.09-1.65-.29-2.36-.7-1.34-1.82-3.19-3.43-3.15-1.01.03-1.6,1.24-2,2.1-.41.89-.29,2.88-.29,2.88" style="fill:none; stroke:#55a; stroke-linecap:round; stroke-linejoin:round; stroke-width:2px;"/><path id="uuid-f2c9e6fb-959a-4941-b62f-50847001fe85" d="m42.65,214.8s-1.26,2.04-1.14,3.15c.18,1.79,1.48,3.44,2.86,4.72,1.79,1.66,4.17,2.84,6.62,3.5,1.27.34,2.96.96,3.97.17,1.25-.97,1.33-3.13.57-4.46-.65-1.14-2.33-2.03-3.72-1.83-1.05.15-1.72,1.24-2.22,2.1-.5.87-.64,2.88-.64,2.88" style="fill:none; stroke:#55a; stroke-linecap:round; stroke-linejoin:round; stroke-width:2px;"/><path id="uuid-00387fa9-ecab-4a19-9fbe-ee53328f1dcc" d="m54.24,227.77s.87,1.36,1.48,1.89c.57.49,1.27.82,1.96,1.12,1.36.6,4.26,1.38,4.26,1.38" style="fill:none; stroke:#55a; stroke-linecap:round; stroke-linejoin:round; stroke-width:2px;"/></g><g id="uuid-912e8f32-a059-4fe1-aa57-869664a4eebe"><path id="uuid-3a257883-0cad-4ddf-8729-aaf4d384087a" d="m63.17,190.22s-5.52,1.21-8.31,1.1c-2.13-.08-4.32-.41-6.25-1.31-2.09-.98-3.98-2.5-5.44-4.28-1.64-2-3.49-6.92-3.49-6.92,0,0,4.35.93,6.57,1.09,2.39.17,4.8-.4,7.18-.15,1.77.18,3.53.61,5.21,1.21,1.35.48,2.71,1.02,3.85,1.87,1.12.84,2.05,1.94,2.82,3.1.65.97,1.47,3.17,1.47,3.17l-3.61,1.12Z" style="fill:#ff5; stroke:#55a; stroke-linecap:round; stroke-linejoin:round; stroke-width:2px;"/><path id="uuid-0298cf09-3772-4745-a0f9-15d9fa892b34" d="m48.12,184.52s2.93,1.52,4.51,1.97c2.39.68,4.92.65,7.37,1.06,1.82.31,5.45,1.05,5.45,1.05" style="fill:none; stroke:#55a; stroke-linecap:round; stroke-linejoin:round; stroke-width:2px;"/></g><path id="uuid-353901e9-1199-44b4-838a-7a9dcaa3679a" d="m66.03,187.65l.89-10.32,3.07-2.71,2.65,2.68-.59,13.76-6.02-3.41Z" style="fill:#ff5; stroke:#55a; stroke-linecap:round; stroke-linejoin:round; stroke-width:2px;"/><g id="uuid-ac305316-390a-46ca-9d2e-70308f2b03df"><path id="uuid-be23b2b8-b924-4677-9e19-f9f34bd77cd9" d="m73.79,190.85s1.8-3.9,3.36-5.4c1.8-1.74,4.19-2.98,6.61-3.9,2.26-.87,4.86-.71,7.16-1.47,2.15-.71,6.12-2.84,6.12-2.84,0,0-.43,4.69-1.49,6.72-1.13,2.16-2.91,4.08-4.98,5.38-2.79,1.75-6.21,2.34-9.46,2.89-1.46.25-2.99.51-4.43.19-1.08-.25-2.89-1.56-2.89-1.56h0Z" style="fill:#ff5; stroke:#55a; stroke-linecap:round; stroke-linejoin:round; stroke-width:2.31px;"/><path id="uuid-3d25165b-e387-446a-af60-4fd934b424c3" d="m74.86,190.76s3.24-2.52,5.14-3.21c2.22-.81,4.81-.15,7.01-1.02,1.61-.63,4.28-2.94,4.28-2.94" style="fill:none; stroke:#55a; stroke-linecap:round; stroke-linejoin:round; stroke-width:2.31px;"/></g><path id="uuid-03311dce-4686-4c39-be95-70802f548570" d="m79.9,159.19l5.84-4.14,5.62,3.13-5.64,4.66-5.81-3.65Z" style="fill:#55a; stroke:#55a; stroke-linecap:round; stroke-linejoin:round; stroke-width:2px;"/><path id="uuid-837a0192-e380-4788-9e20-0ebea26d533f" d="m66.14,151.01l-4.28-5.75,3.98-5.74,4.31,5.66-4,5.83Z" style="fill:#55a; stroke:#55a; stroke-linecap:round; stroke-linejoin:round; stroke-width:2px;"/><path id="uuid-2819357a-5ee3-4b81-b10f-342bee42a7c6" d="m50.33,159.87l-5.47,4.48,6.68,3.08,4.06-4.42-5.26-3.14Z" style="fill:#55a; stroke:#55a; stroke-linecap:round; stroke-linejoin:round; stroke-width:2px;"/><path id="uuid-62ed5675-1394-42ee-8a3b-06d7a2720f92" d="m53.19,165.22c-1.13,2.21-2.67,4.57-2.46,7.03.16,1.86,1.29,3.67,2.72,4.95,1.85,1.67,4.49,2.58,6.98,3.03,1.21.22,2.56.28,3.7-.21,2.25-.96,5.37-5.01,5.37-5.01,0,0,2.91,2.58,4.73,3.06,2.81.75,6.15.9,8.7-.48,1.79-.97,3.04-2.96,3.62-4.91.63-2.11.29-4.5-.37-6.61-.41-1.3-1.19-2.52-2.15-3.49-1.42-1.44-5.12-3.25-5.12-3.25,0,0,4.18-2.93,5.42-5.07.85-1.46,1.34-3.24,1.17-4.92-.17-1.66-.97-3.28-2.11-4.53-1.31-1.44-3.1-2.81-5.1-3.06-2.49-.31-5.14.7-7.2,2.11-1.1.76-1.71,2.05-2.42,3.18-.94,1.48-2.4,4.68-2.4,4.68,0,0-2.75-3.52-4.62-4.64-2.37-1.42-5.2-2.73-7.95-2.37-1.73.22-3.45,1.28-4.4,2.71-1.17,1.75-1.24,4.15-1.01,6.25.21,1.99.95,4.01,2.18,5.58,1.21,1.53,4.8,3.34,4.8,3.34-.41,1.38-1.33,1.44-2.06,2.61h0Z" style="fill:#ff5; stroke:#55a; stroke-linecap:round; stroke-linejoin:round; stroke-width:2px;"/><path id="uuid-9514622e-767a-4a48-bcb8-631e32e9d92c" d="m65.99,155.7c-3.01.4-6.11,4.02-5.8,7.04.32,3.08,4.18,6.18,7.25,5.8,3.18-.4,6.28-4.5,5.8-7.66-.45-2.94-4.31-5.57-7.25-5.18Z" style="fill:#f55; stroke:#55a; stroke-linecap:round; stroke-linejoin:round; stroke-width:2px;"/><path id="uuid-94f4a40c-7cf6-4421-809a-1873fc7b2cef" d="m57.08,154.04l4.14,3.52" style="stroke:#55a; stroke-linecap:round; stroke-linejoin:round; stroke-width:2px;"/><path id="uuid-1eb894d4-a5ea-4fd0-b89a-4218c4074477" d="m75.31,152.18l-4.14,5.18" style="stroke:#55a; stroke-linecap:round; stroke-linejoin:round; stroke-width:2px;"/><path id="uuid-9467ad12-1f9d-4fec-82b1-2065159395f2" d="m72.41,165.23l4.97,3.73" style="stroke:#55a; stroke-linecap:round; stroke-linejoin:round; stroke-width:2px;"/><path id="uuid-63c10ded-7712-4bde-b22d-b0f8428f695b" d="m63.71,167.5l-4.35,5.59" style="stroke:#55a; stroke-linecap:round; stroke-linejoin:round; stroke-width:2px;"/><path id="uuid-68674d09-ba05-4e75-b2f5-a4de1c6e278c" d="m182.22,166.27l-2.48,13.17,13.06,1.22,1.17-12.92-11.75-1.47Zm5.38,4.12l3.19,3.18-3.53,2.84-3.09-3.19,3.44-2.84Z"/><path id="uuid-1126e4ac-ecf1-4c91-974b-7b499a50be4c" d="m173,152.61l-3.81,12.15,12.96,2.65,2.5-12.82-11.65-1.98Zm4.35,3.29l3.19,3.18-3.53,2.84-3.09-3.19,3.44-2.84Z"/><path id="uuid-c8cf2f09-49a4-4cb3-90b3-5917ff16c666" d="m158.38,160.31l-5.14,11.95,13.07,4.41,3.73-12.73-11.66-3.62Zm4.71,5.11l2.3,3.87-4.12,1.88-2.21-3.85,4.03-1.9Z"/><path id="uuid-7a9c6e1a-89c2-4c45-b95a-00456c93d11a" d="m141.79,167.08l-4.71,10.75,11.89,5.53,5.1-11.34-12.29-4.95Zm5.73,4.86l1.93,4.07-4.28,1.49-1.84-4.04,4.19-1.52Z"/><path id="uuid-8f655841-19d5-4178-aaff-96ac6e409396" d="m155.09,145.76l-5.13,4.22-3.07,5.87,11.79,4.73,4.53-10.41-8.11-4.41Zm1.52,4.07l1.79,4.13-4.33,1.34-1.7-4.11,4.24-1.36Z"/><path id="uuid-98eef264-ab66-42a8-b34d-39bab24d9f70" d="m166.21,176.03l-3.46,11.33,14.34,3.12,2.78-11.64-13.66-2.81Zm5.53,4.31l3.07,3.29-3.63,2.72-2.98-3.3,3.54-2.71Z"/><path id="uuid-d4d6fa54-5630-4413-86d9-fc9604c8f5de" d="m195.38,155.59l-1.71,12.72,13.19.14.7-12.75-12.18-.12Zm5.9,3.45l3.27,3.09-3.45,2.94-3.18-3.1,3.36-2.93Z"/><path id="uuid-850fffca-503e-4e56-aaac-07aa9be1181f" d="m192.47,179.98l-1.57,11.94,14.33.72.56-12.24-13.32-.42Zm6.48,3.76l3.33,3.03-3.4,3-3.24-3.04,3.31-2.99Z"/><path id="uuid-15191612-1727-4d45-b714-a41916bce18a" d="m206.33,168.13l-.96,12.71,13.63-.39-.88-12.25-11.79-.06Zm5.88,3.18l3.42,2.93-3.31,3.1-3.33-2.94,3.21-3.09Z"/><path id="uuid-50c8dfc1-4de2-4fce-8bf6-db6a93ca8d3d" d="m217.48,155.7l.71,12.79,12.56-2.24-1.53-11.49-11.74.95Zm6,3.25l3.68,2.6-3,3.4-3.59-2.62,2.91-3.38Z"/><path id="uuid-ac57bc96-1945-4b47-8c37-b00de09af4e1" d="m218.8,180.01l.74,11.25,13.57-2.22-1.35-11.35-12.96,2.32Zm6.34,2.01l3.97,1.79-2.55,3.16-3.89-1.82,2.47-3.13Z"/><path id="uuid-c79b92a1-1a96-46e3-8c92-ce62726cca7b" d="m245.89,174.65l2.69,12.17,14.08-4.27-4.63-11.96-12.14,4.06Zm7.16,1.29l3.97,1.79-2.55,3.16-3.89-1.82,2.47-3.13Z"/><path id="uuid-4fcb01d9-5b29-436b-b2e1-8c6a97d15ed8" d="m270.45,166.89l3.49,10.79,12.23-4.54-5.4-10.24-10.32,3.98Zm6.6.81l4.23,1.03-1.93,3.58-4.15-1.07,1.85-3.53Z"/><path id="uuid-a1b32276-00ae-4524-ab6a-ac09af1af339" d="m254.41,159.73l3.42,11.09,12.73-3.96-4.61-11.97-11.54,4.84Zm5.78.79l4.24,1.02-1.92,3.58-4.16-1.06,1.84-3.54Z"/><path id="uuid-1439d665-5f00-4121-b4da-732828218f5e" d="m239.55,151.79l2.78,11.69,12.29-3.99-4.19-11.67-10.87,3.97Zm6.5,1.43l4.12,1.42-2.26,3.38-4.03-1.46,2.17-3.34Z"/><path id="uuid-2d52483a-2b27-4139-9c09-448aa7bdc5ba" d="m230.48,166.02l1.45,11.76,14.19-2.73-3.4-11.96-12.24,2.93Zm6.34,2.52l3.97,1.79-2.55,3.16-3.89-1.82,2.47-3.13Z"/><path id="uuid-13ea7bad-7d0b-4c84-8993-154323985cd9" d="m142.09,167.3l5.03-11.71-1.85-.72-10.58,9.14,7.4,3.29Z"/><path id="uuid-2f124c2a-aa5d-40ba-bbe7-27983122c3d1" d="m260.34,143.88l5.44,10.99,4.52-1.85-8.01-10.17-1.95,1.03Z"/><path id="uuid-e92207be-2af0-4c97-84a8-82bd39cccfb6" d="m155.77,145.64c10.67,6.44,22.89,8.51,34.88,10.14,8.61,1.17,17.42.58,26.06-.32,8.57-.9,17.09-2.58,25.35-5.03,6.56-1.94,12.86-4.7,19.06-7.62" style="fill:none; stroke:#55a; stroke-linecap:round; stroke-linejoin:round; stroke-width:2px;"/><path id="uuid-f588f76c-6d08-4258-af36-666a2f93b585" d="m289.41,170.74c-5.07,2.59-9.98,5.5-15.2,7.78-3.79,1.65-7.73,2.95-11.67,4.24-4.78,1.57-9.61,3.04-14.5,4.24-4.67,1.15-9.38,2.14-14.14,2.83-4.68.68-9.74,1.36-14.45,1.78-4.6.41-8.87.49-13.48.7-4.59.2-9.2.23-13.79,0-4.73-.24-9.46-.71-14.14-1.41-4.75-.71-9.49-1.63-14.14-2.83-4.55-1.17-9.01-2.67-13.44-4.24-4.54-1.61-9.04-3.34-13.44-5.3-3.61-1.61-7.07-3.54-10.61-5.3" style="fill:none; stroke:#55a; stroke-linecap:round; stroke-linejoin:round; stroke-width:2px;"/><path id="uuid-98c12316-e097-4f31-afb8-d0226538a79f" d="m257.13,135.03s-12.75,5.86-19.44,7.88c-6.88,2.07-13.99,3.44-21.12,4.28-6.98.83-14.06,1.25-21.06.75-7.32-.52-14.58-1.99-21.66-3.91-4.22-1.14-12.31-4.5-12.31-4.5l-2.26,2.4s9.07,3.7,13.79,4.97c7.27,1.96,14.68,3.49,22.22,4.03,7.24.52,14.48.07,21.66-.78,7.3-.87,14.58-2.28,21.62-4.41,6.96-2.1,20.23-8.19,20.23-8.19l-1.66-2.53Z"/><path id="uuid-29ca5515-d217-4814-8707-113c5698017c" d="m238.21,69.58s-.9,14.71.29,21.92c1.14,6.92,3.79,13.54,6.5,20,3.49,8.32,7.67,16.38,12.5,24,3.25,5.13,7.01,9.93,11,14.5,5.42,6.22,10.71,12.82,17.5,17.5,4.36,3.01,9.58,4.53,14.5,6.5,4.71,1.88,14.35,5.07,14.35,5.07" style="fill:none; stroke:#55a; stroke-linecap:round; stroke-linejoin:round; stroke-width:2px;"/><path id="uuid-bf0b6168-d7d3-48c4-9711-c84f61d03b4f" d="m102.91,195.09s13.85,10.11,19.59,16.41c5.33,5.84,13.5,19.5,13.5,19.5,0,0-14.79,12.24-21,19.5-7.18,8.4-13.32,17.74-18.5,27.5-4.38,8.26-8.01,16.99-10.5,26-1.71,6.18-2.17,12.64-3,19-.63,4.82-1.5,14.5-1.5,14.5l-52-50v-25.5" style="fill:#ffff58; stroke:#000; stroke-linecap:round; stroke-linejoin:round; stroke-width:2px;"/><path id="uuid-aa51e5bf-3479-4d09-8d07-917d01464496" d="m36.5,265.5l68-62.5s8.81,7.6,12.58,12c3.57,4.16,9.42,13.5,9.42,13.5,0,0-11.82,11.58-17,18-6.48,8.02-12.45,16.51-17.5,25.5-3.58,6.37-6.58,13.1-9,20-1.99,5.68-3.55,11.55-4.5,17.5-.81,5.11-1,15.5-1,15.5l-40.5-40.5-.5-19Z" style="stroke:#000; stroke-linecap:round; stroke-linejoin:round; stroke-width:2px;"/><path id="uuid-ade4fc88-091a-4024-8633-8e153badb649" d="m90.8,221.48c-.06-1.63,1.15-4.75,1.15-4.75,0,0,2.87,1.49,4.08,2.54,1.26,1.09,3.23,3.81,3.23,3.81,0,0,1.29-2.92,2.24-4.18,1.06-1.43,3.8-3.76,3.8-3.76,0,0,1.45,3.17,1.63,4.87.21,2-.71,6-.71,6,0,0,3.39-1.65,5.22-1.98,1.74-.32,5.3,0,5.3,0,0,0-1.76,3.63-3.03,5.17-1.3,1.57-4.59,4.04-4.59,4.04,0,0,2.36.83,3.28,1.62,1.07.92,2.43,3.46,2.43,3.46,0,0-2.59,1.55-4.04,1.87-1.27.29-3.9.03-3.9.03,0,0,.84,2.8.85,4.24.01,1.58-.85,4.66-.85,4.66,0,0-2.46-1.17-3.44-2.08-1.09-1.01-2.59-3.64-2.59-3.64,0,0-1.14,3.96-2.22,5.68-1.24,1.97-4.77,5.12-4.77,5.12,0,0-.71-4.84-.69-7.27.01-2.01.65-6,.65-6,0,0-3.08,1.64-4.75,2.1-1.74.49-5.38.69-5.38.69,0,0,.94-3.86,1.99-5.51,1.18-1.86,4.68-4.66,4.68-4.66,0,0-2.95-.72-4.31-1.37-1.66-.8-4.59-3.07-4.59-3.07,0,0,3.27-2.54,5.22-2.95,1.9-.4,5.79.55,5.79.55-1.4-1.18-1.61-3.41-1.68-5.24Z" style="fill:#ffff58;"/><path id="uuid-a382042c-16a0-48dd-9947-76f42834eabc" d="m98.53,226.22c-1.57.13-3.07,1.15-4.09,2.34-1.02,1.19-1.74,2.83-1.69,4.41.07,1.82,1.03,3.65,2.31,4.94,1.27,1.28,3.07,2.35,4.88,2.34,1.72,0,3.44-1.03,4.62-2.28,1.19-1.26,2.12-3.05,2.03-4.78-.1-1.89-1.32-3.73-2.75-4.97-1.43-1.24-3.43-2.15-5.31-2Zm.16,2c1.38-.11,2.83.62,3.88,1.53,1.03.9,1.96,2.2,2.03,3.56.06,1.2-.64,2.41-1.47,3.28-.83.88-2.01,1.66-3.22,1.66-1.28,0-2.51-.84-3.41-1.75-.93-.95-1.7-2.26-1.75-3.59-.04-1.1.51-2.23,1.22-3.06.68-.8,1.67-1.54,2.72-1.62Z"/><path id="uuid-7ad74a5c-2495-40a7-88ce-deb2dc9ccdf2" d="m56.68,267.88v-8.58s6.3-.7,8.26-2.86c1.83-2.02,1.91-7.94,1.91-7.94h12.07l-22.24,19.38Z" style="fill:#ffff58;"/><path id="uuid-c89bfaef-253d-4881-a5bd-535ef97cc561" d="m71.4,261.77c-1.27,1.29-.72,4.2.64,5.4,1.35,1.2,4.13,1.27,5.4,0,1.12-1.12,1.06-3.58,0-4.77-1.35-1.5-4.61-2.07-6.04-.64h0Z" style="fill:#ffff58;"/><path id="uuid-b926c520-28c0-468d-b14e-ac76845ce8fd" d="m90.36,259.3l-16.84,20.97,9.21-1.91s-.24-5.35,1.27-7.31c1.57-2.02,6.99-3.18,6.99-3.18l-.64-8.58Z" style="fill:#ffff58;"/><path id="uuid-e23b4f77-9b3f-426b-b57a-a01cb23a26b1" d="m41.12,285.35c3.38.7,6.88.77,9.53,5.08.39-7.23,4.25-11,7.94-14.93,2.07,5.19,3.17,10.38,0,15.57,5.74-5.01,10.54-2.56,15.57-1.91-2.36,4.61-5.39,8.76-11.12,11.12,3.93,3.23,5.42,7.67,6.35,12.39-1.91-.45-3.81-.7-5.72-2.22l-20.01-20.01c-1.12-1.69-1.77-3.39-2.54-5.08Z" style="fill:#ffff58;"/><path id="uuid-7c19d299-bda8-4e88-bf7c-70b32b351505" d="m54.94,292c-1.33-.4-2.86.14-4.09.78-1.2.62-2.33,1.62-2.94,2.81l1.6,1.09c.35-.68,1.35-1.64,2.28-2.12.86-.45,1.92-.88,2.84-.59,1.53.47,2.74,1.98,3.34,3.47.58,1.43.16,3.09,0,4.62-.11,1.03-.66,3.03-.66,3.03l1.91,1.41s.61-2.74.71-4.13c.14-1.87.65-3.9-.09-5.62-.91-2.09-2.73-4.1-4.91-4.75Z"/><path id="uuid-78b1297f-b158-429b-bc3d-df3125beba54" d="m136.74,231.98s7.78,15.01,9.85,23.14c1.6,6.3,2.03,12.91,1.85,19.4-.24,8.8-1.34,17.7-3.94,26.11-2.61,8.46-6.6,16.58-11.52,23.94-4.87,7.27-17.53,19.55-17.53,19.55" style="fill:none; stroke:#000; stroke-linecap:round; stroke-linejoin:round; stroke-width:2px;"/><path id="uuid-1810efe4-0c5a-4d9e-a3be-cea044f1c01f" d="m133.25,234.84s6.08,12.4,7.62,19.06c1.9,8.17,2.34,16.72,1.91,25.1-.38,7.32-1.72,14.65-3.93,21.64-2.22,7.01-5.36,13.8-9.27,20.03-4.13,6.59-9.14,12.69-14.76,18.06-2.96,2.82-9.85,7.31-9.85,7.31" style="fill:none; stroke:#000; stroke-linecap:round; stroke-linejoin:round; stroke-width:2px;"/><path id="uuid-34445334-997e-40ba-b48c-ebffb41e2cdf" d="m129.43,238.33s4.71,11.46,6.04,17.47c1.47,6.66,2.33,13.53,2.08,20.34-.29,7.81-1.79,15.61-4.1,23.08-2.18,7.03-5.06,13.97-9.1,20.12-4.32,6.58-10,12.24-15.88,17.47-4.77,4.24-15.57,11.12-15.57,11.12" style="fill:none; stroke:#000; stroke-linecap:round; stroke-linejoin:round; stroke-width:2px;"/><path id="uuid-5cbf6283-7e38-4d85-b881-7adf0c2b8a40" d="m125.67,240.73s3.61,9.07,4.71,13.81c1.29,5.52,2.07,11.19,2.2,16.85.15,6.74-.16,13.59-1.73,20.14-1.74,7.28-4.6,14.38-8.41,20.83-3.75,6.35-8.56,12.15-13.98,17.16-6.15,5.68-20.65,14.3-20.65,14.3" style="fill:none; stroke:#000; stroke-linecap:round; stroke-linejoin:round; stroke-width:2px;"/><path id="uuid-981977b9-de07-447f-8bd8-af60ba672c60" d="m170.79,130.6l-15.49,14.26-29.9,27.62-35.05,33.14-29.9,28.76-30.95,28.38" style="stroke:#55a; stroke-linecap:round; stroke-linejoin:round; stroke-width:2px;"/><path id="uuid-61e196c4-64a3-4255-9782-ed2b7c6fd0e6" d="m141.63,205.75l17.32,4.6-7.02,21.38-17.29-4.24,6.99-21.74Z" style="fill:#f55;"/><path id="uuid-bf6c6476-1b04-4ba2-9876-83014df3c262" d="m180.27,199.35c-2.21.68-4.43,1.35-6.64,2.03,1.29,1.17,2.58,2.34,3.87,3.5-1.78.8-3.57,1.6-5.35,2.4,1.17,1.29,2.34,2.58,3.5,3.87-2.15.86-4.3,1.72-6.46,2.58,1.11,1.41,2.21,2.83,3.32,4.24-2.15.68-4.3,1.35-6.46,2.03,1.35,1.48,2.71,2.95,4.06,4.43-1.97.68-3.94,1.35-5.9,2.03.86,1.54,1.72,3.07,2.58,4.61-1.48,1.11-3.15,2.21-4.62,3.32,7.13,1.17,14.46,2.34,21.59,3.5-.86-1.6-1.72-3.2-2.58-4.8l4.24-2.21c-.8-1.84-1.6-3.69-2.4-5.53,2.09-.8,4.18-1.6,6.27-2.4-.92-1.97-1.84-3.94-2.77-5.9,1.97-.37,3.94-.74,5.9-1.11-1.29-1.66-2.58-3.32-3.87-4.98,1.97-.49,3.94-.98,5.9-1.48-1.05-1.41-2.09-2.83-3.14-4.24,1.97-.8,3.94-1.6,5.9-2.4-1.64-.79-3.25-1.68-4.9-2.41-4.02-.37-8.05-.73-12.07-1.1h0Z" style="fill:#ff5;"/><path id="uuid-3c11ec76-7cfa-4df4-b3ac-56f61d02c549" d="m181.92,199.54c-2.37,5.56-5.33,11.43-7.7,17.28-2.56,6.33-4.87,13.41-7.01,19.24" style="fill:none; stroke:#000; stroke-linecap:round; stroke-linejoin:round; stroke-width:2px;"/><path id="uuid-9eee6728-9a64-4b98-ac32-7d1e6ebf9f9d" d="m191.12,200.62c-2.8,6.06-5.39,12.15-7.7,18.37-2.15,5.81-4.05,11.72-5.73,17.68" style="fill:none; stroke:#000; stroke-linecap:round; stroke-linejoin:round; stroke-width:2px;"/><path id="uuid-faa3737c-91be-402f-8e0f-e49f30a64699" d="m185.57,200.37c-.75.1-1.54,1.1-1.35,1.84.19.73,1.36,1.23,2.06.95.57-.22.87-1.09.71-1.67-.15-.59-.83-1.2-1.43-1.12h0Z"/><path id="uuid-a0d01bd3-91c4-45ee-8c0c-0c7d4aa88bba" d="m182.92,206.75c-.76.1-1.55,1.1-1.36,1.84.19.75,1.37,1.25,2.09.97.57-.22.87-1.11.71-1.7-.15-.59-.84-1.19-1.44-1.11Z"/><path id="uuid-9b14eb23-8a4c-4b79-94d1-3bcb5a4b87da" d="m179.97,213.3c-.77.12-1.56,1.17-1.33,1.92.23.74,1.47,1.15,2.17.83.54-.25.76-1.11.59-1.67-.17-.57-.84-1.17-1.43-1.08h0Z"/><path id="uuid-57fceaf7-b110-4b11-b1bb-20b3b8ddb625" d="m177.68,219.8c-.76.1-1.56,1.09-1.37,1.84.18.74,1.35,1.27,2.07,1,.58-.21.89-1.09.74-1.69-.15-.59-.83-1.23-1.44-1.15h0Z"/><path id="uuid-b8ce1cdb-9df6-41ce-a54a-e54e73d5ea75" d="m175.37,226.24c-.79.14-1.62,1.22-1.35,1.98.27.76,1.61,1.07,2.31.68.5-.28.63-1.12.43-1.66-.19-.54-.83-1.09-1.39-.99Z"/><path id="uuid-dcfcb930-c29f-4ef1-a54f-131dbf08898a" d="m172.98,232.69c-.77.12-1.57,1.17-1.34,1.91.23.74,1.47,1.16,2.18.83.54-.25.75-1.11.58-1.67-.17-.57-.83-1.16-1.42-1.07Z"/><path id="uuid-113d2b71-b098-4c06-b37a-77e63bc57bb2" d="m204.91,215.92l19.86.31-9.75,24.11-19.05-1.51,8.94-22.91Z" style="fill:#f55;"/></g><g id="uuid-6e7ec8be-e0e5-4f05-8e13-8db5b5028af0"><path id="uuid-1fd59209-d358-4c67-9181-4222dd2e0fc0" d="m214.44,341.88l-1.95,7.6s-8.62-3.27-13.06-4.48c-5.25-1.44-10.63-2.38-15.99-3.31-3.17-.55-6.35-1.1-9.55-1.36-6.48-.53-13-.52-19.5-.39-6.57.13-13.14.59-19.69,1.17-3.32.29-6.64.69-9.94,1.17-3.79.55-11.31,1.95-11.31,1.95l12.87-12.48,24.18-.19,12.48-31.2-19.11-1.36,3.7-21.06s14.71.68,22.03,1.36c6.78.63,13.54,1.5,20.28,2.53,4.31.66,8.57,1.61,12.87,2.34,3.24.55,9.75,1.56,9.75,1.56,0,0,2.68,6.97,4.29,10.33,2.52,5.27,8.38,15.4,8.38,15.4l-17.74-4.29-9.75,29.05,16.77,5.65Z"/><path id="uuid-0d3815c0-a206-46ef-b7ce-060a752622ce" d="m238.48,361.88s-8.46-5.52-12.97-7.76c-4.21-2.1-13.08-5.3-13.08-5.3l11.67-37.48s6.51,9.23,10.25,13.44c3.5,3.93,7.41,7.48,11.36,10.96,3.39,2.98,10.56,8.49,10.56,8.49l-17.79,17.66Z" style="fill:#55a;"/><path id="uuid-f03ab85e-2803-4245-801f-d2d62c1b7f36" d="m236.11,295.07s-4.47-13.5-5.3-20.51c-.88-7.37-.91-14.96.35-22.27,1.13-6.5,3.58-12.76,6.36-18.74,2.5-5.37,5.35-10.69,9.19-15.2,3.31-3.88,7.52-6.93,11.67-9.9,5.25-3.75,16.62-9.9,16.62-9.9l3.54,3.18s-1.36,14.23-2.83,21.21c-1.57,7.45-3.64,14.81-6.36,21.92-2.53,6.6-5.87,12.86-9.19,19.09-3.28,6.15-6.3,12.54-10.61,18.03-3.86,4.92-13.44,13.08-13.44,13.08h0Z" style="fill:#55a;"/><path id="uuid-c86e4132-9ffe-4938-b125-03a3b57b75a5" d="m242.47,288.35s-4.25-12.79-4.6-19.45c-.38-7.36.83-14.83,2.83-21.92,1.96-6.96,4.83-13.78,8.84-19.8,3.05-4.58,7.08-8.5,11.31-12.02,4.85-4.04,15.91-10.25,15.91-10.25,0,0-1.5,14.67-2.83,21.92-1.01,5.48-2.06,11-3.89,16.26-2.3,6.62-5.59,12.88-8.84,19.09-2.59,4.96-5.21,9.96-8.49,14.5-3.03,4.2-10.25,11.67-10.25,11.67h0Z" style="fill:#f55;"/><g id="uuid-e72c0e43-d063-4781-a21c-cc7af77adb49"><path id="uuid-89dc835d-d2c8-46a6-93cc-b1b59dc327ea" d="m311.74,313.86l5.8-12.99s-.83-4.23-2.54-4.98c-1.03-.45-2.32.13-3.25.89-1.19.97-2.5,4.31-2.5,4.31l-4.96,10.44" style="fill:#ff5; stroke:#55a; stroke-linecap:round; stroke-linejoin:round; stroke-width:1.79px;"/><path id="uuid-91723f73-5293-4c50-803c-d3867765fd9e" d="m316.55,301.24s-2.48,1.01-3.8,1.09c-1.05.07-3.13-.47-3.13-.47" style="fill:none; stroke:#55a; stroke-linecap:round; stroke-linejoin:round; stroke-width:1.79px;"/></g><path id="uuid-d606b497-5046-434c-bd4c-6d5b23e0b7da" d="m193.29,473.72s13.78-14.05,19.08-22.26c5.54-8.59,9.7-18.11,12.99-27.79,2.85-8.4,4.36-17.22,5.74-25.98.82-5.2,1.1-10.47,1.51-15.71.39-5.03.91-15.11.91-15.11l-45.01,41.69s2.72,9.17,3.32,13.9c.6,4.7.25,9.47.3,14.2.07,6.34-.2,12.69,0,19.03.19,6.02,1.16,18.03,1.16,18.03h0Z"/><path id="uuid-af4a699b-cd57-482b-9f2b-47a40fed90bf" d="m59.72,365.13c5.07-2.59,12.07-6.07,18.25-8.79,5.83-2.57,11.71-5.06,17.76-7.08,5.08-1.7,10.31-2.95,15.51-4.24,4.82-1.19,9.64-2.49,14.55-3.23,5.08-.77,10.24-.89,15.36-1.27,4.12-.3,8.24-.72,12.37-.8,5-.09,10.01.12,15.01.41,4.59.26,9.2.5,13.74,1.21,5.12.8,10.15,2.12,15.16,3.44,4.32,1.13,8.58,2.45,12.83,3.84,4.65,1.52,9.35,2.95,13.84,4.9,5.26,2.29,11.74,6.17,15.28,7.94l-45.29,42.05s-2.74-.51-4.1-.81c-2.59-.57-2.45-.95-7.73-1.86-2.5-1.04-4.17-3.57-6.65-4.64-3.02-1.31-6.38-2.04-9.67-2.03-6.29.01-13.87,1.7-18.45,3.96-2.38,0-4.49.4-6.73.62-3.11.3-6.23.52-9.33.95-3.33.45-6.69.81-9.92,1.71-2.77.77-5.39,1.98-8.03,3.12-2.89,1.25-8.53,4.07-8.53,4.07-3.98-6.64-9.04-15.5-17.59-23.6-4.28-4.05-9.28-9.74-13.55-12.98s-11.07-5.27-14.07-6.86h0Z" style="fill:#ffff58;"/><path id="uuid-e9cdb3c3-9526-49ca-9148-258bca24d0ad" d="m192.31,435.84s6.09-9.73,8.58-14.9c1.79-3.71,3.39-7.53,4.53-11.48.9-3.11,1.51-6.33,1.82-9.55.26-2.74,0-8.27,0-8.27l-19.03,16.92s2.64,8.57,3.32,12.99c.72,4.72.78,14.29.78,14.29h0Z" style="fill:#f55;"/><path id="uuid-bdeb7931-937f-4c24-a978-bf21e3f89846" d="m135.5,509.5l-65.5-84.17-7.83,1.67,59.33,82.5h14Z"/><path id="uuid-ab41c467-5a9a-4d4f-9cc8-dd35dd8159d4" d="m52.5,509.5c1.67-9.9,2.34-19.97,2-30-.35-10.17-1.75-20.36-5-30-2.39-7.09-5.76-13.84-10-20,3.33.22,6.67.22,10,0,4.38-.29,8.74-.96,13-2l59,82H52.5" style="fill:#ff5; stroke:#55a; stroke-linecap:round; stroke-linejoin:round; stroke-width:2px;"/><path id="uuid-49088e57-1f81-4baf-861c-9b69f8257b08" d="m85.91,484.03c-.4-.99-.85-1.98-1.52-2.81-.88-1.09-1.84-2.31-3.19-2.74-1.69-.54-3.99-.72-5.39.45-1.36,1.15-1.79,3.43-1.35,5.11.51,1.93,4.23,4.18,4.23,4.18,0,0-4.73,1.58-5.56,3.61-.78,1.91.03,4.45,1.44,5.88,1.39,1.41,3.93,2.34,5.8,1.52,2.1-.92,3.3-6.02,3.3-6.02,0,0,.84,3.75,2.05,5.13,1.08,1.22,2.63,2.42,4.29,2.38,1.48-.03,3.18-.96,3.87-2.28,1.09-2.08.61-4.97-.63-6.88-1.24-1.92-6-3.34-6-3.34,0,0,1.27,2.7-.98,4.26-1.8,1.25-5.05-.24-6.05-2.11-.85-1.58-.4-4.62,1.3-5.35,3.39-1.45,5.12,1.72,5.12,1.72,0,0-.39-1.85-.74-2.71h0Z" style="stroke:#000100; stroke-linecap:round; stroke-linejoin:round; stroke-width:2px;"/><path id="uuid-1db65995-e273-49be-a1a1-32e983cccbb3" d="m66.33,456.79c-.35-.9-.76-1.79-1.35-2.54-.78-.99-1.64-2.09-2.85-2.48-1.51-.49-3.56-.66-4.81.41-1.22,1.04-1.6,3.11-1.2,4.62.46,1.74,3.77,3.78,3.77,3.78,0,0-3.71,1.83-4.29,3.6-.57,1.73-.01,4.03,1.28,5.32,1.1,1.08,3.1,1.67,4.5,1.04,1.88-.85,2.94-5.45,2.94-5.45,0,0,.75,3.39,1.83,4.64.96,1.11,2.34,2.19,3.83,2.15,1.32-.03,2.83-.87,3.45-2.06.97-1.88.55-4.49-.56-6.22-1.11-1.73-5.35-3.02-5.35-3.02,0,0,1.14,2.44-.88,3.86-1.61,1.13-4.5-.22-5.39-1.91-.76-1.43-.36-4.18,1.16-4.84,3.03-1.31,4.57,1.56,4.57,1.56,0,0-.35-1.67-.66-2.45h0Z" style="stroke:#000100; stroke-linecap:round; stroke-linejoin:round; stroke-width:2px;"/><path id="uuid-d788e473-6b19-4be9-b2f4-3f779ec98273" d="m112.17,507.83s-.59-11.23-5.5-16.83c-4.72-5.39-10.28-5.61-15.17-5.17,0,0,2.3-13.14-2-18.5-4.66-5.81-20-10.33-20-10.33,0,0,3.58-10.05-1.33-17-2.72-3.85-11.83-9.5-11.83-9.5" style="fill:none; stroke:#000; stroke-linecap:round; stroke-linejoin:round; stroke-width:2px;"/><path id="uuid-49d87609-c903-4ed9-8c4f-97ce87821dd4" d="m107.41,508.86c.69,0,1.34-.54,1.47-1.22,0,0,1.82-8.33-4.06-14.22-.91-.91-2.22-1.69-3.81-2.56s-3.44-1.76-5.19-2.56c-3.05-1.4-5.15-2.2-5.81-2.47,0-.71.02-2.23-.38-5.03-.48-3.37-1.09-8.16-3.32-11.32-4.14-5.86-8.89-8.36-12.3-10.05-2.23-1.1-3.76-1.49-4.78-1.69-.1-.77-.28-2.43-.84-5.28-.68-3.45-1.61-7.37-3.19-9.91-1.65-2.66-4.93-5.5-7.88-7.84s-5.56-4.12-5.56-4.12c-.65-.44-1.65-.25-2.09.41s3.09,3.15,3.74,3.59c0,0,2.36,3.36,2.88,6.8,2.85,2.27,4.93,2.32,6.55,4.4,1.58,2.03,1.96,3.95,2.61,7.27s1,6.12,1,6.12c.08.68.69,1.26,1.38,1.31,0,0,5.7,1.43,7.84,3.29,2.47,2.14,5.69,2.96,5.04,8.42,1.73,2.45,5.51,5.9,5.96,9.04s.44,5.56.44,5.56c-.02.61.37,1.21.94,1.44,0,0,3.11,1.24,6.53,2.81,1.71.78,3.8,1.05,5,2.47,1.47,1.74,1.55,6.12,1.96,6.53,4.66,4.66,4.42,6.97,4.42,6.97-.21.88.56,1.85,1.47,1.84h0Z"/><path id="uuid-cfcd936f-4a49-4eb7-b8dd-8d79648ae532" d="m148.5,509.5h-13.33L29.5,370.83v-32.33l119,171Z" style="fill:#f55; stroke:#55a; stroke-width:2px;"/><path id="uuid-d6295869-ed79-4104-a65b-99da89b70615" d="m172.51,509.5s-1.77-11.3-14.65-22.17c-12.88-10.88-34.36-15.23-34.36-15.23" style="fill:none; stroke:#55a; stroke-linecap:round; stroke-linejoin:round; stroke-width:2px;"/><path id="uuid-31e7122c-afc7-4ad5-ac4b-81c02a25440d" d="m167.34,509.5s-5.21-11.83-12.43-17.84c-7.22-6.01-27.53-13.11-27.53-13.11" style="fill:none; stroke:#55a; stroke-linecap:round; stroke-linejoin:round; stroke-width:2px;"/><path id="uuid-620d1008-a677-4239-9bcb-f856c99b88dc" d="m161.23,509.5s-4.41-10.06-9.79-14.64c-5.38-4.58-19.92-10.53-19.92-10.53" style="fill:none; stroke:#55a; stroke-linecap:round; stroke-linejoin:round; stroke-width:2px;"/><path id="uuid-9c1ff6de-4cde-43cf-84f6-8fb47c16947b" d="m156.21,509.5s-2.73-6.83-7.03-10.38-12.89-7.39-12.89-7.39" style="fill:none; stroke:#55a; stroke-linecap:round; stroke-linejoin:round; stroke-width:2px;"/><path id="uuid-502b74be-8b47-445c-84d7-e5b445bf47b6" d="m170.56,501.96s.84-4.09,6.14-12.96c5.3-8.87,15.75-12.63,15.75-12.63" style="fill:none; stroke:#55a; stroke-linecap:round; stroke-linejoin:round; stroke-width:2px;"/><path id="uuid-bb91b0f1-f43b-4a3c-b870-d45aafd3a2e9" d="m174.45,509.5s.17-7.05,5-14.56,12.94-11.31,12.94-11.31" style="fill:none; stroke:#55a; stroke-linecap:round; stroke-linejoin:round; stroke-width:2px;"/><path id="uuid-544ad42e-dc79-4845-bda8-888b8627f606" d="m179.82,509.5s1.93-7.46,4.51-12.04c2.58-4.58,7.86-7.9,7.86-7.9" style="fill:none; stroke:#55a; stroke-linecap:round; stroke-linejoin:round; stroke-width:2px;"/><path id="uuid-c248ce15-cdcd-4a76-a5a7-6cfa00da2d76" d="m185.95,509.5s-.18-4.4,1.94-7.95,3.59-3.98,3.59-3.98" style="fill:none; stroke:#55a; stroke-linecap:round; stroke-linejoin:round; stroke-width:2px;"/><path id="uuid-64dc581c-240e-4eaf-8437-714390b4fe8d" d="m173.09,456.21s-.6-2.7-.53-4.06c.17-3.58,1.2-7.1,2.41-10.47.8-2.21,3-3.95,3.16-6.29.13-1.95-.62-4.06-1.9-5.54-.9-1.04-2.64-.97-3.68-1.87-.84-.73-1.91-2.74-1.91-2.74" style="fill:none; stroke:#55a; stroke-linecap:round; stroke-linejoin:round; stroke-width:2px;"/><path id="uuid-49063d96-ac2e-4a02-960a-326cf7a26f81" d="m160.75,436.72s-3.32-3.56-2.86-5.6c.3-1.34,1.91-2.28,3.27-2.49,1.78-.27,3.4,1.19,5.08,1.83,1.59.61,3.13,2.43,4.75,1.9.65-.21,1.42-1.14,1.09-1.74-.54-.98-2.24.01-3.36-.05-3.39-.2-7.44-3.12-10.14-1.06-.87.66-.78,2.17-.54,3.24.35,1.57,2.72,3.99,2.72,3.99h0Z" style="fill:#55a; stroke:#55a; stroke-linecap:round; stroke-linejoin:round; stroke-width:2px;"/><path id="uuid-2e742893-8764-49e7-9d6d-20f710aa3566" d="m127.3,459.73s9.21,6.28,14.5,7.65c4.16,1.08,8.74,1.37,12.89.27,1.67-.44,4.45-2.66,4.45-2.66,0,0-4.08,1.31-6.19,1.54-4.27.46-8.71.68-12.88-.38-4.62-1.17-12.78-6.41-12.78-6.41Z" style="fill:#55a; stroke:#55a; stroke-linecap:round; stroke-linejoin:round; stroke-width:2px;"/><path id="uuid-d8060d29-ca0d-4e78-a06d-50582ff4ba66" d="m191.23,465.25s-5.57,2.98-8.54,2.65c-3.7-.41-9.59-5.53-9.59-5.53,0,0,6.24,4.26,9.86,4.37,3.04.09,8.51-3.15,8.51-3.15l-.24,1.65Z" style="fill:#55a; stroke:#55a; stroke-linecap:round; stroke-linejoin:round; stroke-width:2px;"/><path id="uuid-bd2a55f8-27c6-41f4-986b-f6f8ea58703d" d="m155.56,416.53s4.7,1.88,7.15,2.04c1.84.13,3.65-.7,5.49-.79,2.1-.1,4.26.85,6.31.29,1.12-.31,3.03-1.94,3.03-1.94,0,0-2.09.46-3.14.4-2.14-.13-4.14-1.57-6.28-1.57-2.36,0-4.55,1.46-6.93,1.71-1.87.2-5.63-.16-5.63-.16h0Z" style="fill:#55a; stroke:#55a; stroke-linecap:round; stroke-linejoin:round; stroke-width:2px;"/><path id="uuid-d2d5e7a7-b806-4911-a293-6e088872fa4b" d="m161.92,411.67s3.94-1.37,5.99-1.42c1.75-.04,5.17.99,5.17.99" style="fill:none; stroke:#55a; stroke-linecap:round; stroke-linejoin:round; stroke-width:2px;"/><path id="uuid-102cd022-4341-42ab-aa6f-7011837eed7a" d="m173.87,456.6s5.03,4.11,9.65,4.21c4.94.11,7.89-2.52,7.89-2.52" style="fill:none; stroke:#55a; stroke-linecap:round; stroke-linejoin:round; stroke-width:2px;"/><path id="uuid-40a37aef-9977-4237-b5bd-def9fad0c172" d="m130.89,454.45s9.86,7.33,15.53,7.16c7.42-.21,12.96-5.56,12.96-5.56" style="fill:none; stroke:#55a; stroke-linecap:round; stroke-linejoin:round; stroke-width:2px;"/><path id="uuid-b1dba940-130b-4f81-b628-cf27ab62ed47" d="m129.79,452.88c5.85.76,10.15,3.3,15.54,3.76,4.62.39,13.94-1.04,13.94-1.04" style="fill:none; stroke:#55a; stroke-linecap:round; stroke-linejoin:round; stroke-width:2px;"/><path id="uuid-0ea5aa4c-d205-4501-945e-27265103d6e7" d="m192.05,452.81c-5.39,2.54-4.23,3.35-9.62,3.81-4.62.39-9.45-2.23-9.45-2.23" style="fill:none; stroke:#55a; stroke-linecap:round; stroke-linejoin:round; stroke-width:2px;"/><path id="uuid-e5de299a-cb51-4f0e-ba6c-1cb1a51194f2" d="m133.03,452.42c5.27-1.2,10.77-5.08,16.73-5.38,4.42-.22,9.15,2.81,9.54,6.9" style="fill:none; stroke:#55a; stroke-linecap:round; stroke-linejoin:round; stroke-width:2px;"/><path id="uuid-bbe5ea45-9b9f-439b-9e5d-3c00eb9c354e" d="m144.12,455.1c-.94-5.06,4.02-6.56,7.58-6.12,2.41.3,4.65,3.26,3.49,6.15" style="fill:none; stroke:#55a; stroke-linecap:round; stroke-linejoin:round; stroke-width:2px;"/><path id="uuid-fac9fa9b-79a4-4737-9c6b-53632d4e379e" d="m152.37,452.26c.1.92-.75,2.18-1.71,2.23-.84.04-1.72-.98-1.71-1.78.02-.84.98-1.76,1.86-1.78.7-.02,1.48.67,1.55,1.34h0Z" style="fill:#55a; stroke:#55a; stroke-linecap:round; stroke-linejoin:round; stroke-width:2px;"/><path id="uuid-e0c6f828-9277-4b43-9a44-0ddcbb547ad7" d="m180.94,451.95c-.03.72.85,1.64,1.74,1.63.78-.02,1.53-.86,1.46-1.49-.08-.65-1.04-1.31-1.85-1.27-.65.03-1.33.61-1.35,1.13h0Z" style="fill:#55a; stroke:#55a; stroke-linecap:round; stroke-linejoin:round; stroke-width:2px;"/><path id="uuid-230f1b1e-90f3-4093-8e97-d9fb40918ae4" d="m174.53,448.09c2.09-2.46,2.24-4.64,6.58-6.73" style="fill:none; stroke:#55a; stroke-linecap:round; stroke-linejoin:round; stroke-width:2px;"/><path id="uuid-bedbf685-051e-46e8-aca8-0df80ddd3133" d="m159.98,455.14c-1.6-7.12-3.88-10.94-9.02-13.1" style="fill:none; stroke:#55a; stroke-linecap:round; stroke-linejoin:round; stroke-width:2px;"/><path id="uuid-5667a2fd-23cd-4265-9e2b-7b0e504855aa" d="m191.95,450.09c-2.86-1.8-6.51-2.87-11.18-2.75-3.46.09-6.97,2.54-7.03,5.5" style="fill:none; stroke:#55a; stroke-linecap:round; stroke-linejoin:round; stroke-width:2px;"/><path id="uuid-ea4e1307-2640-4414-b173-1135a743dc66" d="m186.67,455.4c1.11-4.9-1.1-7.54-5.14-7.45-1.78.04-5.42,4.04-2.75,7.84" style="fill:none; stroke:#55a; stroke-linecap:round; stroke-linejoin:round; stroke-width:2px;"/><path id="uuid-50af293d-c944-457a-a2bd-da7a716f64f6" d="m190.5,509.5s2.29-21.97,2.5-33c.16-8.67-.74-17.33-1-26-.24-8.16.41-16.38-.5-24.5-.65-5.75-.93-11.81-3.5-17-2.25-4.55-5.71-8.78-10-11.5-3.66-2.31-8.18-3.27-12.5-3.5-4.39-.23-8.83.81-13,2.21-5.7,1.91-10.99,4.98-16,8.29-5.04,3.32-9.86,7.11-14,11.5-3.11,3.3-8,11-8,11" style="fill:none; stroke:#55a; stroke-linecap:round; stroke-linejoin:round; stroke-width:2px;"/><path id="uuid-6b8a6f4e-1f49-4178-b554-54294c759fb8" d="m193.15,403.06c-4.67-2.41-8.82-2.83-11.95-3.19" style="fill:none; stroke:#55a; stroke-linecap:round; stroke-linejoin:round; stroke-width:2px;"/><path id="uuid-0e0a4957-af8e-47b6-b49b-e6a8727d573a" d="m148.44,397.48c-7.26,1.35-16.24,2.2-24.14,4.27-6.64,1.74-12.96,4.56-19.44,6.84" style="fill:none; stroke:#55a; stroke-linecap:round; stroke-linejoin:round; stroke-width:2px;"/><path id="uuid-b1494e31-44e0-4c09-a66d-0234cebb1c07" d="m116.61,422.69l-5.98-15.81" style="fill:none; stroke:#55a; stroke-linecap:round; stroke-linejoin:round; stroke-width:2px;"/><path id="uuid-db6e413d-119f-4296-9b7c-bc8e68b147f5" d="m120.03,418.42l-4.91-13.03" style="fill:none; stroke:#55a; stroke-linecap:round; stroke-linejoin:round; stroke-width:2px;"/><path id="uuid-973211d2-ba39-4d4c-bb76-43e90e8b5a17" d="m123.87,413.72l-3.2-9.4" style="fill:none; stroke:#55a; stroke-linecap:round; stroke-linejoin:round; stroke-width:2px;"/><path id="uuid-c741f3e3-405b-4214-87d6-fa52b47cd51e" d="m127.72,410.3l-2.99-7.48" style="fill:none; stroke:#55a; stroke-linecap:round; stroke-linejoin:round; stroke-width:2px;"/><path id="uuid-1924eba8-0598-4ce6-9c6d-f07de3684329" d="m131.77,406.88l-2.78-6.2" style="fill:none; stroke:#55a; stroke-linecap:round; stroke-linejoin:round; stroke-width:2px;"/><path id="uuid-0dca4346-aafa-4f2c-b09f-ccd21866c214" d="m135.62,404.11l-1.71-3.63" style="fill:none; stroke:#55a; stroke-linecap:round; stroke-linejoin:round; stroke-width:2px;"/><path id="uuid-1723530f-4c4e-4dff-bd95-67a88fdaeab5" d="m114.68,459.44c1-1.85,2.23-3.6,2.99-5.55,1.04-2.67,1.42-5.55,2.14-8.33" style="fill:none; stroke:#55a; stroke-linecap:round; stroke-linejoin:round; stroke-width:2px;"/><path id="uuid-0444fcb2-e817-4f01-9281-a90d567eb979" d="m110.63,453.45c1.28-2.56,2.91-4.98,3.85-7.69,1.16-3.37,1.42-6.98,2.14-10.47" style="fill:none; stroke:#55a; stroke-linecap:round; stroke-linejoin:round; stroke-width:2px;"/><path id="uuid-50b1e98d-72b1-4307-af5e-f8d3ae89297b" d="m106.99,448.11c1.14-2.71,2.59-5.3,3.42-8.12,1.28-4.37,1.57-8.97,2.35-13.46" style="fill:none; stroke:#55a; stroke-linecap:round; stroke-linejoin:round; stroke-width:2px;"/><path id="uuid-ec7f03f7-7991-4e00-ae41-84951989bc2a" d="m102.94,442.99c1.35-3.49,3.28-6.81,4.06-10.47,1.2-5.65.57-11.54.85-17.3" style="fill:none; stroke:#55a; stroke-linecap:round; stroke-linejoin:round; stroke-width:2px;"/><path id="uuid-ceb823fd-3ba6-4b14-a3ff-6cbc7475e89b" d="m98.66,437.43c1.21-2.56,2.97-4.93,3.63-7.69,1.76-7.34.43-15.1.64-22.64" style="fill:none; stroke:#55a; stroke-linecap:round; stroke-linejoin:round; stroke-width:2px;"/><path id="uuid-8fd1a928-75cc-4fa2-b5cf-5525a24f6ed2" d="m94.39,431.88c1.28-3.2,3.34-7.22,3.85-11.11.99-7.58-1.14-15.24-1.71-22.86" style="fill:none; stroke:#55a; stroke-linecap:round; stroke-linejoin:round; stroke-width:2px;"/><path id="uuid-8d3eea17-7e7f-4371-be13-19286856b1b4" d="m90.55,425.04c1.07-3.42,2.24-8.91,2.35-13.46.19-7.53-1.57-13.89-2.78-22.43" style="fill:none; stroke:#55a; stroke-linecap:round; stroke-linejoin:round; stroke-width:2px;"/><path id="uuid-2b96fbe4-206d-4eea-8f78-a926a5afd9e1" d="m85.85,418.42c.71-4.77.91-8.98.64-13.46-.51-8.51-2.14-17.02-4.27-25.21" style="fill:none; stroke:#55a; stroke-linecap:round; stroke-linejoin:round; stroke-width:2px;"/><path id="uuid-3886aae9-13e5-4d82-9dda-686baa745187" d="m80.29,410.3c.14-4.49.63-9.58,0-14.31-1.08-8.05-4.13-15.38-6.41-23.5" style="fill:none; stroke:#55a; stroke-linecap:round; stroke-linejoin:round; stroke-width:2px;"/><path id="uuid-f9e1b4c3-65b6-4546-af93-6bed2c3e5c88" d="m73.46,400.48c.28-3.28.28-7.9-.43-11.75-1.32-7.18-3.35-13.53-7.05-20.72" style="fill:none; stroke:#55a; stroke-linecap:round; stroke-linejoin:round; stroke-width:2px;"/><path id="uuid-22c4ddca-2278-4183-a962-82a826bcb0a3" d="m67.26,391.5c-.5-3.7-.39-7.54-1.5-11.11-1.68-5.41-5.48-10.47-7.69-15.17" style="fill:none; stroke:#55a; stroke-linecap:round; stroke-linejoin:round; stroke-width:2px;"/><g id="uuid-ad873daf-71f4-4a63-9df7-aeb8548b9132"><path id="uuid-be7dcbbc-29b9-4deb-94eb-c47ac76a6310" d="m269.7,331.54s4.4,5.21,6.87,7.6c2.59,2.52,5.29,4.98,8.3,7.08,2.32,1.62,4.68,3.49,7.44,4.19,1.63.42,3.48.56,5.04-.07,1.14-.47,2.42-1.34,2.69-2.55.51-2.29-1.1-4.73-2.58-6.55-1.5-1.85-3.77-2.99-5.95-3.95-1.31-.58-2.92-.9-4.18-1.04-.83-2.6,1.66-2.01,1.13-7.14-.15-1.5-.36-3.57-.36-3.57" style="fill:none; stroke:#55a; stroke-linecap:round; stroke-linejoin:round; stroke-width:2px;"/><path id="uuid-2ea30ec4-8e48-41b9-a202-20f94c7d72ff" d="m296.03,345.81s-.49-1.66-1.14-2.22c-.6-.51-1.48-.78-2.29-.79-.79,0-2.26.73-2.26.73" style="fill:none; stroke:#55a; stroke-linecap:round; stroke-linejoin:round; stroke-width:2px;"/><path id="uuid-cd69b35d-c5b3-4e99-93cc-3bd334ed7cee" d="m300.61,348.58s3.97,1.81,5.72,1.05c1.85-.81,2.85-3.1,2.86-4.98.01-2.85-2.78-5.12-4.29-7.6-.92-1.51-1.53-3.33-2.91-4.44-1.35-1.08-3.17-2.2-4.87-1.83-1.32.29-2.39,1.62-2.86,2.88-.42,1.13-.58,2.73.23,3.62,1.09,1.2,3.22,1.09,4.81.75.85-.18,1.63-.75,2.17-1.43.55-.7.93-2.51.93-2.51" style="fill:none; stroke:#55a; stroke-linecap:round; stroke-linejoin:round; stroke-width:2px;"/><path id="uuid-84cad68e-9b10-4111-97af-9bc0f86fd139" d="m310.06,343.33s2.8-.86,3.72-1.83c.92-.99,1.49-2.37,1.43-3.67-.1-2.11-1.55-4.03-2.86-5.77-1.54-2.03-3.54-3.85-5.72-5.24-1.62-1.03-3.42-1.91-5.31-2.23-1.41-.24-3.31-.78-4.29.26-.84.89-.61,2.61,0,3.67.46.8,1.5,1.15,2.38,1.41,1.2.36,2.71.86,3.76.17.94-.61,1.21-3.15,1.21-3.15" style="fill:none; stroke:#55a; stroke-linecap:round; stroke-linejoin:round; stroke-width:2px;"/><path id="uuid-88d2d5db-48f7-48dc-ac1d-6186357fb36a" d="m314.64,333.37s3.48-2.21,3.72-3.93c.16-1.16-.91-2.24-1.72-3.15-2.07-2.31-4.95-3.94-7.73-5.5-1.71-.96-3.43-2.34-5.44-2.36-.94-.01-2.11.3-2.58,1.05-.43.69-.09,1.65.29,2.36.7,1.34,1.82,3.19,3.43,3.15,1.01-.03,1.6-1.24,2-2.1.41-.89.29-2.88.29-2.88" style="fill:none; stroke:#55a; stroke-linecap:round; stroke-linejoin:round; stroke-width:2px;"/><path id="uuid-5486a6bf-6041-4768-ad41-521a13bbaf2c" d="m316.35,324.2s1.26-2.04,1.14-3.15c-.18-1.79-1.48-3.44-2.86-4.72-1.79-1.66-4.17-2.84-6.62-3.5-1.27-.34-2.96-.96-3.97-.17-1.25.97-1.33,3.13-.57,4.46.65,1.14,2.33,2.03,3.72,1.83,1.05-.15,1.72-1.24,2.22-2.1.5-.87.64-2.88.64-2.88" style="fill:none; stroke:#55a; stroke-linecap:round; stroke-linejoin:round; stroke-width:2px;"/><path id="uuid-817e35c6-7e8b-4f45-9d4b-186a0acb6175" d="m304.76,311.23s-.87-1.36-1.48-1.89c-.57-.49-1.27-.82-1.96-1.12-1.36-.6-4.26-1.38-4.26-1.38" style="fill:none; stroke:#55a; stroke-linecap:round; stroke-linejoin:round; stroke-width:2px;"/></g><g id="uuid-78226e6b-956d-41b8-ae34-fd4aa53feab7"><path id="uuid-6d25499e-ec7d-4a93-a0ba-de44603b1433" d="m295.83,348.78s5.52-1.21,8.31-1.1c2.13.08,4.32.41,6.25,1.31,2.09.98,3.98,2.5,5.44,4.28,1.64,2,3.49,6.92,3.49,6.92,0,0-4.35-.93-6.57-1.09-2.39-.17-4.8.4-7.18.15-1.77-.18-3.53-.61-5.21-1.21-1.35-.48-2.71-1.02-3.85-1.87-1.12-.84-2.05-1.94-2.82-3.1-.65-.97-1.47-3.17-1.47-3.17l3.61-1.12Z" style="fill:#ff5; stroke:#55a; stroke-linecap:round; stroke-linejoin:round; stroke-width:2px;"/><path id="uuid-6040769d-a9df-49e5-a9da-8244bf340475" d="m310.88,354.48s-2.93-1.52-4.51-1.97c-2.39-.68-4.92-.65-7.37-1.06-1.82-.31-5.45-1.05-5.45-1.05" style="fill:none; stroke:#55a; stroke-linecap:round; stroke-linejoin:round; stroke-width:2px;"/></g><path id="uuid-8cd6abc9-3108-4c41-9d3c-1f09ab2b4513" d="m292.97,351.35l-.89,10.32-3.07,2.71-2.65-2.68.59-13.76,6.02,3.41Z" style="fill:#ff5; stroke:#55a; stroke-linecap:round; stroke-linejoin:round; stroke-width:2px;"/><g id="uuid-5fea766d-f1a7-4c90-acf5-fe0967e9b5d5"><path id="uuid-81b3d93f-03a2-4a05-8733-9083265fe82b" d="m285.21,348.15s-1.8,3.9-3.36,5.4c-1.8,1.74-4.19,2.98-6.61,3.9-2.26.87-4.86.71-7.16,1.47-2.15.71-6.12,2.84-6.12,2.84,0,0,.43-4.69,1.49-6.72,1.13-2.16,2.91-4.08,4.98-5.38,2.79-1.75,6.21-2.34,9.46-2.89,1.46-.25,2.99-.51,4.43-.19,1.08.25,2.89,1.56,2.89,1.56h0Z" style="fill:#ff5; stroke:#55a; stroke-linecap:round; stroke-linejoin:round; stroke-width:2.31px;"/><path id="uuid-ad34d4a1-98d6-47cc-aae4-b5e124f21bcf" d="m284.14,348.24s-3.24,2.52-5.14,3.21c-2.22.81-4.81.15-7.01,1.02-1.61.63-4.28,2.94-4.28,2.94" style="fill:none; stroke:#55a; stroke-linecap:round; stroke-linejoin:round; stroke-width:2.31px;"/></g><path id="uuid-8b88851e-4b7c-4731-b8c1-23bcceab41fb" d="m279.1,379.81l-5.84,4.14-5.62-3.13,5.64-4.66,5.81,3.65Z" style="fill:#55a; stroke:#55a; stroke-linecap:round; stroke-linejoin:round; stroke-width:2px;"/><path id="uuid-5654558e-faaa-4b2c-a943-e61aa96b7f77" d="m292.86,387.99l4.28,5.75-3.98,5.74-4.31-5.66,4-5.83Z" style="fill:#55a; stroke:#55a; stroke-linecap:round; stroke-linejoin:round; stroke-width:2px;"/><path id="uuid-4e786e75-89ed-4559-9109-d30c44cd742b" d="m308.67,379.13l5.47-4.48-6.68-3.08-4.06,4.42,5.26,3.14Z" style="fill:#55a; stroke:#55a; stroke-linecap:round; stroke-linejoin:round; stroke-width:2px;"/><path id="uuid-52461419-3d36-4749-9019-c883c7698c3f" d="m305.81,373.78c1.13-2.21,2.67-4.57,2.46-7.03-.16-1.86-1.29-3.67-2.72-4.95-1.85-1.67-4.49-2.58-6.98-3.03-1.21-.22-2.56-.28-3.7.21-2.25.96-5.37,5.01-5.37,5.01,0,0-2.91-2.58-4.73-3.06-2.81-.75-6.15-.9-8.7.48-1.79.97-3.04,2.96-3.62,4.91-.63,2.11-.29,4.5.37,6.61.41,1.3,1.19,2.52,2.15,3.49,1.42,1.44,5.12,3.25,5.12,3.25,0,0-4.18,2.93-5.42,5.07-.85,1.46-1.34,3.24-1.17,4.92.17,1.66.97,3.28,2.11,4.53,1.31,1.44,3.1,2.81,5.1,3.06,2.49.31,5.14-.7,7.2-2.11,1.1-.76,1.71-2.05,2.42-3.18.94-1.48,2.4-4.68,2.4-4.68,0,0,2.75,3.52,4.62,4.64,2.37,1.42,5.2,2.73,7.95,2.37,1.73-.22,3.45-1.28,4.4-2.71,1.17-1.75,1.24-4.15,1.01-6.25-.21-1.99-.95-4.01-2.18-5.58-1.21-1.53-4.8-3.34-4.8-3.34.41-1.38,1.33-1.44,2.06-2.61h0Z" style="fill:#ff5; stroke:#55a; stroke-linecap:round; stroke-linejoin:round; stroke-width:2px;"/><path id="uuid-fb7b4f5a-44fa-475e-b5fb-8f911d8e9f38" d="m293.01,383.3c3.01-.4,6.11-4.02,5.8-7.04-.32-3.08-4.18-6.18-7.25-5.8-3.18.4-6.28,4.5-5.8,7.66.45,2.94,4.31,5.57,7.25,5.18Z" style="fill:#f55; stroke:#55a; stroke-linecap:round; stroke-linejoin:round; stroke-width:2px;"/><path id="uuid-f5ce0626-c75f-4f89-969f-cb225ac2e3e9" d="m301.92,384.96l-4.14-3.52" style="stroke:#55a; stroke-linecap:round; stroke-linejoin:round; stroke-width:2px;"/><path id="uuid-dd26a116-4a38-4e54-8596-b090090eecdf" d="m283.69,386.82l4.14-5.18" style="stroke:#55a; stroke-linecap:round; stroke-linejoin:round; stroke-width:2px;"/><path id="uuid-82bf5fa2-00d9-4754-96be-a17ed057aeb1" d="m286.59,373.77l-4.97-3.73" style="stroke:#55a; stroke-linecap:round; stroke-linejoin:round; stroke-width:2px;"/><path id="uuid-774bee1b-d880-4ae1-b494-d623177d1793" d="m295.29,371.5l4.35-5.59" style="stroke:#55a; stroke-linecap:round; stroke-linejoin:round; stroke-width:2px;"/><path id="uuid-7a2f3888-9795-4132-8467-e402ffd58d21" d="m176.78,372.73l2.48-13.17-13.06-1.22-1.17,12.92,11.75,1.47Zm-5.38-4.12l-3.19-3.18,3.53-2.84,3.09,3.19-3.44,2.84Z"/><path id="uuid-dda7af50-57e0-4669-8952-b5fef7b84ba1" d="m186,386.39l3.81-12.15-12.96-2.65-2.5,12.82,11.65,1.98Zm-4.35-3.29l-3.19-3.18,3.53-2.84,3.09,3.19-3.44,2.84Z"/><path id="uuid-616500f9-252e-47a4-aa5d-82869730b5f4" d="m200.62,378.69l5.14-11.95-13.07-4.41-3.73,12.73,11.66,3.62Zm-4.71-5.11l-2.3-3.87,4.12-1.88,2.21,3.85-4.03,1.9Z"/><path id="uuid-4df654c7-f194-4f4b-a768-8f0ce37e4324" d="m217.21,371.92l4.71-10.75-11.89-5.53-5.1,11.34,12.29,4.95Zm-5.73-4.86l-1.93-4.07,4.28-1.49,1.84,4.04-4.19,1.52Z"/><path id="uuid-f0e76a65-aad6-4384-a5d5-6372a416f8db" d="m203.91,393.24l5.13-4.22,3.07-5.87-11.79-4.73-4.53,10.41,8.11,4.41Zm-1.52-4.07l-1.79-4.13,4.33-1.34,1.7,4.11-4.24,1.36Z"/><path id="uuid-86cb54e3-0b68-4c72-a774-242f02b9118b" d="m192.79,362.97l3.46-11.33-14.34-3.12-2.78,11.64,13.66,2.81Zm-5.53-4.31l-3.07-3.29,3.63-2.72,2.98,3.3-3.54,2.71Z"/><path id="uuid-f55b4294-4a84-42d4-8fc9-73cf373ee00e" d="m163.62,383.41l1.71-12.72-13.19-.14-.7,12.75,12.18.12Zm-5.9-3.45l-3.27-3.09,3.45-2.94,3.18,3.1-3.36,2.93Z"/><path id="uuid-69a7ea80-24a6-4479-ada2-6ae550b04b6f" d="m166.53,359.02l1.57-11.94-14.33-.72-.56,12.24,13.32.42Zm-6.48-3.76l-3.33-3.03,3.4-3,3.24,3.04-3.31,2.99Z"/><path id="uuid-4e0b7899-9b01-4846-84e0-93463beceac4" d="m152.67,370.87l.96-12.71-13.63.39.88,12.25,11.79.06Zm-5.88-3.18l-3.42-2.93,3.31-3.1,3.33,2.94-3.21,3.09Z"/><path id="uuid-145f5d31-c406-4302-9efd-f4b4cc655ef8" d="m141.52,383.3l-.71-12.79-12.56,2.24,1.53,11.49,11.74-.95Zm-6-3.25l-3.68-2.6,3-3.4,3.59,2.62-2.91,3.38Z"/><path id="uuid-505a3b6c-847c-413a-a1c1-5353ebc5425a" d="m140.2,358.99l-.74-11.25-13.57,2.22,1.35,11.35,12.96-2.32Zm-6.34-2.01l-3.97-1.79,2.55-3.16,3.89,1.82-2.47,3.13Z"/><path id="uuid-6b096cdb-fdb7-4706-bdc2-d801ff4ca438" d="m113.11,364.35l-2.69-12.17-14.08,4.27,4.63,11.96,12.14-4.06Zm-7.16-1.29l-3.97-1.79,2.55-3.16,3.89,1.82-2.47,3.13Z"/><path id="uuid-7959bf5d-70a4-412e-8f02-4ac65b33b303" d="m88.55,372.11l-3.49-10.79-12.23,4.54,5.4,10.24,10.32-3.98Zm-6.6-.81l-4.23-1.03,1.93-3.58,4.15,1.07-1.85,3.53Z"/><path id="uuid-e423bd5d-ee28-43fd-b33c-9e3ce2eaaf39" d="m104.59,379.27l-3.42-11.09-12.73,3.96,4.61,11.97,11.54-4.84Zm-5.78-.79l-4.24-1.02,1.92-3.58,4.16,1.06-1.84,3.54Z"/><path id="uuid-aab3f61e-0572-4850-9c51-d40c2b86b37f" d="m119.45,387.21l-2.78-11.69-12.29,3.99,4.19,11.67,10.87-3.97Zm-6.5-1.43l-4.12-1.42,2.26-3.38,4.03,1.46-2.17,3.34Z"/><path id="uuid-c3ed7072-80d6-4ad2-a7a9-44209a86ca06" d="m128.52,372.98l-1.45-11.76-14.19,2.73,3.4,11.96,12.24-2.93Zm-6.34-2.52l-3.97-1.79,2.55-3.16,3.89,1.82-2.47,3.13Z"/><path id="uuid-081e1311-698e-4418-970d-97708ee104d6" d="m216.91,371.7l-5.03,11.71,1.85.72,10.58-9.14-7.4-3.29Z"/><path id="uuid-10fed0e5-f170-46c3-8d6b-c571df57f8d3" d="m98.66,395.12l-5.44-10.99-4.52,1.85,8.01,10.17,1.95-1.03Z"/><path id="uuid-417fe744-9b0b-4f04-8bfb-b90cf9b998c1" d="m203.23,393.36c-10.67-6.44-22.89-8.51-34.88-10.14-8.61-1.17-17.42-.58-26.06.32-8.57.9-17.09,2.58-25.35,5.03-6.56,1.94-12.86,4.7-19.06,7.62" style="fill:none; stroke:#55a; stroke-linecap:round; stroke-linejoin:round; stroke-width:2px;"/><path id="uuid-ad856626-f869-4efe-996e-0ee42809cfae" d="m69.59,368.26c5.07-2.59,9.98-5.5,15.2-7.78,3.79-1.65,7.73-2.95,11.67-4.24,4.78-1.57,9.61-3.04,14.5-4.24,4.67-1.15,9.38-2.14,14.14-2.83,4.68-.68,9.74-1.36,14.45-1.78,4.6-.41,8.87-.49,13.48-.7,4.59-.2,9.2-.23,13.79,0,4.73.24,9.46.71,14.14,1.41,4.75.71,9.49,1.63,14.14,2.83,4.55,1.17,9.01,2.67,13.44,4.24,4.54,1.61,9.04,3.34,13.44,5.3,3.61,1.61,7.07,3.54,10.61,5.3" style="fill:none; stroke:#55a; stroke-linecap:round; stroke-linejoin:round; stroke-width:2px;"/><path id="uuid-f032e13a-6921-40bd-84a3-4635f74001e6" d="m101.87,403.97s12.75-5.86,19.44-7.88c6.88-2.07,13.99-3.44,21.12-4.28,6.98-.83,14.06-1.25,21.06-.75,7.32.52,14.58,1.99,21.66,3.91,4.22,1.14,12.31,4.5,12.31,4.5l2.26-2.4s-9.07-3.7-13.79-4.97c-7.27-1.96-14.68-3.49-22.22-4.03-7.24-.52-14.48-.07-21.66.78-7.3.87-14.58,2.28-21.62,4.41-6.96,2.1-20.23,8.19-20.23,8.19l1.66,2.53Z"/><path id="uuid-76b5db99-1129-4091-8f6a-4d27ea5a19be" d="m120.79,469.42s.9-14.71-.29-21.92c-1.14-6.92-3.79-13.54-6.5-20-3.49-8.32-7.67-16.38-12.5-24-3.25-5.13-7.01-9.93-11-14.5-5.42-6.22-10.71-12.82-17.5-17.5-4.36-3.01-9.58-4.53-14.5-6.5-4.71-1.88-14.35-5.07-14.35-5.07" style="fill:none; stroke:#55a; stroke-linecap:round; stroke-linejoin:round; stroke-width:2px;"/><path id="uuid-51fb5db6-79a2-436d-b94c-0ba19c906149" d="m256.09,343.91s-13.85-10.11-19.59-16.41c-5.33-5.84-13.5-19.5-13.5-19.5,0,0,14.79-12.24,21-19.5,7.18-8.4,13.32-17.74,18.5-27.5,4.38-8.26,8.01-16.99,10.5-26,1.71-6.18,2.17-12.64,3-19,.63-4.82,1.5-14.5,1.5-14.5l52,50v25.5" style="fill:#ffff58; stroke:#000; stroke-linecap:round; stroke-linejoin:round; stroke-width:2px;"/><path id="uuid-5bd69c54-8bab-4906-b136-a4593e3566fa" d="m322.5,273.5l-68,62.5s-8.81-7.6-12.58-12c-3.57-4.16-9.42-13.5-9.42-13.5,0,0,11.82-11.58,17-18,6.48-8.02,12.45-16.51,17.5-25.5,3.58-6.37,6.58-13.1,9-20,1.99-5.68,3.55-11.55,4.5-17.5.81-5.11,1-15.5,1-15.5l40.5,40.5.5,19Z" style="stroke:#000; stroke-linecap:round; stroke-linejoin:round; stroke-width:2px;"/><path id="uuid-e91175af-c81c-49e0-a90e-cd987e082a32" d="m268.2,317.52c.06,1.63-1.15,4.75-1.15,4.75,0,0-2.87-1.49-4.08-2.54-1.26-1.09-3.23-3.81-3.23-3.81,0,0-1.29,2.92-2.24,4.18-1.06,1.43-3.8,3.76-3.8,3.76,0,0-1.45-3.17-1.63-4.87-.21-2,.71-6,.71-6,0,0-3.39,1.65-5.22,1.98-1.74.32-5.3,0-5.3,0,0,0,1.76-3.63,3.03-5.17,1.3-1.57,4.59-4.04,4.59-4.04,0,0-2.36-.83-3.28-1.62-1.07-.92-2.43-3.46-2.43-3.46,0,0,2.59-1.55,4.04-1.87,1.27-.29,3.9-.03,3.9-.03,0,0-.84-2.8-.85-4.24-.01-1.58.85-4.66.85-4.66,0,0,2.46,1.17,3.44,2.08,1.09,1.01,2.59,3.64,2.59,3.64,0,0,1.14-3.96,2.22-5.68,1.24-1.97,4.77-5.12,4.77-5.12,0,0,.71,4.84.69,7.27-.01,2.01-.65,6-.65,6,0,0,3.08-1.64,4.75-2.1,1.74-.49,5.38-.69,5.38-.69,0,0-.94,3.86-1.99,5.51-1.18,1.86-4.68,4.66-4.68,4.66,0,0,2.95.72,4.31,1.37,1.66.8,4.59,3.07,4.59,3.07,0,0-3.27,2.54-5.22,2.95-1.9.4-5.79-.55-5.79-.55,1.4,1.18,1.61,3.41,1.68,5.24Z" style="fill:#ffff58;"/><path id="uuid-ba7bc800-5fe2-43c6-8321-074ea63c3f0c" d="m260.47,312.78c1.57-.13,3.07-1.15,4.09-2.34,1.02-1.19,1.74-2.83,1.69-4.41-.07-1.82-1.03-3.65-2.31-4.94-1.27-1.28-3.07-2.35-4.88-2.34-1.72,0-3.44,1.03-4.62,2.28-1.19,1.26-2.12,3.05-2.03,4.78.1,1.89,1.32,3.73,2.75,4.97,1.43,1.24,3.43,2.15,5.31,2Zm-.16-2c-1.38.11-2.83-.62-3.88-1.53-1.03-.9-1.96-2.2-2.03-3.56-.06-1.2.64-2.41,1.47-3.28.83-.88,2.01-1.66,3.22-1.66,1.28,0,2.51.84,3.41,1.75.93.95,1.7,2.26,1.75,3.59.04,1.1-.51,2.23-1.22,3.06-.68.8-1.67,1.54-2.72,1.62Z"/><path id="uuid-00cac71b-8de9-4dd5-9229-d1369130d107" d="m302.32,271.12v8.58s-6.3.7-8.26,2.86c-1.83,2.02-1.91,7.94-1.91,7.94h-12.07l22.24-19.38Z" style="fill:#ffff58;"/><path id="uuid-e7716670-c853-49b9-a282-9ac86c528791" d="m287.6,277.23c1.27-1.29.72-4.2-.64-5.4-1.35-1.2-4.13-1.27-5.4,0-1.12,1.12-1.06,3.58,0,4.77,1.35,1.5,4.61,2.07,6.04.64h0Z" style="fill:#ffff58;"/><path id="uuid-2fdc6272-1a08-4b66-bcfe-5a3399ec03d8" d="m268.64,279.7l16.84-20.97-9.21,1.91s.24,5.35-1.27,7.31c-1.57,2.02-6.99,3.18-6.99,3.18l.64,8.58Z" style="fill:#ffff58;"/><path id="uuid-3d013687-42da-44d3-af0c-b266513df078" d="m317.88,253.65c-3.38-.7-6.88-.77-9.53-5.08-.39,7.23-4.25,11-7.94,14.93-2.07-5.19-3.17-10.38,0-15.57-5.74,5.01-10.54,2.56-15.57,1.91,2.36-4.61,5.39-8.76,11.12-11.12-3.93-3.23-5.42-7.67-6.35-12.39,1.91.45,3.81.7,5.72,2.22l20.01,20.01c1.12,1.69,1.77,3.39,2.54,5.08Z" style="fill:#ffff58;"/><path id="uuid-ce38f625-c465-48a1-b5c1-33059b255295" d="m304.06,247c1.33.4,2.86-.14,4.09-.78,1.2-.62,2.33-1.62,2.94-2.81l-1.6-1.09c-.35.68-1.35,1.64-2.28,2.12-.86.45-1.92.88-2.84.59-1.53-.47-2.74-1.98-3.34-3.47-.58-1.43-.16-3.09,0-4.62.11-1.03.66-3.03.66-3.03l-1.91-1.41s-.61,2.74-.71,4.13c-.14,1.87-.65,3.9.09,5.62.91,2.09,2.73,4.1,4.91,4.75Z"/><path id="uuid-efb6f6a9-c328-47fa-9923-ac6624c01025" d="m222.26,307.02s-7.78-15.01-9.85-23.14c-1.6-6.3-2.03-12.91-1.85-19.4.24-8.8,1.34-17.7,3.94-26.11,2.61-8.46,6.6-16.58,11.52-23.94,4.87-7.27,17.53-19.55,17.53-19.55" style="fill:none; stroke:#000; stroke-linecap:round; stroke-linejoin:round; stroke-width:2px;"/><path id="uuid-598b3203-9c05-4f4a-ab4c-0da91af0b3f0" d="m225.75,304.16s-6.08-12.4-7.62-19.06c-1.9-8.17-2.34-16.72-1.91-25.1.38-7.32,1.72-14.65,3.93-21.64,2.22-7.01,5.36-13.8,9.27-20.03,4.13-6.59,9.14-12.69,14.76-18.06,2.96-2.82,9.85-7.31,9.85-7.31" style="fill:none; stroke:#000; stroke-linecap:round; stroke-linejoin:round; stroke-width:2px;"/><path id="uuid-99b75336-8a20-4f76-879c-671a49a2d944" d="m229.57,300.67s-4.71-11.46-6.04-17.47c-1.47-6.66-2.33-13.53-2.08-20.34.29-7.81,1.79-15.61,4.1-23.08,2.18-7.03,5.06-13.97,9.1-20.12,4.32-6.58,10-12.24,15.88-17.47,4.77-4.24,15.57-11.12,15.57-11.12" style="fill:none; stroke:#000; stroke-linecap:round; stroke-linejoin:round; stroke-width:2px;"/><path id="uuid-78526cf1-8761-4ab4-895c-eab25e34ab53" d="m233.33,298.27s-3.61-9.07-4.71-13.81c-1.29-5.52-2.07-11.19-2.2-16.85-.15-6.74.16-13.59,1.73-20.14,1.74-7.28,4.6-14.38,8.41-20.83,3.75-6.35,8.56-12.15,13.98-17.16,6.15-5.68,20.65-14.3,20.65-14.3" style="fill:none; stroke:#000; stroke-linecap:round; stroke-linejoin:round; stroke-width:2px;"/><path id="uuid-0d0436ee-8854-434a-9bc1-fa2780219155" d="m188.21,408.4l15.49-14.26,29.9-27.62,35.05-33.14,29.9-28.76,30.95-28.38" style="stroke:#55a; stroke-linecap:round; stroke-linejoin:round; stroke-width:2px;"/><path id="uuid-70b647b1-8d22-495d-8892-db9b2bd49b82" d="m217.37,333.25l-17.32-4.6,7.02-21.38,17.29,4.24-6.99,21.74Z" style="fill:#f55;"/><path id="uuid-eb21be78-bd98-4b4e-8d57-8f3393179dec" d="m178.73,339.65c2.21-.68,4.43-1.35,6.64-2.03-1.29-1.17-2.58-2.34-3.87-3.5,1.78-.8,3.57-1.6,5.35-2.4-1.17-1.29-2.34-2.58-3.5-3.87,2.15-.86,4.3-1.72,6.46-2.58-1.11-1.41-2.21-2.83-3.32-4.24,2.15-.68,4.3-1.35,6.46-2.03-1.35-1.48-2.71-2.95-4.06-4.43,1.97-.68,3.94-1.35,5.9-2.03-.86-1.54-1.72-3.07-2.58-4.61,1.48-1.11,3.15-2.21,4.62-3.32-7.13-1.17-14.46-2.34-21.59-3.5.86,1.6,1.72,3.2,2.58,4.8l-4.24,2.21c.8,1.84,1.6,3.69,2.4,5.53-2.09.8-4.18,1.6-6.27,2.4.92,1.97,1.84,3.94,2.77,5.9-1.97.37-3.94.74-5.9,1.11,1.29,1.66,2.58,3.32,3.87,4.98-1.97.49-3.94.98-5.9,1.48,1.05,1.41,2.09,2.83,3.14,4.24-1.97.8-3.94,1.6-5.9,2.4,1.64.79,3.25,1.68,4.9,2.41,4.02.37,8.05.73,12.07,1.1h0Z" style="fill:#ff5;"/><path id="uuid-d169478e-b62c-4570-b991-158a1a196b51" d="m177.08,339.46c2.37-5.56,5.33-11.43,7.7-17.28,2.56-6.33,4.87-13.41,7.01-19.24" style="fill:none; stroke:#000; stroke-linecap:round; stroke-linejoin:round; stroke-width:2px;"/><path id="uuid-d1d5c880-f051-4b4d-9b2d-63a46eadbee9" d="m167.88,338.38c2.8-6.06,5.39-12.15,7.7-18.37,2.15-5.81,4.05-11.72,5.73-17.68" style="fill:none; stroke:#000; stroke-linecap:round; stroke-linejoin:round; stroke-width:2px;"/><path id="uuid-699ff2bf-8c31-434e-932d-93ebf2c94df2" d="m173.43,338.63c.75-.1,1.54-1.1,1.35-1.84-.19-.73-1.36-1.23-2.06-.95-.57.22-.87,1.09-.71,1.67.15.59.83,1.2,1.43,1.12h0Z"/><path id="uuid-4778e7bc-85c4-41bf-a58f-1b6eb2416b43" d="m176.08,332.25c.76-.1,1.55-1.1,1.36-1.84-.19-.75-1.37-1.25-2.09-.97-.57.22-.87,1.11-.71,1.7.15.59.84,1.19,1.44,1.11Z"/><path id="uuid-a0cf5c8a-cf68-4ade-a80e-884ebea64295" d="m179.03,325.7c.77-.12,1.56-1.17,1.33-1.92-.23-.74-1.47-1.15-2.17-.83-.54.25-.76,1.11-.59,1.67.17.57.84,1.17,1.43,1.08h0Z"/><path id="uuid-ecb3d0f5-84ab-4121-890b-5aa307e3dd6f" d="m181.32,319.2c.76-.1,1.56-1.09,1.37-1.84-.18-.74-1.35-1.27-2.07-1-.58.21-.89,1.09-.74,1.69.15.59.83,1.23,1.44,1.15h0Z"/><path id="uuid-8e1ed3ec-08e1-40d6-b5ce-c621abc54949" d="m183.63,312.76c.79-.14,1.62-1.22,1.35-1.98-.27-.76-1.61-1.07-2.31-.68-.5.28-.63,1.12-.43,1.66.19.54.83,1.09,1.39.99Z"/><path id="uuid-1e69a844-d598-4170-9717-cadb247167f4" d="m186.02,306.31c.77-.12,1.57-1.17,1.34-1.91-.23-.74-1.47-1.16-2.18-.83-.54.25-.75,1.11-.58,1.67.17.57.83,1.16,1.42,1.07Z"/><path id="uuid-9f50c1c4-efa9-4321-9f6f-12c9094a10bc" d="m154.09,323.08l-18.8-.26c4.51-7.24,8.15-14.99,10.66-23.76l17.08,1.12-8.94,22.91Z" style="fill:#f55;"/></g><path id="uuid-ba03ce54-3401-4d53-806d-a269ad204f90" d="m147.07,253.2s1.79,9.17,2.14,13.82c.28,3.64-.02,10.95-.02,10.95,0,0,10.79.65,16.17,1.13,5.27.46,10.53,1.01,15.77,1.69,4.76.61,9.5,1.37,14.24,2.14,5.56.9,16.63,2.9,16.63,2.9,0,0-1.77-8.08-2.15-12.19-.4-4.32-.15-13-.15-13,0,0-10.75-.3-16.1-.71-4.91-.37-9.81-.94-14.69-1.59-5.58-.74-11.13-1.73-16.69-2.63-5.06-.82-15.16-2.5-15.16-2.5h0Z" style="fill:#f55;"/><path id="uuid-ef647ab3-9438-440e-a59e-9cc0e230bc61" d="m265.13,190.17l14.87-6.23,49.5,49.55v17l-64.37-60.33Z"/><path id="uuid-3268ae3a-23c8-4882-b81c-6f2b342df6e9" d="m280,183.95l19.02-9.34,14.87,4.15,15.61,21.79v33.2l-49.5-49.8Z" style="fill:#55a;"/><path id="uuid-cbdea09b-681c-4112-b79d-5d182a9e1443" d="m93.87,348.78l-14.87,6.23-49.5-49.55v-17l64.37,60.33Z"/><path id="uuid-c467a7ff-8a45-4cd2-bfc1-1916dc08647a" d="m79,355.01l-19.02,9.34-14.87-4.15-15.61-21.79v-33.2l49.5,49.8Z" style="fill:#55a;"/><path id="uuid-58cb2ca9-2cd2-40bf-9f17-af1c9541ac8d" d="m89.5,44.5s6,15,13,25,17,20,17,20c0,0-10,10-17,20s-13,25-13,25c0,0-6-15-13-25s-17-20-17-20c0,0,10-10,17-20s13-25,13-25" style="fill:#f55;"/><path id="uuid-667bd274-529b-40d2-b83b-37831c8f97ac" d="m29.5,89.5s3,7.5,6.5,12.5,8.5,10,8.5,10c0,0-5,5-8.5,10s-6.5,12.5-6.5,12.5c0,0-3-7.5-6.5-12.5s-8.5-10-8.5-10c0,0,5-5,8.5-10s6.5-12.5,6.5-12.5" style="fill:#f55;"/><path id="uuid-d7b13d1d-8b3c-4412-a7fc-72d8f6a75b7b" d="m269.5,494.5s-6-15-13-25-17-20-17-20c0,0,10-10,17-20s13-25,13-25c0,0,6,15,13,25s17,20,17,20c0,0-10,10-17,20s-13,25-13,25" style="fill:#f55;"/><path id="uuid-fa4d5453-1506-45fe-b366-8fbf57fdcfdc" d="m329.5,449.5s-3-7.5-6.5-12.5-8.5-10-8.5-10c0,0,5-5,8.5-10s6.5-12.5,6.5-12.5c0,0,3,7.5,6.5,12.5s8.5,10,8.5,10c0,0-5,5-8.5,10s-6.5,12.5-6.5,12.5" style="fill:#f55;"/></g></svg>