<?xml version="1.0" encoding="UTF-8"?><svg id="uuid-c6a593f5-0130-46af-8b49-22767d820bcb" xmlns="http://www.w3.org/2000/svg" viewBox="0 0 359 539"><g id="uuid-6d005710-eebe-41cc-8cf0-55db0618d5cd"><path id="uuid-4a2a14a8-071d-4f32-8d0d-a2abf1973023" d="m29.5,29.5c-5.52,0-10,4.48-10,10v30c0,5.52,4.48,10,10,10,.43,0,.86-.04,1.28-.09,1.71,3.05,4.97,5.09,8.72,5.09v-5c-1.64,0-3.09-.81-4-2.03,2.42-1.82,4-4.7,4-7.97v-30c0-5.52-4.48-10-10-10h0Zm0,5c2.76,0,5,2.24,5,5v30c0,.72-.17,1.38-.44,2-1.27-4.06-5.09-7-9.56-7v-25c0-2.76,2.24-5,5-5Zm-5,35c2.76,0,5,2.24,5,5-2.76,0-5-2.24-5-5Z" style="fill:#f55;"/><path id="uuid-8b141390-6b5b-43bf-8104-53fa08947157" d="m329.5,509.5c5.52,0,10-4.48,10-10v-30c0-5.52-4.48-10-10-10-.43,0-.86.04-1.28.09-1.71-3.05-4.97-5.09-8.72-5.09v5c1.64,0,3.09.81,4,2.03-2.42,1.82-4,4.7-4,7.97v30c0,5.52,4.48,10,10,10h0Zm0-5c-2.76,0-5-2.24-5-5v-30c0-.72.17-1.38.44-2,1.27,4.06,5.09,7,9.56,7v25c0,2.76-2.24,5-5,5Zm5-35c-2.76,0-5-2.24-5-5,2.76,0,5,2.24,5,5Z" style="fill:#f55;"/><path id="uuid-424e01ea-df36-4667-8151-13e7ee7d5317" d="m59.5,29.5h270v360h0" style="fill:none; stroke:#55a; stroke-width:2px;"/><path id="uuid-c7273443-a7ef-4b85-a5be-638ebc0439ad" d="m29.5,149.5v360h270" style="fill:none; stroke:#55a; stroke-width:2px;"/><g id="uuid-b19d710c-8dd7-4b05-9d2c-356661afe11b"><path id="uuid-1e539bb8-a30c-4116-9988-2453ab9dc404" d="m144.56,197.12l1.95-7.6s8.62,3.27,13.06,4.48c5.25,1.44,10.63,2.38,15.99,3.31,3.17.55,6.35,1.1,9.55,1.36,6.48.53,13,.52,19.5.39,6.57-.13,13.14-.59,19.69-1.17,3.32-.29,6.64-.69,9.94-1.17,3.79-.55,11.31-1.95,11.31-1.95l-12.87,12.48-24.18.19-12.48,31.2,19.11,1.36-3.7,21.06s-14.71-.68-22.03-1.36c-6.78-.63-13.54-1.5-20.28-2.53-4.31-.66-8.57-1.61-12.87-2.34-3.24-.55-9.75-1.56-9.75-1.56,0,0-2.68-6.97-4.29-10.33-2.52-5.27-8.38-15.4-8.38-15.4l17.74,4.29,9.75-29.05-16.77-5.65Z"/><path id="uuid-a5198f33-c62f-4bed-a6b9-b71d5c1b69f9" d="m120.52,177.12s8.46,5.52,12.97,7.76c4.21,2.1,13.08,5.3,13.08,5.3l-11.67,37.48s-6.51-9.23-10.25-13.44c-3.5-3.93-7.41-7.48-11.36-10.96-3.39-2.98-10.56-8.49-10.56-8.49l17.79-17.66Z" style="fill:#55a;"/><path id="uuid-db48b00e-d49c-4ef3-b78b-07da998e177e" d="m122.89,243.93s4.47,13.5,5.3,20.51c.88,7.37.91,14.96-.35,22.27-1.13,6.5-3.58,12.76-6.36,18.74-2.5,5.37-5.35,10.69-9.19,15.2-3.31,3.88-7.52,6.93-11.67,9.9-5.25,3.75-16.62,9.9-16.62,9.9l-3.54-3.18s1.36-14.23,2.83-21.21c1.57-7.45,3.64-14.81,6.36-21.92,2.53-6.6,5.87-12.86,9.19-19.09,3.28-6.15,6.3-12.54,10.61-18.03,3.86-4.92,13.44-13.08,13.44-13.08h0Z" style="fill:#55a;"/><path id="uuid-660b5e71-db08-4c6b-a357-d14fc28f4e75" d="m116.53,250.65s4.25,12.79,4.6,19.45c.38,7.36-.83,14.83-2.83,21.92-1.96,6.96-4.83,13.78-8.84,19.8-3.05,4.58-7.08,8.5-11.31,12.02-4.85,4.04-15.91,10.25-15.91,10.25,0,0,1.5-14.67,2.83-21.92,1.01-5.48,2.06-11,3.89-16.26,2.3-6.62,5.59-12.88,8.84-19.09,2.59-4.96,5.21-9.96,8.49-14.5,3.03-4.2,10.25-11.67,10.25-11.67h0Z" style="fill:#f55;"/><g id="uuid-1953139b-8cb3-470b-93c7-2aa37b7a08ff"><path id="uuid-d0615ea9-c8a0-43f1-ab3d-cb9b6a225c86" d="m47.26,225.14l-5.8,12.99s.83,4.23,2.54,4.98c1.03.45,2.32-.13,3.25-.89,1.19-.97,2.5-4.31,2.5-4.31l4.96-10.44" style="fill:#ff5; stroke:#55a; stroke-linecap:round; stroke-linejoin:round; stroke-width:1.79px;"/><path id="uuid-94bca8fe-0253-4396-9d22-33d41664b64d" d="m42.45,237.76s2.48-1.01,3.8-1.09c1.05-.07,3.13.47,3.13.47" style="fill:none; stroke:#55a; stroke-linecap:round; stroke-linejoin:round; stroke-width:1.79px;"/></g><path id="uuid-70b2cb91-fa8c-4366-9467-1220d5bfa881" d="m165.71,65.28s-13.78,14.05-19.08,22.26c-5.54,8.59-9.7,18.11-12.99,27.79-2.85,8.4-4.36,17.22-5.74,25.98-.82,5.2-1.1,10.47-1.51,15.71-.39,5.03-.91,15.11-.91,15.11l45.01-41.69s-2.72-9.17-3.32-13.9c-.6-4.7-.25-9.47-.3-14.2-.07-6.34.2-12.69,0-19.03-.19-6.02-1.16-18.03-1.16-18.03h0Z"/><path id="uuid-19dccf35-ef03-4bb4-8a63-72b56e55a957" d="m299.28,173.87c-5.07,2.59-12.07,6.07-18.25,8.79-5.83,2.57-11.71,5.06-17.76,7.08-5.08,1.7-10.31,2.95-15.51,4.24-4.82,1.19-9.64,2.49-14.55,3.23-5.08.77-10.24.89-15.36,1.27-4.12.3-8.24.72-12.37.8-5,.09-10.01-.12-15.01-.41-4.59-.26-9.2-.5-13.74-1.21-5.12-.8-10.15-2.12-15.16-3.44-4.32-1.13-8.58-2.45-12.83-3.84-4.65-1.52-9.35-2.95-13.84-4.9-5.26-2.29-11.74-6.17-15.28-7.94l45.29-42.05s2.74.51,4.1.81c2.59.57,2.45.95,7.73,1.86,2.5,1.04,4.17,3.57,6.65,4.64,3.02,1.31,6.38,2.04,9.67,2.03,6.29-.01,13.87-1.7,18.45-3.96,2.38,0,4.49-.4,6.73-.62,3.11-.3,6.23-.52,9.33-.95,3.33-.45,6.69-.81,9.92-1.71,2.77-.77,5.39-1.98,8.03-3.12,2.89-1.25,8.53-4.07,8.53-4.07,3.98,6.64,9.04,15.5,17.59,23.6,4.28,4.05,9.28,9.74,13.55,12.98s11.07,5.27,14.07,6.86h0Z" style="fill:#ffff58;"/><path id="uuid-2977eed1-587c-4276-a0cf-72e15cdb5c71" d="m166.69,103.16s-6.09,9.73-8.58,14.9c-1.79,3.71-3.39,7.53-4.53,11.48-.9,3.11-1.51,6.33-1.82,9.55-.26,2.74,0,8.27,0,8.27l19.03-16.92s-2.64-8.57-3.32-12.99c-.72-4.72-.78-14.29-.78-14.29h0Z" style="fill:#f55;"/><path id="uuid-f442dcb9-94ac-4526-acc0-be3c948e57c1" d="m223.5,29.5l65.5,84.17,7.83-1.67-59.33-82.5h-14Z"/><path id="uuid-261cf43b-1fbf-4fe4-b520-c572557ffed6" d="m306.5,29.5c-1.67,9.9-2.34,19.97-2,30,.35,10.17,1.75,20.36,5,30,2.39,7.09,5.76,13.84,10,20-3.33-.22-6.67-.22-10,0-4.38.29-8.74.96-13,2l-59-82h69" style="fill:#ff5; stroke:#55a; stroke-linecap:round; stroke-linejoin:round; stroke-width:2px;"/><path id="uuid-b37fa2a9-1cd8-4d34-bab0-b8023756a4f3" d="m273.09,54.97c.4.99.85,1.98,1.52,2.81.88,1.09,1.84,2.31,3.19,2.74,1.69.54,3.99.72,5.39-.45,1.36-1.15,1.79-3.43,1.35-5.11-.51-1.93-4.23-4.18-4.23-4.18,0,0,4.73-1.58,5.56-3.61.78-1.91-.03-4.45-1.44-5.88-1.39-1.41-3.93-2.34-5.8-1.52-2.1.92-3.3,6.02-3.3,6.02,0,0-.84-3.75-2.05-5.13-1.08-1.22-2.63-2.42-4.29-2.38-1.48.03-3.18.96-3.87,2.28-1.09,2.08-.61,4.97.63,6.88,1.24,1.92,6,3.34,6,3.34,0,0-1.27-2.7.98-4.26,1.8-1.25,5.05.24,6.05,2.11.85,1.58.4,4.62-1.3,5.35-3.39,1.45-5.12-1.72-5.12-1.72,0,0,.39,1.85.74,2.71h0Z" style="stroke:#000100; stroke-linecap:round; stroke-linejoin:round; stroke-width:2px;"/><path id="uuid-b9adaea4-16e4-40d1-b9cc-7835fca786cc" d="m292.67,82.21c.35.9.76,1.79,1.35,2.54.78.99,1.64,2.09,2.85,2.48,1.51.49,3.56.66,4.81-.41,1.22-1.04,1.6-3.11,1.2-4.62-.46-1.74-3.77-3.78-3.77-3.78,0,0,3.71-1.83,4.29-3.6.57-1.73.01-4.03-1.28-5.32-1.1-1.08-3.1-1.67-4.5-1.04-1.88.85-2.94,5.45-2.94,5.45,0,0-.75-3.39-1.83-4.64-.96-1.11-2.34-2.19-3.83-2.15-1.32.03-2.83.87-3.45,2.06-.97,1.88-.55,4.49.56,6.22,1.11,1.73,5.35,3.02,5.35,3.02,0,0-1.14-2.44.88-3.86,1.61-1.13,4.5.22,5.39,1.91.76,1.43.36,4.18-1.16,4.84-3.03,1.31-4.57-1.56-4.57-1.56,0,0,.35,1.67.66,2.45h0Z" style="stroke:#000100; stroke-linecap:round; stroke-linejoin:round; stroke-width:2px;"/><path id="uuid-4e07977d-8ab8-4bd8-97fe-b3e21a3f70be" d="m246.83,31.17s.59,11.23,5.5,16.83c4.72,5.39,10.28,5.61,15.17,5.17,0,0-2.3,13.14,2,18.5,4.66,5.81,20,10.33,20,10.33,0,0-3.58,10.05,1.33,17,2.72,3.85,11.83,9.5,11.83,9.5" style="fill:none; stroke:#000; stroke-linecap:round; stroke-linejoin:round; stroke-width:2px;"/><path id="uuid-51971c20-afe2-4949-9e54-03646e30c711" d="m251.59,30.14c-.69,0-1.34.54-1.47,1.22,0,0-1.82,8.33,4.06,14.22.91.91,2.22,1.69,3.81,2.56s3.44,1.76,5.19,2.56c3.05,1.4,5.15,2.2,5.81,2.47,0,.71-.02,2.23.38,5.03.48,3.37,1.09,8.16,3.32,11.32,4.14,5.86,8.89,8.36,12.3,10.05,2.23,1.1,3.76,1.49,4.78,1.69.1.77.28,2.43.84,5.28.68,3.45,1.61,7.37,3.19,9.91,1.65,2.66,4.93,5.5,7.88,7.84s5.56,4.12,5.56,4.12c.65.44,1.65.25,2.09-.41s-3.09-3.15-3.74-3.59c0,0-2.36-3.36-2.88-6.8-2.85-2.27-4.93-2.32-6.55-4.4-1.58-2.03-1.96-3.95-2.61-7.27s-1-6.12-1-6.12c-.08-.68-.69-1.26-1.38-1.31,0,0-5.7-1.43-7.84-3.29-2.47-2.14-5.69-2.96-5.04-8.42-1.73-2.45-5.51-5.9-5.96-9.04s-.44-5.56-.44-5.56c.02-.61-.37-1.21-.94-1.44,0,0-3.11-1.24-6.53-2.81-1.71-.78-3.8-1.05-5-2.47-1.47-1.74-1.55-6.12-1.96-6.53-4.66-4.66-4.42-6.97-4.42-6.97.21-.88-.56-1.85-1.47-1.84h0Z"/><path id="uuid-e2c0572c-8a2c-4be0-acb3-5c9a2681fe29" d="m210.5,29.5h13.33l105.67,138.67v32.33L210.5,29.5Z" style="fill:#f55; stroke:#55a; stroke-width:2px;"/><path id="uuid-9338da27-312b-4799-ac5b-c893b1c41b30" d="m186.49,29.5s1.77,11.3,14.65,22.17c12.88,10.88,34.36,15.23,34.36,15.23" style="fill:none; stroke:#55a; stroke-linecap:round; stroke-linejoin:round; stroke-width:2px;"/><path id="uuid-14af475a-88ed-406b-a5f4-b1caa648fd50" d="m191.66,29.5s5.21,11.83,12.43,17.84c7.22,6.01,27.53,13.11,27.53,13.11" style="fill:none; stroke:#55a; stroke-linecap:round; stroke-linejoin:round; stroke-width:2px;"/><path id="uuid-d1c1ed5d-778b-452a-9322-04c21f2c5010" d="m197.77,29.5s4.41,10.06,9.79,14.64c5.38,4.58,19.92,10.53,19.92,10.53" style="fill:none; stroke:#55a; stroke-linecap:round; stroke-linejoin:round; stroke-width:2px;"/><path id="uuid-2f9ed929-13e4-476f-b981-77eb11b238de" d="m202.79,29.5s2.73,6.83,7.03,10.38,12.89,7.39,12.89,7.39" style="fill:none; stroke:#55a; stroke-linecap:round; stroke-linejoin:round; stroke-width:2px;"/><path id="uuid-67e8ba3d-ccca-4a0f-8eba-bee1ebd357b6" d="m188.44,37.04s-.84,4.09-6.14,12.96c-5.3,8.87-15.75,12.63-15.75,12.63" style="fill:none; stroke:#55a; stroke-linecap:round; stroke-linejoin:round; stroke-width:2px;"/><path id="uuid-f73d22bc-0928-4205-b1fe-b89fb922848a" d="m184.55,29.5s-.17,7.05-5,14.56-12.94,11.31-12.94,11.31" style="fill:none; stroke:#55a; stroke-linecap:round; stroke-linejoin:round; stroke-width:2px;"/><path id="uuid-fc3020b5-8283-4774-9d54-84fbc561878a" d="m179.18,29.5s-1.93,7.46-4.51,12.04c-2.58,4.58-7.86,7.9-7.86,7.9" style="fill:none; stroke:#55a; stroke-linecap:round; stroke-linejoin:round; stroke-width:2px;"/><path id="uuid-446a54bb-a303-4098-bd3d-44f540c1bf1e" d="m173.05,29.5s.18,4.4-1.94,7.95-3.59,3.98-3.59,3.98" style="fill:none; stroke:#55a; stroke-linecap:round; stroke-linejoin:round; stroke-width:2px;"/><path id="uuid-e11e724d-c3a4-40bb-86a8-1414639ad158" d="m185.91,82.97s.59,2.58.53,3.89c-.16,3.58-1.2,7.1-2.41,10.47-.8,2.21-3,3.95-3.16,6.29-.13,1.95.62,4.06,1.9,5.54.9,1.04,2.64.97,3.68,1.87.84.73,1.91,2.74,1.91,2.74" style="fill:none; stroke:#55a; stroke-linecap:round; stroke-linejoin:round; stroke-width:2px;"/><path id="uuid-0df03064-d99d-4271-985f-d894a7001d6a" d="m198.25,102.28s3.32,3.56,2.86,5.6c-.3,1.34-1.91,2.28-3.27,2.49-1.78.27-3.4-1.19-5.08-1.83-1.59-.61-3.13-2.43-4.75-1.9-.65.21-1.42,1.14-1.09,1.74.54.98,2.24-.01,3.36.05,3.39.2,7.44,3.12,10.14,1.06.87-.66.78-2.17.54-3.24-.35-1.57-2.72-3.99-2.72-3.99h0Z" style="fill:#55a; stroke:#55a; stroke-linecap:round; stroke-linejoin:round; stroke-width:2px;"/><path id="uuid-d599b6a9-4060-45dc-a5ad-f97726ed06c6" d="m231.7,79.27s-9.21-6.28-14.5-7.65c-4.16-1.08-8.74-1.37-12.89-.27-1.67.44-4.45,2.66-4.45,2.66,0,0,4.08-1.31,6.19-1.54,4.27-.46,8.71-.68,12.88.38,4.62,1.17,12.78,6.41,12.78,6.41Z" style="fill:#55a; stroke:#55a; stroke-linecap:round; stroke-linejoin:round; stroke-width:2px;"/><path id="uuid-7dd657a0-e086-4757-accd-dc264cb74c67" d="m167.77,73.75s5.57-2.98,8.54-2.65c3.7.41,9.59,5.53,9.59,5.53,0,0-6.24-4.26-9.86-4.37-3.04-.09-8.51,3.15-8.51,3.15l.24-1.65Z" style="fill:#55a; stroke:#55a; stroke-linecap:round; stroke-linejoin:round; stroke-width:2px;"/><path id="uuid-573b82da-6c26-4b02-be30-3a12d8858cad" d="m203.44,122.47s-4.7-1.88-7.15-2.04c-1.84-.13-3.65.7-5.49.79-2.1.1-4.26-.85-6.31-.29-1.12.31-3.03,1.94-3.03,1.94,0,0,2.09-.46,3.14-.4,2.14.13,4.14,1.57,6.28,1.57,2.36,0,4.55-1.46,6.93-1.71,1.87-.2,5.63.16,5.63.16h0Z" style="fill:#55a; stroke:#55a; stroke-linecap:round; stroke-linejoin:round; stroke-width:2px;"/><path id="uuid-6a46286a-f091-4d1a-9883-80a60b5c86da" d="m197.08,127.33s-3.94,1.37-5.99,1.42c-1.75.04-5.17-.99-5.17-.99" style="fill:none; stroke:#55a; stroke-linecap:round; stroke-linejoin:round; stroke-width:2px;"/><path id="uuid-b3dfce1f-f32f-4c0d-921f-8b878e710bb9" d="m185.13,82.4s-5.03-4.11-9.65-4.21c-4.94-.11-7.89,2.52-7.89,2.52" style="fill:none; stroke:#55a; stroke-linecap:round; stroke-linejoin:round; stroke-width:2px;"/><path id="uuid-8d688885-bea7-4717-9ad2-17a1624d79a5" d="m228.11,84.55s-9.86-7.33-15.53-7.16c-7.42.21-12.96,5.56-12.96,5.56" style="fill:none; stroke:#55a; stroke-linecap:round; stroke-linejoin:round; stroke-width:2px;"/><path id="uuid-ff0ccf50-4e4a-440a-a4e7-9d7fbb41e248" d="m229.21,86.12c-5.85-.76-10.15-3.3-15.54-3.76-4.62-.39-13.94,1.04-13.94,1.04" style="fill:none; stroke:#55a; stroke-linecap:round; stroke-linejoin:round; stroke-width:2px;"/><path id="uuid-4208d758-c0dd-4030-8806-b97077d58558" d="m166.95,86.19c5.39-2.54,4.23-3.35,9.62-3.81,4.62-.39,9.45,2.23,9.45,2.23" style="fill:none; stroke:#55a; stroke-linecap:round; stroke-linejoin:round; stroke-width:2px;"/><path id="uuid-faaf330f-28d8-4830-a826-4bf084739e53" d="m225.97,86.58c-5.27,1.2-10.77,5.08-16.73,5.38-4.42.22-9.15-2.81-9.54-6.9" style="fill:none; stroke:#55a; stroke-linecap:round; stroke-linejoin:round; stroke-width:2px;"/><path id="uuid-c8f3d4f4-87c6-442c-b0fc-3cb749f3b4c1" d="m214.88,83.9c.94,5.06-4.02,6.56-7.58,6.12-2.41-.3-4.65-3.26-3.49-6.15" style="fill:none; stroke:#55a; stroke-linecap:round; stroke-linejoin:round; stroke-width:2px;"/><path id="uuid-132e4316-1668-40ff-908a-feb00383967f" d="m206.63,86.74c-.1-.92.75-2.18,1.71-2.23.84-.04,1.72.98,1.71,1.78-.02.84-.98,1.76-1.86,1.78-.7.02-1.48-.67-1.55-1.34h0Z" style="fill:#55a; stroke:#55a; stroke-linecap:round; stroke-linejoin:round; stroke-width:2px;"/><path id="uuid-315e5abc-6d1f-4b20-bbeb-75f6420985b6" d="m178.06,87.05c.03-.72-.85-1.64-1.74-1.63-.78.02-1.53.86-1.46,1.49.08.65,1.04,1.31,1.85,1.27.65-.03,1.33-.61,1.35-1.13h0Z" style="fill:#55a; stroke:#55a; stroke-linecap:round; stroke-linejoin:round; stroke-width:2px;"/><path id="uuid-9de08f07-a765-4170-aeb3-44feff899b02" d="m184.47,90.91c-2.09,2.46-2.24,4.64-6.58,6.73" style="fill:none; stroke:#55a; stroke-linecap:round; stroke-linejoin:round; stroke-width:2px;"/><path id="uuid-fa32b52f-857d-482e-a4ab-375c31d898de" d="m199.44,83.43c1.6,7.12,3.45,11.37,8.6,13.52" style="fill:none; stroke:#55a; stroke-linecap:round; stroke-linejoin:round; stroke-width:2px;"/><path id="uuid-c99382b4-b54f-4027-b5e1-6c797a62bda6" d="m167.05,88.91c2.86,1.8,6.51,2.87,11.18,2.75,3.46-.09,6.97-2.54,7.03-5.5" style="fill:none; stroke:#55a; stroke-linecap:round; stroke-linejoin:round; stroke-width:2px;"/><path id="uuid-27b306e8-18c7-41fc-baf1-ddbc6e9c9d9f" d="m172.33,83.6c-1.11,4.9,1.1,7.54,5.14,7.45,1.78-.04,5.42-4.04,2.75-7.84" style="fill:none; stroke:#55a; stroke-linecap:round; stroke-linejoin:round; stroke-width:2px;"/><path id="uuid-76bf15da-c875-46ec-ada8-c077dd237521" d="m168.5,29.5s-2.29,21.97-2.5,33c-.16,8.67.74,17.33,1,26,.24,8.16-.41,16.38.5,24.5.65,5.75.93,11.81,3.5,17,2.25,4.55,5.71,8.78,10,11.5,3.66,2.31,8.18,3.27,12.5,3.5,4.39.23,8.83-.81,13-2.21,5.7-1.91,10.99-4.98,16-8.29,5.04-3.32,9.86-7.11,14-11.5,3.11-3.3,8-11,8-11" style="fill:none; stroke:#55a; stroke-linecap:round; stroke-linejoin:round; stroke-width:2px;"/><path id="uuid-02820386-7062-4dab-93a4-754058815f68" d="m165.85,135.94c4.67,2.41,8.82,2.83,11.95,3.19" style="fill:none; stroke:#55a; stroke-linecap:round; stroke-linejoin:round; stroke-width:2px;"/><path id="uuid-54a3186c-9bf3-4eec-ad48-0e222c3e8002" d="m210.56,141.52c7.26-1.35,16.24-2.2,24.14-4.27,6.64-1.74,12.96-4.56,19.44-6.84" style="fill:none; stroke:#55a; stroke-linecap:round; stroke-linejoin:round; stroke-width:2px;"/><path id="uuid-64c792de-e79c-40d4-84ae-4faac32fbb00" d="m242.39,116.31l5.98,15.81" style="fill:none; stroke:#55a; stroke-linecap:round; stroke-linejoin:round; stroke-width:2px;"/><path id="uuid-1af3527b-b1dc-4626-a55c-861d27b7e5cc" d="m238.97,120.58l4.91,13.03" style="fill:none; stroke:#55a; stroke-linecap:round; stroke-linejoin:round; stroke-width:2px;"/><path id="uuid-2fdafdb5-9223-4e6c-8453-73e86031550d" d="m235.13,125.28l3.2,9.4" style="fill:none; stroke:#55a; stroke-linecap:round; stroke-linejoin:round; stroke-width:2px;"/><path id="uuid-615f9a15-701c-4a45-9616-790ef18daf60" d="m231.28,128.7l2.99,7.48" style="fill:none; stroke:#55a; stroke-linecap:round; stroke-linejoin:round; stroke-width:2px;"/><path id="uuid-823d5e48-22d2-408f-929a-8d60950f4ed7" d="m227.23,132.12l2.78,6.2" style="fill:none; stroke:#55a; stroke-linecap:round; stroke-linejoin:round; stroke-width:2px;"/><path id="uuid-ba69f03d-28e0-425b-b709-13c8edd7bb3d" d="m223.38,134.89l1.71,3.63" style="fill:none; stroke:#55a; stroke-linecap:round; stroke-linejoin:round; stroke-width:2px;"/><path id="uuid-4d7d3509-9d1f-4b65-ac75-ade6a5ee4e61" d="m244.32,79.56c-1,1.85-2.23,3.6-2.99,5.55-1.04,2.67-1.42,5.55-2.14,8.33" style="fill:none; stroke:#55a; stroke-linecap:round; stroke-linejoin:round; stroke-width:2px;"/><path id="uuid-a5d08221-dfb1-4e7b-a37b-bc21b9a4ec63" d="m248.37,85.55c-1.28,2.56-2.91,4.98-3.85,7.69-1.16,3.37-1.42,6.98-2.14,10.47" style="fill:none; stroke:#55a; stroke-linecap:round; stroke-linejoin:round; stroke-width:2px;"/><path id="uuid-41bb0beb-acae-40c8-acbc-47219d0e9552" d="m252.01,90.89c-1.14,2.71-2.59,5.3-3.42,8.12-1.28,4.37-1.57,8.97-2.35,13.46" style="fill:none; stroke:#55a; stroke-linecap:round; stroke-linejoin:round; stroke-width:2px;"/><path id="uuid-8fdb2e1f-7213-4da7-94e6-3006f9768595" d="m256.06,96.01c-1.35,3.49-3.28,6.81-4.06,10.47-1.2,5.65-.57,11.54-.85,17.3" style="fill:none; stroke:#55a; stroke-linecap:round; stroke-linejoin:round; stroke-width:2px;"/><path id="uuid-2d749842-1a93-4b7a-8276-9cdff867694d" d="m260.34,101.57c-1.21,2.56-2.97,4.93-3.63,7.69-1.76,7.34-.43,15.1-.64,22.64" style="fill:none; stroke:#55a; stroke-linecap:round; stroke-linejoin:round; stroke-width:2px;"/><path id="uuid-7d8278fe-b9ad-458e-a206-4b38757b5beb" d="m264.61,107.12c-1.28,3.2-3.34,7.22-3.85,11.11-.99,7.58,1.14,15.24,1.71,22.86" style="fill:none; stroke:#55a; stroke-linecap:round; stroke-linejoin:round; stroke-width:2px;"/><path id="uuid-da4a294a-7e1a-4d95-a237-3dda1f876f40" d="m268.45,113.96c-1.07,3.42-2.24,8.91-2.35,13.46-.19,7.53,1.57,13.89,2.78,22.43" style="fill:none; stroke:#55a; stroke-linecap:round; stroke-linejoin:round; stroke-width:2px;"/><path id="uuid-1fefcb98-0473-451c-abc4-aede4f494194" d="m273.15,120.58c-.71,4.77-.91,8.98-.64,13.46.51,8.51,2.14,17.02,4.27,25.21" style="fill:none; stroke:#55a; stroke-linecap:round; stroke-linejoin:round; stroke-width:2px;"/><path id="uuid-27a979a7-4f05-49bf-a636-27a720acf5f6" d="m278.71,128.7c-.14,4.49-.63,9.58,0,14.31,1.08,8.05,4.13,15.38,6.41,23.5" style="fill:none; stroke:#55a; stroke-linecap:round; stroke-linejoin:round; stroke-width:2px;"/><path id="uuid-62cf2158-24f1-428c-9832-74fc83ab1fb7" d="m285.54,138.52c-.28,3.28-.28,7.9.43,11.75,1.32,7.18,3.35,13.53,7.05,20.72" style="fill:none; stroke:#55a; stroke-linecap:round; stroke-linejoin:round; stroke-width:2px;"/><path id="uuid-2fab175e-09db-4757-a373-df5e3e6cd498" d="m291.74,147.5c.5,3.7.39,7.54,1.5,11.11,1.68,5.41,5.48,10.47,7.69,15.17" style="fill:none; stroke:#55a; stroke-linecap:round; stroke-linejoin:round; stroke-width:2px;"/><g id="uuid-e5e515b9-00d6-44f5-a919-cf85a446dfca"><path id="uuid-c5c9b646-7367-4fb2-88bf-d07d8013fb79" d="m89.3,207.46s-4.4-5.21-6.87-7.6c-2.59-2.52-5.29-4.98-8.3-7.08-2.32-1.62-4.68-3.49-7.44-4.19-1.63-.42-3.48-.56-5.04.07-1.14.47-2.42,1.34-2.69,2.55-.51,2.29,1.1,4.73,2.58,6.55,1.5,1.85,3.77,2.99,5.95,3.95,1.31.58,2.92.9,4.18,1.04.83,2.6-1.66,2.01-1.13,7.14.15,1.5.36,3.57.36,3.57" style="fill:none; stroke:#55a; stroke-linecap:round; stroke-linejoin:round; stroke-width:2px;"/><path id="uuid-2855e066-6176-4a0d-b0c0-ce066c36a118" d="m62.97,193.19s.49,1.66,1.14,2.22c.6.51,1.48.78,2.29.79.79,0,2.26-.73,2.26-.73" style="fill:none; stroke:#55a; stroke-linecap:round; stroke-linejoin:round; stroke-width:2px;"/><path id="uuid-55eb0f28-e154-43dc-84e5-96b2f3c2c664" d="m58.39,190.42s-3.97-1.81-5.72-1.05c-1.85.81-2.85,3.1-2.86,4.98-.01,2.85,2.78,5.12,4.29,7.6.92,1.51,1.53,3.33,2.91,4.44,1.35,1.08,3.17,2.2,4.87,1.83,1.32-.29,2.39-1.62,2.86-2.88.42-1.13.58-2.73-.23-3.62-1.09-1.2-3.22-1.09-4.81-.75-.85.18-1.63.75-2.17,1.43-.55.7-.93,2.51-.93,2.51" style="fill:none; stroke:#55a; stroke-linecap:round; stroke-linejoin:round; stroke-width:2px;"/><path id="uuid-8c434c14-28ca-4ceb-a571-0ddb9af1d867" d="m48.94,195.67s-2.8.86-3.72,1.83c-.92.99-1.49,2.37-1.43,3.67.1,2.11,1.55,4.03,2.86,5.77,1.54,2.03,3.54,3.85,5.72,5.24,1.62,1.03,3.42,1.91,5.31,2.23,1.41.24,3.31.78,4.29-.26.84-.89.61-2.61,0-3.67-.46-.8-1.5-1.15-2.38-1.41-1.2-.36-2.71-.86-3.76-.17-.94.61-1.21,3.15-1.21,3.15" style="fill:none; stroke:#55a; stroke-linecap:round; stroke-linejoin:round; stroke-width:2px;"/><path id="uuid-056cdb0d-0a9f-481d-8e75-c5c5a06bb58b" d="m44.36,205.63s-3.48,2.21-3.72,3.93c-.16,1.16.91,2.24,1.72,3.15,2.07,2.31,4.95,3.94,7.73,5.5,1.71.96,3.43,2.34,5.44,2.36.94.01,2.11-.3,2.58-1.05.43-.69.09-1.65-.29-2.36-.7-1.34-1.82-3.19-3.43-3.15-1.01.03-1.6,1.24-2,2.1-.41.89-.29,2.88-.29,2.88" style="fill:none; stroke:#55a; stroke-linecap:round; stroke-linejoin:round; stroke-width:2px;"/><path id="uuid-ea2054a7-f907-453a-b15f-eb92db083638" d="m42.65,214.8s-1.26,2.04-1.14,3.15c.18,1.79,1.48,3.44,2.86,4.72,1.79,1.66,4.17,2.84,6.62,3.5,1.27.34,2.96.96,3.97.17,1.25-.97,1.33-3.13.57-4.46-.65-1.14-2.33-2.03-3.72-1.83-1.05.15-1.72,1.24-2.22,2.1-.5.87-.64,2.88-.64,2.88" style="fill:none; stroke:#55a; stroke-linecap:round; stroke-linejoin:round; stroke-width:2px;"/><path id="uuid-f2952000-f008-4835-988e-f0140deb4c31" d="m54.24,227.77s.87,1.36,1.48,1.89c.57.49,1.27.82,1.96,1.12,1.36.6,4.26,1.38,4.26,1.38" style="fill:none; stroke:#55a; stroke-linecap:round; stroke-linejoin:round; stroke-width:2px;"/></g><g id="uuid-a9132c4d-00ac-4a57-9c30-22e12b41724c"><path id="uuid-e9915638-7920-484d-ae4e-465561c2728b" d="m63.17,190.22s-5.52,1.21-8.31,1.1c-2.13-.08-4.32-.41-6.25-1.31-2.09-.98-3.98-2.5-5.44-4.28-1.64-2-3.49-6.92-3.49-6.92,0,0,4.35.93,6.57,1.09,2.39.17,4.8-.4,7.18-.15,1.77.18,3.53.61,5.21,1.21,1.35.48,2.71,1.02,3.85,1.87,1.12.84,2.05,1.94,2.82,3.1.65.97,1.47,3.17,1.47,3.17l-3.61,1.12Z" style="fill:#ff5; stroke:#55a; stroke-linecap:round; stroke-linejoin:round; stroke-width:2px;"/><path id="uuid-c3387e3b-53e4-4a93-8f42-bc88e6ee23a9" d="m48.12,184.52s2.93,1.52,4.51,1.97c2.39.68,4.92.65,7.37,1.06,1.82.31,5.45,1.05,5.45,1.05" style="fill:none; stroke:#55a; stroke-linecap:round; stroke-linejoin:round; stroke-width:2px;"/></g><path id="uuid-1e4cd12b-558d-49d3-a2bd-403d202bc6fe" d="m66.03,187.65l.89-10.32,3.07-2.71,2.65,2.68-.59,13.76-6.02-3.41Z" style="fill:#ff5; stroke:#55a; stroke-linecap:round; stroke-linejoin:round; stroke-width:2px;"/><g id="uuid-6692dada-f4f4-4561-a8aa-9c047a9702f6"><path id="uuid-23731cfa-0101-45d0-ba43-1d418c8c31d7" d="m73.79,190.85s1.8-3.9,3.36-5.4c1.8-1.74,4.19-2.98,6.61-3.9,2.26-.87,4.86-.71,7.16-1.47,2.15-.71,6.12-2.84,6.12-2.84,0,0-.43,4.69-1.49,6.72-1.13,2.16-2.91,4.08-4.98,5.38-2.79,1.75-6.21,2.34-9.46,2.89-1.46.25-2.99.51-4.43.19-1.08-.25-2.89-1.56-2.89-1.56h0Z" style="fill:#ff5; stroke:#55a; stroke-linecap:round; stroke-linejoin:round; stroke-width:2.31px;"/><path id="uuid-17977f26-a368-420c-b53c-842de886882b" d="m74.86,190.76s3.24-2.52,5.14-3.21c2.22-.81,4.81-.15,7.01-1.02,1.61-.63,4.28-2.94,4.28-2.94" style="fill:none; stroke:#55a; stroke-linecap:round; stroke-linejoin:round; stroke-width:2.31px;"/></g><path id="uuid-67c34499-9269-450b-a935-686d45dcbd99" d="m79.9,159.19l5.84-4.14,5.62,3.13-5.64,4.66-5.81-3.65Z" style="fill:#55a; stroke:#55a; stroke-linecap:round; stroke-linejoin:round; stroke-width:2px;"/><path id="uuid-fde67d4f-b5da-43f4-8c56-8c1f842adaf4" d="m66.14,151.01l-4.28-5.75,3.98-5.74,4.31,5.66-4,5.83Z" style="fill:#55a; stroke:#55a; stroke-linecap:round; stroke-linejoin:round; stroke-width:2px;"/><path id="uuid-16473515-bca2-4dfd-9e39-21a9d421aa67" d="m50.33,159.87l-5.47,4.48,6.68,3.08,4.06-4.42-5.26-3.14Z" style="fill:#55a; stroke:#55a; stroke-linecap:round; stroke-linejoin:round; stroke-width:2px;"/><path id="uuid-336e7d20-725b-471c-9185-2fb23145fbd1" d="m53.19,165.22c-1.13,2.21-2.67,4.57-2.46,7.03.16,1.86,1.29,3.67,2.72,4.95,1.85,1.67,4.49,2.58,6.98,3.03,1.21.22,2.56.28,3.7-.21,2.25-.96,5.37-5.01,5.37-5.01,0,0,2.91,2.58,4.73,3.06,2.81.75,6.15.9,8.7-.48,1.79-.97,3.04-2.96,3.62-4.91.63-2.11.29-4.5-.37-6.61-.41-1.3-1.19-2.52-2.15-3.49-1.42-1.44-5.12-3.25-5.12-3.25,0,0,4.18-2.93,5.42-5.07.85-1.46,1.34-3.24,1.17-4.92-.17-1.66-.97-3.28-2.11-4.53-1.31-1.44-3.1-2.81-5.1-3.06-2.49-.31-5.14.7-7.2,2.11-1.1.76-1.71,2.05-2.42,3.18-.94,1.48-2.4,4.68-2.4,4.68,0,0-2.75-3.52-4.62-4.64-2.37-1.42-5.2-2.73-7.95-2.37-1.73.22-3.45,1.28-4.4,2.71-1.17,1.75-1.24,4.15-1.01,6.25.21,1.99.95,4.01,2.18,5.58,1.21,1.53,4.8,3.34,4.8,3.34-.41,1.38-1.33,1.44-2.06,2.61h0Z" style="fill:#ff5; stroke:#55a; stroke-linecap:round; stroke-linejoin:round; stroke-width:2px;"/><path id="uuid-90a40301-a84a-4198-8277-b2baf0563fd6" d="m65.99,155.7c-3.01.4-6.11,4.02-5.8,7.04.32,3.08,4.18,6.18,7.25,5.8,3.18-.4,6.28-4.5,5.8-7.66-.45-2.94-4.31-5.57-7.25-5.18Z" style="fill:#f55; stroke:#55a; stroke-linecap:round; stroke-linejoin:round; stroke-width:2px;"/><path id="uuid-554ee1b5-d5e1-4280-9dc4-078306a2ce07" d="m57.08,154.04l4.14,3.52" style="stroke:#55a; stroke-linecap:round; stroke-linejoin:round; stroke-width:2px;"/><path id="uuid-bbc00486-4433-48d9-bf2a-ec05a8ddf412" d="m75.31,152.18l-4.14,5.18" style="stroke:#55a; stroke-linecap:round; stroke-linejoin:round; stroke-width:2px;"/><path id="uuid-4e5bc9a5-d24b-4280-854d-ec3ab56e53da" d="m72.41,165.23l4.97,3.73" style="stroke:#55a; stroke-linecap:round; stroke-linejoin:round; stroke-width:2px;"/><path id="uuid-e7586a6d-7d0a-4cc3-9c41-58e0bd11d79b" d="m63.71,167.5l-4.35,5.59" style="stroke:#55a; stroke-linecap:round; stroke-linejoin:round; stroke-width:2px;"/><path id="uuid-1494e25e-87cb-45e2-90a3-a8f3a77cdfa8" d="m182.22,166.27l-2.48,13.17,13.06,1.22,1.17-12.92-11.75-1.47Zm5.38,4.12l3.19,3.18-3.53,2.84-3.09-3.19,3.44-2.84Z"/><path id="uuid-054f357d-30f1-4d6b-bc1e-6a81b50fae76" d="m173,152.61l-3.81,12.15,12.96,2.65,2.5-12.82-11.65-1.98Zm4.35,3.29l3.19,3.18-3.53,2.84-3.09-3.19,3.44-2.84Z"/><path id="uuid-7e3c7120-ff00-4b8a-80b8-ad76188a0eef" d="m158.38,160.31l-5.14,11.95,13.07,4.41,3.73-12.73-11.66-3.62Zm4.71,5.11l2.3,3.87-4.12,1.88-2.21-3.85,4.03-1.9Z"/><path id="uuid-6c546d18-3e5d-4273-81f3-2e5040558ad2" d="m141.79,167.08l-4.71,10.75,11.89,5.53,5.1-11.34-12.29-4.95Zm5.73,4.86l1.93,4.07-4.28,1.49-1.84-4.04,4.19-1.52Z"/><path id="uuid-5a8f320c-2232-4bfa-82d2-54c00676d94b" d="m155.09,145.76l-5.13,4.22-3.07,5.87,11.79,4.73,4.53-10.41-8.11-4.41Zm1.52,4.07l1.79,4.13-4.33,1.34-1.7-4.11,4.24-1.36Z"/><path id="uuid-07b52b1d-c1ab-4811-8108-3f5dc5e9fbd3" d="m166.21,176.03l-3.46,11.33,14.34,3.12,2.78-11.64-13.66-2.81Zm5.53,4.31l3.07,3.29-3.63,2.72-2.98-3.3,3.54-2.71Z"/><path id="uuid-5c7f6805-8aa1-454c-a49f-9150c3730c19" d="m195.38,155.59l-1.71,12.72,13.19.14.7-12.75-12.18-.12Zm5.9,3.45l3.27,3.09-3.45,2.94-3.18-3.1,3.36-2.93Z"/><path id="uuid-96e56157-2f52-447d-87bd-9e533723bf3e" d="m192.47,179.98l-1.57,11.94,14.33.72.56-12.24-13.32-.42Zm6.48,3.76l3.33,3.03-3.4,3-3.24-3.04,3.31-2.99Z"/><path id="uuid-1cf5c657-485f-4b8b-931d-a84d071a699c" d="m206.33,168.13l-.96,12.71,13.63-.39-.88-12.25-11.79-.06Zm5.88,3.18l3.42,2.93-3.31,3.1-3.33-2.94,3.21-3.09Z"/><path id="uuid-3ebdf518-845e-4ef2-8fa0-8542d9ae60d6" d="m217.48,155.7l.71,12.79,12.56-2.24-1.53-11.49-11.74.95Zm6,3.25l3.68,2.6-3,3.4-3.59-2.62,2.91-3.38Z"/><path id="uuid-be1feb66-9140-43f1-babb-3e82ef12eb69" d="m218.8,180.01l.74,11.25,13.57-2.22-1.35-11.35-12.96,2.32Zm6.34,2.01l3.97,1.79-2.55,3.16-3.89-1.82,2.47-3.13Z"/><path id="uuid-23db9ed9-9252-4d96-9395-24935db280e8" d="m245.89,174.65l2.69,12.17,14.08-4.27-4.63-11.96-12.14,4.06Zm7.16,1.29l3.97,1.79-2.55,3.16-3.89-1.82,2.47-3.13Z"/><path id="uuid-ffb869bf-b1e7-45d3-b3b4-d1186c5d7b3a" d="m270.45,166.89l3.49,10.79,12.23-4.54-5.4-10.24-10.32,3.98Zm6.6.81l4.23,1.03-1.93,3.58-4.15-1.07,1.85-3.53Z"/><path id="uuid-8668867f-8d85-46e4-87c2-7c907cde2323" d="m254.41,159.73l3.42,11.09,12.73-3.96-4.61-11.97-11.54,4.84Zm5.78.79l4.24,1.02-1.92,3.58-4.16-1.06,1.84-3.54Z"/><path id="uuid-1f8db03f-6b7c-473d-837a-4f2c31c8248e" d="m239.55,151.79l2.78,11.69,12.29-3.99-4.19-11.67-10.87,3.97Zm6.5,1.43l4.12,1.42-2.26,3.38-4.03-1.46,2.17-3.34Z"/><path id="uuid-39890b1e-ab25-42e7-96c8-057a4619d913" d="m230.48,166.02l1.45,11.76,14.19-2.73-3.4-11.96-12.24,2.93Zm6.34,2.52l3.97,1.79-2.55,3.16-3.89-1.82,2.47-3.13Z"/><path id="uuid-09afab47-73a4-4049-b0f6-41d38774c402" d="m142.09,167.3l5.03-11.71-1.85-.72-10.58,9.14,7.4,3.29Z"/><path id="uuid-40309734-5ffa-4792-a1c8-4ce70ad46706" d="m260.34,143.88l5.44,10.99,4.52-1.85-8.01-10.17-1.95,1.03Z"/><path id="uuid-8685e56d-d109-4383-9324-a0677d7d0e9c" d="m155.77,145.64c10.67,6.44,22.89,8.51,34.88,10.14,8.61,1.17,17.42.58,26.06-.32,8.57-.9,17.09-2.58,25.35-5.03,6.56-1.94,12.86-4.7,19.06-7.62" style="fill:none; stroke:#55a; stroke-linecap:round; stroke-linejoin:round; stroke-width:2px;"/><path id="uuid-a21859e7-2f8b-4cf9-8a01-7539df30aa0b" d="m289.41,170.74c-5.07,2.59-9.98,5.5-15.2,7.78-3.79,1.65-7.73,2.95-11.67,4.24-4.78,1.57-9.61,3.04-14.5,4.24-4.67,1.15-9.38,2.14-14.14,2.83-4.68.68-9.74,1.36-14.45,1.78-4.6.41-8.87.49-13.48.7-4.59.2-9.2.23-13.79,0-4.73-.24-9.46-.71-14.14-1.41-4.75-.71-9.49-1.63-14.14-2.83-4.55-1.17-9.01-2.67-13.44-4.24-4.54-1.61-9.04-3.34-13.44-5.3-3.61-1.61-7.07-3.54-10.61-5.3" style="fill:none; stroke:#55a; stroke-linecap:round; stroke-linejoin:round; stroke-width:2px;"/><path id="uuid-85b36615-c877-4533-ac34-d71bdffc99f4" d="m257.13,135.03s-12.75,5.86-19.44,7.88c-6.88,2.07-13.99,3.44-21.12,4.28-6.98.83-14.06,1.25-21.06.75-7.32-.52-14.58-1.99-21.66-3.91-4.22-1.14-12.31-4.5-12.31-4.5l-2.26,2.4s9.07,3.7,13.79,4.97c7.27,1.96,14.68,3.49,22.22,4.03,7.24.52,14.48.07,21.66-.78,7.3-.87,14.58-2.28,21.62-4.41,6.96-2.1,20.23-8.19,20.23-8.19l-1.66-2.53Z"/><path id="uuid-a7235c8a-c3e8-4e7f-8552-aa595a4c2dde" d="m238.21,69.58s-.9,14.71.29,21.92c1.14,6.92,3.79,13.54,6.5,20,3.49,8.32,7.67,16.38,12.5,24,3.25,5.13,7.01,9.93,11,14.5,5.42,6.22,10.71,12.82,17.5,17.5,4.36,3.01,9.58,4.53,14.5,6.5,4.71,1.88,14.35,5.07,14.35,5.07" style="fill:none; stroke:#55a; stroke-linecap:round; stroke-linejoin:round; stroke-width:2px;"/><path id="uuid-4c4f10e9-b474-46a2-84d7-ad36e7be95cc" d="m102.91,195.09s13.85,10.11,19.59,16.41c5.33,5.84,13.5,19.5,13.5,19.5,0,0-14.79,12.24-21,19.5-7.18,8.4-13.32,17.74-18.5,27.5-4.38,8.26-8.01,16.99-10.5,26-1.71,6.18-2.17,12.64-3,19-.63,4.82-1.5,14.5-1.5,14.5l-52-50v-25.5" style="fill:#ffff58; stroke:#000; stroke-linecap:round; stroke-linejoin:round; stroke-width:2px;"/><path id="uuid-84bdd934-c786-4cd2-bb6f-d90d7875c923" d="m36.5,265.5l68-62.5s8.81,7.6,12.58,12c3.57,4.16,9.42,13.5,9.42,13.5,0,0-11.82,11.58-17,18-6.48,8.02-12.45,16.51-17.5,25.5-3.58,6.37-6.58,13.1-9,20-1.99,5.68-3.55,11.55-4.5,17.5-.81,5.11-1,15.5-1,15.5l-40.5-40.5-.5-19Z" style="stroke:#000; stroke-linecap:round; stroke-linejoin:round; stroke-width:2px;"/><path id="uuid-8f4c894b-bd0e-49d9-8d64-af31c74abc72" d="m90.8,221.48c-.06-1.63,1.15-4.75,1.15-4.75,0,0,2.87,1.49,4.08,2.54,1.26,1.09,3.23,3.81,3.23,3.81,0,0,1.29-2.92,2.24-4.18,1.06-1.43,3.8-3.76,3.8-3.76,0,0,1.45,3.17,1.63,4.87.21,2-.71,6-.71,6,0,0,3.39-1.65,5.22-1.98,1.74-.32,5.3,0,5.3,0,0,0-1.76,3.63-3.03,5.17-1.3,1.57-4.59,4.04-4.59,4.04,0,0,2.36.83,3.28,1.62,1.07.92,2.43,3.46,2.43,3.46,0,0-2.59,1.55-4.04,1.87-1.27.29-3.9.03-3.9.03,0,0,.84,2.8.85,4.24.01,1.58-.85,4.66-.85,4.66,0,0-2.46-1.17-3.44-2.08-1.09-1.01-2.59-3.64-2.59-3.64,0,0-1.14,3.96-2.22,5.68-1.24,1.97-4.77,5.12-4.77,5.12,0,0-.71-4.84-.69-7.27.01-2.01.65-6,.65-6,0,0-3.08,1.64-4.75,2.1-1.74.49-5.38.69-5.38.69,0,0,.94-3.86,1.99-5.51,1.18-1.86,4.68-4.66,4.68-4.66,0,0-2.95-.72-4.31-1.37-1.66-.8-4.59-3.07-4.59-3.07,0,0,3.27-2.54,5.22-2.95,1.9-.4,5.79.55,5.79.55-1.4-1.18-1.61-3.41-1.68-5.24Z" style="fill:#ffff58;"/><path id="uuid-03cd3696-56cd-4030-b6e0-77cde670f520" d="m98.53,226.22c-1.57.13-3.07,1.15-4.09,2.34-1.02,1.19-1.74,2.83-1.69,4.41.07,1.82,1.03,3.65,2.31,4.94,1.27,1.28,3.07,2.35,4.88,2.34,1.72,0,3.44-1.03,4.62-2.28,1.19-1.26,2.12-3.05,2.03-4.78-.1-1.89-1.32-3.73-2.75-4.97-1.43-1.24-3.43-2.15-5.31-2Zm.16,2c1.38-.11,2.83.62,3.88,1.53,1.03.9,1.96,2.2,2.03,3.56.06,1.2-.64,2.41-1.47,3.28-.83.88-2.01,1.66-3.22,1.66-1.28,0-2.51-.84-3.41-1.75-.93-.95-1.7-2.26-1.75-3.59-.04-1.1.51-2.23,1.22-3.06.68-.8,1.67-1.54,2.72-1.62Z"/><path id="uuid-5e05e024-e8ae-4dfb-aebd-13c0886e2838" d="m56.68,267.88v-8.58s6.3-.7,8.26-2.86c1.83-2.02,1.91-7.94,1.91-7.94h12.07l-22.24,19.38Z" style="fill:#ffff58;"/><path id="uuid-c5d5800c-66a8-42fd-a21f-1d6a7c47b4ad" d="m71.4,261.77c-1.27,1.29-.72,4.2.64,5.4,1.35,1.2,4.13,1.27,5.4,0,1.12-1.12,1.06-3.58,0-4.77-1.35-1.5-4.61-2.07-6.04-.64h0Z" style="fill:#ffff58;"/><path id="uuid-ba11c90c-9414-4243-b2a0-8cceccaecc2d" d="m90.36,259.3l-16.84,20.97,9.21-1.91s-.24-5.35,1.27-7.31c1.57-2.02,6.99-3.18,6.99-3.18l-.64-8.58Z" style="fill:#ffff58;"/><path id="uuid-199a95df-da19-4819-8615-4ba8a7fd615f" d="m41.12,285.35c3.38.7,6.88.77,9.53,5.08.39-7.23,4.25-11,7.94-14.93,2.07,5.19,3.17,10.38,0,15.57,5.74-5.01,10.54-2.56,15.57-1.91-2.36,4.61-5.39,8.76-11.12,11.12,3.93,3.23,5.42,7.67,6.35,12.39-1.91-.45-3.81-.7-5.72-2.22l-20.01-20.01c-1.12-1.69-1.77-3.39-2.54-5.08Z" style="fill:#ffff58;"/><path id="uuid-b459ee02-9870-482a-a59f-4dc4e7c383ab" d="m54.94,292c-1.33-.4-2.86.14-4.09.78-1.2.62-2.33,1.62-2.94,2.81l1.6,1.09c.35-.68,1.35-1.64,2.28-2.12.86-.45,1.92-.88,2.84-.59,1.53.47,2.74,1.98,3.34,3.47.58,1.43.16,3.09,0,4.62-.11,1.03-.66,3.03-.66,3.03l1.91,1.41s.61-2.74.71-4.13c.14-1.87.65-3.9-.09-5.62-.91-2.09-2.73-4.1-4.91-4.75Z"/><path id="uuid-a1c6d4ce-0ae3-4b09-b75b-31db4a511c59" d="m136.74,231.98s7.78,15.01,9.85,23.14c1.6,6.3,2.03,12.91,1.85,19.4-.24,8.8-1.34,17.7-3.94,26.11-2.61,8.46-6.6,16.58-11.52,23.94-4.87,7.27-17.53,19.55-17.53,19.55" style="fill:none; stroke:#000; stroke-linecap:round; stroke-linejoin:round; stroke-width:2px;"/><path id="uuid-52d66df4-9319-4c71-8919-6751a6c5ff45" d="m133.25,234.84s6.08,12.4,7.62,19.06c1.9,8.17,2.34,16.72,1.91,25.1-.38,7.32-1.72,14.65-3.93,21.64-2.22,7.01-5.36,13.8-9.27,20.03-4.13,6.59-9.14,12.69-14.76,18.06-2.96,2.82-9.85,7.31-9.85,7.31" style="fill:none; stroke:#000; stroke-linecap:round; stroke-linejoin:round; stroke-width:2px;"/><path id="uuid-59a48234-ef6c-4130-99a6-9bf64c409f3c" d="m129.43,238.33s4.71,11.46,6.04,17.47c1.47,6.66,2.33,13.53,2.08,20.34-.29,7.81-1.79,15.61-4.1,23.08-2.18,7.03-5.06,13.97-9.1,20.12-4.32,6.58-10,12.24-15.88,17.47-4.77,4.24-15.57,11.12-15.57,11.12" style="fill:none; stroke:#000; stroke-linecap:round; stroke-linejoin:round; stroke-width:2px;"/><path id="uuid-38b8f39a-ef46-49c6-80b7-fed13390b495" d="m125.67,240.73s3.61,9.07,4.71,13.81c1.29,5.52,2.07,11.19,2.2,16.85.15,6.74-.16,13.59-1.73,20.14-1.74,7.28-4.6,14.38-8.41,20.83-3.75,6.35-8.56,12.15-13.98,17.16-6.15,5.68-20.65,14.3-20.65,14.3" style="fill:none; stroke:#000; stroke-linecap:round; stroke-linejoin:round; stroke-width:2px;"/><path id="uuid-0dd812b0-bc12-43ae-bb17-b21c322e7b31" d="m170.79,130.6l-15.49,14.26-29.9,27.62-35.05,33.14-29.9,28.76-30.95,28.38" style="stroke:#55a; stroke-linecap:round; stroke-linejoin:round; stroke-width:2px;"/><path id="uuid-8dda6f36-691f-43fe-a6d5-f6f91e39de71" d="m141.63,205.75l17.32,4.6-7.02,21.38-17.29-4.24,6.99-21.74Z" style="fill:#f55;"/><path id="uuid-ac6f60f8-7e45-4824-9632-56bc7324432b" d="m180.27,199.35c-2.21.68-4.43,1.35-6.64,2.03,1.29,1.17,2.58,2.34,3.87,3.5-1.78.8-3.57,1.6-5.35,2.4,1.17,1.29,2.34,2.58,3.5,3.87-2.15.86-4.3,1.72-6.46,2.58,1.11,1.41,2.21,2.83,3.32,4.24-2.15.68-4.3,1.35-6.46,2.03,1.35,1.48,2.71,2.95,4.06,4.43-1.97.68-3.94,1.35-5.9,2.03.86,1.54,1.72,3.07,2.58,4.61-1.48,1.11-3.15,2.21-4.62,3.32,7.13,1.17,14.46,2.34,21.59,3.5-.86-1.6-1.72-3.2-2.58-4.8l4.24-2.21c-.8-1.84-1.6-3.69-2.4-5.53,2.09-.8,4.18-1.6,6.27-2.4-.92-1.97-1.84-3.94-2.77-5.9,1.97-.37,3.94-.74,5.9-1.11-1.29-1.66-2.58-3.32-3.87-4.98,1.97-.49,3.94-.98,5.9-1.48-1.05-1.41-2.09-2.83-3.14-4.24,1.97-.8,3.94-1.6,5.9-2.4-1.64-.79-3.25-1.68-4.9-2.41-4.02-.37-8.05-.73-12.07-1.1h0Z" style="fill:#ff5;"/><path id="uuid-2d52775c-b998-40c0-866d-0e320e7bf226" d="m181.92,199.54c-2.37,5.56-5.33,11.43-7.7,17.28-2.56,6.33-4.87,13.41-7.01,19.24" style="fill:none; stroke:#000; stroke-linecap:round; stroke-linejoin:round; stroke-width:2px;"/><path id="uuid-ce784fce-ae7c-40b3-b800-445e17f9e0e2" d="m191.12,200.62c-2.8,6.06-5.39,12.15-7.7,18.37-2.15,5.81-4.05,11.72-5.73,17.68" style="fill:none; stroke:#000; stroke-linecap:round; stroke-linejoin:round; stroke-width:2px;"/><path id="uuid-1f8b01a5-5305-4234-97f8-88f4c028f929" d="m185.57,200.37c-.75.1-1.54,1.1-1.35,1.84.19.73,1.36,1.23,2.06.95.57-.22.87-1.09.71-1.67-.15-.59-.83-1.2-1.43-1.12h0Z"/><path id="uuid-213db62c-2111-4169-8af8-bee1904aae77" d="m182.92,206.75c-.76.1-1.55,1.1-1.36,1.84.19.75,1.37,1.25,2.09.97.57-.22.87-1.11.71-1.7-.15-.59-.84-1.19-1.44-1.11Z"/><path id="uuid-3cee74e8-8303-4b1d-8c73-3bc88b29e88a" d="m179.97,213.3c-.77.12-1.56,1.17-1.33,1.92.23.74,1.47,1.15,2.17.83.54-.25.76-1.11.59-1.67-.17-.57-.84-1.17-1.43-1.08h0Z"/><path id="uuid-5ff952a0-e865-483c-a990-c64284a6aa72" d="m177.68,219.8c-.76.1-1.56,1.09-1.37,1.84.18.74,1.35,1.27,2.07,1,.58-.21.89-1.09.74-1.69-.15-.59-.83-1.23-1.44-1.15h0Z"/><path id="uuid-57cd6e84-28ab-4b74-bce3-2cfd013c3c54" d="m175.37,226.24c-.79.14-1.62,1.22-1.35,1.98.27.76,1.61,1.07,2.31.68.5-.28.63-1.12.43-1.66-.19-.54-.83-1.09-1.39-.99Z"/><path id="uuid-1a0b06fa-cc0f-4aa7-8651-7369b438448d" d="m172.98,232.69c-.77.12-1.57,1.17-1.34,1.91.23.74,1.47,1.16,2.18.83.54-.25.75-1.11.58-1.67-.17-.57-.83-1.16-1.42-1.07Z"/><path id="uuid-17269cfc-63a5-43a6-927e-19f679758c4c" d="m204.91,215.92l19.86.31-9.75,24.11-19.05-1.51,8.94-22.91Z" style="fill:#f55;"/></g><g id="uuid-e24b7312-9af9-4d39-b94b-a5d18e3efe53"><path id="uuid-d3d4a647-ab09-42c1-8bb0-16869b3ed9de" d="m214.44,341.88l-1.95,7.6s-8.62-3.27-13.06-4.48c-5.25-1.44-10.63-2.38-15.99-3.31-3.17-.55-6.35-1.1-9.55-1.36-6.48-.53-13-.52-19.5-.39-6.57.13-13.14.59-19.69,1.17-3.32.29-6.64.69-9.94,1.17-3.79.55-11.31,1.95-11.31,1.95l12.87-12.48,24.18-.19,12.48-31.2-19.11-1.36,3.7-21.06s14.71.68,22.03,1.36c6.78.63,13.54,1.5,20.28,2.53,4.31.66,8.57,1.61,12.87,2.34,3.24.55,9.75,1.56,9.75,1.56,0,0,2.68,6.97,4.29,10.33,2.52,5.27,8.38,15.4,8.38,15.4l-17.74-4.29-9.75,29.05,16.77,5.65Z"/><path id="uuid-3bf74f26-8784-4a8a-9ecb-23ba1de14569" d="m238.48,361.88s-8.46-5.52-12.97-7.76c-4.21-2.1-13.08-5.3-13.08-5.3l11.67-37.48s6.51,9.23,10.25,13.44c3.5,3.93,7.41,7.48,11.36,10.96,3.39,2.98,10.56,8.49,10.56,8.49l-17.79,17.66Z" style="fill:#55a;"/><path id="uuid-c522c266-be15-4b01-a863-370f25e285f9" d="m236.11,295.07s-4.47-13.5-5.3-20.51c-.88-7.37-.91-14.96.35-22.27,1.13-6.5,3.58-12.76,6.36-18.74,2.5-5.37,5.35-10.69,9.19-15.2,3.31-3.88,7.52-6.93,11.67-9.9,5.25-3.75,16.62-9.9,16.62-9.9l3.54,3.18s-1.36,14.23-2.83,21.21c-1.57,7.45-3.64,14.81-6.36,21.92-2.53,6.6-5.87,12.86-9.19,19.09-3.28,6.15-6.3,12.54-10.61,18.03-3.86,4.92-13.44,13.08-13.44,13.08h0Z" style="fill:#55a;"/><path id="uuid-22399d84-b407-4b38-8662-6c3a26dedfe5" d="m242.47,288.35s-4.25-12.79-4.6-19.45c-.38-7.36.83-14.83,2.83-21.92,1.96-6.96,4.83-13.78,8.84-19.8,3.05-4.58,7.08-8.5,11.31-12.02,4.85-4.04,15.91-10.25,15.91-10.25,0,0-1.5,14.67-2.83,21.92-1.01,5.48-2.06,11-3.89,16.26-2.3,6.62-5.59,12.88-8.84,19.09-2.59,4.96-5.21,9.96-8.49,14.5-3.03,4.2-10.25,11.67-10.25,11.67h0Z" style="fill:#f55;"/><g id="uuid-2c5cbbb9-3bb4-45f0-b35b-6d77da4189b5"><path id="uuid-901c3c0e-e94c-464f-9b26-0d969da869ec" d="m311.74,313.86l5.8-12.99s-.83-4.23-2.54-4.98c-1.03-.45-2.32.13-3.25.89-1.19.97-2.5,4.31-2.5,4.31l-4.96,10.44" style="fill:#ff5; stroke:#55a; stroke-linecap:round; stroke-linejoin:round; stroke-width:1.79px;"/><path id="uuid-c78345bc-8011-49a0-8f50-ec2e9a5e8940" d="m316.55,301.24s-2.48,1.01-3.8,1.09c-1.05.07-3.13-.47-3.13-.47" style="fill:none; stroke:#55a; stroke-linecap:round; stroke-linejoin:round; stroke-width:1.79px;"/></g><path id="uuid-dfdf64f3-0080-4f16-adce-11a2a21b53d2" d="m193.29,473.72s13.78-14.05,19.08-22.26c5.54-8.59,9.7-18.11,12.99-27.79,2.85-8.4,4.36-17.22,5.74-25.98.82-5.2,1.1-10.47,1.51-15.71.39-5.03.91-15.11.91-15.11l-45.01,41.69s2.72,9.17,3.32,13.9c.6,4.7.25,9.47.3,14.2.07,6.34-.2,12.69,0,19.03.19,6.02,1.16,18.03,1.16,18.03h0Z"/><path id="uuid-c160ed3f-bcbd-4108-8f25-8fe4c49c56f8" d="m59.72,365.13c5.07-2.59,12.07-6.07,18.25-8.79,5.83-2.57,11.71-5.06,17.76-7.08,5.08-1.7,10.31-2.95,15.51-4.24,4.82-1.19,9.64-2.49,14.55-3.23,5.08-.77,10.24-.89,15.36-1.27,4.12-.3,8.24-.72,12.37-.8,5-.09,10.01.12,15.01.41,4.59.26,9.2.5,13.74,1.21,5.12.8,10.15,2.12,15.16,3.44,4.32,1.13,8.58,2.45,12.83,3.84,4.65,1.52,9.35,2.95,13.84,4.9,5.26,2.29,11.74,6.17,15.28,7.94l-45.29,42.05s-2.74-.51-4.1-.81c-2.59-.57-2.45-.95-7.73-1.86-2.5-1.04-4.17-3.57-6.65-4.64-3.02-1.31-6.38-2.04-9.67-2.03-6.29.01-13.87,1.7-18.45,3.96-2.38,0-4.49.4-6.73.62-3.11.3-6.23.52-9.33.95-3.33.45-6.69.81-9.92,1.71-2.77.77-5.39,1.98-8.03,3.12-2.89,1.25-8.53,4.07-8.53,4.07-3.98-6.64-9.04-15.5-17.59-23.6-4.28-4.05-9.28-9.74-13.55-12.98s-11.07-5.27-14.07-6.86h0Z" style="fill:#ffff58;"/><path id="uuid-59944c85-0d3c-452f-8f8e-96d325b4a211" d="m192.31,435.84s6.09-9.73,8.58-14.9c1.79-3.71,3.39-7.53,4.53-11.48.9-3.11,1.51-6.33,1.82-9.55.26-2.74,0-8.27,0-8.27l-19.03,16.92s2.64,8.57,3.32,12.99c.72,4.72.78,14.29.78,14.29h0Z" style="fill:#f55;"/><path id="uuid-6e94db74-16cf-4536-8c55-028e546e99a1" d="m135.5,509.5l-65.5-84.17-7.83,1.67,59.33,82.5h14Z"/><path id="uuid-62664115-7b7a-4725-8298-16e1992c910e" d="m52.5,509.5c1.67-9.9,2.34-19.97,2-30-.35-10.17-1.75-20.36-5-30-2.39-7.09-5.76-13.84-10-20,3.33.22,6.67.22,10,0,4.38-.29,8.74-.96,13-2l59,82H52.5" style="fill:#ff5; stroke:#55a; stroke-linecap:round; stroke-linejoin:round; stroke-width:2px;"/><path id="uuid-05a5d396-1392-42f6-99d3-3af9242ad94c" d="m85.91,484.03c-.4-.99-.85-1.98-1.52-2.81-.88-1.09-1.84-2.31-3.19-2.74-1.69-.54-3.99-.72-5.39.45-1.36,1.15-1.79,3.43-1.35,5.11.51,1.93,4.23,4.18,4.23,4.18,0,0-4.73,1.58-5.56,3.61-.78,1.91.03,4.45,1.44,5.88,1.39,1.41,3.93,2.34,5.8,1.52,2.1-.92,3.3-6.02,3.3-6.02,0,0,.84,3.75,2.05,5.13,1.08,1.22,2.63,2.42,4.29,2.38,1.48-.03,3.18-.96,3.87-2.28,1.09-2.08.61-4.97-.63-6.88-1.24-1.92-6-3.34-6-3.34,0,0,1.27,2.7-.98,4.26-1.8,1.25-5.05-.24-6.05-2.11-.85-1.58-.4-4.62,1.3-5.35,3.39-1.45,5.12,1.72,5.12,1.72,0,0-.39-1.85-.74-2.71h0Z" style="stroke:#000100; stroke-linecap:round; stroke-linejoin:round; stroke-width:2px;"/><path id="uuid-dff8509b-a1a4-4384-8469-e2ed0979288c" d="m66.33,456.79c-.35-.9-.76-1.79-1.35-2.54-.78-.99-1.64-2.09-2.85-2.48-1.51-.49-3.56-.66-4.81.41-1.22,1.04-1.6,3.11-1.2,4.62.46,1.74,3.77,3.78,3.77,3.78,0,0-3.71,1.83-4.29,3.6-.57,1.73-.01,4.03,1.28,5.32,1.1,1.08,3.1,1.67,4.5,1.04,1.88-.85,2.94-5.45,2.94-5.45,0,0,.75,3.39,1.83,4.64.96,1.11,2.34,2.19,3.83,2.15,1.32-.03,2.83-.87,3.45-2.06.97-1.88.55-4.49-.56-6.22-1.11-1.73-5.35-3.02-5.35-3.02,0,0,1.14,2.44-.88,3.86-1.61,1.13-4.5-.22-5.39-1.91-.76-1.43-.36-4.18,1.16-4.84,3.03-1.31,4.57,1.56,4.57,1.56,0,0-.35-1.67-.66-2.45h0Z" style="stroke:#000100; stroke-linecap:round; stroke-linejoin:round; stroke-width:2px;"/><path id="uuid-f85930e4-e8f8-4dda-99e5-3ce99d6af167" d="m112.17,507.83s-.59-11.23-5.5-16.83c-4.72-5.39-10.28-5.61-15.17-5.17,0,0,2.3-13.14-2-18.5-4.66-5.81-20-10.33-20-10.33,0,0,3.58-10.05-1.33-17-2.72-3.85-11.83-9.5-11.83-9.5" style="fill:none; stroke:#000; stroke-linecap:round; stroke-linejoin:round; stroke-width:2px;"/><path id="uuid-ba6cc933-fb22-4635-9936-7903a9f6f705" d="m107.41,508.86c.69,0,1.34-.54,1.47-1.22,0,0,1.82-8.33-4.06-14.22-.91-.91-2.22-1.69-3.81-2.56s-3.44-1.76-5.19-2.56c-3.05-1.4-5.15-2.2-5.81-2.47,0-.71.02-2.23-.38-5.03-.48-3.37-1.09-8.16-3.32-11.32-4.14-5.86-8.89-8.36-12.3-10.05-2.23-1.1-3.76-1.49-4.78-1.69-.1-.77-.28-2.43-.84-5.28-.68-3.45-1.61-7.37-3.19-9.91-1.65-2.66-4.93-5.5-7.88-7.84s-5.56-4.12-5.56-4.12c-.65-.44-1.65-.25-2.09.41s3.09,3.15,3.74,3.59c0,0,2.36,3.36,2.88,6.8,2.85,2.27,4.93,2.32,6.55,4.4,1.58,2.03,1.96,3.95,2.61,7.27s1,6.12,1,6.12c.08.68.69,1.26,1.38,1.31,0,0,5.7,1.43,7.84,3.29,2.47,2.14,5.69,2.96,5.04,8.42,1.73,2.45,5.51,5.9,5.96,9.04s.44,5.56.44,5.56c-.02.61.37,1.21.94,1.44,0,0,3.11,1.24,6.53,2.81,1.71.78,3.8,1.05,5,2.47,1.47,1.74,1.55,6.12,1.96,6.53,4.66,4.66,4.42,6.97,4.42,6.97-.21.88.56,1.85,1.47,1.84h0Z"/><path id="uuid-a8fae043-3c20-4c36-b505-97cbddc2328c" d="m148.5,509.5h-13.33L29.5,370.83v-32.33l119,171Z" style="fill:#f55; stroke:#55a; stroke-width:2px;"/><path id="uuid-ff5a077d-2940-411f-8134-6ad9133fedf2" d="m172.51,509.5s-1.77-11.3-14.65-22.17c-12.88-10.88-34.36-15.23-34.36-15.23" style="fill:none; stroke:#55a; stroke-linecap:round; stroke-linejoin:round; stroke-width:2px;"/><path id="uuid-5cc4c4d4-757b-4d20-8cc5-92361756b483" d="m167.34,509.5s-5.21-11.83-12.43-17.84c-7.22-6.01-27.53-13.11-27.53-13.11" style="fill:none; stroke:#55a; stroke-linecap:round; stroke-linejoin:round; stroke-width:2px;"/><path id="uuid-3da8c795-5075-4291-8406-10410de237fb" d="m161.23,509.5s-4.41-10.06-9.79-14.64c-5.38-4.58-19.92-10.53-19.92-10.53" style="fill:none; stroke:#55a; stroke-linecap:round; stroke-linejoin:round; stroke-width:2px;"/><path id="uuid-9b4978c7-b3ff-4d72-bb52-db5a8c2c07bb" d="m156.21,509.5s-2.73-6.83-7.03-10.38-12.89-7.39-12.89-7.39" style="fill:none; stroke:#55a; stroke-linecap:round; stroke-linejoin:round; stroke-width:2px;"/><path id="uuid-8dab54bc-a809-4415-83ce-18469cb01bd6" d="m170.56,501.96s.84-4.09,6.14-12.96c5.3-8.87,15.75-12.63,15.75-12.63" style="fill:none; stroke:#55a; stroke-linecap:round; stroke-linejoin:round; stroke-width:2px;"/><path id="uuid-7b144a8b-0516-4c3d-ae38-dcf12a03f107" d="m174.45,509.5s.17-7.05,5-14.56,12.94-11.31,12.94-11.31" style="fill:none; stroke:#55a; stroke-linecap:round; stroke-linejoin:round; stroke-width:2px;"/><path id="uuid-e61de032-3527-4d92-8afa-3c5e5d2e131b" d="m179.82,509.5s1.93-7.46,4.51-12.04c2.58-4.58,7.86-7.9,7.86-7.9" style="fill:none; stroke:#55a; stroke-linecap:round; stroke-linejoin:round; stroke-width:2px;"/><path id="uuid-798e83df-d5fa-46f3-842f-3da6acee5ffe" d="m185.95,509.5s-.18-4.4,1.94-7.95,3.59-3.98,3.59-3.98" style="fill:none; stroke:#55a; stroke-linecap:round; stroke-linejoin:round; stroke-width:2px;"/><path id="uuid-f19e02a1-6ca7-456c-bcd3-7eab54776319" d="m173.09,456.21s-.6-2.7-.53-4.06c.17-3.58,1.2-7.1,2.41-10.47.8-2.21,3-3.95,3.16-6.29.13-1.95-.62-4.06-1.9-5.54-.9-1.04-2.64-.97-3.68-1.87-.84-.73-1.91-2.74-1.91-2.74" style="fill:none; stroke:#55a; stroke-linecap:round; stroke-linejoin:round; stroke-width:2px;"/><path id="uuid-663d4cac-1c85-4184-87de-f8dbe2d87a46" d="m160.75,436.72s-3.32-3.56-2.86-5.6c.3-1.34,1.91-2.28,3.27-2.49,1.78-.27,3.4,1.19,5.08,1.83,1.59.61,3.13,2.43,4.75,1.9.65-.21,1.42-1.14,1.09-1.74-.54-.98-2.24.01-3.36-.05-3.39-.2-7.44-3.12-10.14-1.06-.87.66-.78,2.17-.54,3.24.35,1.57,2.72,3.99,2.72,3.99h0Z" style="fill:#55a; stroke:#55a; stroke-linecap:round; stroke-linejoin:round; stroke-width:2px;"/><path id="uuid-f2fc43a6-86a1-43d7-892c-c3c5fcc1fae8" d="m127.3,459.73s9.21,6.28,14.5,7.65c4.16,1.08,8.74,1.37,12.89.27,1.67-.44,4.45-2.66,4.45-2.66,0,0-4.08,1.31-6.19,1.54-4.27.46-8.71.68-12.88-.38-4.62-1.17-12.78-6.41-12.78-6.41Z" style="fill:#55a; stroke:#55a; stroke-linecap:round; stroke-linejoin:round; stroke-width:2px;"/><path id="uuid-21e88dbe-974b-43a5-810e-cc8096eefca6" d="m191.23,465.25s-5.57,2.98-8.54,2.65c-3.7-.41-9.59-5.53-9.59-5.53,0,0,6.24,4.26,9.86,4.37,3.04.09,8.51-3.15,8.51-3.15l-.24,1.65Z" style="fill:#55a; stroke:#55a; stroke-linecap:round; stroke-linejoin:round; stroke-width:2px;"/><path id="uuid-ac5699b0-da80-4f4a-8499-6196a2396077" d="m155.56,416.53s4.7,1.88,7.15,2.04c1.84.13,3.65-.7,5.49-.79,2.1-.1,4.26.85,6.31.29,1.12-.31,3.03-1.94,3.03-1.94,0,0-2.09.46-3.14.4-2.14-.13-4.14-1.57-6.28-1.57-2.36,0-4.55,1.46-6.93,1.71-1.87.2-5.63-.16-5.63-.16h0Z" style="fill:#55a; stroke:#55a; stroke-linecap:round; stroke-linejoin:round; stroke-width:2px;"/><path id="uuid-a2d606dc-09b9-4b25-a70c-be5cdb3303c1" d="m161.92,411.67s3.94-1.37,5.99-1.42c1.75-.04,5.17.99,5.17.99" style="fill:none; stroke:#55a; stroke-linecap:round; stroke-linejoin:round; stroke-width:2px;"/><path id="uuid-20e14756-07e4-435d-8593-b9d1eaf55fd8" d="m173.87,456.6s5.03,4.11,9.65,4.21c4.94.11,7.89-2.52,7.89-2.52" style="fill:none; stroke:#55a; stroke-linecap:round; stroke-linejoin:round; stroke-width:2px;"/><path id="uuid-9c8b2981-7748-4987-8592-0cd3013f4cf5" d="m130.89,454.45s9.86,7.33,15.53,7.16c7.42-.21,12.96-5.56,12.96-5.56" style="fill:none; stroke:#55a; stroke-linecap:round; stroke-linejoin:round; stroke-width:2px;"/><path id="uuid-a41438c5-008e-4d30-8f72-558b92ab3d28" d="m129.79,452.88c5.85.76,10.15,3.3,15.54,3.76,4.62.39,13.94-1.04,13.94-1.04" style="fill:none; stroke:#55a; stroke-linecap:round; stroke-linejoin:round; stroke-width:2px;"/><path id="uuid-04f64bf1-858c-463f-9bd8-c065dec44356" d="m192.05,452.81c-5.39,2.54-4.23,3.35-9.62,3.81-4.62.39-9.45-2.23-9.45-2.23" style="fill:none; stroke:#55a; stroke-linecap:round; stroke-linejoin:round; stroke-width:2px;"/><path id="uuid-f22bbe98-4ce2-4592-970c-3e7537dc8e9f" d="m133.03,452.42c5.27-1.2,10.77-5.08,16.73-5.38,4.42-.22,9.15,2.81,9.54,6.9" style="fill:none; stroke:#55a; stroke-linecap:round; stroke-linejoin:round; stroke-width:2px;"/><path id="uuid-643215a0-a375-4712-8233-39310c290300" d="m144.12,455.1c-.94-5.06,4.02-6.56,7.58-6.12,2.41.3,4.65,3.26,3.49,6.15" style="fill:none; stroke:#55a; stroke-linecap:round; stroke-linejoin:round; stroke-width:2px;"/><path id="uuid-723a4079-ac30-4a47-94df-1c08c503a7b2" d="m152.37,452.26c.1.92-.75,2.18-1.71,2.23-.84.04-1.72-.98-1.71-1.78.02-.84.98-1.76,1.86-1.78.7-.02,1.48.67,1.55,1.34h0Z" style="fill:#55a; stroke:#55a; stroke-linecap:round; stroke-linejoin:round; stroke-width:2px;"/><path id="uuid-24463e01-0261-4336-831f-efb7df254b61" d="m180.94,451.95c-.03.72.85,1.64,1.74,1.63.78-.02,1.53-.86,1.46-1.49-.08-.65-1.04-1.31-1.85-1.27-.65.03-1.33.61-1.35,1.13h0Z" style="fill:#55a; stroke:#55a; stroke-linecap:round; stroke-linejoin:round; stroke-width:2px;"/><path id="uuid-4674ddab-dc83-429f-82fa-17f2b2bc5238" d="m174.53,448.09c2.09-2.46,2.24-4.64,6.58-6.73" style="fill:none; stroke:#55a; stroke-linecap:round; stroke-linejoin:round; stroke-width:2px;"/><path id="uuid-1cd4724f-d6af-4c95-8d20-f5713723fba1" d="m159.98,455.14c-1.6-7.12-3.88-10.94-9.02-13.1" style="fill:none; stroke:#55a; stroke-linecap:round; stroke-linejoin:round; stroke-width:2px;"/><path id="uuid-14bfe0e1-9ebd-4929-90ac-86c31d1ceabe" d="m191.95,450.09c-2.86-1.8-6.51-2.87-11.18-2.75-3.46.09-6.97,2.54-7.03,5.5" style="fill:none; stroke:#55a; stroke-linecap:round; stroke-linejoin:round; stroke-width:2px;"/><path id="uuid-1fb75cd7-f2fd-4578-b7c8-01f19ddcf214" d="m186.67,455.4c1.11-4.9-1.1-7.54-5.14-7.45-1.78.04-5.42,4.04-2.75,7.84" style="fill:none; stroke:#55a; stroke-linecap:round; stroke-linejoin:round; stroke-width:2px;"/><path id="uuid-5c6efa88-0bb7-420f-8f02-d94358777d42" d="m190.5,509.5s2.29-21.97,2.5-33c.16-8.67-.74-17.33-1-26-.24-8.16.41-16.38-.5-24.5-.65-5.75-.93-11.81-3.5-17-2.25-4.55-5.71-8.78-10-11.5-3.66-2.31-8.18-3.27-12.5-3.5-4.39-.23-8.83.81-13,2.21-5.7,1.91-10.99,4.98-16,8.29-5.04,3.32-9.86,7.11-14,11.5-3.11,3.3-8,11-8,11" style="fill:none; stroke:#55a; stroke-linecap:round; stroke-linejoin:round; stroke-width:2px;"/><path id="uuid-fd1841f6-be92-48ae-9b6f-dc345aec683c" d="m193.15,403.06c-4.67-2.41-8.82-2.83-11.95-3.19" style="fill:none; stroke:#55a; stroke-linecap:round; stroke-linejoin:round; stroke-width:2px;"/><path id="uuid-1f5954af-d6a3-42c0-9020-0c399900c751" d="m148.44,397.48c-7.26,1.35-16.24,2.2-24.14,4.27-6.64,1.74-12.96,4.56-19.44,6.84" style="fill:none; stroke:#55a; stroke-linecap:round; stroke-linejoin:round; stroke-width:2px;"/><path id="uuid-bbd162ec-72cb-47b7-80bc-31712369ce06" d="m116.61,422.69l-5.98-15.81" style="fill:none; stroke:#55a; stroke-linecap:round; stroke-linejoin:round; stroke-width:2px;"/><path id="uuid-c6f4a74f-cb5b-4288-a26a-5d107955a81a" d="m120.03,418.42l-4.91-13.03" style="fill:none; stroke:#55a; stroke-linecap:round; stroke-linejoin:round; stroke-width:2px;"/><path id="uuid-2068fc09-5cf4-4d7b-8ecd-25335d7ff006" d="m123.87,413.72l-3.2-9.4" style="fill:none; stroke:#55a; stroke-linecap:round; stroke-linejoin:round; stroke-width:2px;"/><path id="uuid-56e23c13-16d6-4c6f-b424-8908524699cf" d="m127.72,410.3l-2.99-7.48" style="fill:none; stroke:#55a; stroke-linecap:round; stroke-linejoin:round; stroke-width:2px;"/><path id="uuid-21ed66c9-cbac-4664-9189-aaf8f1f44070" d="m131.77,406.88l-2.78-6.2" style="fill:none; stroke:#55a; stroke-linecap:round; stroke-linejoin:round; stroke-width:2px;"/><path id="uuid-73bd044f-e756-4537-993f-3d5ba0c9d4b2" d="m135.62,404.11l-1.71-3.63" style="fill:none; stroke:#55a; stroke-linecap:round; stroke-linejoin:round; stroke-width:2px;"/><path id="uuid-9ddd4d7e-e82b-415a-ac3d-40fbc3ef3588" d="m114.68,459.44c1-1.85,2.23-3.6,2.99-5.55,1.04-2.67,1.42-5.55,2.14-8.33" style="fill:none; stroke:#55a; stroke-linecap:round; stroke-linejoin:round; stroke-width:2px;"/><path id="uuid-9af4a9fe-402d-4feb-9ee3-7cc44dcb2616" d="m110.63,453.45c1.28-2.56,2.91-4.98,3.85-7.69,1.16-3.37,1.42-6.98,2.14-10.47" style="fill:none; stroke:#55a; stroke-linecap:round; stroke-linejoin:round; stroke-width:2px;"/><path id="uuid-b4698202-aa6b-4eb3-832e-5c7ac0007548" d="m106.99,448.11c1.14-2.71,2.59-5.3,3.42-8.12,1.28-4.37,1.57-8.97,2.35-13.46" style="fill:none; stroke:#55a; stroke-linecap:round; stroke-linejoin:round; stroke-width:2px;"/><path id="uuid-674cec7e-c763-49cc-80ed-0070bd5b48ac" d="m102.94,442.99c1.35-3.49,3.28-6.81,4.06-10.47,1.2-5.65.57-11.54.85-17.3" style="fill:none; stroke:#55a; stroke-linecap:round; stroke-linejoin:round; stroke-width:2px;"/><path id="uuid-d452ca52-25d5-4ed9-8e55-03df3bc6d1cd" d="m98.66,437.43c1.21-2.56,2.97-4.93,3.63-7.69,1.76-7.34.43-15.1.64-22.64" style="fill:none; stroke:#55a; stroke-linecap:round; stroke-linejoin:round; stroke-width:2px;"/><path id="uuid-18be7297-cf83-411b-8474-7a6faff689ee" d="m94.39,431.88c1.28-3.2,3.34-7.22,3.85-11.11.99-7.58-1.14-15.24-1.71-22.86" style="fill:none; stroke:#55a; stroke-linecap:round; stroke-linejoin:round; stroke-width:2px;"/><path id="uuid-db452bea-6082-45f6-a25b-76239120a114" d="m90.55,425.04c1.07-3.42,2.24-8.91,2.35-13.46.19-7.53-1.57-13.89-2.78-22.43" style="fill:none; stroke:#55a; stroke-linecap:round; stroke-linejoin:round; stroke-width:2px;"/><path id="uuid-1eeb33e0-741f-4abf-b61b-1963f4d2280a" d="m85.85,418.42c.71-4.77.91-8.98.64-13.46-.51-8.51-2.14-17.02-4.27-25.21" style="fill:none; stroke:#55a; stroke-linecap:round; stroke-linejoin:round; stroke-width:2px;"/><path id="uuid-249ee3e6-fbf9-4dc3-a280-1f1753fadeeb" d="m80.29,410.3c.14-4.49.63-9.58,0-14.31-1.08-8.05-4.13-15.38-6.41-23.5" style="fill:none; stroke:#55a; stroke-linecap:round; stroke-linejoin:round; stroke-width:2px;"/><path id="uuid-4e02e562-9102-427d-ab33-47f18f67f9c0" d="m73.46,400.48c.28-3.28.28-7.9-.43-11.75-1.32-7.18-3.35-13.53-7.05-20.72" style="fill:none; stroke:#55a; stroke-linecap:round; stroke-linejoin:round; stroke-width:2px;"/><path id="uuid-50a1cb7e-d832-4d70-89da-974b1ed258ce" d="m67.26,391.5c-.5-3.7-.39-7.54-1.5-11.11-1.68-5.41-5.48-10.47-7.69-15.17" style="fill:none; stroke:#55a; stroke-linecap:round; stroke-linejoin:round; stroke-width:2px;"/><g id="uuid-51fec36f-e915-4a2d-9135-c6e97a96b38b"><path id="uuid-56afeaeb-b202-4e4e-ad4c-64fbfe851554" d="m269.7,331.54s4.4,5.21,6.87,7.6c2.59,2.52,5.29,4.98,8.3,7.08,2.32,1.62,4.68,3.49,7.44,4.19,1.63.42,3.48.56,5.04-.07,1.14-.47,2.42-1.34,2.69-2.55.51-2.29-1.1-4.73-2.58-6.55-1.5-1.85-3.77-2.99-5.95-3.95-1.31-.58-2.92-.9-4.18-1.04-.83-2.6,1.66-2.01,1.13-7.14-.15-1.5-.36-3.57-.36-3.57" style="fill:none; stroke:#55a; stroke-linecap:round; stroke-linejoin:round; stroke-width:2px;"/><path id="uuid-0bc45ca0-8c8b-4b79-9365-3884c0bce138" d="m296.03,345.81s-.49-1.66-1.14-2.22c-.6-.51-1.48-.78-2.29-.79-.79,0-2.26.73-2.26.73" style="fill:none; stroke:#55a; stroke-linecap:round; stroke-linejoin:round; stroke-width:2px;"/><path id="uuid-ba4034e8-ef20-4334-ad9d-44ebb1ff95ad" d="m300.61,348.58s3.97,1.81,5.72,1.05c1.85-.81,2.85-3.1,2.86-4.98.01-2.85-2.78-5.12-4.29-7.6-.92-1.51-1.53-3.33-2.91-4.44-1.35-1.08-3.17-2.2-4.87-1.83-1.32.29-2.39,1.62-2.86,2.88-.42,1.13-.58,2.73.23,3.62,1.09,1.2,3.22,1.09,4.81.75.85-.18,1.63-.75,2.17-1.43.55-.7.93-2.51.93-2.51" style="fill:none; stroke:#55a; stroke-linecap:round; stroke-linejoin:round; stroke-width:2px;"/><path id="uuid-4e045330-4f96-434a-b7df-a66f2de43d6a" d="m310.06,343.33s2.8-.86,3.72-1.83c.92-.99,1.49-2.37,1.43-3.67-.1-2.11-1.55-4.03-2.86-5.77-1.54-2.03-3.54-3.85-5.72-5.24-1.62-1.03-3.42-1.91-5.31-2.23-1.41-.24-3.31-.78-4.29.26-.84.89-.61,2.61,0,3.67.46.8,1.5,1.15,2.38,1.41,1.2.36,2.71.86,3.76.17.94-.61,1.21-3.15,1.21-3.15" style="fill:none; stroke:#55a; stroke-linecap:round; stroke-linejoin:round; stroke-width:2px;"/><path id="uuid-eab352fc-f3ff-4264-9f6a-48af454a9085" d="m314.64,333.37s3.48-2.21,3.72-3.93c.16-1.16-.91-2.24-1.72-3.15-2.07-2.31-4.95-3.94-7.73-5.5-1.71-.96-3.43-2.34-5.44-2.36-.94-.01-2.11.3-2.58,1.05-.43.69-.09,1.65.29,2.36.7,1.34,1.82,3.19,3.43,3.15,1.01-.03,1.6-1.24,2-2.1.41-.89.29-2.88.29-2.88" style="fill:none; stroke:#55a; stroke-linecap:round; stroke-linejoin:round; stroke-width:2px;"/><path id="uuid-c4124bd3-d84c-480d-8426-9e33c27c1212" d="m316.35,324.2s1.26-2.04,1.14-3.15c-.18-1.79-1.48-3.44-2.86-4.72-1.79-1.66-4.17-2.84-6.62-3.5-1.27-.34-2.96-.96-3.97-.17-1.25.97-1.33,3.13-.57,4.46.65,1.14,2.33,2.03,3.72,1.83,1.05-.15,1.72-1.24,2.22-2.1.5-.87.64-2.88.64-2.88" style="fill:none; stroke:#55a; stroke-linecap:round; stroke-linejoin:round; stroke-width:2px;"/><path id="uuid-c62b8102-29c0-4da4-980f-c7f03648ccba" d="m304.76,311.23s-.87-1.36-1.48-1.89c-.57-.49-1.27-.82-1.96-1.12-1.36-.6-4.26-1.38-4.26-1.38" style="fill:none; stroke:#55a; stroke-linecap:round; stroke-linejoin:round; stroke-width:2px;"/></g><g id="uuid-3a3b8adb-a3bb-4b20-8f3b-a2e7a0692bce"><path id="uuid-4a44a515-1216-4942-98ed-7addf9f405ca" d="m295.83,348.78s5.52-1.21,8.31-1.1c2.13.08,4.32.41,6.25,1.31,2.09.98,3.98,2.5,5.44,4.28,1.64,2,3.49,6.92,3.49,6.92,0,0-4.35-.93-6.57-1.09-2.39-.17-4.8.4-7.18.15-1.77-.18-3.53-.61-5.21-1.21-1.35-.48-2.71-1.02-3.85-1.87-1.12-.84-2.05-1.94-2.82-3.1-.65-.97-1.47-3.17-1.47-3.17l3.61-1.12Z" style="fill:#ff5; stroke:#55a; stroke-linecap:round; stroke-linejoin:round; stroke-width:2px;"/><path id="uuid-f1a475f4-bd20-4372-ac55-1eb095c66403" d="m310.88,354.48s-2.93-1.52-4.51-1.97c-2.39-.68-4.92-.65-7.37-1.06-1.82-.31-5.45-1.05-5.45-1.05" style="fill:none; stroke:#55a; stroke-linecap:round; stroke-linejoin:round; stroke-width:2px;"/></g><path id="uuid-d90e1987-f23b-4c0f-a9bd-971c3fac1d05" d="m292.97,351.35l-.89,10.32-3.07,2.71-2.65-2.68.59-13.76,6.02,3.41Z" style="fill:#ff5; stroke:#55a; stroke-linecap:round; stroke-linejoin:round; stroke-width:2px;"/><g id="uuid-f77bb2de-8e1f-481f-b418-e46f74443b85"><path id="uuid-c666d18b-ad3c-46a8-afc3-8629eb715997" d="m285.21,348.15s-1.8,3.9-3.36,5.4c-1.8,1.74-4.19,2.98-6.61,3.9-2.26.87-4.86.71-7.16,1.47-2.15.71-6.12,2.84-6.12,2.84,0,0,.43-4.69,1.49-6.72,1.13-2.16,2.91-4.08,4.98-5.38,2.79-1.75,6.21-2.34,9.46-2.89,1.46-.25,2.99-.51,4.43-.19,1.08.25,2.89,1.56,2.89,1.56h0Z" style="fill:#ff5; stroke:#55a; stroke-linecap:round; stroke-linejoin:round; stroke-width:2.31px;"/><path id="uuid-ffd4df2c-3434-4684-bff7-5a2a1285cbb5" d="m284.14,348.24s-3.24,2.52-5.14,3.21c-2.22.81-4.81.15-7.01,1.02-1.61.63-4.28,2.94-4.28,2.94" style="fill:none; stroke:#55a; stroke-linecap:round; stroke-linejoin:round; stroke-width:2.31px;"/></g><path id="uuid-7fbdeadf-7fbd-45a4-8bfa-6a1974957616" d="m279.1,379.81l-5.84,4.14-5.62-3.13,5.64-4.66,5.81,3.65Z" style="fill:#55a; stroke:#55a; stroke-linecap:round; stroke-linejoin:round; stroke-width:2px;"/><path id="uuid-ebacc348-c90d-49c1-868a-5cd98f59db15" d="m292.86,387.99l4.28,5.75-3.98,5.74-4.31-5.66,4-5.83Z" style="fill:#55a; stroke:#55a; stroke-linecap:round; stroke-linejoin:round; stroke-width:2px;"/><path id="uuid-824632be-e1f5-424b-947c-4d4dadfea919" d="m308.67,379.13l5.47-4.48-6.68-3.08-4.06,4.42,5.26,3.14Z" style="fill:#55a; stroke:#55a; stroke-linecap:round; stroke-linejoin:round; stroke-width:2px;"/><path id="uuid-396060f1-4592-4c50-8de2-b6bc51fa4990" d="m305.81,373.78c1.13-2.21,2.67-4.57,2.46-7.03-.16-1.86-1.29-3.67-2.72-4.95-1.85-1.67-4.49-2.58-6.98-3.03-1.21-.22-2.56-.28-3.7.21-2.25.96-5.37,5.01-5.37,5.01,0,0-2.91-2.58-4.73-3.06-2.81-.75-6.15-.9-8.7.48-1.79.97-3.04,2.96-3.62,4.91-.63,2.11-.29,4.5.37,6.61.41,1.3,1.19,2.52,2.15,3.49,1.42,1.44,5.12,3.25,5.12,3.25,0,0-4.18,2.93-5.42,5.07-.85,1.46-1.34,3.24-1.17,4.92.17,1.66.97,3.28,2.11,4.53,1.31,1.44,3.1,2.81,5.1,3.06,2.49.31,5.14-.7,7.2-2.11,1.1-.76,1.71-2.05,2.42-3.18.94-1.48,2.4-4.68,2.4-4.68,0,0,2.75,3.52,4.62,4.64,2.37,1.42,5.2,2.73,7.95,2.37,1.73-.22,3.45-1.28,4.4-2.71,1.17-1.75,1.24-4.15,1.01-6.25-.21-1.99-.95-4.01-2.18-5.58-1.21-1.53-4.8-3.34-4.8-3.34.41-1.38,1.33-1.44,2.06-2.61h0Z" style="fill:#ff5; stroke:#55a; stroke-linecap:round; stroke-linejoin:round; stroke-width:2px;"/><path id="uuid-1bbd6099-f6c3-4f29-8728-37daf92ae9c2" d="m293.01,383.3c3.01-.4,6.11-4.02,5.8-7.04-.32-3.08-4.18-6.18-7.25-5.8-3.18.4-6.28,4.5-5.8,7.66.45,2.94,4.31,5.57,7.25,5.18Z" style="fill:#f55; stroke:#55a; stroke-linecap:round; stroke-linejoin:round; stroke-width:2px;"/><path id="uuid-6ddbc678-80ab-46f2-9992-6f384f0ee141" d="m301.92,384.96l-4.14-3.52" style="stroke:#55a; stroke-linecap:round; stroke-linejoin:round; stroke-width:2px;"/><path id="uuid-43c042d5-0c63-4db9-80f6-d78c00178ca7" d="m283.69,386.82l4.14-5.18" style="stroke:#55a; stroke-linecap:round; stroke-linejoin:round; stroke-width:2px;"/><path id="uuid-5015e4bf-a420-48e8-a529-3f89ac9f65b1" d="m286.59,373.77l-4.97-3.73" style="stroke:#55a; stroke-linecap:round; stroke-linejoin:round; stroke-width:2px;"/><path id="uuid-223f11d2-4a6b-4740-bcba-bef09442d461" d="m295.29,371.5l4.35-5.59" style="stroke:#55a; stroke-linecap:round; stroke-linejoin:round; stroke-width:2px;"/><path id="uuid-2cae665b-dbf4-4559-8be3-bdbf57abe4e3" d="m176.78,372.73l2.48-13.17-13.06-1.22-1.17,12.92,11.75,1.47Zm-5.38-4.12l-3.19-3.18,3.53-2.84,3.09,3.19-3.44,2.84Z"/><path id="uuid-285056f5-4765-495d-aa28-6fabc5a3d783" d="m186,386.39l3.81-12.15-12.96-2.65-2.5,12.82,11.65,1.98Zm-4.35-3.29l-3.19-3.18,3.53-2.84,3.09,3.19-3.44,2.84Z"/><path id="uuid-e69e1a36-6c3f-42c3-a286-fccd416334a1" d="m200.62,378.69l5.14-11.95-13.07-4.41-3.73,12.73,11.66,3.62Zm-4.71-5.11l-2.3-3.87,4.12-1.88,2.21,3.85-4.03,1.9Z"/><path id="uuid-572ac094-c5f4-453e-a7c5-f87f0b79139c" d="m217.21,371.92l4.71-10.75-11.89-5.53-5.1,11.34,12.29,4.95Zm-5.73-4.86l-1.93-4.07,4.28-1.49,1.84,4.04-4.19,1.52Z"/><path id="uuid-6b492c3f-ae79-46be-9705-b4599ebae734" d="m203.91,393.24l5.13-4.22,3.07-5.87-11.79-4.73-4.53,10.41,8.11,4.41Zm-1.52-4.07l-1.79-4.13,4.33-1.34,1.7,4.11-4.24,1.36Z"/><path id="uuid-a32701c2-f252-47b9-a16a-0a4dd94d1bb4" d="m192.79,362.97l3.46-11.33-14.34-3.12-2.78,11.64,13.66,2.81Zm-5.53-4.31l-3.07-3.29,3.63-2.72,2.98,3.3-3.54,2.71Z"/><path id="uuid-3cfe6cac-8981-41e7-be85-801cc7818b05" d="m163.62,383.41l1.71-12.72-13.19-.14-.7,12.75,12.18.12Zm-5.9-3.45l-3.27-3.09,3.45-2.94,3.18,3.1-3.36,2.93Z"/><path id="uuid-773cc94f-b4ae-4ce0-910e-738557fd2052" d="m166.53,359.02l1.57-11.94-14.33-.72-.56,12.24,13.32.42Zm-6.48-3.76l-3.33-3.03,3.4-3,3.24,3.04-3.31,2.99Z"/><path id="uuid-087d1b97-ccf4-4db5-8a42-598e39a94f8b" d="m152.67,370.87l.96-12.71-13.63.39.88,12.25,11.79.06Zm-5.88-3.18l-3.42-2.93,3.31-3.1,3.33,2.94-3.21,3.09Z"/><path id="uuid-d31a05e0-ba1b-4499-8abe-ee935b732193" d="m141.52,383.3l-.71-12.79-12.56,2.24,1.53,11.49,11.74-.95Zm-6-3.25l-3.68-2.6,3-3.4,3.59,2.62-2.91,3.38Z"/><path id="uuid-c1649a42-eb44-41a8-8d4d-2c5afe80162f" d="m140.2,358.99l-.74-11.25-13.57,2.22,1.35,11.35,12.96-2.32Zm-6.34-2.01l-3.97-1.79,2.55-3.16,3.89,1.82-2.47,3.13Z"/><path id="uuid-ec0ec3d5-b219-4451-8f3e-6df98d1503f5" d="m113.11,364.35l-2.69-12.17-14.08,4.27,4.63,11.96,12.14-4.06Zm-7.16-1.29l-3.97-1.79,2.55-3.16,3.89,1.82-2.47,3.13Z"/><path id="uuid-9d20a827-d51e-4a5f-b0f2-b11bcd6d3d42" d="m88.55,372.11l-3.49-10.79-12.23,4.54,5.4,10.24,10.32-3.98Zm-6.6-.81l-4.23-1.03,1.93-3.58,4.15,1.07-1.85,3.53Z"/><path id="uuid-38ca289c-5dc4-42cb-954a-83a06db0f4db" d="m104.59,379.27l-3.42-11.09-12.73,3.96,4.61,11.97,11.54-4.84Zm-5.78-.79l-4.24-1.02,1.92-3.58,4.16,1.06-1.84,3.54Z"/><path id="uuid-bc2c238c-4276-4395-926e-df22eb260e0d" d="m119.45,387.21l-2.78-11.69-12.29,3.99,4.19,11.67,10.87-3.97Zm-6.5-1.43l-4.12-1.42,2.26-3.38,4.03,1.46-2.17,3.34Z"/><path id="uuid-72fbfa87-198e-4ea9-95f5-629fa53888cd" d="m128.52,372.98l-1.45-11.76-14.19,2.73,3.4,11.96,12.24-2.93Zm-6.34-2.52l-3.97-1.79,2.55-3.16,3.89,1.82-2.47,3.13Z"/><path id="uuid-1bd0a9b2-b865-45dc-baec-7e094df48480" d="m216.91,371.7l-5.03,11.71,1.85.72,10.58-9.14-7.4-3.29Z"/><path id="uuid-a106166d-5b5c-4724-bf93-9026fa1f622a" d="m98.66,395.12l-5.44-10.99-4.52,1.85,8.01,10.17,1.95-1.03Z"/><path id="uuid-aeb55b5a-aa24-4739-829b-f833c9627702" d="m203.23,393.36c-10.67-6.44-22.89-8.51-34.88-10.14-8.61-1.17-17.42-.58-26.06.32-8.57.9-17.09,2.58-25.35,5.03-6.56,1.94-12.86,4.7-19.06,7.62" style="fill:none; stroke:#55a; stroke-linecap:round; stroke-linejoin:round; stroke-width:2px;"/><path id="uuid-c5566982-b0a0-4023-87d1-5f2b39e649d2" d="m69.59,368.26c5.07-2.59,9.98-5.5,15.2-7.78,3.79-1.65,7.73-2.95,11.67-4.24,4.78-1.57,9.61-3.04,14.5-4.24,4.67-1.15,9.38-2.14,14.14-2.83,4.68-.68,9.74-1.36,14.45-1.78,4.6-.41,8.87-.49,13.48-.7,4.59-.2,9.2-.23,13.79,0,4.73.24,9.46.71,14.14,1.41,4.75.71,9.49,1.63,14.14,2.83,4.55,1.17,9.01,2.67,13.44,4.24,4.54,1.61,9.04,3.34,13.44,5.3,3.61,1.61,7.07,3.54,10.61,5.3" style="fill:none; stroke:#55a; stroke-linecap:round; stroke-linejoin:round; stroke-width:2px;"/><path id="uuid-53a2be36-5ee1-480f-acd8-9d3865775e7d" d="m101.87,403.97s12.75-5.86,19.44-7.88c6.88-2.07,13.99-3.44,21.12-4.28,6.98-.83,14.06-1.25,21.06-.75,7.32.52,14.58,1.99,21.66,3.91,4.22,1.14,12.31,4.5,12.31,4.5l2.26-2.4s-9.07-3.7-13.79-4.97c-7.27-1.96-14.68-3.49-22.22-4.03-7.24-.52-14.48-.07-21.66.78-7.3.87-14.58,2.28-21.62,4.41-6.96,2.1-20.23,8.19-20.23,8.19l1.66,2.53Z"/><path id="uuid-16759666-4c53-43fd-ab3c-498205ac1486" d="m120.79,469.42s.9-14.71-.29-21.92c-1.14-6.92-3.79-13.54-6.5-20-3.49-8.32-7.67-16.38-12.5-24-3.25-5.13-7.01-9.93-11-14.5-5.42-6.22-10.71-12.82-17.5-17.5-4.36-3.01-9.58-4.53-14.5-6.5-4.71-1.88-14.35-5.07-14.35-5.07" style="fill:none; stroke:#55a; stroke-linecap:round; stroke-linejoin:round; stroke-width:2px;"/><path id="uuid-1b6f11d1-9581-4044-81ba-c56145c2c878" d="m256.09,343.91s-13.85-10.11-19.59-16.41c-5.33-5.84-13.5-19.5-13.5-19.5,0,0,14.79-12.24,21-19.5,7.18-8.4,13.32-17.74,18.5-27.5,4.38-8.26,8.01-16.99,10.5-26,1.71-6.18,2.17-12.64,3-19,.63-4.82,1.5-14.5,1.5-14.5l52,50v25.5" style="fill:#ffff58; stroke:#000; stroke-linecap:round; stroke-linejoin:round; stroke-width:2px;"/><path id="uuid-81595c8a-1384-4b33-98dd-80e947773ae6" d="m322.5,273.5l-68,62.5s-8.81-7.6-12.58-12c-3.57-4.16-9.42-13.5-9.42-13.5,0,0,11.82-11.58,17-18,6.48-8.02,12.45-16.51,17.5-25.5,3.58-6.37,6.58-13.1,9-20,1.99-5.68,3.55-11.55,4.5-17.5.81-5.11,1-15.5,1-15.5l40.5,40.5.5,19Z" style="stroke:#000; stroke-linecap:round; stroke-linejoin:round; stroke-width:2px;"/><path id="uuid-f834c9e9-e0ef-47f2-ad16-31690ee74e21" d="m268.2,317.52c.06,1.63-1.15,4.75-1.15,4.75,0,0-2.87-1.49-4.08-2.54-1.26-1.09-3.23-3.81-3.23-3.81,0,0-1.29,2.92-2.24,4.18-1.06,1.43-3.8,3.76-3.8,3.76,0,0-1.45-3.17-1.63-4.87-.21-2,.71-6,.71-6,0,0-3.39,1.65-5.22,1.98-1.74.32-5.3,0-5.3,0,0,0,1.76-3.63,3.03-5.17,1.3-1.57,4.59-4.04,4.59-4.04,0,0-2.36-.83-3.28-1.62-1.07-.92-2.43-3.46-2.43-3.46,0,0,2.59-1.55,4.04-1.87,1.27-.29,3.9-.03,3.9-.03,0,0-.84-2.8-.85-4.24-.01-1.58.85-4.66.85-4.66,0,0,2.46,1.17,3.44,2.08,1.09,1.01,2.59,3.64,2.59,3.64,0,0,1.14-3.96,2.22-5.68,1.24-1.97,4.77-5.12,4.77-5.12,0,0,.71,4.84.69,7.27-.01,2.01-.65,6-.65,6,0,0,3.08-1.64,4.75-2.1,1.74-.49,5.38-.69,5.38-.69,0,0-.94,3.86-1.99,5.51-1.18,1.86-4.68,4.66-4.68,4.66,0,0,2.95.72,4.31,1.37,1.66.8,4.59,3.07,4.59,3.07,0,0-3.27,2.54-5.22,2.95-1.9.4-5.79-.55-5.79-.55,1.4,1.18,1.61,3.41,1.68,5.24Z" style="fill:#ffff58;"/><path id="uuid-f4b29d18-dba4-4b0d-951c-c31efc2a50d7" d="m260.47,312.78c1.57-.13,3.07-1.15,4.09-2.34,1.02-1.19,1.74-2.83,1.69-4.41-.07-1.82-1.03-3.65-2.31-4.94-1.27-1.28-3.07-2.35-4.88-2.34-1.72,0-3.44,1.03-4.62,2.28-1.19,1.26-2.12,3.05-2.03,4.78.1,1.89,1.32,3.73,2.75,4.97,1.43,1.24,3.43,2.15,5.31,2Zm-.16-2c-1.38.11-2.83-.62-3.88-1.53-1.03-.9-1.96-2.2-2.03-3.56-.06-1.2.64-2.41,1.47-3.28.83-.88,2.01-1.66,3.22-1.66,1.28,0,2.51.84,3.41,1.75.93.95,1.7,2.26,1.75,3.59.04,1.1-.51,2.23-1.22,3.06-.68.8-1.67,1.54-2.72,1.62Z"/><path id="uuid-afa17c0e-101a-493f-80a0-00c64ae58234" d="m302.32,271.12v8.58s-6.3.7-8.26,2.86c-1.83,2.02-1.91,7.94-1.91,7.94h-12.07l22.24-19.38Z" style="fill:#ffff58;"/><path id="uuid-df2c651d-4eda-43a3-8ae3-6f6c9dc2320a" d="m287.6,277.23c1.27-1.29.72-4.2-.64-5.4-1.35-1.2-4.13-1.27-5.4,0-1.12,1.12-1.06,3.58,0,4.77,1.35,1.5,4.61,2.07,6.04.64h0Z" style="fill:#ffff58;"/><path id="uuid-1326e74f-200b-42c3-b096-ab9afb57125a" d="m268.64,279.7l16.84-20.97-9.21,1.91s.24,5.35-1.27,7.31c-1.57,2.02-6.99,3.18-6.99,3.18l.64,8.58Z" style="fill:#ffff58;"/><path id="uuid-63a16f2f-2b72-4e0a-bd4c-1ee52e5df09c" d="m317.88,253.65c-3.38-.7-6.88-.77-9.53-5.08-.39,7.23-4.25,11-7.94,14.93-2.07-5.19-3.17-10.38,0-15.57-5.74,5.01-10.54,2.56-15.57,1.91,2.36-4.61,5.39-8.76,11.12-11.12-3.93-3.23-5.42-7.67-6.35-12.39,1.91.45,3.81.7,5.72,2.22l20.01,20.01c1.12,1.69,1.77,3.39,2.54,5.08Z" style="fill:#ffff58;"/><path id="uuid-fae61bc2-7426-416c-bfd8-68203d74d53a" d="m304.06,247c1.33.4,2.86-.14,4.09-.78,1.2-.62,2.33-1.62,2.94-2.81l-1.6-1.09c-.35.68-1.35,1.64-2.28,2.12-.86.45-1.92.88-2.84.59-1.53-.47-2.74-1.98-3.34-3.47-.58-1.43-.16-3.09,0-4.62.11-1.03.66-3.03.66-3.03l-1.91-1.41s-.61,2.74-.71,4.13c-.14,1.87-.65,3.9.09,5.62.91,2.09,2.73,4.1,4.91,4.75Z"/><path id="uuid-0349cfd4-10d5-4810-ae99-676b2524e4f6" d="m222.26,307.02s-7.78-15.01-9.85-23.14c-1.6-6.3-2.03-12.91-1.85-19.4.24-8.8,1.34-17.7,3.94-26.11,2.61-8.46,6.6-16.58,11.52-23.94,4.87-7.27,17.53-19.55,17.53-19.55" style="fill:none; stroke:#000; stroke-linecap:round; stroke-linejoin:round; stroke-width:2px;"/><path id="uuid-489de6ec-111d-4c99-83f6-259a16e9d1f9" d="m225.75,304.16s-6.08-12.4-7.62-19.06c-1.9-8.17-2.34-16.72-1.91-25.1.38-7.32,1.72-14.65,3.93-21.64,2.22-7.01,5.36-13.8,9.27-20.03,4.13-6.59,9.14-12.69,14.76-18.06,2.96-2.82,9.85-7.31,9.85-7.31" style="fill:none; stroke:#000; stroke-linecap:round; stroke-linejoin:round; stroke-width:2px;"/><path id="uuid-7fd00034-7780-4287-980d-aaa377f8d636" d="m229.57,300.67s-4.71-11.46-6.04-17.47c-1.47-6.66-2.33-13.53-2.08-20.34.29-7.81,1.79-15.61,4.1-23.08,2.18-7.03,5.06-13.97,9.1-20.12,4.32-6.58,10-12.24,15.88-17.47,4.77-4.24,15.57-11.12,15.57-11.12" style="fill:none; stroke:#000; stroke-linecap:round; stroke-linejoin:round; stroke-width:2px;"/><path id="uuid-17b60053-5a7a-4244-8644-c598dda50b38" d="m233.33,298.27s-3.61-9.07-4.71-13.81c-1.29-5.52-2.07-11.19-2.2-16.85-.15-6.74.16-13.59,1.73-20.14,1.74-7.28,4.6-14.38,8.41-20.83,3.75-6.35,8.56-12.15,13.98-17.16,6.15-5.68,20.65-14.3,20.65-14.3" style="fill:none; stroke:#000; stroke-linecap:round; stroke-linejoin:round; stroke-width:2px;"/><path id="uuid-7d67110f-8082-4902-8353-e2e18f080f58" d="m188.21,408.4l15.49-14.26,29.9-27.62,35.05-33.14,29.9-28.76,30.95-28.38" style="stroke:#55a; stroke-linecap:round; stroke-linejoin:round; stroke-width:2px;"/><path id="uuid-b3cf0492-8167-454c-ab59-c513afd27fe2" d="m217.37,333.25l-17.32-4.6,7.02-21.38,17.29,4.24-6.99,21.74Z" style="fill:#f55;"/><path id="uuid-cfedb355-c708-4e64-932e-f111b1baa542" d="m178.73,339.65c2.21-.68,4.43-1.35,6.64-2.03-1.29-1.17-2.58-2.34-3.87-3.5,1.78-.8,3.57-1.6,5.35-2.4-1.17-1.29-2.34-2.58-3.5-3.87,2.15-.86,4.3-1.72,6.46-2.58-1.11-1.41-2.21-2.83-3.32-4.24,2.15-.68,4.3-1.35,6.46-2.03-1.35-1.48-2.71-2.95-4.06-4.43,1.97-.68,3.94-1.35,5.9-2.03-.86-1.54-1.72-3.07-2.58-4.61,1.48-1.11,3.15-2.21,4.62-3.32-7.13-1.17-14.46-2.34-21.59-3.5.86,1.6,1.72,3.2,2.58,4.8l-4.24,2.21c.8,1.84,1.6,3.69,2.4,5.53-2.09.8-4.18,1.6-6.27,2.4.92,1.97,1.84,3.94,2.77,5.9-1.97.37-3.94.74-5.9,1.11,1.29,1.66,2.58,3.32,3.87,4.98-1.97.49-3.94.98-5.9,1.48,1.05,1.41,2.09,2.83,3.14,4.24-1.97.8-3.94,1.6-5.9,2.4,1.64.79,3.25,1.68,4.9,2.41,4.02.37,8.05.73,12.07,1.1h0Z" style="fill:#ff5;"/><path id="uuid-df215bfb-753a-42a8-9434-bdce03be6c02" d="m177.08,339.46c2.37-5.56,5.33-11.43,7.7-17.28,2.56-6.33,4.87-13.41,7.01-19.24" style="fill:none; stroke:#000; stroke-linecap:round; stroke-linejoin:round; stroke-width:2px;"/><path id="uuid-8967cbbb-144f-4781-b675-27709a219c5d" d="m167.88,338.38c2.8-6.06,5.39-12.15,7.7-18.37,2.15-5.81,4.05-11.72,5.73-17.68" style="fill:none; stroke:#000; stroke-linecap:round; stroke-linejoin:round; stroke-width:2px;"/><path id="uuid-d3cc28ac-986d-4773-87cb-d743c14b7c3d" d="m173.43,338.63c.75-.1,1.54-1.1,1.35-1.84-.19-.73-1.36-1.23-2.06-.95-.57.22-.87,1.09-.71,1.67.15.59.83,1.2,1.43,1.12h0Z"/><path id="uuid-51b0e8e3-5735-40cd-931b-b0a93ea22115" d="m176.08,332.25c.76-.1,1.55-1.1,1.36-1.84-.19-.75-1.37-1.25-2.09-.97-.57.22-.87,1.11-.71,1.7.15.59.84,1.19,1.44,1.11Z"/><path id="uuid-bddc1880-5011-44d5-9e2a-1f311550d1d5" d="m179.03,325.7c.77-.12,1.56-1.17,1.33-1.92-.23-.74-1.47-1.15-2.17-.83-.54.25-.76,1.11-.59,1.67.17.57.84,1.17,1.43,1.08h0Z"/><path id="uuid-0a720340-29ce-46b0-a25c-abae68c89a01" d="m181.32,319.2c.76-.1,1.56-1.09,1.37-1.84-.18-.74-1.35-1.27-2.07-1-.58.21-.89,1.09-.74,1.69.15.59.83,1.23,1.44,1.15h0Z"/><path id="uuid-34025fc8-a4d9-4e68-a26b-7421f61f7cf3" d="m183.63,312.76c.79-.14,1.62-1.22,1.35-1.98-.27-.76-1.61-1.07-2.31-.68-.5.28-.63,1.12-.43,1.66.19.54.83,1.09,1.39.99Z"/><path id="uuid-20a2280a-5b4b-44ac-8743-f94f9c1eee15" d="m186.02,306.31c.77-.12,1.57-1.17,1.34-1.91-.23-.74-1.47-1.16-2.18-.83-.54.25-.75,1.11-.58,1.67.17.57.83,1.16,1.42,1.07Z"/><path id="uuid-b59577d3-e873-495f-8fd8-620a42c7ec0f" d="m154.09,323.08l-18.8-.26c4.51-7.24,8.15-14.99,10.66-23.76l17.08,1.12-8.94,22.91Z" style="fill:#f55;"/></g><path id="uuid-432ebcc8-8a18-4bef-a2c0-b7dae7158337" d="m147.07,253.2s1.79,9.17,2.14,13.82c.28,3.64-.02,10.95-.02,10.95,0,0,10.79.65,16.17,1.13,5.27.46,10.53,1.01,15.77,1.69,4.76.61,9.5,1.37,14.24,2.14,5.56.9,16.63,2.9,16.63,2.9,0,0-1.77-8.08-2.15-12.19-.4-4.32-.15-13-.15-13,0,0-10.75-.3-16.1-.71-4.91-.37-9.81-.94-14.69-1.59-5.58-.74-11.13-1.73-16.69-2.63-5.06-.82-15.16-2.5-15.16-2.5h0Z" style="fill:#f55;"/><path id="uuid-87cbad7c-bcb6-4ac0-b60a-1f6970da8c01" d="m265.13,190.17l14.87-6.23,49.5,49.55v17l-64.37-60.33Z"/><path id="uuid-9a038f58-cb8d-442f-b1a5-859cb2a6adbb" d="m280,183.95l19.02-9.34,14.87,4.15,15.61,21.79v33.2l-49.5-49.8Z" style="fill:#55a;"/><path id="uuid-e78ccaf9-635a-4934-a219-4bfa03128723" d="m93.87,348.78l-14.87,6.23-49.5-49.55v-17l64.37,60.33Z"/><path id="uuid-62e875f9-4e63-467d-b069-09cd2738bf20" d="m79,355.01l-19.02,9.34-14.87-4.15-15.61-21.79v-33.2l49.5,49.8Z" style="fill:#55a;"/><path id="uuid-aa72315e-9433-4330-a127-c613298f8e6b" d="m89.5,44.5s6,15,13,25,17,20,17,20c0,0-10,10-17,20s-13,25-13,25c0,0-6-15-13-25s-17-20-17-20c0,0,10-10,17-20s13-25,13-25" style="fill:#f55;"/><path id="uuid-300ce190-1dc0-4ce5-94fd-7c7d54273eb5" d="m29.5,89.5s3,7.5,6.5,12.5,8.5,10,8.5,10c0,0-5,5-8.5,10s-6.5,12.5-6.5,12.5c0,0-3-7.5-6.5-12.5s-8.5-10-8.5-10c0,0,5-5,8.5-10s6.5-12.5,6.5-12.5" style="fill:#f55;"/><path id="uuid-89b85b7f-01f2-4a16-b062-a5fa570e38a8" d="m269.5,494.5s-6-15-13-25-17-20-17-20c0,0,10-10,17-20s13-25,13-25c0,0,6,15,13,25s17,20,17,20c0,0-10,10-17,20s-13,25-13,25" style="fill:#f55;"/><path id="uuid-e620d8b0-6b93-4c86-8389-81637745afe3" d="m329.5,449.5s-3-7.5-6.5-12.5-8.5-10-8.5-10c0,0,5-5,8.5-10s6.5-12.5,6.5-12.5c0,0,3,7.5,6.5,12.5s8.5,10,8.5,10c0,0-5,5-8.5,10s-6.5,12.5-6.5,12.5" style="fill:#f55;"/></g></svg>